<?xml version="1.0" encoding="UTF-8" standalone="no"?>
<!DOCTYPE svg PUBLIC "-//W3C//DTD SVG 1.1//EN"
 "http://www.w3.org/Graphics/SVG/1.1/DTD/svg11.dtd">
<!-- Generated by graphviz version 14.1.5 (0)
 -->
<!-- Title: Source/TactixUE/Private/Controller/ATactixAIController.cpp Pages: 1 -->
<svg width="1137pt" height="338pt"
 viewBox="0.00 0.00 1137.00 338.00" xmlns="http://www.w3.org/2000/svg" xmlns:xlink="http://www.w3.org/1999/xlink">
<g id="graph0" class="graph" transform="scale(1 1) rotate(0) translate(4 334)">
<title>Source/TactixUE/Private/Controller/ATactixAIController.cpp</title>
<!-- Node1 -->
<g id="Node000001" class="node">
<title>Node1</title>
<g id="a_Node000001"><a xlink:title="Implements the Tactix AIController: scratch arena ownership, handle assignment on possess,...">
<polygon fill="#999999" stroke="#666666" points="870.5,-330 688.75,-330 688.75,-296.5 870.5,-296.5 870.5,-330"/>
<text xml:space="preserve" text-anchor="start" x="696.75" y="-316.5" font-family="Helvetica,sans-Serif" font-size="10.00">Source/TactixUE/Private</text>
<text xml:space="preserve" text-anchor="middle" x="779.62" y="-303.75" font-family="Helvetica,sans-Serif" font-size="10.00">/Controller/ATactixAIController.cpp</text>
</a>
</g>
</g>
<!-- Node2 -->
<g id="Node000002" class="node">
<title>Node2</title>
<g id="a_Node000002"><a xlink:href="ATactixAIController_8h.html" target="_top" xlink:title="Base AIController for Tactix&#45;aware pawns.">
<polygon fill="white" stroke="#666666" points="909.38,-191 741.88,-191 741.88,-170.25 909.38,-170.25 909.38,-191"/>
<text xml:space="preserve" text-anchor="middle" x="825.62" y="-177.5" font-family="Helvetica,sans-Serif" font-size="10.00">Controller/ATactixAIController.h</text>
</a>
</g>
</g>
<!-- Node1&#45;&gt;Node2 -->
<g id="edge1_Node000001_Node000002" class="edge">
<title>Node1&#45;&gt;Node2</title>
<g id="a_edge1_Node000001_Node000002"><a xlink:title=" ">
<path fill="none" stroke="#63b8ff" d="M766.43,-296.11C753.67,-278.39 737.96,-249.47 750.62,-227 758.31,-213.37 771.91,-203.37 785.45,-196.28"/>
<polygon fill="#63b8ff" stroke="#63b8ff" points="786.79,-199.52 794.32,-192.07 783.78,-193.2 786.79,-199.52"/>
</a>
</g>
</g>
<!-- Node15 -->
<g id="Node000015" class="node">
<title>Node15</title>
<g id="a_Node000015"><a xlink:href="UTactixAgentComponent_8h.html" target="_top" xlink:title="The component that makes a pawn a Tactix agent.">
<polygon fill="white" stroke="#666666" points="610.75,-254.12 400.5,-254.12 400.5,-233.38 610.75,-233.38 610.75,-254.12"/>
<text xml:space="preserve" text-anchor="middle" x="505.62" y="-240.62" font-family="Helvetica,sans-Serif" font-size="10.00">Components/UTactixAgentComponent.h</text>
</a>
</g>
</g>
<!-- Node1&#45;&gt;Node15 -->
<g id="edge21_Node000001_Node000015" class="edge">
<title>Node1&#45;&gt;Node15</title>
<g id="a_edge21_Node000001_Node000015"><a xlink:title=" ">
<path fill="none" stroke="#63b8ff" d="M714,-296.08C665.79,-284.21 601.22,-268.3 556.81,-257.36"/>
<polygon fill="#63b8ff" stroke="#63b8ff" points="557.7,-253.98 547.16,-254.98 556.03,-260.77 557.7,-253.98"/>
</a>
</g>
</g>
<!-- Node23 -->
<g id="Node000023" class="node">
<title>Node23</title>
<g id="a_Node000023"><a xlink:title=" ">
<polygon fill="#e0e0e0" stroke="#999999" points="897.38,-254.12 759.88,-254.12 759.88,-233.38 897.38,-233.38 897.38,-254.12"/>
<text xml:space="preserve" text-anchor="middle" x="828.62" y="-240.62" font-family="Helvetica,sans-Serif" font-size="10.00">GameFramework/Pawn.h</text>
</a>
</g>
</g>
<!-- Node1&#45;&gt;Node23 -->
<g id="edge40_Node000001_Node000023" class="edge">
<title>Node1&#45;&gt;Node23</title>
<g id="a_edge40_Node000001_Node000023"><a xlink:title=" ">
<path fill="none" stroke="#63b8ff" d="M791.24,-296.25C798.28,-286.55 807.32,-274.1 814.74,-263.87"/>
<polygon fill="#63b8ff" stroke="#63b8ff" points="817.56,-265.95 820.61,-255.8 811.9,-261.83 817.56,-265.95"/>
</a>
</g>
</g>
<!-- Node24 -->
<g id="Node000024" class="node">
<title>Node24</title>
<g id="a_Node000024"><a xlink:title=" ">
<polygon fill="#e0e0e0" stroke="#999999" points="1065.38,-260.5 915.88,-260.5 915.88,-227 1065.38,-227 1065.38,-260.5"/>
<text xml:space="preserve" text-anchor="start" x="923.88" y="-247" font-family="Helvetica,sans-Serif" font-size="10.00">Navigation/CrowdFollowing</text>
<text xml:space="preserve" text-anchor="middle" x="990.62" y="-234.25" font-family="Helvetica,sans-Serif" font-size="10.00">Component.h</text>
</a>
</g>
</g>
<!-- Node1&#45;&gt;Node24 -->
<g id="edge41_Node000001_Node000024" class="edge">
<title>Node1&#45;&gt;Node24</title>
<g id="a_edge41_Node000001_Node000024"><a xlink:title=" ">
<path fill="none" stroke="#63b8ff" d="M830.16,-296.08C859.94,-286.56 897.81,-274.44 929.29,-264.37"/>
<polygon fill="#63b8ff" stroke="#63b8ff" points="930.23,-267.74 938.69,-261.36 928.1,-261.08 930.23,-267.74"/>
</a>
</g>
</g>
<!-- Node3 -->
<g id="Node000003" class="node">
<title>Node3</title>
<g id="a_Node000003"><a xlink:title=" ">
<polygon fill="#e0e0e0" stroke="#999999" points="497.25,-134.25 410,-134.25 410,-113.5 497.25,-113.5 497.25,-134.25"/>
<text xml:space="preserve" text-anchor="middle" x="453.62" y="-120.75" font-family="Helvetica,sans-Serif" font-size="10.00">CoreMinimal.h</text>
</a>
</g>
</g>
<!-- Node2&#45;&gt;Node3 -->
<g id="edge2_Node000002_Node000003" class="edge">
<title>Node2&#45;&gt;Node3</title>
<g id="a_edge2_Node000002_Node000003"><a xlink:title=" ">
<path fill="none" stroke="#63b8ff" d="M751.39,-169.79C689.26,-161.39 597.98,-148.67 508.72,-134.54"/>
<polygon fill="#63b8ff" stroke="#63b8ff" points="509.49,-131.12 499.06,-133 508.39,-138.03 509.49,-131.12"/>
</a>
</g>
</g>
<!-- Node4 -->
<g id="Node000004" class="node">
<title>Node4</title>
<g id="a_Node000004"><a xlink:title=" ">
<polygon fill="#e0e0e0" stroke="#999999" points="927.62,-134.25 845.62,-134.25 845.62,-113.5 927.62,-113.5 927.62,-134.25"/>
<text xml:space="preserve" text-anchor="middle" x="886.62" y="-120.75" font-family="Helvetica,sans-Serif" font-size="10.00">AIController.h</text>
</a>
</g>
</g>
<!-- Node2&#45;&gt;Node4 -->
<g id="edge3_Node000002_Node000004" class="edge">
<title>Node2&#45;&gt;Node4</title>
<g id="a_edge3_Node000002_Node000004"><a xlink:title=" ">
<path fill="none" stroke="#63b8ff" d="M836.53,-169.84C845.12,-162.13 857.3,-151.2 867.5,-142.04"/>
<polygon fill="#63b8ff" stroke="#63b8ff" points="869.58,-144.87 874.69,-135.59 864.91,-139.66 869.58,-144.87"/>
</a>
</g>
</g>
<!-- Node5 -->
<g id="Node000005" class="node">
<title>Node5</title>
<g id="a_Node000005"><a xlink:href="TactixArena_8h.html" target="_top" xlink:title="Bump (linear) allocator for short&#45;lived scratch memory.">
<polygon fill="white" stroke="#666666" points="921.12,-77.5 782.12,-77.5 782.12,-56.75 921.12,-56.75 921.12,-77.5"/>
<text xml:space="preserve" text-anchor="middle" x="851.62" y="-64" font-family="Helvetica,sans-Serif" font-size="10.00">Foundation/TactixArena.h</text>
</a>
</g>
</g>
<!-- Node2&#45;&gt;Node5 -->
<g id="edge4_Node000002_Node000005" class="edge">
<title>Node2&#45;&gt;Node5</title>
<g id="a_edge4_Node000002_Node000005"><a xlink:title=" ">
<path fill="none" stroke="#63b8ff" d="M909.79,-178.66C988.32,-175.77 1097.37,-165.95 1124.62,-134.25 1130.64,-127.26 1130.59,-120.54 1124.62,-113.5 1100.37,-84.88 1004.14,-74.3 932.76,-70.39"/>
<polygon fill="#63b8ff" stroke="#63b8ff" points="933.21,-66.91 923.04,-69.89 932.85,-73.9 933.21,-66.91"/>
</a>
</g>
</g>
<!-- Node11 -->
<g id="Node000011" class="node">
<title>Node11</title>
<g id="a_Node000011"><a xlink:href="FTactixGOAPPlanner_8h.html" target="_top" xlink:title="A* planner over the GOAP world&#45;state graph.">
<polygon fill="white" stroke="#666666" points="827.25,-134.25 674,-134.25 674,-113.5 827.25,-113.5 827.25,-134.25"/>
<text xml:space="preserve" text-anchor="middle" x="750.62" y="-120.75" font-family="Helvetica,sans-Serif" font-size="10.00">GOAP/FTactixGOAPPlanner.h</text>
</a>
</g>
</g>
<!-- Node2&#45;&gt;Node11 -->
<g id="edge10_Node000002_Node000011" class="edge">
<title>Node2&#45;&gt;Node11</title>
<g id="a_edge10_Node000002_Node000011"><a xlink:title=" ">
<path fill="none" stroke="#63b8ff" d="M812.22,-169.84C801.34,-161.9 785.77,-150.53 773.01,-141.21"/>
<polygon fill="#63b8ff" stroke="#63b8ff" points="775.28,-138.54 765.14,-135.47 771.15,-144.19 775.28,-138.54"/>
</a>
</g>
</g>
<!-- Node13 -->
<g id="Node000013" class="node">
<title>Node13</title>
<g id="a_Node000013"><a xlink:href="FTactixHTNPlanner_8h.html" target="_top" xlink:title="Depth&#45;first HTN planner with method&#45;order fallback and backtracking.">
<polygon fill="white" stroke="#666666" points="655.5,-134.25 515.75,-134.25 515.75,-113.5 655.5,-113.5 655.5,-134.25"/>
<text xml:space="preserve" text-anchor="middle" x="585.62" y="-120.75" font-family="Helvetica,sans-Serif" font-size="10.00">HTN/FTactixHTNPlanner.h</text>
</a>
</g>
</g>
<!-- Node2&#45;&gt;Node13 -->
<g id="edge16_Node000002_Node000013" class="edge">
<title>Node2&#45;&gt;Node13</title>
<g id="a_edge16_Node000002_Node000013"><a xlink:title=" ">
<path fill="none" stroke="#63b8ff" d="M782.44,-169.77C742.55,-160.67 683.12,-147.12 640.01,-137.28"/>
<polygon fill="#63b8ff" stroke="#63b8ff" points="640.87,-133.89 630.34,-135.08 639.31,-140.71 640.87,-133.89"/>
</a>
</g>
</g>
<!-- Node14 -->
<g id="Node000014" class="node">
<title>Node14</title>
<g id="a_Node000014"><a xlink:title=" ">
<polygon fill="#e0e0e0" stroke="#999999" points="1115.12,-134.25 946.12,-134.25 946.12,-113.5 1115.12,-113.5 1115.12,-134.25"/>
<text xml:space="preserve" text-anchor="middle" x="1030.62" y="-120.75" font-family="Helvetica,sans-Serif" font-size="10.00">ATactixAIController.generated.h</text>
</a>
</g>
</g>
<!-- Node2&#45;&gt;Node14 -->
<g id="edge20_Node000002_Node000014" class="edge">
<title>Node2&#45;&gt;Node14</title>
<g id="a_edge20_Node000002_Node000014"><a xlink:title=" ">
<path fill="none" stroke="#63b8ff" d="M862.27,-169.84C895.99,-160.83 946.18,-147.43 982.99,-137.6"/>
<polygon fill="#63b8ff" stroke="#63b8ff" points="983.73,-141.02 992.49,-135.06 981.92,-134.26 983.73,-141.02"/>
</a>
</g>
</g>
<!-- Node6 -->
<g id="Node000006" class="node">
<title>Node6</title>
<g id="a_Node000006"><a xlink:href="TactixApi_8h.html" target="_top" xlink:title="Export macros, compiler attributes and version constants shared by every Tactix module.">
<polygon fill="white" stroke="#666666" points="406.25,-20.75 337,-20.75 337,0 406.25,0 406.25,-20.75"/>
<text xml:space="preserve" text-anchor="middle" x="371.62" y="-7.25" font-family="Helvetica,sans-Serif" font-size="10.00">TactixApi.h</text>
</a>
</g>
</g>
<!-- Node5&#45;&gt;Node6 -->
<g id="edge5_Node000005_Node000006" class="edge">
<title>Node5&#45;&gt;Node6</title>
<g id="a_edge5_Node000005_Node000006"><a xlink:title=" ">
<path fill="none" stroke="#63b8ff" d="M781.83,-58.16C682.37,-46.82 502.57,-26.31 417.98,-16.66"/>
<polygon fill="#63b8ff" stroke="#63b8ff" points="418.53,-13.2 408.2,-15.55 417.74,-20.16 418.53,-13.2"/>
</a>
</g>
</g>
<!-- Node7 -->
<g id="Node000007" class="node">
<title>Node7</title>
<g id="a_Node000007"><a xlink:title=" ">
<polygon fill="#e0e0e0" stroke="#999999" points="943.62,-20.75 891.62,-20.75 891.62,0 943.62,0 943.62,-20.75"/>
<text xml:space="preserve" text-anchor="middle" x="917.62" y="-7.25" font-family="Helvetica,sans-Serif" font-size="10.00">cstddef</text>
</a>
</g>
</g>
<!-- Node5&#45;&gt;Node7 -->
<g id="edge6_Node000005_Node000007" class="edge">
<title>Node5&#45;&gt;Node7</title>
<g id="a_edge6_Node000005_Node000007"><a xlink:title=" ">
<path fill="none" stroke="#63b8ff" d="M863.42,-56.34C872.81,-48.55 886.16,-37.47 897.27,-28.26"/>
<polygon fill="#63b8ff" stroke="#63b8ff" points="899.3,-31.12 904.76,-22.04 894.83,-25.74 899.3,-31.12"/>
</a>
</g>
</g>
<!-- Node8 -->
<g id="Node000008" class="node">
<title>Node8</title>
<g id="a_Node000008"><a xlink:title=" ">
<polygon fill="#e0e0e0" stroke="#999999" points="561.12,-20.75 512.12,-20.75 512.12,0 561.12,0 561.12,-20.75"/>
<text xml:space="preserve" text-anchor="middle" x="536.62" y="-7.25" font-family="Helvetica,sans-Serif" font-size="10.00">cstdint</text>
</a>
</g>
</g>
<!-- Node5&#45;&gt;Node8 -->
<g id="edge7_Node000005_Node000008" class="edge">
<title>Node5&#45;&gt;Node8</title>
<g id="a_edge7_Node000005_Node000008"><a xlink:title=" ">
<path fill="none" stroke="#63b8ff" d="M794.95,-56.27C730.42,-45.06 626.95,-27.07 572.62,-17.63"/>
<polygon fill="#63b8ff" stroke="#63b8ff" points="573.43,-14.22 562.97,-15.95 572.23,-21.12 573.43,-14.22"/>
</a>
</g>
</g>
<!-- Node9 -->
<g id="Node000009" class="node">
<title>Node9</title>
<g id="a_Node000009"><a xlink:title=" ">
<polygon fill="#e0e0e0" stroke="#999999" points="811.75,-20.75 775.5,-20.75 775.5,0 811.75,0 811.75,-20.75"/>
<text xml:space="preserve" text-anchor="middle" x="793.62" y="-7.25" font-family="Helvetica,sans-Serif" font-size="10.00">new</text>
</a>
</g>
</g>
<!-- Node5&#45;&gt;Node9 -->
<g id="edge8_Node000005_Node000009" class="edge">
<title>Node5&#45;&gt;Node9</title>
<g id="a_edge8_Node000005_Node000009"><a xlink:title=" ">
<path fill="none" stroke="#63b8ff" d="M841.26,-56.34C833.17,-48.71 821.74,-37.92 812.1,-28.82"/>
<polygon fill="#63b8ff" stroke="#63b8ff" points="814.68,-26.44 805.01,-22.12 809.87,-31.53 814.68,-26.44"/>
</a>
</g>
</g>
<!-- Node10 -->
<g id="Node000010" class="node">
<title>Node10</title>
<g id="a_Node000010"><a xlink:title=" ">
<polygon fill="#e0e0e0" stroke="#999999" points="873.88,-20.75 829.38,-20.75 829.38,0 873.88,0 873.88,-20.75"/>
<text xml:space="preserve" text-anchor="middle" x="851.62" y="-7.25" font-family="Helvetica,sans-Serif" font-size="10.00">utility</text>
</a>
</g>
</g>
<!-- Node5&#45;&gt;Node10 -->
<g id="edge9_Node000005_Node000010" class="edge">
<title>Node5&#45;&gt;Node10</title>
<g id="a_edge9_Node000005_Node000010"><a xlink:title=" ">
<path fill="none" stroke="#63b8ff" d="M851.62,-56.34C851.62,-49.72 851.62,-40.72 851.62,-32.52"/>
<polygon fill="#63b8ff" stroke="#63b8ff" points="855.13,-32.59 851.63,-22.59 848.13,-32.59 855.13,-32.59"/>
</a>
</g>
</g>
<!-- Node11&#45;&gt;Node6 -->
<g id="edge11_Node000011_Node000006" class="edge">
<title>Node11&#45;&gt;Node6</title>
<g id="a_edge11_Node000011_Node000006"><a xlink:title=" ">
<path fill="none" stroke="#63b8ff" d="M709.53,-113.05C673.73,-104.31 620.52,-90.88 574.62,-77.5 517.22,-60.77 451.54,-38.86 410.82,-24.95"/>
<polygon fill="#63b8ff" stroke="#63b8ff" points="412.05,-21.67 401.46,-21.74 409.78,-28.29 412.05,-21.67"/>
</a>
</g>
</g>
<!-- Node11&#45;&gt;Node8 -->
<g id="edge15_Node000011_Node000008" class="edge">
<title>Node11&#45;&gt;Node8</title>
<g id="a_edge15_Node000011_Node000008"><a xlink:title=" ">
<path fill="none" stroke="#63b8ff" d="M751.22,-113.28C751.55,-98.91 749.92,-71.86 734.62,-56.75 712.1,-34.49 623.72,-21.13 572.98,-15.14"/>
<polygon fill="#63b8ff" stroke="#63b8ff" points="573.39,-11.66 563.06,-14.01 572.6,-18.62 573.39,-11.66"/>
</a>
</g>
</g>
<!-- Node12 -->
<g id="Node000012" class="node">
<title>Node12</title>
<g id="a_Node000012"><a xlink:href="FTactixWorldState_8h.html" target="_top" xlink:title="Symbolic world state for the GOAP planner: 64 boolean facts plus a &quot;defined&quot; mask.">
<polygon fill="white" stroke="#666666" points="726,-77.5 583.25,-77.5 583.25,-56.75 726,-56.75 726,-77.5"/>
<text xml:space="preserve" text-anchor="middle" x="654.62" y="-64" font-family="Helvetica,sans-Serif" font-size="10.00">GOAP/FTactixWorldState.h</text>
</a>
</g>
</g>
<!-- Node11&#45;&gt;Node12 -->
<g id="edge12_Node000011_Node000012" class="edge">
<title>Node11&#45;&gt;Node12</title>
<g id="a_edge12_Node000011_Node000012"><a xlink:title=" ">
<path fill="none" stroke="#63b8ff" d="M733.46,-113.09C718.99,-104.83 698.04,-92.88 681.37,-83.38"/>
<polygon fill="#63b8ff" stroke="#63b8ff" points="683.37,-80.49 672.95,-78.58 679.91,-86.57 683.37,-80.49"/>
</a>
</g>
</g>
<!-- Node12&#45;&gt;Node6 -->
<g id="edge13_Node000012_Node000006" class="edge">
<title>Node12&#45;&gt;Node6</title>
<g id="a_edge13_Node000012_Node000006"><a xlink:title=" ">
<path fill="none" stroke="#63b8ff" d="M603.7,-56.27C550.74,-46.03 468.56,-30.13 417.54,-20.26"/>
<polygon fill="#63b8ff" stroke="#63b8ff" points="418.49,-16.88 408.01,-18.41 417.16,-23.75 418.49,-16.88"/>
</a>
</g>
</g>
<!-- Node12&#45;&gt;Node8 -->
<g id="edge14_Node000012_Node000008" class="edge">
<title>Node12&#45;&gt;Node8</title>
<g id="a_edge14_Node000012_Node000008"><a xlink:title=" ">
<path fill="none" stroke="#63b8ff" d="M633.53,-56.34C615.24,-47.85 588.52,-35.45 567.77,-25.83"/>
<polygon fill="#63b8ff" stroke="#63b8ff" points="569.46,-22.75 558.91,-21.72 566.51,-29.1 569.46,-22.75"/>
</a>
</g>
</g>
<!-- Node13&#45;&gt;Node6 -->
<g id="edge17_Node000013_Node000006" class="edge">
<title>Node13&#45;&gt;Node6</title>
<g id="a_edge17_Node000013_Node000006"><a xlink:title=" ">
<path fill="none" stroke="#63b8ff" d="M553.09,-113.04C528.39,-105 493.97,-92.52 465.62,-77.5 438.87,-63.32 410.81,-42.72 392.39,-28.29"/>
<polygon fill="#63b8ff" stroke="#63b8ff" points="394.65,-25.61 384.64,-22.13 390.29,-31.09 394.65,-25.61"/>
</a>
</g>
</g>
<!-- Node13&#45;&gt;Node8 -->
<g id="edge19_Node000013_Node000008" class="edge">
<title>Node13&#45;&gt;Node8</title>
<g id="a_edge19_Node000013_Node000008"><a xlink:title=" ">
<path fill="none" stroke="#63b8ff" d="M581.45,-113.37C573.53,-95.36 556.19,-55.89 545.55,-31.68"/>
<polygon fill="#63b8ff" stroke="#63b8ff" points="548.77,-30.31 541.54,-22.56 542.36,-33.12 548.77,-30.31"/>
</a>
</g>
</g>
<!-- Node13&#45;&gt;Node12 -->
<g id="edge18_Node000013_Node000012" class="edge">
<title>Node13&#45;&gt;Node12</title>
<g id="a_edge18_Node000013_Node000012"><a xlink:title=" ">
<path fill="none" stroke="#63b8ff" d="M597.96,-113.09C607.87,-105.22 622.01,-94 633.69,-84.74"/>
<polygon fill="#63b8ff" stroke="#63b8ff" points="635.55,-87.73 641.21,-78.77 631.2,-82.24 635.55,-87.73"/>
</a>
</g>
</g>
<!-- Node15&#45;&gt;Node3 -->
<g id="edge22_Node000015_Node000003" class="edge">
<title>Node15&#45;&gt;Node3</title>
<g id="a_edge22_Node000015_Node000003"><a xlink:title=" ">
<path fill="none" stroke="#63b8ff" d="M507.04,-233.3C508.76,-218.93 510.32,-191.06 500.62,-170.25 495.44,-159.11 486.22,-149.27 477.31,-141.63"/>
<polygon fill="#63b8ff" stroke="#63b8ff" points="479.52,-138.91 469.51,-135.44 475.17,-144.39 479.52,-138.91"/>
</a>
</g>
</g>
<!-- Node16 -->
<g id="Node000016" class="node">
<title>Node16</title>
<g id="a_Node000016"><a xlink:title=" ">
<polygon fill="#e0e0e0" stroke="#999999" points="724.25,-191 553,-191 553,-170.25 724.25,-170.25 724.25,-191"/>
<text xml:space="preserve" text-anchor="middle" x="638.62" y="-177.5" font-family="Helvetica,sans-Serif" font-size="10.00">Components/ActorComponent.h</text>
</a>
</g>
</g>
<!-- Node15&#45;&gt;Node16 -->
<g id="edge23_Node000015_Node000016" class="edge">
<title>Node15&#45;&gt;Node16</title>
<g id="a_edge23_Node000015_Node000016"><a xlink:title=" ">
<path fill="none" stroke="#63b8ff" d="M526.99,-232.93C548.61,-222.99 582.28,-207.52 607,-196.16"/>
<polygon fill="#63b8ff" stroke="#63b8ff" points="608.31,-199.41 615.93,-192.05 605.39,-193.05 608.31,-199.41"/>
</a>
</g>
</g>
<!-- Node17 -->
<g id="Node000017" class="node">
<title>Node17</title>
<g id="a_Node000017"><a xlink:href="ITactixAgent_8h.html" target="_top" xlink:title="The engine&#45;agnostic contract a &quot;thinking&quot; entity implements to take part in Tactix systems.">
<polygon fill="white" stroke="#666666" points="391.88,-134.25 275.38,-134.25 275.38,-113.5 391.88,-113.5 391.88,-134.25"/>
<text xml:space="preserve" text-anchor="middle" x="333.62" y="-120.75" font-family="Helvetica,sans-Serif" font-size="10.00">Agent/ITactixAgent.h</text>
</a>
</g>
</g>
<!-- Node15&#45;&gt;Node17 -->
<g id="edge24_Node000015_Node000017" class="edge">
<title>Node15&#45;&gt;Node17</title>
<g id="a_edge24_Node000015_Node000017"><a xlink:title=" ">
<path fill="none" stroke="#63b8ff" d="M503.16,-233.3C498.67,-217.91 487.72,-187.42 467.62,-170.25 449.41,-154.68 425.63,-144.39 403.16,-137.62"/>
<polygon fill="#63b8ff" stroke="#63b8ff" points="404.29,-134.3 393.72,-134.97 402.41,-141.04 404.29,-134.3"/>
</a>
</g>
</g>
<!-- Node19 -->
<g id="Node000019" class="node">
<title>Node19</title>
<g id="a_Node000019"><a xlink:href="FTactixAgentContext_8h.html" target="_top" xlink:title="Read&#45;only, side&#45;effect&#45;free snapshot of one agent for a single decision.">
<polygon fill="white" stroke="#666666" points="242.12,-191 85.12,-191 85.12,-170.25 242.12,-170.25 242.12,-191"/>
<text xml:space="preserve" text-anchor="middle" x="163.62" y="-177.5" font-family="Helvetica,sans-Serif" font-size="10.00">Agent/FTactixAgentContext.h</text>
</a>
</g>
</g>
<!-- Node15&#45;&gt;Node19 -->
<g id="edge30_Node000015_Node000019" class="edge">
<title>Node15&#45;&gt;Node19</title>
<g id="a_edge30_Node000015_Node000019"><a xlink:title=" ">
<path fill="none" stroke="#63b8ff" d="M450.68,-232.93C390.56,-222.18 294.21,-204.96 229.94,-193.48"/>
<polygon fill="#63b8ff" stroke="#63b8ff" points="230.67,-190.05 220.21,-191.74 229.44,-196.94 230.67,-190.05"/>
</a>
</g>
</g>
<!-- Node22 -->
<g id="Node000022" class="node">
<title>Node22</title>
<g id="a_Node000022"><a xlink:title=" ">
<polygon fill="#e0e0e0" stroke="#999999" points="458.75,-191 260.5,-191 260.5,-170.25 458.75,-170.25 458.75,-191"/>
<text xml:space="preserve" text-anchor="middle" x="359.62" y="-177.5" font-family="Helvetica,sans-Serif" font-size="10.00">UTactixAgentComponent.generated.h</text>
</a>
</g>
</g>
<!-- Node15&#45;&gt;Node22 -->
<g id="edge39_Node000015_Node000022" class="edge">
<title>Node15&#45;&gt;Node22</title>
<g id="a_edge39_Node000015_Node000022"><a xlink:title=" ">
<path fill="none" stroke="#63b8ff" d="M482.17,-232.93C458.22,-222.9 420.81,-207.24 393.62,-195.86"/>
<polygon fill="#63b8ff" stroke="#63b8ff" points="395,-192.64 384.42,-192.01 392.29,-199.1 395,-192.64"/>
</a>
</g>
</g>
<!-- Node17&#45;&gt;Node6 -->
<g id="edge25_Node000017_Node000006" class="edge">
<title>Node17&#45;&gt;Node6</title>
<g id="a_edge25_Node000017_Node000006"><a xlink:title=" ">
<path fill="none" stroke="#63b8ff" d="M284.58,-113.05C245.64,-102.93 200.9,-84.67 221.62,-56.75 245.3,-24.85 290.76,-14.58 325.45,-11.64"/>
<polygon fill="#63b8ff" stroke="#63b8ff" points="325.5,-15.15 335.25,-11 325.04,-8.16 325.5,-15.15"/>
</a>
</g>
</g>
<!-- Node17&#45;&gt;Node8 -->
<g id="edge29_Node000017_Node000008" class="edge">
<title>Node17&#45;&gt;Node8</title>
<g id="a_edge29_Node000017_Node000008"><a xlink:title=" ">
<path fill="none" stroke="#63b8ff" d="M352.01,-113.02C369.05,-103.87 395.09,-89.84 417.62,-77.5 449.22,-60.19 485.39,-40.05 509.47,-26.58"/>
<polygon fill="#63b8ff" stroke="#63b8ff" points="510.98,-29.75 518,-21.82 507.56,-23.64 510.98,-29.75"/>
</a>
</g>
</g>
<!-- Node18 -->
<g id="Node000018" class="node">
<title>Node18</title>
<g id="a_Node000018"><a xlink:href="TactixHandle_8h.html" target="_top" xlink:title="Type&#45;safe generational handle: the only sanctioned way to reference a pooled object across frames.">
<polygon fill="white" stroke="#666666" points="375.12,-77.5 230.12,-77.5 230.12,-56.75 375.12,-56.75 375.12,-77.5"/>
<text xml:space="preserve" text-anchor="middle" x="302.62" y="-64" font-family="Helvetica,sans-Serif" font-size="10.00">Foundation/TactixHandle.h</text>
</a>
</g>
</g>
<!-- Node17&#45;&gt;Node18 -->
<g id="edge26_Node000017_Node000018" class="edge">
<title>Node17&#45;&gt;Node18</title>
<g id="a_edge26_Node000017_Node000018"><a xlink:title=" ">
<path fill="none" stroke="#63b8ff" d="M328.08,-113.09C324.12,-106.08 318.64,-96.41 313.78,-87.83"/>
<polygon fill="#63b8ff" stroke="#63b8ff" points="316.84,-86.12 308.86,-79.15 310.75,-89.57 316.84,-86.12"/>
</a>
</g>
</g>
<!-- Node18&#45;&gt;Node6 -->
<g id="edge27_Node000018_Node000006" class="edge">
<title>Node18&#45;&gt;Node6</title>
<g id="a_edge27_Node000018_Node000006"><a xlink:title=" ">
<path fill="none" stroke="#63b8ff" d="M314.96,-56.34C324.87,-48.47 339.01,-37.25 350.69,-27.99"/>
<polygon fill="#63b8ff" stroke="#63b8ff" points="352.55,-30.98 358.21,-22.02 348.2,-25.49 352.55,-30.98"/>
</a>
</g>
</g>
<!-- Node18&#45;&gt;Node8 -->
<g id="edge28_Node000018_Node000008" class="edge">
<title>Node18&#45;&gt;Node8</title>
<g id="a_edge28_Node000018_Node000008"><a xlink:title=" ">
<path fill="none" stroke="#63b8ff" d="M344.73,-56.27C389.23,-45.86 458.67,-29.61 500.69,-19.78"/>
<polygon fill="#63b8ff" stroke="#63b8ff" points="501.35,-23.22 510.29,-17.54 499.76,-16.41 501.35,-23.22"/>
</a>
</g>
</g>
<!-- Node19&#45;&gt;Node6 -->
<g id="edge31_Node000019_Node000006" class="edge">
<title>Node19&#45;&gt;Node6</title>
<g id="a_edge31_Node000019_Node000006"><a xlink:title=" ">
<path fill="none" stroke="#63b8ff" d="M164.61,-170.02C167.49,-146.95 178.03,-88 212.62,-56.75 243.53,-28.83 290.48,-17.98 325.36,-13.82"/>
<polygon fill="#63b8ff" stroke="#63b8ff" points="325.59,-17.32 335.18,-12.81 324.87,-10.36 325.59,-17.32"/>
</a>
</g>
</g>
<!-- Node19&#45;&gt;Node8 -->
<g id="edge38_Node000019_Node000008" class="edge">
<title>Node19&#45;&gt;Node8</title>
<g id="a_edge38_Node000019_Node000008"><a xlink:title=" ">
<path fill="none" stroke="#63b8ff" d="M178.85,-169.78C206.94,-151.61 264.3,-114.58 266.62,-113.5 316.39,-90.47 334.76,-100.29 384.62,-77.5 400.38,-70.3 402.12,-64.48 417.62,-56.75 444.78,-43.2 477.03,-31.14 501.1,-22.86"/>
<polygon fill="#63b8ff" stroke="#63b8ff" points="502.08,-26.22 510.43,-19.71 499.84,-19.59 502.08,-26.22"/>
</a>
</g>
</g>
<!-- Node19&#45;&gt;Node17 -->
<g id="edge37_Node000019_Node000017" class="edge">
<title>Node19&#45;&gt;Node17</title>
<g id="a_edge37_Node000019_Node000017"><a xlink:title=" ">
<path fill="none" stroke="#63b8ff" d="M194.02,-169.84C221.49,-160.99 262.16,-147.89 292.53,-138.11"/>
<polygon fill="#63b8ff" stroke="#63b8ff" points="293.32,-141.53 301.77,-135.13 291.18,-134.87 293.32,-141.53"/>
</a>
</g>
</g>
<!-- Node19&#45;&gt;Node18 -->
<g id="edge32_Node000019_Node000018" class="edge">
<title>Node19&#45;&gt;Node18</title>
<g id="a_edge32_Node000019_Node000018"><a xlink:title=" ">
<path fill="none" stroke="#63b8ff" d="M172.66,-170.09C185.56,-156.72 210.29,-131.96 233.62,-113.5 247.15,-102.8 263.21,-92.13 276.43,-83.83"/>
<polygon fill="#63b8ff" stroke="#63b8ff" points="277.94,-87.01 284.6,-78.78 274.26,-81.06 277.94,-87.01"/>
</a>
</g>
</g>
<!-- Node20 -->
<g id="Node000020" class="node">
<title>Node20</title>
<g id="a_Node000020"><a xlink:href="TactixMath_8h.html" target="_top" xlink:title="Small, engine&#45;agnostic vector and scalar math used across Tactix.">
<polygon fill="white" stroke="#666666" points="135.25,-77.5 0,-77.5 0,-56.75 135.25,-56.75 135.25,-77.5"/>
<text xml:space="preserve" text-anchor="middle" x="67.62" y="-64" font-family="Helvetica,sans-Serif" font-size="10.00">Foundation/TactixMath.h</text>
</a>
</g>
</g>
<!-- Node19&#45;&gt;Node20 -->
<g id="edge33_Node000019_Node000020" class="edge">
<title>Node19&#45;&gt;Node20</title>
<g id="a_edge33_Node000019_Node000020"><a xlink:title=" ">
<path fill="none" stroke="#63b8ff" d="M155.44,-170.12C139.51,-151.61 104.09,-110.47 83.43,-86.48"/>
<polygon fill="#63b8ff" stroke="#63b8ff" points="86.23,-84.37 77.05,-79.07 80.92,-88.93 86.23,-84.37"/>
</a>
</g>
</g>
<!-- Node20&#45;&gt;Node6 -->
<g id="edge34_Node000020_Node000006" class="edge">
<title>Node20&#45;&gt;Node6</title>
<g id="a_edge34_Node000020_Node000006"><a xlink:title=" ">
<path fill="none" stroke="#63b8ff" d="M122.33,-56.27C180.42,-45.81 271.22,-29.46 325.72,-19.64"/>
<polygon fill="#63b8ff" stroke="#63b8ff" points="326.06,-23.14 335.28,-17.92 324.82,-16.25 326.06,-23.14"/>
</a>
</g>
</g>
<!-- Node20&#45;&gt;Node8 -->
<g id="edge36_Node000020_Node000008" class="edge">
<title>Node20&#45;&gt;Node8</title>
<g id="a_edge36_Node000020_Node000008"><a xlink:title=" ">
<path fill="none" stroke="#63b8ff" d="M135.57,-58.19C236.5,-46.41 422.52,-24.7 500.62,-15.58"/>
<polygon fill="#63b8ff" stroke="#63b8ff" points="500.73,-19.09 510.26,-14.45 499.92,-12.14 500.73,-19.09"/>
</a>
</g>
</g>
<!-- Node21 -->
<g id="Node000021" class="node">
<title>Node21</title>
<g id="a_Node000021"><a xlink:title=" ">
<polygon fill="#e0e0e0" stroke="#999999" points="91,-20.75 44.25,-20.75 44.25,0 91,0 91,-20.75"/>
<text xml:space="preserve" text-anchor="middle" x="67.62" y="-7.25" font-family="Helvetica,sans-Serif" font-size="10.00">cmath</text>
</a>
</g>
</g>
<!-- Node20&#45;&gt;Node21 -->
<g id="edge35_Node000020_Node000021" class="edge">
<title>Node20&#45;&gt;Node21</title>
<g id="a_edge35_Node000020_Node000021"><a xlink:title=" ">
<path fill="none" stroke="#63b8ff" d="M67.62,-56.34C67.62,-49.72 67.62,-40.72 67.62,-32.52"/>
<polygon fill="#63b8ff" stroke="#63b8ff" points="71.13,-32.59 67.63,-22.59 64.13,-32.59 71.13,-32.59"/>
</a>
</g>
</g>
</g>
</svg>
