<?xml version="1.0" encoding="UTF-8" standalone="no"?>
<!DOCTYPE svg PUBLIC "-//W3C//DTD SVG 1.1//EN"
 "http://www.w3.org/Graphics/SVG/1.1/DTD/svg11.dtd">
<!-- Generated by graphviz version 14.1.5 (0)
 -->
<!-- Title: Source/TactixUE/Public/Controller/ATactixAIController.h Pages: 1 -->
<svg width="751pt" height="212pt"
 viewBox="0.00 0.00 751.00 212.00" xmlns="http://www.w3.org/2000/svg" xmlns:xlink="http://www.w3.org/1999/xlink">
<g id="graph0" class="graph" transform="scale(1 1) rotate(0) translate(4 207.75)">
<title>Source/TactixUE/Public/Controller/ATactixAIController.h</title>
<!-- Node1 -->
<g id="Node000001" class="node">
<title>Node1</title>
<g id="a_Node000001"><a xlink:title="Base AIController for Tactix&#45;aware pawns.">
<polygon fill="#999999" stroke="#666666" points="449.88,-203.75 279.38,-203.75 279.38,-170.25 449.88,-170.25 449.88,-203.75"/>
<text xml:space="preserve" text-anchor="start" x="287.38" y="-190.25" font-family="Helvetica,sans-Serif" font-size="10.00">Source/TactixUE/Public</text>
<text xml:space="preserve" text-anchor="middle" x="364.62" y="-177.5" font-family="Helvetica,sans-Serif" font-size="10.00">/Controller/ATactixAIController.h</text>
</a>
</g>
</g>
<!-- Node2 -->
<g id="Node000002" class="node">
<title>Node2</title>
<g id="a_Node000002"><a xlink:title=" ">
<polygon fill="#e0e0e0" stroke="#999999" points="87.25,-134.25 0,-134.25 0,-113.5 87.25,-113.5 87.25,-134.25"/>
<text xml:space="preserve" text-anchor="middle" x="43.62" y="-120.75" font-family="Helvetica,sans-Serif" font-size="10.00">CoreMinimal.h</text>
</a>
</g>
</g>
<!-- Node1&#45;&gt;Node2 -->
<g id="edge1_Node000001_Node000002" class="edge">
<title>Node1&#45;&gt;Node2</title>
<g id="a_edge1_Node000001_Node000002"><a xlink:title=" ">
<path fill="none" stroke="#63b8ff" d="M279.45,-169.78C222.24,-158.89 148.52,-144.85 98.85,-135.39"/>
<polygon fill="#63b8ff" stroke="#63b8ff" points="99.67,-131.98 89.19,-133.55 98.36,-138.86 99.67,-131.98"/>
</a>
</g>
</g>
<!-- Node3 -->
<g id="Node000003" class="node">
<title>Node3</title>
<g id="a_Node000003"><a xlink:title=" ">
<polygon fill="#e0e0e0" stroke="#999999" points="187.62,-134.25 105.62,-134.25 105.62,-113.5 187.62,-113.5 187.62,-134.25"/>
<text xml:space="preserve" text-anchor="middle" x="146.62" y="-120.75" font-family="Helvetica,sans-Serif" font-size="10.00">AIController.h</text>
</a>
</g>
</g>
<!-- Node1&#45;&gt;Node3 -->
<g id="edge2_Node000001_Node000003" class="edge">
<title>Node1&#45;&gt;Node3</title>
<g id="a_edge2_Node000001_Node000003"><a xlink:title=" ">
<path fill="none" stroke="#63b8ff" d="M306.78,-169.78C270.97,-159.74 225.63,-147.03 192.34,-137.69"/>
<polygon fill="#63b8ff" stroke="#63b8ff" points="193.57,-134.4 183,-135.07 191.68,-141.14 193.57,-134.4"/>
</a>
</g>
</g>
<!-- Node4 -->
<g id="Node000004" class="node">
<title>Node4</title>
<g id="a_Node000004"><a xlink:href="TactixArena_8h.html" target="_top" xlink:title="Bump (linear) allocator for short&#45;lived scratch memory.">
<polygon fill="white" stroke="#666666" points="625.12,-77.5 486.12,-77.5 486.12,-56.75 625.12,-56.75 625.12,-77.5"/>
<text xml:space="preserve" text-anchor="middle" x="555.62" y="-64" font-family="Helvetica,sans-Serif" font-size="10.00">Foundation/TactixArena.h</text>
</a>
</g>
</g>
<!-- Node1&#45;&gt;Node4 -->
<g id="edge3_Node000001_Node000004" class="edge">
<title>Node1&#45;&gt;Node4</title>
<g id="a_edge3_Node000001_Node000004"><a xlink:title=" ">
<path fill="none" stroke="#63b8ff" d="M450.27,-172.98C477.23,-165.37 505.46,-153.32 526.62,-134.25 539.87,-122.32 547.35,-103.24 551.38,-88.64"/>
<polygon fill="#63b8ff" stroke="#63b8ff" points="554.72,-89.69 553.65,-79.15 547.92,-88.06 554.72,-89.69"/>
</a>
</g>
</g>
<!-- Node10 -->
<g id="Node000010" class="node">
<title>Node10</title>
<g id="a_Node000010"><a xlink:href="FTactixGOAPPlanner_8h.html" target="_top" xlink:title="A* planner over the GOAP world&#45;state graph.">
<polygon fill="white" stroke="#666666" points="359.25,-134.25 206,-134.25 206,-113.5 359.25,-113.5 359.25,-134.25"/>
<text xml:space="preserve" text-anchor="middle" x="282.62" y="-120.75" font-family="Helvetica,sans-Serif" font-size="10.00">GOAP/FTactixGOAPPlanner.h</text>
</a>
</g>
</g>
<!-- Node1&#45;&gt;Node10 -->
<g id="edge9_Node000001_Node000010" class="edge">
<title>Node1&#45;&gt;Node10</title>
<g id="a_edge9_Node000001_Node000010"><a xlink:title=" ">
<path fill="none" stroke="#63b8ff" d="M343.08,-169.94C331.37,-161.21 316.89,-150.42 305.04,-141.59"/>
<polygon fill="#63b8ff" stroke="#63b8ff" points="307.15,-138.79 297.04,-135.62 302.97,-144.4 307.15,-138.79"/>
</a>
</g>
</g>
<!-- Node12 -->
<g id="Node000012" class="node">
<title>Node12</title>
<g id="a_Node000012"><a xlink:href="FTactixHTNPlanner_8h.html" target="_top" xlink:title="Depth&#45;first HTN planner with method&#45;order fallback and backtracking.">
<polygon fill="white" stroke="#666666" points="517.5,-134.25 377.75,-134.25 377.75,-113.5 517.5,-113.5 517.5,-134.25"/>
<text xml:space="preserve" text-anchor="middle" x="447.62" y="-120.75" font-family="Helvetica,sans-Serif" font-size="10.00">HTN/FTactixHTNPlanner.h</text>
</a>
</g>
</g>
<!-- Node1&#45;&gt;Node12 -->
<g id="edge15_Node000001_Node000012" class="edge">
<title>Node1&#45;&gt;Node12</title>
<g id="a_edge15_Node000001_Node000012"><a xlink:title=" ">
<path fill="none" stroke="#63b8ff" d="M386.43,-169.94C398.41,-161.12 413.23,-150.2 425.29,-141.32"/>
<polygon fill="#63b8ff" stroke="#63b8ff" points="427.07,-144.36 433.04,-135.61 422.91,-138.73 427.07,-144.36"/>
</a>
</g>
</g>
<!-- Node13 -->
<g id="Node000013" class="node">
<title>Node13</title>
<g id="a_Node000013"><a xlink:title=" ">
<polygon fill="#e0e0e0" stroke="#999999" points="743.12,-134.25 574.12,-134.25 574.12,-113.5 743.12,-113.5 743.12,-134.25"/>
<text xml:space="preserve" text-anchor="middle" x="658.62" y="-120.75" font-family="Helvetica,sans-Serif" font-size="10.00">ATactixAIController.generated.h</text>
</a>
</g>
</g>
<!-- Node1&#45;&gt;Node13 -->
<g id="edge19_Node000001_Node000013" class="edge">
<title>Node1&#45;&gt;Node13</title>
<g id="a_edge19_Node000001_Node000013"><a xlink:title=" ">
<path fill="none" stroke="#63b8ff" d="M442.64,-169.78C492.2,-159.48 555.28,-146.36 600.46,-136.97"/>
<polygon fill="#63b8ff" stroke="#63b8ff" points="600.98,-140.44 610.05,-134.97 599.55,-133.58 600.98,-140.44"/>
</a>
</g>
</g>
<!-- Node5 -->
<g id="Node000005" class="node">
<title>Node5</title>
<g id="a_Node000005"><a xlink:href="TactixApi_8h.html" target="_top" xlink:title="Export macros, compiler attributes and version constants shared by every Tactix module.">
<polygon fill="white" stroke="#666666" points="349.25,-20.75 280,-20.75 280,0 349.25,0 349.25,-20.75"/>
<text xml:space="preserve" text-anchor="middle" x="314.62" y="-7.25" font-family="Helvetica,sans-Serif" font-size="10.00">TactixApi.h</text>
</a>
</g>
</g>
<!-- Node4&#45;&gt;Node5 -->
<g id="edge4_Node000004_Node000005" class="edge">
<title>Node4&#45;&gt;Node5</title>
<g id="a_edge4_Node000004_Node000005"><a xlink:title=" ">
<path fill="none" stroke="#63b8ff" d="M512.26,-56.27C469.47,-46.55 404.28,-31.74 360.6,-21.82"/>
<polygon fill="#63b8ff" stroke="#63b8ff" points="361.44,-18.42 350.92,-19.62 359.89,-25.25 361.44,-18.42"/>
</a>
</g>
</g>
<!-- Node6 -->
<g id="Node000006" class="node">
<title>Node6</title>
<g id="a_Node000006"><a xlink:title=" ">
<polygon fill="#e0e0e0" stroke="#999999" points="519.62,-20.75 467.62,-20.75 467.62,0 519.62,0 519.62,-20.75"/>
<text xml:space="preserve" text-anchor="middle" x="493.62" y="-7.25" font-family="Helvetica,sans-Serif" font-size="10.00">cstddef</text>
</a>
</g>
</g>
<!-- Node4&#45;&gt;Node6 -->
<g id="edge5_Node000004_Node000006" class="edge">
<title>Node4&#45;&gt;Node6</title>
<g id="a_edge5_Node000004_Node000006"><a xlink:title=" ">
<path fill="none" stroke="#63b8ff" d="M544.54,-56.34C535.81,-48.63 523.43,-37.7 513.06,-28.54"/>
<polygon fill="#63b8ff" stroke="#63b8ff" points="515.56,-26.08 505.75,-22.08 510.93,-31.32 515.56,-26.08"/>
</a>
</g>
</g>
<!-- Node7 -->
<g id="Node000007" class="node">
<title>Node7</title>
<g id="a_Node000007"><a xlink:title=" ">
<polygon fill="#e0e0e0" stroke="#999999" points="427.12,-20.75 378.12,-20.75 378.12,0 427.12,0 427.12,-20.75"/>
<text xml:space="preserve" text-anchor="middle" x="402.62" y="-7.25" font-family="Helvetica,sans-Serif" font-size="10.00">cstdint</text>
</a>
</g>
</g>
<!-- Node4&#45;&gt;Node7 -->
<g id="edge6_Node000004_Node000007" class="edge">
<title>Node4&#45;&gt;Node7</title>
<g id="a_edge6_Node000004_Node000007"><a xlink:title=" ">
<path fill="none" stroke="#63b8ff" d="M528.27,-56.34C503.04,-47.31 465.44,-33.85 437.94,-24.01"/>
<polygon fill="#63b8ff" stroke="#63b8ff" points="439.23,-20.76 428.64,-20.68 436.88,-27.35 439.23,-20.76"/>
</a>
</g>
</g>
<!-- Node8 -->
<g id="Node000008" class="node">
<title>Node8</title>
<g id="a_Node000008"><a xlink:title=" ">
<polygon fill="#e0e0e0" stroke="#999999" points="573.75,-20.75 537.5,-20.75 537.5,0 573.75,0 573.75,-20.75"/>
<text xml:space="preserve" text-anchor="middle" x="555.62" y="-7.25" font-family="Helvetica,sans-Serif" font-size="10.00">new</text>
</a>
</g>
</g>
<!-- Node4&#45;&gt;Node8 -->
<g id="edge7_Node000004_Node000008" class="edge">
<title>Node4&#45;&gt;Node8</title>
<g id="a_edge7_Node000004_Node000008"><a xlink:title=" ">
<path fill="none" stroke="#63b8ff" d="M555.62,-56.34C555.62,-49.72 555.62,-40.72 555.62,-32.52"/>
<polygon fill="#63b8ff" stroke="#63b8ff" points="559.13,-32.59 555.63,-22.59 552.13,-32.59 559.13,-32.59"/>
</a>
</g>
</g>
<!-- Node9 -->
<g id="Node000009" class="node">
<title>Node9</title>
<g id="a_Node000009"><a xlink:title=" ">
<polygon fill="#e0e0e0" stroke="#999999" points="635.88,-20.75 591.38,-20.75 591.38,0 635.88,0 635.88,-20.75"/>
<text xml:space="preserve" text-anchor="middle" x="613.62" y="-7.25" font-family="Helvetica,sans-Serif" font-size="10.00">utility</text>
</a>
</g>
</g>
<!-- Node4&#45;&gt;Node9 -->
<g id="edge8_Node000004_Node000009" class="edge">
<title>Node4&#45;&gt;Node9</title>
<g id="a_edge8_Node000004_Node000009"><a xlink:title=" ">
<path fill="none" stroke="#63b8ff" d="M565.99,-56.34C574.08,-48.71 585.51,-37.92 595.15,-28.82"/>
<polygon fill="#63b8ff" stroke="#63b8ff" points="597.38,-31.53 602.24,-22.12 592.57,-26.44 597.38,-31.53"/>
</a>
</g>
</g>
<!-- Node10&#45;&gt;Node5 -->
<g id="edge10_Node000010_Node000005" class="edge">
<title>Node10&#45;&gt;Node5</title>
<g id="a_edge10_Node000010_Node000005"><a xlink:title=" ">
<path fill="none" stroke="#63b8ff" d="M253.19,-113.1C224.05,-101.75 186.01,-81.41 202.62,-56.75 217.35,-34.9 244.59,-23.56 268.52,-17.69"/>
<polygon fill="#63b8ff" stroke="#63b8ff" points="269.06,-21.15 278.09,-15.61 267.58,-14.31 269.06,-21.15"/>
</a>
</g>
</g>
<!-- Node10&#45;&gt;Node7 -->
<g id="edge14_Node000010_Node000007" class="edge">
<title>Node10&#45;&gt;Node7</title>
<g id="a_edge14_Node000010_Node000007"><a xlink:title=" ">
<path fill="none" stroke="#63b8ff" d="M306.78,-113.13C323.85,-105.37 346.48,-93.19 362.62,-77.5 376.29,-64.22 387.1,-45.32 394.02,-31.12"/>
<polygon fill="#63b8ff" stroke="#63b8ff" points="397.07,-32.87 398.09,-22.32 390.72,-29.93 397.07,-32.87"/>
</a>
</g>
</g>
<!-- Node11 -->
<g id="Node000011" class="node">
<title>Node11</title>
<g id="a_Node000011"><a xlink:href="FTactixWorldState_8h.html" target="_top" xlink:title="Symbolic world state for the GOAP planner: 64 boolean facts plus a &quot;defined&quot; mask.">
<polygon fill="white" stroke="#666666" points="354,-77.5 211.25,-77.5 211.25,-56.75 354,-56.75 354,-77.5"/>
<text xml:space="preserve" text-anchor="middle" x="282.62" y="-64" font-family="Helvetica,sans-Serif" font-size="10.00">GOAP/FTactixWorldState.h</text>
</a>
</g>
</g>
<!-- Node10&#45;&gt;Node11 -->
<g id="edge11_Node000010_Node000011" class="edge">
<title>Node10&#45;&gt;Node11</title>
<g id="a_edge11_Node000010_Node000011"><a xlink:title=" ">
<path fill="none" stroke="#63b8ff" d="M282.62,-113.09C282.62,-106.47 282.62,-97.47 282.62,-89.27"/>
<polygon fill="#63b8ff" stroke="#63b8ff" points="286.13,-89.34 282.63,-79.34 279.13,-89.34 286.13,-89.34"/>
</a>
</g>
</g>
<!-- Node11&#45;&gt;Node5 -->
<g id="edge12_Node000011_Node000005" class="edge">
<title>Node11&#45;&gt;Node5</title>
<g id="a_edge12_Node000011_Node000005"><a xlink:title=" ">
<path fill="none" stroke="#63b8ff" d="M288.35,-56.34C292.49,-49.25 298.22,-39.44 303.28,-30.79"/>
<polygon fill="#63b8ff" stroke="#63b8ff" points="306.17,-32.78 308.19,-22.39 300.12,-29.25 306.17,-32.78"/>
</a>
</g>
</g>
<!-- Node11&#45;&gt;Node7 -->
<g id="edge13_Node000011_Node000007" class="edge">
<title>Node11&#45;&gt;Node7</title>
<g id="a_edge13_Node000011_Node000007"><a xlink:title=" ">
<path fill="none" stroke="#63b8ff" d="M304.08,-56.34C322.68,-47.85 349.85,-35.45 370.95,-25.83"/>
<polygon fill="#63b8ff" stroke="#63b8ff" points="372.34,-29.04 379.98,-21.71 369.43,-22.67 372.34,-29.04"/>
</a>
</g>
</g>
<!-- Node12&#45;&gt;Node5 -->
<g id="edge16_Node000012_Node000005" class="edge">
<title>Node12&#45;&gt;Node5</title>
<g id="a_edge16_Node000012_Node000005"><a xlink:title=" ">
<path fill="none" stroke="#63b8ff" d="M436.29,-113.37C413.82,-94.54 363.4,-52.26 335.02,-28.47"/>
<polygon fill="#63b8ff" stroke="#63b8ff" points="337.39,-25.89 327.47,-22.15 332.89,-31.25 337.39,-25.89"/>
</a>
</g>
</g>
<!-- Node12&#45;&gt;Node7 -->
<g id="edge18_Node000012_Node000007" class="edge">
<title>Node12&#45;&gt;Node7</title>
<g id="a_edge18_Node000012_Node000007"><a xlink:title=" ">
<path fill="none" stroke="#63b8ff" d="M446.76,-113.1C445.32,-99.87 441.74,-75.74 433.62,-56.75 429.62,-47.37 423.55,-37.92 417.85,-30.08"/>
<polygon fill="#63b8ff" stroke="#63b8ff" points="420.78,-28.16 411.92,-22.36 415.23,-32.42 420.78,-28.16"/>
</a>
</g>
</g>
<!-- Node12&#45;&gt;Node11 -->
<g id="edge17_Node000012_Node000011" class="edge">
<title>Node12&#45;&gt;Node11</title>
<g id="a_edge17_Node000012_Node000011"><a xlink:title=" ">
<path fill="none" stroke="#63b8ff" d="M418.13,-113.09C391.58,-104.28 352.33,-91.25 322.9,-81.49"/>
<polygon fill="#63b8ff" stroke="#63b8ff" points="324.18,-78.22 313.58,-78.4 321.97,-84.87 324.18,-78.22"/>
</a>
</g>
</g>
</g>
</svg>
