<?xml version="1.0" encoding="UTF-8" standalone="no"?>
<!DOCTYPE svg PUBLIC "-//W3C//DTD SVG 1.1//EN"
 "http://www.w3.org/Graphics/SVG/1.1/DTD/svg11.dtd">
<!-- Generated by graphviz version 14.1.5 (0)
 -->
<!-- Title: Tactix::FTactixSquad&lt; Capacity &gt; Pages: 1 -->
<svg width="300pt" height="218pt"
 viewBox="0.00 0.00 300.00 218.00" xmlns="http://www.w3.org/2000/svg" xmlns:xlink="http://www.w3.org/1999/xlink">
<g id="graph0" class="graph" transform="scale(1 1) rotate(0) translate(4 214)">
<title>Tactix::FTactixSquad&lt; Capacity &gt;</title>
<!-- Node1 -->
<g id="Node000001" class="node">
<title>Node1</title>
<g id="a_Node000001"><a xlink:title="A squad of up to Capacity agents.">
<polygon fill="#999999" stroke="#666666" points="211.5,-33.5 97.25,-33.5 97.25,0 211.5,0 211.5,-33.5"/>
<text xml:space="preserve" text-anchor="start" x="105.25" y="-20" font-family="Helvetica,sans-Serif" font-size="10.00">Tactix::FTactixSquad</text>
<text xml:space="preserve" text-anchor="middle" x="154.38" y="-7.25" font-family="Helvetica,sans-Serif" font-size="10.00">&lt; Capacity &gt;</text>
</a>
</g>
</g>
<!-- Node2 -->
<g id="Node000002" class="node">
<title>Node2</title>
<g id="a_Node000002"><a xlink:href="structTactix_1_1FTactixSquadMember.html" target="_top" xlink:title="One squad slot: which agent, its role, and its formation slot index.">
<polygon fill="white" stroke="#666666" points="154.75,-115.38 0,-115.38 0,-94.62 154.75,-94.62 154.75,-115.38"/>
<text xml:space="preserve" text-anchor="middle" x="77.38" y="-101.88" font-family="Helvetica,sans-Serif" font-size="10.00">Tactix::FTactixSquadMember</text>
</a>
</g>
</g>
<!-- Node2&#45;&gt;Node1 -->
<g id="edge1_Node000001_Node000002" class="edge">
<title>Node2&#45;&gt;Node1</title>
<g id="a_edge1_Node000001_Node000002"><a xlink:title=" ">
<path fill="none" stroke="#9a32cd" stroke-dasharray="5,2" d="M93.23,-86.24C106.99,-70.83 126.75,-48.7 140.05,-33.8"/>
<polygon fill="#9a32cd" stroke="#9a32cd" points="90.97,-83.52 86.92,-93.31 96.19,-88.18 90.97,-83.52"/>
</a>
</g>
<text xml:space="preserve" text-anchor="start" x="125.77" y="-57.5" font-family="Helvetica,sans-Serif" font-size="10.00" fill="grey">Members</text>
</g>
<!-- Node3 -->
<g id="Node000003" class="node">
<title>Node3</title>
<g id="a_Node000003"><a xlink:href="structTactix_1_1FTactixHandle.html" target="_top" xlink:title=" ">
<polygon fill="white" stroke="#666666" points="143.88,-210 10.88,-210 10.88,-176.5 143.88,-176.5 143.88,-210"/>
<text xml:space="preserve" text-anchor="start" x="18.88" y="-196.5" font-family="Helvetica,sans-Serif" font-size="10.00">Tactix::FTactixHandle</text>
<text xml:space="preserve" text-anchor="middle" x="77.38" y="-183.75" font-family="Helvetica,sans-Serif" font-size="10.00">&lt; Tactix::ITactixAgent &gt;</text>
</a>
</g>
</g>
<!-- Node3&#45;&gt;Node2 -->
<g id="edge2_Node000002_Node000003" class="edge">
<title>Node3&#45;&gt;Node2</title>
<g id="a_edge2_Node000002_Node000003"><a xlink:title=" ">
<path fill="none" stroke="#9a32cd" stroke-dasharray="5,2" d="M77.38,-164.63C77.38,-147.87 77.38,-127.5 77.38,-115.72"/>
<polygon fill="#9a32cd" stroke="#9a32cd" points="73.88,-164.51 77.38,-174.51 80.88,-164.51 73.88,-164.51"/>
</a>
</g>
<text xml:space="preserve" text-anchor="start" x="80.38" y="-145.75" font-family="Helvetica,sans-Serif" font-size="10.00" fill="grey">Agent</text>
</g>
<!-- Node4 -->
<g id="Node000004" class="node">
<title>Node4</title>
<g id="a_Node000004"><a xlink:href="structTactix_1_1FTactixHandle.html" target="_top" xlink:title=" ">
<polygon fill="white" stroke="#666666" points="291.75,-121.75 173,-121.75 173,-88.25 291.75,-88.25 291.75,-121.75"/>
<text xml:space="preserve" text-anchor="start" x="181" y="-108.25" font-family="Helvetica,sans-Serif" font-size="10.00">Tactix::FTactixHandle</text>
<text xml:space="preserve" text-anchor="middle" x="232.38" y="-95.5" font-family="Helvetica,sans-Serif" font-size="10.00">&lt; ITactixAgent &gt;</text>
</a>
</g>
</g>
<!-- Node4&#45;&gt;Node1 -->
<g id="edge3_Node000001_Node000004" class="edge">
<title>Node4&#45;&gt;Node1</title>
<g id="a_edge3_Node000001_Node000004"><a xlink:title=" ">
<path fill="none" stroke="#9a32cd" stroke-dasharray="5,2" d="M210.34,-79.64C197.1,-65 180.62,-46.77 168.98,-33.9"/>
<polygon fill="#9a32cd" stroke="#9a32cd" points="207.39,-81.59 216.69,-86.65 212.58,-76.89 207.39,-81.59"/>
</a>
</g>
<text xml:space="preserve" text-anchor="start" x="203.36" y="-57.5" font-family="Helvetica,sans-Serif" font-size="10.00" fill="grey">Leader</text>
</g>
</g>
</svg>
