<?xml version="1.0" encoding="UTF-8" standalone="no"?>
<!DOCTYPE svg PUBLIC "-//W3C//DTD SVG 1.1//EN"
 "http://www.w3.org/Graphics/SVG/1.1/DTD/svg11.dtd">
<!-- Generated by graphviz version 14.1.5 (0)
 -->
<!-- Title: ATactixAIController Pages: 1 -->
<svg width="407pt" height="238pt"
 viewBox="0.00 0.00 407.00 238.00" xmlns="http://www.w3.org/2000/svg" xmlns:xlink="http://www.w3.org/1999/xlink">
<g id="graph0" class="graph" transform="scale(1 1) rotate(0) translate(4 233.5)">
<title>ATactixAIController</title>
<!-- Node1 -->
<g id="Node000001" class="node">
<title>Node1</title>
<g id="a_Node000001"><a xlink:title=" ">
<polygon fill="#999999" stroke="#666666" points="219.38,-20.75 111.12,-20.75 111.12,0 219.38,0 219.38,-20.75"/>
<text xml:space="preserve" text-anchor="middle" x="165.25" y="-7.25" font-family="Helvetica,sans-Serif" font-size="10.00">ATactixAIController</text>
</a>
</g>
</g>
<!-- Node2 -->
<g id="Node000002" class="node">
<title>Node2</title>
<g id="a_Node000002"><a xlink:title=" ">
<polygon fill="white" stroke="#666666" points="80.5,-96.25 0,-96.25 0,-75.5 80.5,-75.5 80.5,-96.25"/>
<text xml:space="preserve" text-anchor="middle" x="40.25" y="-82.75" font-family="Helvetica,sans-Serif" font-size="10.00">AAIController</text>
</a>
</g>
</g>
<!-- Node2&#45;&gt;Node1 -->
<g id="edge1_Node000001_Node000002" class="edge">
<title>Node2&#45;&gt;Node1</title>
<g id="a_edge1_Node000001_Node000002"><a xlink:title=" ">
<path fill="none" stroke="#63b8ff" d="M66.67,-69.34C91.42,-54.79 127.63,-33.5 148.58,-21.18"/>
<polygon fill="#63b8ff" stroke="#63b8ff" points="65,-66.26 58.15,-74.35 68.55,-72.3 65,-66.26"/>
</a>
</g>
</g>
<!-- Node3 -->
<g id="Node000003" class="node">
<title>Node3</title>
<g id="a_Node000003"><a xlink:href="structTactix_1_1FTactixGOAPPlan.html" target="_top" xlink:title="A computed plan: the ordered actions that get from start to goal.">
<polygon fill="white" stroke="#666666" points="231.75,-96.25 98.75,-96.25 98.75,-75.5 231.75,-75.5 231.75,-96.25"/>
<text xml:space="preserve" text-anchor="middle" x="165.25" y="-82.75" font-family="Helvetica,sans-Serif" font-size="10.00">Tactix::FTactixGOAPPlan</text>
</a>
</g>
</g>
<!-- Node3&#45;&gt;Node1 -->
<g id="edge2_Node000001_Node000003" class="edge">
<title>Node3&#45;&gt;Node1</title>
<g id="a_edge2_Node000001_Node000003"><a xlink:title=" ">
<path fill="none" stroke="#9a32cd" stroke-dasharray="5,2" d="M165.25,-63.76C165.25,-49.76 165.25,-32.05 165.25,-21.22"/>
<polygon fill="#9a32cd" stroke="#9a32cd" points="161.75,-63.75 165.25,-73.75 168.75,-63.75 161.75,-63.75"/>
</a>
</g>
<text xml:space="preserve" text-anchor="start" x="168.25" y="-44.75" font-family="Helvetica,sans-Serif" font-size="10.00" fill="grey">ActiveGOAPPlan</text>
</g>
<!-- Node4 -->
<g id="Node000004" class="node">
<title>Node4</title>
<g id="a_Node000004"><a xlink:href="classTactix_1_1ITactixGOAPAction.html" target="_top" xlink:title="One operator the GOAP planner can chain to reach a goal.">
<polygon fill="white" stroke="#666666" points="233.12,-171.75 93.38,-171.75 93.38,-151 233.12,-151 233.12,-171.75"/>
<text xml:space="preserve" text-anchor="middle" x="163.25" y="-158.25" font-family="Helvetica,sans-Serif" font-size="10.00">Tactix::ITactixGOAPAction</text>
</a>
</g>
</g>
<!-- Node4&#45;&gt;Node3 -->
<g id="edge3_Node000003_Node000004" class="edge">
<title>Node4&#45;&gt;Node3</title>
<g id="a_edge3_Node000003_Node000004"><a xlink:title=" ">
<path fill="none" stroke="#9a32cd" stroke-dasharray="5,2" d="M163.82,-139.26C164.21,-125.26 164.69,-107.55 164.98,-96.72"/>
<polygon fill="#9a32cd" stroke="#9a32cd" points="160.33,-139.16 163.55,-149.25 167.32,-139.35 160.33,-139.16"/>
</a>
</g>
<text xml:space="preserve" text-anchor="start" x="167.49" y="-120.25" font-family="Helvetica,sans-Serif" font-size="10.00" fill="grey">Steps</text>
</g>
<!-- Node5 -->
<g id="Node000005" class="node">
<title>Node5</title>
<g id="a_Node000005"><a xlink:href="structTactix_1_1FTactixHTNPlan.html" target="_top" xlink:title="A fully decomposed HTN plan: a flat, ordered list of primitives.">
<polygon fill="white" stroke="#666666" points="383.38,-96.25 257.12,-96.25 257.12,-75.5 383.38,-75.5 383.38,-96.25"/>
<text xml:space="preserve" text-anchor="middle" x="320.25" y="-82.75" font-family="Helvetica,sans-Serif" font-size="10.00">Tactix::FTactixHTNPlan</text>
</a>
</g>
</g>
<!-- Node5&#45;&gt;Node1 -->
<g id="edge4_Node000001_Node000005" class="edge">
<title>Node5&#45;&gt;Node1</title>
<g id="a_edge4_Node000001_Node000005"><a xlink:title=" ">
<path fill="none" stroke="#9a32cd" stroke-dasharray="5,2" d="M300.08,-67.98C287.76,-58.34 271.32,-46.64 255.25,-38.75 240.3,-31.41 222.97,-25.57 207.54,-21.21"/>
<polygon fill="#9a32cd" stroke="#9a32cd" points="297.83,-70.66 307.81,-74.21 302.22,-65.21 297.83,-70.66"/>
</a>
</g>
<text xml:space="preserve" text-anchor="start" x="288.07" y="-44.75" font-family="Helvetica,sans-Serif" font-size="10.00" fill="grey">ActiveHTNPlan</text>
</g>
<!-- Node6 -->
<g id="Node000006" class="node">
<title>Node6</title>
<g id="a_Node000006"><a xlink:href="classTactix_1_1ITactixHTNPrimitive.html" target="_top" xlink:title="A leaf task: directly executable, with planner&#45;visible effects.">
<polygon fill="white" stroke="#666666" points="398.88,-171.75 251.62,-171.75 251.62,-151 398.88,-151 398.88,-171.75"/>
<text xml:space="preserve" text-anchor="middle" x="325.25" y="-158.25" font-family="Helvetica,sans-Serif" font-size="10.00">Tactix::ITactixHTNPrimitive</text>
</a>
</g>
</g>
<!-- Node6&#45;&gt;Node5 -->
<g id="edge5_Node000005_Node000006" class="edge">
<title>Node6&#45;&gt;Node5</title>
<g id="a_edge5_Node000005_Node000006"><a xlink:title=" ">
<path fill="none" stroke="#9a32cd" stroke-dasharray="5,2" d="M323.84,-139.69C322.89,-125.63 321.66,-107.66 320.92,-96.72"/>
<polygon fill="#9a32cd" stroke="#9a32cd" points="320.32,-139.52 324.49,-149.26 327.31,-139.04 320.32,-139.52"/>
</a>
</g>
<text xml:space="preserve" text-anchor="start" x="326.34" y="-120.25" font-family="Helvetica,sans-Serif" font-size="10.00" fill="grey">Steps</text>
</g>
<!-- Node7 -->
<g id="Node000007" class="node">
<title>Node7</title>
<g id="a_Node000007"><a xlink:href="classTactix_1_1ITactixHTNTask.html" target="_top" xlink:title="Base for every HTN task; only distinguishes primitive from compound.">
<polygon fill="white" stroke="#666666" points="387.62,-229.5 262.88,-229.5 262.88,-208.75 387.62,-208.75 387.62,-229.5"/>
<text xml:space="preserve" text-anchor="middle" x="325.25" y="-216" font-family="Helvetica,sans-Serif" font-size="10.00">Tactix::ITactixHTNTask</text>
</a>
</g>
</g>
<!-- Node7&#45;&gt;Node6 -->
<g id="edge6_Node000006_Node000007" class="edge">
<title>Node7&#45;&gt;Node6</title>
<g id="a_edge6_Node000006_Node000007"><a xlink:title=" ">
<path fill="none" stroke="#63b8ff" d="M325.25,-197.18C325.25,-188.52 325.25,-178.9 325.25,-171.97"/>
<polygon fill="#63b8ff" stroke="#63b8ff" points="321.75,-196.9 325.25,-206.9 328.75,-196.9 321.75,-196.9"/>
</a>
</g>
</g>
</g>
</svg>
