<?xml version="1.0" encoding="UTF-8" standalone="no"?>
<!DOCTYPE svg PUBLIC "-//W3C//DTD SVG 1.1//EN"
 "http://www.w3.org/Graphics/SVG/1.1/DTD/svg11.dtd">
<!-- Generated by graphviz version 14.1.5 (0)
 -->
<!-- Title: Tactix::ITactixHTNTask Pages: 1 -->
<svg width="328pt" height="86pt"
 viewBox="0.00 0.00 328.00 86.00" xmlns="http://www.w3.org/2000/svg" xmlns:xlink="http://www.w3.org/1999/xlink">
<g id="graph0" class="graph" transform="scale(1 1) rotate(0) translate(4 81.5)">
<title>Tactix::ITactixHTNTask</title>
<!-- Node1 -->
<g id="Node000001" class="node">
<title>Node1</title>
<g id="a_Node000001"><a xlink:title="Base for every HTN task; only distinguishes primitive from compound.">
<polygon fill="#999999" stroke="#666666" points="224.12,-77.5 99.38,-77.5 99.38,-56.75 224.12,-56.75 224.12,-77.5"/>
<text xml:space="preserve" text-anchor="middle" x="161.75" y="-64" font-family="Helvetica,sans-Serif" font-size="10.00">Tactix::ITactixHTNTask</text>
</a>
</g>
</g>
<!-- Node2 -->
<g id="Node000002" class="node">
<title>Node2</title>
<g id="a_Node000002"><a xlink:href="classTactix_1_1ITactixHTNCompound.html" target="_top" xlink:title="A task that decomposes into subtasks via one of several methods.">
<polygon fill="white" stroke="#666666" points="155.5,-20.75 0,-20.75 0,0 155.5,0 155.5,-20.75"/>
<text xml:space="preserve" text-anchor="middle" x="77.75" y="-7.25" font-family="Helvetica,sans-Serif" font-size="10.00">Tactix::ITactixHTNCompound</text>
</a>
</g>
</g>
<!-- Node1&#45;&gt;Node2 -->
<g id="edge1_Node000001_Node000002" class="edge">
<title>Node1&#45;&gt;Node2</title>
<g id="a_edge1_Node000001_Node000002"><a xlink:title=" ">
<path fill="none" stroke="#63b8ff" d="M137.37,-50.23C122.9,-40.8 105.02,-29.15 92.64,-21.08"/>
<polygon fill="#63b8ff" stroke="#63b8ff" points="135.18,-52.98 145.46,-55.51 139,-47.12 135.18,-52.98"/>
</a>
</g>
</g>
<!-- Node3 -->
<g id="Node000003" class="node">
<title>Node3</title>
<g id="a_Node000003"><a xlink:href="classTactix_1_1ITactixHTNPrimitive.html" target="_top" xlink:title="A leaf task: directly executable, with planner&#45;visible effects.">
<polygon fill="white" stroke="#666666" points="320.38,-20.75 173.12,-20.75 173.12,0 320.38,0 320.38,-20.75"/>
<text xml:space="preserve" text-anchor="middle" x="246.75" y="-7.25" font-family="Helvetica,sans-Serif" font-size="10.00">Tactix::ITactixHTNPrimitive</text>
</a>
</g>
</g>
<!-- Node1&#45;&gt;Node3 -->
<g id="edge2_Node000001_Node000003" class="edge">
<title>Node1&#45;&gt;Node3</title>
<g id="a_edge2_Node000001_Node000003"><a xlink:title=" ">
<path fill="none" stroke="#63b8ff" d="M186.42,-50.23C201.06,-40.8 219.15,-29.15 231.69,-21.08"/>
<polygon fill="#63b8ff" stroke="#63b8ff" points="184.73,-47.16 178.22,-55.52 188.52,-53.04 184.73,-47.16"/>
</a>
</g>
</g>
</g>
</svg>
