<?xml version="1.0" encoding="UTF-8" standalone="no"?>
<!DOCTYPE svg PUBLIC "-//W3C//DTD SVG 1.1//EN"
 "http://www.w3.org/Graphics/SVG/1.1/DTD/svg11.dtd">
<!-- Generated by graphviz version 14.1.5 (0)
 -->
<!-- Title: UTactixWorldSubsystem Pages: 1 -->
<svg width="427pt" height="306pt"
 viewBox="0.00 0.00 427.00 306.00" xmlns="http://www.w3.org/2000/svg" xmlns:xlink="http://www.w3.org/1999/xlink">
<g id="graph0" class="graph" transform="scale(1 1) rotate(0) translate(4 302.25)">
<title>UTactixWorldSubsystem</title>
<!-- Node1 -->
<g id="Node000001" class="node">
<title>Node1</title>
<g id="a_Node000001"><a xlink:title="World subsystem holding the shared cover registry and influence map.">
<polygon fill="#999999" stroke="#666666" points="264.5,-20.75 130.75,-20.75 130.75,0 264.5,0 264.5,-20.75"/>
<text xml:space="preserve" text-anchor="middle" x="197.62" y="-7.25" font-family="Helvetica,sans-Serif" font-size="10.00">UTactixWorldSubsystem</text>
</a>
</g>
</g>
<!-- Node2 -->
<g id="Node000002" class="node">
<title>Node2</title>
<g id="a_Node000002"><a xlink:title=" ">
<polygon fill="white" stroke="#666666" points="105.25,-102.62 0,-102.62 0,-81.88 105.25,-81.88 105.25,-102.62"/>
<text xml:space="preserve" text-anchor="middle" x="52.62" y="-89.12" font-family="Helvetica,sans-Serif" font-size="10.00">UWorldSubsystem</text>
</a>
</g>
</g>
<!-- Node2&#45;&gt;Node1 -->
<g id="edge1_Node000001_Node000002" class="edge">
<title>Node2&#45;&gt;Node1</title>
<g id="a_edge1_Node000001_Node000002"><a xlink:title=" ">
<path fill="none" stroke="#63b8ff" d="M80.39,-75.95C109.64,-59.84 154.83,-34.95 179.7,-21.25"/>
<polygon fill="#63b8ff" stroke="#63b8ff" points="78.8,-72.83 71.73,-80.73 82.18,-78.97 78.8,-72.83"/>
</a>
</g>
</g>
<!-- Node3 -->
<g id="Node000003" class="node">
<title>Node3</title>
<g id="a_Node000003"><a xlink:href="classTactix_1_1FTactixCoverSystem.html" target="_top" xlink:title=" ">
<polygon fill="white" stroke="#666666" points="272.38,-109 122.88,-109 122.88,-75.5 272.38,-75.5 272.38,-109"/>
<text xml:space="preserve" text-anchor="start" x="130.88" y="-95.5" font-family="Helvetica,sans-Serif" font-size="10.00">Tactix::FTactixCoverSystem</text>
<text xml:space="preserve" text-anchor="middle" x="197.62" y="-82.75" font-family="Helvetica,sans-Serif" font-size="10.00">&lt; 512 &gt;</text>
</a>
</g>
</g>
<!-- Node3&#45;&gt;Node1 -->
<g id="edge2_Node000001_Node000003" class="edge">
<title>Node3&#45;&gt;Node1</title>
<g id="a_edge2_Node000001_Node000003"><a xlink:title=" ">
<path fill="none" stroke="#9a32cd" stroke-dasharray="5,2" d="M197.62,-63.9C197.62,-49.03 197.62,-31.57 197.62,-20.99"/>
<polygon fill="#9a32cd" stroke="#9a32cd" points="194.13,-63.57 197.63,-73.57 201.13,-63.57 194.13,-63.57"/>
</a>
</g>
<text xml:space="preserve" text-anchor="start" x="200.62" y="-44.75" font-family="Helvetica,sans-Serif" font-size="10.00" fill="grey">CoverSystem</text>
</g>
<!-- Node4 -->
<g id="Node000004" class="node">
<title>Node4</title>
<g id="a_Node000004"><a xlink:href="classTactix_1_1FTactixPool.html" target="_top" xlink:title=" ">
<polygon fill="white" stroke="#666666" points="273.5,-210 121.75,-210 121.75,-163.75 273.5,-163.75 273.5,-210"/>
<text xml:space="preserve" text-anchor="start" x="129.75" y="-196.5" font-family="Helvetica,sans-Serif" font-size="10.00">Tactix::FTactixPool</text>
<text xml:space="preserve" text-anchor="start" x="129.75" y="-183.75" font-family="Helvetica,sans-Serif" font-size="10.00">&lt; Tactix::FTactixCoverPoint,</text>
<text xml:space="preserve" text-anchor="middle" x="197.62" y="-171" font-family="Helvetica,sans-Serif" font-size="10.00"> Capacity &gt;</text>
</a>
</g>
</g>
<!-- Node4&#45;&gt;Node3 -->
<g id="edge3_Node000003_Node000004" class="edge">
<title>Node4&#45;&gt;Node3</title>
<g id="a_edge3_Node000003_Node000004"><a xlink:title=" ">
<path fill="none" stroke="#9a32cd" stroke-dasharray="5,2" d="M197.62,-152.24C197.62,-137.62 197.62,-121.18 197.62,-109.37"/>
<polygon fill="#9a32cd" stroke="#9a32cd" points="194.13,-151.94 197.63,-161.94 201.13,-151.94 194.13,-151.94"/>
</a>
</g>
<text xml:space="preserve" text-anchor="start" x="200.62" y="-133" font-family="Helvetica,sans-Serif" font-size="10.00" fill="grey">Pool</text>
</g>
<!-- Node5 -->
<g id="Node000005" class="node">
<title>Node5</title>
<g id="a_Node000005"><a xlink:href="structTactix_1_1FTactixPool_1_1Slot.html" target="_top" xlink:title="One storage cell plus the bookkeeping that tracks its state.">
<polygon fill="white" stroke="#666666" points="256.62,-298.25 138.62,-298.25 138.62,-264.75 256.62,-264.75 256.62,-298.25"/>
<text xml:space="preserve" text-anchor="start" x="146.62" y="-284.75" font-family="Helvetica,sans-Serif" font-size="10.00">Tactix::FTactixPool</text>
<text xml:space="preserve" text-anchor="middle" x="197.62" y="-272" font-family="Helvetica,sans-Serif" font-size="10.00">&lt; T, Capacity &gt;::Slot</text>
</a>
</g>
</g>
<!-- Node5&#45;&gt;Node4 -->
<g id="edge4_Node000004_Node000005" class="edge">
<title>Node5&#45;&gt;Node4</title>
<g id="a_edge4_Node000004_Node000005"><a xlink:title=" ">
<path fill="none" stroke="#9a32cd" stroke-dasharray="5,2" d="M197.62,-253.23C197.62,-239.61 197.62,-223.32 197.62,-210.42"/>
<polygon fill="#9a32cd" stroke="#9a32cd" points="194.13,-252.85 197.63,-262.85 201.13,-252.85 194.13,-252.85"/>
</a>
</g>
<text xml:space="preserve" text-anchor="start" x="200.62" y="-234" font-family="Helvetica,sans-Serif" font-size="10.00" fill="grey">Slots</text>
</g>
<!-- Node6 -->
<g id="Node000006" class="node">
<title>Node6</title>
<g id="a_Node000006"><a xlink:href="classTactix_1_1FTactixInfluenceMap.html" target="_top" xlink:title=" ">
<polygon fill="white" stroke="#666666" points="418.88,-109 290.38,-109 290.38,-75.5 418.88,-75.5 418.88,-109"/>
<text xml:space="preserve" text-anchor="start" x="298.38" y="-95.5" font-family="Helvetica,sans-Serif" font-size="10.00">Tactix::FTactixInfluence</text>
<text xml:space="preserve" text-anchor="middle" x="354.62" y="-82.75" font-family="Helvetica,sans-Serif" font-size="10.00">Map&lt; 4 &gt;</text>
</a>
</g>
</g>
<!-- Node6&#45;&gt;Node1 -->
<g id="edge5_Node000001_Node000006" class="edge">
<title>Node6&#45;&gt;Node1</title>
<g id="a_edge5_Node000001_Node000006"><a xlink:title=" ">
<path fill="none" stroke="#9a32cd" stroke-dasharray="5,2" d="M323.19,-68.82C308.31,-58.81 290.02,-47.36 272.62,-38.75 258.84,-31.92 242.91,-25.87 229.28,-21.2"/>
<polygon fill="#9a32cd" stroke="#9a32cd" points="320.96,-71.54 331.19,-74.29 324.91,-65.76 320.96,-71.54"/>
</a>
</g>
<text xml:space="preserve" text-anchor="start" x="308.2" y="-44.75" font-family="Helvetica,sans-Serif" font-size="10.00" fill="grey">InfluenceMap</text>
</g>
<!-- Node7 -->
<g id="Node000007" class="node">
<title>Node7</title>
<g id="a_Node000007"><a xlink:href="structTactix_1_1FTactixVec2.html" target="_top" xlink:title="Two&#45;component float vector. Plain data, constexpr&#45;friendly.">
<polygon fill="white" stroke="#666666" points="408.38,-197.25 300.88,-197.25 300.88,-176.5 408.38,-176.5 408.38,-197.25"/>
<text xml:space="preserve" text-anchor="middle" x="354.62" y="-183.75" font-family="Helvetica,sans-Serif" font-size="10.00">Tactix::FTactixVec2</text>
</a>
</g>
</g>
<!-- Node7&#45;&gt;Node6 -->
<g id="edge6_Node000006_Node000007" class="edge">
<title>Node7&#45;&gt;Node6</title>
<g id="a_edge6_Node000006_Node000007"><a xlink:title=" ">
<path fill="none" stroke="#9a32cd" stroke-dasharray="5,2" d="M354.62,-164.94C354.62,-148.12 354.62,-124.82 354.62,-109.41"/>
<polygon fill="#9a32cd" stroke="#9a32cd" points="351.13,-164.8 354.63,-174.8 358.13,-164.8 351.13,-164.8"/>
</a>
</g>
<text xml:space="preserve" text-anchor="start" x="357.62" y="-133" font-family="Helvetica,sans-Serif" font-size="10.00" fill="grey">Origin</text>
</g>
</g>
</svg>
