<?xml version="1.0" encoding="UTF-8" standalone="no"?>
<!DOCTYPE svg PUBLIC "-//W3C//DTD SVG 1.1//EN"
 "http://www.w3.org/Graphics/SVG/1.1/DTD/svg11.dtd">
<!-- Generated by graphviz version 14.1.5 (0)
 -->
<!-- Title: Tactix::FTactixBlackboard&lt; Capacity &gt; Pages: 1 -->
<svg width="440pt" height="193pt"
 viewBox="0.00 0.00 440.00 193.00" xmlns="http://www.w3.org/2000/svg" xmlns:xlink="http://www.w3.org/1999/xlink">
<g id="graph0" class="graph" transform="scale(1 1) rotate(0) translate(4 188.5)">
<title>Tactix::FTactixBlackboard&lt; Capacity &gt;</title>
<!-- Node1 -->
<g id="Node000001" class="node">
<title>Node1</title>
<g id="a_Node000001"><a xlink:title="Concrete fixed&#45;capacity blackboard backed by an open&#45;addressed table.">
<polygon fill="#999999" stroke="#666666" points="301.25,-33.5 162.25,-33.5 162.25,0 301.25,0 301.25,-33.5"/>
<text xml:space="preserve" text-anchor="start" x="170.25" y="-20" font-family="Helvetica,sans-Serif" font-size="10.00">Tactix::FTactixBlackboard</text>
<text xml:space="preserve" text-anchor="middle" x="231.75" y="-7.25" font-family="Helvetica,sans-Serif" font-size="10.00">&lt; Capacity &gt;</text>
</a>
</g>
</g>
<!-- Node2 -->
<g id="Node000002" class="node">
<title>Node2</title>
<g id="a_Node000002"><a xlink:href="classTactix_1_1FTactixBlackboardRef.html" target="_top" xlink:title="Capacity&#45;independent interface to a blackboard.">
<polygon fill="white" stroke="#666666" points="155.5,-109 0,-109 0,-88.25 155.5,-88.25 155.5,-109"/>
<text xml:space="preserve" text-anchor="middle" x="77.75" y="-95.5" font-family="Helvetica,sans-Serif" font-size="10.00">Tactix::FTactixBlackboardRef</text>
</a>
</g>
</g>
<!-- Node2&#45;&gt;Node1 -->
<g id="edge1_Node000001_Node000002" class="edge">
<title>Node2&#45;&gt;Node1</title>
<g id="a_edge1_Node000001_Node000002"><a xlink:title=" ">
<path fill="none" stroke="#63b8ff" d="M106.53,-82.7C133.24,-68.84 172.92,-48.26 200.42,-34"/>
<polygon fill="#63b8ff" stroke="#63b8ff" points="105.24,-79.42 97.98,-87.13 108.47,-85.64 105.24,-79.42"/>
</a>
</g>
</g>
<!-- Node3 -->
<g id="Node000003" class="node">
<title>Node3</title>
<g id="a_Node000003"><a xlink:href="structTactix_1_1FTactixBBKey.html" target="_top" xlink:title="A blackboard key: just the hash of its name, comparable and copyable.">
<polygon fill="white" stroke="#666666" points="289.62,-109 173.88,-109 173.88,-88.25 289.62,-88.25 289.62,-109"/>
<text xml:space="preserve" text-anchor="middle" x="231.75" y="-95.5" font-family="Helvetica,sans-Serif" font-size="10.00">Tactix::FTactixBBKey</text>
</a>
</g>
</g>
<!-- Node3&#45;&gt;Node1 -->
<g id="edge2_Node000001_Node000003" class="edge">
<title>Node3&#45;&gt;Node1</title>
<g id="a_edge2_Node000001_Node000003"><a xlink:title=" ">
<path fill="none" stroke="#9a32cd" stroke-dasharray="5,2" d="M231.75,-76.45C231.75,-63.14 231.75,-46.24 231.75,-34"/>
<polygon fill="#9a32cd" stroke="#9a32cd" points="228.25,-76.32 231.75,-86.32 235.25,-76.32 228.25,-76.32"/>
</a>
</g>
<text xml:space="preserve" text-anchor="start" x="234.75" y="-57.5" font-family="Helvetica,sans-Serif" font-size="10.00" fill="grey">Keys</text>
</g>
<!-- Node4 -->
<g id="Node000004" class="node">
<title>Node4</title>
<g id="a_Node000004"><a xlink:href="structTactix_1_1FTactixBBValue.html" target="_top" xlink:title="A tagged union holding one blackboard value.">
<polygon fill="white" stroke="#666666" points="432.12,-109 307.38,-109 307.38,-88.25 432.12,-88.25 432.12,-109"/>
<text xml:space="preserve" text-anchor="middle" x="369.75" y="-95.5" font-family="Helvetica,sans-Serif" font-size="10.00">Tactix::FTactixBBValue</text>
</a>
</g>
</g>
<!-- Node4&#45;&gt;Node1 -->
<g id="edge3_Node000001_Node000004" class="edge">
<title>Node4&#45;&gt;Node1</title>
<g id="a_edge3_Node000001_Node000004"><a xlink:title=" ">
<path fill="none" stroke="#9a32cd" stroke-dasharray="5,2" d="M343,-82.14C319.08,-68.3 284.14,-48.07 259.82,-34"/>
<polygon fill="#9a32cd" stroke="#9a32cd" points="341.11,-85.09 351.52,-87.07 344.62,-79.03 341.11,-85.09"/>
</a>
</g>
<text xml:space="preserve" text-anchor="start" x="324.17" y="-57.5" font-family="Helvetica,sans-Serif" font-size="10.00" fill="grey">Values</text>
</g>
<!-- Node5 -->
<g id="Node000005" class="node">
<title>Node5</title>
<g id="a_Node000005"><a xlink:href="structTactix_1_1FTactixVec3.html" target="_top" xlink:title="Three&#45;component float vector. Plain data, constexpr&#45;friendly.">
<polygon fill="white" stroke="#666666" points="423.5,-184.5 316,-184.5 316,-163.75 423.5,-163.75 423.5,-184.5"/>
<text xml:space="preserve" text-anchor="middle" x="369.75" y="-171" font-family="Helvetica,sans-Serif" font-size="10.00">Tactix::FTactixVec3</text>
</a>
</g>
</g>
<!-- Node5&#45;&gt;Node4 -->
<g id="edge4_Node000004_Node000005" class="edge">
<title>Node5&#45;&gt;Node4</title>
<g id="a_edge4_Node000004_Node000005"><a xlink:title=" ">
<path fill="none" stroke="#9a32cd" stroke-dasharray="5,2" d="M369.75,-152.01C369.75,-138.01 369.75,-120.3 369.75,-109.47"/>
<polygon fill="#9a32cd" stroke="#9a32cd" points="366.25,-152 369.75,-162 373.25,-152 366.25,-152"/>
</a>
</g>
<text xml:space="preserve" text-anchor="start" x="372.75" y="-133" font-family="Helvetica,sans-Serif" font-size="10.00" fill="grey">AsVec3</text>
</g>
</g>
</svg>
