<?xml version="1.0" encoding="UTF-8" standalone="no"?>
<!DOCTYPE svg PUBLIC "-//W3C//DTD SVG 1.1//EN"
 "http://www.w3.org/Graphics/SVG/1.1/DTD/svg11.dtd">
<!-- Generated by graphviz version 14.1.5 (0)
 -->
<!-- Title: Tactix::FTactixPerceptionMemory&lt; Capacity &gt; Pages: 1 -->
<svg width="266pt" height="205pt"
 viewBox="0.00 0.00 266.00 205.00" xmlns="http://www.w3.org/2000/svg" xmlns:xlink="http://www.w3.org/1999/xlink">
<g id="graph0" class="graph" transform="scale(1 1) rotate(0) translate(4 201.25)">
<title>Tactix::FTactixPerceptionMemory&lt; Capacity &gt;</title>
<!-- Node1 -->
<g id="Node000001" class="node">
<title>Node1</title>
<g id="a_Node000001"><a xlink:title=" ">
<polygon fill="#999999" stroke="#666666" points="190.75,-33.5 54.75,-33.5 54.75,0 190.75,0 190.75,-33.5"/>
<text xml:space="preserve" text-anchor="start" x="62.75" y="-20" font-family="Helvetica,sans-Serif" font-size="10.00">Tactix::FTactixPerception</text>
<text xml:space="preserve" text-anchor="middle" x="122.75" y="-7.25" font-family="Helvetica,sans-Serif" font-size="10.00">Memory&lt; Capacity &gt;</text>
</a>
</g>
</g>
<!-- Node2 -->
<g id="Node000002" class="node">
<title>Node2</title>
<g id="a_Node000002"><a xlink:href="structTactix_1_1FTactixStimulus.html" target="_top" xlink:title="A single timestamped sensory event.">
<polygon fill="white" stroke="#666666" points="186.25,-109 59.25,-109 59.25,-88.25 186.25,-88.25 186.25,-109"/>
<text xml:space="preserve" text-anchor="middle" x="122.75" y="-95.5" font-family="Helvetica,sans-Serif" font-size="10.00">Tactix::FTactixStimulus</text>
</a>
</g>
</g>
<!-- Node2&#45;&gt;Node1 -->
<g id="edge1_Node000001_Node000002" class="edge">
<title>Node2&#45;&gt;Node1</title>
<g id="a_edge1_Node000001_Node000002"><a xlink:title=" ">
<path fill="none" stroke="#9a32cd" stroke-dasharray="5,2" d="M122.75,-76.45C122.75,-63.14 122.75,-46.24 122.75,-34"/>
<polygon fill="#9a32cd" stroke="#9a32cd" points="119.25,-76.32 122.75,-86.32 126.25,-76.32 119.25,-76.32"/>
</a>
</g>
<text xml:space="preserve" text-anchor="start" x="125.75" y="-57.5" font-family="Helvetica,sans-Serif" font-size="10.00" fill="grey">Buf</text>
</g>
<!-- Node3 -->
<g id="Node000003" class="node">
<title>Node3</title>
<g id="a_Node000003"><a xlink:href="structTactix_1_1FTactixVec3.html" target="_top" xlink:title="Three&#45;component float vector. Plain data, constexpr&#45;friendly.">
<polygon fill="white" stroke="#666666" points="107.5,-190.88 0,-190.88 0,-170.12 107.5,-170.12 107.5,-190.88"/>
<text xml:space="preserve" text-anchor="middle" x="53.75" y="-177.38" font-family="Helvetica,sans-Serif" font-size="10.00">Tactix::FTactixVec3</text>
</a>
</g>
</g>
<!-- Node3&#45;&gt;Node2 -->
<g id="edge2_Node000002_Node000003" class="edge">
<title>Node3&#45;&gt;Node2</title>
<g id="a_edge2_Node000002_Node000003"><a xlink:title=" ">
<path fill="none" stroke="#9a32cd" stroke-dasharray="5,2" d="M69.61,-161.14C83.49,-145.08 103.11,-122.36 114.22,-109.5"/>
<polygon fill="#9a32cd" stroke="#9a32cd" points="67.09,-158.7 63.2,-168.56 72.39,-163.28 67.09,-158.7"/>
</a>
</g>
<text xml:space="preserve" text-anchor="start" x="101.46" y="-133" font-family="Helvetica,sans-Serif" font-size="10.00" fill="grey">Origin</text>
</g>
<!-- Node4 -->
<g id="Node000004" class="node">
<title>Node4</title>
<g id="a_Node000004"><a xlink:href="structTactix_1_1FTactixHandle.html" target="_top" xlink:title=" ">
<polygon fill="white" stroke="#666666" points="258.25,-197.25 125.25,-197.25 125.25,-163.75 258.25,-163.75 258.25,-197.25"/>
<text xml:space="preserve" text-anchor="start" x="133.25" y="-183.75" font-family="Helvetica,sans-Serif" font-size="10.00">Tactix::FTactixHandle</text>
<text xml:space="preserve" text-anchor="middle" x="191.75" y="-171" font-family="Helvetica,sans-Serif" font-size="10.00">&lt; Tactix::ITactixAgent &gt;</text>
</a>
</g>
</g>
<!-- Node4&#45;&gt;Node2 -->
<g id="edge3_Node000002_Node000004" class="edge">
<title>Node4&#45;&gt;Node2</title>
<g id="a_edge3_Node000002_Node000004"><a xlink:title=" ">
<path fill="none" stroke="#9a32cd" stroke-dasharray="5,2" d="M170.39,-154.77C157.09,-139.38 140.74,-120.45 131.06,-109.24"/>
<polygon fill="#9a32cd" stroke="#9a32cd" points="167.61,-156.91 176.8,-162.19 172.91,-152.34 167.61,-156.91"/>
</a>
</g>
<text xml:space="preserve" text-anchor="start" x="164.38" y="-133" font-family="Helvetica,sans-Serif" font-size="10.00" fill="grey">Source</text>
</g>
</g>
</svg>
