<?xml version="1.0" encoding="UTF-8" standalone="no"?>
<!DOCTYPE svg PUBLIC "-//W3C//DTD SVG 1.1//EN"
 "http://www.w3.org/Graphics/SVG/1.1/DTD/svg11.dtd">
<!-- Generated by graphviz version 14.1.5 (0)
 -->
<!-- Title: Source Pages: 1 -->
<svg width="184pt" height="231pt"
 viewBox="0.00 0.00 184.00 231.00" xmlns="http://www.w3.org/2000/svg" xmlns:xlink="http://www.w3.org/1999/xlink">
<g id="graph0" class="graph" transform="scale(1 1) rotate(0) translate(4 227)">
<title>Source</title>
<g id="clust1" class="cluster">
<title>clusterdir_74389ed8173ad57b461b9d623a1f3867</title>
<g id="a_clust1"><a xlink:href="dir_74389ed8173ad57b461b9d623a1f3867.html" target="_top">
<polygon fill="#eae8f6" stroke="#404040" stroke-width="2" points="8,-8 8,-215 168,-215 168,-8 8,-8"/>
</a>
</g>
</g>
<!-- dir_74389ed8173ad57b461b9d623a1f3867 -->
<g id="node1" class="node">
<title>dir_74389ed8173ad57b461b9d623a1f3867</title>
<text xml:space="preserve" text-anchor="middle" x="41" y="-193.5" font-family="Helvetica,sans-Serif" font-size="10.00">Source</text>
</g>
<!-- dir_160ec26552c4167c56deaf02813be8e1 -->
<g id="node2" class="node">
<title>dir_160ec26552c4167c56deaf02813be8e1</title>
<g id="a_node2"><a xlink:href="dir_160ec26552c4167c56deaf02813be8e1.html" target="_top" xlink:title="TactixCore">
<polygon fill="#978ed6" stroke="#404040" points="123.5,-36.75 56.5,-36.75 56.5,-16 123.5,-16 123.5,-36.75"/>
<text xml:space="preserve" text-anchor="middle" x="90" y="-23.25" font-family="Helvetica,sans-Serif" font-size="10.00">TactixCore</text>
</a>
</g>
</g>
<!-- dir_a7bafcf9febff0548b6271497deacd82 -->
<g id="node3" class="node">
<title>dir_a7bafcf9febff0548b6271497deacd82</title>
<g id="a_node3"><a xlink:href="dir_a7bafcf9febff0548b6271497deacd82.html" target="_top" xlink:title="TactixDebug">
<polygon fill="#978ed6" stroke="#404040" points="160,-207 84,-207 84,-186.25 160,-186.25 160,-207"/>
<text xml:space="preserve" text-anchor="middle" x="122" y="-193.5" font-family="Helvetica,sans-Serif" font-size="10.00">TactixDebug</text>
</a>
</g>
</g>
<!-- dir_a7bafcf9febff0548b6271497deacd82&#45;&gt;dir_160ec26552c4167c56deaf02813be8e1 -->
<g id="edge1" class="edge">
<title>dir_a7bafcf9febff0548b6271497deacd82&#45;&gt;dir_160ec26552c4167c56deaf02813be8e1</title>
<g id="a_edge1"><a xlink:href="dir_000036_000035.html" target="_top">
<path fill="none" stroke="#63b8ff" d="M109.82,-185.91C90.22,-169.39 52.41,-133.7 38,-93.5 34.89,-84.82 34.18,-81.15 38,-72.75 43.34,-61.01 53.37,-51.13 63.22,-43.61"/>
<polygon fill="#63b8ff" stroke="#63b8ff" points="65.02,-46.62 71.2,-38.01 61,-40.89 65.02,-46.62"/>
</a>
</g>
<g id="a_edge1&#45;headlabel"><a xlink:href="dir_000036_000035.html" target="_top" xlink:title="8">
<text xml:space="preserve" text-anchor="middle" x="64.95" y="-47.01" font-family="Helvetica,sans-Serif" font-size="10.00" fill="#63b8ff">8</text>
</a>
</g>
</g>
<!-- dir_ec5a3a5e7b760a7891c56b8edab05f28 -->
<g id="node4" class="node">
<title>dir_ec5a3a5e7b760a7891c56b8edab05f28</title>
<g id="a_node4"><a xlink:href="dir_ec5a3a5e7b760a7891c56b8edab05f28.html" target="_top" xlink:title="TactixSystems">
<polygon fill="#978ed6" stroke="#404040" points="133.25,-93.5 46.75,-93.5 46.75,-72.75 133.25,-72.75 133.25,-93.5"/>
<text xml:space="preserve" text-anchor="middle" x="90" y="-80" font-family="Helvetica,sans-Serif" font-size="10.00">TactixSystems</text>
</a>
</g>
</g>
<!-- dir_a7bafcf9febff0548b6271497deacd82&#45;&gt;dir_ec5a3a5e7b760a7891c56b8edab05f28 -->
<g id="edge3" class="edge">
<title>dir_a7bafcf9febff0548b6271497deacd82&#45;&gt;dir_ec5a3a5e7b760a7891c56b8edab05f28</title>
<g id="a_edge3"><a xlink:href="dir_000036_000037.html" target="_top">
<path fill="none" stroke="#63b8ff" d="M113.66,-185.95C106.71,-177.25 97.29,-163.8 93,-150.25 88.37,-135.64 87.75,-118.3 88.22,-105.05"/>
<polygon fill="#63b8ff" stroke="#63b8ff" points="91.69,-105.52 88.81,-95.32 84.71,-105.09 91.69,-105.52"/>
</a>
</g>
<g id="a_edge3&#45;headlabel"><a xlink:href="dir_000036_000037.html" target="_top" xlink:title="3">
<text xml:space="preserve" text-anchor="middle" x="94.4" y="-104.64" font-family="Helvetica,sans-Serif" font-size="10.00" fill="#63b8ff">3</text>
</a>
</g>
</g>
<!-- dir_18dcd4eed901363b09d5cb80122f7532 -->
<g id="node5" class="node">
<title>dir_18dcd4eed901363b09d5cb80122f7532</title>
<g id="a_node5"><a xlink:href="dir_18dcd4eed901363b09d5cb80122f7532.html" target="_top" xlink:title="TactixUE">
<polygon fill="#978ed6" stroke="#404040" points="160,-150.25 102,-150.25 102,-129.5 160,-129.5 160,-150.25"/>
<text xml:space="preserve" text-anchor="middle" x="131" y="-136.75" font-family="Helvetica,sans-Serif" font-size="10.00">TactixUE</text>
</a>
</g>
</g>
<!-- dir_a7bafcf9febff0548b6271497deacd82&#45;&gt;dir_18dcd4eed901363b09d5cb80122f7532 -->
<g id="edge2" class="edge">
<title>dir_a7bafcf9febff0548b6271497deacd82&#45;&gt;dir_18dcd4eed901363b09d5cb80122f7532</title>
<g id="a_edge2"><a xlink:href="dir_000036_000038.html" target="_top">
<path fill="none" stroke="#63b8ff" d="M123.61,-185.84C124.71,-179.14 126.21,-170.01 127.57,-161.73"/>
<polygon fill="#63b8ff" stroke="#63b8ff" points="130.99,-162.51 129.16,-152.07 124.08,-161.37 130.99,-162.51"/>
</a>
</g>
<g id="a_edge2&#45;headlabel"><a xlink:href="dir_000036_000038.html" target="_top" xlink:title="4">
<text xml:space="preserve" text-anchor="middle" x="133.46" y="-161.9" font-family="Helvetica,sans-Serif" font-size="10.00" fill="#63b8ff">4</text>
</a>
</g>
</g>
<!-- dir_ec5a3a5e7b760a7891c56b8edab05f28&#45;&gt;dir_160ec26552c4167c56deaf02813be8e1 -->
<g id="edge4" class="edge">
<title>dir_ec5a3a5e7b760a7891c56b8edab05f28&#45;&gt;dir_160ec26552c4167c56deaf02813be8e1</title>
<g id="a_edge4"><a xlink:href="dir_000037_000035.html" target="_top">
<path fill="none" stroke="#63b8ff" d="M90,-72.34C90,-65.72 90,-56.72 90,-48.52"/>
<polygon fill="#63b8ff" stroke="#63b8ff" points="93.5,-48.59 90,-38.59 86.5,-48.59 93.5,-48.59"/>
</a>
</g>
<g id="a_edge4&#45;headlabel"><a xlink:href="dir_000037_000035.html" target="_top" xlink:title="28">
<text xml:space="preserve" text-anchor="middle" x="96.34" y="-47.55" font-family="Helvetica,sans-Serif" font-size="10.00" fill="#63b8ff">28</text>
</a>
</g>
</g>
<!-- dir_18dcd4eed901363b09d5cb80122f7532&#45;&gt;dir_160ec26552c4167c56deaf02813be8e1 -->
<g id="edge5" class="edge">
<title>dir_18dcd4eed901363b09d5cb80122f7532&#45;&gt;dir_160ec26552c4167c56deaf02813be8e1</title>
<g id="a_edge5"><a xlink:href="dir_000038_000035.html" target="_top">
<path fill="none" stroke="#63b8ff" d="M136.03,-129C142.1,-115.66 150.48,-91.4 142,-72.75 136.66,-61.01 126.63,-51.13 116.78,-43.61"/>
<polygon fill="#63b8ff" stroke="#63b8ff" points="119,-40.89 108.8,-38.01 114.98,-46.62 119,-40.89"/>
</a>
</g>
<g id="a_edge5&#45;headlabel"><a xlink:href="dir_000038_000035.html" target="_top" xlink:title="7">
<text xml:space="preserve" text-anchor="middle" x="122.33" y="-36.63" font-family="Helvetica,sans-Serif" font-size="10.00" fill="#63b8ff">7</text>
</a>
</g>
</g>
<!-- dir_18dcd4eed901363b09d5cb80122f7532&#45;&gt;dir_ec5a3a5e7b760a7891c56b8edab05f28 -->
<g id="edge6" class="edge">
<title>dir_18dcd4eed901363b09d5cb80122f7532&#45;&gt;dir_ec5a3a5e7b760a7891c56b8edab05f28</title>
<g id="a_edge6"><a xlink:href="dir_000038_000037.html" target="_top">
<path fill="none" stroke="#63b8ff" d="M123.67,-129.09C118.25,-121.85 110.69,-111.76 104.11,-102.97"/>
<polygon fill="#63b8ff" stroke="#63b8ff" points="106.97,-100.95 98.17,-95.04 101.37,-105.14 106.97,-100.95"/>
</a>
</g>
<g id="a_edge6&#45;headlabel"><a xlink:href="dir_000038_000037.html" target="_top" xlink:title="6">
<text xml:space="preserve" text-anchor="middle" x="110.49" y="-97.79" font-family="Helvetica,sans-Serif" font-size="10.00" fill="#63b8ff">6</text>
</a>
</g>
</g>
</g>
</svg>
