<?xml version="1.0" encoding="UTF-8" standalone="no"?>
<!DOCTYPE svg PUBLIC "-//W3C//DTD SVG 1.1//EN"
 "http://www.w3.org/Graphics/SVG/1.1/DTD/svg11.dtd">
<!-- Generated by graphviz version 14.1.5 (0)
 -->
<!-- Title: Source/TactixUE/Private Pages: 1 -->
<svg width="786pt" height="146pt"
 viewBox="0.00 0.00 786.00 146.00" xmlns="http://www.w3.org/2000/svg" xmlns:xlink="http://www.w3.org/1999/xlink">
<g id="graph0" class="graph" transform="scale(1 1) rotate(0) translate(4 142.25)">
<title>Source/TactixUE/Private</title>
<g id="clust1" class="cluster">
<title>clusterdir_18dcd4eed901363b09d5cb80122f7532</title>
<g id="a_clust1"><a xlink:href="dir_18dcd4eed901363b09d5cb80122f7532.html" target="_top" xlink:title="TactixUE">
<polygon fill="#eae8f6" stroke="#7f7f7f" stroke-dasharray="5,2" points="8,-8 8,-130.25 598,-130.25 598,-8 8,-8"/>
<text xml:space="preserve" text-anchor="middle" x="303" y="-116.75" font-family="Helvetica,sans-Serif" font-size="10.00">TactixUE</text>
</a>
</g>
</g>
<g id="clust2" class="cluster">
<title>clusterdir_2972e1bc4d70a4659a1a29e1c854db7a</title>
<g id="a_clust2"><a xlink:href="dir_2972e1bc4d70a4659a1a29e1c854db7a.html" target="_top">
<polygon fill="#eae8f6" stroke="#404040" stroke-width="2" points="16,-64.75 16,-101.5 590,-101.5 590,-64.75 16,-64.75"/>
</a>
</g>
</g>
<!-- dir_2da3b97f7423b83b6c215fefa3179c9e -->
<g id="node1" class="node">
<title>dir_2da3b97f7423b83b6c215fefa3179c9e</title>
<g id="a_node1"><a xlink:href="dir_2da3b97f7423b83b6c215fefa3179c9e.html" target="_top" xlink:title="Public">
<polygon fill="#978ed6" stroke="red" points="313.62,-36.75 268.38,-36.75 268.38,-16 313.62,-16 313.62,-36.75"/>
<text xml:space="preserve" text-anchor="middle" x="291" y="-23.25" font-family="Helvetica,sans-Serif" font-size="10.00">Public</text>
</a>
</g>
</g>
<!-- dir_2972e1bc4d70a4659a1a29e1c854db7a -->
<g id="node2" class="node">
<title>dir_2972e1bc4d70a4659a1a29e1c854db7a</title>
<text xml:space="preserve" text-anchor="middle" x="369" y="-80" font-family="Helvetica,sans-Serif" font-size="10.00">Private</text>
</g>
<!-- dir_2972e1bc4d70a4659a1a29e1c854db7a&#45;&gt;dir_2da3b97f7423b83b6c215fefa3179c9e -->
<g id="edge2" class="edge">
<title>dir_2972e1bc4d70a4659a1a29e1c854db7a&#45;&gt;dir_2da3b97f7423b83b6c215fefa3179c9e</title>
<g id="a_edge2"><a xlink:href="dir_000025_000029.html" target="_top">
<path fill="none" stroke="#63b8ff" d="M355.77,-72.84C344.37,-64.83 327.65,-53.1 314.05,-43.55"/>
<polygon fill="#63b8ff" stroke="#63b8ff" points="316.26,-40.83 306.06,-37.95 312.24,-46.56 316.26,-40.83"/>
</a>
</g>
<g id="a_edge2&#45;headlabel"><a xlink:href="dir_000025_000029.html" target="_top" xlink:title="31">
<text xml:space="preserve" text-anchor="middle" x="319.59" y="-36.57" font-family="Helvetica,sans-Serif" font-size="10.00" fill="#63b8ff">31</text>
</a>
</g>
</g>
<!-- dir_160ec26552c4167c56deaf02813be8e1 -->
<g id="node9" class="node">
<title>dir_160ec26552c4167c56deaf02813be8e1</title>
<g id="a_node9"><a xlink:href="dir_160ec26552c4167c56deaf02813be8e1.html" target="_top" xlink:title="TactixCore">
<polygon fill="#eae8f6" stroke="red" stroke-dasharray="5,2" points="673.5,-36.75 606.5,-36.75 606.5,-16 673.5,-16 673.5,-36.75"/>
<text xml:space="preserve" text-anchor="middle" x="640" y="-23.25" font-family="Helvetica,sans-Serif" font-size="10.00">TactixCore</text>
</a>
</g>
</g>
<!-- dir_2972e1bc4d70a4659a1a29e1c854db7a&#45;&gt;dir_160ec26552c4167c56deaf02813be8e1 -->
<g id="edge1" class="edge">
<title>dir_2972e1bc4d70a4659a1a29e1c854db7a&#45;&gt;dir_160ec26552c4167c56deaf02813be8e1</title>
<g id="a_edge1"><a xlink:href="dir_000025_000035.html" target="_top">
<path fill="none" stroke="#63b8ff" d="M384.45,-72.86C390.11,-69.84 396.68,-66.75 403,-64.75 484.59,-38.96 512.01,-52.43 594.84,-38"/>
<polygon fill="#63b8ff" stroke="#63b8ff" points="595.37,-41.46 604.57,-36.2 594.1,-34.57 595.37,-41.46"/>
</a>
</g>
<g id="a_edge1&#45;headlabel"><a xlink:href="dir_000025_000035.html" target="_top" xlink:title="2">
<text xml:space="preserve" text-anchor="middle" x="593.84" y="-41.5" font-family="Helvetica,sans-Serif" font-size="10.00" fill="#63b8ff">2</text>
</a>
</g>
</g>
<!-- dir_6ed72691c3ada4f68ac898f2caa849f4 -->
<g id="node3" class="node">
<title>dir_6ed72691c3ada4f68ac898f2caa849f4</title>
<g id="a_node3"><a xlink:href="dir_6ed72691c3ada4f68ac898f2caa849f4.html" target="_top" xlink:title="BehaviorTree">
<polygon fill="#978ed6" stroke="#404040" points="581.88,-93.5 502.12,-93.5 502.12,-72.75 581.88,-72.75 581.88,-93.5"/>
<text xml:space="preserve" text-anchor="middle" x="542" y="-80" font-family="Helvetica,sans-Serif" font-size="10.00">BehaviorTree</text>
</a>
</g>
</g>
<!-- dir_6ed72691c3ada4f68ac898f2caa849f4&#45;&gt;dir_2da3b97f7423b83b6c215fefa3179c9e -->
<g id="edge3" class="edge">
<title>dir_6ed72691c3ada4f68ac898f2caa849f4&#45;&gt;dir_2da3b97f7423b83b6c215fefa3179c9e</title>
<g id="a_edge3"><a xlink:href="dir_000002_000029.html" target="_top">
<path fill="none" stroke="#63b8ff" d="M516.81,-72.34C509.23,-69.62 500.85,-66.85 493,-64.75 434.96,-49.2 365.83,-37.93 325.34,-32.04"/>
<polygon fill="#63b8ff" stroke="#63b8ff" points="325.87,-28.58 315.48,-30.63 324.89,-35.51 325.87,-28.58"/>
</a>
</g>
<g id="a_edge3&#45;headlabel"><a xlink:href="dir_000002_000029.html" target="_top" xlink:title="20">
<text xml:space="preserve" text-anchor="middle" x="328.34" y="-22.94" font-family="Helvetica,sans-Serif" font-size="10.00" fill="#63b8ff">20</text>
</a>
</g>
</g>
<!-- dir_ec5a3a5e7b760a7891c56b8edab05f28 -->
<g id="node10" class="node">
<title>dir_ec5a3a5e7b760a7891c56b8edab05f28</title>
<g id="a_node10"><a xlink:href="dir_ec5a3a5e7b760a7891c56b8edab05f28.html" target="_top" xlink:title="TactixSystems">
<polygon fill="#eae8f6" stroke="red" stroke-dasharray="5,2" points="778.25,-36.75 691.75,-36.75 691.75,-16 778.25,-16 778.25,-36.75"/>
<text xml:space="preserve" text-anchor="middle" x="735" y="-23.25" font-family="Helvetica,sans-Serif" font-size="10.00">TactixSystems</text>
</a>
</g>
</g>
<!-- dir_6ed72691c3ada4f68ac898f2caa849f4&#45;&gt;dir_ec5a3a5e7b760a7891c56b8edab05f28 -->
<g id="edge4" class="edge">
<title>dir_6ed72691c3ada4f68ac898f2caa849f4&#45;&gt;dir_ec5a3a5e7b760a7891c56b8edab05f28</title>
<g id="a_edge4"><a xlink:href="dir_000002_000037.html" target="_top">
<path fill="none" stroke="#63b8ff" d="M576.5,-72.34C608.11,-63.37 655.09,-50.04 689.7,-40.23"/>
<polygon fill="#63b8ff" stroke="#63b8ff" points="690.35,-43.68 699.01,-37.58 688.44,-36.95 690.35,-43.68"/>
</a>
</g>
<g id="a_edge4&#45;headlabel"><a xlink:href="dir_000002_000037.html" target="_top" xlink:title="2">
<text xml:space="preserve" text-anchor="middle" x="689.12" y="-43.85" font-family="Helvetica,sans-Serif" font-size="10.00" fill="#63b8ff">2</text>
</a>
</g>
</g>
<!-- dir_396b75c11560f8e414fa26e20f136fed -->
<g id="node4" class="node">
<title>dir_396b75c11560f8e414fa26e20f136fed</title>
<g id="a_node4"><a xlink:href="dir_396b75c11560f8e414fa26e20f136fed.html" target="_top" xlink:title="Components">
<polygon fill="#978ed6" stroke="#404040" points="183.75,-93.5 106.25,-93.5 106.25,-72.75 183.75,-72.75 183.75,-93.5"/>
<text xml:space="preserve" text-anchor="middle" x="145" y="-80" font-family="Helvetica,sans-Serif" font-size="10.00">Components</text>
</a>
</g>
</g>
<!-- dir_396b75c11560f8e414fa26e20f136fed&#45;&gt;dir_2da3b97f7423b83b6c215fefa3179c9e -->
<g id="edge5" class="edge">
<title>dir_396b75c11560f8e414fa26e20f136fed&#45;&gt;dir_2da3b97f7423b83b6c215fefa3179c9e</title>
<g id="a_edge5"><a xlink:href="dir_000005_000029.html" target="_top">
<path fill="none" stroke="#63b8ff" d="M171.1,-72.34C195.22,-63.29 231.17,-49.81 257.42,-39.97"/>
<polygon fill="#63b8ff" stroke="#63b8ff" points="258.46,-43.32 266.59,-36.53 256,-36.76 258.46,-43.32"/>
</a>
</g>
<g id="a_edge5&#45;headlabel"><a xlink:href="dir_000005_000029.html" target="_top" xlink:title="1">
<text xml:space="preserve" text-anchor="middle" x="257.5" y="-43.58" font-family="Helvetica,sans-Serif" font-size="10.00" fill="#63b8ff">1</text>
</a>
</g>
</g>
<!-- dir_96a23539287f66553b3f0d3cd3c2b839 -->
<g id="node5" class="node">
<title>dir_96a23539287f66553b3f0d3cd3c2b839</title>
<g id="a_node5"><a xlink:href="dir_96a23539287f66553b3f0d3cd3c2b839.html" target="_top" xlink:title="Controller">
<polygon fill="#978ed6" stroke="#404040" points="88,-93.5 24,-93.5 24,-72.75 88,-72.75 88,-93.5"/>
<text xml:space="preserve" text-anchor="middle" x="56" y="-80" font-family="Helvetica,sans-Serif" font-size="10.00">Controller</text>
</a>
</g>
</g>
<!-- dir_96a23539287f66553b3f0d3cd3c2b839&#45;&gt;dir_2da3b97f7423b83b6c215fefa3179c9e -->
<g id="edge6" class="edge">
<title>dir_96a23539287f66553b3f0d3cd3c2b839&#45;&gt;dir_2da3b97f7423b83b6c215fefa3179c9e</title>
<g id="a_edge6"><a xlink:href="dir_000007_000029.html" target="_top">
<path fill="none" stroke="#63b8ff" d="M76.54,-72.42C82.99,-69.65 90.2,-66.82 97,-64.75 151.71,-48.09 217.46,-37.28 256.65,-31.76"/>
<polygon fill="#63b8ff" stroke="#63b8ff" points="256.99,-35.25 266.42,-30.42 256.04,-28.31 256.99,-35.25"/>
</a>
</g>
<g id="a_edge6&#45;headlabel"><a xlink:href="dir_000007_000029.html" target="_top" xlink:title="2">
<text xml:space="preserve" text-anchor="middle" x="255.31" y="-35.22" font-family="Helvetica,sans-Serif" font-size="10.00" fill="#63b8ff">2</text>
</a>
</g>
</g>
<!-- dir_7f25400f4a84dd74ce98581d272b042e -->
<g id="node6" class="node">
<title>dir_7f25400f4a84dd74ce98581d272b042e</title>
<g id="a_node6"><a xlink:href="dir_7f25400f4a84dd74ce98581d272b042e.html" target="_top" xlink:title="DataAssets">
<polygon fill="#978ed6" stroke="#404040" points="483.75,-93.5 412.25,-93.5 412.25,-72.75 483.75,-72.75 483.75,-93.5"/>
<text xml:space="preserve" text-anchor="middle" x="448" y="-80" font-family="Helvetica,sans-Serif" font-size="10.00">DataAssets</text>
</a>
</g>
</g>
<!-- dir_7f25400f4a84dd74ce98581d272b042e&#45;&gt;dir_2da3b97f7423b83b6c215fefa3179c9e -->
<g id="edge8" class="edge">
<title>dir_7f25400f4a84dd74ce98581d272b042e&#45;&gt;dir_2da3b97f7423b83b6c215fefa3179c9e</title>
<g id="a_edge8"><a xlink:href="dir_000010_000029.html" target="_top">
<path fill="none" stroke="#63b8ff" d="M423.32,-72.36C416.74,-69.82 409.62,-67.13 403,-64.75 376.88,-55.36 347.06,-45.44 324.76,-38.19"/>
<polygon fill="#63b8ff" stroke="#63b8ff" points="325.88,-34.87 315.28,-35.12 323.72,-41.53 325.88,-34.87"/>
</a>
</g>
<g id="a_edge8&#45;headlabel"><a xlink:href="dir_000010_000029.html" target="_top" xlink:title="2">
<text xml:space="preserve" text-anchor="middle" x="328.73" y="-29.69" font-family="Helvetica,sans-Serif" font-size="10.00" fill="#63b8ff">2</text>
</a>
</g>
</g>
<!-- dir_7f25400f4a84dd74ce98581d272b042e&#45;&gt;dir_160ec26552c4167c56deaf02813be8e1 -->
<g id="edge7" class="edge">
<title>dir_7f25400f4a84dd74ce98581d272b042e&#45;&gt;dir_160ec26552c4167c56deaf02813be8e1</title>
<g id="a_edge7"><a xlink:href="dir_000010_000035.html" target="_top">
<path fill="none" stroke="#63b8ff" d="M471.63,-72.39C478.47,-69.74 485.98,-66.99 493,-64.75 502.81,-61.62 555.52,-48.36 595.04,-38.52"/>
<polygon fill="#63b8ff" stroke="#63b8ff" points="595.71,-41.96 604.57,-36.15 594.02,-35.16 595.71,-41.96"/>
</a>
</g>
<g id="a_edge7&#45;headlabel"><a xlink:href="dir_000010_000035.html" target="_top" xlink:title="1">
<text xml:space="preserve" text-anchor="middle" x="594.38" y="-42.09" font-family="Helvetica,sans-Serif" font-size="10.00" fill="#63b8ff">1</text>
</a>
</g>
</g>
<!-- dir_1b8af8e4d1b52d3d7d57d3883c2fe5f9 -->
<g id="node7" class="node">
<title>dir_1b8af8e4d1b52d3d7d57d3883c2fe5f9</title>
<g id="a_node7"><a xlink:href="dir_1b8af8e4d1b52d3d7d57d3883c2fe5f9.html" target="_top" xlink:title="EQS">
<polygon fill="#978ed6" stroke="#404040" points="237.75,-93.5 202.25,-93.5 202.25,-72.75 237.75,-72.75 237.75,-93.5"/>
<text xml:space="preserve" text-anchor="middle" x="220" y="-80" font-family="Helvetica,sans-Serif" font-size="10.00">EQS</text>
</a>
</g>
</g>
<!-- dir_1b8af8e4d1b52d3d7d57d3883c2fe5f9&#45;&gt;dir_2da3b97f7423b83b6c215fefa3179c9e -->
<g id="edge9" class="edge">
<title>dir_1b8af8e4d1b52d3d7d57d3883c2fe5f9&#45;&gt;dir_2da3b97f7423b83b6c215fefa3179c9e</title>
<g id="a_edge9"><a xlink:href="dir_000013_000029.html" target="_top">
<path fill="none" stroke="#63b8ff" d="M232.69,-72.34C242.89,-64.47 257.44,-53.25 269.46,-43.99"/>
<polygon fill="#63b8ff" stroke="#63b8ff" points="271.44,-46.88 277.22,-38 267.16,-41.34 271.44,-46.88"/>
</a>
</g>
<g id="a_edge9&#45;headlabel"><a xlink:href="dir_000013_000029.html" target="_top" xlink:title="4">
<text xml:space="preserve" text-anchor="middle" x="271.52" y="-47.28" font-family="Helvetica,sans-Serif" font-size="10.00" fill="#63b8ff">4</text>
</a>
</g>
</g>
<!-- dir_bae8edc484efb2b26cdc14f901970941 -->
<g id="node8" class="node">
<title>dir_bae8edc484efb2b26cdc14f901970941</title>
<g id="a_node8"><a xlink:href="dir_bae8edc484efb2b26cdc14f901970941.html" target="_top" xlink:title="Subsystem">
<polygon fill="#978ed6" stroke="#404040" points="326,-93.5 256,-93.5 256,-72.75 326,-72.75 326,-93.5"/>
<text xml:space="preserve" text-anchor="middle" x="291" y="-80" font-family="Helvetica,sans-Serif" font-size="10.00">Subsystem</text>
</a>
</g>
</g>
<!-- dir_bae8edc484efb2b26cdc14f901970941&#45;&gt;dir_2da3b97f7423b83b6c215fefa3179c9e -->
<g id="edge10" class="edge">
<title>dir_bae8edc484efb2b26cdc14f901970941&#45;&gt;dir_2da3b97f7423b83b6c215fefa3179c9e</title>
<g id="a_edge10"><a xlink:href="dir_000033_000029.html" target="_top">
<path fill="none" stroke="#63b8ff" d="M291,-72.34C291,-65.72 291,-56.72 291,-48.52"/>
<polygon fill="#63b8ff" stroke="#63b8ff" points="294.5,-48.59 291,-38.59 287.5,-48.59 294.5,-48.59"/>
</a>
</g>
<g id="a_edge10&#45;headlabel"><a xlink:href="dir_000033_000029.html" target="_top" xlink:title="1">
<text xml:space="preserve" text-anchor="middle" x="297.34" y="-47.55" font-family="Helvetica,sans-Serif" font-size="10.00" fill="#63b8ff">1</text>
</a>
</g>
</g>
</g>
</svg>
