<?xml version="1.0" encoding="UTF-8" standalone="no"?>
<!DOCTYPE svg PUBLIC "-//W3C//DTD SVG 1.1//EN"
 "http://www.w3.org/Graphics/SVG/1.1/DTD/svg11.dtd">
<!-- Generated by graphviz version 14.1.5 (0)
 -->
<!-- Title: Source/TactixSystems/Public/Cover/FTactixCoverSystem.h Pages: 1 -->
<svg width="819pt" height="269pt"
 viewBox="0.00 0.00 819.00 269.00" xmlns="http://www.w3.org/2000/svg" xmlns:xlink="http://www.w3.org/1999/xlink">
<g id="graph0" class="graph" transform="scale(1 1) rotate(0) translate(4 264.5)">
<title>Source/TactixSystems/Public/Cover/FTactixCoverSystem.h</title>
<!-- Node1 -->
<g id="Node000001" class="node">
<title>Node1</title>
<g id="a_Node000001"><a xlink:title="Registry of cover points with claim/release ownership and a &quot;best cover &#160;&#160;&#160;&#160;&#160;&#160;for this situation&quot; que...">
<polygon fill="#999999" stroke="#666666" points="468.6,-260.5 277.85,-260.5 277.85,-227 468.6,-227 468.6,-260.5"/>
<text xml:space="preserve" text-anchor="start" x="285.85" y="-247" font-family="Helvetica,sans-Serif" font-size="10.00">Source/TactixSystems</text>
<text xml:space="preserve" text-anchor="middle" x="373.23" y="-234.25" font-family="Helvetica,sans-Serif" font-size="10.00">/Public/Cover/FTactixCoverSystem.h</text>
</a>
</g>
</g>
<!-- Node2 -->
<g id="Node000002" class="node">
<title>Node2</title>
<g id="a_Node000002"><a xlink:href="TactixApi_8h.html" target="_top" xlink:title="Export macros, compiler attributes and version constants shared by every Tactix module.">
<polygon fill="white" stroke="#666666" points="138.85,-20.75 69.6,-20.75 69.6,0 138.85,0 138.85,-20.75"/>
<text xml:space="preserve" text-anchor="middle" x="104.23" y="-7.25" font-family="Helvetica,sans-Serif" font-size="10.00">TactixApi.h</text>
</a>
</g>
</g>
<!-- Node1&#45;&gt;Node2 -->
<g id="edge1_Node000001_Node000002" class="edge">
<title>Node1&#45;&gt;Node2</title>
<g id="a_edge1_Node000001_Node000002"><a xlink:title=" ">
<path fill="none" stroke="#63b8ff" d="M277.62,-228.03C179.63,-210.73 37.2,-178.63 5.23,-134.25 -7.52,-116.55 6.51,-74.17 20.23,-56.75 31.06,-42.99 47.25,-32.87 62.54,-25.71"/>
<polygon fill="#63b8ff" stroke="#63b8ff" points="63.72,-29.01 71.51,-21.83 60.94,-22.59 63.72,-29.01"/>
</a>
</g>
</g>
<!-- Node3 -->
<g id="Node000003" class="node">
<title>Node3</title>
<g id="a_Node000003"><a xlink:href="FTactixCoverPoint_8h.html" target="_top" xlink:title="A single piece of cover: where to stand, which way it faces, and who currently owns it.">
<polygon fill="white" stroke="#666666" points="344.98,-191 201.48,-191 201.48,-170.25 344.98,-170.25 344.98,-191"/>
<text xml:space="preserve" text-anchor="middle" x="273.23" y="-177.5" font-family="Helvetica,sans-Serif" font-size="10.00">Cover/FTactixCoverPoint.h</text>
</a>
</g>
</g>
<!-- Node1&#45;&gt;Node3 -->
<g id="edge2_Node000001_Node000003" class="edge">
<title>Node1&#45;&gt;Node3</title>
<g id="a_edge2_Node000001_Node000003"><a xlink:title=" ">
<path fill="none" stroke="#63b8ff" d="M346.69,-226.53C331.83,-217.45 313.4,-206.18 298.72,-197.21"/>
<polygon fill="#63b8ff" stroke="#63b8ff" points="300.89,-194.43 290.53,-192.2 297.24,-200.41 300.89,-194.43"/>
</a>
</g>
</g>
<!-- Node4 -->
<g id="Node000004" class="node">
<title>Node4</title>
<g id="a_Node000004"><a xlink:href="TactixHandle_8h.html" target="_top" xlink:title="Type&#45;safe generational handle: the only sanctioned way to reference a pooled object across frames.">
<polygon fill="white" stroke="#666666" points="245.73,-77.5 100.73,-77.5 100.73,-56.75 245.73,-56.75 245.73,-77.5"/>
<text xml:space="preserve" text-anchor="middle" x="173.23" y="-64" font-family="Helvetica,sans-Serif" font-size="10.00">Foundation/TactixHandle.h</text>
</a>
</g>
</g>
<!-- Node1&#45;&gt;Node4 -->
<g id="edge24_Node000001_Node000004" class="edge">
<title>Node1&#45;&gt;Node4</title>
<g id="a_edge24_Node000001_Node000004"><a xlink:title=" ">
<path fill="none" stroke="#63b8ff" d="M277.59,-235.82C246.2,-228.77 213.85,-215.51 192.23,-191 167.32,-162.77 167.53,-115.99 170.2,-89.02"/>
<polygon fill="#63b8ff" stroke="#63b8ff" points="173.64,-89.71 171.37,-79.36 166.69,-88.86 173.64,-89.71"/>
</a>
</g>
</g>
<!-- Node5 -->
<g id="Node000005" class="node">
<title>Node5</title>
<g id="a_Node000005"><a xlink:title=" ">
<polygon fill="#e0e0e0" stroke="#999999" points="387.73,-20.75 338.73,-20.75 338.73,0 387.73,0 387.73,-20.75"/>
<text xml:space="preserve" text-anchor="middle" x="363.23" y="-7.25" font-family="Helvetica,sans-Serif" font-size="10.00">cstdint</text>
</a>
</g>
</g>
<!-- Node1&#45;&gt;Node5 -->
<g id="edge27_Node000001_Node000005" class="edge">
<title>Node1&#45;&gt;Node5</title>
<g id="a_edge27_Node000001_Node000005"><a xlink:title=" ">
<path fill="none" stroke="#63b8ff" d="M392.86,-226.75C418.98,-203.38 460.41,-157.87 447.23,-113.5 436.69,-78.04 406.13,-46.75 384.93,-28.44"/>
<polygon fill="#63b8ff" stroke="#63b8ff" points="387.32,-25.87 377.4,-22.16 382.84,-31.25 387.32,-25.87"/>
</a>
</g>
</g>
<!-- Node6 -->
<g id="Node000006" class="node">
<title>Node6</title>
<g id="a_Node000006"><a xlink:href="TactixMath_8h.html" target="_top" xlink:title="Small, engine&#45;agnostic vector and scalar math used across Tactix.">
<polygon fill="white" stroke="#666666" points="437.85,-134.25 302.6,-134.25 302.6,-113.5 437.85,-113.5 437.85,-134.25"/>
<text xml:space="preserve" text-anchor="middle" x="370.23" y="-120.75" font-family="Helvetica,sans-Serif" font-size="10.00">Foundation/TactixMath.h</text>
</a>
</g>
</g>
<!-- Node1&#45;&gt;Node6 -->
<g id="edge25_Node000001_Node000006" class="edge">
<title>Node1&#45;&gt;Node6</title>
<g id="a_edge25_Node000001_Node000006"><a xlink:title=" ">
<path fill="none" stroke="#63b8ff" d="M372.82,-226.85C372.29,-205.96 371.35,-169.21 370.76,-146"/>
<polygon fill="#63b8ff" stroke="#63b8ff" points="374.27,-146.1 370.51,-136.2 367.27,-146.28 374.27,-146.1"/>
</a>
</g>
</g>
<!-- Node9 -->
<g id="Node000009" class="node">
<title>Node9</title>
<g id="a_Node000009"><a xlink:href="TactixPool_8h.html" target="_top" xlink:title="Fixed&#45;capacity pool allocator with per&#45;slot generation tracking.">
<polygon fill="white" stroke="#666666" points="649.98,-134.25 518.48,-134.25 518.48,-113.5 649.98,-113.5 649.98,-134.25"/>
<text xml:space="preserve" text-anchor="middle" x="584.23" y="-120.75" font-family="Helvetica,sans-Serif" font-size="10.00">Foundation/TactixPool.h</text>
</a>
</g>
</g>
<!-- Node1&#45;&gt;Node9 -->
<g id="edge16_Node000001_Node000009" class="edge">
<title>Node1&#45;&gt;Node9</title>
<g id="a_edge16_Node000001_Node000009"><a xlink:title=" ">
<path fill="none" stroke="#63b8ff" d="M425.04,-226.53C449.86,-217.71 479.49,-205.61 504.23,-191 527.57,-177.21 551.11,-156.79 566.55,-142.29"/>
<polygon fill="#63b8ff" stroke="#63b8ff" points="568.75,-145.03 573.55,-135.58 563.91,-139.98 568.75,-145.03"/>
</a>
</g>
</g>
<!-- Node10 -->
<g id="Node000010" class="node">
<title>Node10</title>
<g id="a_Node000010"><a xlink:title=" ">
<polygon fill="#e0e0e0" stroke="#999999" points="811.23,-77.5 759.23,-77.5 759.23,-56.75 811.23,-56.75 811.23,-77.5"/>
<text xml:space="preserve" text-anchor="middle" x="785.23" y="-64" font-family="Helvetica,sans-Serif" font-size="10.00">cstddef</text>
</a>
</g>
</g>
<!-- Node1&#45;&gt;Node10 -->
<g id="edge26_Node000001_Node000010" class="edge">
<title>Node1&#45;&gt;Node10</title>
<g id="a_edge26_Node000001_Node000010"><a xlink:title=" ">
<path fill="none" stroke="#63b8ff" d="M427.81,-226.55C458.73,-216.98 497.96,-204.19 532.23,-191 589.92,-168.79 603.61,-161.24 659.23,-134.25 693.45,-117.64 732.1,-97.09 757.46,-83.34"/>
<polygon fill="#63b8ff" stroke="#63b8ff" points="759.02,-86.48 766.13,-78.62 755.68,-80.33 759.02,-86.48"/>
</a>
</g>
</g>
<!-- Node3&#45;&gt;Node2 -->
<g id="edge3_Node000003_Node000002" class="edge">
<title>Node3&#45;&gt;Node2</title>
<g id="a_edge3_Node000003_Node000002"><a xlink:title=" ">
<path fill="none" stroke="#63b8ff" d="M201.03,-176.82C133.99,-172.52 41.18,-161.65 18.23,-134.25 -12.11,-98.03 43.75,-51.43 78.87,-27.36"/>
<polygon fill="#63b8ff" stroke="#63b8ff" points="80.49,-30.48 86.88,-22.03 76.61,-24.66 80.49,-30.48"/>
</a>
</g>
</g>
<!-- Node3&#45;&gt;Node4 -->
<g id="edge4_Node000003_Node000004" class="edge">
<title>Node3&#45;&gt;Node4</title>
<g id="a_edge4_Node000003_Node000004"><a xlink:title=" ">
<path fill="none" stroke="#63b8ff" d="M264.7,-170.12C248.11,-151.61 211.21,-110.47 189.69,-86.48"/>
<polygon fill="#63b8ff" stroke="#63b8ff" points="192.31,-84.16 183.03,-79.05 187.1,-88.83 192.31,-84.16"/>
</a>
</g>
</g>
<!-- Node3&#45;&gt;Node5 -->
<g id="edge15_Node000003_Node000005" class="edge">
<title>Node3&#45;&gt;Node5</title>
<g id="a_edge15_Node000003_Node000005"><a xlink:title=" ">
<path fill="none" stroke="#63b8ff" d="M275.22,-169.88C278.13,-156.68 284.2,-132.58 293.23,-113.5 306.21,-86.06 314.03,-81.77 331.23,-56.75 337.22,-48.04 343.95,-38.46 349.68,-30.36"/>
<polygon fill="#63b8ff" stroke="#63b8ff" points="352.47,-32.48 355.41,-22.3 346.77,-28.42 352.47,-32.48"/>
</a>
</g>
</g>
<!-- Node3&#45;&gt;Node6 -->
<g id="edge7_Node000003_Node000006" class="edge">
<title>Node3&#45;&gt;Node6</title>
<g id="a_edge7_Node000003_Node000006"><a xlink:title=" ">
<path fill="none" stroke="#63b8ff" d="M290.57,-169.84C305.19,-161.58 326.36,-149.63 343.2,-140.13"/>
<polygon fill="#63b8ff" stroke="#63b8ff" points="344.73,-143.29 351.72,-135.32 341.29,-137.19 344.73,-143.29"/>
</a>
</g>
</g>
<!-- Node8 -->
<g id="Node000008" class="node">
<title>Node8</title>
<g id="a_Node000008"><a xlink:href="ITactixAgent_8h.html" target="_top" xlink:title="The engine&#45;agnostic contract a &quot;thinking&quot; entity implements to take part in Tactix systems.">
<polygon fill="white" stroke="#666666" points="143.48,-134.25 26.98,-134.25 26.98,-113.5 143.48,-113.5 143.48,-134.25"/>
<text xml:space="preserve" text-anchor="middle" x="85.23" y="-120.75" font-family="Helvetica,sans-Serif" font-size="10.00">Agent/ITactixAgent.h</text>
</a>
</g>
</g>
<!-- Node3&#45;&gt;Node8 -->
<g id="edge11_Node000003_Node000008" class="edge">
<title>Node3&#45;&gt;Node8</title>
<g id="a_edge11_Node000003_Node000008"><a xlink:title=" ">
<path fill="none" stroke="#63b8ff" d="M239.62,-169.84C208.97,-160.91 163.46,-147.66 129.79,-137.85"/>
<polygon fill="#63b8ff" stroke="#63b8ff" points="130.9,-134.53 120.32,-135.09 128.94,-141.25 130.9,-134.53"/>
</a>
</g>
</g>
<!-- Node4&#45;&gt;Node2 -->
<g id="edge5_Node000004_Node000002" class="edge">
<title>Node4&#45;&gt;Node2</title>
<g id="a_edge5_Node000004_Node000002"><a xlink:title=" ">
<path fill="none" stroke="#63b8ff" d="M160.89,-56.34C150.98,-48.47 136.84,-37.25 125.16,-27.99"/>
<polygon fill="#63b8ff" stroke="#63b8ff" points="127.65,-25.49 117.64,-22.02 123.3,-30.98 127.65,-25.49"/>
</a>
</g>
</g>
<!-- Node4&#45;&gt;Node5 -->
<g id="edge6_Node000004_Node000005" class="edge">
<title>Node4&#45;&gt;Node5</title>
<g id="a_edge6_Node000004_Node000005"><a xlink:title=" ">
<path fill="none" stroke="#63b8ff" d="M207.19,-56.34C241.05,-46.58 292.83,-31.66 327.34,-21.72"/>
<polygon fill="#63b8ff" stroke="#63b8ff" points="328.24,-25.1 336.88,-18.97 326.3,-18.37 328.24,-25.1"/>
</a>
</g>
</g>
<!-- Node6&#45;&gt;Node2 -->
<g id="edge8_Node000006_Node000002" class="edge">
<title>Node6&#45;&gt;Node2</title>
<g id="a_edge8_Node000006_Node000002"><a xlink:title=" ">
<path fill="none" stroke="#63b8ff" d="M355.9,-113.19C334.69,-99.18 293.3,-73.16 255.23,-56.75 221.12,-42.05 180.76,-30.19 150.34,-22.28"/>
<polygon fill="#63b8ff" stroke="#63b8ff" points="151.23,-18.9 140.68,-19.82 149.5,-25.68 151.23,-18.9"/>
</a>
</g>
</g>
<!-- Node6&#45;&gt;Node5 -->
<g id="edge10_Node000006_Node000005" class="edge">
<title>Node6&#45;&gt;Node5</title>
<g id="a_edge10_Node000006_Node000005"><a xlink:title=" ">
<path fill="none" stroke="#63b8ff" d="M378.27,-113.13C387.81,-100.34 401.68,-77.11 395.23,-56.75 392.15,-47.06 386.18,-37.65 380.22,-29.94"/>
<polygon fill="#63b8ff" stroke="#63b8ff" points="382.97,-27.77 373.86,-22.34 377.6,-32.26 382.97,-27.77"/>
</a>
</g>
</g>
<!-- Node7 -->
<g id="Node000007" class="node">
<title>Node7</title>
<g id="a_Node000007"><a xlink:title=" ">
<polygon fill="#e0e0e0" stroke="#999999" points="386.6,-77.5 339.85,-77.5 339.85,-56.75 386.6,-56.75 386.6,-77.5"/>
<text xml:space="preserve" text-anchor="middle" x="363.23" y="-64" font-family="Helvetica,sans-Serif" font-size="10.00">cmath</text>
</a>
</g>
</g>
<!-- Node6&#45;&gt;Node7 -->
<g id="edge9_Node000006_Node000007" class="edge">
<title>Node6&#45;&gt;Node7</title>
<g id="a_edge9_Node000006_Node000007"><a xlink:title=" ">
<path fill="none" stroke="#63b8ff" d="M368.97,-113.09C368.12,-106.39 366.95,-97.26 365.89,-88.98"/>
<polygon fill="#63b8ff" stroke="#63b8ff" points="369.4,-88.81 364.66,-79.33 362.46,-89.69 369.4,-88.81"/>
</a>
</g>
</g>
<!-- Node8&#45;&gt;Node2 -->
<g id="edge12_Node000008_Node000002" class="edge">
<title>Node8&#45;&gt;Node2</title>
<g id="a_edge12_Node000008_Node000002"><a xlink:title=" ">
<path fill="none" stroke="#63b8ff" d="M76.5,-113.44C65.73,-100.59 49.81,-76.88 58.23,-56.75 62.92,-45.54 71.88,-35.69 80.65,-28.05"/>
<polygon fill="#63b8ff" stroke="#63b8ff" points="82.74,-30.87 88.36,-21.88 78.37,-25.4 82.74,-30.87"/>
</a>
</g>
</g>
<!-- Node8&#45;&gt;Node4 -->
<g id="edge13_Node000008_Node000004" class="edge">
<title>Node8&#45;&gt;Node4</title>
<g id="a_edge13_Node000008_Node000004"><a xlink:title=" ">
<path fill="none" stroke="#63b8ff" d="M100.96,-113.09C114.1,-104.91 133.07,-93.11 148.28,-83.65"/>
<polygon fill="#63b8ff" stroke="#63b8ff" points="149.7,-86.88 156.34,-78.63 146.01,-80.94 149.7,-86.88"/>
</a>
</g>
</g>
<!-- Node8&#45;&gt;Node5 -->
<g id="edge14_Node000008_Node000005" class="edge">
<title>Node8&#45;&gt;Node5</title>
<g id="a_edge14_Node000008_Node000005"><a xlink:title=" ">
<path fill="none" stroke="#63b8ff" d="M82.86,-113.35C79.94,-99.06 76.96,-72.13 91.23,-56.75 122.56,-22.98 260.49,-14.34 327.05,-12.13"/>
<polygon fill="#63b8ff" stroke="#63b8ff" points="326.82,-15.64 336.72,-11.85 326.62,-8.64 326.82,-15.64"/>
</a>
</g>
</g>
<!-- Node9&#45;&gt;Node2 -->
<g id="edge17_Node000009_Node000002" class="edge">
<title>Node9&#45;&gt;Node2</title>
<g id="a_edge17_Node000009_Node000002"><a xlink:title=" ">
<path fill="none" stroke="#63b8ff" d="M560.78,-113.11C525.47,-98.77 456.26,-72.05 395.23,-56.75 310.08,-35.41 208.27,-22.28 150.43,-15.95"/>
<polygon fill="#63b8ff" stroke="#63b8ff" points="150.95,-12.49 140.63,-14.9 150.2,-19.45 150.95,-12.49"/>
</a>
</g>
</g>
<!-- Node9&#45;&gt;Node4 -->
<g id="edge18_Node000009_Node000004" class="edge">
<title>Node9&#45;&gt;Node4</title>
<g id="a_edge18_Node000009_Node000004"><a xlink:title=" ">
<path fill="none" stroke="#63b8ff" d="M518.19,-114.08C447.25,-104.63 334.33,-89.59 257.14,-79.3"/>
<polygon fill="#63b8ff" stroke="#63b8ff" points="257.9,-75.87 247.52,-78.02 256.98,-82.81 257.9,-75.87"/>
</a>
</g>
</g>
<!-- Node9&#45;&gt;Node5 -->
<g id="edge20_Node000009_Node000005" class="edge">
<title>Node9&#45;&gt;Node5</title>
<g id="a_edge20_Node000009_Node000005"><a xlink:title=" ">
<path fill="none" stroke="#63b8ff" d="M575.25,-113.44C561.29,-99.28 532.99,-72.5 504.23,-56.75 470.68,-38.38 428.51,-26.03 399.07,-18.92"/>
<polygon fill="#63b8ff" stroke="#63b8ff" points="400.07,-15.56 389.54,-16.7 398.48,-22.38 400.07,-15.56"/>
</a>
</g>
</g>
<!-- Node9&#45;&gt;Node10 -->
<g id="edge19_Node000009_Node000010" class="edge">
<title>Node9&#45;&gt;Node10</title>
<g id="a_edge19_Node000009_Node000010"><a xlink:title=" ">
<path fill="none" stroke="#63b8ff" d="M620.16,-113.09C656.28,-103.25 711.71,-88.15 748.21,-78.21"/>
<polygon fill="#63b8ff" stroke="#63b8ff" points="748.7,-81.7 757.43,-75.7 746.86,-74.95 748.7,-81.7"/>
</a>
</g>
</g>
<!-- Node11 -->
<g id="Node000011" class="node">
<title>Node11</title>
<g id="a_Node000011"><a xlink:title=" ">
<polygon fill="#e0e0e0" stroke="#999999" points="592.35,-77.5 556.1,-77.5 556.1,-56.75 592.35,-56.75 592.35,-77.5"/>
<text xml:space="preserve" text-anchor="middle" x="574.23" y="-64" font-family="Helvetica,sans-Serif" font-size="10.00">new</text>
</a>
</g>
</g>
<!-- Node9&#45;&gt;Node11 -->
<g id="edge21_Node000009_Node000011" class="edge">
<title>Node9&#45;&gt;Node11</title>
<g id="a_edge21_Node000009_Node000011"><a xlink:title=" ">
<path fill="none" stroke="#63b8ff" d="M582.44,-113.09C581.22,-106.39 579.55,-97.26 578.04,-88.98"/>
<polygon fill="#63b8ff" stroke="#63b8ff" points="581.51,-88.53 576.27,-79.32 574.62,-89.78 581.51,-88.53"/>
</a>
</g>
</g>
<!-- Node12 -->
<g id="Node000012" class="node">
<title>Node12</title>
<g id="a_Node000012"><a xlink:title=" ">
<polygon fill="#e0e0e0" stroke="#999999" points="654.48,-77.5 609.98,-77.5 609.98,-56.75 654.48,-56.75 654.48,-77.5"/>
<text xml:space="preserve" text-anchor="middle" x="632.23" y="-64" font-family="Helvetica,sans-Serif" font-size="10.00">utility</text>
</a>
</g>
</g>
<!-- Node9&#45;&gt;Node12 -->
<g id="edge22_Node000009_Node000012" class="edge">
<title>Node9&#45;&gt;Node12</title>
<g id="a_edge22_Node000009_Node000012"><a xlink:title=" ">
<path fill="none" stroke="#63b8ff" d="M592.81,-113.09C599.29,-105.69 608.38,-95.32 616.2,-86.41"/>
<polygon fill="#63b8ff" stroke="#63b8ff" points="618.76,-88.79 622.72,-78.97 613.5,-84.18 618.76,-88.79"/>
</a>
</g>
</g>
<!-- Node13 -->
<g id="Node000013" class="node">
<title>Node13</title>
<g id="a_Node000013"><a xlink:title=" ">
<polygon fill="#e0e0e0" stroke="#999999" points="741.48,-77.5 672.98,-77.5 672.98,-56.75 741.48,-56.75 741.48,-77.5"/>
<text xml:space="preserve" text-anchor="middle" x="707.23" y="-64" font-family="Helvetica,sans-Serif" font-size="10.00">type_traits</text>
</a>
</g>
</g>
<!-- Node9&#45;&gt;Node13 -->
<g id="edge23_Node000009_Node000013" class="edge">
<title>Node9&#45;&gt;Node13</title>
<g id="a_edge23_Node000009_Node000013"><a xlink:title=" ">
<path fill="none" stroke="#63b8ff" d="M606.22,-113.09C625.37,-104.56 653.39,-92.09 675.06,-82.44"/>
<polygon fill="#63b8ff" stroke="#63b8ff" points="676.33,-85.71 684.04,-78.44 673.48,-79.31 676.33,-85.71"/>
</a>
</g>
</g>
</g>
</svg>
