<?xml version="1.0" encoding="UTF-8" standalone="no"?>
<!DOCTYPE svg PUBLIC "-//W3C//DTD SVG 1.1//EN"
 "http://www.w3.org/Graphics/SVG/1.1/DTD/svg11.dtd">
<!-- Generated by graphviz version 14.1.5 (0)
 -->
<!-- Title: Source/TactixDebug/Private/FTactixVisualDebugger.cpp Pages: 1 -->
<svg width="1338pt" height="325pt"
 viewBox="0.00 0.00 1338.00 325.00" xmlns="http://www.w3.org/2000/svg" xmlns:xlink="http://www.w3.org/1999/xlink">
<g id="graph0" class="graph" transform="scale(1 1) rotate(0) translate(4 321.25)">
<title>Source/TactixDebug/Private/FTactixVisualDebugger.cpp</title>
<!-- Node1 -->
<g id="Node000001" class="node">
<title>Node1</title>
<g id="a_Node000001"><a xlink:title="Implements the agent debug overlays with debug&#45;draw primitives.">
<polygon fill="#999999" stroke="#666666" points="910,-317.25 723,-317.25 723,-283.75 910,-283.75 910,-317.25"/>
<text xml:space="preserve" text-anchor="start" x="731" y="-303.75" font-family="Helvetica,sans-Serif" font-size="10.00">Source/TactixDebug</text>
<text xml:space="preserve" text-anchor="middle" x="816.5" y="-291" font-family="Helvetica,sans-Serif" font-size="10.00">/Private/FTactixVisualDebugger.cpp</text>
</a>
</g>
</g>
<!-- Node2 -->
<g id="Node000002" class="node">
<title>Node2</title>
<g id="a_Node000002"><a xlink:href="FTactixVisualDebugger_8h.html" target="_top" xlink:title="Static helpers that draw per&#45;agent debug overlays in the world.">
<polygon fill="white" stroke="#666666" points="693.12,-247.75 557.88,-247.75 557.88,-227 693.12,-227 693.12,-247.75"/>
<text xml:space="preserve" text-anchor="middle" x="625.5" y="-234.25" font-family="Helvetica,sans-Serif" font-size="10.00">FTactixVisualDebugger.h</text>
</a>
</g>
</g>
<!-- Node1&#45;&gt;Node2 -->
<g id="edge1_Node000001_Node000002" class="edge">
<title>Node1&#45;&gt;Node2</title>
<g id="a_edge1_Node000001_Node000002"><a xlink:title=" ">
<path fill="none" stroke="#63b8ff" d="M765.82,-283.28C734.85,-273.37 695.75,-260.86 666.7,-251.56"/>
<polygon fill="#63b8ff" stroke="#63b8ff" points="668.12,-248.34 657.53,-248.63 665.99,-255.01 668.12,-248.34"/>
</a>
</g>
</g>
<!-- Node14 -->
<g id="Node000014" class="node">
<title>Node14</title>
<g id="a_Node000014"><a xlink:title=" ">
<polygon fill="#e0e0e0" stroke="#999999" points="1059.25,-247.75 939.75,-247.75 939.75,-227 1059.25,-227 1059.25,-247.75"/>
<text xml:space="preserve" text-anchor="middle" x="999.5" y="-234.25" font-family="Helvetica,sans-Serif" font-size="10.00">DrawDebugHelpers.h</text>
</a>
</g>
</g>
<!-- Node1&#45;&gt;Node14 -->
<g id="edge27_Node000001_Node000014" class="edge">
<title>Node1&#45;&gt;Node14</title>
<g id="a_edge27_Node000001_Node000014"><a xlink:title=" ">
<path fill="none" stroke="#63b8ff" d="M865.06,-283.28C894.47,-273.46 931.53,-261.08 959.29,-251.81"/>
<polygon fill="#63b8ff" stroke="#63b8ff" points="960.38,-255.13 968.75,-248.64 958.16,-248.49 960.38,-255.13"/>
</a>
</g>
</g>
<!-- Node15 -->
<g id="Node000015" class="node">
<title>Node15</title>
<g id="a_Node000015"><a xlink:href="ATactixAIController_8h.html" target="_top" xlink:title="Base AIController for Tactix&#45;aware pawns.">
<polygon fill="white" stroke="#666666" points="486.25,-191 318.75,-191 318.75,-170.25 486.25,-170.25 486.25,-191"/>
<text xml:space="preserve" text-anchor="middle" x="402.5" y="-177.5" font-family="Helvetica,sans-Serif" font-size="10.00">Controller/ATactixAIController.h</text>
</a>
</g>
</g>
<!-- Node1&#45;&gt;Node15 -->
<g id="edge28_Node000001_Node000015" class="edge">
<title>Node1&#45;&gt;Node15</title>
<g id="a_edge28_Node000001_Node000015"><a xlink:title=" ">
<path fill="none" stroke="#63b8ff" d="M722.76,-286.92C670.69,-278.57 605.17,-265.78 548.5,-247.75 505.94,-234.21 459.36,-211.66 430.53,-196.71"/>
<polygon fill="#63b8ff" stroke="#63b8ff" points="432.21,-193.65 421.73,-192.1 428.96,-199.84 432.21,-193.65"/>
</a>
</g>
</g>
<!-- Node22 -->
<g id="Node000022" class="node">
<title>Node22</title>
<g id="a_Node000022"><a xlink:href="UTactixAgentComponent_8h.html" target="_top" xlink:title="The component that makes a pawn a Tactix agent.">
<polygon fill="white" stroke="#666666" points="921.62,-247.75 711.38,-247.75 711.38,-227 921.62,-227 921.62,-247.75"/>
<text xml:space="preserve" text-anchor="middle" x="816.5" y="-234.25" font-family="Helvetica,sans-Serif" font-size="10.00">Components/UTactixAgentComponent.h</text>
</a>
</g>
</g>
<!-- Node1&#45;&gt;Node22 -->
<g id="edge40_Node000001_Node000022" class="edge">
<title>Node1&#45;&gt;Node22</title>
<g id="a_edge40_Node000001_Node000022"><a xlink:title=" ">
<path fill="none" stroke="#63b8ff" d="M816.5,-283.44C816.5,-276.1 816.5,-267.32 816.5,-259.46"/>
<polygon fill="#63b8ff" stroke="#63b8ff" points="820,-259.73 816.5,-249.73 813,-259.73 820,-259.73"/>
</a>
</g>
</g>
<!-- Node25 -->
<g id="Node000025" class="node">
<title>Node25</title>
<g id="a_Node000025"><a xlink:title=" ">
<polygon fill="#e0e0e0" stroke="#999999" points="1215.25,-247.75 1077.75,-247.75 1077.75,-227 1215.25,-227 1215.25,-247.75"/>
<text xml:space="preserve" text-anchor="middle" x="1146.5" y="-234.25" font-family="Helvetica,sans-Serif" font-size="10.00">GameFramework/Pawn.h</text>
</a>
</g>
</g>
<!-- Node1&#45;&gt;Node25 -->
<g id="edge46_Node000001_Node000025" class="edge">
<title>Node1&#45;&gt;Node25</title>
<g id="a_edge46_Node000001_Node000025"><a xlink:title=" ">
<path fill="none" stroke="#63b8ff" d="M904.07,-283.28C960.16,-272.89 1031.7,-259.64 1082.49,-250.23"/>
<polygon fill="#63b8ff" stroke="#63b8ff" points="1082.96,-253.7 1092.16,-248.44 1081.69,-246.82 1082.96,-253.7"/>
</a>
</g>
</g>
<!-- Node3 -->
<g id="Node000003" class="node">
<title>Node3</title>
<g id="a_Node000003"><a xlink:title=" ">
<polygon fill="#e0e0e0" stroke="#999999" points="743.12,-134.25 655.88,-134.25 655.88,-113.5 743.12,-113.5 743.12,-134.25"/>
<text xml:space="preserve" text-anchor="middle" x="699.5" y="-120.75" font-family="Helvetica,sans-Serif" font-size="10.00">CoreMinimal.h</text>
</a>
</g>
</g>
<!-- Node2&#45;&gt;Node3 -->
<g id="edge2_Node000002_Node000003" class="edge">
<title>Node2&#45;&gt;Node3</title>
<g id="a_edge2_Node000002_Node000003"><a xlink:title=" ">
<path fill="none" stroke="#63b8ff" d="M631.81,-226.87C643.93,-208.61 670.67,-168.31 686.68,-144.2"/>
<polygon fill="#63b8ff" stroke="#63b8ff" points="689.55,-146.2 692.16,-135.94 683.71,-142.33 689.55,-146.2"/>
</a>
</g>
</g>
<!-- Node4 -->
<g id="Node000004" class="node">
<title>Node4</title>
<g id="a_Node000004"><a xlink:href="FTactixGOAPPlanner_8h.html" target="_top" xlink:title="A* planner over the GOAP world&#45;state graph.">
<polygon fill="white" stroke="#666666" points="479.12,-134.25 325.88,-134.25 325.88,-113.5 479.12,-113.5 479.12,-134.25"/>
<text xml:space="preserve" text-anchor="middle" x="402.5" y="-120.75" font-family="Helvetica,sans-Serif" font-size="10.00">GOAP/FTactixGOAPPlanner.h</text>
</a>
</g>
</g>
<!-- Node2&#45;&gt;Node4 -->
<g id="edge3_Node000002_Node000004" class="edge">
<title>Node2&#45;&gt;Node4</title>
<g id="a_edge3_Node000002_Node000004"><a xlink:title=" ">
<path fill="none" stroke="#63b8ff" d="M606.6,-226.64C581.35,-213.66 535.16,-190.01 495.5,-170.25 474.76,-159.92 451.32,-148.48 433.15,-139.67"/>
<polygon fill="#63b8ff" stroke="#63b8ff" points="434.75,-136.56 424.23,-135.35 431.7,-142.86 434.75,-136.56"/>
</a>
</g>
</g>
<!-- Node8 -->
<g id="Node000008" class="node">
<title>Node8</title>
<g id="a_Node000008"><a xlink:href="FTactixHTNPlanner_8h.html" target="_top" xlink:title="Depth&#45;first HTN planner with method&#45;order fallback and backtracking.">
<polygon fill="white" stroke="#666666" points="637.38,-134.25 497.62,-134.25 497.62,-113.5 637.38,-113.5 637.38,-134.25"/>
<text xml:space="preserve" text-anchor="middle" x="567.5" y="-120.75" font-family="Helvetica,sans-Serif" font-size="10.00">HTN/FTactixHTNPlanner.h</text>
</a>
</g>
</g>
<!-- Node2&#45;&gt;Node8 -->
<g id="edge9_Node000002_Node000008" class="edge">
<title>Node2&#45;&gt;Node8</title>
<g id="a_edge9_Node000002_Node000008"><a xlink:title=" ">
<path fill="none" stroke="#63b8ff" d="M620.55,-226.87C611.14,-208.77 590.47,-169.03 577.89,-144.85"/>
<polygon fill="#63b8ff" stroke="#63b8ff" points="581.02,-143.27 573.3,-136.02 574.81,-146.5 581.02,-143.27"/>
</a>
</g>
</g>
<!-- Node9 -->
<g id="Node000009" class="node">
<title>Node9</title>
<g id="a_Node000009"><a xlink:href="FTactixAgentContext_8h.html" target="_top" xlink:title="Read&#45;only, side&#45;effect&#45;free snapshot of one agent for a single decision.">
<polygon fill="white" stroke="#666666" points="885,-191 728,-191 728,-170.25 885,-170.25 885,-191"/>
<text xml:space="preserve" text-anchor="middle" x="806.5" y="-177.5" font-family="Helvetica,sans-Serif" font-size="10.00">Agent/FTactixAgentContext.h</text>
</a>
</g>
</g>
<!-- Node2&#45;&gt;Node9 -->
<g id="edge13_Node000002_Node000009" class="edge">
<title>Node2&#45;&gt;Node9</title>
<g id="a_edge13_Node000002_Node000009"><a xlink:title=" ">
<path fill="none" stroke="#63b8ff" d="M657.86,-226.59C687.24,-217.7 730.8,-204.52 763.17,-194.73"/>
<polygon fill="#63b8ff" stroke="#63b8ff" points="764.11,-198.1 772.67,-191.86 762.08,-191.4 764.11,-198.1"/>
</a>
</g>
</g>
<!-- Node5 -->
<g id="Node000005" class="node">
<title>Node5</title>
<g id="a_Node000005"><a xlink:href="TactixApi_8h.html" target="_top" xlink:title="Export macros, compiler attributes and version constants shared by every Tactix module.">
<polygon fill="white" stroke="#666666" points="787.12,-20.75 717.88,-20.75 717.88,0 787.12,0 787.12,-20.75"/>
<text xml:space="preserve" text-anchor="middle" x="752.5" y="-7.25" font-family="Helvetica,sans-Serif" font-size="10.00">TactixApi.h</text>
</a>
</g>
</g>
<!-- Node4&#45;&gt;Node5 -->
<g id="edge4_Node000004_Node000005" class="edge">
<title>Node4&#45;&gt;Node5</title>
<g id="a_edge4_Node000004_Node000005"><a xlink:title=" ">
<path fill="none" stroke="#63b8ff" d="M405.9,-113.35C411.72,-98.56 425.08,-70.34 446.5,-56.75 451.95,-53.29 622.14,-29.39 706.3,-17.74"/>
<polygon fill="#63b8ff" stroke="#63b8ff" points="706.65,-21.22 716.08,-16.38 705.69,-14.29 706.65,-21.22"/>
</a>
</g>
</g>
<!-- Node6 -->
<g id="Node000006" class="node">
<title>Node6</title>
<g id="a_Node000006"><a xlink:href="FTactixWorldState_8h.html" target="_top" xlink:title="Symbolic world state for the GOAP planner: 64 boolean facts plus a &quot;defined&quot; mask.">
<polygon fill="white" stroke="#666666" points="597.88,-77.5 455.12,-77.5 455.12,-56.75 597.88,-56.75 597.88,-77.5"/>
<text xml:space="preserve" text-anchor="middle" x="526.5" y="-64" font-family="Helvetica,sans-Serif" font-size="10.00">GOAP/FTactixWorldState.h</text>
</a>
</g>
</g>
<!-- Node4&#45;&gt;Node6 -->
<g id="edge5_Node000004_Node000006" class="edge">
<title>Node4&#45;&gt;Node6</title>
<g id="a_edge5_Node000004_Node000006"><a xlink:title=" ">
<path fill="none" stroke="#63b8ff" d="M424.67,-113.09C443.98,-104.56 472.22,-92.09 494.07,-82.44"/>
<polygon fill="#63b8ff" stroke="#63b8ff" points="495.4,-85.68 503.14,-78.44 492.58,-79.28 495.4,-85.68"/>
</a>
</g>
</g>
<!-- Node7 -->
<g id="Node000007" class="node">
<title>Node7</title>
<g id="a_Node000007"><a xlink:title=" ">
<polygon fill="#e0e0e0" stroke="#999999" points="675,-20.75 626,-20.75 626,0 675,0 675,-20.75"/>
<text xml:space="preserve" text-anchor="middle" x="650.5" y="-7.25" font-family="Helvetica,sans-Serif" font-size="10.00">cstdint</text>
</a>
</g>
</g>
<!-- Node4&#45;&gt;Node7 -->
<g id="edge8_Node000004_Node000007" class="edge">
<title>Node4&#45;&gt;Node7</title>
<g id="a_edge8_Node000004_Node000007"><a xlink:title=" ">
<path fill="none" stroke="#63b8ff" d="M401.02,-113.29C399.39,-98.93 398.71,-71.91 413.5,-56.75 440.87,-28.7 554.84,-17.41 614.2,-13.37"/>
<polygon fill="#63b8ff" stroke="#63b8ff" points="614.37,-16.87 624.13,-12.73 613.93,-9.88 614.37,-16.87"/>
</a>
</g>
</g>
<!-- Node6&#45;&gt;Node5 -->
<g id="edge6_Node000006_Node000005" class="edge">
<title>Node6&#45;&gt;Node5</title>
<g id="a_edge6_Node000006_Node000005"><a xlink:title=" ">
<path fill="none" stroke="#63b8ff" d="M567.17,-56.27C606.43,-46.76 665.79,-32.38 706.7,-22.47"/>
<polygon fill="#63b8ff" stroke="#63b8ff" points="707.35,-25.91 716.25,-20.16 705.7,-19.11 707.35,-25.91"/>
</a>
</g>
</g>
<!-- Node6&#45;&gt;Node7 -->
<g id="edge7_Node000006_Node000007" class="edge">
<title>Node6&#45;&gt;Node7</title>
<g id="a_edge7_Node000006_Node000007"><a xlink:title=" ">
<path fill="none" stroke="#63b8ff" d="M548.67,-56.34C567.98,-47.81 596.22,-35.34 618.07,-25.69"/>
<polygon fill="#63b8ff" stroke="#63b8ff" points="619.4,-28.93 627.14,-21.69 616.58,-22.53 619.4,-28.93"/>
</a>
</g>
</g>
<!-- Node8&#45;&gt;Node5 -->
<g id="edge10_Node000008_Node000005" class="edge">
<title>Node8&#45;&gt;Node5</title>
<g id="a_edge10_Node000008_Node000005"><a xlink:title=" ">
<path fill="none" stroke="#63b8ff" d="M583.59,-113.18C615.71,-93.82 688,-50.25 726.77,-26.88"/>
<polygon fill="#63b8ff" stroke="#63b8ff" points="728.26,-30.07 735.02,-21.91 724.64,-24.08 728.26,-30.07"/>
</a>
</g>
</g>
<!-- Node8&#45;&gt;Node6 -->
<g id="edge11_Node000008_Node000006" class="edge">
<title>Node8&#45;&gt;Node6</title>
<g id="a_edge11_Node000008_Node000006"><a xlink:title=" ">
<path fill="none" stroke="#63b8ff" d="M560.17,-113.09C554.75,-105.85 547.19,-95.76 540.61,-86.97"/>
<polygon fill="#63b8ff" stroke="#63b8ff" points="543.47,-84.95 534.67,-79.04 537.87,-89.14 543.47,-84.95"/>
</a>
</g>
</g>
<!-- Node8&#45;&gt;Node7 -->
<g id="edge12_Node000008_Node000007" class="edge">
<title>Node8&#45;&gt;Node7</title>
<g id="a_edge12_Node000008_Node000007"><a xlink:title=" ">
<path fill="none" stroke="#63b8ff" d="M576.54,-113.08C584.69,-104.08 596.84,-90.25 606.5,-77.5 618.07,-62.24 630.03,-44.08 638.56,-30.65"/>
<polygon fill="#63b8ff" stroke="#63b8ff" points="641.43,-32.66 643.79,-22.33 635.5,-28.94 641.43,-32.66"/>
</a>
</g>
</g>
<!-- Node9&#45;&gt;Node5 -->
<g id="edge14_Node000009_Node000005" class="edge">
<title>Node9&#45;&gt;Node5</title>
<g id="a_edge14_Node000009_Node000005"><a xlink:title=" ">
<path fill="none" stroke="#63b8ff" d="M885.28,-174.54C997.89,-164.43 1184.02,-135.53 1114.5,-56.75 1093.9,-33.41 891.46,-19.16 798.61,-13.8"/>
<polygon fill="#63b8ff" stroke="#63b8ff" points="799.01,-10.32 788.83,-13.25 798.62,-17.31 799.01,-10.32"/>
</a>
</g>
</g>
<!-- Node9&#45;&gt;Node7 -->
<g id="edge26_Node000009_Node000007" class="edge">
<title>Node9&#45;&gt;Node7</title>
<g id="a_edge26_Node000009_Node000007"><a xlink:title=" ">
<path fill="none" stroke="#63b8ff" d="M799.1,-169.96C788.95,-156.85 769.99,-132.86 752.5,-113.5 724.69,-82.73 690.21,-49.06 669.3,-29.1"/>
<polygon fill="#63b8ff" stroke="#63b8ff" points="671.74,-26.59 662.08,-22.24 666.92,-31.66 671.74,-26.59"/>
</a>
</g>
</g>
<!-- Node10 -->
<g id="Node000010" class="node">
<title>Node10</title>
<g id="a_Node000010"><a xlink:href="TactixHandle_8h.html" target="_top" xlink:title="Type&#45;safe generational handle: the only sanctioned way to reference a pooled object across frames.">
<polygon fill="white" stroke="#666666" points="875,-77.5 730,-77.5 730,-56.75 875,-56.75 875,-77.5"/>
<text xml:space="preserve" text-anchor="middle" x="802.5" y="-64" font-family="Helvetica,sans-Serif" font-size="10.00">Foundation/TactixHandle.h</text>
</a>
</g>
</g>
<!-- Node9&#45;&gt;Node10 -->
<g id="edge15_Node000009_Node000010" class="edge">
<title>Node9&#45;&gt;Node10</title>
<g id="a_edge15_Node000009_Node000010"><a xlink:title=" ">
<path fill="none" stroke="#63b8ff" d="M806.16,-170.12C805.52,-152.35 804.14,-113.72 803.26,-89.43"/>
<polygon fill="#63b8ff" stroke="#63b8ff" points="806.76,-89.31 802.91,-79.44 799.77,-89.56 806.76,-89.31"/>
</a>
</g>
</g>
<!-- Node11 -->
<g id="Node000011" class="node">
<title>Node11</title>
<g id="a_Node000011"><a xlink:href="TactixMath_8h.html" target="_top" xlink:title="Small, engine&#45;agnostic vector and scalar math used across Tactix.">
<polygon fill="white" stroke="#666666" points="1105.12,-77.5 969.88,-77.5 969.88,-56.75 1105.12,-56.75 1105.12,-77.5"/>
<text xml:space="preserve" text-anchor="middle" x="1037.5" y="-64" font-family="Helvetica,sans-Serif" font-size="10.00">Foundation/TactixMath.h</text>
</a>
</g>
</g>
<!-- Node9&#45;&gt;Node11 -->
<g id="edge18_Node000009_Node000011" class="edge">
<title>Node9&#45;&gt;Node11</title>
<g id="a_edge18_Node000009_Node000011"><a xlink:title=" ">
<path fill="none" stroke="#63b8ff" d="M870.59,-169.76C902.18,-162.99 939.94,-151.93 970.5,-134.25 991.62,-122.03 1010.89,-101.58 1023.29,-86.65"/>
<polygon fill="#63b8ff" stroke="#63b8ff" points="1025.93,-88.95 1029.45,-78.95 1020.47,-84.57 1025.93,-88.95"/>
</a>
</g>
</g>
<!-- Node13 -->
<g id="Node000013" class="node">
<title>Node13</title>
<g id="a_Node000013"><a xlink:href="ITactixAgent_8h.html" target="_top" xlink:title="The engine&#45;agnostic contract a &quot;thinking&quot; entity implements to take part in Tactix systems.">
<polygon fill="white" stroke="#666666" points="961.75,-134.25 845.25,-134.25 845.25,-113.5 961.75,-113.5 961.75,-134.25"/>
<text xml:space="preserve" text-anchor="middle" x="903.5" y="-120.75" font-family="Helvetica,sans-Serif" font-size="10.00">Agent/ITactixAgent.h</text>
</a>
</g>
</g>
<!-- Node9&#45;&gt;Node13 -->
<g id="edge22_Node000009_Node000013" class="edge">
<title>Node9&#45;&gt;Node13</title>
<g id="a_edge22_Node000009_Node000013"><a xlink:title=" ">
<path fill="none" stroke="#63b8ff" d="M823.84,-169.84C838.46,-161.58 859.64,-149.63 876.48,-140.13"/>
<polygon fill="#63b8ff" stroke="#63b8ff" points="878,-143.29 884.99,-135.32 874.56,-137.19 878,-143.29"/>
</a>
</g>
</g>
<!-- Node10&#45;&gt;Node5 -->
<g id="edge16_Node000010_Node000005" class="edge">
<title>Node10&#45;&gt;Node5</title>
<g id="a_edge16_Node000010_Node000005"><a xlink:title=" ">
<path fill="none" stroke="#63b8ff" d="M793.56,-56.34C786.74,-48.86 777.14,-38.36 768.94,-29.38"/>
<polygon fill="#63b8ff" stroke="#63b8ff" points="771.71,-27.22 762.38,-22.2 766.54,-31.94 771.71,-27.22"/>
</a>
</g>
</g>
<!-- Node10&#45;&gt;Node7 -->
<g id="edge17_Node000010_Node000007" class="edge">
<title>Node10&#45;&gt;Node7</title>
<g id="a_edge17_Node000010_Node000007"><a xlink:title=" ">
<path fill="none" stroke="#63b8ff" d="M775.33,-56.34C750.41,-47.36 713.35,-34.01 686.08,-24.19"/>
<polygon fill="#63b8ff" stroke="#63b8ff" points="687.44,-20.96 676.85,-20.87 685.07,-27.55 687.44,-20.96"/>
</a>
</g>
</g>
<!-- Node11&#45;&gt;Node5 -->
<g id="edge19_Node000011_Node000005" class="edge">
<title>Node11&#45;&gt;Node5</title>
<g id="a_edge19_Node000011_Node000005"><a xlink:title=" ">
<path fill="none" stroke="#63b8ff" d="M986.22,-56.27C932.73,-46 849.66,-30.04 798.31,-20.17"/>
<polygon fill="#63b8ff" stroke="#63b8ff" points="799.19,-16.78 788.71,-18.33 797.87,-23.66 799.19,-16.78"/>
</a>
</g>
</g>
<!-- Node11&#45;&gt;Node7 -->
<g id="edge21_Node000011_Node000007" class="edge">
<title>Node11&#45;&gt;Node7</title>
<g id="a_edge21_Node000011_Node000007"><a xlink:title=" ">
<path fill="none" stroke="#63b8ff" d="M969.38,-57.2C902.8,-48.36 798.6,-34.24 708.5,-20.75 701.44,-19.69 693.9,-18.51 686.67,-17.35"/>
<polygon fill="#63b8ff" stroke="#63b8ff" points="687.24,-13.9 676.81,-15.76 686.12,-20.81 687.24,-13.9"/>
</a>
</g>
</g>
<!-- Node12 -->
<g id="Node000012" class="node">
<title>Node12</title>
<g id="a_Node000012"><a xlink:title=" ">
<polygon fill="#e0e0e0" stroke="#999999" points="1060.88,-20.75 1014.12,-20.75 1014.12,0 1060.88,0 1060.88,-20.75"/>
<text xml:space="preserve" text-anchor="middle" x="1037.5" y="-7.25" font-family="Helvetica,sans-Serif" font-size="10.00">cmath</text>
</a>
</g>
</g>
<!-- Node11&#45;&gt;Node12 -->
<g id="edge20_Node000011_Node000012" class="edge">
<title>Node11&#45;&gt;Node12</title>
<g id="a_edge20_Node000011_Node000012"><a xlink:title=" ">
<path fill="none" stroke="#63b8ff" d="M1037.5,-56.34C1037.5,-49.72 1037.5,-40.72 1037.5,-32.52"/>
<polygon fill="#63b8ff" stroke="#63b8ff" points="1041,-32.59 1037.5,-22.59 1034,-32.59 1041,-32.59"/>
</a>
</g>
</g>
<!-- Node13&#45;&gt;Node5 -->
<g id="edge23_Node000013_Node000005" class="edge">
<title>Node13&#45;&gt;Node5</title>
<g id="a_edge23_Node000013_Node000005"><a xlink:title=" ">
<path fill="none" stroke="#63b8ff" d="M909.85,-113.29C918.18,-99.42 930.3,-73.55 917.5,-56.75 903.12,-37.88 842.45,-24.89 798.85,-17.79"/>
<polygon fill="#63b8ff" stroke="#63b8ff" points="799.54,-14.36 789.11,-16.27 798.45,-21.27 799.54,-14.36"/>
</a>
</g>
</g>
<!-- Node13&#45;&gt;Node7 -->
<g id="edge25_Node000013_Node000007" class="edge">
<title>Node13&#45;&gt;Node7</title>
<g id="a_edge25_Node000013_Node000007"><a xlink:title=" ">
<path fill="none" stroke="#63b8ff" d="M903.67,-113.17C903.37,-98.66 900.54,-71.43 884.5,-56.75 877.21,-50.08 750.4,-28.08 686.58,-17.36"/>
<polygon fill="#63b8ff" stroke="#63b8ff" points="687.37,-13.94 676.93,-15.74 686.22,-20.85 687.37,-13.94"/>
</a>
</g>
</g>
<!-- Node13&#45;&gt;Node10 -->
<g id="edge24_Node000013_Node000010" class="edge">
<title>Node13&#45;&gt;Node10</title>
<g id="a_edge24_Node000013_Node000010"><a xlink:title=" ">
<path fill="none" stroke="#63b8ff" d="M885.44,-113.09C870.08,-104.76 847.76,-92.66 830.14,-83.11"/>
<polygon fill="#63b8ff" stroke="#63b8ff" points="832.19,-80.24 821.73,-78.55 828.85,-86.39 832.19,-80.24"/>
</a>
</g>
</g>
<!-- Node15&#45;&gt;Node3 -->
<g id="edge29_Node000015_Node000003" class="edge">
<title>Node15&#45;&gt;Node3</title>
<g id="a_edge29_Node000015_Node000003"><a xlink:title=" ">
<path fill="none" stroke="#63b8ff" d="M455.94,-169.77C509.26,-159.94 590.8,-144.91 644.62,-134.99"/>
<polygon fill="#63b8ff" stroke="#63b8ff" points="644.98,-138.48 654.18,-133.23 643.71,-131.6 644.98,-138.48"/>
</a>
</g>
</g>
<!-- Node15&#45;&gt;Node4 -->
<g id="edge37_Node000015_Node000004" class="edge">
<title>Node15&#45;&gt;Node4</title>
<g id="a_edge37_Node000015_Node000004"><a xlink:title=" ">
<path fill="none" stroke="#63b8ff" d="M402.5,-169.84C402.5,-163.22 402.5,-154.22 402.5,-146.02"/>
<polygon fill="#63b8ff" stroke="#63b8ff" points="406,-146.09 402.5,-136.09 399,-146.09 406,-146.09"/>
</a>
</g>
</g>
<!-- Node15&#45;&gt;Node8 -->
<g id="edge38_Node000015_Node000008" class="edge">
<title>Node15&#45;&gt;Node8</title>
<g id="a_edge38_Node000015_Node000008"><a xlink:title=" ">
<path fill="none" stroke="#63b8ff" d="M432,-169.84C458.55,-161.03 497.8,-148 527.23,-138.24"/>
<polygon fill="#63b8ff" stroke="#63b8ff" points="528.15,-141.62 536.54,-135.15 525.95,-134.97 528.15,-141.62"/>
</a>
</g>
</g>
<!-- Node16 -->
<g id="Node000016" class="node">
<title>Node16</title>
<g id="a_Node000016"><a xlink:title=" ">
<polygon fill="#e0e0e0" stroke="#999999" points="307.5,-134.25 225.5,-134.25 225.5,-113.5 307.5,-113.5 307.5,-134.25"/>
<text xml:space="preserve" text-anchor="middle" x="266.5" y="-120.75" font-family="Helvetica,sans-Serif" font-size="10.00">AIController.h</text>
</a>
</g>
</g>
<!-- Node15&#45;&gt;Node16 -->
<g id="edge30_Node000015_Node000016" class="edge">
<title>Node15&#45;&gt;Node16</title>
<g id="a_edge30_Node000015_Node000016"><a xlink:title=" ">
<path fill="none" stroke="#63b8ff" d="M378.19,-169.84C356.72,-161.19 325.18,-148.5 301.09,-138.8"/>
<polygon fill="#63b8ff" stroke="#63b8ff" points="302.59,-135.63 292.01,-135.14 299.98,-142.13 302.59,-135.63"/>
</a>
</g>
</g>
<!-- Node17 -->
<g id="Node000017" class="node">
<title>Node17</title>
<g id="a_Node000017"><a xlink:href="TactixArena_8h.html" target="_top" xlink:title="Bump (linear) allocator for short&#45;lived scratch memory.">
<polygon fill="white" stroke="#666666" points="361,-77.5 222,-77.5 222,-56.75 361,-56.75 361,-77.5"/>
<text xml:space="preserve" text-anchor="middle" x="291.5" y="-64" font-family="Helvetica,sans-Serif" font-size="10.00">Foundation/TactixArena.h</text>
</a>
</g>
</g>
<!-- Node15&#45;&gt;Node17 -->
<g id="edge31_Node000015_Node000017" class="edge">
<title>Node15&#45;&gt;Node17</title>
<g id="a_edge31_Node000015_Node000017"><a xlink:title=" ">
<path fill="none" stroke="#63b8ff" d="M321.12,-169.78C277.42,-162.63 229.82,-151.21 216.5,-134.25 200.55,-113.94 228.46,-94.91 254.64,-82.52"/>
<polygon fill="#63b8ff" stroke="#63b8ff" points="255.79,-85.85 263.49,-78.57 252.93,-79.46 255.79,-85.85"/>
</a>
</g>
</g>
<!-- Node21 -->
<g id="Node000021" class="node">
<title>Node21</title>
<g id="a_Node000021"><a xlink:title=" ">
<polygon fill="#e0e0e0" stroke="#999999" points="169,-134.25 0,-134.25 0,-113.5 169,-113.5 169,-134.25"/>
<text xml:space="preserve" text-anchor="middle" x="84.5" y="-120.75" font-family="Helvetica,sans-Serif" font-size="10.00">ATactixAIController.generated.h</text>
</a>
</g>
</g>
<!-- Node15&#45;&gt;Node21 -->
<g id="edge39_Node000015_Node000021" class="edge">
<title>Node15&#45;&gt;Node21</title>
<g id="a_edge39_Node000015_Node000021"><a xlink:title=" ">
<path fill="none" stroke="#63b8ff" d="M345.28,-169.77C291.3,-160.48 210.32,-146.54 152.94,-136.66"/>
<polygon fill="#63b8ff" stroke="#63b8ff" points="153.74,-133.24 143.29,-135 152.55,-140.14 153.74,-133.24"/>
</a>
</g>
</g>
<!-- Node17&#45;&gt;Node5 -->
<g id="edge32_Node000017_Node000005" class="edge">
<title>Node17&#45;&gt;Node5</title>
<g id="a_edge32_Node000017_Node000005"><a xlink:title=" ">
<path fill="none" stroke="#63b8ff" d="M361.48,-58.52C440.12,-49.86 571.56,-35.05 684.5,-20.75 691.56,-19.86 699.03,-18.87 706.33,-17.88"/>
<polygon fill="#63b8ff" stroke="#63b8ff" points="706.64,-21.37 716.08,-16.55 705.69,-14.43 706.64,-21.37"/>
</a>
</g>
</g>
<!-- Node17&#45;&gt;Node7 -->
<g id="edge34_Node000017_Node000007" class="edge">
<title>Node17&#45;&gt;Node7</title>
<g id="a_edge34_Node000017_Node000007"><a xlink:title=" ">
<path fill="none" stroke="#63b8ff" d="M356.1,-56.27C431.61,-44.76 553.93,-26.1 614.35,-16.89"/>
<polygon fill="#63b8ff" stroke="#63b8ff" points="614.72,-20.37 624.08,-15.4 613.67,-13.45 614.72,-20.37"/>
</a>
</g>
</g>
<!-- Node18 -->
<g id="Node000018" class="node">
<title>Node18</title>
<g id="a_Node000018"><a xlink:title=" ">
<polygon fill="#e0e0e0" stroke="#999999" points="255.5,-20.75 203.5,-20.75 203.5,0 255.5,0 255.5,-20.75"/>
<text xml:space="preserve" text-anchor="middle" x="229.5" y="-7.25" font-family="Helvetica,sans-Serif" font-size="10.00">cstddef</text>
</a>
</g>
</g>
<!-- Node17&#45;&gt;Node18 -->
<g id="edge33_Node000017_Node000018" class="edge">
<title>Node17&#45;&gt;Node18</title>
<g id="a_edge33_Node000017_Node000018"><a xlink:title=" ">
<path fill="none" stroke="#63b8ff" d="M280.42,-56.34C271.69,-48.63 259.31,-37.7 248.94,-28.54"/>
<polygon fill="#63b8ff" stroke="#63b8ff" points="251.44,-26.08 241.62,-22.08 246.8,-31.32 251.44,-26.08"/>
</a>
</g>
</g>
<!-- Node19 -->
<g id="Node000019" class="node">
<title>Node19</title>
<g id="a_Node000019"><a xlink:title=" ">
<polygon fill="#e0e0e0" stroke="#999999" points="309.62,-20.75 273.38,-20.75 273.38,0 309.62,0 309.62,-20.75"/>
<text xml:space="preserve" text-anchor="middle" x="291.5" y="-7.25" font-family="Helvetica,sans-Serif" font-size="10.00">new</text>
</a>
</g>
</g>
<!-- Node17&#45;&gt;Node19 -->
<g id="edge35_Node000017_Node000019" class="edge">
<title>Node17&#45;&gt;Node19</title>
<g id="a_edge35_Node000017_Node000019"><a xlink:title=" ">
<path fill="none" stroke="#63b8ff" d="M291.5,-56.34C291.5,-49.72 291.5,-40.72 291.5,-32.52"/>
<polygon fill="#63b8ff" stroke="#63b8ff" points="295,-32.59 291.5,-22.59 288,-32.59 295,-32.59"/>
</a>
</g>
</g>
<!-- Node20 -->
<g id="Node000020" class="node">
<title>Node20</title>
<g id="a_Node000020"><a xlink:title=" ">
<polygon fill="#e0e0e0" stroke="#999999" points="371.75,-20.75 327.25,-20.75 327.25,0 371.75,0 371.75,-20.75"/>
<text xml:space="preserve" text-anchor="middle" x="349.5" y="-7.25" font-family="Helvetica,sans-Serif" font-size="10.00">utility</text>
</a>
</g>
</g>
<!-- Node17&#45;&gt;Node20 -->
<g id="edge36_Node000017_Node000020" class="edge">
<title>Node17&#45;&gt;Node20</title>
<g id="a_edge36_Node000017_Node000020"><a xlink:title=" ">
<path fill="none" stroke="#63b8ff" d="M301.87,-56.34C309.95,-48.71 321.38,-37.92 331.02,-28.82"/>
<polygon fill="#63b8ff" stroke="#63b8ff" points="333.25,-31.53 338.12,-22.12 328.45,-26.44 333.25,-31.53"/>
</a>
</g>
</g>
<!-- Node22&#45;&gt;Node3 -->
<g id="edge41_Node000022_Node000003" class="edge">
<title>Node22&#45;&gt;Node3</title>
<g id="a_edge41_Node000022_Node000003"><a xlink:title=" ">
<path fill="none" stroke="#63b8ff" d="M777.76,-226.53C757.82,-219.62 734.59,-208.43 719.5,-191 708.57,-178.38 703.61,-159.93 701.37,-145.72"/>
<polygon fill="#63b8ff" stroke="#63b8ff" points="704.88,-145.59 700.19,-136.08 697.93,-146.44 704.88,-145.59"/>
</a>
</g>
</g>
<!-- Node22&#45;&gt;Node9 -->
<g id="edge44_Node000022_Node000009" class="edge">
<title>Node22&#45;&gt;Node9</title>
<g id="a_edge44_Node000022_Node000009"><a xlink:title=" ">
<path fill="none" stroke="#63b8ff" d="M814.71,-226.59C813.49,-219.89 811.82,-210.76 810.31,-202.48"/>
<polygon fill="#63b8ff" stroke="#63b8ff" points="813.78,-202.03 808.54,-192.82 806.9,-203.28 813.78,-202.03"/>
</a>
</g>
</g>
<!-- Node22&#45;&gt;Node13 -->
<g id="edge43_Node000022_Node000013" class="edge">
<title>Node22&#45;&gt;Node13</title>
<g id="a_edge43_Node000022_Node000013"><a xlink:title=" ">
<path fill="none" stroke="#63b8ff" d="M846.36,-226.52C863.24,-219.36 883.18,-207.93 894.5,-191 903.38,-177.73 905.31,-159.58 905.19,-145.66"/>
<polygon fill="#63b8ff" stroke="#63b8ff" points="908.7,-145.65 904.73,-135.83 901.7,-145.98 908.7,-145.65"/>
</a>
</g>
</g>
<!-- Node23 -->
<g id="Node000023" class="node">
<title>Node23</title>
<g id="a_Node000023"><a xlink:title=" ">
<polygon fill="#e0e0e0" stroke="#999999" points="1113.12,-191 941.88,-191 941.88,-170.25 1113.12,-170.25 1113.12,-191"/>
<text xml:space="preserve" text-anchor="middle" x="1027.5" y="-177.5" font-family="Helvetica,sans-Serif" font-size="10.00">Components/ActorComponent.h</text>
</a>
</g>
</g>
<!-- Node22&#45;&gt;Node23 -->
<g id="edge42_Node000022_Node000023" class="edge">
<title>Node22&#45;&gt;Node23</title>
<g id="a_edge42_Node000022_Node000023"><a xlink:title=" ">
<path fill="none" stroke="#63b8ff" d="M854.22,-226.59C889.07,-217.54 941.03,-204.06 978.96,-194.22"/>
<polygon fill="#63b8ff" stroke="#63b8ff" points="979.48,-197.7 988.28,-191.8 977.73,-190.92 979.48,-197.7"/>
</a>
</g>
</g>
<!-- Node24 -->
<g id="Node000024" class="node">
<title>Node24</title>
<g id="a_Node000024"><a xlink:title=" ">
<polygon fill="#e0e0e0" stroke="#999999" points="1329.62,-191 1131.38,-191 1131.38,-170.25 1329.62,-170.25 1329.62,-191"/>
<text xml:space="preserve" text-anchor="middle" x="1230.5" y="-177.5" font-family="Helvetica,sans-Serif" font-size="10.00">UTactixAgentComponent.generated.h</text>
</a>
</g>
</g>
<!-- Node22&#45;&gt;Node24 -->
<g id="edge45_Node000022_Node000024" class="edge">
<title>Node22&#45;&gt;Node24</title>
<g id="a_edge45_Node000022_Node000024"><a xlink:title=" ">
<path fill="none" stroke="#63b8ff" d="M890.99,-226.52C962.29,-217.09 1069.78,-202.88 1144.65,-192.98"/>
<polygon fill="#63b8ff" stroke="#63b8ff" points="1144.95,-196.47 1154.41,-191.69 1144.03,-189.53 1144.95,-196.47"/>
</a>
</g>
</g>
</g>
</svg>
