<?xml version="1.0" encoding="UTF-8" standalone="no"?>
<!DOCTYPE svg PUBLIC "-//W3C//DTD SVG 1.1//EN"
 "http://www.w3.org/Graphics/SVG/1.1/DTD/svg11.dtd">
<!-- Generated by graphviz version 14.1.5 (0)
 -->
<!-- Title: Source/TactixCore/Public/Agent/FTactixAgentContext.h Pages: 1 -->
<svg width="1963pt" height="193pt"
 viewBox="0.00 0.00 1963.00 193.00" xmlns="http://www.w3.org/2000/svg" xmlns:xlink="http://www.w3.org/1999/xlink">
<g id="graph0" class="graph" transform="scale(1 1) rotate(0) translate(4 189.25)">
<title>Source/TactixCore/Public/Agent/FTactixAgentContext.h</title>
<!-- Node1 -->
<g id="Node000001" class="node">
<title>Node1</title>
<g id="a_Node000001"><a xlink:title="Read&#45;only, side&#45;effect&#45;free snapshot of one agent for a single decision.">
<polygon fill="#999999" stroke="#666666" points="957.5,-185.25 797.5,-185.25 797.5,-151.75 957.5,-151.75 957.5,-185.25"/>
<text xml:space="preserve" text-anchor="start" x="805.5" y="-171.75" font-family="Helvetica,sans-Serif" font-size="10.00">Source/TactixCore/Public</text>
<text xml:space="preserve" text-anchor="middle" x="877.5" y="-159" font-family="Helvetica,sans-Serif" font-size="10.00">/Agent/FTactixAgentContext.h</text>
</a>
</g>
</g>
<!-- Node2 -->
<g id="Node000002" class="node">
<title>Node2</title>
<g id="a_Node000002"><a xlink:href="FTactixVisualDebugger_8h.html" target="_top" xlink:title="Static helpers that draw per&#45;agent debug overlays in the world.">
<polygon fill="white" stroke="#666666" points="465.75,-115.75 295.25,-115.75 295.25,-82.25 465.75,-82.25 465.75,-115.75"/>
<text xml:space="preserve" text-anchor="start" x="303.25" y="-102.25" font-family="Helvetica,sans-Serif" font-size="10.00">Source/TactixDebug</text>
<text xml:space="preserve" text-anchor="middle" x="380.5" y="-89.5" font-family="Helvetica,sans-Serif" font-size="10.00">/Public/FTactixVisualDebugger.h</text>
</a>
</g>
</g>
<!-- Node1&#45;&gt;Node2 -->
<g id="edge1_Node000001_Node000002" class="edge">
<title>Node1&#45;&gt;Node2</title>
<g id="a_edge1_Node000001_Node000002"><a xlink:title=" ">
<path fill="none" stroke="#63b8ff" d="M785.93,-155.06C694.6,-142.66 555.41,-123.76 466.21,-111.64"/>
<polygon fill="#63b8ff" stroke="#63b8ff" points="785.22,-158.5 795.6,-156.38 786.16,-151.56 785.22,-158.5"/>
</a>
</g>
</g>
<!-- Node4 -->
<g id="Node000004" class="node">
<title>Node4</title>
<g id="a_Node000004"><a xlink:href="UTactixAgentComponent_8h.html" target="_top" xlink:title="The component that makes a pawn a Tactix agent.">
<polygon fill="white" stroke="#666666" points="984.12,-115.75 770.88,-115.75 770.88,-82.25 984.12,-82.25 984.12,-115.75"/>
<text xml:space="preserve" text-anchor="start" x="778.88" y="-102.25" font-family="Helvetica,sans-Serif" font-size="10.00">Source/TactixUE/Public</text>
<text xml:space="preserve" text-anchor="middle" x="877.5" y="-89.5" font-family="Helvetica,sans-Serif" font-size="10.00">/Components/UTactixAgentComponent.h</text>
</a>
</g>
</g>
<!-- Node1&#45;&gt;Node4 -->
<g id="edge3_Node000001_Node000004" class="edge">
<title>Node1&#45;&gt;Node4</title>
<g id="a_edge3_Node000001_Node000004"><a xlink:title=" ">
<path fill="none" stroke="#63b8ff" d="M877.5,-140.06C877.5,-131.84 877.5,-123.09 877.5,-115.88"/>
<polygon fill="#63b8ff" stroke="#63b8ff" points="874,-139.99 877.5,-149.99 881,-139.99 874,-139.99"/>
</a>
</g>
</g>
<!-- Node13 -->
<g id="Node000013" class="node">
<title>Node13</title>
<g id="a_Node000013"><a xlink:href="UTactixUtilityAsset_8h.html" target="_top" xlink:title="Designer&#45;facing asset: a named set of scored actions for one decision context.">
<polygon fill="white" stroke="#666666" points="1757.25,-115.75 1577.75,-115.75 1577.75,-82.25 1757.25,-82.25 1757.25,-115.75"/>
<text xml:space="preserve" text-anchor="start" x="1585.75" y="-102.25" font-family="Helvetica,sans-Serif" font-size="10.00">Source/TactixUE/Public</text>
<text xml:space="preserve" text-anchor="middle" x="1667.5" y="-89.5" font-family="Helvetica,sans-Serif" font-size="10.00">/DataAssets/UTactixUtilityAsset.h</text>
</a>
</g>
</g>
<!-- Node1&#45;&gt;Node13 -->
<g id="edge13_Node000001_Node000013" class="edge">
<title>Node1&#45;&gt;Node13</title>
<g id="a_edge13_Node000001_Node000013"><a xlink:title=" ">
<path fill="none" stroke="#63b8ff" d="M969.12,-159.67C1121.65,-146.64 1425.79,-120.65 1577.34,-107.7"/>
<polygon fill="#63b8ff" stroke="#63b8ff" points="969.14,-156.16 959.47,-160.5 969.73,-163.13 969.14,-156.16"/>
</a>
</g>
</g>
<!-- Node3 -->
<g id="Node000003" class="node">
<title>Node3</title>
<g id="a_Node000003"><a xlink:href="FTactixVisualDebugger_8cpp.html" target="_top" xlink:title="Implements the agent debug overlays with debug&#45;draw primitives.">
<polygon fill="white" stroke="#666666" points="187,-39.88 0,-39.88 0,-6.38 187,-6.38 187,-39.88"/>
<text xml:space="preserve" text-anchor="start" x="8" y="-26.38" font-family="Helvetica,sans-Serif" font-size="10.00">Source/TactixDebug</text>
<text xml:space="preserve" text-anchor="middle" x="93.5" y="-13.62" font-family="Helvetica,sans-Serif" font-size="10.00">/Private/FTactixVisualDebugger.cpp</text>
</a>
</g>
</g>
<!-- Node2&#45;&gt;Node3 -->
<g id="edge2_Node000002_Node000003" class="edge">
<title>Node2&#45;&gt;Node3</title>
<g id="a_edge2_Node000002_Node000003"><a xlink:title=" ">
<path fill="none" stroke="#63b8ff" d="M306.58,-78.97C260.04,-66.99 200.6,-51.69 156.34,-40.3"/>
<polygon fill="#63b8ff" stroke="#63b8ff" points="305.49,-82.31 316.05,-81.41 307.24,-75.53 305.49,-82.31"/>
</a>
</g>
</g>
<!-- Node4&#45;&gt;Node3 -->
<g id="edge5_Node000004_Node000003" class="edge">
<title>Node4&#45;&gt;Node3</title>
<g id="a_edge5_Node000004_Node000003"><a xlink:title=" ">
<path fill="none" stroke="#63b8ff" d="M759.11,-93.97C622.65,-88.18 391.94,-74.87 195.5,-46.25 184.65,-44.67 173.23,-42.6 162.12,-40.36"/>
<polygon fill="#63b8ff" stroke="#63b8ff" points="758.74,-97.46 768.88,-94.38 759.03,-90.46 758.74,-97.46"/>
</a>
</g>
</g>
<!-- Node5 -->
<g id="Node000005" class="node">
<title>Node5</title>
<g id="a_Node000005"><a xlink:href="FTactixGameplayDebuggerCategory_8cpp.html" target="_top" xlink:title="Implements the Gameplay Debugger category: collect agent state, then render it as text lines.">
<polygon fill="white" stroke="#666666" points="392.38,-46.25 204.62,-46.25 204.62,0 392.38,0 392.38,-46.25"/>
<text xml:space="preserve" text-anchor="start" x="212.62" y="-32.75" font-family="Helvetica,sans-Serif" font-size="10.00">Source/TactixDebug</text>
<text xml:space="preserve" text-anchor="start" x="212.62" y="-20" font-family="Helvetica,sans-Serif" font-size="10.00">/Private/FTactixGameplayDebugger</text>
<text xml:space="preserve" text-anchor="middle" x="298.5" y="-7.25" font-family="Helvetica,sans-Serif" font-size="10.00">Category.cpp</text>
</a>
</g>
</g>
<!-- Node4&#45;&gt;Node5 -->
<g id="edge4_Node000004_Node000005" class="edge">
<title>Node4&#45;&gt;Node5</title>
<g id="a_edge4_Node000004_Node000005"><a xlink:title=" ">
<path fill="none" stroke="#63b8ff" d="M759.47,-88.58C662.87,-80.06 522.87,-65.83 401.5,-46.25 398.61,-45.78 395.68,-45.29 392.73,-44.77"/>
<polygon fill="#63b8ff" stroke="#63b8ff" points="758.96,-92.05 769.23,-89.44 759.57,-85.08 758.96,-92.05"/>
</a>
</g>
</g>
<!-- Node6 -->
<g id="Node000006" class="node">
<title>Node6</title>
<g id="a_Node000006"><a xlink:href="UTactixBTDecorator__InCover_8cpp.html" target="_top" xlink:title="Implements the in&#45;cover decorator condition.">
<polygon fill="white" stroke="#666666" points="592.75,-46.25 410.25,-46.25 410.25,0 592.75,0 592.75,-46.25"/>
<text xml:space="preserve" text-anchor="start" x="418.25" y="-32.75" font-family="Helvetica,sans-Serif" font-size="10.00">Source/TactixUE/Private</text>
<text xml:space="preserve" text-anchor="start" x="418.25" y="-20" font-family="Helvetica,sans-Serif" font-size="10.00">/BehaviorTree/UTactixBTDecorator</text>
<text xml:space="preserve" text-anchor="middle" x="501.5" y="-7.25" font-family="Helvetica,sans-Serif" font-size="10.00">_InCover.cpp</text>
</a>
</g>
</g>
<!-- Node4&#45;&gt;Node6 -->
<g id="edge6_Node000004_Node000006" class="edge">
<title>Node4&#45;&gt;Node6</title>
<g id="a_edge6_Node000004_Node000006"><a xlink:title=" ">
<path fill="none" stroke="#63b8ff" d="M776.33,-79.7C724.31,-70.11 659.93,-57.94 602.5,-46.25 599.42,-45.62 596.29,-44.98 593.13,-44.32"/>
<polygon fill="#63b8ff" stroke="#63b8ff" points="775.62,-83.13 786.09,-81.5 776.89,-76.25 775.62,-83.13"/>
</a>
</g>
</g>
<!-- Node7 -->
<g id="Node000007" class="node">
<title>Node7</title>
<g id="a_Node000007"><a xlink:href="UTactixBTService__InfluenceQuery_8cpp.html" target="_top" xlink:title="Implements the influence&#45;sampling BT service.">
<polygon fill="white" stroke="#666666" points="781.75,-46.25 611.25,-46.25 611.25,0 781.75,0 781.75,-46.25"/>
<text xml:space="preserve" text-anchor="start" x="619.25" y="-32.75" font-family="Helvetica,sans-Serif" font-size="10.00">Source/TactixUE/Private</text>
<text xml:space="preserve" text-anchor="start" x="619.25" y="-20" font-family="Helvetica,sans-Serif" font-size="10.00">/BehaviorTree/UTactixBTService</text>
<text xml:space="preserve" text-anchor="middle" x="696.5" y="-7.25" font-family="Helvetica,sans-Serif" font-size="10.00">_InfluenceQuery.cpp</text>
</a>
</g>
</g>
<!-- Node4&#45;&gt;Node7 -->
<g id="edge7_Node000004_Node000007" class="edge">
<title>Node4&#45;&gt;Node7</title>
<g id="a_edge7_Node000004_Node000007"><a xlink:title=" ">
<path fill="none" stroke="#63b8ff" d="M827.36,-77.54C803.94,-67.98 775.97,-56.56 751.92,-46.74"/>
<polygon fill="#63b8ff" stroke="#63b8ff" points="825.8,-80.68 836.38,-81.22 828.44,-74.2 825.8,-80.68"/>
</a>
</g>
</g>
<!-- Node8 -->
<g id="Node000008" class="node">
<title>Node8</title>
<g id="a_Node000008"><a xlink:href="UTactixBTTask__ClaimCover_8cpp.html" target="_top" xlink:title="Implements the cover query/claim BT task: build the query from agent and blackboard state,...">
<polygon fill="white" stroke="#666666" points="955.62,-46.25 799.38,-46.25 799.38,0 955.62,0 955.62,-46.25"/>
<text xml:space="preserve" text-anchor="start" x="807.38" y="-32.75" font-family="Helvetica,sans-Serif" font-size="10.00">Source/TactixUE/Private</text>
<text xml:space="preserve" text-anchor="start" x="807.38" y="-20" font-family="Helvetica,sans-Serif" font-size="10.00">/BehaviorTree/UTactixBTTask</text>
<text xml:space="preserve" text-anchor="middle" x="877.5" y="-7.25" font-family="Helvetica,sans-Serif" font-size="10.00">_ClaimCover.cpp</text>
</a>
</g>
</g>
<!-- Node4&#45;&gt;Node8 -->
<g id="edge8_Node000004_Node000008" class="edge">
<title>Node4&#45;&gt;Node8</title>
<g id="a_edge8_Node000004_Node000008"><a xlink:title=" ">
<path fill="none" stroke="#63b8ff" d="M877.5,-70.64C877.5,-62.71 877.5,-54.16 877.5,-46.57"/>
<polygon fill="#63b8ff" stroke="#63b8ff" points="874,-70.46 877.5,-80.46 881,-70.46 874,-70.46"/>
</a>
</g>
</g>
<!-- Node9 -->
<g id="Node000009" class="node">
<title>Node9</title>
<g id="a_Node000009"><a xlink:href="UTactixBTTask__ExecutePlan_8cpp.html" target="_top" xlink:title="Implements step&#45;by&#45;step plan execution for the BT task.">
<polygon fill="white" stroke="#666666" points="1129.62,-46.25 973.38,-46.25 973.38,0 1129.62,0 1129.62,-46.25"/>
<text xml:space="preserve" text-anchor="start" x="981.38" y="-32.75" font-family="Helvetica,sans-Serif" font-size="10.00">Source/TactixUE/Private</text>
<text xml:space="preserve" text-anchor="start" x="981.38" y="-20" font-family="Helvetica,sans-Serif" font-size="10.00">/BehaviorTree/UTactixBTTask</text>
<text xml:space="preserve" text-anchor="middle" x="1051.5" y="-7.25" font-family="Helvetica,sans-Serif" font-size="10.00">_ExecutePlan.cpp</text>
</a>
</g>
</g>
<!-- Node4&#45;&gt;Node9 -->
<g id="edge9_Node000004_Node000009" class="edge">
<title>Node4&#45;&gt;Node9</title>
<g id="a_edge9_Node000004_Node000009"><a xlink:title=" ">
<path fill="none" stroke="#63b8ff" d="M926,-77.41C948.46,-67.87 975.21,-56.52 998.22,-46.74"/>
<polygon fill="#63b8ff" stroke="#63b8ff" points="924.92,-74.07 917.08,-81.2 927.65,-80.51 924.92,-74.07"/>
</a>
</g>
</g>
<!-- Node10 -->
<g id="Node000010" class="node">
<title>Node10</title>
<g id="a_Node000010"><a xlink:href="UTactixBTTask__RunUtility_8cpp.html" target="_top" xlink:title="Implements the utility&#45;selection BT task: snapshot the agent, pick the best action,...">
<polygon fill="white" stroke="#666666" points="1745.62,-46.25 1589.38,-46.25 1589.38,0 1745.62,0 1745.62,-46.25"/>
<text xml:space="preserve" text-anchor="start" x="1597.38" y="-32.75" font-family="Helvetica,sans-Serif" font-size="10.00">Source/TactixUE/Private</text>
<text xml:space="preserve" text-anchor="start" x="1597.38" y="-20" font-family="Helvetica,sans-Serif" font-size="10.00">/BehaviorTree/UTactixBTTask</text>
<text xml:space="preserve" text-anchor="middle" x="1667.5" y="-7.25" font-family="Helvetica,sans-Serif" font-size="10.00">_RunUtility.cpp</text>
</a>
</g>
</g>
<!-- Node4&#45;&gt;Node10 -->
<g id="edge10_Node000004_Node000010" class="edge">
<title>Node4&#45;&gt;Node10</title>
<g id="a_edge10_Node000004_Node000010"><a xlink:title=" ">
<path fill="none" stroke="#63b8ff" d="M995.65,-95.62C1135.94,-91.35 1376.6,-79.42 1580.5,-46.25 1583.27,-45.8 1586.08,-45.3 1588.91,-44.77"/>
<polygon fill="#63b8ff" stroke="#63b8ff" points="995.88,-92.11 985.99,-95.91 996.09,-99.11 995.88,-92.11"/>
</a>
</g>
</g>
<!-- Node11 -->
<g id="Node000011" class="node">
<title>Node11</title>
<g id="a_Node000011"><a xlink:href="UTactixAgentComponent_8cpp.html" target="_top" xlink:title="Implements the pawn&#45;to&#45;agent adapter: snapshotting UE state into a Tactix::FTactixAgentContext.">
<polygon fill="white" stroke="#666666" points="1371.75,-39.88 1147.25,-39.88 1147.25,-6.38 1371.75,-6.38 1371.75,-39.88"/>
<text xml:space="preserve" text-anchor="start" x="1155.25" y="-26.38" font-family="Helvetica,sans-Serif" font-size="10.00">Source/TactixUE/Private</text>
<text xml:space="preserve" text-anchor="middle" x="1259.5" y="-13.62" font-family="Helvetica,sans-Serif" font-size="10.00">/Components/UTactixAgentComponent.cpp</text>
</a>
</g>
</g>
<!-- Node4&#45;&gt;Node11 -->
<g id="edge11_Node000004_Node000011" class="edge">
<title>Node4&#45;&gt;Node11</title>
<g id="a_edge11_Node000004_Node000011"><a xlink:title=" ">
<path fill="none" stroke="#63b8ff" d="M972.35,-79.66C1034.69,-67.6 1115.52,-51.97 1175.53,-40.36"/>
<polygon fill="#63b8ff" stroke="#63b8ff" points="971.97,-76.17 962.82,-81.5 973.3,-83.04 971.97,-76.17"/>
</a>
</g>
</g>
<!-- Node12 -->
<g id="Node000012" class="node">
<title>Node12</title>
<g id="a_Node000012"><a xlink:href="ATactixAIController_8cpp.html" target="_top" xlink:title="Implements the Tactix AIController: scratch arena ownership, handle assignment on possess,...">
<polygon fill="white" stroke="#666666" points="1571.38,-39.88 1389.62,-39.88 1389.62,-6.38 1571.38,-6.38 1571.38,-39.88"/>
<text xml:space="preserve" text-anchor="start" x="1397.62" y="-26.38" font-family="Helvetica,sans-Serif" font-size="10.00">Source/TactixUE/Private</text>
<text xml:space="preserve" text-anchor="middle" x="1480.5" y="-13.62" font-family="Helvetica,sans-Serif" font-size="10.00">/Controller/ATactixAIController.cpp</text>
</a>
</g>
</g>
<!-- Node4&#45;&gt;Node12 -->
<g id="edge12_Node000004_Node000012" class="edge">
<title>Node4&#45;&gt;Node12</title>
<g id="a_edge12_Node000004_Node000012"><a xlink:title=" ">
<path fill="none" stroke="#63b8ff" d="M995.72,-89.71C1097.98,-81.61 1249.56,-67.4 1380.5,-46.25 1390.77,-44.59 1401.57,-42.54 1412.11,-40.35"/>
<polygon fill="#63b8ff" stroke="#63b8ff" points="995.64,-86.2 985.94,-90.47 996.19,-93.18 995.64,-86.2"/>
</a>
</g>
</g>
<!-- Node13&#45;&gt;Node10 -->
<g id="edge14_Node000013_Node000010" class="edge">
<title>Node13&#45;&gt;Node10</title>
<g id="a_edge14_Node000013_Node000010"><a xlink:title=" ">
<path fill="none" stroke="#63b8ff" d="M1667.5,-70.64C1667.5,-62.71 1667.5,-54.16 1667.5,-46.57"/>
<polygon fill="#63b8ff" stroke="#63b8ff" points="1664,-70.46 1667.5,-80.46 1671,-70.46 1664,-70.46"/>
</a>
</g>
</g>
<!-- Node14 -->
<g id="Node000014" class="node">
<title>Node14</title>
<g id="a_Node000014"><a xlink:href="UTactixUtilityAsset_8cpp.html" target="_top" xlink:title="Implements utility scoring: input extraction, curve building, and the Lewis&#45;compensated action score.">
<polygon fill="white" stroke="#666666" points="1954.88,-39.88 1764.12,-39.88 1764.12,-6.38 1954.88,-6.38 1954.88,-39.88"/>
<text xml:space="preserve" text-anchor="start" x="1772.12" y="-26.38" font-family="Helvetica,sans-Serif" font-size="10.00">Source/TactixUE/Private</text>
<text xml:space="preserve" text-anchor="middle" x="1859.5" y="-13.62" font-family="Helvetica,sans-Serif" font-size="10.00">/DataAssets/UTactixUtilityAsset.cpp</text>
</a>
</g>
</g>
<!-- Node13&#45;&gt;Node14 -->
<g id="edge15_Node000013_Node000014" class="edge">
<title>Node13&#45;&gt;Node14</title>
<g id="a_edge15_Node000013_Node000014"><a xlink:title=" ">
<path fill="none" stroke="#63b8ff" d="M1720.13,-77.75C1750.76,-65.96 1788.85,-51.31 1817.46,-40.3"/>
<polygon fill="#63b8ff" stroke="#63b8ff" points="1719.12,-74.39 1711.05,-81.24 1721.64,-80.92 1719.12,-74.39"/>
</a>
</g>
</g>
</g>
</svg>
