<?xml version="1.0" encoding="UTF-8" standalone="no"?>
<!DOCTYPE svg PUBLIC "-//W3C//DTD SVG 1.1//EN"
 "http://www.w3.org/Graphics/SVG/1.1/DTD/svg11.dtd">
<!-- Generated by graphviz version 14.1.5 (0)
 -->
<!-- Title: Source/TactixDebug/Private/FTactixInfluenceRenderer.cpp Pages: 1 -->
<svg width="355pt" height="281pt"
 viewBox="0.00 0.00 355.00 281.00" xmlns="http://www.w3.org/2000/svg" xmlns:xlink="http://www.w3.org/1999/xlink">
<g id="graph0" class="graph" transform="scale(1 1) rotate(0) translate(4 277.25)">
<title>Source/TactixDebug/Private/FTactixInfluenceRenderer.cpp</title>
<!-- Node1 -->
<g id="Node000001" class="node">
<title>Node1</title>
<g id="a_Node000001"><a xlink:title="Implements the influence heat renderer with debug boxes.">
<polygon fill="#999999" stroke="#666666" points="280.75,-273.25 82.5,-273.25 82.5,-239.75 280.75,-239.75 280.75,-273.25"/>
<text xml:space="preserve" text-anchor="start" x="90.5" y="-259.75" font-family="Helvetica,sans-Serif" font-size="10.00">Source/TactixDebug</text>
<text xml:space="preserve" text-anchor="middle" x="181.62" y="-247" font-family="Helvetica,sans-Serif" font-size="10.00">/Private/FTactixInfluenceRenderer.cpp</text>
</a>
</g>
</g>
<!-- Node2 -->
<g id="Node000002" class="node">
<title>Node2</title>
<g id="a_Node000002"><a xlink:href="FTactixInfluenceRenderer_8h.html" target="_top" xlink:title="Draws an influence&#45;map channel as a world&#45;space heat grid.">
<polygon fill="white" stroke="#666666" points="179.88,-203.75 33.38,-203.75 33.38,-183 179.88,-183 179.88,-203.75"/>
<text xml:space="preserve" text-anchor="middle" x="106.62" y="-190.25" font-family="Helvetica,sans-Serif" font-size="10.00">FTactixInfluenceRenderer.h</text>
</a>
</g>
</g>
<!-- Node1&#45;&gt;Node2 -->
<g id="edge1_Node000001_Node000002" class="edge">
<title>Node1&#45;&gt;Node2</title>
<g id="a_edge1_Node000001_Node000002"><a xlink:title=" ">
<path fill="none" stroke="#63b8ff" d="M161.92,-239.44C151.31,-230.8 138.23,-220.13 127.46,-211.35"/>
<polygon fill="#63b8ff" stroke="#63b8ff" points="129.84,-208.78 119.87,-205.17 125.41,-214.2 129.84,-208.78"/>
</a>
</g>
</g>
<!-- Node10 -->
<g id="Node000010" class="node">
<title>Node10</title>
<g id="a_Node000010"><a xlink:title=" ">
<polygon fill="#e0e0e0" stroke="#999999" points="317.38,-203.75 197.88,-203.75 197.88,-183 317.38,-183 317.38,-203.75"/>
<text xml:space="preserve" text-anchor="middle" x="257.62" y="-190.25" font-family="Helvetica,sans-Serif" font-size="10.00">DrawDebugHelpers.h</text>
</a>
</g>
</g>
<!-- Node1&#45;&gt;Node10 -->
<g id="edge12_Node000001_Node000010" class="edge">
<title>Node1&#45;&gt;Node10</title>
<g id="a_edge12_Node000001_Node000010"><a xlink:title=" ">
<path fill="none" stroke="#63b8ff" d="M201.59,-239.44C212.34,-230.8 225.6,-220.13 236.52,-211.35"/>
<polygon fill="#63b8ff" stroke="#63b8ff" points="238.61,-214.16 244.21,-205.17 234.22,-208.71 238.61,-214.16"/>
</a>
</g>
</g>
<!-- Node3 -->
<g id="Node000003" class="node">
<title>Node3</title>
<g id="a_Node000003"><a xlink:title=" ">
<polygon fill="#e0e0e0" stroke="#999999" points="87.25,-140.62 0,-140.62 0,-119.88 87.25,-119.88 87.25,-140.62"/>
<text xml:space="preserve" text-anchor="middle" x="43.62" y="-127.12" font-family="Helvetica,sans-Serif" font-size="10.00">CoreMinimal.h</text>
</a>
</g>
</g>
<!-- Node2&#45;&gt;Node3 -->
<g id="edge2_Node000002_Node000003" class="edge">
<title>Node2&#45;&gt;Node3</title>
<g id="a_edge2_Node000002_Node000003"><a xlink:title=" ">
<path fill="none" stroke="#63b8ff" d="M96.5,-182.55C87.08,-173.41 72.82,-159.58 61.49,-148.58"/>
<polygon fill="#63b8ff" stroke="#63b8ff" points="64.21,-146.35 54.6,-141.9 59.34,-151.37 64.21,-146.35"/>
</a>
</g>
</g>
<!-- Node4 -->
<g id="Node000004" class="node">
<title>Node4</title>
<g id="a_Node000004"><a xlink:href="FTactixInfluenceMap_8h.html" target="_top" xlink:title="Multi&#45;channel 2D scalar field for spatial reasoning (danger, control, resource, .....">
<polygon fill="white" stroke="#666666" points="236,-147 105.25,-147 105.25,-113.5 236,-113.5 236,-147"/>
<text xml:space="preserve" text-anchor="start" x="113.25" y="-133.5" font-family="Helvetica,sans-Serif" font-size="10.00">Spatial/FTactixInfluence</text>
<text xml:space="preserve" text-anchor="middle" x="170.62" y="-120.75" font-family="Helvetica,sans-Serif" font-size="10.00">Map.h</text>
</a>
</g>
</g>
<!-- Node2&#45;&gt;Node4 -->
<g id="edge3_Node000002_Node000004" class="edge">
<title>Node2&#45;&gt;Node4</title>
<g id="a_edge3_Node000002_Node000004"><a xlink:title=" ">
<path fill="none" stroke="#63b8ff" d="M116.91,-182.55C124.64,-175.17 135.57,-164.73 145.55,-155.2"/>
<polygon fill="#63b8ff" stroke="#63b8ff" points="147.72,-157.97 152.53,-148.53 142.88,-152.91 147.72,-157.97"/>
</a>
</g>
</g>
<!-- Node5 -->
<g id="Node000005" class="node">
<title>Node5</title>
<g id="a_Node000005"><a xlink:href="TactixApi_8h.html" target="_top" xlink:title="Export macros, compiler attributes and version constants shared by every Tactix module.">
<polygon fill="white" stroke="#666666" points="100.25,-20.75 31,-20.75 31,0 100.25,0 100.25,-20.75"/>
<text xml:space="preserve" text-anchor="middle" x="65.62" y="-7.25" font-family="Helvetica,sans-Serif" font-size="10.00">TactixApi.h</text>
</a>
</g>
</g>
<!-- Node4&#45;&gt;Node5 -->
<g id="edge4_Node000004_Node000005" class="edge">
<title>Node4&#45;&gt;Node5</title>
<g id="a_edge4_Node000004_Node000005"><a xlink:title=" ">
<path fill="none" stroke="#63b8ff" d="M132.43,-113.13C116.3,-104.62 98.54,-92.75 86.62,-77.5 76.3,-64.28 71,-45.89 68.3,-31.85"/>
<polygon fill="#63b8ff" stroke="#63b8ff" points="71.82,-31.7 66.79,-22.38 64.91,-32.8 71.82,-31.7"/>
</a>
</g>
</g>
<!-- Node6 -->
<g id="Node000006" class="node">
<title>Node6</title>
<g id="a_Node000006"><a xlink:href="TactixMath_8h.html" target="_top" xlink:title="Small, engine&#45;agnostic vector and scalar math used across Tactix.">
<polygon fill="white" stroke="#666666" points="238.25,-77.5 103,-77.5 103,-56.75 238.25,-56.75 238.25,-77.5"/>
<text xml:space="preserve" text-anchor="middle" x="170.62" y="-64" font-family="Helvetica,sans-Serif" font-size="10.00">Foundation/TactixMath.h</text>
</a>
</g>
</g>
<!-- Node4&#45;&gt;Node6 -->
<g id="edge5_Node000004_Node000006" class="edge">
<title>Node4&#45;&gt;Node6</title>
<g id="a_edge5_Node000004_Node000006"><a xlink:title=" ">
<path fill="none" stroke="#63b8ff" d="M170.62,-113.19C170.62,-105.85 170.62,-97.07 170.62,-89.21"/>
<polygon fill="#63b8ff" stroke="#63b8ff" points="174.13,-89.48 170.63,-79.48 167.13,-89.48 174.13,-89.48"/>
</a>
</g>
</g>
<!-- Node7 -->
<g id="Node000007" class="node">
<title>Node7</title>
<g id="a_Node000007"><a xlink:title=" ">
<polygon fill="#e0e0e0" stroke="#999999" points="179,-20.75 132.25,-20.75 132.25,0 179,0 179,-20.75"/>
<text xml:space="preserve" text-anchor="middle" x="155.62" y="-7.25" font-family="Helvetica,sans-Serif" font-size="10.00">cmath</text>
</a>
</g>
</g>
<!-- Node4&#45;&gt;Node7 -->
<g id="edge9_Node000004_Node000007" class="edge">
<title>Node4&#45;&gt;Node7</title>
<g id="a_edge9_Node000004_Node000007"><a xlink:title=" ">
<path fill="none" stroke="#63b8ff" d="M132.19,-113.21C117.34,-104.89 101.96,-93.14 93.62,-77.5 82.94,-57.45 104.03,-38.98 124.45,-26.69"/>
<polygon fill="#63b8ff" stroke="#63b8ff" points="125.95,-29.86 132.96,-21.91 122.52,-23.76 125.95,-29.86"/>
</a>
</g>
</g>
<!-- Node8 -->
<g id="Node000008" class="node">
<title>Node8</title>
<g id="a_Node000008"><a xlink:title=" ">
<polygon fill="#e0e0e0" stroke="#999999" points="268.12,-20.75 219.12,-20.75 219.12,0 268.12,0 268.12,-20.75"/>
<text xml:space="preserve" text-anchor="middle" x="243.62" y="-7.25" font-family="Helvetica,sans-Serif" font-size="10.00">cstdint</text>
</a>
</g>
</g>
<!-- Node4&#45;&gt;Node8 -->
<g id="edge11_Node000004_Node000008" class="edge">
<title>Node4&#45;&gt;Node8</title>
<g id="a_edge11_Node000004_Node000008"><a xlink:title=" ">
<path fill="none" stroke="#63b8ff" d="M209.06,-113.21C223.91,-104.89 239.29,-93.14 247.62,-77.5 255.07,-63.53 253.35,-45.46 250.17,-31.74"/>
<polygon fill="#63b8ff" stroke="#63b8ff" points="253.65,-31.18 247.6,-22.48 246.9,-33.05 253.65,-31.18"/>
</a>
</g>
</g>
<!-- Node9 -->
<g id="Node000009" class="node">
<title>Node9</title>
<g id="a_Node000009"><a xlink:title=" ">
<polygon fill="#e0e0e0" stroke="#999999" points="346.62,-77.5 294.62,-77.5 294.62,-56.75 346.62,-56.75 346.62,-77.5"/>
<text xml:space="preserve" text-anchor="middle" x="320.62" y="-64" font-family="Helvetica,sans-Serif" font-size="10.00">cstddef</text>
</a>
</g>
</g>
<!-- Node4&#45;&gt;Node9 -->
<g id="edge10_Node000004_Node000009" class="edge">
<title>Node4&#45;&gt;Node9</title>
<g id="a_edge10_Node000004_Node000009"><a xlink:title=" ">
<path fill="none" stroke="#63b8ff" d="M210.43,-113.03C234,-103.43 263.57,-91.38 286.14,-82.18"/>
<polygon fill="#63b8ff" stroke="#63b8ff" points="287.26,-85.5 295.2,-78.49 284.62,-79.02 287.26,-85.5"/>
</a>
</g>
</g>
<!-- Node6&#45;&gt;Node5 -->
<g id="edge6_Node000006_Node000005" class="edge">
<title>Node6&#45;&gt;Node5</title>
<g id="a_edge6_Node000006_Node000005"><a xlink:title=" ">
<path fill="none" stroke="#63b8ff" d="M151.85,-56.34C135.88,-48.01 112.67,-35.91 94.36,-26.36"/>
<polygon fill="#63b8ff" stroke="#63b8ff" points="96.06,-23.3 85.58,-21.78 92.83,-29.51 96.06,-23.3"/>
</a>
</g>
</g>
<!-- Node6&#45;&gt;Node7 -->
<g id="edge7_Node000006_Node000007" class="edge">
<title>Node6&#45;&gt;Node7</title>
<g id="a_edge7_Node000006_Node000007"><a xlink:title=" ">
<path fill="none" stroke="#63b8ff" d="M167.94,-56.34C166.09,-49.56 163.55,-40.3 161.26,-31.94"/>
<polygon fill="#63b8ff" stroke="#63b8ff" points="164.7,-31.26 158.68,-22.54 157.95,-33.11 164.7,-31.26"/>
</a>
</g>
</g>
<!-- Node6&#45;&gt;Node8 -->
<g id="edge8_Node000006_Node000008" class="edge">
<title>Node6&#45;&gt;Node8</title>
<g id="a_edge8_Node000006_Node000008"><a xlink:title=" ">
<path fill="none" stroke="#63b8ff" d="M183.68,-56.34C194.26,-48.4 209.42,-37.03 221.84,-27.71"/>
<polygon fill="#63b8ff" stroke="#63b8ff" points="223.58,-30.79 229.48,-21.99 219.38,-25.19 223.58,-30.79"/>
</a>
</g>
</g>
</g>
</svg>
