<?xml version="1.0" encoding="UTF-8" standalone="no"?>
<!DOCTYPE svg PUBLIC "-//W3C//DTD SVG 1.1//EN"
 "http://www.w3.org/Graphics/SVG/1.1/DTD/svg11.dtd">
<!-- Generated by graphviz version 14.1.5 (0)
 -->
<!-- Title: Source/TactixDebug/Private/FTactixDecisionRecorder.cpp Pages: 1 -->
<svg width="609pt" height="269pt"
 viewBox="0.00 0.00 609.00 269.00" xmlns="http://www.w3.org/2000/svg" xmlns:xlink="http://www.w3.org/1999/xlink">
<g id="graph0" class="graph" transform="scale(1 1) rotate(0) translate(4 264.5)">
<title>Source/TactixDebug/Private/FTactixDecisionRecorder.cpp</title>
<!-- Node1 -->
<g id="Node000001" class="node">
<title>Node1</title>
<g id="a_Node000001"><a xlink:title="Implements the decision ring buffer: recording, history/all queries, and the log dump.">
<polygon fill="#999999" stroke="#666666" points="450.88,-260.5 255.62,-260.5 255.62,-227 450.88,-227 450.88,-260.5"/>
<text xml:space="preserve" text-anchor="start" x="263.62" y="-247" font-family="Helvetica,sans-Serif" font-size="10.00">Source/TactixDebug</text>
<text xml:space="preserve" text-anchor="middle" x="353.25" y="-234.25" font-family="Helvetica,sans-Serif" font-size="10.00">/Private/FTactixDecisionRecorder.cpp</text>
</a>
</g>
</g>
<!-- Node2 -->
<g id="Node000002" class="node">
<title>Node2</title>
<g id="a_Node000002"><a xlink:href="FTactixDecisionRecorder_8h.html" target="_top" xlink:title="Ring buffer of recent AI decisions for replay scrubbing and post&#45;mortems (&quot;why did it do that?...">
<polygon fill="white" stroke="#666666" points="256,-191 112.5,-191 112.5,-170.25 256,-170.25 256,-191"/>
<text xml:space="preserve" text-anchor="middle" x="184.25" y="-177.5" font-family="Helvetica,sans-Serif" font-size="10.00">FTactixDecisionRecorder.h</text>
</a>
</g>
</g>
<!-- Node1&#45;&gt;Node2 -->
<g id="edge1_Node000001_Node000002" class="edge">
<title>Node1&#45;&gt;Node2</title>
<g id="a_edge1_Node000001_Node000002"><a xlink:title=" ">
<path fill="none" stroke="#63b8ff" d="M308.4,-226.53C281.49,-216.79 247.63,-204.55 222.07,-195.3"/>
<polygon fill="#63b8ff" stroke="#63b8ff" points="223.34,-192.04 212.74,-191.93 220.95,-198.62 223.34,-192.04"/>
</a>
</g>
</g>
<!-- Node8 -->
<g id="Node000008" class="node">
<title>Node8</title>
<g id="a_Node000008"><a xlink:title=" ">
<polygon fill="#e0e0e0" stroke="#999999" points="528.38,-191 414.12,-191 414.12,-170.25 528.38,-170.25 528.38,-191"/>
<text xml:space="preserve" text-anchor="middle" x="471.25" y="-177.5" font-family="Helvetica,sans-Serif" font-size="10.00">HAL/PlatformTime.h</text>
</a>
</g>
</g>
<!-- Node1&#45;&gt;Node8 -->
<g id="edge10_Node000001_Node000008" class="edge">
<title>Node1&#45;&gt;Node8</title>
<g id="a_edge10_Node000001_Node000008"><a xlink:title=" ">
<path fill="none" stroke="#63b8ff" d="M384.56,-226.53C402.43,-217.27 424.68,-205.75 442.16,-196.69"/>
<polygon fill="#63b8ff" stroke="#63b8ff" points="443.74,-199.82 451.01,-192.11 440.52,-193.6 443.74,-199.82"/>
</a>
</g>
</g>
<!-- Node9 -->
<g id="Node000009" class="node">
<title>Node9</title>
<g id="a_Node000009"><a xlink:title=" ">
<polygon fill="#e0e0e0" stroke="#999999" points="600.62,-134.25 481.88,-134.25 481.88,-113.5 600.62,-113.5 600.62,-134.25"/>
<text xml:space="preserve" text-anchor="middle" x="541.25" y="-120.75" font-family="Helvetica,sans-Serif" font-size="10.00">Logging/LogMacros.h</text>
</a>
</g>
</g>
<!-- Node1&#45;&gt;Node9 -->
<g id="edge11_Node000001_Node000009" class="edge">
<title>Node1&#45;&gt;Node9</title>
<g id="a_edge11_Node000001_Node000009"><a xlink:title=" ">
<path fill="none" stroke="#63b8ff" d="M360.96,-226.63C369.59,-210.22 385.05,-185.14 405.25,-170.25 426.1,-154.88 452.47,-144.51 476.43,-137.61"/>
<polygon fill="#63b8ff" stroke="#63b8ff" points="477.04,-141.07 485.78,-135.08 475.21,-134.31 477.04,-141.07"/>
</a>
</g>
</g>
<!-- Node10 -->
<g id="Node000010" class="node">
<title>Node10</title>
<g id="a_Node000010"><a xlink:href="TactixCore_8h.html" target="_top" xlink:title="Unreal&#45;facing entry point for the TactixCore module: the shared log category and the module lifecycle...">
<polygon fill="white" stroke="#666666" points="358.25,-191 282.25,-191 282.25,-170.25 358.25,-170.25 358.25,-191"/>
<text xml:space="preserve" text-anchor="middle" x="320.25" y="-177.5" font-family="Helvetica,sans-Serif" font-size="10.00">TactixCore.h</text>
</a>
</g>
</g>
<!-- Node1&#45;&gt;Node10 -->
<g id="edge12_Node000001_Node000010" class="edge">
<title>Node1&#45;&gt;Node10</title>
<g id="a_edge12_Node000001_Node000010"><a xlink:title=" ">
<path fill="none" stroke="#63b8ff" d="M344.58,-226.69C340.43,-219.01 335.42,-209.73 331.03,-201.59"/>
<polygon fill="#63b8ff" stroke="#63b8ff" points="334.11,-199.94 326.28,-192.8 327.95,-203.26 334.11,-199.94"/>
</a>
</g>
</g>
<!-- Node3 -->
<g id="Node000003" class="node">
<title>Node3</title>
<g id="a_Node000003"><a xlink:title=" ">
<polygon fill="#e0e0e0" stroke="#999999" points="259.88,-134.25 172.62,-134.25 172.62,-113.5 259.88,-113.5 259.88,-134.25"/>
<text xml:space="preserve" text-anchor="middle" x="216.25" y="-120.75" font-family="Helvetica,sans-Serif" font-size="10.00">CoreMinimal.h</text>
</a>
</g>
</g>
<!-- Node2&#45;&gt;Node3 -->
<g id="edge2_Node000002_Node000003" class="edge">
<title>Node2&#45;&gt;Node3</title>
<g id="a_edge2_Node000002_Node000003"><a xlink:title=" ">
<path fill="none" stroke="#63b8ff" d="M189.97,-169.84C194.11,-162.75 199.85,-152.94 204.9,-144.29"/>
<polygon fill="#63b8ff" stroke="#63b8ff" points="207.79,-146.28 209.81,-135.89 201.75,-142.75 207.79,-146.28"/>
</a>
</g>
</g>
<!-- Node4 -->
<g id="Node000004" class="node">
<title>Node4</title>
<g id="a_Node000004"><a xlink:href="TactixHandle_8h.html" target="_top" xlink:title="Type&#45;safe generational handle: the only sanctioned way to reference a pooled object across frames.">
<polygon fill="white" stroke="#666666" points="231.75,-77.5 86.75,-77.5 86.75,-56.75 231.75,-56.75 231.75,-77.5"/>
<text xml:space="preserve" text-anchor="middle" x="159.25" y="-64" font-family="Helvetica,sans-Serif" font-size="10.00">Foundation/TactixHandle.h</text>
</a>
</g>
</g>
<!-- Node2&#45;&gt;Node4 -->
<g id="edge3_Node000002_Node000004" class="edge">
<title>Node2&#45;&gt;Node4</title>
<g id="a_edge3_Node000002_Node000004"><a xlink:title=" ">
<path fill="none" stroke="#63b8ff" d="M178.46,-169.93C173.45,-161 166.52,-147.21 163.25,-134.25 159.5,-119.38 158.57,-102.05 158.54,-88.87"/>
<polygon fill="#63b8ff" stroke="#63b8ff" points="162.04,-89.28 158.7,-79.22 155.04,-89.17 162.04,-89.28"/>
</a>
</g>
</g>
<!-- Node7 -->
<g id="Node000007" class="node">
<title>Node7</title>
<g id="a_Node000007"><a xlink:href="ITactixAgent_8h.html" target="_top" xlink:title="The engine&#45;agnostic contract a &quot;thinking&quot; entity implements to take part in Tactix systems.">
<polygon fill="white" stroke="#666666" points="116.5,-134.25 0,-134.25 0,-113.5 116.5,-113.5 116.5,-134.25"/>
<text xml:space="preserve" text-anchor="middle" x="58.25" y="-120.75" font-family="Helvetica,sans-Serif" font-size="10.00">Agent/ITactixAgent.h</text>
</a>
</g>
</g>
<!-- Node2&#45;&gt;Node7 -->
<g id="edge6_Node000002_Node000007" class="edge">
<title>Node2&#45;&gt;Node7</title>
<g id="a_edge6_Node000002_Node000007"><a xlink:title=" ">
<path fill="none" stroke="#63b8ff" d="M161.72,-169.84C142.01,-161.27 113.14,-148.73 90.9,-139.06"/>
<polygon fill="#63b8ff" stroke="#63b8ff" points="92.54,-135.96 81.97,-135.18 89.75,-142.38 92.54,-135.96"/>
</a>
</g>
</g>
<!-- Node5 -->
<g id="Node000005" class="node">
<title>Node5</title>
<g id="a_Node000005"><a xlink:href="TactixApi_8h.html" target="_top" xlink:title="Export macros, compiler attributes and version constants shared by every Tactix module.">
<polygon fill="white" stroke="#666666" points="193.88,-20.75 124.62,-20.75 124.62,0 193.88,0 193.88,-20.75"/>
<text xml:space="preserve" text-anchor="middle" x="159.25" y="-7.25" font-family="Helvetica,sans-Serif" font-size="10.00">TactixApi.h</text>
</a>
</g>
</g>
<!-- Node4&#45;&gt;Node5 -->
<g id="edge4_Node000004_Node000005" class="edge">
<title>Node4&#45;&gt;Node5</title>
<g id="a_edge4_Node000004_Node000005"><a xlink:title=" ">
<path fill="none" stroke="#63b8ff" d="M159.25,-56.34C159.25,-49.72 159.25,-40.72 159.25,-32.52"/>
<polygon fill="#63b8ff" stroke="#63b8ff" points="162.75,-32.59 159.25,-22.59 155.75,-32.59 162.75,-32.59"/>
</a>
</g>
</g>
<!-- Node6 -->
<g id="Node000006" class="node">
<title>Node6</title>
<g id="a_Node000006"><a xlink:title=" ">
<polygon fill="#e0e0e0" stroke="#999999" points="75.75,-20.75 26.75,-20.75 26.75,0 75.75,0 75.75,-20.75"/>
<text xml:space="preserve" text-anchor="middle" x="51.25" y="-7.25" font-family="Helvetica,sans-Serif" font-size="10.00">cstdint</text>
</a>
</g>
</g>
<!-- Node4&#45;&gt;Node6 -->
<g id="edge5_Node000004_Node000006" class="edge">
<title>Node4&#45;&gt;Node6</title>
<g id="a_edge5_Node000004_Node000006"><a xlink:title=" ">
<path fill="none" stroke="#63b8ff" d="M139.94,-56.34C123.43,-47.97 99.42,-35.79 80.54,-26.22"/>
<polygon fill="#63b8ff" stroke="#63b8ff" points="82.24,-23.16 71.74,-21.76 79.08,-29.41 82.24,-23.16"/>
</a>
</g>
</g>
<!-- Node7&#45;&gt;Node4 -->
<g id="edge8_Node000007_Node000004" class="edge">
<title>Node7&#45;&gt;Node4</title>
<g id="a_edge8_Node000007_Node000004"><a xlink:title=" ">
<path fill="none" stroke="#63b8ff" d="M76.31,-113.09C91.67,-104.76 113.99,-92.66 131.61,-83.11"/>
<polygon fill="#63b8ff" stroke="#63b8ff" points="132.9,-86.39 140.02,-78.55 129.56,-80.24 132.9,-86.39"/>
</a>
</g>
</g>
<!-- Node7&#45;&gt;Node5 -->
<g id="edge7_Node000007_Node000005" class="edge">
<title>Node7&#45;&gt;Node5</title>
<g id="a_edge7_Node000007_Node000005"><a xlink:title=" ">
<path fill="none" stroke="#63b8ff" d="M58.74,-113.3C59.9,-99.43 63.86,-73.57 77.25,-56.75 88.12,-43.1 104.28,-32.92 119.38,-25.71"/>
<polygon fill="#63b8ff" stroke="#63b8ff" points="120.48,-29.04 128.21,-21.79 117.65,-22.65 120.48,-29.04"/>
</a>
</g>
</g>
<!-- Node7&#45;&gt;Node6 -->
<g id="edge9_Node000007_Node000006" class="edge">
<title>Node7&#45;&gt;Node6</title>
<g id="a_edge9_Node000007_Node000006"><a xlink:title=" ">
<path fill="none" stroke="#63b8ff" d="M54.39,-113.33C50.95,-104.28 46.17,-90.22 44.25,-77.5 41.95,-62.28 43.95,-44.97 46.39,-31.88"/>
<polygon fill="#63b8ff" stroke="#63b8ff" points="49.77,-32.82 48.42,-22.31 42.92,-31.36 49.77,-32.82"/>
</a>
</g>
</g>
<!-- Node10&#45;&gt;Node3 -->
<g id="edge13_Node000010_Node000003" class="edge">
<title>Node10&#45;&gt;Node3</title>
<g id="a_edge13_Node000010_Node000003"><a xlink:title=" ">
<path fill="none" stroke="#63b8ff" d="M301.66,-169.84C285.83,-161.51 262.85,-149.41 244.71,-139.86"/>
<polygon fill="#63b8ff" stroke="#63b8ff" points="246.5,-136.84 236.02,-135.28 243.24,-143.04 246.5,-136.84"/>
</a>
</g>
</g>
<!-- Node10&#45;&gt;Node5 -->
<g id="edge16_Node000010_Node000005" class="edge">
<title>Node10&#45;&gt;Node5</title>
<g id="a_edge16_Node000010_Node000005"><a xlink:title=" ">
<path fill="none" stroke="#63b8ff" d="M316.03,-169.87C305.94,-147.47 278.46,-91.59 241.25,-56.75 227.64,-44.01 209.79,-33.59 194.22,-25.96"/>
<polygon fill="#63b8ff" stroke="#63b8ff" points="195.8,-22.83 185.26,-21.77 192.83,-29.17 195.8,-22.83"/>
</a>
</g>
</g>
<!-- Node10&#45;&gt;Node9 -->
<g id="edge14_Node000010_Node000009" class="edge">
<title>Node10&#45;&gt;Node9</title>
<g id="a_edge14_Node000010_Node000009"><a xlink:title=" ">
<path fill="none" stroke="#63b8ff" d="M358.75,-170.09C395.29,-161.03 450.45,-147.37 490.56,-137.43"/>
<polygon fill="#63b8ff" stroke="#63b8ff" points="491.37,-140.84 500.24,-135.04 489.69,-134.04 491.37,-140.84"/>
</a>
</g>
</g>
<!-- Node11 -->
<g id="Node000011" class="node">
<title>Node11</title>
<g id="a_Node000011"><a xlink:title=" ">
<polygon fill="#e0e0e0" stroke="#999999" points="463.88,-134.25 316.62,-134.25 316.62,-113.5 463.88,-113.5 463.88,-134.25"/>
<text xml:space="preserve" text-anchor="middle" x="390.25" y="-120.75" font-family="Helvetica,sans-Serif" font-size="10.00">Modules/ModuleManager.h</text>
</a>
</g>
</g>
<!-- Node10&#45;&gt;Node11 -->
<g id="edge15_Node000010_Node000011" class="edge">
<title>Node10&#45;&gt;Node11</title>
<g id="a_edge15_Node000010_Node000011"><a xlink:title=" ">
<path fill="none" stroke="#63b8ff" d="M332.76,-169.84C342.82,-161.97 357.16,-150.75 369.01,-141.49"/>
<polygon fill="#63b8ff" stroke="#63b8ff" points="370.93,-144.43 376.65,-135.51 366.62,-138.91 370.93,-144.43"/>
</a>
</g>
</g>
</g>
</svg>
