<?xml version="1.0" encoding="UTF-8" standalone="no"?>
<!DOCTYPE svg PUBLIC "-//W3C//DTD SVG 1.1//EN"
 "http://www.w3.org/Graphics/SVG/1.1/DTD/svg11.dtd">
<!-- Generated by graphviz version 14.1.5 (0)
 -->
<!-- Title: Source/TactixDebug/Public/FTactixVisualDebugger.h Pages: 1 -->
<svg width="728pt" height="269pt"
 viewBox="0.00 0.00 728.00 269.00" xmlns="http://www.w3.org/2000/svg" xmlns:xlink="http://www.w3.org/1999/xlink">
<g id="graph0" class="graph" transform="scale(1 1) rotate(0) translate(4 264.5)">
<title>Source/TactixDebug/Public/FTactixVisualDebugger.h</title>
<!-- Node1 -->
<g id="Node000001" class="node">
<title>Node1</title>
<g id="a_Node000001"><a xlink:title="Static helpers that draw per&#45;agent debug overlays in the world.">
<polygon fill="#999999" stroke="#666666" points="322.65,-260.5 152.15,-260.5 152.15,-227 322.65,-227 322.65,-260.5"/>
<text xml:space="preserve" text-anchor="start" x="160.15" y="-247" font-family="Helvetica,sans-Serif" font-size="10.00">Source/TactixDebug</text>
<text xml:space="preserve" text-anchor="middle" x="237.4" y="-234.25" font-family="Helvetica,sans-Serif" font-size="10.00">/Public/FTactixVisualDebugger.h</text>
</a>
</g>
</g>
<!-- Node2 -->
<g id="Node000002" class="node">
<title>Node2</title>
<g id="a_Node000002"><a xlink:title=" ">
<polygon fill="#e0e0e0" stroke="#999999" points="190.03,-191 102.78,-191 102.78,-170.25 190.03,-170.25 190.03,-191"/>
<text xml:space="preserve" text-anchor="middle" x="146.4" y="-177.5" font-family="Helvetica,sans-Serif" font-size="10.00">CoreMinimal.h</text>
</a>
</g>
</g>
<!-- Node1&#45;&gt;Node2 -->
<g id="edge1_Node000001_Node000002" class="edge">
<title>Node1&#45;&gt;Node2</title>
<g id="a_edge1_Node000001_Node000002"><a xlink:title=" ">
<path fill="none" stroke="#63b8ff" d="M213.49,-226.69C200.23,-217.78 183.79,-206.74 170.5,-197.81"/>
<polygon fill="#63b8ff" stroke="#63b8ff" points="172.56,-194.98 162.31,-192.31 168.66,-200.79 172.56,-194.98"/>
</a>
</g>
</g>
<!-- Node3 -->
<g id="Node000003" class="node">
<title>Node3</title>
<g id="a_Node000003"><a xlink:href="FTactixGOAPPlanner_8h.html" target="_top" xlink:title="A* planner over the GOAP world&#45;state graph.">
<polygon fill="white" stroke="#666666" points="333.03,-134.25 179.78,-134.25 179.78,-113.5 333.03,-113.5 333.03,-134.25"/>
<text xml:space="preserve" text-anchor="middle" x="256.4" y="-120.75" font-family="Helvetica,sans-Serif" font-size="10.00">GOAP/FTactixGOAPPlanner.h</text>
</a>
</g>
</g>
<!-- Node1&#45;&gt;Node3 -->
<g id="edge2_Node000001_Node000003" class="edge">
<title>Node1&#45;&gt;Node3</title>
<g id="a_edge2_Node000001_Node000003"><a xlink:title=" ">
<path fill="none" stroke="#63b8ff" d="M239.96,-226.85C243.33,-205.96 249.26,-169.21 253,-146"/>
<polygon fill="#63b8ff" stroke="#63b8ff" points="256.44,-146.61 254.58,-136.18 249.53,-145.49 256.44,-146.61"/>
</a>
</g>
</g>
<!-- Node7 -->
<g id="Node000007" class="node">
<title>Node7</title>
<g id="a_Node000007"><a xlink:href="FTactixHTNPlanner_8h.html" target="_top" xlink:title="Depth&#45;first HTN planner with method&#45;order fallback and backtracking.">
<polygon fill="white" stroke="#666666" points="156.28,-134.25 16.53,-134.25 16.53,-113.5 156.28,-113.5 156.28,-134.25"/>
<text xml:space="preserve" text-anchor="middle" x="86.4" y="-120.75" font-family="Helvetica,sans-Serif" font-size="10.00">HTN/FTactixHTNPlanner.h</text>
</a>
</g>
</g>
<!-- Node1&#45;&gt;Node7 -->
<g id="edge8_Node000001_Node000007" class="edge">
<title>Node1&#45;&gt;Node7</title>
<g id="a_edge8_Node000001_Node000007"><a xlink:title=" ">
<path fill="none" stroke="#63b8ff" d="M232.6,-226.55C227.03,-210.31 216.38,-185.59 199.4,-170.25 183.06,-155.48 161.3,-145.21 141.24,-138.24"/>
<polygon fill="#63b8ff" stroke="#63b8ff" points="142.35,-134.92 131.75,-135.16 140.18,-141.57 142.35,-134.92"/>
</a>
</g>
</g>
<!-- Node8 -->
<g id="Node000008" class="node">
<title>Node8</title>
<g id="a_Node000008"><a xlink:href="FTactixAgentContext_8h.html" target="_top" xlink:title="Read&#45;only, side&#45;effect&#45;free snapshot of one agent for a single decision.">
<polygon fill="white" stroke="#666666" points="542.9,-191 385.9,-191 385.9,-170.25 542.9,-170.25 542.9,-191"/>
<text xml:space="preserve" text-anchor="middle" x="464.4" y="-177.5" font-family="Helvetica,sans-Serif" font-size="10.00">Agent/FTactixAgentContext.h</text>
</a>
</g>
</g>
<!-- Node1&#45;&gt;Node8 -->
<g id="edge12_Node000001_Node000008" class="edge">
<title>Node1&#45;&gt;Node8</title>
<g id="a_edge12_Node000001_Node000008"><a xlink:title=" ">
<path fill="none" stroke="#63b8ff" d="M297.64,-226.53C335.09,-216.45 382.55,-203.67 417.25,-194.32"/>
<polygon fill="#63b8ff" stroke="#63b8ff" points="417.84,-197.79 426.58,-191.81 416.02,-191.03 417.84,-197.79"/>
</a>
</g>
</g>
<!-- Node4 -->
<g id="Node000004" class="node">
<title>Node4</title>
<g id="a_Node000004"><a xlink:href="TactixApi_8h.html" target="_top" xlink:title="Export macros, compiler attributes and version constants shared by every Tactix module.">
<polygon fill="white" stroke="#666666" points="468.03,-20.75 398.78,-20.75 398.78,0 468.03,0 468.03,-20.75"/>
<text xml:space="preserve" text-anchor="middle" x="433.4" y="-7.25" font-family="Helvetica,sans-Serif" font-size="10.00">TactixApi.h</text>
</a>
</g>
</g>
<!-- Node3&#45;&gt;Node4 -->
<g id="edge3_Node000003_Node000004" class="edge">
<title>Node3&#45;&gt;Node4</title>
<g id="a_edge3_Node000003_Node000004"><a xlink:title=" ">
<path fill="none" stroke="#63b8ff" d="M269.64,-113.01C287.73,-99.68 321.38,-75.44 351.4,-56.75 368.74,-45.96 388.79,-34.84 404.72,-26.31"/>
<polygon fill="#63b8ff" stroke="#63b8ff" points="405.99,-29.6 413.19,-21.82 402.71,-23.42 405.99,-29.6"/>
</a>
</g>
</g>
<!-- Node5 -->
<g id="Node000005" class="node">
<title>Node5</title>
<g id="a_Node000005"><a xlink:href="FTactixWorldState_8h.html" target="_top" xlink:title="Symbolic world state for the GOAP planner: 64 boolean facts plus a &quot;defined&quot; mask.">
<polygon fill="white" stroke="#666666" points="228.78,-77.5 86.03,-77.5 86.03,-56.75 228.78,-56.75 228.78,-77.5"/>
<text xml:space="preserve" text-anchor="middle" x="157.4" y="-64" font-family="Helvetica,sans-Serif" font-size="10.00">GOAP/FTactixWorldState.h</text>
</a>
</g>
</g>
<!-- Node3&#45;&gt;Node5 -->
<g id="edge4_Node000003_Node000005" class="edge">
<title>Node3&#45;&gt;Node5</title>
<g id="a_edge4_Node000003_Node000005"><a xlink:title=" ">
<path fill="none" stroke="#63b8ff" d="M238.7,-113.09C223.78,-104.83 202.17,-92.88 184.98,-83.38"/>
<polygon fill="#63b8ff" stroke="#63b8ff" points="186.72,-80.34 176.27,-78.56 183.33,-86.46 186.72,-80.34"/>
</a>
</g>
</g>
<!-- Node6 -->
<g id="Node000006" class="node">
<title>Node6</title>
<g id="a_Node000006"><a xlink:title=" ">
<polygon fill="#e0e0e0" stroke="#999999" points="280.9,-20.75 231.9,-20.75 231.9,0 280.9,0 280.9,-20.75"/>
<text xml:space="preserve" text-anchor="middle" x="256.4" y="-7.25" font-family="Helvetica,sans-Serif" font-size="10.00">cstdint</text>
</a>
</g>
</g>
<!-- Node3&#45;&gt;Node6 -->
<g id="edge7_Node000003_Node000006" class="edge">
<title>Node3&#45;&gt;Node6</title>
<g id="a_edge7_Node000003_Node000006"><a xlink:title=" ">
<path fill="none" stroke="#63b8ff" d="M256.4,-113.37C256.4,-95.6 256.4,-56.97 256.4,-32.68"/>
<polygon fill="#63b8ff" stroke="#63b8ff" points="259.9,-32.69 256.4,-22.69 252.9,-32.69 259.9,-32.69"/>
</a>
</g>
</g>
<!-- Node5&#45;&gt;Node4 -->
<g id="edge5_Node000005_Node000004" class="edge">
<title>Node5&#45;&gt;Node4</title>
<g id="a_edge5_Node000005_Node000004"><a xlink:title=" ">
<path fill="none" stroke="#63b8ff" d="M207.06,-56.27C258.32,-46.11 337.63,-30.37 387.47,-20.49"/>
<polygon fill="#63b8ff" stroke="#63b8ff" points="387.94,-23.96 397.07,-18.58 386.58,-17.09 387.94,-23.96"/>
</a>
</g>
</g>
<!-- Node5&#45;&gt;Node6 -->
<g id="edge6_Node000005_Node000006" class="edge">
<title>Node5&#45;&gt;Node6</title>
<g id="a_edge6_Node000005_Node000006"><a xlink:title=" ">
<path fill="none" stroke="#63b8ff" d="M175.1,-56.34C190.02,-48.08 211.63,-36.13 228.82,-26.63"/>
<polygon fill="#63b8ff" stroke="#63b8ff" points="230.47,-29.71 237.53,-21.81 227.09,-23.59 230.47,-29.71"/>
</a>
</g>
</g>
<!-- Node7&#45;&gt;Node4 -->
<g id="edge9_Node000007_Node000004" class="edge">
<title>Node7&#45;&gt;Node4</title>
<g id="a_edge9_Node000007_Node000004"><a xlink:title=" ">
<path fill="none" stroke="#63b8ff" d="M81.09,-113.46C73.89,-99.32 63.47,-72.57 77.4,-56.75 97.57,-33.85 295.36,-19.42 387.1,-13.92"/>
<polygon fill="#63b8ff" stroke="#63b8ff" points="387.24,-17.41 397.02,-13.33 386.83,-10.43 387.24,-17.41"/>
</a>
</g>
</g>
<!-- Node7&#45;&gt;Node5 -->
<g id="edge10_Node000007_Node000005" class="edge">
<title>Node7&#45;&gt;Node5</title>
<g id="a_edge10_Node000007_Node000005"><a xlink:title=" ">
<path fill="none" stroke="#63b8ff" d="M99.09,-113.09C109.29,-105.22 123.84,-94 135.86,-84.74"/>
<polygon fill="#63b8ff" stroke="#63b8ff" points="137.84,-87.63 143.62,-78.75 133.56,-82.09 137.84,-87.63"/>
</a>
</g>
</g>
<!-- Node7&#45;&gt;Node6 -->
<g id="edge11_Node000007_Node000006" class="edge">
<title>Node7&#45;&gt;Node6</title>
<g id="a_edge11_Node000007_Node000006"><a xlink:title=" ">
<path fill="none" stroke="#63b8ff" d="M72.55,-113.22C55.14,-99.91 29.27,-75.47 44.4,-56.75 66.12,-29.89 165.66,-18.22 220.28,-13.77"/>
<polygon fill="#63b8ff" stroke="#63b8ff" points="220.31,-17.28 230.02,-13.02 219.78,-10.3 220.31,-17.28"/>
</a>
</g>
</g>
<!-- Node8&#45;&gt;Node4 -->
<g id="edge13_Node000008_Node000004" class="edge">
<title>Node8&#45;&gt;Node4</title>
<g id="a_edge13_Node000008_Node000004"><a xlink:title=" ">
<path fill="none" stroke="#63b8ff" d="M536.15,-169.78C625.8,-154.59 761.29,-120.3 707.4,-56.75 678.75,-22.96 550.04,-14.3 479.69,-12.1"/>
<polygon fill="#63b8ff" stroke="#63b8ff" points="480.11,-8.61 470.02,-11.84 479.92,-15.61 480.11,-8.61"/>
</a>
</g>
</g>
<!-- Node8&#45;&gt;Node6 -->
<g id="edge25_Node000008_Node000006" class="edge">
<title>Node8&#45;&gt;Node6</title>
<g id="a_edge25_Node000008_Node000006"><a xlink:title=" ">
<path fill="none" stroke="#63b8ff" d="M385.41,-177.44C261.33,-173.19 32.24,-161.67 7.4,-134.25 -13.25,-111.44 13.83,-73.41 35.4,-56.75 63.85,-34.78 165.1,-20.99 220.14,-14.94"/>
<polygon fill="#63b8ff" stroke="#63b8ff" points="220.38,-18.44 229.96,-13.9 219.64,-11.48 220.38,-18.44"/>
</a>
</g>
</g>
<!-- Node9 -->
<g id="Node000009" class="node">
<title>Node9</title>
<g id="a_Node000009"><a xlink:href="TactixHandle_8h.html" target="_top" xlink:title="Type&#45;safe generational handle: the only sanctioned way to reference a pooled object across frames.">
<polygon fill="white" stroke="#666666" points="505.9,-77.5 360.9,-77.5 360.9,-56.75 505.9,-56.75 505.9,-77.5"/>
<text xml:space="preserve" text-anchor="middle" x="433.4" y="-64" font-family="Helvetica,sans-Serif" font-size="10.00">Foundation/TactixHandle.h</text>
</a>
</g>
</g>
<!-- Node8&#45;&gt;Node9 -->
<g id="edge14_Node000008_Node000009" class="edge">
<title>Node8&#45;&gt;Node9</title>
<g id="a_edge14_Node000008_Node000009"><a xlink:title=" ">
<path fill="none" stroke="#63b8ff" d="M472.65,-169.98C482.79,-156.91 497.57,-132.94 488.4,-113.5 482.74,-101.5 472.18,-91.59 461.81,-84.13"/>
<polygon fill="#63b8ff" stroke="#63b8ff" points="464.03,-81.4 453.76,-78.81 460.17,-87.24 464.03,-81.4"/>
</a>
</g>
</g>
<!-- Node10 -->
<g id="Node000010" class="node">
<title>Node10</title>
<g id="a_Node000010"><a xlink:href="TactixMath_8h.html" target="_top" xlink:title="Small, engine&#45;agnostic vector and scalar math used across Tactix.">
<polygon fill="white" stroke="#666666" points="698.03,-77.5 562.78,-77.5 562.78,-56.75 698.03,-56.75 698.03,-77.5"/>
<text xml:space="preserve" text-anchor="middle" x="630.4" y="-64" font-family="Helvetica,sans-Serif" font-size="10.00">Foundation/TactixMath.h</text>
</a>
</g>
</g>
<!-- Node8&#45;&gt;Node10 -->
<g id="edge17_Node000008_Node000010" class="edge">
<title>Node8&#45;&gt;Node10</title>
<g id="a_edge17_Node000008_Node000010"><a xlink:title=" ">
<path fill="none" stroke="#63b8ff" d="M478.84,-169.93C507.42,-150.73 571.42,-107.74 606.42,-84.23"/>
<polygon fill="#63b8ff" stroke="#63b8ff" points="608.27,-87.21 614.62,-78.73 604.37,-81.4 608.27,-87.21"/>
</a>
</g>
</g>
<!-- Node12 -->
<g id="Node000012" class="node">
<title>Node12</title>
<g id="a_Node000012"><a xlink:href="ITactixAgent_8h.html" target="_top" xlink:title="The engine&#45;agnostic contract a &quot;thinking&quot; entity implements to take part in Tactix systems.">
<polygon fill="white" stroke="#666666" points="479.65,-134.25 363.15,-134.25 363.15,-113.5 479.65,-113.5 479.65,-134.25"/>
<text xml:space="preserve" text-anchor="middle" x="421.4" y="-120.75" font-family="Helvetica,sans-Serif" font-size="10.00">Agent/ITactixAgent.h</text>
</a>
</g>
</g>
<!-- Node8&#45;&gt;Node12 -->
<g id="edge21_Node000008_Node000012" class="edge">
<title>Node8&#45;&gt;Node12</title>
<g id="a_edge21_Node000008_Node000012"><a xlink:title=" ">
<path fill="none" stroke="#63b8ff" d="M456.71,-169.84C450.97,-162.52 442.93,-152.29 435.98,-143.44"/>
<polygon fill="#63b8ff" stroke="#63b8ff" points="438.89,-141.47 429.96,-135.77 433.38,-145.8 438.89,-141.47"/>
</a>
</g>
</g>
<!-- Node9&#45;&gt;Node4 -->
<g id="edge15_Node000009_Node000004" class="edge">
<title>Node9&#45;&gt;Node4</title>
<g id="a_edge15_Node000009_Node000004"><a xlink:title=" ">
<path fill="none" stroke="#63b8ff" d="M433.4,-56.34C433.4,-49.72 433.4,-40.72 433.4,-32.52"/>
<polygon fill="#63b8ff" stroke="#63b8ff" points="436.9,-32.59 433.4,-22.59 429.9,-32.59 436.9,-32.59"/>
</a>
</g>
</g>
<!-- Node9&#45;&gt;Node6 -->
<g id="edge16_Node000009_Node000006" class="edge">
<title>Node9&#45;&gt;Node6</title>
<g id="a_edge16_Node000009_Node000006"><a xlink:title=" ">
<path fill="none" stroke="#63b8ff" d="M401.76,-56.34C370.89,-46.79 324.03,-32.29 291.91,-22.36"/>
<polygon fill="#63b8ff" stroke="#63b8ff" points="293.24,-19.11 282.66,-19.5 291.17,-25.79 293.24,-19.11"/>
</a>
</g>
</g>
<!-- Node10&#45;&gt;Node4 -->
<g id="edge18_Node000010_Node000004" class="edge">
<title>Node10&#45;&gt;Node4</title>
<g id="a_edge18_Node000010_Node000004"><a xlink:title=" ">
<path fill="none" stroke="#63b8ff" d="M595.18,-56.34C562.83,-47.34 514.67,-33.96 479.31,-24.13"/>
<polygon fill="#63b8ff" stroke="#63b8ff" points="480.35,-20.79 469.77,-21.48 478.47,-27.53 480.35,-20.79"/>
</a>
</g>
</g>
<!-- Node10&#45;&gt;Node6 -->
<g id="edge20_Node000010_Node000006" class="edge">
<title>Node10&#45;&gt;Node6</title>
<g id="a_edge20_Node000010_Node000006"><a xlink:title=" ">
<path fill="none" stroke="#63b8ff" d="M563.11,-56.27C483.68,-44.65 354.56,-25.74 292.26,-16.62"/>
<polygon fill="#63b8ff" stroke="#63b8ff" points="292.98,-13.19 282.58,-15.21 291.97,-20.12 292.98,-13.19"/>
</a>
</g>
</g>
<!-- Node11 -->
<g id="Node000011" class="node">
<title>Node11</title>
<g id="a_Node000011"><a xlink:title=" ">
<polygon fill="#e0e0e0" stroke="#999999" points="653.78,-20.75 607.03,-20.75 607.03,0 653.78,0 653.78,-20.75"/>
<text xml:space="preserve" text-anchor="middle" x="630.4" y="-7.25" font-family="Helvetica,sans-Serif" font-size="10.00">cmath</text>
</a>
</g>
</g>
<!-- Node10&#45;&gt;Node11 -->
<g id="edge19_Node000010_Node000011" class="edge">
<title>Node10&#45;&gt;Node11</title>
<g id="a_edge19_Node000010_Node000011"><a xlink:title=" ">
<path fill="none" stroke="#63b8ff" d="M630.4,-56.34C630.4,-49.72 630.4,-40.72 630.4,-32.52"/>
<polygon fill="#63b8ff" stroke="#63b8ff" points="633.9,-32.59 630.4,-22.59 626.9,-32.59 633.9,-32.59"/>
</a>
</g>
</g>
<!-- Node12&#45;&gt;Node4 -->
<g id="edge22_Node000012_Node000004" class="edge">
<title>Node12&#45;&gt;Node4</title>
<g id="a_edge22_Node000012_Node000004"><a xlink:title=" ">
<path fill="none" stroke="#63b8ff" d="M464.48,-113.15C483.53,-106.48 504.13,-95.46 515.4,-77.5 529.39,-55.21 501.75,-37.09 474.85,-25.49"/>
<polygon fill="#63b8ff" stroke="#63b8ff" points="476.27,-22.28 465.68,-21.79 473.64,-28.77 476.27,-22.28"/>
</a>
</g>
</g>
<!-- Node12&#45;&gt;Node6 -->
<g id="edge24_Node000012_Node000006" class="edge">
<title>Node12&#45;&gt;Node6</title>
<g id="a_edge24_Node000012_Node000006"><a xlink:title=" ">
<path fill="none" stroke="#63b8ff" d="M406.01,-113.11C391.77,-104.01 370.03,-90.02 351.4,-77.5 326.66,-60.88 298.69,-41.32 279.55,-27.8"/>
<polygon fill="#63b8ff" stroke="#63b8ff" points="281.57,-24.95 271.38,-22.03 277.53,-30.66 281.57,-24.95"/>
</a>
</g>
</g>
<!-- Node12&#45;&gt;Node9 -->
<g id="edge23_Node000012_Node000009" class="edge">
<title>Node12&#45;&gt;Node9</title>
<g id="a_edge23_Node000012_Node000009"><a xlink:title=" ">
<path fill="none" stroke="#63b8ff" d="M423.55,-113.09C425.01,-106.39 427.02,-97.26 428.83,-88.98"/>
<polygon fill="#63b8ff" stroke="#63b8ff" points="432.23,-89.82 430.95,-79.31 425.39,-88.33 432.23,-89.82"/>
</a>
</g>
</g>
</g>
</svg>
