<?xml version="1.0" encoding="UTF-8" standalone="no"?>
<!DOCTYPE svg PUBLIC "-//W3C//DTD SVG 1.1//EN"
 "http://www.w3.org/Graphics/SVG/1.1/DTD/svg11.dtd">
<!-- Generated by graphviz version 14.1.5 (0)
 -->
<!-- Title: Source/TactixSystems/Public/Spatial/FTactixInfluenceMap.h Pages: 1 -->
<svg width="324pt" height="168pt"
 viewBox="0.00 0.00 324.00 168.00" xmlns="http://www.w3.org/2000/svg" xmlns:xlink="http://www.w3.org/1999/xlink">
<g id="graph0" class="graph" transform="scale(1 1) rotate(0) translate(4 163.75)">
<title>Source/TactixSystems/Public/Spatial/FTactixInfluenceMap.h</title>
<!-- Node1 -->
<g id="Node000001" class="node">
<title>Node1</title>
<g id="a_Node000001"><a xlink:title="Multi&#45;channel 2D scalar field for spatial reasoning (danger, control, resource, .....">
<polygon fill="#999999" stroke="#666666" points="222.62,-159.75 56.62,-159.75 56.62,-113.5 222.62,-113.5 222.62,-159.75"/>
<text xml:space="preserve" text-anchor="start" x="64.62" y="-146.25" font-family="Helvetica,sans-Serif" font-size="10.00">Source/TactixSystems</text>
<text xml:space="preserve" text-anchor="start" x="64.62" y="-133.5" font-family="Helvetica,sans-Serif" font-size="10.00">/Public/Spatial/FTactixInfluence</text>
<text xml:space="preserve" text-anchor="middle" x="139.62" y="-120.75" font-family="Helvetica,sans-Serif" font-size="10.00">Map.h</text>
</a>
</g>
</g>
<!-- Node2 -->
<g id="Node000002" class="node">
<title>Node2</title>
<g id="a_Node000002"><a xlink:href="TactixApi_8h.html" target="_top" xlink:title="Export macros, compiler attributes and version constants shared by every Tactix module.">
<polygon fill="white" stroke="#666666" points="69.25,-20.75 0,-20.75 0,0 69.25,0 69.25,-20.75"/>
<text xml:space="preserve" text-anchor="middle" x="34.62" y="-7.25" font-family="Helvetica,sans-Serif" font-size="10.00">TactixApi.h</text>
</a>
</g>
</g>
<!-- Node1&#45;&gt;Node2 -->
<g id="edge1_Node000001_Node000002" class="edge">
<title>Node1&#45;&gt;Node2</title>
<g id="a_edge1_Node000001_Node000002"><a xlink:title=" ">
<path fill="none" stroke="#63b8ff" d="M95.81,-113.07C81.29,-103.75 66.17,-91.76 55.62,-77.5 45.87,-64.3 40.55,-46.41 37.71,-32.57"/>
<polygon fill="#63b8ff" stroke="#63b8ff" points="41.16,-31.99 36,-22.74 34.26,-33.19 41.16,-31.99"/>
</a>
</g>
</g>
<!-- Node3 -->
<g id="Node000003" class="node">
<title>Node3</title>
<g id="a_Node000003"><a xlink:href="TactixMath_8h.html" target="_top" xlink:title="Small, engine&#45;agnostic vector and scalar math used across Tactix.">
<polygon fill="white" stroke="#666666" points="207.25,-77.5 72,-77.5 72,-56.75 207.25,-56.75 207.25,-77.5"/>
<text xml:space="preserve" text-anchor="middle" x="139.62" y="-64" font-family="Helvetica,sans-Serif" font-size="10.00">Foundation/TactixMath.h</text>
</a>
</g>
</g>
<!-- Node1&#45;&gt;Node3 -->
<g id="edge2_Node000001_Node000003" class="edge">
<title>Node1&#45;&gt;Node3</title>
<g id="a_edge2_Node000001_Node000003"><a xlink:title=" ">
<path fill="none" stroke="#63b8ff" d="M139.62,-113.15C139.62,-105.48 139.62,-96.94 139.62,-89.38"/>
<polygon fill="#63b8ff" stroke="#63b8ff" points="143.13,-89.4 139.63,-79.4 136.13,-89.4 143.13,-89.4"/>
</a>
</g>
</g>
<!-- Node4 -->
<g id="Node000004" class="node">
<title>Node4</title>
<g id="a_Node000004"><a xlink:title=" ">
<polygon fill="#e0e0e0" stroke="#999999" points="148,-20.75 101.25,-20.75 101.25,0 148,0 148,-20.75"/>
<text xml:space="preserve" text-anchor="middle" x="124.62" y="-7.25" font-family="Helvetica,sans-Serif" font-size="10.00">cmath</text>
</a>
</g>
</g>
<!-- Node1&#45;&gt;Node4 -->
<g id="edge6_Node000001_Node000004" class="edge">
<title>Node1&#45;&gt;Node4</title>
<g id="a_edge6_Node000001_Node000004"><a xlink:title=" ">
<path fill="none" stroke="#63b8ff" d="M95.79,-113.04C82.68,-103.91 69.87,-92.04 62.62,-77.5 52.54,-57.26 73.32,-38.9 93.49,-26.69"/>
<polygon fill="#63b8ff" stroke="#63b8ff" points="95.19,-29.75 102.19,-21.8 91.76,-23.65 95.19,-29.75"/>
</a>
</g>
</g>
<!-- Node5 -->
<g id="Node000005" class="node">
<title>Node5</title>
<g id="a_Node000005"><a xlink:title=" ">
<polygon fill="#e0e0e0" stroke="#999999" points="237.12,-20.75 188.12,-20.75 188.12,0 237.12,0 237.12,-20.75"/>
<text xml:space="preserve" text-anchor="middle" x="212.62" y="-7.25" font-family="Helvetica,sans-Serif" font-size="10.00">cstdint</text>
</a>
</g>
</g>
<!-- Node1&#45;&gt;Node5 -->
<g id="edge8_Node000001_Node000005" class="edge">
<title>Node1&#45;&gt;Node5</title>
<g id="a_edge8_Node000001_Node000005"><a xlink:title=" ">
<path fill="none" stroke="#63b8ff" d="M183.46,-113.04C196.57,-103.91 209.38,-92.04 216.62,-77.5 223.61,-63.47 222.03,-45.64 219.02,-32.03"/>
<polygon fill="#63b8ff" stroke="#63b8ff" points="222.41,-31.17 216.45,-22.41 215.65,-32.97 222.41,-31.17"/>
</a>
</g>
</g>
<!-- Node6 -->
<g id="Node000006" class="node">
<title>Node6</title>
<g id="a_Node000006"><a xlink:title=" ">
<polygon fill="#e0e0e0" stroke="#999999" points="315.62,-77.5 263.62,-77.5 263.62,-56.75 315.62,-56.75 315.62,-77.5"/>
<text xml:space="preserve" text-anchor="middle" x="289.62" y="-64" font-family="Helvetica,sans-Serif" font-size="10.00">cstddef</text>
</a>
</g>
</g>
<!-- Node1&#45;&gt;Node6 -->
<g id="edge7_Node000001_Node000006" class="edge">
<title>Node1&#45;&gt;Node6</title>
<g id="a_edge7_Node000001_Node000006"><a xlink:title=" ">
<path fill="none" stroke="#63b8ff" d="M189.57,-113.15C212.01,-103.05 237.82,-91.44 257.61,-82.53"/>
<polygon fill="#63b8ff" stroke="#63b8ff" points="258.86,-85.81 266.54,-78.51 255.99,-79.42 258.86,-85.81"/>
</a>
</g>
</g>
<!-- Node3&#45;&gt;Node2 -->
<g id="edge3_Node000003_Node000002" class="edge">
<title>Node3&#45;&gt;Node2</title>
<g id="a_edge3_Node000003_Node000002"><a xlink:title=" ">
<path fill="none" stroke="#63b8ff" d="M120.85,-56.34C104.88,-48.01 81.67,-35.91 63.36,-26.36"/>
<polygon fill="#63b8ff" stroke="#63b8ff" points="65.06,-23.3 54.58,-21.78 61.83,-29.51 65.06,-23.3"/>
</a>
</g>
</g>
<!-- Node3&#45;&gt;Node4 -->
<g id="edge4_Node000003_Node000004" class="edge">
<title>Node3&#45;&gt;Node4</title>
<g id="a_edge4_Node000003_Node000004"><a xlink:title=" ">
<path fill="none" stroke="#63b8ff" d="M136.94,-56.34C135.09,-49.56 132.55,-40.3 130.26,-31.94"/>
<polygon fill="#63b8ff" stroke="#63b8ff" points="133.7,-31.26 127.68,-22.54 126.95,-33.11 133.7,-31.26"/>
</a>
</g>
</g>
<!-- Node3&#45;&gt;Node5 -->
<g id="edge5_Node000003_Node000005" class="edge">
<title>Node3&#45;&gt;Node5</title>
<g id="a_edge5_Node000003_Node000005"><a xlink:title=" ">
<path fill="none" stroke="#63b8ff" d="M152.68,-56.34C163.26,-48.4 178.42,-37.03 190.84,-27.71"/>
<polygon fill="#63b8ff" stroke="#63b8ff" points="192.58,-30.79 198.48,-21.99 188.38,-25.19 192.58,-30.79"/>
</a>
</g>
</g>
</g>
</svg>
