<?xml version="1.0" encoding="UTF-8" standalone="no"?>
<!DOCTYPE svg PUBLIC "-//W3C//DTD SVG 1.1//EN"
 "http://www.w3.org/Graphics/SVG/1.1/DTD/svg11.dtd">
<!-- Generated by graphviz version 14.1.5 (0)
 -->
<!-- Title: Source/TactixDebug/Private/FTactixAgentProfiler.cpp Pages: 1 -->
<svg width="609pt" height="269pt"
 viewBox="0.00 0.00 609.00 269.00" xmlns="http://www.w3.org/2000/svg" xmlns:xlink="http://www.w3.org/1999/xlink">
<g id="graph0" class="graph" transform="scale(1 1) rotate(0) translate(4 264.5)">
<title>Source/TactixDebug/Private/FTactixAgentProfiler.cpp</title>
<!-- Node1 -->
<g id="Node000001" class="node">
<title>Node1</title>
<g id="a_Node000001"><a xlink:title="Implements the timing profiler: cycle&#45;counter sampling, ring storage, and the aggregate queries.">
<polygon fill="#999999" stroke="#666666" points="436.62,-260.5 263.88,-260.5 263.88,-227 436.62,-227 436.62,-260.5"/>
<text xml:space="preserve" text-anchor="start" x="271.88" y="-247" font-family="Helvetica,sans-Serif" font-size="10.00">Source/TactixDebug</text>
<text xml:space="preserve" text-anchor="middle" x="350.25" y="-234.25" font-family="Helvetica,sans-Serif" font-size="10.00">/Private/FTactixAgentProfiler.cpp</text>
</a>
</g>
</g>
<!-- Node2 -->
<g id="Node000002" class="node">
<title>Node2</title>
<g id="a_Node000002"><a xlink:href="FTactixAgentProfiler_8h.html" target="_top" xlink:title="Per&#45;agent timing recorder for spotting which agents and which phases cost the most.">
<polygon fill="white" stroke="#666666" points="247.75,-191 126.75,-191 126.75,-170.25 247.75,-170.25 247.75,-191"/>
<text xml:space="preserve" text-anchor="middle" x="187.25" y="-177.5" font-family="Helvetica,sans-Serif" font-size="10.00">FTactixAgentProfiler.h</text>
</a>
</g>
</g>
<!-- Node1&#45;&gt;Node2 -->
<g id="edge1_Node000001_Node000002" class="edge">
<title>Node1&#45;&gt;Node2</title>
<g id="a_edge1_Node000001_Node000002"><a xlink:title=" ">
<path fill="none" stroke="#63b8ff" d="M307,-226.53C281.15,-216.84 248.67,-204.66 224.06,-195.43"/>
<polygon fill="#63b8ff" stroke="#63b8ff" points="225.37,-192.18 214.77,-191.95 222.91,-198.73 225.37,-192.18"/>
</a>
</g>
</g>
<!-- Node8 -->
<g id="Node000008" class="node">
<title>Node8</title>
<g id="a_Node000008"><a xlink:title=" ">
<polygon fill="#e0e0e0" stroke="#999999" points="525.38,-191 411.12,-191 411.12,-170.25 525.38,-170.25 525.38,-191"/>
<text xml:space="preserve" text-anchor="middle" x="468.25" y="-177.5" font-family="Helvetica,sans-Serif" font-size="10.00">HAL/PlatformTime.h</text>
</a>
</g>
</g>
<!-- Node1&#45;&gt;Node8 -->
<g id="edge10_Node000001_Node000008" class="edge">
<title>Node1&#45;&gt;Node8</title>
<g id="a_edge10_Node000001_Node000008"><a xlink:title=" ">
<path fill="none" stroke="#63b8ff" d="M381.56,-226.53C399.43,-217.27 421.68,-205.75 439.16,-196.69"/>
<polygon fill="#63b8ff" stroke="#63b8ff" points="440.74,-199.82 448.01,-192.11 437.52,-193.6 440.74,-199.82"/>
</a>
</g>
</g>
<!-- Node9 -->
<g id="Node000009" class="node">
<title>Node9</title>
<g id="a_Node000009"><a xlink:title=" ">
<polygon fill="#e0e0e0" stroke="#999999" points="600.62,-134.25 481.88,-134.25 481.88,-113.5 600.62,-113.5 600.62,-134.25"/>
<text xml:space="preserve" text-anchor="middle" x="541.25" y="-120.75" font-family="Helvetica,sans-Serif" font-size="10.00">Logging/LogMacros.h</text>
</a>
</g>
</g>
<!-- Node1&#45;&gt;Node9 -->
<g id="edge11_Node000001_Node000009" class="edge">
<title>Node1&#45;&gt;Node9</title>
<g id="a_edge11_Node000001_Node000009"><a xlink:title=" ">
<path fill="none" stroke="#63b8ff" d="M357.95,-226.6C366.56,-210.17 382,-185.08 402.25,-170.25 423.3,-154.84 449.84,-144.49 474.08,-137.62"/>
<polygon fill="#63b8ff" stroke="#63b8ff" points="474.81,-141.05 483.57,-135.09 473.01,-134.28 474.81,-141.05"/>
</a>
</g>
</g>
<!-- Node10 -->
<g id="Node000010" class="node">
<title>Node10</title>
<g id="a_Node000010"><a xlink:href="TactixCore_8h.html" target="_top" xlink:title="Unreal&#45;facing entry point for the TactixCore module: the shared log category and the module lifecycle...">
<polygon fill="white" stroke="#666666" points="355.25,-191 279.25,-191 279.25,-170.25 355.25,-170.25 355.25,-191"/>
<text xml:space="preserve" text-anchor="middle" x="317.25" y="-177.5" font-family="Helvetica,sans-Serif" font-size="10.00">TactixCore.h</text>
</a>
</g>
</g>
<!-- Node1&#45;&gt;Node10 -->
<g id="edge12_Node000001_Node000010" class="edge">
<title>Node1&#45;&gt;Node10</title>
<g id="a_edge12_Node000001_Node000010"><a xlink:title=" ">
<path fill="none" stroke="#63b8ff" d="M341.58,-226.69C337.43,-219.01 332.42,-209.73 328.03,-201.59"/>
<polygon fill="#63b8ff" stroke="#63b8ff" points="331.11,-199.94 323.28,-192.8 324.95,-203.26 331.11,-199.94"/>
</a>
</g>
</g>
<!-- Node3 -->
<g id="Node000003" class="node">
<title>Node3</title>
<g id="a_Node000003"><a xlink:title=" ">
<polygon fill="#e0e0e0" stroke="#999999" points="259.88,-134.25 172.62,-134.25 172.62,-113.5 259.88,-113.5 259.88,-134.25"/>
<text xml:space="preserve" text-anchor="middle" x="216.25" y="-120.75" font-family="Helvetica,sans-Serif" font-size="10.00">CoreMinimal.h</text>
</a>
</g>
</g>
<!-- Node2&#45;&gt;Node3 -->
<g id="edge2_Node000002_Node000003" class="edge">
<title>Node2&#45;&gt;Node3</title>
<g id="a_edge2_Node000002_Node000003"><a xlink:title=" ">
<path fill="none" stroke="#63b8ff" d="M192.43,-169.84C196.15,-162.83 201.27,-153.16 205.81,-144.58"/>
<polygon fill="#63b8ff" stroke="#63b8ff" points="208.81,-146.39 210.4,-135.92 202.63,-143.11 208.81,-146.39"/>
</a>
</g>
</g>
<!-- Node4 -->
<g id="Node000004" class="node">
<title>Node4</title>
<g id="a_Node000004"><a xlink:href="TactixHandle_8h.html" target="_top" xlink:title="Type&#45;safe generational handle: the only sanctioned way to reference a pooled object across frames.">
<polygon fill="white" stroke="#666666" points="231.75,-77.5 86.75,-77.5 86.75,-56.75 231.75,-56.75 231.75,-77.5"/>
<text xml:space="preserve" text-anchor="middle" x="159.25" y="-64" font-family="Helvetica,sans-Serif" font-size="10.00">Foundation/TactixHandle.h</text>
</a>
</g>
</g>
<!-- Node2&#45;&gt;Node4 -->
<g id="edge3_Node000002_Node000004" class="edge">
<title>Node2&#45;&gt;Node4</title>
<g id="a_edge3_Node000002_Node000004"><a xlink:title=" ">
<path fill="none" stroke="#63b8ff" d="M180.62,-170.05C174.89,-161.2 166.96,-147.46 163.25,-134.25 159.11,-119.48 158.2,-102.15 158.27,-88.94"/>
<polygon fill="#63b8ff" stroke="#63b8ff" points="161.76,-89.36 158.54,-79.26 154.76,-89.17 161.76,-89.36"/>
</a>
</g>
</g>
<!-- Node7 -->
<g id="Node000007" class="node">
<title>Node7</title>
<g id="a_Node000007"><a xlink:href="ITactixAgent_8h.html" target="_top" xlink:title="The engine&#45;agnostic contract a &quot;thinking&quot; entity implements to take part in Tactix systems.">
<polygon fill="white" stroke="#666666" points="116.5,-134.25 0,-134.25 0,-113.5 116.5,-113.5 116.5,-134.25"/>
<text xml:space="preserve" text-anchor="middle" x="58.25" y="-120.75" font-family="Helvetica,sans-Serif" font-size="10.00">Agent/ITactixAgent.h</text>
</a>
</g>
</g>
<!-- Node2&#45;&gt;Node7 -->
<g id="edge6_Node000002_Node000007" class="edge">
<title>Node2&#45;&gt;Node7</title>
<g id="a_edge6_Node000002_Node000007"><a xlink:title=" ">
<path fill="none" stroke="#63b8ff" d="M164.19,-169.84C144.01,-161.27 114.45,-148.73 91.68,-139.06"/>
<polygon fill="#63b8ff" stroke="#63b8ff" points="93.08,-135.85 82.51,-135.17 90.34,-142.3 93.08,-135.85"/>
</a>
</g>
</g>
<!-- Node5 -->
<g id="Node000005" class="node">
<title>Node5</title>
<g id="a_Node000005"><a xlink:href="TactixApi_8h.html" target="_top" xlink:title="Export macros, compiler attributes and version constants shared by every Tactix module.">
<polygon fill="white" stroke="#666666" points="193.88,-20.75 124.62,-20.75 124.62,0 193.88,0 193.88,-20.75"/>
<text xml:space="preserve" text-anchor="middle" x="159.25" y="-7.25" font-family="Helvetica,sans-Serif" font-size="10.00">TactixApi.h</text>
</a>
</g>
</g>
<!-- Node4&#45;&gt;Node5 -->
<g id="edge4_Node000004_Node000005" class="edge">
<title>Node4&#45;&gt;Node5</title>
<g id="a_edge4_Node000004_Node000005"><a xlink:title=" ">
<path fill="none" stroke="#63b8ff" d="M159.25,-56.34C159.25,-49.72 159.25,-40.72 159.25,-32.52"/>
<polygon fill="#63b8ff" stroke="#63b8ff" points="162.75,-32.59 159.25,-22.59 155.75,-32.59 162.75,-32.59"/>
</a>
</g>
</g>
<!-- Node6 -->
<g id="Node000006" class="node">
<title>Node6</title>
<g id="a_Node000006"><a xlink:title=" ">
<polygon fill="#e0e0e0" stroke="#999999" points="75.75,-20.75 26.75,-20.75 26.75,0 75.75,0 75.75,-20.75"/>
<text xml:space="preserve" text-anchor="middle" x="51.25" y="-7.25" font-family="Helvetica,sans-Serif" font-size="10.00">cstdint</text>
</a>
</g>
</g>
<!-- Node4&#45;&gt;Node6 -->
<g id="edge5_Node000004_Node000006" class="edge">
<title>Node4&#45;&gt;Node6</title>
<g id="a_edge5_Node000004_Node000006"><a xlink:title=" ">
<path fill="none" stroke="#63b8ff" d="M139.94,-56.34C123.43,-47.97 99.42,-35.79 80.54,-26.22"/>
<polygon fill="#63b8ff" stroke="#63b8ff" points="82.24,-23.16 71.74,-21.76 79.08,-29.41 82.24,-23.16"/>
</a>
</g>
</g>
<!-- Node7&#45;&gt;Node4 -->
<g id="edge8_Node000007_Node000004" class="edge">
<title>Node7&#45;&gt;Node4</title>
<g id="a_edge8_Node000007_Node000004"><a xlink:title=" ">
<path fill="none" stroke="#63b8ff" d="M76.31,-113.09C91.67,-104.76 113.99,-92.66 131.61,-83.11"/>
<polygon fill="#63b8ff" stroke="#63b8ff" points="132.9,-86.39 140.02,-78.55 129.56,-80.24 132.9,-86.39"/>
</a>
</g>
</g>
<!-- Node7&#45;&gt;Node5 -->
<g id="edge7_Node000007_Node000005" class="edge">
<title>Node7&#45;&gt;Node5</title>
<g id="a_edge7_Node000007_Node000005"><a xlink:title=" ">
<path fill="none" stroke="#63b8ff" d="M58.74,-113.3C59.9,-99.43 63.86,-73.57 77.25,-56.75 88.12,-43.1 104.28,-32.92 119.38,-25.71"/>
<polygon fill="#63b8ff" stroke="#63b8ff" points="120.48,-29.04 128.21,-21.79 117.65,-22.65 120.48,-29.04"/>
</a>
</g>
</g>
<!-- Node7&#45;&gt;Node6 -->
<g id="edge9_Node000007_Node000006" class="edge">
<title>Node7&#45;&gt;Node6</title>
<g id="a_edge9_Node000007_Node000006"><a xlink:title=" ">
<path fill="none" stroke="#63b8ff" d="M54.39,-113.33C50.95,-104.28 46.17,-90.22 44.25,-77.5 41.95,-62.28 43.95,-44.97 46.39,-31.88"/>
<polygon fill="#63b8ff" stroke="#63b8ff" points="49.77,-32.82 48.42,-22.31 42.92,-31.36 49.77,-32.82"/>
</a>
</g>
</g>
<!-- Node10&#45;&gt;Node3 -->
<g id="edge13_Node000010_Node000003" class="edge">
<title>Node10&#45;&gt;Node3</title>
<g id="a_edge13_Node000010_Node000003"><a xlink:title=" ">
<path fill="none" stroke="#63b8ff" d="M299.19,-169.84C283.83,-161.51 261.51,-149.41 243.89,-139.86"/>
<polygon fill="#63b8ff" stroke="#63b8ff" points="245.94,-136.99 235.48,-135.3 242.6,-143.14 245.94,-136.99"/>
</a>
</g>
</g>
<!-- Node10&#45;&gt;Node5 -->
<g id="edge16_Node000010_Node000005" class="edge">
<title>Node10&#45;&gt;Node5</title>
<g id="a_edge16_Node000010_Node000005"><a xlink:title=" ">
<path fill="none" stroke="#63b8ff" d="M313.29,-169.86C303.79,-147.44 277.75,-91.53 241.25,-56.75 227.85,-43.98 210.17,-33.6 194.66,-26.01"/>
<polygon fill="#63b8ff" stroke="#63b8ff" points="196.26,-22.9 185.71,-21.84 193.3,-29.24 196.26,-22.9"/>
</a>
</g>
</g>
<!-- Node10&#45;&gt;Node9 -->
<g id="edge14_Node000010_Node000009" class="edge">
<title>Node10&#45;&gt;Node9</title>
<g id="a_edge14_Node000010_Node000009"><a xlink:title=" ">
<path fill="none" stroke="#63b8ff" d="M355.5,-170.28C392.51,-161.23 448.85,-147.46 489.78,-137.46"/>
<polygon fill="#63b8ff" stroke="#63b8ff" points="490.53,-140.87 499.42,-135.1 488.87,-134.07 490.53,-140.87"/>
</a>
</g>
</g>
<!-- Node11 -->
<g id="Node000011" class="node">
<title>Node11</title>
<g id="a_Node000011"><a xlink:title=" ">
<polygon fill="#e0e0e0" stroke="#999999" points="463.88,-134.25 316.62,-134.25 316.62,-113.5 463.88,-113.5 463.88,-134.25"/>
<text xml:space="preserve" text-anchor="middle" x="390.25" y="-120.75" font-family="Helvetica,sans-Serif" font-size="10.00">Modules/ModuleManager.h</text>
</a>
</g>
</g>
<!-- Node10&#45;&gt;Node11 -->
<g id="edge15_Node000010_Node000011" class="edge">
<title>Node10&#45;&gt;Node11</title>
<g id="a_edge15_Node000010_Node000011"><a xlink:title=" ">
<path fill="none" stroke="#63b8ff" d="M330.3,-169.84C340.89,-161.9 356.04,-150.53 368.47,-141.21"/>
<polygon fill="#63b8ff" stroke="#63b8ff" points="370.2,-144.29 376.1,-135.49 366,-138.69 370.2,-144.29"/>
</a>
</g>
</g>
</g>
</svg>
