<?xml version="1.0" encoding="UTF-8" standalone="no"?>
<!DOCTYPE svg PUBLIC "-//W3C//DTD SVG 1.1//EN"
 "http://www.w3.org/Graphics/SVG/1.1/DTD/svg11.dtd">
<!-- Generated by graphviz version 14.1.5 (0)
 -->
<!-- Title: Source/TactixSystems/Public/GOAP/FTactixWorldState.h Pages: 1 -->
<svg width="186pt" height="98pt"
 viewBox="0.00 0.00 186.00 98.00" xmlns="http://www.w3.org/2000/svg" xmlns:xlink="http://www.w3.org/1999/xlink">
<g id="graph0" class="graph" transform="scale(1 1) rotate(0) translate(4 94.25)">
<title>Source/TactixSystems/Public/GOAP/FTactixWorldState.h</title>
<!-- Node1 -->
<g id="Node000001" class="node">
<title>Node1</title>
<g id="a_Node000001"><a xlink:title="Symbolic world state for the GOAP planner: 64 boolean facts plus a &quot;defined&quot; mask.">
<polygon fill="#999999" stroke="#666666" points="178,-90.25 0,-90.25 0,-56.75 178,-56.75 178,-90.25"/>
<text xml:space="preserve" text-anchor="start" x="8" y="-76.75" font-family="Helvetica,sans-Serif" font-size="10.00">Source/TactixSystems</text>
<text xml:space="preserve" text-anchor="middle" x="89" y="-64" font-family="Helvetica,sans-Serif" font-size="10.00">/Public/GOAP/FTactixWorldState.h</text>
</a>
</g>
</g>
<!-- Node2 -->
<g id="Node000002" class="node">
<title>Node2</title>
<g id="a_Node000002"><a xlink:href="TactixApi_8h.html" target="_top" xlink:title="Export macros, compiler attributes and version constants shared by every Tactix module.">
<polygon fill="white" stroke="#666666" points="85.62,-20.75 16.38,-20.75 16.38,0 85.62,0 85.62,-20.75"/>
<text xml:space="preserve" text-anchor="middle" x="51" y="-7.25" font-family="Helvetica,sans-Serif" font-size="10.00">TactixApi.h</text>
</a>
</g>
</g>
<!-- Node1&#45;&gt;Node2 -->
<g id="edge1_Node000001_Node000002" class="edge">
<title>Node1&#45;&gt;Node2</title>
<g id="a_edge1_Node000001_Node000002"><a xlink:title=" ">
<path fill="none" stroke="#63b8ff" d="M79.02,-56.44C74.13,-48.58 68.21,-39.06 63.07,-30.79"/>
<polygon fill="#63b8ff" stroke="#63b8ff" points="66.17,-29.15 57.92,-22.5 60.22,-32.84 66.17,-29.15"/>
</a>
</g>
</g>
<!-- Node3 -->
<g id="Node000003" class="node">
<title>Node3</title>
<g id="a_Node000003"><a xlink:title=" ">
<polygon fill="#e0e0e0" stroke="#999999" points="152.5,-20.75 103.5,-20.75 103.5,0 152.5,0 152.5,-20.75"/>
<text xml:space="preserve" text-anchor="middle" x="128" y="-7.25" font-family="Helvetica,sans-Serif" font-size="10.00">cstdint</text>
</a>
</g>
</g>
<!-- Node1&#45;&gt;Node3 -->
<g id="edge2_Node000001_Node000003" class="edge">
<title>Node1&#45;&gt;Node3</title>
<g id="a_edge2_Node000001_Node000003"><a xlink:title=" ">
<path fill="none" stroke="#63b8ff" d="M99.25,-56.44C104.26,-48.58 110.34,-39.06 115.61,-30.79"/>
<polygon fill="#63b8ff" stroke="#63b8ff" points="118.48,-32.81 120.91,-22.49 112.58,-29.04 118.48,-32.81"/>
</a>
</g>
</g>
</g>
</svg>
