<?xml version="1.0" encoding="UTF-8" standalone="no"?>
<!DOCTYPE svg PUBLIC "-//W3C//DTD SVG 1.1//EN"
 "http://www.w3.org/Graphics/SVG/1.1/DTD/svg11.dtd">
<!-- Generated by graphviz version 14.1.5 (0)
 -->
<!-- Title: Source/TactixSystems/Public/Cover/FTactixCoverSystem.h Pages: 1 -->
<svg width="952pt" height="193pt"
 viewBox="0.00 0.00 952.00 193.00" xmlns="http://www.w3.org/2000/svg" xmlns:xlink="http://www.w3.org/1999/xlink">
<g id="graph0" class="graph" transform="scale(1 1) rotate(0) translate(4 189.25)">
<title>Source/TactixSystems/Public/Cover/FTactixCoverSystem.h</title>
<!-- Node1 -->
<g id="Node000001" class="node">
<title>Node1</title>
<g id="a_Node000001"><a xlink:title="Registry of cover points with claim/release ownership and a &quot;best cover &#160;&#160;&#160;&#160;&#160;&#160;for this situation&quot; que...">
<polygon fill="#999999" stroke="#666666" points="530.62,-185.25 339.88,-185.25 339.88,-151.75 530.62,-151.75 530.62,-185.25"/>
<text xml:space="preserve" text-anchor="start" x="347.88" y="-171.75" font-family="Helvetica,sans-Serif" font-size="10.00">Source/TactixSystems</text>
<text xml:space="preserve" text-anchor="middle" x="435.25" y="-159" font-family="Helvetica,sans-Serif" font-size="10.00">/Public/Cover/FTactixCoverSystem.h</text>
</a>
</g>
</g>
<!-- Node2 -->
<g id="Node000002" class="node">
<title>Node2</title>
<g id="a_Node000002"><a xlink:href="UTactixWorldSubsystem_8h.html" target="_top" xlink:title="Per&#45;world owner of the cover system and influence map shared by every agent in the level.">
<polygon fill="white" stroke="#666666" points="536.62,-115.75 333.88,-115.75 333.88,-82.25 536.62,-82.25 536.62,-115.75"/>
<text xml:space="preserve" text-anchor="start" x="341.88" y="-102.25" font-family="Helvetica,sans-Serif" font-size="10.00">Source/TactixUE/Public</text>
<text xml:space="preserve" text-anchor="middle" x="435.25" y="-89.5" font-family="Helvetica,sans-Serif" font-size="10.00">/Subsystem/UTactixWorldSubsystem.h</text>
</a>
</g>
</g>
<!-- Node1&#45;&gt;Node2 -->
<g id="edge1_Node000001_Node000002" class="edge">
<title>Node1&#45;&gt;Node2</title>
<g id="a_edge1_Node000001_Node000002"><a xlink:title=" ">
<path fill="none" stroke="#63b8ff" d="M435.25,-140.06C435.25,-131.84 435.25,-123.09 435.25,-115.88"/>
<polygon fill="#63b8ff" stroke="#63b8ff" points="431.75,-139.99 435.25,-149.99 438.75,-139.99 431.75,-139.99"/>
</a>
</g>
</g>
<!-- Node3 -->
<g id="Node000003" class="node">
<title>Node3</title>
<g id="a_Node000003"><a xlink:href="UTactixBTService__InfluenceQuery_8cpp.html" target="_top" xlink:title="Implements the influence&#45;sampling BT service.">
<polygon fill="white" stroke="#666666" points="170.5,-46.25 0,-46.25 0,0 170.5,0 170.5,-46.25"/>
<text xml:space="preserve" text-anchor="start" x="8" y="-32.75" font-family="Helvetica,sans-Serif" font-size="10.00">Source/TactixUE/Private</text>
<text xml:space="preserve" text-anchor="start" x="8" y="-20" font-family="Helvetica,sans-Serif" font-size="10.00">/BehaviorTree/UTactixBTService</text>
<text xml:space="preserve" text-anchor="middle" x="85.25" y="-7.25" font-family="Helvetica,sans-Serif" font-size="10.00">_InfluenceQuery.cpp</text>
</a>
</g>
</g>
<!-- Node2&#45;&gt;Node3 -->
<g id="edge2_Node000002_Node000003" class="edge">
<title>Node2&#45;&gt;Node3</title>
<g id="a_edge2_Node000002_Node000003"><a xlink:title=" ">
<path fill="none" stroke="#63b8ff" d="M340.44,-79.58C292.12,-70 232.47,-57.89 179.25,-46.25 176.47,-45.64 173.64,-45.02 170.78,-44.38"/>
<polygon fill="#63b8ff" stroke="#63b8ff" points="339.55,-82.97 350.04,-81.48 340.9,-76.1 339.55,-82.97"/>
</a>
</g>
</g>
<!-- Node4 -->
<g id="Node000004" class="node">
<title>Node4</title>
<g id="a_Node000004"><a xlink:href="UTactixBTTask__ClaimCover_8cpp.html" target="_top" xlink:title="Implements the cover query/claim BT task: build the query from agent and blackboard state,...">
<polygon fill="white" stroke="#666666" points="344.38,-46.25 188.12,-46.25 188.12,0 344.38,0 344.38,-46.25"/>
<text xml:space="preserve" text-anchor="start" x="196.12" y="-32.75" font-family="Helvetica,sans-Serif" font-size="10.00">Source/TactixUE/Private</text>
<text xml:space="preserve" text-anchor="start" x="196.12" y="-20" font-family="Helvetica,sans-Serif" font-size="10.00">/BehaviorTree/UTactixBTTask</text>
<text xml:space="preserve" text-anchor="middle" x="266.25" y="-7.25" font-family="Helvetica,sans-Serif" font-size="10.00">_ClaimCover.cpp</text>
</a>
</g>
</g>
<!-- Node2&#45;&gt;Node4 -->
<g id="edge3_Node000002_Node000004" class="edge">
<title>Node2&#45;&gt;Node4</title>
<g id="a_edge3_Node000002_Node000004"><a xlink:title=" ">
<path fill="none" stroke="#63b8ff" d="M387.85,-77.28C366.09,-67.77 340.25,-56.47 317.99,-46.74"/>
<polygon fill="#63b8ff" stroke="#63b8ff" points="386.21,-80.38 396.78,-81.18 389.01,-73.97 386.21,-80.38"/>
</a>
</g>
</g>
<!-- Node5 -->
<g id="Node000005" class="node">
<title>Node5</title>
<g id="a_Node000005"><a xlink:href="UTactixEQSGenerator__Cover_8cpp.html" target="_top" xlink:title="Implements the cover EQS generator: emit each registered cover point as a point item.">
<polygon fill="white" stroke="#666666" points="508.12,-46.25 362.38,-46.25 362.38,0 508.12,0 508.12,-46.25"/>
<text xml:space="preserve" text-anchor="start" x="370.38" y="-32.75" font-family="Helvetica,sans-Serif" font-size="10.00">Source/TactixUE/Private</text>
<text xml:space="preserve" text-anchor="start" x="370.38" y="-20" font-family="Helvetica,sans-Serif" font-size="10.00">/EQS/UTactixEQSGenerator</text>
<text xml:space="preserve" text-anchor="middle" x="435.25" y="-7.25" font-family="Helvetica,sans-Serif" font-size="10.00">_Cover.cpp</text>
</a>
</g>
</g>
<!-- Node2&#45;&gt;Node5 -->
<g id="edge4_Node000002_Node000005" class="edge">
<title>Node2&#45;&gt;Node5</title>
<g id="a_edge4_Node000002_Node000005"><a xlink:title=" ">
<path fill="none" stroke="#63b8ff" d="M435.25,-70.64C435.25,-62.71 435.25,-54.16 435.25,-46.57"/>
<polygon fill="#63b8ff" stroke="#63b8ff" points="431.75,-70.46 435.25,-80.46 438.75,-70.46 431.75,-70.46"/>
</a>
</g>
</g>
<!-- Node6 -->
<g id="Node000006" class="node">
<title>Node6</title>
<g id="a_Node000006"><a xlink:href="UTactixEQSTest__Influence_8cpp.html" target="_top" xlink:title="Implements the influence EQS test: sample the map per item and score it.">
<polygon fill="white" stroke="#666666" points="712.38,-39.88 526.12,-39.88 526.12,-6.38 712.38,-6.38 712.38,-39.88"/>
<text xml:space="preserve" text-anchor="start" x="534.12" y="-26.38" font-family="Helvetica,sans-Serif" font-size="10.00">Source/TactixUE/Private</text>
<text xml:space="preserve" text-anchor="middle" x="619.25" y="-13.62" font-family="Helvetica,sans-Serif" font-size="10.00">/EQS/UTactixEQSTest_Influence.cpp</text>
</a>
</g>
</g>
<!-- Node2&#45;&gt;Node6 -->
<g id="edge5_Node000002_Node000006" class="edge">
<title>Node2&#45;&gt;Node6</title>
<g id="a_edge5_Node000002_Node000006"><a xlink:title=" ">
<path fill="none" stroke="#63b8ff" d="M486.07,-77.59C515.36,-65.84 551.66,-51.26 578.96,-40.3"/>
<polygon fill="#63b8ff" stroke="#63b8ff" points="485.01,-74.25 477.03,-81.22 487.62,-80.75 485.01,-74.25"/>
</a>
</g>
</g>
<!-- Node7 -->
<g id="Node000007" class="node">
<title>Node7</title>
<g id="a_Node000007"><a xlink:href="UTactixWorldSubsystem_8cpp.html" target="_top" xlink:title="Implements the world subsystem: the soft cover&#45;reservation layer.">
<polygon fill="white" stroke="#666666" points="944.25,-39.88 730.25,-39.88 730.25,-6.38 944.25,-6.38 944.25,-39.88"/>
<text xml:space="preserve" text-anchor="start" x="738.25" y="-26.38" font-family="Helvetica,sans-Serif" font-size="10.00">Source/TactixUE/Private</text>
<text xml:space="preserve" text-anchor="middle" x="837.25" y="-13.62" font-family="Helvetica,sans-Serif" font-size="10.00">/Subsystem/UTactixWorldSubsystem.cpp</text>
</a>
</g>
</g>
<!-- Node2&#45;&gt;Node7 -->
<g id="edge6_Node000002_Node000007" class="edge">
<title>Node2&#45;&gt;Node7</title>
<g id="a_edge6_Node000002_Node000007"><a xlink:title=" ">
<path fill="none" stroke="#63b8ff" d="M537.18,-79.8C591.8,-69.98 660.22,-57.59 721.25,-46.25 731.43,-44.36 742.11,-42.35 752.69,-40.35"/>
<polygon fill="#63b8ff" stroke="#63b8ff" points="536.81,-76.31 527.59,-81.52 538.05,-83.2 536.81,-76.31"/>
</a>
</g>
</g>
</g>
</svg>
