<?xml version="1.0" encoding="UTF-8" standalone="no"?>
<!DOCTYPE svg PUBLIC "-//W3C//DTD SVG 1.1//EN"
 "http://www.w3.org/Graphics/SVG/1.1/DTD/svg11.dtd">
<!-- Generated by graphviz version 14.1.5 (0)
 -->
<!-- Title: Source/TactixSystems/Public/Utility/FTactixConsideration.h Pages: 1 -->
<svg width="341pt" height="155pt"
 viewBox="0.00 0.00 341.00 155.00" xmlns="http://www.w3.org/2000/svg" xmlns:xlink="http://www.w3.org/1999/xlink">
<g id="graph0" class="graph" transform="scale(1 1) rotate(0) translate(4 151)">
<title>Source/TactixSystems/Public/Utility/FTactixConsideration.h</title>
<!-- Node1 -->
<g id="Node000001" class="node">
<title>Node1</title>
<g id="a_Node000001"><a xlink:title="The standard consideration: pull one number out of the context, run it through a response curve.">
<polygon fill="#999999" stroke="#666666" points="194.5,-147 0,-147 0,-113.5 194.5,-113.5 194.5,-147"/>
<text xml:space="preserve" text-anchor="start" x="8" y="-133.5" font-family="Helvetica,sans-Serif" font-size="10.00">Source/TactixSystems</text>
<text xml:space="preserve" text-anchor="middle" x="97.25" y="-120.75" font-family="Helvetica,sans-Serif" font-size="10.00">/Public/Utility/FTactixConsideration.h</text>
</a>
</g>
</g>
<!-- Node2 -->
<g id="Node000002" class="node">
<title>Node2</title>
<g id="a_Node000002"><a xlink:href="TactixApi_8h.html" target="_top" xlink:title="Export macros, compiler attributes and version constants shared by every Tactix module.">
<polygon fill="white" stroke="#666666" points="131.88,-20.75 62.62,-20.75 62.62,0 131.88,0 131.88,-20.75"/>
<text xml:space="preserve" text-anchor="middle" x="97.25" y="-7.25" font-family="Helvetica,sans-Serif" font-size="10.00">TactixApi.h</text>
</a>
</g>
</g>
<!-- Node1&#45;&gt;Node2 -->
<g id="edge1_Node000001_Node000002" class="edge">
<title>Node1&#45;&gt;Node2</title>
<g id="a_edge1_Node000001_Node000002"><a xlink:title=" ">
<path fill="none" stroke="#63b8ff" d="M51.44,-113.07C23.1,-100.29 -5.33,-80.67 9.25,-56.75 18.72,-41.22 35.39,-30.77 51.7,-23.86"/>
<polygon fill="#63b8ff" stroke="#63b8ff" points="52.78,-27.2 60.87,-20.36 50.28,-20.66 52.78,-27.2"/>
</a>
</g>
</g>
<!-- Node3 -->
<g id="Node000003" class="node">
<title>Node3</title>
<g id="a_Node000003"><a xlink:href="TactixCurve_8h.html" target="_top" xlink:title="Response curves that turn a raw input into a normalised utility score.">
<polygon fill="white" stroke="#666666" points="332.75,-77.5 193.75,-77.5 193.75,-56.75 332.75,-56.75 332.75,-77.5"/>
<text xml:space="preserve" text-anchor="middle" x="263.25" y="-64" font-family="Helvetica,sans-Serif" font-size="10.00">Foundation/TactixCurve.h</text>
</a>
</g>
</g>
<!-- Node1&#45;&gt;Node3 -->
<g id="edge2_Node000001_Node000003" class="edge">
<title>Node1&#45;&gt;Node3</title>
<g id="a_edge2_Node000001_Node000003"><a xlink:title=" ">
<path fill="none" stroke="#63b8ff" d="M141.3,-113.03C167.74,-103.29 201,-91.05 226.1,-81.8"/>
<polygon fill="#63b8ff" stroke="#63b8ff" points="227.07,-85.18 235.24,-78.44 224.65,-78.61 227.07,-85.18"/>
</a>
</g>
</g>
<!-- Node5 -->
<g id="Node000005" class="node">
<title>Node5</title>
<g id="a_Node000005"><a xlink:href="ITactixConsideration_8h.html" target="_top" xlink:title="Interface for a single Utility AI consideration: one normalised factor in an action&#39;s overall score.">
<polygon fill="white" stroke="#666666" points="175.75,-77.5 18.75,-77.5 18.75,-56.75 175.75,-56.75 175.75,-77.5"/>
<text xml:space="preserve" text-anchor="middle" x="97.25" y="-64" font-family="Helvetica,sans-Serif" font-size="10.00">Utility/ITactixConsideration.h</text>
</a>
</g>
</g>
<!-- Node1&#45;&gt;Node5 -->
<g id="edge5_Node000001_Node000005" class="edge">
<title>Node1&#45;&gt;Node5</title>
<g id="a_edge5_Node000001_Node000005"><a xlink:title=" ">
<path fill="none" stroke="#63b8ff" d="M97.25,-113.19C97.25,-105.85 97.25,-97.07 97.25,-89.21"/>
<polygon fill="#63b8ff" stroke="#63b8ff" points="100.75,-89.48 97.25,-79.48 93.75,-89.48 100.75,-89.48"/>
</a>
</g>
</g>
<!-- Node3&#45;&gt;Node2 -->
<g id="edge3_Node000003_Node000002" class="edge">
<title>Node3&#45;&gt;Node2</title>
<g id="a_edge3_Node000003_Node000002"><a xlink:title=" ">
<path fill="none" stroke="#63b8ff" d="M233.57,-56.34C206.86,-47.53 167.38,-34.5 137.77,-24.74"/>
<polygon fill="#63b8ff" stroke="#63b8ff" points="138.98,-21.45 128.39,-21.64 136.79,-28.1 138.98,-21.45"/>
</a>
</g>
</g>
<!-- Node4 -->
<g id="Node000004" class="node">
<title>Node4</title>
<g id="a_Node000004"><a xlink:title=" ">
<polygon fill="#e0e0e0" stroke="#999999" points="287.75,-20.75 238.75,-20.75 238.75,0 287.75,0 287.75,-20.75"/>
<text xml:space="preserve" text-anchor="middle" x="263.25" y="-7.25" font-family="Helvetica,sans-Serif" font-size="10.00">cstdint</text>
</a>
</g>
</g>
<!-- Node3&#45;&gt;Node4 -->
<g id="edge4_Node000003_Node000004" class="edge">
<title>Node3&#45;&gt;Node4</title>
<g id="a_edge4_Node000003_Node000004"><a xlink:title=" ">
<path fill="none" stroke="#63b8ff" d="M263.25,-56.34C263.25,-49.72 263.25,-40.72 263.25,-32.52"/>
<polygon fill="#63b8ff" stroke="#63b8ff" points="266.75,-32.59 263.25,-22.59 259.75,-32.59 266.75,-32.59"/>
</a>
</g>
</g>
<!-- Node5&#45;&gt;Node2 -->
<g id="edge6_Node000005_Node000002" class="edge">
<title>Node5&#45;&gt;Node2</title>
<g id="a_edge6_Node000005_Node000002"><a xlink:title=" ">
<path fill="none" stroke="#63b8ff" d="M97.25,-56.34C97.25,-49.72 97.25,-40.72 97.25,-32.52"/>
<polygon fill="#63b8ff" stroke="#63b8ff" points="100.75,-32.59 97.25,-22.59 93.75,-32.59 100.75,-32.59"/>
</a>
</g>
</g>
</g>
</svg>
