<?xml version="1.0" encoding="UTF-8" standalone="no"?>
<!DOCTYPE svg PUBLIC "-//W3C//DTD SVG 1.1//EN"
 "http://www.w3.org/Graphics/SVG/1.1/DTD/svg11.dtd">
<!-- Generated by graphviz version 14.1.5 (0)
 -->
<!-- Title: Source/TactixSystems/Public/GOAP/FTactixGOAPPlanner.h Pages: 1 -->
<svg width="1712pt" height="193pt"
 viewBox="0.00 0.00 1712.00 193.00" xmlns="http://www.w3.org/2000/svg" xmlns:xlink="http://www.w3.org/1999/xlink">
<g id="graph0" class="graph" transform="scale(1 1) rotate(0) translate(4 189.25)">
<title>Source/TactixSystems/Public/GOAP/FTactixGOAPPlanner.h</title>
<!-- Node1 -->
<g id="Node000001" class="node">
<title>Node1</title>
<g id="a_Node000001"><a xlink:title="A* planner over the GOAP world&#45;state graph.">
<polygon fill="#999999" stroke="#666666" points="638.75,-185.25 450.25,-185.25 450.25,-151.75 638.75,-151.75 638.75,-185.25"/>
<text xml:space="preserve" text-anchor="start" x="458.25" y="-171.75" font-family="Helvetica,sans-Serif" font-size="10.00">Source/TactixSystems</text>
<text xml:space="preserve" text-anchor="middle" x="544.5" y="-159" font-family="Helvetica,sans-Serif" font-size="10.00">/Public/GOAP/FTactixGOAPPlanner.h</text>
</a>
</g>
</g>
<!-- Node2 -->
<g id="Node000002" class="node">
<title>Node2</title>
<g id="a_Node000002"><a xlink:href="FTactixVisualDebugger_8h.html" target="_top" xlink:title="Static helpers that draw per&#45;agent debug overlays in the world.">
<polygon fill="white" stroke="#666666" points="325.75,-115.75 155.25,-115.75 155.25,-82.25 325.75,-82.25 325.75,-115.75"/>
<text xml:space="preserve" text-anchor="start" x="163.25" y="-102.25" font-family="Helvetica,sans-Serif" font-size="10.00">Source/TactixDebug</text>
<text xml:space="preserve" text-anchor="middle" x="240.5" y="-89.5" font-family="Helvetica,sans-Serif" font-size="10.00">/Public/FTactixVisualDebugger.h</text>
</a>
</g>
</g>
<!-- Node1&#45;&gt;Node2 -->
<g id="edge1_Node000001_Node000002" class="edge">
<title>Node1&#45;&gt;Node2</title>
<g id="a_edge1_Node000001_Node000002"><a xlink:title=" ">
<path fill="none" stroke="#63b8ff" d="M460.51,-148.85C414.4,-138.61 357.77,-126.04 313.51,-116.21"/>
<polygon fill="#63b8ff" stroke="#63b8ff" points="459.69,-152.25 470.21,-151 461.2,-145.42 459.69,-152.25"/>
</a>
</g>
</g>
<!-- Node4 -->
<g id="Node000004" class="node">
<title>Node4</title>
<g id="a_Node000004"><a xlink:href="FTactixGOAPPlanner_8cpp.html" target="_top" xlink:title="A* implementation for Tactix::FTactixGOAPPlanner.">
<polygon fill="white" stroke="#666666" points="647,-115.75 442,-115.75 442,-82.25 647,-82.25 647,-115.75"/>
<text xml:space="preserve" text-anchor="start" x="450" y="-102.25" font-family="Helvetica,sans-Serif" font-size="10.00">Source/TactixSystems</text>
<text xml:space="preserve" text-anchor="middle" x="544.5" y="-89.5" font-family="Helvetica,sans-Serif" font-size="10.00">/Private/GOAP/FTactixGOAPPlanner.cpp</text>
</a>
</g>
</g>
<!-- Node1&#45;&gt;Node4 -->
<g id="edge3_Node000001_Node000004" class="edge">
<title>Node1&#45;&gt;Node4</title>
<g id="a_edge3_Node000001_Node000004"><a xlink:title=" ">
<path fill="none" stroke="#63b8ff" d="M544.5,-140.06C544.5,-131.84 544.5,-123.09 544.5,-115.88"/>
<polygon fill="#63b8ff" stroke="#63b8ff" points="541,-139.99 544.5,-149.99 548,-139.99 541,-139.99"/>
</a>
</g>
</g>
<!-- Node5 -->
<g id="Node000005" class="node">
<title>Node5</title>
<g id="a_Node000005"><a xlink:href="ATactixAIController_8h.html" target="_top" xlink:title="Base AIController for Tactix&#45;aware pawns.">
<polygon fill="white" stroke="#666666" points="884.75,-115.75 714.25,-115.75 714.25,-82.25 884.75,-82.25 884.75,-115.75"/>
<text xml:space="preserve" text-anchor="start" x="722.25" y="-102.25" font-family="Helvetica,sans-Serif" font-size="10.00">Source/TactixUE/Public</text>
<text xml:space="preserve" text-anchor="middle" x="799.5" y="-89.5" font-family="Helvetica,sans-Serif" font-size="10.00">/Controller/ATactixAIController.h</text>
</a>
</g>
</g>
<!-- Node1&#45;&gt;Node5 -->
<g id="edge4_Node000001_Node000005" class="edge">
<title>Node1&#45;&gt;Node5</title>
<g id="a_edge4_Node000001_Node000005"><a xlink:title=" ">
<path fill="none" stroke="#63b8ff" d="M616.7,-148.39C655.13,-138.22 701.88,-125.84 738.48,-116.15"/>
<polygon fill="#63b8ff" stroke="#63b8ff" points="615.81,-145 607.04,-150.94 617.6,-151.77 615.81,-145"/>
</a>
</g>
</g>
<!-- Node3 -->
<g id="Node000003" class="node">
<title>Node3</title>
<g id="a_Node000003"><a xlink:href="FTactixVisualDebugger_8cpp.html" target="_top" xlink:title="Implements the agent debug overlays with debug&#45;draw primitives.">
<polygon fill="white" stroke="#666666" points="187,-39.88 0,-39.88 0,-6.38 187,-6.38 187,-39.88"/>
<text xml:space="preserve" text-anchor="start" x="8" y="-26.38" font-family="Helvetica,sans-Serif" font-size="10.00">Source/TactixDebug</text>
<text xml:space="preserve" text-anchor="middle" x="93.5" y="-13.62" font-family="Helvetica,sans-Serif" font-size="10.00">/Private/FTactixVisualDebugger.cpp</text>
</a>
</g>
</g>
<!-- Node2&#45;&gt;Node3 -->
<g id="edge2_Node000002_Node000003" class="edge">
<title>Node2&#45;&gt;Node3</title>
<g id="a_edge2_Node000002_Node000003"><a xlink:title=" ">
<path fill="none" stroke="#63b8ff" d="M198.04,-76.66C174.98,-65.07 146.92,-50.97 125.68,-40.3"/>
<polygon fill="#63b8ff" stroke="#63b8ff" points="196.38,-79.75 206.89,-81.11 199.52,-73.49 196.38,-79.75"/>
</a>
</g>
</g>
<!-- Node5&#45;&gt;Node3 -->
<g id="edge6_Node000005_Node000003" class="edge">
<title>Node5&#45;&gt;Node3</title>
<g id="a_edge6_Node000005_Node000003"><a xlink:title=" ">
<path fill="none" stroke="#63b8ff" d="M702.89,-86.94C687.39,-85.28 671.51,-83.66 656.5,-82.25 451.89,-63 398.83,-76.1 195.5,-46.25 184.65,-44.66 173.24,-42.58 162.13,-40.34"/>
<polygon fill="#63b8ff" stroke="#63b8ff" points="702.28,-90.39 712.59,-87.98 703.03,-83.43 702.28,-90.39"/>
</a>
</g>
</g>
<!-- Node6 -->
<g id="Node000006" class="node">
<title>Node6</title>
<g id="a_Node000006"><a xlink:href="FTactixGameplayDebuggerCategory_8cpp.html" target="_top" xlink:title="Implements the Gameplay Debugger category: collect agent state, then render it as text lines.">
<polygon fill="white" stroke="#666666" points="392.38,-46.25 204.62,-46.25 204.62,0 392.38,0 392.38,-46.25"/>
<text xml:space="preserve" text-anchor="start" x="212.62" y="-32.75" font-family="Helvetica,sans-Serif" font-size="10.00">Source/TactixDebug</text>
<text xml:space="preserve" text-anchor="start" x="212.62" y="-20" font-family="Helvetica,sans-Serif" font-size="10.00">/Private/FTactixGameplayDebugger</text>
<text xml:space="preserve" text-anchor="middle" x="298.5" y="-7.25" font-family="Helvetica,sans-Serif" font-size="10.00">Category.cpp</text>
</a>
</g>
</g>
<!-- Node5&#45;&gt;Node6 -->
<g id="edge5_Node000005_Node000006" class="edge">
<title>Node5&#45;&gt;Node6</title>
<g id="a_edge5_Node000005_Node000006"><a xlink:title=" ">
<path fill="none" stroke="#63b8ff" d="M702.63,-86.33C603.89,-74.28 457.54,-55.89 401.5,-46.25 398.62,-45.75 395.69,-45.23 392.74,-44.69"/>
<polygon fill="#63b8ff" stroke="#63b8ff" points="701.97,-89.78 712.32,-87.52 702.82,-82.83 701.97,-89.78"/>
</a>
</g>
</g>
<!-- Node7 -->
<g id="Node000007" class="node">
<title>Node7</title>
<g id="a_Node000007"><a xlink:href="UTactixBTDecorator__InCover_8cpp.html" target="_top" xlink:title="Implements the in&#45;cover decorator condition.">
<polygon fill="white" stroke="#666666" points="592.75,-46.25 410.25,-46.25 410.25,0 592.75,0 592.75,-46.25"/>
<text xml:space="preserve" text-anchor="start" x="418.25" y="-32.75" font-family="Helvetica,sans-Serif" font-size="10.00">Source/TactixUE/Private</text>
<text xml:space="preserve" text-anchor="start" x="418.25" y="-20" font-family="Helvetica,sans-Serif" font-size="10.00">/BehaviorTree/UTactixBTDecorator</text>
<text xml:space="preserve" text-anchor="middle" x="501.5" y="-7.25" font-family="Helvetica,sans-Serif" font-size="10.00">_InCover.cpp</text>
</a>
</g>
</g>
<!-- Node5&#45;&gt;Node7 -->
<g id="edge7_Node000005_Node000007" class="edge">
<title>Node5&#45;&gt;Node7</title>
<g id="a_edge7_Node000005_Node000007"><a xlink:title=" ">
<path fill="none" stroke="#63b8ff" d="M723.14,-79.07C683.38,-69.21 634.48,-57.09 592.74,-46.74"/>
<polygon fill="#63b8ff" stroke="#63b8ff" points="722.09,-82.41 732.63,-81.42 723.77,-75.62 722.09,-82.41"/>
</a>
</g>
</g>
<!-- Node8 -->
<g id="Node000008" class="node">
<title>Node8</title>
<g id="a_Node000008"><a xlink:href="UTactixBTDecorator__PlanActive_8cpp.html" target="_top" xlink:title="Implements the plan&#45;active decorator condition (valid plan with steps left).">
<polygon fill="white" stroke="#666666" points="793.75,-46.25 611.25,-46.25 611.25,0 793.75,0 793.75,-46.25"/>
<text xml:space="preserve" text-anchor="start" x="619.25" y="-32.75" font-family="Helvetica,sans-Serif" font-size="10.00">Source/TactixUE/Private</text>
<text xml:space="preserve" text-anchor="start" x="619.25" y="-20" font-family="Helvetica,sans-Serif" font-size="10.00">/BehaviorTree/UTactixBTDecorator</text>
<text xml:space="preserve" text-anchor="middle" x="702.5" y="-7.25" font-family="Helvetica,sans-Serif" font-size="10.00">_PlanActive.cpp</text>
</a>
</g>
</g>
<!-- Node5&#45;&gt;Node8 -->
<g id="edge8_Node000005_Node000008" class="edge">
<title>Node5&#45;&gt;Node8</title>
<g id="a_edge8_Node000005_Node000008"><a xlink:title=" ">
<path fill="none" stroke="#63b8ff" d="M769.34,-75.03C757.44,-65.97 743.81,-55.58 731.97,-46.57"/>
<polygon fill="#63b8ff" stroke="#63b8ff" points="767.17,-77.78 777.25,-81.05 771.41,-72.21 767.17,-77.78"/>
</a>
</g>
</g>
<!-- Node9 -->
<g id="Node000009" class="node">
<title>Node9</title>
<g id="a_Node000009"><a xlink:href="UTactixBTService__InfluenceQuery_8cpp.html" target="_top" xlink:title="Implements the influence&#45;sampling BT service.">
<polygon fill="white" stroke="#666666" points="982.75,-46.25 812.25,-46.25 812.25,0 982.75,0 982.75,-46.25"/>
<text xml:space="preserve" text-anchor="start" x="820.25" y="-32.75" font-family="Helvetica,sans-Serif" font-size="10.00">Source/TactixUE/Private</text>
<text xml:space="preserve" text-anchor="start" x="820.25" y="-20" font-family="Helvetica,sans-Serif" font-size="10.00">/BehaviorTree/UTactixBTService</text>
<text xml:space="preserve" text-anchor="middle" x="897.5" y="-7.25" font-family="Helvetica,sans-Serif" font-size="10.00">_InfluenceQuery.cpp</text>
</a>
</g>
</g>
<!-- Node5&#45;&gt;Node9 -->
<g id="edge9_Node000005_Node000009" class="edge">
<title>Node5&#45;&gt;Node9</title>
<g id="a_edge9_Node000005_Node000009"><a xlink:title=" ">
<path fill="none" stroke="#63b8ff" d="M829.61,-75.3C841.72,-66.17 855.65,-55.67 867.73,-46.57"/>
<polygon fill="#63b8ff" stroke="#63b8ff" points="827.85,-72.24 821.97,-81.06 832.07,-77.83 827.85,-72.24"/>
</a>
</g>
</g>
<!-- Node10 -->
<g id="Node000010" class="node">
<title>Node10</title>
<g id="a_Node000010"><a xlink:href="UTactixBTTask__ClaimCover_8cpp.html" target="_top" xlink:title="Implements the cover query/claim BT task: build the query from agent and blackboard state,...">
<polygon fill="white" stroke="#666666" points="1156.62,-46.25 1000.38,-46.25 1000.38,0 1156.62,0 1156.62,-46.25"/>
<text xml:space="preserve" text-anchor="start" x="1008.38" y="-32.75" font-family="Helvetica,sans-Serif" font-size="10.00">Source/TactixUE/Private</text>
<text xml:space="preserve" text-anchor="start" x="1008.38" y="-20" font-family="Helvetica,sans-Serif" font-size="10.00">/BehaviorTree/UTactixBTTask</text>
<text xml:space="preserve" text-anchor="middle" x="1078.5" y="-7.25" font-family="Helvetica,sans-Serif" font-size="10.00">_ClaimCover.cpp</text>
</a>
</g>
</g>
<!-- Node5&#45;&gt;Node10 -->
<g id="edge10_Node000005_Node000010" class="edge">
<title>Node5&#45;&gt;Node10</title>
<g id="a_edge10_Node000005_Node000010"><a xlink:title=" ">
<path fill="none" stroke="#63b8ff" d="M871.8,-78.85C911.08,-68.46 959.68,-55.59 999.89,-44.94"/>
<polygon fill="#63b8ff" stroke="#63b8ff" points="870.96,-75.46 862.19,-81.4 872.75,-82.22 870.96,-75.46"/>
</a>
</g>
</g>
<!-- Node11 -->
<g id="Node000011" class="node">
<title>Node11</title>
<g id="a_Node000011"><a xlink:href="UTactixBTTask__ExecutePlan_8cpp.html" target="_top" xlink:title="Implements step&#45;by&#45;step plan execution for the BT task.">
<polygon fill="white" stroke="#666666" points="1330.62,-46.25 1174.38,-46.25 1174.38,0 1330.62,0 1330.62,-46.25"/>
<text xml:space="preserve" text-anchor="start" x="1182.38" y="-32.75" font-family="Helvetica,sans-Serif" font-size="10.00">Source/TactixUE/Private</text>
<text xml:space="preserve" text-anchor="start" x="1182.38" y="-20" font-family="Helvetica,sans-Serif" font-size="10.00">/BehaviorTree/UTactixBTTask</text>
<text xml:space="preserve" text-anchor="middle" x="1252.5" y="-7.25" font-family="Helvetica,sans-Serif" font-size="10.00">_ExecutePlan.cpp</text>
</a>
</g>
</g>
<!-- Node5&#45;&gt;Node11 -->
<g id="edge11_Node000005_Node000011" class="edge">
<title>Node5&#45;&gt;Node11</title>
<g id="a_edge11_Node000005_Node000011"><a xlink:title=" ">
<path fill="none" stroke="#63b8ff" d="M896.15,-87.24C970.22,-78.29 1074.77,-64.15 1165.5,-46.25 1168.41,-45.68 1171.36,-45.07 1174.34,-44.43"/>
<polygon fill="#63b8ff" stroke="#63b8ff" points="896,-83.73 886.49,-88.4 896.84,-90.68 896,-83.73"/>
</a>
</g>
</g>
<!-- Node12 -->
<g id="Node000012" class="node">
<title>Node12</title>
<g id="a_Node000012"><a xlink:href="UTactixBTTask__RunUtility_8cpp.html" target="_top" xlink:title="Implements the utility&#45;selection BT task: snapshot the agent, pick the best action,...">
<polygon fill="white" stroke="#666666" points="1504.62,-46.25 1348.38,-46.25 1348.38,0 1504.62,0 1504.62,-46.25"/>
<text xml:space="preserve" text-anchor="start" x="1356.38" y="-32.75" font-family="Helvetica,sans-Serif" font-size="10.00">Source/TactixUE/Private</text>
<text xml:space="preserve" text-anchor="start" x="1356.38" y="-20" font-family="Helvetica,sans-Serif" font-size="10.00">/BehaviorTree/UTactixBTTask</text>
<text xml:space="preserve" text-anchor="middle" x="1426.5" y="-7.25" font-family="Helvetica,sans-Serif" font-size="10.00">_RunUtility.cpp</text>
</a>
</g>
</g>
<!-- Node5&#45;&gt;Node12 -->
<g id="edge12_Node000005_Node000012" class="edge">
<title>Node5&#45;&gt;Node12</title>
<g id="a_edge12_Node000005_Node000012"><a xlink:title=" ">
<path fill="none" stroke="#63b8ff" d="M896.4,-93.2C1004.94,-86.79 1185.81,-72.99 1339.5,-46.25 1342.26,-45.77 1345.07,-45.25 1347.9,-44.69"/>
<polygon fill="#63b8ff" stroke="#63b8ff" points="896.44,-89.7 886.66,-93.77 896.85,-96.68 896.44,-89.7"/>
</a>
</g>
</g>
<!-- Node13 -->
<g id="Node000013" class="node">
<title>Node13</title>
<g id="a_Node000013"><a xlink:href="ATactixAIController_8cpp.html" target="_top" xlink:title="Implements the Tactix AIController: scratch arena ownership, handle assignment on possess,...">
<polygon fill="white" stroke="#666666" points="1704.38,-39.88 1522.62,-39.88 1522.62,-6.38 1704.38,-6.38 1704.38,-39.88"/>
<text xml:space="preserve" text-anchor="start" x="1530.62" y="-26.38" font-family="Helvetica,sans-Serif" font-size="10.00">Source/TactixUE/Private</text>
<text xml:space="preserve" text-anchor="middle" x="1613.5" y="-13.62" font-family="Helvetica,sans-Serif" font-size="10.00">/Controller/ATactixAIController.cpp</text>
</a>
</g>
</g>
<!-- Node5&#45;&gt;Node13 -->
<g id="edge13_Node000005_Node000013" class="edge">
<title>Node5&#45;&gt;Node13</title>
<g id="a_edge13_Node000005_Node000013"><a xlink:title=" ">
<path fill="none" stroke="#63b8ff" d="M896.44,-95.44C1034.22,-90.79 1294.3,-78.27 1513.5,-46.25 1524.23,-44.68 1535.53,-42.61 1546.51,-40.35"/>
<polygon fill="#63b8ff" stroke="#63b8ff" points="896.5,-91.93 886.63,-95.76 896.74,-98.93 896.5,-91.93"/>
</a>
</g>
</g>
</g>
</svg>
