<?xml version="1.0" encoding="UTF-8" standalone="no"?>
<!DOCTYPE svg PUBLIC "-//W3C//DTD SVG 1.1//EN"
 "http://www.w3.org/Graphics/SVG/1.1/DTD/svg11.dtd">
<!-- Generated by graphviz version 14.1.5 (0)
 -->
<!-- Title: Source/TactixSystems/Public/Utility/FTactixUtilitySelector.h Pages: 1 -->
<svg width="387pt" height="168pt"
 viewBox="0.00 0.00 387.00 168.00" xmlns="http://www.w3.org/2000/svg" xmlns:xlink="http://www.w3.org/1999/xlink">
<g id="graph0" class="graph" transform="scale(1 1) rotate(0) translate(4 163.75)">
<title>Source/TactixSystems/Public/Utility/FTactixUtilitySelector.h</title>
<!-- Node1 -->
<g id="Node000001" class="node">
<title>Node1</title>
<g id="a_Node000001"><a xlink:title="Picks the highest&#45;scoring action, and computes a combined consideration score with compensation for t...">
<polygon fill="#999999" stroke="#666666" points="225.07,-159.75 77.07,-159.75 77.07,-113.5 225.07,-113.5 225.07,-159.75"/>
<text xml:space="preserve" text-anchor="start" x="85.07" y="-146.25" font-family="Helvetica,sans-Serif" font-size="10.00">Source/TactixSystems</text>
<text xml:space="preserve" text-anchor="start" x="85.07" y="-133.5" font-family="Helvetica,sans-Serif" font-size="10.00">/Public/Utility/FTactixUtility</text>
<text xml:space="preserve" text-anchor="middle" x="151.07" y="-120.75" font-family="Helvetica,sans-Serif" font-size="10.00">Selector.h</text>
</a>
</g>
</g>
<!-- Node2 -->
<g id="Node000002" class="node">
<title>Node2</title>
<g id="a_Node000002"><a xlink:href="TactixApi_8h.html" target="_top" xlink:title="Export macros, compiler attributes and version constants shared by every Tactix module.">
<polygon fill="white" stroke="#666666" points="107.69,-20.75 38.44,-20.75 38.44,0 107.69,0 107.69,-20.75"/>
<text xml:space="preserve" text-anchor="middle" x="73.07" y="-7.25" font-family="Helvetica,sans-Serif" font-size="10.00">TactixApi.h</text>
</a>
</g>
</g>
<!-- Node1&#45;&gt;Node2 -->
<g id="edge1_Node000001_Node000002" class="edge">
<title>Node1&#45;&gt;Node2</title>
<g id="a_edge1_Node000001_Node000002"><a xlink:title=" ">
<path fill="none" stroke="#63b8ff" d="M76.81,-124.27C49.23,-116.05 20.66,-101.9 4.07,-77.5 -9.67,-57.3 15.21,-38.47 38.84,-26.11"/>
<polygon fill="#63b8ff" stroke="#63b8ff" points="40.32,-29.28 47.76,-21.73 37.24,-22.99 40.32,-29.28"/>
</a>
</g>
</g>
<!-- Node3 -->
<g id="Node000003" class="node">
<title>Node3</title>
<g id="a_Node000003"><a xlink:href="ITactixAction_8h.html" target="_top" xlink:title="Interface for a Utility AI action: a thing the agent can choose to do, with a score and an execution ...">
<polygon fill="white" stroke="#666666" points="133.19,-77.5 12.94,-77.5 12.94,-56.75 133.19,-56.75 133.19,-77.5"/>
<text xml:space="preserve" text-anchor="middle" x="73.07" y="-64" font-family="Helvetica,sans-Serif" font-size="10.00">Utility/ITactixAction.h</text>
</a>
</g>
</g>
<!-- Node1&#45;&gt;Node3 -->
<g id="edge2_Node000001_Node000003" class="edge">
<title>Node1&#45;&gt;Node3</title>
<g id="a_edge2_Node000001_Node000003"><a xlink:title=" ">
<path fill="none" stroke="#63b8ff" d="M125.1,-113.15C114.62,-104.08 102.72,-93.79 92.95,-85.33"/>
<polygon fill="#63b8ff" stroke="#63b8ff" points="95.35,-82.78 85.5,-78.88 90.77,-88.07 95.35,-82.78"/>
</a>
</g>
</g>
<!-- Node4 -->
<g id="Node000004" class="node">
<title>Node4</title>
<g id="a_Node000004"><a xlink:href="ITactixConsideration_8h.html" target="_top" xlink:title="Interface for a single Utility AI consideration: one normalised factor in an action&#39;s overall score.">
<polygon fill="white" stroke="#666666" points="308.57,-77.5 151.57,-77.5 151.57,-56.75 308.57,-56.75 308.57,-77.5"/>
<text xml:space="preserve" text-anchor="middle" x="230.07" y="-64" font-family="Helvetica,sans-Serif" font-size="10.00">Utility/ITactixConsideration.h</text>
</a>
</g>
</g>
<!-- Node1&#45;&gt;Node4 -->
<g id="edge4_Node000001_Node000004" class="edge">
<title>Node1&#45;&gt;Node4</title>
<g id="a_edge4_Node000001_Node000004"><a xlink:title=" ">
<path fill="none" stroke="#63b8ff" d="M177.37,-113.15C187.99,-104.08 200.03,-93.79 209.93,-85.33"/>
<polygon fill="#63b8ff" stroke="#63b8ff" points="212.16,-88.03 217.49,-78.87 207.61,-82.71 212.16,-88.03"/>
</a>
</g>
</g>
<!-- Node5 -->
<g id="Node000005" class="node">
<title>Node5</title>
<g id="a_Node000005"><a xlink:title=" ">
<polygon fill="#e0e0e0" stroke="#999999" points="379.07,-77.5 327.07,-77.5 327.07,-56.75 379.07,-56.75 379.07,-77.5"/>
<text xml:space="preserve" text-anchor="middle" x="353.07" y="-64" font-family="Helvetica,sans-Serif" font-size="10.00">cstddef</text>
</a>
</g>
</g>
<!-- Node1&#45;&gt;Node5 -->
<g id="edge6_Node000001_Node000005" class="edge">
<title>Node1&#45;&gt;Node5</title>
<g id="a_edge6_Node000001_Node000005"><a xlink:title=" ">
<path fill="none" stroke="#63b8ff" d="M218.61,-113.05C251.17,-102.17 288.96,-89.55 316.17,-80.45"/>
<polygon fill="#63b8ff" stroke="#63b8ff" points="316.96,-83.88 325.34,-77.39 314.74,-77.24 316.96,-83.88"/>
</a>
</g>
</g>
<!-- Node3&#45;&gt;Node2 -->
<g id="edge3_Node000003_Node000002" class="edge">
<title>Node3&#45;&gt;Node2</title>
<g id="a_edge3_Node000003_Node000002"><a xlink:title=" ">
<path fill="none" stroke="#63b8ff" d="M73.07,-56.34C73.07,-49.72 73.07,-40.72 73.07,-32.52"/>
<polygon fill="#63b8ff" stroke="#63b8ff" points="76.57,-32.59 73.07,-22.59 69.57,-32.59 76.57,-32.59"/>
</a>
</g>
</g>
<!-- Node4&#45;&gt;Node2 -->
<g id="edge5_Node000004_Node000002" class="edge">
<title>Node4&#45;&gt;Node2</title>
<g id="a_edge5_Node000004_Node000002"><a xlink:title=" ">
<path fill="none" stroke="#63b8ff" d="M202,-56.34C176.85,-47.57 139.72,-34.62 111.76,-24.87"/>
<polygon fill="#63b8ff" stroke="#63b8ff" points="113.18,-21.66 102.59,-21.67 110.88,-28.27 113.18,-21.66"/>
</a>
</g>
</g>
</g>
</svg>
