<?xml version="1.0" encoding="UTF-8" standalone="no"?>
<!DOCTYPE svg PUBLIC "-//W3C//DTD SVG 1.1//EN"
 "http://www.w3.org/Graphics/SVG/1.1/DTD/svg11.dtd">
<!-- Generated by graphviz version 14.1.5 (0)
 -->
<!-- Title: Source/TactixSystems/Public/Spatial/FTactixInfluenceMap.h Pages: 1 -->
<svg width="1168pt" height="206pt"
 viewBox="0.00 0.00 1168.00 206.00" xmlns="http://www.w3.org/2000/svg" xmlns:xlink="http://www.w3.org/1999/xlink">
<g id="graph0" class="graph" transform="scale(1 1) rotate(0) translate(4 202)">
<title>Source/TactixSystems/Public/Spatial/FTactixInfluenceMap.h</title>
<!-- Node1 -->
<g id="Node000001" class="node">
<title>Node1</title>
<g id="a_Node000001"><a xlink:title="Multi&#45;channel 2D scalar field for spatial reasoning (danger, control, resource, .....">
<polygon fill="#999999" stroke="#666666" points="459.12,-198 293.12,-198 293.12,-151.75 459.12,-151.75 459.12,-198"/>
<text xml:space="preserve" text-anchor="start" x="301.12" y="-184.5" font-family="Helvetica,sans-Serif" font-size="10.00">Source/TactixSystems</text>
<text xml:space="preserve" text-anchor="start" x="301.12" y="-171.75" font-family="Helvetica,sans-Serif" font-size="10.00">/Public/Spatial/FTactixInfluence</text>
<text xml:space="preserve" text-anchor="middle" x="376.12" y="-159" font-family="Helvetica,sans-Serif" font-size="10.00">Map.h</text>
</a>
</g>
</g>
<!-- Node2 -->
<g id="Node000002" class="node">
<title>Node2</title>
<g id="a_Node000002"><a xlink:href="FTactixInfluenceRenderer_8h.html" target="_top" xlink:title="Draws an influence&#45;map channel as a world&#45;space heat grid.">
<polygon fill="white" stroke="#666666" points="276,-115.75 94.25,-115.75 94.25,-82.25 276,-82.25 276,-115.75"/>
<text xml:space="preserve" text-anchor="start" x="102.25" y="-102.25" font-family="Helvetica,sans-Serif" font-size="10.00">Source/TactixDebug</text>
<text xml:space="preserve" text-anchor="middle" x="185.12" y="-89.5" font-family="Helvetica,sans-Serif" font-size="10.00">/Public/FTactixInfluenceRenderer.h</text>
</a>
</g>
</g>
<!-- Node1&#45;&gt;Node2 -->
<g id="edge1_Node000001_Node000002" class="edge">
<title>Node1&#45;&gt;Node2</title>
<g id="a_edge1_Node000001_Node000002"><a xlink:title=" ">
<path fill="none" stroke="#63b8ff" d="M307.28,-147.25C280.44,-136.87 250.55,-125.31 227.06,-116.22"/>
<polygon fill="#63b8ff" stroke="#63b8ff" points="305.78,-150.42 316.37,-150.76 308.31,-143.89 305.78,-150.42"/>
</a>
</g>
</g>
<!-- Node4 -->
<g id="Node000004" class="node">
<title>Node4</title>
<g id="a_Node000004"><a xlink:href="UTactixWorldSubsystem_8h.html" target="_top" xlink:title="Per&#45;world owner of the cover system and influence map shared by every agent in the level.">
<polygon fill="white" stroke="#666666" points="667.5,-115.75 464.75,-115.75 464.75,-82.25 667.5,-82.25 667.5,-115.75"/>
<text xml:space="preserve" text-anchor="start" x="472.75" y="-102.25" font-family="Helvetica,sans-Serif" font-size="10.00">Source/TactixUE/Public</text>
<text xml:space="preserve" text-anchor="middle" x="566.12" y="-89.5" font-family="Helvetica,sans-Serif" font-size="10.00">/Subsystem/UTactixWorldSubsystem.h</text>
</a>
</g>
</g>
<!-- Node1&#45;&gt;Node4 -->
<g id="edge3_Node000001_Node000004" class="edge">
<title>Node1&#45;&gt;Node4</title>
<g id="a_edge3_Node000001_Node000004"><a xlink:title=" ">
<path fill="none" stroke="#63b8ff" d="M444.61,-147.25C471.31,-136.87 501.04,-125.31 524.41,-116.22"/>
<polygon fill="#63b8ff" stroke="#63b8ff" points="443.63,-143.87 435.57,-150.76 446.16,-150.4 443.63,-143.87"/>
</a>
</g>
</g>
<!-- Node3 -->
<g id="Node000003" class="node">
<title>Node3</title>
<g id="a_Node000003"><a xlink:href="FTactixInfluenceRenderer_8cpp.html" target="_top" xlink:title="Implements the influence heat renderer with debug boxes.">
<polygon fill="white" stroke="#666666" points="198.25,-39.88 0,-39.88 0,-6.38 198.25,-6.38 198.25,-39.88"/>
<text xml:space="preserve" text-anchor="start" x="8" y="-26.38" font-family="Helvetica,sans-Serif" font-size="10.00">Source/TactixDebug</text>
<text xml:space="preserve" text-anchor="middle" x="99.12" y="-13.62" font-family="Helvetica,sans-Serif" font-size="10.00">/Private/FTactixInfluenceRenderer.cpp</text>
</a>
</g>
</g>
<!-- Node2&#45;&gt;Node3 -->
<g id="edge2_Node000002_Node000003" class="edge">
<title>Node2&#45;&gt;Node3</title>
<g id="a_edge2_Node000002_Node000003"><a xlink:title=" ">
<path fill="none" stroke="#63b8ff" d="M157.85,-74.57C144.78,-63.34 129.46,-50.19 117.75,-40.12"/>
<polygon fill="#63b8ff" stroke="#63b8ff" points="155.45,-77.12 165.32,-80.98 160.01,-71.81 155.45,-77.12"/>
</a>
</g>
</g>
<!-- Node5 -->
<g id="Node000005" class="node">
<title>Node5</title>
<g id="a_Node000005"><a xlink:href="UTactixBTService__InfluenceQuery_8cpp.html" target="_top" xlink:title="Implements the influence&#45;sampling BT service.">
<polygon fill="white" stroke="#666666" points="386.38,-46.25 215.88,-46.25 215.88,0 386.38,0 386.38,-46.25"/>
<text xml:space="preserve" text-anchor="start" x="223.88" y="-32.75" font-family="Helvetica,sans-Serif" font-size="10.00">Source/TactixUE/Private</text>
<text xml:space="preserve" text-anchor="start" x="223.88" y="-20" font-family="Helvetica,sans-Serif" font-size="10.00">/BehaviorTree/UTactixBTService</text>
<text xml:space="preserve" text-anchor="middle" x="301.12" y="-7.25" font-family="Helvetica,sans-Serif" font-size="10.00">_InfluenceQuery.cpp</text>
</a>
</g>
</g>
<!-- Node4&#45;&gt;Node5 -->
<g id="edge4_Node000004_Node000005" class="edge">
<title>Node4&#45;&gt;Node5</title>
<g id="a_edge4_Node000004_Node000005"><a xlink:title=" ">
<path fill="none" stroke="#63b8ff" d="M497.32,-78.82C462.12,-69.01 419.07,-57 382.26,-46.74"/>
<polygon fill="#63b8ff" stroke="#63b8ff" points="495.94,-82.07 506.51,-81.38 497.82,-75.32 495.94,-82.07"/>
</a>
</g>
</g>
<!-- Node6 -->
<g id="Node000006" class="node">
<title>Node6</title>
<g id="a_Node000006"><a xlink:href="UTactixBTTask__ClaimCover_8cpp.html" target="_top" xlink:title="Implements the cover query/claim BT task: build the query from agent and blackboard state,...">
<polygon fill="white" stroke="#666666" points="560.25,-46.25 404,-46.25 404,0 560.25,0 560.25,-46.25"/>
<text xml:space="preserve" text-anchor="start" x="412" y="-32.75" font-family="Helvetica,sans-Serif" font-size="10.00">Source/TactixUE/Private</text>
<text xml:space="preserve" text-anchor="start" x="412" y="-20" font-family="Helvetica,sans-Serif" font-size="10.00">/BehaviorTree/UTactixBTTask</text>
<text xml:space="preserve" text-anchor="middle" x="482.12" y="-7.25" font-family="Helvetica,sans-Serif" font-size="10.00">_ClaimCover.cpp</text>
</a>
</g>
</g>
<!-- Node4&#45;&gt;Node6 -->
<g id="edge5_Node000004_Node000006" class="edge">
<title>Node4&#45;&gt;Node6</title>
<g id="a_edge5_Node000004_Node000006"><a xlink:title=" ">
<path fill="none" stroke="#63b8ff" d="M539.4,-74.49C529.23,-65.56 517.69,-55.4 507.64,-46.57"/>
<polygon fill="#63b8ff" stroke="#63b8ff" points="536.94,-76.99 546.76,-80.97 541.56,-71.74 536.94,-76.99"/>
</a>
</g>
</g>
<!-- Node7 -->
<g id="Node000007" class="node">
<title>Node7</title>
<g id="a_Node000007"><a xlink:href="UTactixEQSGenerator__Cover_8cpp.html" target="_top" xlink:title="Implements the cover EQS generator: emit each registered cover point as a point item.">
<polygon fill="white" stroke="#666666" points="724,-46.25 578.25,-46.25 578.25,0 724,0 724,-46.25"/>
<text xml:space="preserve" text-anchor="start" x="586.25" y="-32.75" font-family="Helvetica,sans-Serif" font-size="10.00">Source/TactixUE/Private</text>
<text xml:space="preserve" text-anchor="start" x="586.25" y="-20" font-family="Helvetica,sans-Serif" font-size="10.00">/EQS/UTactixEQSGenerator</text>
<text xml:space="preserve" text-anchor="middle" x="651.12" y="-7.25" font-family="Helvetica,sans-Serif" font-size="10.00">_Cover.cpp</text>
</a>
</g>
</g>
<!-- Node4&#45;&gt;Node7 -->
<g id="edge6_Node000004_Node000007" class="edge">
<title>Node4&#45;&gt;Node7</title>
<g id="a_edge6_Node000004_Node000007"><a xlink:title=" ">
<path fill="none" stroke="#63b8ff" d="M593.17,-74.49C603.45,-65.56 615.13,-55.4 625.3,-46.57"/>
<polygon fill="#63b8ff" stroke="#63b8ff" points="590.96,-71.78 585.71,-80.98 595.55,-77.06 590.96,-71.78"/>
</a>
</g>
</g>
<!-- Node8 -->
<g id="Node000008" class="node">
<title>Node8</title>
<g id="a_Node000008"><a xlink:href="UTactixEQSTest__Influence_8cpp.html" target="_top" xlink:title="Implements the influence EQS test: sample the map per item and score it.">
<polygon fill="white" stroke="#666666" points="928.25,-39.88 742,-39.88 742,-6.38 928.25,-6.38 928.25,-39.88"/>
<text xml:space="preserve" text-anchor="start" x="750" y="-26.38" font-family="Helvetica,sans-Serif" font-size="10.00">Source/TactixUE/Private</text>
<text xml:space="preserve" text-anchor="middle" x="835.12" y="-13.62" font-family="Helvetica,sans-Serif" font-size="10.00">/EQS/UTactixEQSTest_Influence.cpp</text>
</a>
</g>
</g>
<!-- Node4&#45;&gt;Node8 -->
<g id="edge7_Node000004_Node000008" class="edge">
<title>Node4&#45;&gt;Node8</title>
<g id="a_edge7_Node000004_Node000008"><a xlink:title=" ">
<path fill="none" stroke="#63b8ff" d="M636.23,-78.75C679.74,-66.8 735,-51.62 776.23,-40.3"/>
<polygon fill="#63b8ff" stroke="#63b8ff" points="635.33,-75.36 626.62,-81.39 637.19,-82.11 635.33,-75.36"/>
</a>
</g>
</g>
<!-- Node9 -->
<g id="Node000009" class="node">
<title>Node9</title>
<g id="a_Node000009"><a xlink:href="UTactixWorldSubsystem_8cpp.html" target="_top" xlink:title="Implements the world subsystem: the soft cover&#45;reservation layer.">
<polygon fill="white" stroke="#666666" points="1160.12,-39.88 946.12,-39.88 946.12,-6.38 1160.12,-6.38 1160.12,-39.88"/>
<text xml:space="preserve" text-anchor="start" x="954.12" y="-26.38" font-family="Helvetica,sans-Serif" font-size="10.00">Source/TactixUE/Private</text>
<text xml:space="preserve" text-anchor="middle" x="1053.12" y="-13.62" font-family="Helvetica,sans-Serif" font-size="10.00">/Subsystem/UTactixWorldSubsystem.cpp</text>
</a>
</g>
</g>
<!-- Node4&#45;&gt;Node9 -->
<g id="edge8_Node000004_Node000009" class="edge">
<title>Node4&#45;&gt;Node9</title>
<g id="a_edge8_Node000004_Node000009"><a xlink:title=" ">
<path fill="none" stroke="#63b8ff" d="M679.04,-83.74C752.66,-74.07 850.76,-60.5 937.12,-46.25 948.05,-44.45 959.52,-42.42 970.83,-40.35"/>
<polygon fill="#63b8ff" stroke="#63b8ff" points="678.86,-80.23 669.4,-85 679.77,-87.17 678.86,-80.23"/>
</a>
</g>
</g>
</g>
</svg>
