<?xml version="1.0" encoding="UTF-8" standalone="no"?>
<!DOCTYPE svg PUBLIC "-//W3C//DTD SVG 1.1//EN"
 "http://www.w3.org/Graphics/SVG/1.1/DTD/svg11.dtd">
<!-- Generated by graphviz version 14.1.5 (0)
 -->
<!-- Title: Source/TactixDebug/Public/FTactixGameplayDebuggerCategory.h Pages: 1 -->
<svg width="278pt" height="111pt"
 viewBox="0.00 0.00 278.00 111.00" xmlns="http://www.w3.org/2000/svg" xmlns:xlink="http://www.w3.org/1999/xlink">
<g id="graph0" class="graph" transform="scale(1 1) rotate(0) translate(4 107)">
<title>Source/TactixDebug/Public/FTactixGameplayDebuggerCategory.h</title>
<!-- Node1 -->
<g id="Node000001" class="node">
<title>Node1</title>
<g id="a_Node000001"><a xlink:title="Tactix category for Unreal&#39;s built&#45;in Gameplay Debugger.">
<polygon fill="#999999" stroke="#666666" points="206.88,-103 24.38,-103 24.38,-56.75 206.88,-56.75 206.88,-103"/>
<text xml:space="preserve" text-anchor="start" x="32.38" y="-89.5" font-family="Helvetica,sans-Serif" font-size="10.00">Source/TactixDebug</text>
<text xml:space="preserve" text-anchor="start" x="32.38" y="-76.75" font-family="Helvetica,sans-Serif" font-size="10.00">/Public/FTactixGameplayDebugger</text>
<text xml:space="preserve" text-anchor="middle" x="115.62" y="-64" font-family="Helvetica,sans-Serif" font-size="10.00">Category.h</text>
</a>
</g>
</g>
<!-- Node2 -->
<g id="Node000002" class="node">
<title>Node2</title>
<g id="a_Node000002"><a xlink:title=" ">
<polygon fill="#e0e0e0" stroke="#999999" points="87.25,-20.75 0,-20.75 0,0 87.25,0 87.25,-20.75"/>
<text xml:space="preserve" text-anchor="middle" x="43.62" y="-7.25" font-family="Helvetica,sans-Serif" font-size="10.00">CoreMinimal.h</text>
</a>
</g>
</g>
<!-- Node1&#45;&gt;Node2 -->
<g id="edge1_Node000001_Node000002" class="edge">
<title>Node1&#45;&gt;Node2</title>
<g id="a_edge1_Node000001_Node000002"><a xlink:title=" ">
<path fill="none" stroke="#63b8ff" d="M91.65,-56.4C82.08,-47.42 71.22,-37.25 62.26,-28.84"/>
<polygon fill="#63b8ff" stroke="#63b8ff" points="64.83,-26.46 55.15,-22.18 60.05,-31.57 64.83,-26.46"/>
</a>
</g>
</g>
<!-- Node3 -->
<g id="Node000003" class="node">
<title>Node3</title>
<g id="a_Node000003"><a xlink:title=" ">
<polygon fill="#e0e0e0" stroke="#999999" points="270.25,-20.75 105,-20.75 105,0 270.25,0 270.25,-20.75"/>
<text xml:space="preserve" text-anchor="middle" x="187.62" y="-7.25" font-family="Helvetica,sans-Serif" font-size="10.00">GameplayDebuggerCategory.h</text>
</a>
</g>
</g>
<!-- Node1&#45;&gt;Node3 -->
<g id="edge2_Node000001_Node000003" class="edge">
<title>Node1&#45;&gt;Node3</title>
<g id="a_edge2_Node000001_Node000003"><a xlink:title=" ">
<path fill="none" stroke="#63b8ff" d="M139.6,-56.4C149.17,-47.42 160.03,-37.25 168.99,-28.84"/>
<polygon fill="#63b8ff" stroke="#63b8ff" points="171.2,-31.57 176.1,-22.18 166.42,-26.46 171.2,-31.57"/>
</a>
</g>
</g>
</g>
</svg>
