<?xml version="1.0" encoding="UTF-8" standalone="no"?>
<!DOCTYPE svg PUBLIC "-//W3C//DTD SVG 1.1//EN"
 "http://www.w3.org/Graphics/SVG/1.1/DTD/svg11.dtd">
<!-- Generated by graphviz version 14.1.5 (0)
 -->
<!-- Title: Source/TactixCore/Public/Perception/FTactixPerceptionMemory.h Pages: 1 -->
<svg width="545pt" height="281pt"
 viewBox="0.00 0.00 545.00 281.00" xmlns="http://www.w3.org/2000/svg" xmlns:xlink="http://www.w3.org/1999/xlink">
<g id="graph0" class="graph" transform="scale(1 1) rotate(0) translate(4 277.25)">
<title>Source/TactixCore/Public/Perception/FTactixPerceptionMemory.h</title>
<!-- Node1 -->
<g id="Node000001" class="node">
<title>Node1</title>
<g id="a_Node000001"><a xlink:title="Per&#45;agent ring buffer of timestamped stimuli with on&#45;demand decay.">
<polygon fill="#999999" stroke="#666666" points="522.94,-273.25 315.69,-273.25 315.69,-239.75 522.94,-239.75 522.94,-273.25"/>
<text xml:space="preserve" text-anchor="start" x="323.69" y="-259.75" font-family="Helvetica,sans-Serif" font-size="10.00">Source/TactixCore/Public</text>
<text xml:space="preserve" text-anchor="middle" x="419.32" y="-247" font-family="Helvetica,sans-Serif" font-size="10.00">/Perception/FTactixPerceptionMemory.h</text>
</a>
</g>
</g>
<!-- Node2 -->
<g id="Node000002" class="node">
<title>Node2</title>
<g id="a_Node000002"><a xlink:href="TactixApi_8h.html" target="_top" xlink:title="Export macros, compiler attributes and version constants shared by every Tactix module.">
<polygon fill="white" stroke="#666666" points="73.94,-20.75 4.69,-20.75 4.69,0 73.94,0 73.94,-20.75"/>
<text xml:space="preserve" text-anchor="middle" x="39.32" y="-7.25" font-family="Helvetica,sans-Serif" font-size="10.00">TactixApi.h</text>
</a>
</g>
</g>
<!-- Node1&#45;&gt;Node2 -->
<g id="edge1_Node000001_Node000002" class="edge">
<title>Node1&#45;&gt;Node2</title>
<g id="a_edge1_Node000001_Node000002"><a xlink:title=" ">
<path fill="none" stroke="#63b8ff" d="M315.25,-243.32C263,-235.36 199.28,-222.81 144.32,-203.75 81.3,-181.9 46.37,-190.99 11.32,-134.25 -6.79,-104.94 0.65,-89.81 10.32,-56.75 13.09,-47.27 18.51,-37.88 23.93,-30.13"/>
<polygon fill="#63b8ff" stroke="#63b8ff" points="26.67,-32.3 29.91,-22.21 21.09,-28.08 26.67,-32.3"/>
</a>
</g>
</g>
<!-- Node3 -->
<g id="Node000003" class="node">
<title>Node3</title>
<g id="a_Node000003"><a xlink:href="ITactixPerceptionChannel_8h.html" target="_top" xlink:title="Stimulus record and channel interface for the perception memory.">
<polygon fill="white" stroke="#666666" points="307.32,-203.75 153.32,-203.75 153.32,-170.25 307.32,-170.25 307.32,-203.75"/>
<text xml:space="preserve" text-anchor="start" x="161.32" y="-190.25" font-family="Helvetica,sans-Serif" font-size="10.00">Perception/ITactixPerception</text>
<text xml:space="preserve" text-anchor="middle" x="230.32" y="-177.5" font-family="Helvetica,sans-Serif" font-size="10.00">Channel.h</text>
</a>
</g>
</g>
<!-- Node1&#45;&gt;Node3 -->
<g id="edge2_Node000001_Node000003" class="edge">
<title>Node1&#45;&gt;Node3</title>
<g id="a_edge2_Node000001_Node000003"><a xlink:title=" ">
<path fill="none" stroke="#63b8ff" d="M374.05,-239.33C347.73,-229.93 314.34,-218.01 286.37,-208.02"/>
<polygon fill="#63b8ff" stroke="#63b8ff" points="287.56,-204.73 276.97,-204.66 285.21,-211.32 287.56,-204.73"/>
</a>
</g>
</g>
<!-- Node5 -->
<g id="Node000005" class="node">
<title>Node5</title>
<g id="a_Node000005"><a xlink:title=" ">
<polygon fill="#e0e0e0" stroke="#999999" points="341.82,-20.75 292.82,-20.75 292.82,0 341.82,0 341.82,-20.75"/>
<text xml:space="preserve" text-anchor="middle" x="317.32" y="-7.25" font-family="Helvetica,sans-Serif" font-size="10.00">cstdint</text>
</a>
</g>
</g>
<!-- Node1&#45;&gt;Node5 -->
<g id="edge18_Node000001_Node000005" class="edge">
<title>Node1&#45;&gt;Node5</title>
<g id="a_edge18_Node000001_Node000005"><a xlink:title=" ">
<path fill="none" stroke="#63b8ff" d="M424.24,-239.42C434.27,-203.34 453.07,-114.54 415.32,-56.75 401.52,-35.63 375.16,-24.18 353.24,-18.06"/>
<polygon fill="#63b8ff" stroke="#63b8ff" points="354.3,-14.72 343.75,-15.7 352.61,-21.51 354.3,-14.72"/>
</a>
</g>
</g>
<!-- Node7 -->
<g id="Node000007" class="node">
<title>Node7</title>
<g id="a_Node000007"><a xlink:title=" ">
<polygon fill="#e0e0e0" stroke="#999999" points="391.69,-77.5 344.94,-77.5 344.94,-56.75 391.69,-56.75 391.69,-77.5"/>
<text xml:space="preserve" text-anchor="middle" x="368.32" y="-64" font-family="Helvetica,sans-Serif" font-size="10.00">cmath</text>
</a>
</g>
</g>
<!-- Node1&#45;&gt;Node7 -->
<g id="edge16_Node000001_Node000007" class="edge">
<title>Node1&#45;&gt;Node7</title>
<g id="a_edge16_Node000001_Node000007"><a xlink:title=" ">
<path fill="none" stroke="#63b8ff" d="M414.97,-239.52C405.75,-205.65 384.24,-126.64 373.97,-88.91"/>
<polygon fill="#63b8ff" stroke="#63b8ff" points="377.36,-88.01 371.35,-79.28 370.6,-89.85 377.36,-88.01"/>
</a>
</g>
</g>
<!-- Node9 -->
<g id="Node000009" class="node">
<title>Node9</title>
<g id="a_Node000009"><a xlink:title=" ">
<polygon fill="#e0e0e0" stroke="#999999" points="537.32,-197.38 485.32,-197.38 485.32,-176.62 537.32,-176.62 537.32,-197.38"/>
<text xml:space="preserve" text-anchor="middle" x="511.32" y="-183.88" font-family="Helvetica,sans-Serif" font-size="10.00">cstddef</text>
</a>
</g>
</g>
<!-- Node1&#45;&gt;Node9 -->
<g id="edge17_Node000001_Node000009" class="edge">
<title>Node1&#45;&gt;Node9</title>
<g id="a_edge17_Node000001_Node000009"><a xlink:title=" ">
<path fill="none" stroke="#63b8ff" d="M441.12,-239.5C455.45,-228.99 474.17,-215.26 488.67,-204.62"/>
<polygon fill="#63b8ff" stroke="#63b8ff" points="490.72,-207.45 496.71,-198.72 486.58,-201.81 490.72,-207.45"/>
</a>
</g>
</g>
<!-- Node3&#45;&gt;Node2 -->
<g id="edge3_Node000003_Node000002" class="edge">
<title>Node3&#45;&gt;Node2</title>
<g id="a_edge3_Node000003_Node000002"><a xlink:title=" ">
<path fill="none" stroke="#63b8ff" d="M153.01,-176.41C101.79,-168.29 41.22,-154.67 25.32,-134.25 2.22,-104.59 17.26,-58.02 29.08,-31.55"/>
<polygon fill="#63b8ff" stroke="#63b8ff" points="32.2,-33.14 33.33,-22.61 25.88,-30.14 32.2,-33.14"/>
</a>
</g>
</g>
<!-- Node4 -->
<g id="Node000004" class="node">
<title>Node4</title>
<g id="a_Node000004"><a xlink:href="TactixHandle_8h.html" target="_top" xlink:title="Type&#45;safe generational handle: the only sanctioned way to reference a pooled object across frames.">
<polygon fill="white" stroke="#666666" points="250.82,-77.5 105.82,-77.5 105.82,-56.75 250.82,-56.75 250.82,-77.5"/>
<text xml:space="preserve" text-anchor="middle" x="178.32" y="-64" font-family="Helvetica,sans-Serif" font-size="10.00">Foundation/TactixHandle.h</text>
</a>
</g>
</g>
<!-- Node3&#45;&gt;Node4 -->
<g id="edge4_Node000003_Node000004" class="edge">
<title>Node3&#45;&gt;Node4</title>
<g id="a_edge4_Node000003_Node000004"><a xlink:title=" ">
<path fill="none" stroke="#63b8ff" d="M222.17,-169.81C217.15,-159.66 210.67,-146.28 205.32,-134.25 198.52,-118.99 191.4,-101.47 186.18,-88.3"/>
<polygon fill="#63b8ff" stroke="#63b8ff" points="189.45,-87.06 182.53,-79.03 182.93,-89.62 189.45,-87.06"/>
</a>
</g>
</g>
<!-- Node3&#45;&gt;Node5 -->
<g id="edge15_Node000003_Node000005" class="edge">
<title>Node3&#45;&gt;Node5</title>
<g id="a_edge15_Node000003_Node000005"><a xlink:title=" ">
<path fill="none" stroke="#63b8ff" d="M290.2,-169.86C313.34,-161.69 339.07,-150.07 359.32,-134.25 383.83,-115.09 390.74,-107.11 400.32,-77.5 403.15,-68.73 405.02,-64.68 400.32,-56.75 389.98,-39.32 370.33,-28.15 352.74,-21.26"/>
<polygon fill="#63b8ff" stroke="#63b8ff" points="354.17,-18.05 343.58,-18.01 351.83,-24.65 354.17,-18.05"/>
</a>
</g>
</g>
<!-- Node6 -->
<g id="Node000006" class="node">
<title>Node6</title>
<g id="a_Node000006"><a xlink:href="TactixMath_8h.html" target="_top" xlink:title="Small, engine&#45;agnostic vector and scalar math used across Tactix.">
<polygon fill="white" stroke="#666666" points="349.94,-134.25 214.69,-134.25 214.69,-113.5 349.94,-113.5 349.94,-134.25"/>
<text xml:space="preserve" text-anchor="middle" x="282.32" y="-120.75" font-family="Helvetica,sans-Serif" font-size="10.00">Foundation/TactixMath.h</text>
</a>
</g>
</g>
<!-- Node3&#45;&gt;Node6 -->
<g id="edge7_Node000003_Node000006" class="edge">
<title>Node3&#45;&gt;Node6</title>
<g id="a_edge7_Node000003_Node000006"><a xlink:title=" ">
<path fill="none" stroke="#63b8ff" d="M243.98,-169.94C250.89,-161.82 259.31,-151.92 266.5,-143.47"/>
<polygon fill="#63b8ff" stroke="#63b8ff" points="269.15,-145.75 272.96,-135.87 263.82,-141.22 269.15,-145.75"/>
</a>
</g>
</g>
<!-- Node8 -->
<g id="Node000008" class="node">
<title>Node8</title>
<g id="a_Node000008"><a xlink:href="ITactixAgent_8h.html" target="_top" xlink:title="The engine&#45;agnostic contract a &quot;thinking&quot; entity implements to take part in Tactix systems.">
<polygon fill="white" stroke="#666666" points="150.57,-134.25 34.07,-134.25 34.07,-113.5 150.57,-113.5 150.57,-134.25"/>
<text xml:space="preserve" text-anchor="middle" x="92.32" y="-120.75" font-family="Helvetica,sans-Serif" font-size="10.00">Agent/ITactixAgent.h</text>
</a>
</g>
</g>
<!-- Node3&#45;&gt;Node8 -->
<g id="edge11_Node000003_Node000008" class="edge">
<title>Node3&#45;&gt;Node8</title>
<g id="a_edge11_Node000003_Node000008"><a xlink:title=" ">
<path fill="none" stroke="#63b8ff" d="M193.7,-169.78C172.31,-160.31 145.55,-148.45 124.9,-139.31"/>
<polygon fill="#63b8ff" stroke="#63b8ff" points="126.36,-136.13 115.8,-135.28 123.53,-142.53 126.36,-136.13"/>
</a>
</g>
</g>
<!-- Node4&#45;&gt;Node2 -->
<g id="edge5_Node000004_Node000002" class="edge">
<title>Node4&#45;&gt;Node2</title>
<g id="a_edge5_Node000004_Node000002"><a xlink:title=" ">
<path fill="none" stroke="#63b8ff" d="M153.47,-56.34C131.43,-47.66 99,-34.88 74.33,-25.17"/>
<polygon fill="#63b8ff" stroke="#63b8ff" points="75.95,-22.04 65.36,-21.63 73.38,-28.55 75.95,-22.04"/>
</a>
</g>
</g>
<!-- Node4&#45;&gt;Node5 -->
<g id="edge6_Node000004_Node000005" class="edge">
<title>Node4&#45;&gt;Node5</title>
<g id="a_edge6_Node000004_Node000005"><a xlink:title=" ">
<path fill="none" stroke="#63b8ff" d="M203.17,-56.34C225.21,-47.66 257.63,-34.88 282.3,-25.17"/>
<polygon fill="#63b8ff" stroke="#63b8ff" points="283.25,-28.55 291.27,-21.63 280.69,-22.04 283.25,-28.55"/>
</a>
</g>
</g>
<!-- Node6&#45;&gt;Node2 -->
<g id="edge8_Node000006_Node000002" class="edge">
<title>Node6&#45;&gt;Node2</title>
<g id="a_edge8_Node000006_Node000002"><a xlink:title=" ">
<path fill="none" stroke="#63b8ff" d="M281.99,-113.16C280.96,-98.62 276.78,-71.37 260.32,-56.75 234.9,-34.18 142.38,-21.36 85.42,-15.44"/>
<polygon fill="#63b8ff" stroke="#63b8ff" points="85.99,-11.98 75.69,-14.47 85.29,-18.95 85.99,-11.98"/>
</a>
</g>
</g>
<!-- Node6&#45;&gt;Node5 -->
<g id="edge10_Node000006_Node000005" class="edge">
<title>Node6&#45;&gt;Node5</title>
<g id="a_edge10_Node000006_Node000005"><a xlink:title=" ">
<path fill="none" stroke="#63b8ff" d="M285.3,-113.37C290.93,-95.44 303.23,-56.25 310.84,-32.01"/>
<polygon fill="#63b8ff" stroke="#63b8ff" points="314.13,-33.21 313.79,-22.62 307.45,-31.11 314.13,-33.21"/>
</a>
</g>
</g>
<!-- Node6&#45;&gt;Node7 -->
<g id="edge9_Node000006_Node000007" class="edge">
<title>Node6&#45;&gt;Node7</title>
<g id="a_edge9_Node000006_Node000007"><a xlink:title=" ">
<path fill="none" stroke="#63b8ff" d="M297.69,-113.09C310.41,-104.99 328.72,-93.33 343.51,-83.92"/>
<polygon fill="#63b8ff" stroke="#63b8ff" points="345.24,-86.96 351.8,-78.64 341.48,-81.06 345.24,-86.96"/>
</a>
</g>
</g>
<!-- Node8&#45;&gt;Node2 -->
<g id="edge12_Node000008_Node000002" class="edge">
<title>Node8&#45;&gt;Node2</title>
<g id="a_edge12_Node000008_Node000002"><a xlink:title=" ">
<path fill="none" stroke="#63b8ff" d="M85.21,-113.15C78.89,-104.21 69.69,-90.41 63.32,-77.5 56.03,-62.74 49.77,-45.2 45.47,-31.89"/>
<polygon fill="#63b8ff" stroke="#63b8ff" points="48.86,-31.02 42.55,-22.51 42.18,-33.1 48.86,-31.02"/>
</a>
</g>
</g>
<!-- Node8&#45;&gt;Node4 -->
<g id="edge13_Node000008_Node000004" class="edge">
<title>Node8&#45;&gt;Node4</title>
<g id="a_edge13_Node000008_Node000004"><a xlink:title=" ">
<path fill="none" stroke="#63b8ff" d="M107.69,-113.09C120.41,-104.99 138.72,-93.33 153.51,-83.92"/>
<polygon fill="#63b8ff" stroke="#63b8ff" points="155.24,-86.96 161.8,-78.64 151.48,-81.06 155.24,-86.96"/>
</a>
</g>
</g>
<!-- Node8&#45;&gt;Node5 -->
<g id="edge14_Node000008_Node000005" class="edge">
<title>Node8&#45;&gt;Node5</title>
<g id="a_edge14_Node000008_Node000005"><a xlink:title=" ">
<path fill="none" stroke="#63b8ff" d="M89.86,-113.44C86.79,-99.27 83.48,-72.48 97.32,-56.75 121.12,-29.69 225.26,-18.05 281.3,-13.67"/>
<polygon fill="#63b8ff" stroke="#63b8ff" points="281.26,-17.18 290.97,-12.95 280.74,-10.2 281.26,-17.18"/>
</a>
</g>
</g>
</g>
</svg>
