<?xml version="1.0" encoding="UTF-8" standalone="no"?>
<!DOCTYPE svg PUBLIC "-//W3C//DTD SVG 1.1//EN"
 "http://www.w3.org/Graphics/SVG/1.1/DTD/svg11.dtd">
<!-- Generated by graphviz version 14.1.5 (0)
 -->
<!-- Title: Source/TactixDebug/Private/FTactixGameplayDebuggerCategory.cpp Pages: 1 -->
<svg width="1373pt" height="338pt"
 viewBox="0.00 0.00 1373.00 338.00" xmlns="http://www.w3.org/2000/svg" xmlns:xlink="http://www.w3.org/1999/xlink">
<g id="graph0" class="graph" transform="scale(1 1) rotate(0) translate(4 334)">
<title>Source/TactixDebug/Private/FTactixGameplayDebuggerCategory.cpp</title>
<!-- Node1 -->
<g id="Node000001" class="node">
<title>Node1</title>
<g id="a_Node000001"><a xlink:title="Implements the Gameplay Debugger category: collect agent state, then render it as text lines.">
<polygon fill="#999999" stroke="#666666" points="405.88,-330 218.12,-330 218.12,-283.75 405.88,-283.75 405.88,-330"/>
<text xml:space="preserve" text-anchor="start" x="226.12" y="-316.5" font-family="Helvetica,sans-Serif" font-size="10.00">Source/TactixDebug</text>
<text xml:space="preserve" text-anchor="start" x="226.12" y="-303.75" font-family="Helvetica,sans-Serif" font-size="10.00">/Private/FTactixGameplayDebugger</text>
<text xml:space="preserve" text-anchor="middle" x="312" y="-291" font-family="Helvetica,sans-Serif" font-size="10.00">Category.cpp</text>
</a>
</g>
</g>
<!-- Node2 -->
<g id="Node000002" class="node">
<title>Node2</title>
<g id="a_Node000002"><a xlink:href="FTactixGameplayDebuggerCategory_8h.html" target="_top" xlink:title="Tactix category for Unreal&#39;s built&#45;in Gameplay Debugger.">
<polygon fill="white" stroke="#666666" points="460.5,-191 261.5,-191 261.5,-170.25 460.5,-170.25 460.5,-191"/>
<text xml:space="preserve" text-anchor="middle" x="361" y="-177.5" font-family="Helvetica,sans-Serif" font-size="10.00">FTactixGameplayDebuggerCategory.h</text>
</a>
</g>
</g>
<!-- Node1&#45;&gt;Node2 -->
<g id="edge1_Node000001_Node000002" class="edge">
<title>Node1&#45;&gt;Node2</title>
<g id="a_edge1_Node000001_Node000002"><a xlink:title=" ">
<path fill="none" stroke="#63b8ff" d="M324.89,-283.45C330.64,-272.85 337.18,-259.89 342,-247.75 347.88,-232.94 352.79,-215.62 356.15,-202.41"/>
<polygon fill="#63b8ff" stroke="#63b8ff" points="359.54,-203.25 358.51,-192.71 352.74,-201.6 359.54,-203.25"/>
</a>
</g>
</g>
<!-- Node5 -->
<g id="Node000005" class="node">
<title>Node5</title>
<g id="a_Node000005"><a xlink:title=" ">
<polygon fill="#e0e0e0" stroke="#999999" points="82,-134.25 0,-134.25 0,-113.5 82,-113.5 82,-134.25"/>
<text xml:space="preserve" text-anchor="middle" x="41" y="-120.75" font-family="Helvetica,sans-Serif" font-size="10.00">AIController.h</text>
</a>
</g>
</g>
<!-- Node1&#45;&gt;Node5 -->
<g id="edge4_Node000001_Node000005" class="edge">
<title>Node1&#45;&gt;Node5</title>
<g id="a_edge4_Node000001_Node000005"><a xlink:title=" ">
<path fill="none" stroke="#63b8ff" d="M221.9,-283.28C170.01,-265.98 107.29,-237.05 67,-191 55.69,-178.08 48.99,-159.65 45.24,-145.53"/>
<polygon fill="#63b8ff" stroke="#63b8ff" points="48.68,-144.89 42.99,-135.95 41.86,-146.49 48.68,-144.89"/>
</a>
</g>
</g>
<!-- Node6 -->
<g id="Node000006" class="node">
<title>Node6</title>
<g id="a_Node000006"><a xlink:title=" ">
<polygon fill="#e0e0e0" stroke="#999999" points="332.75,-247.75 195.25,-247.75 195.25,-227 332.75,-227 332.75,-247.75"/>
<text xml:space="preserve" text-anchor="middle" x="264" y="-234.25" font-family="Helvetica,sans-Serif" font-size="10.00">GameFramework/Pawn.h</text>
</a>
</g>
</g>
<!-- Node1&#45;&gt;Node6 -->
<g id="edge5_Node000001_Node000006" class="edge">
<title>Node1&#45;&gt;Node6</title>
<g id="a_edge5_Node000001_Node000006"><a xlink:title=" ">
<path fill="none" stroke="#63b8ff" d="M296.02,-283.4C290.03,-274.99 283.3,-265.52 277.56,-257.44"/>
<polygon fill="#63b8ff" stroke="#63b8ff" points="280.47,-255.5 271.82,-249.37 274.76,-259.55 280.47,-255.5"/>
</a>
</g>
</g>
<!-- Node7 -->
<g id="Node000007" class="node">
<title>Node7</title>
<g id="a_Node000007"><a xlink:href="ATactixAIController_8h.html" target="_top" xlink:title="Base AIController for Tactix&#45;aware pawns.">
<polygon fill="white" stroke="#666666" points="243.75,-191 76.25,-191 76.25,-170.25 243.75,-170.25 243.75,-191"/>
<text xml:space="preserve" text-anchor="middle" x="160" y="-177.5" font-family="Helvetica,sans-Serif" font-size="10.00">Controller/ATactixAIController.h</text>
</a>
</g>
</g>
<!-- Node1&#45;&gt;Node7 -->
<g id="edge6_Node000001_Node000007" class="edge">
<title>Node1&#45;&gt;Node7</title>
<g id="a_edge6_Node000001_Node000007"><a xlink:title=" ">
<path fill="none" stroke="#63b8ff" d="M238.58,-283.25C219.55,-274.59 200.39,-262.99 186,-247.75 174.21,-235.26 167.56,-216.8 163.94,-202.56"/>
<polygon fill="#63b8ff" stroke="#63b8ff" points="167.37,-201.88 161.81,-192.86 160.53,-203.38 167.37,-201.88"/>
</a>
</g>
</g>
<!-- Node18 -->
<g id="Node000018" class="node">
<title>Node18</title>
<g id="a_Node000018"><a xlink:href="UTactixAgentComponent_8h.html" target="_top" xlink:title="The component that makes a pawn a Tactix agent.">
<polygon fill="white" stroke="#666666" points="782.12,-247.75 571.88,-247.75 571.88,-227 782.12,-227 782.12,-247.75"/>
<text xml:space="preserve" text-anchor="middle" x="677" y="-234.25" font-family="Helvetica,sans-Serif" font-size="10.00">Components/UTactixAgentComponent.h</text>
</a>
</g>
</g>
<!-- Node1&#45;&gt;Node18 -->
<g id="edge26_Node000001_Node000018" class="edge">
<title>Node1&#45;&gt;Node18</title>
<g id="a_edge26_Node000001_Node000018"><a xlink:title=" ">
<path fill="none" stroke="#63b8ff" d="M406,-288.49C470.85,-276.5 555.38,-260.87 612.66,-250.27"/>
<polygon fill="#63b8ff" stroke="#63b8ff" points="613.05,-253.76 622.25,-248.5 611.78,-246.88 613.05,-253.76"/>
</a>
</g>
</g>
<!-- Node26 -->
<g id="Node000026" class="node">
<title>Node26</title>
<g id="a_Node000026"><a xlink:href="FTactixDecisionRecorder_8h.html" target="_top" xlink:title="Ring buffer of recent AI decisions for replay scrubbing and post&#45;mortems (&quot;why did it do that?...">
<polygon fill="white" stroke="#666666" points="1065.75,-191 922.25,-191 922.25,-170.25 1065.75,-170.25 1065.75,-191"/>
<text xml:space="preserve" text-anchor="middle" x="994" y="-177.5" font-family="Helvetica,sans-Serif" font-size="10.00">FTactixDecisionRecorder.h</text>
</a>
</g>
</g>
<!-- Node1&#45;&gt;Node26 -->
<g id="edge45_Node000001_Node000026" class="edge">
<title>Node1&#45;&gt;Node26</title>
<g id="a_edge45_Node000001_Node000026"><a xlink:title=" ">
<path fill="none" stroke="#63b8ff" d="M406.08,-299.88C503.33,-292.42 659.11,-276.94 791,-247.75 851.04,-234.46 918.52,-210.62 958.58,-195.49"/>
<polygon fill="#63b8ff" stroke="#63b8ff" points="959.61,-198.85 967.7,-192.01 957.11,-192.31 959.61,-198.85"/>
</a>
</g>
</g>
<!-- Node3 -->
<g id="Node000003" class="node">
<title>Node3</title>
<g id="a_Node000003"><a xlink:title=" ">
<polygon fill="#e0e0e0" stroke="#999999" points="924.62,-134.25 837.38,-134.25 837.38,-113.5 924.62,-113.5 924.62,-134.25"/>
<text xml:space="preserve" text-anchor="middle" x="881" y="-120.75" font-family="Helvetica,sans-Serif" font-size="10.00">CoreMinimal.h</text>
</a>
</g>
</g>
<!-- Node2&#45;&gt;Node3 -->
<g id="edge2_Node000002_Node000003" class="edge">
<title>Node2&#45;&gt;Node3</title>
<g id="a_edge2_Node000002_Node000003"><a xlink:title=" ">
<path fill="none" stroke="#63b8ff" d="M460.95,-170.9C571.4,-161.1 743.61,-145.29 825.84,-134.57"/>
<polygon fill="#63b8ff" stroke="#63b8ff" points="826.12,-138.06 835.57,-133.26 825.19,-131.12 826.12,-138.06"/>
</a>
</g>
</g>
<!-- Node4 -->
<g id="Node000004" class="node">
<title>Node4</title>
<g id="a_Node000004"><a xlink:title=" ">
<polygon fill="#e0e0e0" stroke="#999999" points="819.62,-134.25 654.38,-134.25 654.38,-113.5 819.62,-113.5 819.62,-134.25"/>
<text xml:space="preserve" text-anchor="middle" x="737" y="-120.75" font-family="Helvetica,sans-Serif" font-size="10.00">GameplayDebuggerCategory.h</text>
</a>
</g>
</g>
<!-- Node2&#45;&gt;Node4 -->
<g id="edge3_Node000002_Node000004" class="edge">
<title>Node2&#45;&gt;Node4</title>
<g id="a_edge3_Node000002_Node000004"><a xlink:title=" ">
<path fill="none" stroke="#63b8ff" d="M428.66,-169.77C493.15,-160.38 590.23,-146.25 658.19,-136.35"/>
<polygon fill="#63b8ff" stroke="#63b8ff" points="658.37,-139.86 667.76,-134.96 657.36,-132.94 658.37,-139.86"/>
</a>
</g>
</g>
<!-- Node7&#45;&gt;Node3 -->
<g id="edge7_Node000007_Node000003" class="edge">
<title>Node7&#45;&gt;Node3</title>
<g id="a_edge7_Node000007_Node000003"><a xlink:title=" ">
<path fill="none" stroke="#63b8ff" d="M244.14,-171C247.13,-170.74 250.09,-170.49 253,-170.25 504.9,-149.69 572.39,-164.61 825.66,-134.53"/>
<polygon fill="#63b8ff" stroke="#63b8ff" points="826.07,-138.01 835.58,-133.34 825.23,-131.06 826.07,-138.01"/>
</a>
</g>
</g>
<!-- Node7&#45;&gt;Node5 -->
<g id="edge8_Node000007_Node000005" class="edge">
<title>Node7&#45;&gt;Node5</title>
<g id="a_edge8_Node000007_Node000005"><a xlink:title=" ">
<path fill="none" stroke="#63b8ff" d="M138.73,-169.84C120.28,-161.35 93.34,-148.95 72.41,-139.33"/>
<polygon fill="#63b8ff" stroke="#63b8ff" points="74.01,-136.21 63.47,-135.21 71.09,-142.57 74.01,-136.21"/>
</a>
</g>
</g>
<!-- Node8 -->
<g id="Node000008" class="node">
<title>Node8</title>
<g id="a_Node000008"><a xlink:href="TactixArena_8h.html" target="_top" xlink:title="Bump (linear) allocator for short&#45;lived scratch memory.">
<polygon fill="white" stroke="#666666" points="582.5,-77.5 443.5,-77.5 443.5,-56.75 582.5,-56.75 582.5,-77.5"/>
<text xml:space="preserve" text-anchor="middle" x="513" y="-64" font-family="Helvetica,sans-Serif" font-size="10.00">Foundation/TactixArena.h</text>
</a>
</g>
</g>
<!-- Node7&#45;&gt;Node8 -->
<g id="edge9_Node000007_Node000008" class="edge">
<title>Node7&#45;&gt;Node8</title>
<g id="a_edge9_Node000007_Node000008"><a xlink:title=" ">
<path fill="none" stroke="#63b8ff" d="M149.65,-170.09C135.88,-156.26 114.93,-130.46 130,-113.5 149.69,-91.34 325.33,-78.13 431.8,-72.09"/>
<polygon fill="#63b8ff" stroke="#63b8ff" points="431.85,-75.59 441.64,-71.54 431.46,-68.6 431.85,-75.59"/>
</a>
</g>
</g>
<!-- Node14 -->
<g id="Node000014" class="node">
<title>Node14</title>
<g id="a_Node000014"><a xlink:href="FTactixGOAPPlanner_8h.html" target="_top" xlink:title="A* planner over the GOAP world&#45;state graph.">
<polygon fill="white" stroke="#666666" points="636.62,-134.25 483.38,-134.25 483.38,-113.5 636.62,-113.5 636.62,-134.25"/>
<text xml:space="preserve" text-anchor="middle" x="560" y="-120.75" font-family="Helvetica,sans-Serif" font-size="10.00">GOAP/FTactixGOAPPlanner.h</text>
</a>
</g>
</g>
<!-- Node7&#45;&gt;Node14 -->
<g id="edge15_Node000007_Node000014" class="edge">
<title>Node7&#45;&gt;Node14</title>
<g id="a_edge15_Node000007_Node000014"><a xlink:title=" ">
<path fill="none" stroke="#63b8ff" d="M231.97,-169.77C300.72,-160.36 404.29,-146.19 476.6,-136.29"/>
<polygon fill="#63b8ff" stroke="#63b8ff" points="477,-139.77 486.43,-134.94 476.05,-132.83 477,-139.77"/>
</a>
</g>
</g>
<!-- Node16 -->
<g id="Node000016" class="node">
<title>Node16</title>
<g id="a_Node000016"><a xlink:href="FTactixHTNPlanner_8h.html" target="_top" xlink:title="Depth&#45;first HTN planner with method&#45;order fallback and backtracking.">
<polygon fill="white" stroke="#666666" points="464.88,-134.25 325.12,-134.25 325.12,-113.5 464.88,-113.5 464.88,-134.25"/>
<text xml:space="preserve" text-anchor="middle" x="395" y="-120.75" font-family="Helvetica,sans-Serif" font-size="10.00">HTN/FTactixHTNPlanner.h</text>
</a>
</g>
</g>
<!-- Node7&#45;&gt;Node16 -->
<g id="edge21_Node000007_Node000016" class="edge">
<title>Node7&#45;&gt;Node16</title>
<g id="a_edge21_Node000007_Node000016"><a xlink:title=" ">
<path fill="none" stroke="#63b8ff" d="M202.28,-169.77C241.26,-160.69 299.29,-147.17 341.48,-137.34"/>
<polygon fill="#63b8ff" stroke="#63b8ff" points="342.24,-140.76 351.18,-135.08 340.65,-133.94 342.24,-140.76"/>
</a>
</g>
</g>
<!-- Node17 -->
<g id="Node000017" class="node">
<title>Node17</title>
<g id="a_Node000017"><a xlink:title=" ">
<polygon fill="#e0e0e0" stroke="#999999" points="307.5,-134.25 138.5,-134.25 138.5,-113.5 307.5,-113.5 307.5,-134.25"/>
<text xml:space="preserve" text-anchor="middle" x="223" y="-120.75" font-family="Helvetica,sans-Serif" font-size="10.00">ATactixAIController.generated.h</text>
</a>
</g>
</g>
<!-- Node7&#45;&gt;Node17 -->
<g id="edge25_Node000007_Node000017" class="edge">
<title>Node7&#45;&gt;Node17</title>
<g id="a_edge25_Node000007_Node000017"><a xlink:title=" ">
<path fill="none" stroke="#63b8ff" d="M171.26,-169.84C180.13,-162.13 192.71,-151.2 203.25,-142.04"/>
<polygon fill="#63b8ff" stroke="#63b8ff" points="205.44,-144.77 210.69,-135.57 200.85,-139.49 205.44,-144.77"/>
</a>
</g>
</g>
<!-- Node9 -->
<g id="Node000009" class="node">
<title>Node9</title>
<g id="a_Node000009"><a xlink:href="TactixApi_8h.html" target="_top" xlink:title="Export macros, compiler attributes and version constants shared by every Tactix module.">
<polygon fill="white" stroke="#666666" points="869.62,-20.75 800.38,-20.75 800.38,0 869.62,0 869.62,-20.75"/>
<text xml:space="preserve" text-anchor="middle" x="835" y="-7.25" font-family="Helvetica,sans-Serif" font-size="10.00">TactixApi.h</text>
</a>
</g>
</g>
<!-- Node8&#45;&gt;Node9 -->
<g id="edge10_Node000008_Node000009" class="edge">
<title>Node8&#45;&gt;Node9</title>
<g id="a_edge10_Node000008_Node000009"><a xlink:title=" ">
<path fill="none" stroke="#63b8ff" d="M570.94,-56.27C633.28,-45.67 731.18,-29.03 788.63,-19.26"/>
<polygon fill="#63b8ff" stroke="#63b8ff" points="789.13,-22.72 798.41,-17.6 787.96,-15.82 789.13,-22.72"/>
</a>
</g>
</g>
<!-- Node10 -->
<g id="Node000010" class="node">
<title>Node10</title>
<g id="a_Node000010"><a xlink:title=" ">
<polygon fill="#e0e0e0" stroke="#999999" points="477,-20.75 425,-20.75 425,0 477,0 477,-20.75"/>
<text xml:space="preserve" text-anchor="middle" x="451" y="-7.25" font-family="Helvetica,sans-Serif" font-size="10.00">cstddef</text>
</a>
</g>
</g>
<!-- Node8&#45;&gt;Node10 -->
<g id="edge11_Node000008_Node000010" class="edge">
<title>Node8&#45;&gt;Node10</title>
<g id="a_edge11_Node000008_Node000010"><a xlink:title=" ">
<path fill="none" stroke="#63b8ff" d="M501.92,-56.34C493.19,-48.63 480.81,-37.7 470.44,-28.54"/>
<polygon fill="#63b8ff" stroke="#63b8ff" points="472.94,-26.08 463.12,-22.08 468.3,-31.32 472.94,-26.08"/>
</a>
</g>
</g>
<!-- Node11 -->
<g id="Node000011" class="node">
<title>Node11</title>
<g id="a_Node000011"><a xlink:title=" ">
<polygon fill="#e0e0e0" stroke="#999999" points="1035.5,-20.75 986.5,-20.75 986.5,0 1035.5,0 1035.5,-20.75"/>
<text xml:space="preserve" text-anchor="middle" x="1011" y="-7.25" font-family="Helvetica,sans-Serif" font-size="10.00">cstdint</text>
</a>
</g>
</g>
<!-- Node8&#45;&gt;Node11 -->
<g id="edge12_Node000008_Node000011" class="edge">
<title>Node8&#45;&gt;Node11</title>
<g id="a_edge12_Node000008_Node000011"><a xlink:title=" ">
<path fill="none" stroke="#63b8ff" d="M582.77,-58.45C690.31,-46.63 892.74,-24.38 974.94,-15.34"/>
<polygon fill="#63b8ff" stroke="#63b8ff" points="975.11,-18.84 984.66,-14.27 974.34,-11.88 975.11,-18.84"/>
</a>
</g>
</g>
<!-- Node12 -->
<g id="Node000012" class="node">
<title>Node12</title>
<g id="a_Node000012"><a xlink:title=" ">
<polygon fill="#e0e0e0" stroke="#999999" points="531.12,-20.75 494.88,-20.75 494.88,0 531.12,0 531.12,-20.75"/>
<text xml:space="preserve" text-anchor="middle" x="513" y="-7.25" font-family="Helvetica,sans-Serif" font-size="10.00">new</text>
</a>
</g>
</g>
<!-- Node8&#45;&gt;Node12 -->
<g id="edge13_Node000008_Node000012" class="edge">
<title>Node8&#45;&gt;Node12</title>
<g id="a_edge13_Node000008_Node000012"><a xlink:title=" ">
<path fill="none" stroke="#63b8ff" d="M513,-56.34C513,-49.72 513,-40.72 513,-32.52"/>
<polygon fill="#63b8ff" stroke="#63b8ff" points="516.5,-32.59 513,-22.59 509.5,-32.59 516.5,-32.59"/>
</a>
</g>
</g>
<!-- Node13 -->
<g id="Node000013" class="node">
<title>Node13</title>
<g id="a_Node000013"><a xlink:title=" ">
<polygon fill="#e0e0e0" stroke="#999999" points="593.25,-20.75 548.75,-20.75 548.75,0 593.25,0 593.25,-20.75"/>
<text xml:space="preserve" text-anchor="middle" x="571" y="-7.25" font-family="Helvetica,sans-Serif" font-size="10.00">utility</text>
</a>
</g>
</g>
<!-- Node8&#45;&gt;Node13 -->
<g id="edge14_Node000008_Node000013" class="edge">
<title>Node8&#45;&gt;Node13</title>
<g id="a_edge14_Node000008_Node000013"><a xlink:title=" ">
<path fill="none" stroke="#63b8ff" d="M523.37,-56.34C531.45,-48.71 542.88,-37.92 552.52,-28.82"/>
<polygon fill="#63b8ff" stroke="#63b8ff" points="554.75,-31.53 559.62,-22.12 549.95,-26.44 554.75,-31.53"/>
</a>
</g>
</g>
<!-- Node14&#45;&gt;Node9 -->
<g id="edge16_Node000014_Node000009" class="edge">
<title>Node14&#45;&gt;Node9</title>
<g id="a_edge16_Node000014_Node000009"><a xlink:title=" ">
<path fill="none" stroke="#63b8ff" d="M580.07,-113.11C608,-99.68 660.29,-75.1 706,-56.75 735.08,-45.08 768.46,-33.38 793.98,-24.79"/>
<polygon fill="#63b8ff" stroke="#63b8ff" points="794.94,-28.16 803.31,-21.67 792.72,-21.52 794.94,-28.16"/>
</a>
</g>
</g>
<!-- Node14&#45;&gt;Node11 -->
<g id="edge20_Node000014_Node000011" class="edge">
<title>Node14&#45;&gt;Node11</title>
<g id="a_edge20_Node000014_Node000011"><a xlink:title=" ">
<path fill="none" stroke="#63b8ff" d="M636.95,-113.96C713.17,-104.68 824.35,-89.82 866,-77.5 908.82,-64.84 955.27,-41.86 983.77,-26.61"/>
<polygon fill="#63b8ff" stroke="#63b8ff" points="985.32,-29.75 992.43,-21.9 981.97,-23.6 985.32,-29.75"/>
</a>
</g>
</g>
<!-- Node15 -->
<g id="Node000015" class="node">
<title>Node15</title>
<g id="a_Node000015"><a xlink:href="FTactixWorldState_8h.html" target="_top" xlink:title="Symbolic world state for the GOAP planner: 64 boolean facts plus a &quot;defined&quot; mask.">
<polygon fill="white" stroke="#666666" points="857.38,-77.5 714.62,-77.5 714.62,-56.75 857.38,-56.75 857.38,-77.5"/>
<text xml:space="preserve" text-anchor="middle" x="786" y="-64" font-family="Helvetica,sans-Serif" font-size="10.00">GOAP/FTactixWorldState.h</text>
</a>
</g>
</g>
<!-- Node14&#45;&gt;Node15 -->
<g id="edge17_Node000014_Node000015" class="edge">
<title>Node14&#45;&gt;Node15</title>
<g id="a_edge17_Node000014_Node000015"><a xlink:title=" ">
<path fill="none" stroke="#63b8ff" d="M600.67,-113.02C638.07,-103.96 693.72,-90.48 734.27,-80.66"/>
<polygon fill="#63b8ff" stroke="#63b8ff" points="734.91,-84.1 743.81,-78.35 733.27,-77.3 734.91,-84.1"/>
</a>
</g>
</g>
<!-- Node15&#45;&gt;Node9 -->
<g id="edge18_Node000015_Node000009" class="edge">
<title>Node15&#45;&gt;Node9</title>
<g id="a_edge18_Node000015_Node000009"><a xlink:title=" ">
<path fill="none" stroke="#63b8ff" d="M794.76,-56.34C801.45,-48.86 810.85,-38.36 818.89,-29.38"/>
<polygon fill="#63b8ff" stroke="#63b8ff" points="821.25,-31.99 825.31,-22.21 816.03,-27.32 821.25,-31.99"/>
</a>
</g>
</g>
<!-- Node15&#45;&gt;Node11 -->
<g id="edge19_Node000015_Node000011" class="edge">
<title>Node15&#45;&gt;Node11</title>
<g id="a_edge19_Node000015_Node000011"><a xlink:title=" ">
<path fill="none" stroke="#63b8ff" d="M826.49,-56.27C868.84,-45.97 934.68,-29.95 975.2,-20.09"/>
<polygon fill="#63b8ff" stroke="#63b8ff" points="975.8,-23.54 984.69,-17.78 974.14,-16.74 975.8,-23.54"/>
</a>
</g>
</g>
<!-- Node16&#45;&gt;Node9 -->
<g id="edge22_Node000016_Node000009" class="edge">
<title>Node16&#45;&gt;Node9</title>
<g id="a_edge22_Node000016_Node000009"><a xlink:title=" ">
<path fill="none" stroke="#63b8ff" d="M443.93,-113.05C484,-104.66 542.04,-91.71 592,-77.5 619.54,-69.67 625.53,-64.83 653,-56.75 698.87,-43.26 751.98,-30.32 788.95,-21.73"/>
<polygon fill="#63b8ff" stroke="#63b8ff" points="789.44,-25.21 798.4,-19.55 787.87,-18.39 789.44,-25.21"/>
</a>
</g>
</g>
<!-- Node16&#45;&gt;Node11 -->
<g id="edge24_Node000016_Node000011" class="edge">
<title>Node16&#45;&gt;Node11</title>
<g id="a_edge24_Node000016_Node000011"><a xlink:title=" ">
<path fill="none" stroke="#63b8ff" d="M457.56,-113.03C506.66,-104.85 576.57,-92.21 637,-77.5 668.12,-69.93 674.75,-63.74 706,-56.75 802.09,-35.27 917.53,-21.24 974.93,-15.03"/>
<polygon fill="#63b8ff" stroke="#63b8ff" points="975.19,-18.53 984.76,-13.99 974.45,-11.56 975.19,-18.53"/>
</a>
</g>
</g>
<!-- Node16&#45;&gt;Node15 -->
<g id="edge23_Node000016_Node000015" class="edge">
<title>Node16&#45;&gt;Node15</title>
<g id="a_edge23_Node000016_Node000015"><a xlink:title=" ">
<path fill="none" stroke="#63b8ff" d="M465.35,-113.02C532.56,-103.61 633.79,-89.44 704.48,-79.54"/>
<polygon fill="#63b8ff" stroke="#63b8ff" points="704.63,-83.05 714.05,-78.2 703.66,-76.12 704.63,-83.05"/>
</a>
</g>
</g>
<!-- Node18&#45;&gt;Node3 -->
<g id="edge27_Node000018_Node000003" class="edge">
<title>Node18&#45;&gt;Node3</title>
<g id="a_edge27_Node000018_Node000003"><a xlink:title=" ">
<path fill="none" stroke="#63b8ff" d="M576.08,-226.53C525.56,-217.68 480.44,-201.08 508,-170.25 553.7,-119.14 740.12,-142.28 825.68,-134.35"/>
<polygon fill="#63b8ff" stroke="#63b8ff" points="826.03,-137.83 835.56,-133.19 825.22,-130.88 826.03,-137.83"/>
</a>
</g>
</g>
<!-- Node19 -->
<g id="Node000019" class="node">
<title>Node19</title>
<g id="a_Node000019"><a xlink:title=" ">
<polygon fill="#e0e0e0" stroke="#999999" points="904.62,-191 733.38,-191 733.38,-170.25 904.62,-170.25 904.62,-191"/>
<text xml:space="preserve" text-anchor="middle" x="819" y="-177.5" font-family="Helvetica,sans-Serif" font-size="10.00">Components/ActorComponent.h</text>
</a>
</g>
</g>
<!-- Node18&#45;&gt;Node19 -->
<g id="edge28_Node000018_Node000019" class="edge">
<title>Node18&#45;&gt;Node19</title>
<g id="a_edge28_Node000018_Node000019"><a xlink:title=" ">
<path fill="none" stroke="#63b8ff" d="M702.39,-226.59C724.9,-217.91 758.03,-205.13 783.23,-195.42"/>
<polygon fill="#63b8ff" stroke="#63b8ff" points="784.35,-198.74 792.42,-191.87 781.83,-192.2 784.35,-198.74"/>
</a>
</g>
</g>
<!-- Node20 -->
<g id="Node000020" class="node">
<title>Node20</title>
<g id="a_Node000020"><a xlink:href="ITactixAgent_8h.html" target="_top" xlink:title="The engine&#45;agnostic contract a &quot;thinking&quot; entity implements to take part in Tactix systems.">
<polygon fill="white" stroke="#666666" points="1135.25,-134.25 1018.75,-134.25 1018.75,-113.5 1135.25,-113.5 1135.25,-134.25"/>
<text xml:space="preserve" text-anchor="middle" x="1077" y="-120.75" font-family="Helvetica,sans-Serif" font-size="10.00">Agent/ITactixAgent.h</text>
</a>
</g>
</g>
<!-- Node18&#45;&gt;Node20 -->
<g id="edge29_Node000018_Node000020" class="edge">
<title>Node18&#45;&gt;Node20</title>
<g id="a_edge29_Node000018_Node000020"><a xlink:title=" ">
<path fill="none" stroke="#63b8ff" d="M782.49,-231.38C893.67,-225.03 1055.44,-212.26 1075,-191 1086.06,-178.98 1085.45,-159.91 1082.72,-145.34"/>
<polygon fill="#63b8ff" stroke="#63b8ff" points="1086.19,-144.8 1080.49,-135.87 1079.38,-146.41 1086.19,-144.8"/>
</a>
</g>
</g>
<!-- Node22 -->
<g id="Node000022" class="node">
<title>Node22</title>
<g id="a_Node000022"><a xlink:href="FTactixAgentContext_8h.html" target="_top" xlink:title="Read&#45;only, side&#45;effect&#45;free snapshot of one agent for a single decision.">
<polygon fill="white" stroke="#666666" points="1279.5,-191 1122.5,-191 1122.5,-170.25 1279.5,-170.25 1279.5,-191"/>
<text xml:space="preserve" text-anchor="middle" x="1201" y="-177.5" font-family="Helvetica,sans-Serif" font-size="10.00">Agent/FTactixAgentContext.h</text>
</a>
</g>
</g>
<!-- Node18&#45;&gt;Node22 -->
<g id="edge35_Node000018_Node000022" class="edge">
<title>Node18&#45;&gt;Node22</title>
<g id="a_edge35_Node000018_Node000022"><a xlink:title=" ">
<path fill="none" stroke="#63b8ff" d="M771.29,-226.52C867.55,-216.46 1015.94,-200.96 1110.73,-191.06"/>
<polygon fill="#63b8ff" stroke="#63b8ff" points="1110.93,-194.56 1120.51,-190.03 1110.2,-187.59 1110.93,-194.56"/>
</a>
</g>
</g>
<!-- Node25 -->
<g id="Node000025" class="node">
<title>Node25</title>
<g id="a_Node000025"><a xlink:title=" ">
<polygon fill="#e0e0e0" stroke="#999999" points="715.12,-191 516.88,-191 516.88,-170.25 715.12,-170.25 715.12,-191"/>
<text xml:space="preserve" text-anchor="middle" x="616" y="-177.5" font-family="Helvetica,sans-Serif" font-size="10.00">UTactixAgentComponent.generated.h</text>
</a>
</g>
</g>
<!-- Node18&#45;&gt;Node25 -->
<g id="edge44_Node000018_Node000025" class="edge">
<title>Node18&#45;&gt;Node25</title>
<g id="a_edge44_Node000018_Node000025"><a xlink:title=" ">
<path fill="none" stroke="#63b8ff" d="M666.09,-226.59C657.51,-218.88 645.33,-207.95 635.12,-198.79"/>
<polygon fill="#63b8ff" stroke="#63b8ff" points="637.72,-196.41 627.94,-192.34 633.04,-201.62 637.72,-196.41"/>
</a>
</g>
</g>
<!-- Node20&#45;&gt;Node9 -->
<g id="edge30_Node000020_Node000009" class="edge">
<title>Node20&#45;&gt;Node9</title>
<g id="a_edge30_Node000020_Node000009"><a xlink:title=" ">
<path fill="none" stroke="#63b8ff" d="M1055.95,-113.18C1013.31,-93.53 916.55,-48.95 866.42,-25.85"/>
<polygon fill="#63b8ff" stroke="#63b8ff" points="868.1,-22.77 857.55,-21.77 865.17,-29.13 868.1,-22.77"/>
</a>
</g>
</g>
<!-- Node20&#45;&gt;Node11 -->
<g id="edge34_Node000020_Node000011" class="edge">
<title>Node20&#45;&gt;Node11</title>
<g id="a_edge34_Node000020_Node000011"><a xlink:title=" ">
<path fill="none" stroke="#63b8ff" d="M1100.08,-113.15C1125.32,-101.09 1160.17,-79.35 1144,-56.75 1122.16,-26.22 1078.54,-16 1047.2,-12.7"/>
<polygon fill="#63b8ff" stroke="#63b8ff" points="1047.63,-9.23 1037.37,-11.88 1047.04,-16.2 1047.63,-9.23"/>
</a>
</g>
</g>
<!-- Node21 -->
<g id="Node000021" class="node">
<title>Node21</title>
<g id="a_Node000021"><a xlink:href="TactixHandle_8h.html" target="_top" xlink:title="Type&#45;safe generational handle: the only sanctioned way to reference a pooled object across frames.">
<polygon fill="white" stroke="#666666" points="1134.5,-77.5 989.5,-77.5 989.5,-56.75 1134.5,-56.75 1134.5,-77.5"/>
<text xml:space="preserve" text-anchor="middle" x="1062" y="-64" font-family="Helvetica,sans-Serif" font-size="10.00">Foundation/TactixHandle.h</text>
</a>
</g>
</g>
<!-- Node20&#45;&gt;Node21 -->
<g id="edge31_Node000020_Node000021" class="edge">
<title>Node20&#45;&gt;Node21</title>
<g id="a_edge31_Node000020_Node000021"><a xlink:title=" ">
<path fill="none" stroke="#63b8ff" d="M1074.32,-113.09C1072.46,-106.31 1069.92,-97.05 1067.63,-88.69"/>
<polygon fill="#63b8ff" stroke="#63b8ff" points="1071.08,-88.01 1065.06,-79.29 1064.33,-89.86 1071.08,-88.01"/>
</a>
</g>
</g>
<!-- Node21&#45;&gt;Node9 -->
<g id="edge32_Node000021_Node000009" class="edge">
<title>Node21&#45;&gt;Node9</title>
<g id="a_edge32_Node000021_Node000009"><a xlink:title=" ">
<path fill="none" stroke="#63b8ff" d="M1021.15,-56.27C981.72,-46.76 922.09,-32.38 881,-22.47"/>
<polygon fill="#63b8ff" stroke="#63b8ff" points="881.95,-19.1 871.41,-20.16 880.31,-25.9 881.95,-19.1"/>
</a>
</g>
</g>
<!-- Node21&#45;&gt;Node11 -->
<g id="edge33_Node000021_Node000011" class="edge">
<title>Node21&#45;&gt;Node11</title>
<g id="a_edge33_Node000021_Node000011"><a xlink:title=" ">
<path fill="none" stroke="#63b8ff" d="M1052.88,-56.34C1045.92,-48.86 1036.13,-38.36 1027.77,-29.38"/>
<polygon fill="#63b8ff" stroke="#63b8ff" points="1030.45,-27.12 1021.07,-22.19 1025.33,-31.89 1030.45,-27.12"/>
</a>
</g>
</g>
<!-- Node22&#45;&gt;Node9 -->
<g id="edge36_Node000022_Node000009" class="edge">
<title>Node22&#45;&gt;Node9</title>
<g id="a_edge36_Node000022_Node000009"><a xlink:title=" ">
<path fill="none" stroke="#63b8ff" d="M1132.22,-169.79C1094.93,-162.86 1048.7,-151.66 1010,-134.25 947.72,-106.23 884.58,-55.03 853.97,-28.43"/>
<polygon fill="#63b8ff" stroke="#63b8ff" points="856.51,-26 846.7,-22.02 851.89,-31.26 856.51,-26"/>
</a>
</g>
</g>
<!-- Node22&#45;&gt;Node11 -->
<g id="edge43_Node000022_Node000011" class="edge">
<title>Node22&#45;&gt;Node11</title>
<g id="a_edge43_Node000022_Node000011"><a xlink:title=" ">
<path fill="none" stroke="#63b8ff" d="M1200.64,-169.76C1199.26,-146.63 1192.54,-88.44 1160,-56.75 1129.59,-27.13 1080.44,-16.78 1046.98,-13.2"/>
<polygon fill="#63b8ff" stroke="#63b8ff" points="1047.63,-9.74 1037.36,-12.33 1047,-16.71 1047.63,-9.74"/>
</a>
</g>
</g>
<!-- Node22&#45;&gt;Node20 -->
<g id="edge42_Node000022_Node000020" class="edge">
<title>Node22&#45;&gt;Node20</title>
<g id="a_edge42_Node000022_Node000020"><a xlink:title=" ">
<path fill="none" stroke="#63b8ff" d="M1178.83,-169.84C1159.52,-161.31 1131.28,-148.84 1109.43,-139.19"/>
<polygon fill="#63b8ff" stroke="#63b8ff" points="1110.92,-136.03 1100.36,-135.19 1108.1,-142.43 1110.92,-136.03"/>
</a>
</g>
</g>
<!-- Node22&#45;&gt;Node21 -->
<g id="edge37_Node000022_Node000021" class="edge">
<title>Node22&#45;&gt;Node21</title>
<g id="a_edge37_Node000022_Node000021"><a xlink:title=" ">
<path fill="none" stroke="#63b8ff" d="M1194.51,-170.15C1184.75,-156.41 1165.17,-130.71 1144,-113.5 1129.12,-101.41 1110.57,-90.84 1094.88,-82.95"/>
<polygon fill="#63b8ff" stroke="#63b8ff" points="1096.44,-79.81 1085.91,-78.59 1093.38,-86.11 1096.44,-79.81"/>
</a>
</g>
</g>
<!-- Node23 -->
<g id="Node000023" class="node">
<title>Node23</title>
<g id="a_Node000023"><a xlink:href="TactixMath_8h.html" target="_top" xlink:title="Small, engine&#45;agnostic vector and scalar math used across Tactix.">
<polygon fill="white" stroke="#666666" points="1364.62,-77.5 1229.38,-77.5 1229.38,-56.75 1364.62,-56.75 1364.62,-77.5"/>
<text xml:space="preserve" text-anchor="middle" x="1297" y="-64" font-family="Helvetica,sans-Serif" font-size="10.00">Foundation/TactixMath.h</text>
</a>
</g>
</g>
<!-- Node22&#45;&gt;Node23 -->
<g id="edge38_Node000022_Node000023" class="edge">
<title>Node22&#45;&gt;Node23</title>
<g id="a_edge38_Node000022_Node000023"><a xlink:title=" ">
<path fill="none" stroke="#63b8ff" d="M1209.18,-170.12C1225.12,-151.61 1260.54,-110.47 1281.2,-86.48"/>
<polygon fill="#63b8ff" stroke="#63b8ff" points="1283.7,-88.93 1287.57,-79.07 1278.4,-84.37 1283.7,-88.93"/>
</a>
</g>
</g>
<!-- Node23&#45;&gt;Node9 -->
<g id="edge39_Node000023_Node000009" class="edge">
<title>Node23&#45;&gt;Node9</title>
<g id="a_edge39_Node000023_Node000009"><a xlink:title=" ">
<path fill="none" stroke="#63b8ff" d="M1229.33,-58.11C1134.15,-46.83 963.25,-26.57 881.3,-16.86"/>
<polygon fill="#63b8ff" stroke="#63b8ff" points="881.95,-13.41 871.61,-15.71 881.13,-20.37 881.95,-13.41"/>
</a>
</g>
</g>
<!-- Node23&#45;&gt;Node11 -->
<g id="edge41_Node000023_Node000011" class="edge">
<title>Node23&#45;&gt;Node11</title>
<g id="a_edge41_Node000023_Node000011"><a xlink:title=" ">
<path fill="none" stroke="#63b8ff" d="M1245.54,-56.27C1188.22,-45.3 1097.04,-27.85 1046.93,-18.25"/>
<polygon fill="#63b8ff" stroke="#63b8ff" points="1047.67,-14.83 1037.19,-16.39 1046.35,-21.71 1047.67,-14.83"/>
</a>
</g>
</g>
<!-- Node24 -->
<g id="Node000024" class="node">
<title>Node24</title>
<g id="a_Node000024"><a xlink:title=" ">
<polygon fill="#e0e0e0" stroke="#999999" points="1320.38,-20.75 1273.62,-20.75 1273.62,0 1320.38,0 1320.38,-20.75"/>
<text xml:space="preserve" text-anchor="middle" x="1297" y="-7.25" font-family="Helvetica,sans-Serif" font-size="10.00">cmath</text>
</a>
</g>
</g>
<!-- Node23&#45;&gt;Node24 -->
<g id="edge40_Node000023_Node000024" class="edge">
<title>Node23&#45;&gt;Node24</title>
<g id="a_edge40_Node000023_Node000024"><a xlink:title=" ">
<path fill="none" stroke="#63b8ff" d="M1297,-56.34C1297,-49.72 1297,-40.72 1297,-32.52"/>
<polygon fill="#63b8ff" stroke="#63b8ff" points="1300.5,-32.59 1297,-22.59 1293.5,-32.59 1300.5,-32.59"/>
</a>
</g>
</g>
<!-- Node26&#45;&gt;Node3 -->
<g id="edge46_Node000026_Node000003" class="edge">
<title>Node26&#45;&gt;Node3</title>
<g id="a_edge46_Node000026_Node000003"><a xlink:title=" ">
<path fill="none" stroke="#63b8ff" d="M973.8,-169.84C956.44,-161.43 931.17,-149.18 911.37,-139.59"/>
<polygon fill="#63b8ff" stroke="#63b8ff" points="912.91,-136.45 902.39,-135.24 909.86,-142.75 912.91,-136.45"/>
</a>
</g>
</g>
<!-- Node26&#45;&gt;Node20 -->
<g id="edge48_Node000026_Node000020" class="edge">
<title>Node26&#45;&gt;Node20</title>
<g id="a_edge48_Node000026_Node000020"><a xlink:title=" ">
<path fill="none" stroke="#63b8ff" d="M1008.84,-169.84C1021.11,-161.74 1038.79,-150.08 1053.06,-140.67"/>
<polygon fill="#63b8ff" stroke="#63b8ff" points="1054.61,-143.84 1061.03,-135.41 1050.75,-138 1054.61,-143.84"/>
</a>
</g>
</g>
<!-- Node26&#45;&gt;Node21 -->
<g id="edge47_Node000026_Node000021" class="edge">
<title>Node26&#45;&gt;Node21</title>
<g id="a_edge47_Node000026_Node000021"><a xlink:title=" ">
<path fill="none" stroke="#63b8ff" d="M994.51,-169.96C995.62,-156.42 999.09,-131.47 1010,-113.5 1016.88,-102.17 1027.52,-92.15 1037.39,-84.44"/>
<polygon fill="#63b8ff" stroke="#63b8ff" points="1039.26,-87.41 1045.25,-78.67 1035.12,-81.76 1039.26,-87.41"/>
</a>
</g>
</g>
</g>
</svg>
