<?xml version="1.0" encoding="UTF-8" standalone="no"?>
<!DOCTYPE svg PUBLIC "-//W3C//DTD SVG 1.1//EN"
 "http://www.w3.org/Graphics/SVG/1.1/DTD/svg11.dtd">
<!-- Generated by graphviz version 14.1.5 (0)
 -->
<!-- Title: Source/TactixSystems/Public/HTN/FTactixHTNPlanner.h Pages: 1 -->
<svg width="218pt" height="155pt"
 viewBox="0.00 0.00 218.00 155.00" xmlns="http://www.w3.org/2000/svg" xmlns:xlink="http://www.w3.org/1999/xlink">
<g id="graph0" class="graph" transform="scale(1 1) rotate(0) translate(4 151)">
<title>Source/TactixSystems/Public/HTN/FTactixHTNPlanner.h</title>
<!-- Node1 -->
<g id="Node000001" class="node">
<title>Node1</title>
<g id="a_Node000001"><a xlink:title="Depth&#45;first HTN planner with method&#45;order fallback and backtracking.">
<polygon fill="#999999" stroke="#666666" points="210.12,-147 35.12,-147 35.12,-113.5 210.12,-113.5 210.12,-147"/>
<text xml:space="preserve" text-anchor="start" x="43.12" y="-133.5" font-family="Helvetica,sans-Serif" font-size="10.00">Source/TactixSystems</text>
<text xml:space="preserve" text-anchor="middle" x="122.62" y="-120.75" font-family="Helvetica,sans-Serif" font-size="10.00">/Public/HTN/FTactixHTNPlanner.h</text>
</a>
</g>
</g>
<!-- Node2 -->
<g id="Node000002" class="node">
<title>Node2</title>
<g id="a_Node000002"><a xlink:href="TactixApi_8h.html" target="_top" xlink:title="Export macros, compiler attributes and version constants shared by every Tactix module.">
<polygon fill="white" stroke="#666666" points="69.25,-20.75 0,-20.75 0,0 69.25,0 69.25,-20.75"/>
<text xml:space="preserve" text-anchor="middle" x="34.62" y="-7.25" font-family="Helvetica,sans-Serif" font-size="10.00">TactixApi.h</text>
</a>
</g>
</g>
<!-- Node1&#45;&gt;Node2 -->
<g id="edge1_Node000001_Node000002" class="edge">
<title>Node1&#45;&gt;Node2</title>
<g id="a_edge1_Node000001_Node000002"><a xlink:title=" ">
<path fill="none" stroke="#63b8ff" d="M83.65,-113.01C68.39,-104.66 52.27,-92.93 42.62,-77.5 34.27,-64.14 32.55,-46.26 32.76,-32.47"/>
<polygon fill="#63b8ff" stroke="#63b8ff" points="36.24,-32.87 33.28,-22.7 29.25,-32.5 36.24,-32.87"/>
</a>
</g>
</g>
<!-- Node3 -->
<g id="Node000003" class="node">
<title>Node3</title>
<g id="a_Node000003"><a xlink:href="FTactixWorldState_8h.html" target="_top" xlink:title="Symbolic world state for the GOAP planner: 64 boolean facts plus a &quot;defined&quot; mask.">
<polygon fill="white" stroke="#666666" points="194,-77.5 51.25,-77.5 51.25,-56.75 194,-56.75 194,-77.5"/>
<text xml:space="preserve" text-anchor="middle" x="122.62" y="-64" font-family="Helvetica,sans-Serif" font-size="10.00">GOAP/FTactixWorldState.h</text>
</a>
</g>
</g>
<!-- Node1&#45;&gt;Node3 -->
<g id="edge2_Node000001_Node000003" class="edge">
<title>Node1&#45;&gt;Node3</title>
<g id="a_edge2_Node000001_Node000003"><a xlink:title=" ">
<path fill="none" stroke="#63b8ff" d="M122.62,-113.19C122.62,-105.85 122.62,-97.07 122.62,-89.21"/>
<polygon fill="#63b8ff" stroke="#63b8ff" points="126.13,-89.48 122.63,-79.48 119.13,-89.48 126.13,-89.48"/>
</a>
</g>
</g>
<!-- Node4 -->
<g id="Node000004" class="node">
<title>Node4</title>
<g id="a_Node000004"><a xlink:title=" ">
<polygon fill="#e0e0e0" stroke="#999999" points="196.12,-20.75 147.12,-20.75 147.12,0 196.12,0 196.12,-20.75"/>
<text xml:space="preserve" text-anchor="middle" x="171.62" y="-7.25" font-family="Helvetica,sans-Serif" font-size="10.00">cstdint</text>
</a>
</g>
</g>
<!-- Node1&#45;&gt;Node4 -->
<g id="edge5_Node000001_Node000004" class="edge">
<title>Node1&#45;&gt;Node4</title>
<g id="a_edge5_Node000001_Node000004"><a xlink:title=" ">
<path fill="none" stroke="#63b8ff" d="M163.36,-113.09C178.51,-104.85 194.09,-93.19 202.62,-77.5 211.29,-61.57 200.6,-42.81 189.48,-29.34"/>
<polygon fill="#63b8ff" stroke="#63b8ff" points="192.24,-27.18 182.95,-22.09 187.04,-31.87 192.24,-27.18"/>
</a>
</g>
</g>
<!-- Node3&#45;&gt;Node2 -->
<g id="edge3_Node000003_Node000002" class="edge">
<title>Node3&#45;&gt;Node2</title>
<g id="a_edge3_Node000003_Node000002"><a xlink:title=" ">
<path fill="none" stroke="#63b8ff" d="M106.89,-56.34C93.75,-48.16 74.78,-36.36 59.57,-26.9"/>
<polygon fill="#63b8ff" stroke="#63b8ff" points="61.85,-24.19 51.51,-21.88 58.15,-30.13 61.85,-24.19"/>
</a>
</g>
</g>
<!-- Node3&#45;&gt;Node4 -->
<g id="edge4_Node000003_Node000004" class="edge">
<title>Node3&#45;&gt;Node4</title>
<g id="a_edge4_Node000003_Node000004"><a xlink:title=" ">
<path fill="none" stroke="#63b8ff" d="M131.39,-56.34C138.07,-48.86 147.48,-38.36 155.51,-29.38"/>
<polygon fill="#63b8ff" stroke="#63b8ff" points="157.87,-31.99 161.93,-22.21 152.65,-27.32 157.87,-31.99"/>
</a>
</g>
</g>
</g>
</svg>
