<?xml version="1.0" encoding="UTF-8" standalone="no"?>
<!DOCTYPE svg PUBLIC "-//W3C//DTD SVG 1.1//EN"
 "http://www.w3.org/Graphics/SVG/1.1/DTD/svg11.dtd">
<!-- Generated by graphviz version 14.1.5 (0)
 -->
<!-- Title: Source/TactixSystems/Public/Squad/FTactixFormation.h Pages: 1 -->
<svg width="305pt" height="155pt"
 viewBox="0.00 0.00 305.00 155.00" xmlns="http://www.w3.org/2000/svg" xmlns:xlink="http://www.w3.org/1999/xlink">
<g id="graph0" class="graph" transform="scale(1 1) rotate(0) translate(4 151)">
<title>Source/TactixSystems/Public/Squad/FTactixFormation.h</title>
<!-- Node1 -->
<g id="Node000001" class="node">
<title>Node1</title>
<g id="a_Node000001"><a xlink:title="Movement formations: per&#45;slot local offsets and the transform that places them in the world relative ...">
<polygon fill="#999999" stroke="#666666" points="256.88,-147 80.38,-147 80.38,-113.5 256.88,-113.5 256.88,-147"/>
<text xml:space="preserve" text-anchor="start" x="88.38" y="-133.5" font-family="Helvetica,sans-Serif" font-size="10.00">Source/TactixSystems</text>
<text xml:space="preserve" text-anchor="middle" x="168.62" y="-120.75" font-family="Helvetica,sans-Serif" font-size="10.00">/Public/Squad/FTactixFormation.h</text>
</a>
</g>
</g>
<!-- Node2 -->
<g id="Node000002" class="node">
<title>Node2</title>
<g id="a_Node000002"><a xlink:href="TactixApi_8h.html" target="_top" xlink:title="Export macros, compiler attributes and version constants shared by every Tactix module.">
<polygon fill="white" stroke="#666666" points="69.25,-20.75 0,-20.75 0,0 69.25,0 69.25,-20.75"/>
<text xml:space="preserve" text-anchor="middle" x="34.62" y="-7.25" font-family="Helvetica,sans-Serif" font-size="10.00">TactixApi.h</text>
</a>
</g>
</g>
<!-- Node1&#45;&gt;Node2 -->
<g id="edge1_Node000001_Node000002" class="edge">
<title>Node1&#45;&gt;Node2</title>
<g id="a_edge1_Node000001_Node000002"><a xlink:title=" ">
<path fill="none" stroke="#63b8ff" d="M94.74,-113.05C75.39,-105.35 56.39,-94.06 43.62,-77.5 33.78,-64.73 31.98,-46.29 32.39,-32.13"/>
<polygon fill="#63b8ff" stroke="#63b8ff" points="35.85,-32.76 33.06,-22.54 28.87,-32.27 35.85,-32.76"/>
</a>
</g>
</g>
<!-- Node3 -->
<g id="Node000003" class="node">
<title>Node3</title>
<g id="a_Node000003"><a xlink:href="TactixMath_8h.html" target="_top" xlink:title="Small, engine&#45;agnostic vector and scalar math used across Tactix.">
<polygon fill="white" stroke="#666666" points="188.25,-77.5 53,-77.5 53,-56.75 188.25,-56.75 188.25,-77.5"/>
<text xml:space="preserve" text-anchor="middle" x="120.62" y="-64" font-family="Helvetica,sans-Serif" font-size="10.00">Foundation/TactixMath.h</text>
</a>
</g>
</g>
<!-- Node1&#45;&gt;Node3 -->
<g id="edge2_Node000001_Node000003" class="edge">
<title>Node1&#45;&gt;Node3</title>
<g id="a_edge2_Node000001_Node000003"><a xlink:title=" ">
<path fill="none" stroke="#63b8ff" d="M156.01,-113.19C149.7,-105.16 142.03,-95.38 135.44,-86.99"/>
<polygon fill="#63b8ff" stroke="#63b8ff" points="138.22,-84.86 129.29,-79.16 132.71,-89.18 138.22,-84.86"/>
</a>
</g>
</g>
<!-- Node5 -->
<g id="Node000005" class="node">
<title>Node5</title>
<g id="a_Node000005"><a xlink:title=" ">
<polygon fill="#e0e0e0" stroke="#999999" points="226.12,-20.75 177.12,-20.75 177.12,0 226.12,0 226.12,-20.75"/>
<text xml:space="preserve" text-anchor="middle" x="201.62" y="-7.25" font-family="Helvetica,sans-Serif" font-size="10.00">cstdint</text>
</a>
</g>
</g>
<!-- Node1&#45;&gt;Node5 -->
<g id="edge7_Node000001_Node000005" class="edge">
<title>Node1&#45;&gt;Node5</title>
<g id="a_edge7_Node000001_Node000005"><a xlink:title=" ">
<path fill="none" stroke="#63b8ff" d="M180.04,-113.32C186.43,-103.49 193.85,-90.35 197.62,-77.5 201.95,-62.78 202.85,-45.45 202.73,-32.23"/>
<polygon fill="#63b8ff" stroke="#63b8ff" points="206.23,-32.42 202.42,-22.53 199.24,-32.64 206.23,-32.42"/>
</a>
</g>
</g>
<!-- Node6 -->
<g id="Node000006" class="node">
<title>Node6</title>
<g id="a_Node000006"><a xlink:title=" ">
<polygon fill="#e0e0e0" stroke="#999999" points="296.62,-77.5 244.62,-77.5 244.62,-56.75 296.62,-56.75 296.62,-77.5"/>
<text xml:space="preserve" text-anchor="middle" x="270.62" y="-64" font-family="Helvetica,sans-Serif" font-size="10.00">cstddef</text>
</a>
</g>
</g>
<!-- Node1&#45;&gt;Node6 -->
<g id="edge6_Node000001_Node000006" class="edge">
<title>Node1&#45;&gt;Node6</title>
<g id="a_edge6_Node000001_Node000006"><a xlink:title=" ">
<path fill="none" stroke="#63b8ff" d="M195.69,-113.03C210.84,-103.95 229.64,-92.68 244.62,-83.71"/>
<polygon fill="#63b8ff" stroke="#63b8ff" points="246.21,-86.84 252.99,-78.69 242.61,-80.83 246.21,-86.84"/>
</a>
</g>
</g>
<!-- Node3&#45;&gt;Node2 -->
<g id="edge3_Node000003_Node000002" class="edge">
<title>Node3&#45;&gt;Node2</title>
<g id="a_edge3_Node000003_Node000002"><a xlink:title=" ">
<path fill="none" stroke="#63b8ff" d="M105.25,-56.34C92.53,-48.24 74.22,-36.58 59.43,-27.17"/>
<polygon fill="#63b8ff" stroke="#63b8ff" points="61.46,-24.31 51.14,-21.89 57.7,-30.21 61.46,-24.31"/>
</a>
</g>
</g>
<!-- Node4 -->
<g id="Node000004" class="node">
<title>Node4</title>
<g id="a_Node000004"><a xlink:title=" ">
<polygon fill="#e0e0e0" stroke="#999999" points="144,-20.75 97.25,-20.75 97.25,0 144,0 144,-20.75"/>
<text xml:space="preserve" text-anchor="middle" x="120.62" y="-7.25" font-family="Helvetica,sans-Serif" font-size="10.00">cmath</text>
</a>
</g>
</g>
<!-- Node3&#45;&gt;Node4 -->
<g id="edge4_Node000003_Node000004" class="edge">
<title>Node3&#45;&gt;Node4</title>
<g id="a_edge4_Node000003_Node000004"><a xlink:title=" ">
<path fill="none" stroke="#63b8ff" d="M120.62,-56.34C120.62,-49.72 120.62,-40.72 120.62,-32.52"/>
<polygon fill="#63b8ff" stroke="#63b8ff" points="124.13,-32.59 120.63,-22.59 117.13,-32.59 124.13,-32.59"/>
</a>
</g>
</g>
<!-- Node3&#45;&gt;Node5 -->
<g id="edge5_Node000003_Node000005" class="edge">
<title>Node3&#45;&gt;Node5</title>
<g id="a_edge5_Node000003_Node000005"><a xlink:title=" ">
<path fill="none" stroke="#63b8ff" d="M135.11,-56.34C146.97,-48.32 164,-36.81 177.86,-27.44"/>
<polygon fill="#63b8ff" stroke="#63b8ff" points="179.69,-30.43 186.02,-21.93 175.77,-24.63 179.69,-30.43"/>
</a>
</g>
</g>
</g>
</svg>
