<?xml version="1.0" encoding="UTF-8" standalone="no"?>
<!DOCTYPE svg PUBLIC "-//W3C//DTD SVG 1.1//EN"
 "http://www.w3.org/Graphics/SVG/1.1/DTD/svg11.dtd">
<!-- Generated by graphviz version 14.1.5 (0)
 -->
<!-- Title: Source/TactixSystems/Public/GOAP/FTactixWorldState.h Pages: 1 -->
<svg width="1713pt" height="263pt"
 viewBox="0.00 0.00 1713.00 263.00" xmlns="http://www.w3.org/2000/svg" xmlns:xlink="http://www.w3.org/1999/xlink">
<g id="graph0" class="graph" transform="scale(1 1) rotate(0) translate(4 258.75)">
<title>Source/TactixSystems/Public/GOAP/FTactixWorldState.h</title>
<!-- Node1 -->
<g id="Node000001" class="node">
<title>Node1</title>
<g id="a_Node000001"><a xlink:title="Symbolic world state for the GOAP planner: 64 boolean facts plus a &quot;defined&quot; mask.">
<polygon fill="#999999" stroke="#666666" points="1289.5,-254.75 1111.5,-254.75 1111.5,-221.25 1289.5,-221.25 1289.5,-254.75"/>
<text xml:space="preserve" text-anchor="start" x="1119.5" y="-241.25" font-family="Helvetica,sans-Serif" font-size="10.00">Source/TactixSystems</text>
<text xml:space="preserve" text-anchor="middle" x="1200.5" y="-228.5" font-family="Helvetica,sans-Serif" font-size="10.00">/Public/GOAP/FTactixWorldState.h</text>
</a>
</g>
</g>
<!-- Node2 -->
<g id="Node000002" class="node">
<title>Node2</title>
<g id="a_Node000002"><a xlink:href="FTactixGOAPPlanner_8h.html" target="_top" xlink:title="A* planner over the GOAP world&#45;state graph.">
<polygon fill="white" stroke="#666666" points="996.75,-185.25 808.25,-185.25 808.25,-151.75 996.75,-151.75 996.75,-185.25"/>
<text xml:space="preserve" text-anchor="start" x="816.25" y="-171.75" font-family="Helvetica,sans-Serif" font-size="10.00">Source/TactixSystems</text>
<text xml:space="preserve" text-anchor="middle" x="902.5" y="-159" font-family="Helvetica,sans-Serif" font-size="10.00">/Public/GOAP/FTactixGOAPPlanner.h</text>
</a>
</g>
</g>
<!-- Node1&#45;&gt;Node2 -->
<g id="edge1_Node000001_Node000002" class="edge">
<title>Node1&#45;&gt;Node2</title>
<g id="a_edge1_Node000001_Node000002"><a xlink:title=" ">
<path fill="none" stroke="#63b8ff" d="M1118.16,-218.35C1072.96,-208.11 1017.45,-195.54 974.07,-185.71"/>
<polygon fill="#63b8ff" stroke="#63b8ff" points="1117.12,-221.7 1127.65,-220.5 1118.67,-214.87 1117.12,-221.7"/>
</a>
</g>
</g>
<!-- Node15 -->
<g id="Node000015" class="node">
<title>Node15</title>
<g id="a_Node000015"><a xlink:href="ITactixGOAPAction_8h.html" target="_top" xlink:title="Interface for a GOAP action: a graph edge with preconditions, effects and a cost.">
<polygon fill="white" stroke="#666666" points="1388.62,-185.25 1208.38,-185.25 1208.38,-151.75 1388.62,-151.75 1388.62,-185.25"/>
<text xml:space="preserve" text-anchor="start" x="1216.38" y="-171.75" font-family="Helvetica,sans-Serif" font-size="10.00">Source/TactixSystems</text>
<text xml:space="preserve" text-anchor="middle" x="1298.5" y="-159" font-family="Helvetica,sans-Serif" font-size="10.00">/Public/GOAP/ITactixGOAPAction.h</text>
</a>
</g>
</g>
<!-- Node1&#45;&gt;Node15 -->
<g id="edge15_Node000001_Node000015" class="edge">
<title>Node1&#45;&gt;Node15</title>
<g id="a_edge15_Node000001_Node000015"><a xlink:title=" ">
<path fill="none" stroke="#63b8ff" d="M1232.89,-214.69C1246.69,-205.19 1262.47,-194.31 1275.1,-185.62"/>
<polygon fill="#63b8ff" stroke="#63b8ff" points="1231.22,-211.59 1224.97,-220.14 1235.19,-217.35 1231.22,-211.59"/>
</a>
</g>
</g>
<!-- Node16 -->
<g id="Node000016" class="node">
<title>Node16</title>
<g id="a_Node000016"><a xlink:href="FTactixHTNPlanner_8h.html" target="_top" xlink:title="Depth&#45;first HTN planner with method&#45;order fallback and backtracking.">
<polygon fill="white" stroke="#666666" points="1190,-185.25 1015,-185.25 1015,-151.75 1190,-151.75 1190,-185.25"/>
<text xml:space="preserve" text-anchor="start" x="1023" y="-171.75" font-family="Helvetica,sans-Serif" font-size="10.00">Source/TactixSystems</text>
<text xml:space="preserve" text-anchor="middle" x="1102.5" y="-159" font-family="Helvetica,sans-Serif" font-size="10.00">/Public/HTN/FTactixHTNPlanner.h</text>
</a>
</g>
</g>
<!-- Node1&#45;&gt;Node16 -->
<g id="edge18_Node000001_Node000016" class="edge">
<title>Node1&#45;&gt;Node16</title>
<g id="a_edge18_Node000001_Node000016"><a xlink:title=" ">
<path fill="none" stroke="#63b8ff" d="M1168.11,-214.69C1154.31,-205.19 1138.53,-194.31 1125.9,-185.62"/>
<polygon fill="#63b8ff" stroke="#63b8ff" points="1165.81,-217.35 1176.03,-220.14 1169.78,-211.59 1165.81,-217.35"/>
</a>
</g>
</g>
<!-- Node18 -->
<g id="Node000018" class="node">
<title>Node18</title>
<g id="a_Node000018"><a xlink:href="ITactixHTNTask_8h.html" target="_top" xlink:title="Task hierarchy for the HTN planner: the common base, primitive (leaf) tasks, and compound tasks that ...">
<polygon fill="white" stroke="#666666" points="1564.75,-185.25 1406.25,-185.25 1406.25,-151.75 1564.75,-151.75 1564.75,-185.25"/>
<text xml:space="preserve" text-anchor="start" x="1414.25" y="-171.75" font-family="Helvetica,sans-Serif" font-size="10.00">Source/TactixSystems</text>
<text xml:space="preserve" text-anchor="middle" x="1485.5" y="-159" font-family="Helvetica,sans-Serif" font-size="10.00">/Public/HTN/ITactixHTNTask.h</text>
</a>
</g>
</g>
<!-- Node1&#45;&gt;Node18 -->
<g id="edge22_Node000001_Node000018" class="edge">
<title>Node1&#45;&gt;Node18</title>
<g id="a_edge22_Node000001_Node000018"><a xlink:title=" ">
<path fill="none" stroke="#63b8ff" d="M1279.81,-218.22C1323.02,-207.98 1375.95,-195.45 1417.3,-185.65"/>
<polygon fill="#63b8ff" stroke="#63b8ff" points="1279.16,-214.77 1270.24,-220.48 1280.77,-221.58 1279.16,-214.77"/>
</a>
</g>
</g>
<!-- Node3 -->
<g id="Node000003" class="node">
<title>Node3</title>
<g id="a_Node000003"><a xlink:href="FTactixVisualDebugger_8h.html" target="_top" xlink:title="Static helpers that draw per&#45;agent debug overlays in the world.">
<polygon fill="white" stroke="#666666" points="806.75,-115.75 636.25,-115.75 636.25,-82.25 806.75,-82.25 806.75,-115.75"/>
<text xml:space="preserve" text-anchor="start" x="644.25" y="-102.25" font-family="Helvetica,sans-Serif" font-size="10.00">Source/TactixDebug</text>
<text xml:space="preserve" text-anchor="middle" x="721.5" y="-89.5" font-family="Helvetica,sans-Serif" font-size="10.00">/Public/FTactixVisualDebugger.h</text>
</a>
</g>
</g>
<!-- Node2&#45;&gt;Node3 -->
<g id="edge2_Node000002_Node000003" class="edge">
<title>Node2&#45;&gt;Node3</title>
<g id="a_edge2_Node000002_Node000003"><a xlink:title=" ">
<path fill="none" stroke="#63b8ff" d="M848.42,-147.33C821.7,-137.37 789.9,-125.51 764.81,-116.15"/>
<polygon fill="#63b8ff" stroke="#63b8ff" points="847.14,-150.59 857.73,-150.8 849.58,-144.03 847.14,-150.59"/>
</a>
</g>
</g>
<!-- Node5 -->
<g id="Node000005" class="node">
<title>Node5</title>
<g id="a_Node000005"><a xlink:href="FTactixGOAPPlanner_8cpp.html" target="_top" xlink:title="A* implementation for Tactix::FTactixGOAPPlanner.">
<polygon fill="white" stroke="#666666" points="1280,-115.75 1075,-115.75 1075,-82.25 1280,-82.25 1280,-115.75"/>
<text xml:space="preserve" text-anchor="start" x="1083" y="-102.25" font-family="Helvetica,sans-Serif" font-size="10.00">Source/TactixSystems</text>
<text xml:space="preserve" text-anchor="middle" x="1177.5" y="-89.5" font-family="Helvetica,sans-Serif" font-size="10.00">/Private/GOAP/FTactixGOAPPlanner.cpp</text>
</a>
</g>
</g>
<!-- Node2&#45;&gt;Node5 -->
<g id="edge4_Node000002_Node000005" class="edge">
<title>Node2&#45;&gt;Node5</title>
<g id="a_edge4_Node000002_Node000005"><a xlink:title=" ">
<path fill="none" stroke="#63b8ff" d="M979.3,-148.65C1020.94,-138.43 1071.88,-125.92 1111.69,-116.15"/>
<polygon fill="#63b8ff" stroke="#63b8ff" points="978.72,-145.19 969.84,-150.97 980.39,-151.99 978.72,-145.19"/>
</a>
</g>
</g>
<!-- Node6 -->
<g id="Node000006" class="node">
<title>Node6</title>
<g id="a_Node000006"><a xlink:href="ATactixAIController_8h.html" target="_top" xlink:title="Base AIController for Tactix&#45;aware pawns.">
<polygon fill="white" stroke="#666666" points="995.75,-115.75 825.25,-115.75 825.25,-82.25 995.75,-82.25 995.75,-115.75"/>
<text xml:space="preserve" text-anchor="start" x="833.25" y="-102.25" font-family="Helvetica,sans-Serif" font-size="10.00">Source/TactixUE/Public</text>
<text xml:space="preserve" text-anchor="middle" x="910.5" y="-89.5" font-family="Helvetica,sans-Serif" font-size="10.00">/Controller/ATactixAIController.h</text>
</a>
</g>
</g>
<!-- Node2&#45;&gt;Node6 -->
<g id="edge5_Node000002_Node000006" class="edge">
<title>Node2&#45;&gt;Node6</title>
<g id="a_edge5_Node000002_Node000006"><a xlink:title=" ">
<path fill="none" stroke="#63b8ff" d="M905.72,-140.35C906.7,-132.04 907.75,-123.18 908.62,-115.88"/>
<polygon fill="#63b8ff" stroke="#63b8ff" points="902.28,-139.66 904.57,-150 909.23,-140.48 902.28,-139.66"/>
</a>
</g>
</g>
<!-- Node4 -->
<g id="Node000004" class="node">
<title>Node4</title>
<g id="a_Node000004"><a xlink:href="FTactixVisualDebugger_8cpp.html" target="_top" xlink:title="Implements the agent debug overlays with debug&#45;draw primitives.">
<polygon fill="white" stroke="#666666" points="187,-39.88 0,-39.88 0,-6.38 187,-6.38 187,-39.88"/>
<text xml:space="preserve" text-anchor="start" x="8" y="-26.38" font-family="Helvetica,sans-Serif" font-size="10.00">Source/TactixDebug</text>
<text xml:space="preserve" text-anchor="middle" x="93.5" y="-13.62" font-family="Helvetica,sans-Serif" font-size="10.00">/Private/FTactixVisualDebugger.cpp</text>
</a>
</g>
</g>
<!-- Node3&#45;&gt;Node4 -->
<g id="edge3_Node000003_Node000004" class="edge">
<title>Node3&#45;&gt;Node4</title>
<g id="a_edge3_Node000003_Node000004"><a xlink:title=" ">
<path fill="none" stroke="#63b8ff" d="M624.64,-91.84C518.78,-84.32 344.4,-69.64 195.5,-46.25 185.03,-44.6 174.02,-42.56 163.26,-40.37"/>
<polygon fill="#63b8ff" stroke="#63b8ff" points="624.2,-95.32 634.42,-92.53 624.69,-88.33 624.2,-95.32"/>
</a>
</g>
</g>
<!-- Node6&#45;&gt;Node4 -->
<g id="edge7_Node000006_Node000004" class="edge">
<title>Node6&#45;&gt;Node4</title>
<g id="a_edge7_Node000006_Node000004"><a xlink:title=" ">
<path fill="none" stroke="#63b8ff" d="M813.74,-82.15C539.24,-52.47 465.37,-83.13 195.5,-46.25 184.37,-44.73 172.65,-42.65 161.27,-40.36"/>
<polygon fill="#63b8ff" stroke="#63b8ff" points="813.03,-85.59 823.35,-83.21 813.79,-78.63 813.03,-85.59"/>
</a>
</g>
</g>
<!-- Node7 -->
<g id="Node000007" class="node">
<title>Node7</title>
<g id="a_Node000007"><a xlink:href="FTactixGameplayDebuggerCategory_8cpp.html" target="_top" xlink:title="Implements the Gameplay Debugger category: collect agent state, then render it as text lines.">
<polygon fill="white" stroke="#666666" points="592.38,-46.25 404.62,-46.25 404.62,0 592.38,0 592.38,-46.25"/>
<text xml:space="preserve" text-anchor="start" x="412.62" y="-32.75" font-family="Helvetica,sans-Serif" font-size="10.00">Source/TactixDebug</text>
<text xml:space="preserve" text-anchor="start" x="412.62" y="-20" font-family="Helvetica,sans-Serif" font-size="10.00">/Private/FTactixGameplayDebugger</text>
<text xml:space="preserve" text-anchor="middle" x="498.5" y="-7.25" font-family="Helvetica,sans-Serif" font-size="10.00">Category.cpp</text>
</a>
</g>
</g>
<!-- Node6&#45;&gt;Node7 -->
<g id="edge6_Node000006_Node000007" class="edge">
<title>Node6&#45;&gt;Node7</title>
<g id="a_edge6_Node000006_Node000007"><a xlink:title=" ">
<path fill="none" stroke="#63b8ff" d="M813.68,-81.9C727.04,-67.47 612.04,-48.26 601.5,-46.25 598.63,-45.7 595.71,-45.13 592.76,-44.55"/>
<polygon fill="#63b8ff" stroke="#63b8ff" points="812.97,-85.32 823.41,-83.51 814.12,-78.42 812.97,-85.32"/>
</a>
</g>
</g>
<!-- Node8 -->
<g id="Node000008" class="node">
<title>Node8</title>
<g id="a_Node000008"><a xlink:href="UTactixBTDecorator__InCover_8cpp.html" target="_top" xlink:title="Implements the in&#45;cover decorator condition.">
<polygon fill="white" stroke="#666666" points="792.75,-46.25 610.25,-46.25 610.25,0 792.75,0 792.75,-46.25"/>
<text xml:space="preserve" text-anchor="start" x="618.25" y="-32.75" font-family="Helvetica,sans-Serif" font-size="10.00">Source/TactixUE/Private</text>
<text xml:space="preserve" text-anchor="start" x="618.25" y="-20" font-family="Helvetica,sans-Serif" font-size="10.00">/BehaviorTree/UTactixBTDecorator</text>
<text xml:space="preserve" text-anchor="middle" x="701.5" y="-7.25" font-family="Helvetica,sans-Serif" font-size="10.00">_InCover.cpp</text>
</a>
</g>
</g>
<!-- Node6&#45;&gt;Node8 -->
<g id="edge8_Node000006_Node000008" class="edge">
<title>Node6&#45;&gt;Node8</title>
<g id="a_edge8_Node000006_Node000008"><a xlink:title=" ">
<path fill="none" stroke="#63b8ff" d="M854.07,-78.05C826.72,-68.39 793.77,-56.74 765.49,-46.74"/>
<polygon fill="#63b8ff" stroke="#63b8ff" points="852.61,-81.25 863.21,-81.28 854.95,-74.65 852.61,-81.25"/>
</a>
</g>
</g>
<!-- Node9 -->
<g id="Node000009" class="node">
<title>Node9</title>
<g id="a_Node000009"><a xlink:href="UTactixBTDecorator__PlanActive_8cpp.html" target="_top" xlink:title="Implements the plan&#45;active decorator condition (valid plan with steps left).">
<polygon fill="white" stroke="#666666" points="993.75,-46.25 811.25,-46.25 811.25,0 993.75,0 993.75,-46.25"/>
<text xml:space="preserve" text-anchor="start" x="819.25" y="-32.75" font-family="Helvetica,sans-Serif" font-size="10.00">Source/TactixUE/Private</text>
<text xml:space="preserve" text-anchor="start" x="819.25" y="-20" font-family="Helvetica,sans-Serif" font-size="10.00">/BehaviorTree/UTactixBTDecorator</text>
<text xml:space="preserve" text-anchor="middle" x="902.5" y="-7.25" font-family="Helvetica,sans-Serif" font-size="10.00">_PlanActive.cpp</text>
</a>
</g>
</g>
<!-- Node6&#45;&gt;Node9 -->
<g id="edge9_Node000006_Node000009" class="edge">
<title>Node6&#45;&gt;Node9</title>
<g id="a_edge9_Node000006_Node000009"><a xlink:title=" ">
<path fill="none" stroke="#63b8ff" d="M907.54,-70.64C906.68,-62.71 905.75,-54.16 904.93,-46.57"/>
<polygon fill="#63b8ff" stroke="#63b8ff" points="904.04,-70.9 908.6,-80.47 911,-70.15 904.04,-70.9"/>
</a>
</g>
</g>
<!-- Node10 -->
<g id="Node000010" class="node">
<title>Node10</title>
<g id="a_Node000010"><a xlink:href="UTactixBTService__InfluenceQuery_8cpp.html" target="_top" xlink:title="Implements the influence&#45;sampling BT service.">
<polygon fill="white" stroke="#666666" points="1182.75,-46.25 1012.25,-46.25 1012.25,0 1182.75,0 1182.75,-46.25"/>
<text xml:space="preserve" text-anchor="start" x="1020.25" y="-32.75" font-family="Helvetica,sans-Serif" font-size="10.00">Source/TactixUE/Private</text>
<text xml:space="preserve" text-anchor="start" x="1020.25" y="-20" font-family="Helvetica,sans-Serif" font-size="10.00">/BehaviorTree/UTactixBTService</text>
<text xml:space="preserve" text-anchor="middle" x="1097.5" y="-7.25" font-family="Helvetica,sans-Serif" font-size="10.00">_InfluenceQuery.cpp</text>
</a>
</g>
</g>
<!-- Node6&#45;&gt;Node10 -->
<g id="edge10_Node000006_Node000010" class="edge">
<title>Node6&#45;&gt;Node10</title>
<g id="a_edge10_Node000006_Node000010"><a xlink:title=" ">
<path fill="none" stroke="#63b8ff" d="M961.97,-77.67C986.24,-68.08 1015.28,-56.61 1040.24,-46.74"/>
<polygon fill="#63b8ff" stroke="#63b8ff" points="960.96,-74.3 952.95,-81.23 963.53,-80.81 960.96,-74.3"/>
</a>
</g>
</g>
<!-- Node11 -->
<g id="Node000011" class="node">
<title>Node11</title>
<g id="a_Node000011"><a xlink:href="UTactixBTTask__ClaimCover_8cpp.html" target="_top" xlink:title="Implements the cover query/claim BT task: build the query from agent and blackboard state,...">
<polygon fill="white" stroke="#666666" points="1356.62,-46.25 1200.38,-46.25 1200.38,0 1356.62,0 1356.62,-46.25"/>
<text xml:space="preserve" text-anchor="start" x="1208.38" y="-32.75" font-family="Helvetica,sans-Serif" font-size="10.00">Source/TactixUE/Private</text>
<text xml:space="preserve" text-anchor="start" x="1208.38" y="-20" font-family="Helvetica,sans-Serif" font-size="10.00">/BehaviorTree/UTactixBTTask</text>
<text xml:space="preserve" text-anchor="middle" x="1278.5" y="-7.25" font-family="Helvetica,sans-Serif" font-size="10.00">_ClaimCover.cpp</text>
</a>
</g>
</g>
<!-- Node6&#45;&gt;Node11 -->
<g id="edge11_Node000006_Node000011" class="edge">
<title>Node6&#45;&gt;Node11</title>
<g id="a_edge11_Node000006_Node000011"><a xlink:title=" ">
<path fill="none" stroke="#63b8ff" d="M1006.97,-81.88C1061.35,-72.38 1130.41,-59.63 1191.5,-46.25 1194.39,-45.62 1197.34,-44.96 1200.3,-44.27"/>
<polygon fill="#63b8ff" stroke="#63b8ff" points="1006.7,-78.37 997.44,-83.53 1007.9,-85.27 1006.7,-78.37"/>
</a>
</g>
</g>
<!-- Node12 -->
<g id="Node000012" class="node">
<title>Node12</title>
<g id="a_Node000012"><a xlink:href="UTactixBTTask__ExecutePlan_8cpp.html" target="_top" xlink:title="Implements step&#45;by&#45;step plan execution for the BT task.">
<polygon fill="white" stroke="#666666" points="1704.62,-46.25 1548.38,-46.25 1548.38,0 1704.62,0 1704.62,-46.25"/>
<text xml:space="preserve" text-anchor="start" x="1556.38" y="-32.75" font-family="Helvetica,sans-Serif" font-size="10.00">Source/TactixUE/Private</text>
<text xml:space="preserve" text-anchor="start" x="1556.38" y="-20" font-family="Helvetica,sans-Serif" font-size="10.00">/BehaviorTree/UTactixBTTask</text>
<text xml:space="preserve" text-anchor="middle" x="1626.5" y="-7.25" font-family="Helvetica,sans-Serif" font-size="10.00">_ExecutePlan.cpp</text>
</a>
</g>
</g>
<!-- Node6&#45;&gt;Node12 -->
<g id="edge12_Node000006_Node000012" class="edge">
<title>Node6&#45;&gt;Node12</title>
<g id="a_edge12_Node000006_Node000012"><a xlink:title=" ">
<path fill="none" stroke="#63b8ff" d="M1007.3,-87.85C1026.89,-85.9 1047.35,-83.95 1066.5,-82.25 1276.51,-63.66 1331.45,-80.36 1539.5,-46.25 1542.27,-45.8 1545.08,-45.3 1547.91,-44.76"/>
<polygon fill="#63b8ff" stroke="#63b8ff" points="1006.99,-84.37 997.39,-88.85 1007.69,-91.33 1006.99,-84.37"/>
</a>
</g>
</g>
<!-- Node13 -->
<g id="Node000013" class="node">
<title>Node13</title>
<g id="a_Node000013"><a xlink:href="UTactixBTTask__RunUtility_8cpp.html" target="_top" xlink:title="Implements the utility&#45;selection BT task: snapshot the agent, pick the best action,...">
<polygon fill="white" stroke="#666666" points="1530.62,-46.25 1374.38,-46.25 1374.38,0 1530.62,0 1530.62,-46.25"/>
<text xml:space="preserve" text-anchor="start" x="1382.38" y="-32.75" font-family="Helvetica,sans-Serif" font-size="10.00">Source/TactixUE/Private</text>
<text xml:space="preserve" text-anchor="start" x="1382.38" y="-20" font-family="Helvetica,sans-Serif" font-size="10.00">/BehaviorTree/UTactixBTTask</text>
<text xml:space="preserve" text-anchor="middle" x="1452.5" y="-7.25" font-family="Helvetica,sans-Serif" font-size="10.00">_RunUtility.cpp</text>
</a>
</g>
</g>
<!-- Node6&#45;&gt;Node13 -->
<g id="edge13_Node000006_Node000013" class="edge">
<title>Node6&#45;&gt;Node13</title>
<g id="a_edge13_Node000006_Node000013"><a xlink:title=" ">
<path fill="none" stroke="#63b8ff" d="M1007.47,-87.68C1130.59,-74.47 1331.23,-52.53 1365.5,-46.25 1368.26,-45.74 1371.06,-45.2 1373.88,-44.63"/>
<polygon fill="#63b8ff" stroke="#63b8ff" points="1007.24,-84.18 997.67,-88.73 1007.99,-91.14 1007.24,-84.18"/>
</a>
</g>
</g>
<!-- Node14 -->
<g id="Node000014" class="node">
<title>Node14</title>
<g id="a_Node000014"><a xlink:href="ATactixAIController_8cpp.html" target="_top" xlink:title="Implements the Tactix AIController: scratch arena ownership, handle assignment on possess,...">
<polygon fill="white" stroke="#666666" points="386.38,-39.88 204.62,-39.88 204.62,-6.38 386.38,-6.38 386.38,-39.88"/>
<text xml:space="preserve" text-anchor="start" x="212.62" y="-26.38" font-family="Helvetica,sans-Serif" font-size="10.00">Source/TactixUE/Private</text>
<text xml:space="preserve" text-anchor="middle" x="295.5" y="-13.62" font-family="Helvetica,sans-Serif" font-size="10.00">/Controller/ATactixAIController.cpp</text>
</a>
</g>
</g>
<!-- Node6&#45;&gt;Node14 -->
<g id="edge14_Node000006_Node000014" class="edge">
<title>Node6&#45;&gt;Node14</title>
<g id="a_edge14_Node000006_Node000014"><a xlink:title=" ">
<path fill="none" stroke="#63b8ff" d="M813.57,-82.09C627.65,-59.5 577.08,-74 395.5,-46.25 384.95,-44.64 373.86,-42.57 363.05,-40.34"/>
<polygon fill="#63b8ff" stroke="#63b8ff" points="812.98,-85.54 823.34,-83.29 813.84,-78.59 812.98,-85.54"/>
</a>
</g>
</g>
<!-- Node15&#45;&gt;Node5 -->
<g id="edge16_Node000015_Node000005" class="edge">
<title>Node15&#45;&gt;Node5</title>
<g id="a_edge16_Node000015_Node000005"><a xlink:title=" ">
<path fill="none" stroke="#63b8ff" d="M1259.67,-145.84C1242.31,-136.16 1222.22,-124.95 1206.25,-116.04"/>
<polygon fill="#63b8ff" stroke="#63b8ff" points="1257.76,-148.78 1268.2,-150.59 1261.17,-142.67 1257.76,-148.78"/>
</a>
</g>
</g>
<!-- Node15&#45;&gt;Node12 -->
<g id="edge17_Node000015_Node000012" class="edge">
<title>Node15&#45;&gt;Node12</title>
<g id="a_edge17_Node000015_Node000012"><a xlink:title=" ">
<path fill="none" stroke="#63b8ff" d="M1313.98,-142.06C1327.13,-122.66 1347.79,-96.86 1372.5,-82.25 1437.85,-43.6 1465.58,-63.61 1539.5,-46.25 1542.38,-45.57 1545.32,-44.87 1548.28,-44.16"/>
<polygon fill="#63b8ff" stroke="#63b8ff" points="1311.16,-139.98 1308.63,-150.26 1317.02,-143.8 1311.16,-139.98"/>
</a>
</g>
</g>
<!-- Node16&#45;&gt;Node3 -->
<g id="edge19_Node000016_Node000003" class="edge">
<title>Node16&#45;&gt;Node3</title>
<g id="a_edge19_Node000016_Node000003"><a xlink:title=" ">
<path fill="none" stroke="#63b8ff" d="M1003.43,-149.95C942.51,-139.15 865.22,-125.46 806.98,-115.14"/>
<polygon fill="#63b8ff" stroke="#63b8ff" points="1002.66,-153.37 1013.12,-151.67 1003.89,-146.47 1002.66,-153.37"/>
</a>
</g>
</g>
<!-- Node16&#45;&gt;Node6 -->
<g id="edge21_Node000016_Node000006" class="edge">
<title>Node16&#45;&gt;Node6</title>
<g id="a_edge21_Node000016_Node000006"><a xlink:title=" ">
<path fill="none" stroke="#63b8ff" d="M1045.89,-147.6C1017.39,-137.58 983.29,-125.59 956.45,-116.15"/>
<polygon fill="#63b8ff" stroke="#63b8ff" points="1044.49,-150.82 1055.08,-150.83 1046.81,-144.21 1044.49,-150.82"/>
</a>
</g>
</g>
<!-- Node17 -->
<g id="Node000017" class="node">
<title>Node17</title>
<g id="a_Node000017"><a xlink:href="FTactixHTNPlanner_8cpp.html" target="_top" xlink:title="Recursive decomposition for Tactix::FTactixHTNPlanner.">
<polygon fill="white" stroke="#666666" points="1573.25,-115.75 1381.75,-115.75 1381.75,-82.25 1573.25,-82.25 1573.25,-115.75"/>
<text xml:space="preserve" text-anchor="start" x="1389.75" y="-102.25" font-family="Helvetica,sans-Serif" font-size="10.00">Source/TactixSystems</text>
<text xml:space="preserve" text-anchor="middle" x="1477.5" y="-89.5" font-family="Helvetica,sans-Serif" font-size="10.00">/Private/HTN/FTactixHTNPlanner.cpp</text>
</a>
</g>
</g>
<!-- Node16&#45;&gt;Node17 -->
<g id="edge20_Node000016_Node000017" class="edge">
<title>Node16&#45;&gt;Node17</title>
<g id="a_edge20_Node000016_Node000017"><a xlink:title=" ">
<path fill="none" stroke="#63b8ff" d="M1201.39,-149.7C1259.12,-139.31 1331.4,-126.3 1387.53,-116.2"/>
<polygon fill="#63b8ff" stroke="#63b8ff" points="1201.13,-146.19 1191.91,-151.41 1202.37,-153.08 1201.13,-146.19"/>
</a>
</g>
</g>
<!-- Node18&#45;&gt;Node12 -->
<g id="edge24_Node000018_Node000012" class="edge">
<title>Node18&#45;&gt;Node12</title>
<g id="a_edge24_Node000018_Node000012"><a xlink:title=" ">
<path fill="none" stroke="#63b8ff" d="M1539.02,-146.57C1554.45,-138.65 1570.37,-128.41 1582.5,-115.75 1601.43,-96 1613.56,-66.58 1620.2,-46.44"/>
<polygon fill="#63b8ff" stroke="#63b8ff" points="1537.83,-143.26 1530.37,-150.79 1540.89,-149.56 1537.83,-143.26"/>
</a>
</g>
</g>
<!-- Node18&#45;&gt;Node17 -->
<g id="edge23_Node000018_Node000017" class="edge">
<title>Node18&#45;&gt;Node17</title>
<g id="a_edge23_Node000018_Node000017"><a xlink:title=" ">
<path fill="none" stroke="#63b8ff" d="M1482.28,-140.35C1481.3,-132.04 1480.25,-123.18 1479.38,-115.88"/>
<polygon fill="#63b8ff" stroke="#63b8ff" points="1478.77,-140.48 1483.43,-150 1485.72,-139.66 1478.77,-140.48"/>
</a>
</g>
</g>
</g>
</svg>
