<?xml version="1.0" encoding="UTF-8" standalone="no"?>
<!DOCTYPE svg PUBLIC "-//W3C//DTD SVG 1.1//EN"
 "http://www.w3.org/Graphics/SVG/1.1/DTD/svg11.dtd">
<!-- Generated by graphviz version 14.1.5 (0)
 -->
<!-- Title: Source/TactixSystems/Private/GOAP/FTactixGOAPPlanner.cpp Pages: 1 -->
<svg width="457pt" height="212pt"
 viewBox="0.00 0.00 457.00 212.00" xmlns="http://www.w3.org/2000/svg" xmlns:xlink="http://www.w3.org/1999/xlink">
<g id="graph0" class="graph" transform="scale(1 1) rotate(0) translate(4 207.75)">
<title>Source/TactixSystems/Private/GOAP/FTactixGOAPPlanner.cpp</title>
<!-- Node1 -->
<g id="Node000001" class="node">
<title>Node1</title>
<g id="a_Node000001"><a xlink:title="A* implementation for Tactix::FTactixGOAPPlanner.">
<polygon fill="#999999" stroke="#666666" points="353.12,-203.75 148.12,-203.75 148.12,-170.25 353.12,-170.25 353.12,-203.75"/>
<text xml:space="preserve" text-anchor="start" x="156.12" y="-190.25" font-family="Helvetica,sans-Serif" font-size="10.00">Source/TactixSystems</text>
<text xml:space="preserve" text-anchor="middle" x="250.62" y="-177.5" font-family="Helvetica,sans-Serif" font-size="10.00">/Private/GOAP/FTactixGOAPPlanner.cpp</text>
</a>
</g>
</g>
<!-- Node2 -->
<g id="Node000002" class="node">
<title>Node2</title>
<g id="a_Node000002"><a xlink:href="FTactixGOAPPlanner_8h.html" target="_top" xlink:title="A* planner over the GOAP world&#45;state graph.">
<polygon fill="white" stroke="#666666" points="153.25,-134.25 0,-134.25 0,-113.5 153.25,-113.5 153.25,-134.25"/>
<text xml:space="preserve" text-anchor="middle" x="76.62" y="-120.75" font-family="Helvetica,sans-Serif" font-size="10.00">GOAP/FTactixGOAPPlanner.h</text>
</a>
</g>
</g>
<!-- Node1&#45;&gt;Node2 -->
<g id="edge1_Node000001_Node000002" class="edge">
<title>Node1&#45;&gt;Node2</title>
<g id="a_edge1_Node000001_Node000002"><a xlink:title=" ">
<path fill="none" stroke="#63b8ff" d="M204.45,-169.78C176.61,-160 141.56,-147.69 115.21,-138.43"/>
<polygon fill="#63b8ff" stroke="#63b8ff" points="116.52,-135.18 105.92,-135.17 114.2,-141.78 116.52,-135.18"/>
</a>
</g>
</g>
<!-- Node6 -->
<g id="Node000006" class="node">
<title>Node6</title>
<g id="a_Node000006"><a xlink:href="ITactixGOAPAction_8h.html" target="_top" xlink:title="Interface for a GOAP action: a graph edge with preconditions, effects and a cost.">
<polygon fill="white" stroke="#666666" points="323.12,-134.25 178.12,-134.25 178.12,-113.5 323.12,-113.5 323.12,-134.25"/>
<text xml:space="preserve" text-anchor="middle" x="250.62" y="-120.75" font-family="Helvetica,sans-Serif" font-size="10.00">GOAP/ITactixGOAPAction.h</text>
</a>
</g>
</g>
<!-- Node1&#45;&gt;Node6 -->
<g id="edge7_Node000001_Node000006" class="edge">
<title>Node1&#45;&gt;Node6</title>
<g id="a_edge7_Node000001_Node000006"><a xlink:title=" ">
<path fill="none" stroke="#63b8ff" d="M250.62,-169.94C250.62,-162.6 250.62,-153.82 250.62,-145.96"/>
<polygon fill="#63b8ff" stroke="#63b8ff" points="254.13,-146.23 250.63,-136.23 247.13,-146.23 254.13,-146.23"/>
</a>
</g>
</g>
<!-- Node7 -->
<g id="Node000007" class="node">
<title>Node7</title>
<g id="a_Node000007"><a xlink:href="TactixArena_8h.html" target="_top" xlink:title="Bump (linear) allocator for short&#45;lived scratch memory.">
<polygon fill="white" stroke="#666666" points="428.12,-77.5 289.12,-77.5 289.12,-56.75 428.12,-56.75 428.12,-77.5"/>
<text xml:space="preserve" text-anchor="middle" x="358.62" y="-64" font-family="Helvetica,sans-Serif" font-size="10.00">Foundation/TactixArena.h</text>
</a>
</g>
</g>
<!-- Node1&#45;&gt;Node7 -->
<g id="edge10_Node000001_Node000007" class="edge">
<title>Node1&#45;&gt;Node7</title>
<g id="a_edge10_Node000001_Node000007"><a xlink:title=" ">
<path fill="none" stroke="#63b8ff" d="M286.62,-169.77C302.48,-161.12 320.28,-149.17 332.62,-134.25 343.57,-121.02 350.3,-102.62 354.16,-88.59"/>
<polygon fill="#63b8ff" stroke="#63b8ff" points="357.51,-89.64 356.49,-79.1 350.71,-87.97 357.51,-89.64"/>
</a>
</g>
</g>
<!-- Node3 -->
<g id="Node000003" class="node">
<title>Node3</title>
<g id="a_Node000003"><a xlink:href="TactixApi_8h.html" target="_top" xlink:title="Export macros, compiler attributes and version constants shared by every Tactix module.">
<polygon fill="white" stroke="#666666" points="262.25,-20.75 193,-20.75 193,0 262.25,0 262.25,-20.75"/>
<text xml:space="preserve" text-anchor="middle" x="227.62" y="-7.25" font-family="Helvetica,sans-Serif" font-size="10.00">TactixApi.h</text>
</a>
</g>
</g>
<!-- Node2&#45;&gt;Node3 -->
<g id="edge2_Node000002_Node000003" class="edge">
<title>Node2&#45;&gt;Node3</title>
<g id="a_edge2_Node000002_Node000003"><a xlink:title=" ">
<path fill="none" stroke="#63b8ff" d="M74.27,-113.14C71.49,-99.07 68.72,-72.96 81.62,-56.75 88.1,-48.61 141.39,-33.43 181.74,-22.88"/>
<polygon fill="#63b8ff" stroke="#63b8ff" points="182.45,-26.31 191.26,-20.41 180.7,-19.53 182.45,-26.31"/>
</a>
</g>
</g>
<!-- Node4 -->
<g id="Node000004" class="node">
<title>Node4</title>
<g id="a_Node000004"><a xlink:href="FTactixWorldState_8h.html" target="_top" xlink:title="Symbolic world state for the GOAP planner: 64 boolean facts plus a &quot;defined&quot; mask.">
<polygon fill="white" stroke="#666666" points="233,-77.5 90.25,-77.5 90.25,-56.75 233,-56.75 233,-77.5"/>
<text xml:space="preserve" text-anchor="middle" x="161.62" y="-64" font-family="Helvetica,sans-Serif" font-size="10.00">GOAP/FTactixWorldState.h</text>
</a>
</g>
</g>
<!-- Node2&#45;&gt;Node4 -->
<g id="edge3_Node000002_Node000004" class="edge">
<title>Node2&#45;&gt;Node4</title>
<g id="a_edge3_Node000002_Node000004"><a xlink:title=" ">
<path fill="none" stroke="#63b8ff" d="M91.82,-113.09C104.39,-104.99 122.49,-93.33 137.11,-83.92"/>
<polygon fill="#63b8ff" stroke="#63b8ff" points="138.78,-87.01 145.29,-78.65 134.99,-81.12 138.78,-87.01"/>
</a>
</g>
</g>
<!-- Node5 -->
<g id="Node000005" class="node">
<title>Node5</title>
<g id="a_Node000005"><a xlink:title=" ">
<polygon fill="#e0e0e0" stroke="#999999" points="175.12,-20.75 126.12,-20.75 126.12,0 175.12,0 175.12,-20.75"/>
<text xml:space="preserve" text-anchor="middle" x="150.62" y="-7.25" font-family="Helvetica,sans-Serif" font-size="10.00">cstdint</text>
</a>
</g>
</g>
<!-- Node2&#45;&gt;Node5 -->
<g id="edge6_Node000002_Node000005" class="edge">
<title>Node2&#45;&gt;Node5</title>
<g id="a_edge6_Node000002_Node000005"><a xlink:title=" ">
<path fill="none" stroke="#63b8ff" d="M67.04,-113.38C54.8,-100.06 36.54,-75.36 48.62,-56.75 63.17,-34.36 91.59,-22.93 114.74,-17.15"/>
<polygon fill="#63b8ff" stroke="#63b8ff" points="115.45,-20.58 124.46,-15 113.94,-13.74 115.45,-20.58"/>
</a>
</g>
</g>
<!-- Node4&#45;&gt;Node3 -->
<g id="edge4_Node000004_Node000003" class="edge">
<title>Node4&#45;&gt;Node3</title>
<g id="a_edge4_Node000004_Node000003"><a xlink:title=" ">
<path fill="none" stroke="#63b8ff" d="M173.42,-56.34C182.81,-48.55 196.16,-37.47 207.27,-28.26"/>
<polygon fill="#63b8ff" stroke="#63b8ff" points="209.3,-31.12 214.76,-22.04 204.83,-25.74 209.3,-31.12"/>
</a>
</g>
</g>
<!-- Node4&#45;&gt;Node5 -->
<g id="edge5_Node000004_Node000005" class="edge">
<title>Node4&#45;&gt;Node5</title>
<g id="a_edge5_Node000004_Node000005"><a xlink:title=" ">
<path fill="none" stroke="#63b8ff" d="M159.66,-56.34C158.31,-49.64 156.48,-40.51 154.81,-32.23"/>
<polygon fill="#63b8ff" stroke="#63b8ff" points="158.27,-31.68 152.87,-22.56 151.41,-33.06 158.27,-31.68"/>
</a>
</g>
</g>
<!-- Node6&#45;&gt;Node3 -->
<g id="edge8_Node000006_Node000003" class="edge">
<title>Node6&#45;&gt;Node3</title>
<g id="a_edge8_Node000006_Node000003"><a xlink:title=" ">
<path fill="none" stroke="#63b8ff" d="M249.83,-113.37C248.63,-100.45 246.02,-76.66 241.62,-56.75 239.81,-48.51 237.2,-39.6 234.73,-31.88"/>
<polygon fill="#63b8ff" stroke="#63b8ff" points="238.06,-30.8 231.58,-22.42 231.42,-33.02 238.06,-30.8"/>
</a>
</g>
</g>
<!-- Node6&#45;&gt;Node4 -->
<g id="edge9_Node000006_Node000004" class="edge">
<title>Node6&#45;&gt;Node4</title>
<g id="a_edge9_Node000006_Node000004"><a xlink:title=" ">
<path fill="none" stroke="#63b8ff" d="M234.71,-113.09C221.42,-104.91 202.24,-93.11 186.86,-83.65"/>
<polygon fill="#63b8ff" stroke="#63b8ff" points="189.04,-80.88 178.69,-78.62 185.37,-86.84 189.04,-80.88"/>
</a>
</g>
</g>
<!-- Node7&#45;&gt;Node3 -->
<g id="edge11_Node000007_Node000003" class="edge">
<title>Node7&#45;&gt;Node3</title>
<g id="a_edge11_Node000007_Node000003"><a xlink:title=" ">
<path fill="none" stroke="#63b8ff" d="M335.2,-56.34C314.62,-47.73 284.42,-35.11 261.25,-25.43"/>
<polygon fill="#63b8ff" stroke="#63b8ff" points="262.82,-22.29 252.24,-21.66 260.12,-28.75 262.82,-22.29"/>
</a>
</g>
</g>
<!-- Node7&#45;&gt;Node5 -->
<g id="edge13_Node000007_Node000005" class="edge">
<title>Node7&#45;&gt;Node5</title>
<g id="a_edge13_Node000007_Node000005"><a xlink:title=" ">
<path fill="none" stroke="#63b8ff" d="M319.63,-56.29C286.48,-47.87 237.34,-35.24 186.37,-21.46"/>
<polygon fill="#63b8ff" stroke="#63b8ff" points="187.5,-18.14 176.93,-18.9 185.67,-24.89 187.5,-18.14"/>
</a>
</g>
</g>
<!-- Node8 -->
<g id="Node000008" class="node">
<title>Node8</title>
<g id="a_Node000008"><a xlink:title=" ">
<polygon fill="#e0e0e0" stroke="#999999" points="332.62,-20.75 280.62,-20.75 280.62,0 332.62,0 332.62,-20.75"/>
<text xml:space="preserve" text-anchor="middle" x="306.62" y="-7.25" font-family="Helvetica,sans-Serif" font-size="10.00">cstddef</text>
</a>
</g>
</g>
<!-- Node7&#45;&gt;Node8 -->
<g id="edge12_Node000007_Node000008" class="edge">
<title>Node7&#45;&gt;Node8</title>
<g id="a_edge12_Node000007_Node000008"><a xlink:title=" ">
<path fill="none" stroke="#63b8ff" d="M349.33,-56.34C342.23,-48.86 332.25,-38.36 323.72,-29.38"/>
<polygon fill="#63b8ff" stroke="#63b8ff" points="326.31,-27.02 316.88,-22.18 321.23,-31.84 326.31,-27.02"/>
</a>
</g>
</g>
<!-- Node9 -->
<g id="Node000009" class="node">
<title>Node9</title>
<g id="a_Node000009"><a xlink:title=" ">
<polygon fill="#e0e0e0" stroke="#999999" points="386.75,-20.75 350.5,-20.75 350.5,0 386.75,0 386.75,-20.75"/>
<text xml:space="preserve" text-anchor="middle" x="368.62" y="-7.25" font-family="Helvetica,sans-Serif" font-size="10.00">new</text>
</a>
</g>
</g>
<!-- Node7&#45;&gt;Node9 -->
<g id="edge14_Node000007_Node000009" class="edge">
<title>Node7&#45;&gt;Node9</title>
<g id="a_edge14_Node000007_Node000009"><a xlink:title=" ">
<path fill="none" stroke="#63b8ff" d="M360.41,-56.34C361.64,-49.64 363.3,-40.51 364.82,-32.23"/>
<polygon fill="#63b8ff" stroke="#63b8ff" points="368.23,-33.03 366.58,-22.57 361.34,-31.78 368.23,-33.03"/>
</a>
</g>
</g>
<!-- Node10 -->
<g id="Node000010" class="node">
<title>Node10</title>
<g id="a_Node000010"><a xlink:title=" ">
<polygon fill="#e0e0e0" stroke="#999999" points="448.88,-20.75 404.38,-20.75 404.38,0 448.88,0 448.88,-20.75"/>
<text xml:space="preserve" text-anchor="middle" x="426.62" y="-7.25" font-family="Helvetica,sans-Serif" font-size="10.00">utility</text>
</a>
</g>
</g>
<!-- Node7&#45;&gt;Node10 -->
<g id="edge15_Node000007_Node000010" class="edge">
<title>Node7&#45;&gt;Node10</title>
<g id="a_edge15_Node000007_Node000010"><a xlink:title=" ">
<path fill="none" stroke="#63b8ff" d="M370.78,-56.34C380.45,-48.55 394.21,-37.47 405.65,-28.26"/>
<polygon fill="#63b8ff" stroke="#63b8ff" points="407.8,-31.03 413.39,-22.03 403.41,-25.57 407.8,-31.03"/>
</a>
</g>
</g>
</g>
</svg>
