<?xml version="1.0" encoding="UTF-8" standalone="no"?>
<!DOCTYPE svg PUBLIC "-//W3C//DTD SVG 1.1//EN"
 "http://www.w3.org/Graphics/SVG/1.1/DTD/svg11.dtd">
<!-- Generated by graphviz version 14.1.5 (0)
 -->
<!-- Title: Source/TactixSystems/Public/Squad/FTactixSquad.h Pages: 1 -->
<svg width="350pt" height="212pt"
 viewBox="0.00 0.00 350.00 212.00" xmlns="http://www.w3.org/2000/svg" xmlns:xlink="http://www.w3.org/1999/xlink">
<g id="graph0" class="graph" transform="scale(1 1) rotate(0) translate(4 207.75)">
<title>Source/TactixSystems/Public/Squad/FTactixSquad.h</title>
<!-- Node1 -->
<g id="Node000001" class="node">
<title>Node1</title>
<g id="a_Node000001"><a xlink:title="Fixed&#45;capacity squad: a roster of agent handles with roles, slots, a leader and a current tactic.">
<polygon fill="#999999" stroke="#666666" points="254.88,-203.75 97.88,-203.75 97.88,-170.25 254.88,-170.25 254.88,-203.75"/>
<text xml:space="preserve" text-anchor="start" x="105.88" y="-190.25" font-family="Helvetica,sans-Serif" font-size="10.00">Source/TactixSystems</text>
<text xml:space="preserve" text-anchor="middle" x="176.38" y="-177.5" font-family="Helvetica,sans-Serif" font-size="10.00">/Public/Squad/FTactixSquad.h</text>
</a>
</g>
</g>
<!-- Node2 -->
<g id="Node000002" class="node">
<title>Node2</title>
<g id="a_Node000002"><a xlink:href="TactixApi_8h.html" target="_top" xlink:title="Export macros, compiler attributes and version constants shared by every Tactix module.">
<polygon fill="white" stroke="#666666" points="120.01,-20.75 50.76,-20.75 50.76,0 120.01,0 120.01,-20.75"/>
<text xml:space="preserve" text-anchor="middle" x="85.38" y="-7.25" font-family="Helvetica,sans-Serif" font-size="10.00">TactixApi.h</text>
</a>
</g>
</g>
<!-- Node1&#45;&gt;Node2 -->
<g id="edge1_Node000001_Node000002" class="edge">
<title>Node1&#45;&gt;Node2</title>
<g id="a_edge1_Node000001_Node000002"><a xlink:title=" ">
<path fill="none" stroke="#63b8ff" d="M126.02,-169.86C84.83,-153.67 29.3,-124.34 3.38,-77.5 -9.24,-54.68 17.63,-36.77 43.92,-25.38"/>
<polygon fill="#63b8ff" stroke="#63b8ff" points="44.91,-28.75 52.86,-21.76 42.28,-22.27 44.91,-28.75"/>
</a>
</g>
</g>
<!-- Node3 -->
<g id="Node000003" class="node">
<title>Node3</title>
<g id="a_Node000003"><a xlink:href="TactixHandle_8h.html" target="_top" xlink:title="Type&#45;safe generational handle: the only sanctioned way to reference a pooled object across frames.">
<polygon fill="white" stroke="#666666" points="157.88,-77.5 12.88,-77.5 12.88,-56.75 157.88,-56.75 157.88,-77.5"/>
<text xml:space="preserve" text-anchor="middle" x="85.38" y="-64" font-family="Helvetica,sans-Serif" font-size="10.00">Foundation/TactixHandle.h</text>
</a>
</g>
</g>
<!-- Node1&#45;&gt;Node3 -->
<g id="edge2_Node000001_Node000003" class="edge">
<title>Node1&#45;&gt;Node3</title>
<g id="a_edge2_Node000001_Node000003"><a xlink:title=" ">
<path fill="none" stroke="#63b8ff" d="M148.55,-169.76C135.15,-160.76 119.78,-148.49 109.38,-134.25 99.47,-120.67 93.28,-102.57 89.67,-88.74"/>
<polygon fill="#63b8ff" stroke="#63b8ff" points="93.17,-88.33 87.48,-79.38 86.35,-89.92 93.17,-88.33"/>
</a>
</g>
</g>
<!-- Node4 -->
<g id="Node000004" class="node">
<title>Node4</title>
<g id="a_Node000004"><a xlink:title=" ">
<polygon fill="#e0e0e0" stroke="#999999" points="248.88,-20.75 199.88,-20.75 199.88,0 248.88,0 248.88,-20.75"/>
<text xml:space="preserve" text-anchor="middle" x="224.38" y="-7.25" font-family="Helvetica,sans-Serif" font-size="10.00">cstdint</text>
</a>
</g>
</g>
<!-- Node1&#45;&gt;Node4 -->
<g id="edge10_Node000001_Node000004" class="edge">
<title>Node1&#45;&gt;Node4</title>
<g id="a_edge10_Node000001_Node000004"><a xlink:title=" ">
<path fill="none" stroke="#63b8ff" d="M208.54,-169.78C221.9,-161.2 236,-149.29 243.38,-134.25 259.8,-100.81 245.45,-56.62 234.35,-31.37"/>
<polygon fill="#63b8ff" stroke="#63b8ff" points="237.65,-30.15 230.25,-22.57 231.31,-33.12 237.65,-30.15"/>
</a>
</g>
</g>
<!-- Node5 -->
<g id="Node000005" class="node">
<title>Node5</title>
<g id="a_Node000005"><a xlink:href="ITactixAgent_8h.html" target="_top" xlink:title="The engine&#45;agnostic contract a &quot;thinking&quot; entity implements to take part in Tactix systems.">
<polygon fill="white" stroke="#666666" points="234.63,-134.25 118.13,-134.25 118.13,-113.5 234.63,-113.5 234.63,-134.25"/>
<text xml:space="preserve" text-anchor="middle" x="176.38" y="-120.75" font-family="Helvetica,sans-Serif" font-size="10.00">Agent/ITactixAgent.h</text>
</a>
</g>
</g>
<!-- Node1&#45;&gt;Node5 -->
<g id="edge5_Node000001_Node000005" class="edge">
<title>Node1&#45;&gt;Node5</title>
<g id="a_edge5_Node000001_Node000005"><a xlink:title=" ">
<path fill="none" stroke="#63b8ff" d="M176.38,-169.94C176.38,-162.6 176.38,-153.82 176.38,-145.96"/>
<polygon fill="#63b8ff" stroke="#63b8ff" points="179.88,-146.23 176.38,-136.23 172.88,-146.23 179.88,-146.23"/>
</a>
</g>
</g>
<!-- Node6 -->
<g id="Node000006" class="node">
<title>Node6</title>
<g id="a_Node000006"><a xlink:title=" ">
<polygon fill="#e0e0e0" stroke="#999999" points="342.38,-134.25 290.38,-134.25 290.38,-113.5 342.38,-113.5 342.38,-134.25"/>
<text xml:space="preserve" text-anchor="middle" x="316.38" y="-120.75" font-family="Helvetica,sans-Serif" font-size="10.00">cstddef</text>
</a>
</g>
</g>
<!-- Node1&#45;&gt;Node6 -->
<g id="edge9_Node000001_Node000006" class="edge">
<title>Node1&#45;&gt;Node6</title>
<g id="a_edge9_Node000001_Node000006"><a xlink:title=" ">
<path fill="none" stroke="#63b8ff" d="M213.53,-169.78C235.33,-160.26 262.63,-148.35 283.62,-139.18"/>
<polygon fill="#63b8ff" stroke="#63b8ff" points="284.81,-142.48 292.57,-135.27 282.01,-136.06 284.81,-142.48"/>
</a>
</g>
</g>
<!-- Node3&#45;&gt;Node2 -->
<g id="edge3_Node000003_Node000002" class="edge">
<title>Node3&#45;&gt;Node2</title>
<g id="a_edge3_Node000003_Node000002"><a xlink:title=" ">
<path fill="none" stroke="#63b8ff" d="M85.38,-56.34C85.38,-49.72 85.38,-40.72 85.38,-32.52"/>
<polygon fill="#63b8ff" stroke="#63b8ff" points="88.88,-32.59 85.38,-22.59 81.88,-32.59 88.88,-32.59"/>
</a>
</g>
</g>
<!-- Node3&#45;&gt;Node4 -->
<g id="edge4_Node000003_Node000004" class="edge">
<title>Node3&#45;&gt;Node4</title>
<g id="a_edge4_Node000003_Node000004"><a xlink:title=" ">
<path fill="none" stroke="#63b8ff" d="M110.23,-56.34C132.27,-47.66 164.7,-34.88 189.37,-25.17"/>
<polygon fill="#63b8ff" stroke="#63b8ff" points="190.32,-28.55 198.34,-21.63 187.75,-22.04 190.32,-28.55"/>
</a>
</g>
</g>
<!-- Node5&#45;&gt;Node2 -->
<g id="edge6_Node000005_Node000002" class="edge">
<title>Node5&#45;&gt;Node2</title>
<g id="a_edge6_Node000005_Node000002"><a xlink:title=" ">
<path fill="none" stroke="#63b8ff" d="M177.59,-113.4C178.83,-99.66 179.16,-73.96 167.38,-56.75 157.92,-42.92 142.79,-32.88 128.1,-25.81"/>
<polygon fill="#63b8ff" stroke="#63b8ff" points="129.51,-22.6 118.94,-21.78 126.69,-29.01 129.51,-22.6"/>
</a>
</g>
</g>
<!-- Node5&#45;&gt;Node3 -->
<g id="edge7_Node000005_Node000003" class="edge">
<title>Node5&#45;&gt;Node3</title>
<g id="a_edge7_Node000005_Node000003"><a xlink:title=" ">
<path fill="none" stroke="#63b8ff" d="M160.11,-113.09C146.53,-104.91 126.91,-93.11 111.18,-83.65"/>
<polygon fill="#63b8ff" stroke="#63b8ff" points="113.18,-80.77 102.81,-78.61 109.57,-86.76 113.18,-80.77"/>
</a>
</g>
</g>
<!-- Node5&#45;&gt;Node4 -->
<g id="edge8_Node000005_Node000004" class="edge">
<title>Node5&#45;&gt;Node4</title>
<g id="a_edge8_Node000005_Node000004"><a xlink:title=" ">
<path fill="none" stroke="#63b8ff" d="M181.93,-113.33C187.07,-104.28 194.75,-90.21 200.38,-77.5 207.05,-62.46 213.35,-44.93 217.82,-31.7"/>
<polygon fill="#63b8ff" stroke="#63b8ff" points="221.08,-32.99 220.89,-22.39 214.43,-30.79 221.08,-32.99"/>
</a>
</g>
</g>
</g>
</svg>
