<?xml version="1.0" encoding="UTF-8" standalone="no"?>
<!DOCTYPE svg PUBLIC "-//W3C//DTD SVG 1.1//EN"
 "http://www.w3.org/Graphics/SVG/1.1/DTD/svg11.dtd">
<!-- Generated by graphviz version 14.1.5 (0)
 -->
<!-- Title: Source/TactixSystems/Private/HTN/FTactixHTNPlanner.cpp Pages: 1 -->
<svg width="446pt" height="212pt"
 viewBox="0.00 0.00 446.00 212.00" xmlns="http://www.w3.org/2000/svg" xmlns:xlink="http://www.w3.org/1999/xlink">
<g id="graph0" class="graph" transform="scale(1 1) rotate(0) translate(4 207.75)">
<title>Source/TactixSystems/Private/HTN/FTactixHTNPlanner.cpp</title>
<!-- Node1 -->
<g id="Node000001" class="node">
<title>Node1</title>
<g id="a_Node000001"><a xlink:title="Recursive decomposition for Tactix::FTactixHTNPlanner.">
<polygon fill="#999999" stroke="#666666" points="330.04,-203.75 138.54,-203.75 138.54,-170.25 330.04,-170.25 330.04,-203.75"/>
<text xml:space="preserve" text-anchor="start" x="146.54" y="-190.25" font-family="Helvetica,sans-Serif" font-size="10.00">Source/TactixSystems</text>
<text xml:space="preserve" text-anchor="middle" x="234.29" y="-177.5" font-family="Helvetica,sans-Serif" font-size="10.00">/Private/HTN/FTactixHTNPlanner.cpp</text>
</a>
</g>
</g>
<!-- Node2 -->
<g id="Node000002" class="node">
<title>Node2</title>
<g id="a_Node000002"><a xlink:href="FTactixHTNPlanner_8h.html" target="_top" xlink:title="Depth&#45;first HTN planner with method&#45;order fallback and backtracking.">
<polygon fill="white" stroke="#666666" points="154.16,-134.25 14.41,-134.25 14.41,-113.5 154.16,-113.5 154.16,-134.25"/>
<text xml:space="preserve" text-anchor="middle" x="84.29" y="-120.75" font-family="Helvetica,sans-Serif" font-size="10.00">HTN/FTactixHTNPlanner.h</text>
</a>
</g>
</g>
<!-- Node1&#45;&gt;Node2 -->
<g id="edge1_Node000001_Node000002" class="edge">
<title>Node1&#45;&gt;Node2</title>
<g id="a_edge1_Node000001_Node000002"><a xlink:title=" ">
<path fill="none" stroke="#63b8ff" d="M194.48,-169.78C170.91,-160.18 141.34,-148.13 118.77,-138.93"/>
<polygon fill="#63b8ff" stroke="#63b8ff" points="120.29,-135.77 109.71,-135.24 117.65,-142.25 120.29,-135.77"/>
</a>
</g>
</g>
<!-- Node6 -->
<g id="Node000006" class="node">
<title>Node6</title>
<g id="a_Node000006"><a xlink:href="ITactixHTNTask_8h.html" target="_top" xlink:title="Task hierarchy for the HTN planner: the common base, primitive (leaf) tasks, and compound tasks that ...">
<polygon fill="white" stroke="#666666" points="295.91,-134.25 172.66,-134.25 172.66,-113.5 295.91,-113.5 295.91,-134.25"/>
<text xml:space="preserve" text-anchor="middle" x="234.29" y="-120.75" font-family="Helvetica,sans-Serif" font-size="10.00">HTN/ITactixHTNTask.h</text>
</a>
</g>
</g>
<!-- Node1&#45;&gt;Node6 -->
<g id="edge7_Node000001_Node000006" class="edge">
<title>Node1&#45;&gt;Node6</title>
<g id="a_edge7_Node000001_Node000006"><a xlink:title=" ">
<path fill="none" stroke="#63b8ff" d="M234.29,-169.94C234.29,-162.6 234.29,-153.82 234.29,-145.96"/>
<polygon fill="#63b8ff" stroke="#63b8ff" points="237.79,-146.23 234.29,-136.23 230.79,-146.23 237.79,-146.23"/>
</a>
</g>
</g>
<!-- Node7 -->
<g id="Node000007" class="node">
<title>Node7</title>
<g id="a_Node000007"><a xlink:href="TactixArena_8h.html" target="_top" xlink:title="Bump (linear) allocator for short&#45;lived scratch memory.">
<polygon fill="white" stroke="#666666" points="426.79,-77.5 287.79,-77.5 287.79,-56.75 426.79,-56.75 426.79,-77.5"/>
<text xml:space="preserve" text-anchor="middle" x="357.29" y="-64" font-family="Helvetica,sans-Serif" font-size="10.00">Foundation/TactixArena.h</text>
</a>
</g>
</g>
<!-- Node1&#45;&gt;Node7 -->
<g id="edge11_Node000001_Node000007" class="edge">
<title>Node1&#45;&gt;Node7</title>
<g id="a_edge11_Node000001_Node000007"><a xlink:title=" ">
<path fill="none" stroke="#63b8ff" d="M259.91,-169.84C274.03,-160.33 291.45,-147.59 305.29,-134.25 320.35,-119.73 334.83,-100.76 344.67,-86.86"/>
<polygon fill="#63b8ff" stroke="#63b8ff" points="347.29,-89.24 350.1,-79.02 341.53,-85.25 347.29,-89.24"/>
</a>
</g>
</g>
<!-- Node3 -->
<g id="Node000003" class="node">
<title>Node3</title>
<g id="a_Node000003"><a xlink:href="TactixApi_8h.html" target="_top" xlink:title="Export macros, compiler attributes and version constants shared by every Tactix module.">
<polygon fill="white" stroke="#666666" points="150.91,-20.75 81.66,-20.75 81.66,0 150.91,0 150.91,-20.75"/>
<text xml:space="preserve" text-anchor="middle" x="116.29" y="-7.25" font-family="Helvetica,sans-Serif" font-size="10.00">TactixApi.h</text>
</a>
</g>
</g>
<!-- Node2&#45;&gt;Node3 -->
<g id="edge2_Node000002_Node000003" class="edge">
<title>Node2&#45;&gt;Node3</title>
<g id="a_edge2_Node000002_Node000003"><a xlink:title=" ">
<path fill="none" stroke="#63b8ff" d="M54.85,-113.1C25.71,-101.75 -12.33,-81.41 4.29,-56.75 19.01,-34.9 46.25,-23.56 70.18,-17.69"/>
<polygon fill="#63b8ff" stroke="#63b8ff" points="70.72,-21.15 79.75,-15.61 69.24,-14.31 70.72,-21.15"/>
</a>
</g>
</g>
<!-- Node4 -->
<g id="Node000004" class="node">
<title>Node4</title>
<g id="a_Node000004"><a xlink:href="FTactixWorldState_8h.html" target="_top" xlink:title="Symbolic world state for the GOAP planner: 64 boolean facts plus a &quot;defined&quot; mask.">
<polygon fill="white" stroke="#666666" points="155.66,-77.5 12.91,-77.5 12.91,-56.75 155.66,-56.75 155.66,-77.5"/>
<text xml:space="preserve" text-anchor="middle" x="84.29" y="-64" font-family="Helvetica,sans-Serif" font-size="10.00">GOAP/FTactixWorldState.h</text>
</a>
</g>
</g>
<!-- Node2&#45;&gt;Node4 -->
<g id="edge3_Node000002_Node000004" class="edge">
<title>Node2&#45;&gt;Node4</title>
<g id="a_edge3_Node000002_Node000004"><a xlink:title=" ">
<path fill="none" stroke="#63b8ff" d="M84.29,-113.09C84.29,-106.47 84.29,-97.47 84.29,-89.27"/>
<polygon fill="#63b8ff" stroke="#63b8ff" points="87.79,-89.34 84.29,-79.34 80.79,-89.34 87.79,-89.34"/>
</a>
</g>
</g>
<!-- Node5 -->
<g id="Node000005" class="node">
<title>Node5</title>
<g id="a_Node000005"><a xlink:title=" ">
<polygon fill="#e0e0e0" stroke="#999999" points="228.79,-20.75 179.79,-20.75 179.79,0 228.79,0 228.79,-20.75"/>
<text xml:space="preserve" text-anchor="middle" x="204.29" y="-7.25" font-family="Helvetica,sans-Serif" font-size="10.00">cstdint</text>
</a>
</g>
</g>
<!-- Node2&#45;&gt;Node5 -->
<g id="edge6_Node000002_Node000005" class="edge">
<title>Node2&#45;&gt;Node5</title>
<g id="a_edge6_Node000002_Node000005"><a xlink:title=" ">
<path fill="none" stroke="#63b8ff" d="M108.44,-113.13C125.51,-105.37 148.14,-93.19 164.29,-77.5 177.95,-64.22 188.76,-45.32 195.68,-31.12"/>
<polygon fill="#63b8ff" stroke="#63b8ff" points="198.73,-32.87 199.75,-22.32 192.38,-29.93 198.73,-32.87"/>
</a>
</g>
</g>
<!-- Node4&#45;&gt;Node3 -->
<g id="edge4_Node000004_Node000003" class="edge">
<title>Node4&#45;&gt;Node3</title>
<g id="a_edge4_Node000004_Node000003"><a xlink:title=" ">
<path fill="none" stroke="#63b8ff" d="M90.01,-56.34C94.15,-49.25 99.88,-39.44 104.94,-30.79"/>
<polygon fill="#63b8ff" stroke="#63b8ff" points="107.83,-32.78 109.85,-22.39 101.78,-29.25 107.83,-32.78"/>
</a>
</g>
</g>
<!-- Node4&#45;&gt;Node5 -->
<g id="edge5_Node000004_Node000005" class="edge">
<title>Node4&#45;&gt;Node5</title>
<g id="a_edge5_Node000004_Node000005"><a xlink:title=" ">
<path fill="none" stroke="#63b8ff" d="M105.74,-56.34C124.34,-47.85 151.51,-35.45 172.61,-25.83"/>
<polygon fill="#63b8ff" stroke="#63b8ff" points="174,-29.04 181.64,-21.71 171.09,-22.67 174,-29.04"/>
</a>
</g>
</g>
<!-- Node6&#45;&gt;Node3 -->
<g id="edge8_Node000006_Node000003" class="edge">
<title>Node6&#45;&gt;Node3</title>
<g id="a_edge8_Node000006_Node000003"><a xlink:title=" ">
<path fill="none" stroke="#63b8ff" d="M224.23,-113.37C204.38,-94.62 159.94,-52.63 134.71,-28.78"/>
<polygon fill="#63b8ff" stroke="#63b8ff" points="137.43,-26.54 127.76,-22.21 132.62,-31.63 137.43,-26.54"/>
</a>
</g>
</g>
<!-- Node6&#45;&gt;Node4 -->
<g id="edge9_Node000006_Node000004" class="edge">
<title>Node6&#45;&gt;Node4</title>
<g id="a_edge9_Node000006_Node000004"><a xlink:title=" ">
<path fill="none" stroke="#63b8ff" d="M207.47,-113.09C183.55,-104.36 148.28,-91.48 121.61,-81.75"/>
<polygon fill="#63b8ff" stroke="#63b8ff" points="123.14,-78.58 112.54,-78.44 120.74,-85.16 123.14,-78.58"/>
</a>
</g>
</g>
<!-- Node6&#45;&gt;Node5 -->
<g id="edge10_Node000006_Node000005" class="edge">
<title>Node6&#45;&gt;Node5</title>
<g id="a_edge10_Node000006_Node000005"><a xlink:title=" ">
<path fill="none" stroke="#63b8ff" d="M236.27,-113.19C238.54,-100.07 241.25,-76.06 235.29,-56.75 232.32,-47.14 226.53,-37.74 220.75,-30.02"/>
<polygon fill="#63b8ff" stroke="#63b8ff" points="223.62,-27.99 214.61,-22.42 218.17,-32.39 223.62,-27.99"/>
</a>
</g>
</g>
<!-- Node7&#45;&gt;Node3 -->
<g id="edge12_Node000007_Node000003" class="edge">
<title>Node7&#45;&gt;Node3</title>
<g id="a_edge12_Node000007_Node000003"><a xlink:title=" ">
<path fill="none" stroke="#63b8ff" d="M313.92,-56.27C271.13,-46.55 205.94,-31.74 162.26,-21.82"/>
<polygon fill="#63b8ff" stroke="#63b8ff" points="163.1,-18.42 152.58,-19.62 161.55,-25.25 163.1,-18.42"/>
</a>
</g>
</g>
<!-- Node7&#45;&gt;Node5 -->
<g id="edge14_Node000007_Node000005" class="edge">
<title>Node7&#45;&gt;Node5</title>
<g id="a_edge14_Node000007_Node000005"><a xlink:title=" ">
<path fill="none" stroke="#63b8ff" d="M329.93,-56.34C304.7,-47.31 267.1,-33.85 239.61,-24.01"/>
<polygon fill="#63b8ff" stroke="#63b8ff" points="240.9,-20.76 230.3,-20.68 238.54,-27.35 240.9,-20.76"/>
</a>
</g>
</g>
<!-- Node8 -->
<g id="Node000008" class="node">
<title>Node8</title>
<g id="a_Node000008"><a xlink:title=" ">
<polygon fill="#e0e0e0" stroke="#999999" points="321.29,-20.75 269.29,-20.75 269.29,0 321.29,0 321.29,-20.75"/>
<text xml:space="preserve" text-anchor="middle" x="295.29" y="-7.25" font-family="Helvetica,sans-Serif" font-size="10.00">cstddef</text>
</a>
</g>
</g>
<!-- Node7&#45;&gt;Node8 -->
<g id="edge13_Node000007_Node000008" class="edge">
<title>Node7&#45;&gt;Node8</title>
<g id="a_edge13_Node000007_Node000008"><a xlink:title=" ">
<path fill="none" stroke="#63b8ff" d="M346.2,-56.34C337.47,-48.63 325.09,-37.7 314.72,-28.54"/>
<polygon fill="#63b8ff" stroke="#63b8ff" points="317.22,-26.08 307.41,-22.08 312.59,-31.32 317.22,-26.08"/>
</a>
</g>
</g>
<!-- Node9 -->
<g id="Node000009" class="node">
<title>Node9</title>
<g id="a_Node000009"><a xlink:title=" ">
<polygon fill="#e0e0e0" stroke="#999999" points="375.41,-20.75 339.16,-20.75 339.16,0 375.41,0 375.41,-20.75"/>
<text xml:space="preserve" text-anchor="middle" x="357.29" y="-7.25" font-family="Helvetica,sans-Serif" font-size="10.00">new</text>
</a>
</g>
</g>
<!-- Node7&#45;&gt;Node9 -->
<g id="edge15_Node000007_Node000009" class="edge">
<title>Node7&#45;&gt;Node9</title>
<g id="a_edge15_Node000007_Node000009"><a xlink:title=" ">
<path fill="none" stroke="#63b8ff" d="M357.29,-56.34C357.29,-49.72 357.29,-40.72 357.29,-32.52"/>
<polygon fill="#63b8ff" stroke="#63b8ff" points="360.79,-32.59 357.29,-22.59 353.79,-32.59 360.79,-32.59"/>
</a>
</g>
</g>
<!-- Node10 -->
<g id="Node000010" class="node">
<title>Node10</title>
<g id="a_Node000010"><a xlink:title=" ">
<polygon fill="#e0e0e0" stroke="#999999" points="437.54,-20.75 393.04,-20.75 393.04,0 437.54,0 437.54,-20.75"/>
<text xml:space="preserve" text-anchor="middle" x="415.29" y="-7.25" font-family="Helvetica,sans-Serif" font-size="10.00">utility</text>
</a>
</g>
</g>
<!-- Node7&#45;&gt;Node10 -->
<g id="edge16_Node000007_Node000010" class="edge">
<title>Node7&#45;&gt;Node10</title>
<g id="a_edge16_Node000007_Node000010"><a xlink:title=" ">
<path fill="none" stroke="#63b8ff" d="M367.65,-56.34C375.74,-48.71 387.17,-37.92 396.81,-28.82"/>
<polygon fill="#63b8ff" stroke="#63b8ff" points="399.04,-31.53 403.91,-22.12 394.23,-26.44 399.04,-31.53"/>
</a>
</g>
</g>
</g>
</svg>
