<?xml version="1.0" encoding="UTF-8" standalone="no"?>
<!DOCTYPE svg PUBLIC "-//W3C//DTD SVG 1.1//EN"
 "http://www.w3.org/Graphics/SVG/1.1/DTD/svg11.dtd">
<!-- Generated by graphviz version 14.1.5 (0)
 -->
<!-- Title: Source/TactixCore/Public/Blackboard/FTactixBlackboard.h Pages: 1 -->
<svg width="391pt" height="155pt"
 viewBox="0.00 0.00 391.00 155.00" xmlns="http://www.w3.org/2000/svg" xmlns:xlink="http://www.w3.org/1999/xlink">
<g id="graph0" class="graph" transform="scale(1 1) rotate(0) translate(4 151)">
<title>Source/TactixCore/Public/Blackboard/FTactixBlackboard.h</title>
<!-- Node1 -->
<g id="Node000001" class="node">
<title>Node1</title>
<g id="a_Node000001"><a xlink:title="Typed key&#45;value store with compile&#45;time key hashing: the AI systems&#39; shared working memory.">
<polygon fill="#999999" stroke="#666666" points="303.75,-147 129.5,-147 129.5,-113.5 303.75,-113.5 303.75,-147"/>
<text xml:space="preserve" text-anchor="start" x="137.5" y="-133.5" font-family="Helvetica,sans-Serif" font-size="10.00">Source/TactixCore/Public</text>
<text xml:space="preserve" text-anchor="middle" x="216.62" y="-120.75" font-family="Helvetica,sans-Serif" font-size="10.00">/Blackboard/FTactixBlackboard.h</text>
</a>
</g>
</g>
<!-- Node2 -->
<g id="Node000002" class="node">
<title>Node2</title>
<g id="a_Node000002"><a xlink:href="TactixApi_8h.html" target="_top" xlink:title="Export macros, compiler attributes and version constants shared by every Tactix module.">
<polygon fill="white" stroke="#666666" points="69.25,-20.75 0,-20.75 0,0 69.25,0 69.25,-20.75"/>
<text xml:space="preserve" text-anchor="middle" x="34.62" y="-7.25" font-family="Helvetica,sans-Serif" font-size="10.00">TactixApi.h</text>
</a>
</g>
</g>
<!-- Node1&#45;&gt;Node2 -->
<g id="edge1_Node000001_Node000002" class="edge">
<title>Node1&#45;&gt;Node2</title>
<g id="a_edge1_Node000001_Node000002"><a xlink:title=" ">
<path fill="none" stroke="#63b8ff" d="M129.4,-122.58C97.97,-115.71 65.02,-102.51 43.62,-77.5 33.14,-65.24 31.4,-46.76 31.99,-32.45"/>
<polygon fill="#63b8ff" stroke="#63b8ff" points="35.46,-32.98 32.82,-22.72 28.48,-32.38 35.46,-32.98"/>
</a>
</g>
</g>
<!-- Node3 -->
<g id="Node000003" class="node">
<title>Node3</title>
<g id="a_Node000003"><a xlink:href="TactixMath_8h.html" target="_top" xlink:title="Small, engine&#45;agnostic vector and scalar math used across Tactix.">
<polygon fill="white" stroke="#666666" points="188.25,-77.5 53,-77.5 53,-56.75 188.25,-56.75 188.25,-77.5"/>
<text xml:space="preserve" text-anchor="middle" x="120.62" y="-64" font-family="Helvetica,sans-Serif" font-size="10.00">Foundation/TactixMath.h</text>
</a>
</g>
</g>
<!-- Node1&#45;&gt;Node3 -->
<g id="edge2_Node000001_Node000003" class="edge">
<title>Node1&#45;&gt;Node3</title>
<g id="a_edge2_Node000001_Node000003"><a xlink:title=" ">
<path fill="none" stroke="#63b8ff" d="M191.15,-113.03C177.03,-104.04 159.54,-92.9 145.51,-83.97"/>
<polygon fill="#63b8ff" stroke="#63b8ff" points="147.59,-81.15 137.28,-78.73 143.83,-87.05 147.59,-81.15"/>
</a>
</g>
</g>
<!-- Node5 -->
<g id="Node000005" class="node">
<title>Node5</title>
<g id="a_Node000005"><a xlink:title=" ">
<polygon fill="#e0e0e0" stroke="#999999" points="226.12,-20.75 177.12,-20.75 177.12,0 226.12,0 226.12,-20.75"/>
<text xml:space="preserve" text-anchor="middle" x="201.62" y="-7.25" font-family="Helvetica,sans-Serif" font-size="10.00">cstdint</text>
</a>
</g>
</g>
<!-- Node1&#45;&gt;Node5 -->
<g id="edge7_Node000001_Node000005" class="edge">
<title>Node1&#45;&gt;Node5</title>
<g id="a_edge7_Node000001_Node000005"><a xlink:title=" ">
<path fill="none" stroke="#63b8ff" d="M214.6,-113.35C211.94,-92.46 207.27,-55.71 204.31,-32.5"/>
<polygon fill="#63b8ff" stroke="#63b8ff" points="207.8,-32.16 203.06,-22.68 200.85,-33.05 207.8,-32.16"/>
</a>
</g>
</g>
<!-- Node6 -->
<g id="Node000006" class="node">
<title>Node6</title>
<g id="a_Node000006"><a xlink:title=" ">
<polygon fill="#e0e0e0" stroke="#999999" points="296.62,-77.5 244.62,-77.5 244.62,-56.75 296.62,-56.75 296.62,-77.5"/>
<text xml:space="preserve" text-anchor="middle" x="270.62" y="-64" font-family="Helvetica,sans-Serif" font-size="10.00">cstddef</text>
</a>
</g>
</g>
<!-- Node1&#45;&gt;Node6 -->
<g id="edge6_Node000001_Node000006" class="edge">
<title>Node1&#45;&gt;Node6</title>
<g id="a_edge6_Node000001_Node000006"><a xlink:title=" ">
<path fill="none" stroke="#63b8ff" d="M230.81,-113.19C238.06,-104.98 246.92,-94.96 254.44,-86.45"/>
<polygon fill="#63b8ff" stroke="#63b8ff" points="256.93,-88.91 260.93,-79.1 251.68,-84.28 256.93,-88.91"/>
</a>
</g>
</g>
<!-- Node7 -->
<g id="Node000007" class="node">
<title>Node7</title>
<g id="a_Node000007"><a xlink:title=" ">
<polygon fill="#e0e0e0" stroke="#999999" points="382.88,-77.5 314.38,-77.5 314.38,-56.75 382.88,-56.75 382.88,-77.5"/>
<text xml:space="preserve" text-anchor="middle" x="348.62" y="-64" font-family="Helvetica,sans-Serif" font-size="10.00">type_traits</text>
</a>
</g>
</g>
<!-- Node1&#45;&gt;Node7 -->
<g id="edge8_Node000001_Node000007" class="edge">
<title>Node1&#45;&gt;Node7</title>
<g id="a_edge8_Node000001_Node000007"><a xlink:title=" ">
<path fill="none" stroke="#63b8ff" d="M251.65,-113.03C272.02,-103.6 297.47,-91.81 317.19,-82.68"/>
<polygon fill="#63b8ff" stroke="#63b8ff" points="318.51,-85.93 326.11,-78.55 315.56,-79.58 318.51,-85.93"/>
</a>
</g>
</g>
<!-- Node3&#45;&gt;Node2 -->
<g id="edge3_Node000003_Node000002" class="edge">
<title>Node3&#45;&gt;Node2</title>
<g id="a_edge3_Node000003_Node000002"><a xlink:title=" ">
<path fill="none" stroke="#63b8ff" d="M105.25,-56.34C92.53,-48.24 74.22,-36.58 59.43,-27.17"/>
<polygon fill="#63b8ff" stroke="#63b8ff" points="61.46,-24.31 51.14,-21.89 57.7,-30.21 61.46,-24.31"/>
</a>
</g>
</g>
<!-- Node4 -->
<g id="Node000004" class="node">
<title>Node4</title>
<g id="a_Node000004"><a xlink:title=" ">
<polygon fill="#e0e0e0" stroke="#999999" points="144,-20.75 97.25,-20.75 97.25,0 144,0 144,-20.75"/>
<text xml:space="preserve" text-anchor="middle" x="120.62" y="-7.25" font-family="Helvetica,sans-Serif" font-size="10.00">cmath</text>
</a>
</g>
</g>
<!-- Node3&#45;&gt;Node4 -->
<g id="edge4_Node000003_Node000004" class="edge">
<title>Node3&#45;&gt;Node4</title>
<g id="a_edge4_Node000003_Node000004"><a xlink:title=" ">
<path fill="none" stroke="#63b8ff" d="M120.62,-56.34C120.62,-49.72 120.62,-40.72 120.62,-32.52"/>
<polygon fill="#63b8ff" stroke="#63b8ff" points="124.13,-32.59 120.63,-22.59 117.13,-32.59 124.13,-32.59"/>
</a>
</g>
</g>
<!-- Node3&#45;&gt;Node5 -->
<g id="edge5_Node000003_Node000005" class="edge">
<title>Node3&#45;&gt;Node5</title>
<g id="a_edge5_Node000003_Node000005"><a xlink:title=" ">
<path fill="none" stroke="#63b8ff" d="M135.11,-56.34C146.97,-48.32 164,-36.81 177.86,-27.44"/>
<polygon fill="#63b8ff" stroke="#63b8ff" points="179.69,-30.43 186.02,-21.93 175.77,-24.63 179.69,-30.43"/>
</a>
</g>
</g>
</g>
</svg>
