<?xml version="1.0" encoding="UTF-8" standalone="no"?>
<!DOCTYPE svg PUBLIC "-//W3C//DTD SVG 1.1//EN"
 "http://www.w3.org/Graphics/SVG/1.1/DTD/svg11.dtd">
<!-- Generated by graphviz version 14.1.5 (0)
 -->
<!-- Title: Source/TactixDebug/Public/FTactixInfluenceRenderer.h Pages: 1 -->
<svg width="355pt" height="225pt"
 viewBox="0.00 0.00 355.00 225.00" xmlns="http://www.w3.org/2000/svg" xmlns:xlink="http://www.w3.org/1999/xlink">
<g id="graph0" class="graph" transform="scale(1 1) rotate(0) translate(4 220.5)">
<title>Source/TactixDebug/Public/FTactixInfluenceRenderer.h</title>
<!-- Node1 -->
<g id="Node000001" class="node">
<title>Node1</title>
<g id="a_Node000001"><a xlink:title="Draws an influence&#45;map channel as a world&#45;space heat grid.">
<polygon fill="#999999" stroke="#666666" points="197.5,-216.5 15.75,-216.5 15.75,-183 197.5,-183 197.5,-216.5"/>
<text xml:space="preserve" text-anchor="start" x="23.75" y="-203" font-family="Helvetica,sans-Serif" font-size="10.00">Source/TactixDebug</text>
<text xml:space="preserve" text-anchor="middle" x="106.62" y="-190.25" font-family="Helvetica,sans-Serif" font-size="10.00">/Public/FTactixInfluenceRenderer.h</text>
</a>
</g>
</g>
<!-- Node2 -->
<g id="Node000002" class="node">
<title>Node2</title>
<g id="a_Node000002"><a xlink:title=" ">
<polygon fill="#e0e0e0" stroke="#999999" points="87.25,-140.62 0,-140.62 0,-119.88 87.25,-119.88 87.25,-140.62"/>
<text xml:space="preserve" text-anchor="middle" x="43.62" y="-127.12" font-family="Helvetica,sans-Serif" font-size="10.00">CoreMinimal.h</text>
</a>
</g>
</g>
<!-- Node1&#45;&gt;Node2 -->
<g id="edge1_Node000001_Node000002" class="edge">
<title>Node1&#45;&gt;Node2</title>
<g id="a_edge1_Node000001_Node000002"><a xlink:title=" ">
<path fill="none" stroke="#63b8ff" d="M91.69,-182.75C82.35,-172.74 70.29,-159.82 60.59,-149.42"/>
<polygon fill="#63b8ff" stroke="#63b8ff" points="63.21,-147.1 53.82,-142.18 58.09,-151.88 63.21,-147.1"/>
</a>
</g>
</g>
<!-- Node3 -->
<g id="Node000003" class="node">
<title>Node3</title>
<g id="a_Node000003"><a xlink:href="FTactixInfluenceMap_8h.html" target="_top" xlink:title="Multi&#45;channel 2D scalar field for spatial reasoning (danger, control, resource, .....">
<polygon fill="white" stroke="#666666" points="236,-147 105.25,-147 105.25,-113.5 236,-113.5 236,-147"/>
<text xml:space="preserve" text-anchor="start" x="113.25" y="-133.5" font-family="Helvetica,sans-Serif" font-size="10.00">Spatial/FTactixInfluence</text>
<text xml:space="preserve" text-anchor="middle" x="170.62" y="-120.75" font-family="Helvetica,sans-Serif" font-size="10.00">Map.h</text>
</a>
</g>
</g>
<!-- Node1&#45;&gt;Node3 -->
<g id="edge2_Node000001_Node000003" class="edge">
<title>Node1&#45;&gt;Node3</title>
<g id="a_edge2_Node000001_Node000003"><a xlink:title=" ">
<path fill="none" stroke="#63b8ff" d="M121.79,-182.75C129.52,-174.6 139.09,-164.51 147.7,-155.43"/>
<polygon fill="#63b8ff" stroke="#63b8ff" points="150.18,-157.89 154.53,-148.23 145.11,-153.08 150.18,-157.89"/>
</a>
</g>
</g>
<!-- Node4 -->
<g id="Node000004" class="node">
<title>Node4</title>
<g id="a_Node000004"><a xlink:href="TactixApi_8h.html" target="_top" xlink:title="Export macros, compiler attributes and version constants shared by every Tactix module.">
<polygon fill="white" stroke="#666666" points="100.25,-20.75 31,-20.75 31,0 100.25,0 100.25,-20.75"/>
<text xml:space="preserve" text-anchor="middle" x="65.62" y="-7.25" font-family="Helvetica,sans-Serif" font-size="10.00">TactixApi.h</text>
</a>
</g>
</g>
<!-- Node3&#45;&gt;Node4 -->
<g id="edge3_Node000003_Node000004" class="edge">
<title>Node3&#45;&gt;Node4</title>
<g id="a_edge3_Node000003_Node000004"><a xlink:title=" ">
<path fill="none" stroke="#63b8ff" d="M132.43,-113.13C116.3,-104.62 98.54,-92.75 86.62,-77.5 76.3,-64.28 71,-45.89 68.3,-31.85"/>
<polygon fill="#63b8ff" stroke="#63b8ff" points="71.82,-31.7 66.79,-22.38 64.91,-32.8 71.82,-31.7"/>
</a>
</g>
</g>
<!-- Node5 -->
<g id="Node000005" class="node">
<title>Node5</title>
<g id="a_Node000005"><a xlink:href="TactixMath_8h.html" target="_top" xlink:title="Small, engine&#45;agnostic vector and scalar math used across Tactix.">
<polygon fill="white" stroke="#666666" points="238.25,-77.5 103,-77.5 103,-56.75 238.25,-56.75 238.25,-77.5"/>
<text xml:space="preserve" text-anchor="middle" x="170.62" y="-64" font-family="Helvetica,sans-Serif" font-size="10.00">Foundation/TactixMath.h</text>
</a>
</g>
</g>
<!-- Node3&#45;&gt;Node5 -->
<g id="edge4_Node000003_Node000005" class="edge">
<title>Node3&#45;&gt;Node5</title>
<g id="a_edge4_Node000003_Node000005"><a xlink:title=" ">
<path fill="none" stroke="#63b8ff" d="M170.62,-113.19C170.62,-105.85 170.62,-97.07 170.62,-89.21"/>
<polygon fill="#63b8ff" stroke="#63b8ff" points="174.13,-89.48 170.63,-79.48 167.13,-89.48 174.13,-89.48"/>
</a>
</g>
</g>
<!-- Node6 -->
<g id="Node000006" class="node">
<title>Node6</title>
<g id="a_Node000006"><a xlink:title=" ">
<polygon fill="#e0e0e0" stroke="#999999" points="179,-20.75 132.25,-20.75 132.25,0 179,0 179,-20.75"/>
<text xml:space="preserve" text-anchor="middle" x="155.62" y="-7.25" font-family="Helvetica,sans-Serif" font-size="10.00">cmath</text>
</a>
</g>
</g>
<!-- Node3&#45;&gt;Node6 -->
<g id="edge8_Node000003_Node000006" class="edge">
<title>Node3&#45;&gt;Node6</title>
<g id="a_edge8_Node000003_Node000006"><a xlink:title=" ">
<path fill="none" stroke="#63b8ff" d="M132.19,-113.21C117.34,-104.89 101.96,-93.14 93.62,-77.5 82.94,-57.45 104.03,-38.98 124.45,-26.69"/>
<polygon fill="#63b8ff" stroke="#63b8ff" points="125.95,-29.86 132.96,-21.91 122.52,-23.76 125.95,-29.86"/>
</a>
</g>
</g>
<!-- Node7 -->
<g id="Node000007" class="node">
<title>Node7</title>
<g id="a_Node000007"><a xlink:title=" ">
<polygon fill="#e0e0e0" stroke="#999999" points="268.12,-20.75 219.12,-20.75 219.12,0 268.12,0 268.12,-20.75"/>
<text xml:space="preserve" text-anchor="middle" x="243.62" y="-7.25" font-family="Helvetica,sans-Serif" font-size="10.00">cstdint</text>
</a>
</g>
</g>
<!-- Node3&#45;&gt;Node7 -->
<g id="edge10_Node000003_Node000007" class="edge">
<title>Node3&#45;&gt;Node7</title>
<g id="a_edge10_Node000003_Node000007"><a xlink:title=" ">
<path fill="none" stroke="#63b8ff" d="M209.06,-113.21C223.91,-104.89 239.29,-93.14 247.62,-77.5 255.07,-63.53 253.35,-45.46 250.17,-31.74"/>
<polygon fill="#63b8ff" stroke="#63b8ff" points="253.65,-31.18 247.6,-22.48 246.9,-33.05 253.65,-31.18"/>
</a>
</g>
</g>
<!-- Node8 -->
<g id="Node000008" class="node">
<title>Node8</title>
<g id="a_Node000008"><a xlink:title=" ">
<polygon fill="#e0e0e0" stroke="#999999" points="346.62,-77.5 294.62,-77.5 294.62,-56.75 346.62,-56.75 346.62,-77.5"/>
<text xml:space="preserve" text-anchor="middle" x="320.62" y="-64" font-family="Helvetica,sans-Serif" font-size="10.00">cstddef</text>
</a>
</g>
</g>
<!-- Node3&#45;&gt;Node8 -->
<g id="edge9_Node000003_Node000008" class="edge">
<title>Node3&#45;&gt;Node8</title>
<g id="a_edge9_Node000003_Node000008"><a xlink:title=" ">
<path fill="none" stroke="#63b8ff" d="M210.43,-113.03C234,-103.43 263.57,-91.38 286.14,-82.18"/>
<polygon fill="#63b8ff" stroke="#63b8ff" points="287.26,-85.5 295.2,-78.49 284.62,-79.02 287.26,-85.5"/>
</a>
</g>
</g>
<!-- Node5&#45;&gt;Node4 -->
<g id="edge5_Node000005_Node000004" class="edge">
<title>Node5&#45;&gt;Node4</title>
<g id="a_edge5_Node000005_Node000004"><a xlink:title=" ">
<path fill="none" stroke="#63b8ff" d="M151.85,-56.34C135.88,-48.01 112.67,-35.91 94.36,-26.36"/>
<polygon fill="#63b8ff" stroke="#63b8ff" points="96.06,-23.3 85.58,-21.78 92.83,-29.51 96.06,-23.3"/>
</a>
</g>
</g>
<!-- Node5&#45;&gt;Node6 -->
<g id="edge6_Node000005_Node000006" class="edge">
<title>Node5&#45;&gt;Node6</title>
<g id="a_edge6_Node000005_Node000006"><a xlink:title=" ">
<path fill="none" stroke="#63b8ff" d="M167.94,-56.34C166.09,-49.56 163.55,-40.3 161.26,-31.94"/>
<polygon fill="#63b8ff" stroke="#63b8ff" points="164.7,-31.26 158.68,-22.54 157.95,-33.11 164.7,-31.26"/>
</a>
</g>
</g>
<!-- Node5&#45;&gt;Node7 -->
<g id="edge7_Node000005_Node000007" class="edge">
<title>Node5&#45;&gt;Node7</title>
<g id="a_edge7_Node000005_Node000007"><a xlink:title=" ">
<path fill="none" stroke="#63b8ff" d="M183.68,-56.34C194.26,-48.4 209.42,-37.03 221.84,-27.71"/>
<polygon fill="#63b8ff" stroke="#63b8ff" points="223.58,-30.79 229.48,-21.99 219.38,-25.19 223.58,-30.79"/>
</a>
</g>
</g>
</g>
</svg>
