<?xml version="1.0" encoding="UTF-8" standalone="no"?>
<!DOCTYPE svg PUBLIC "-//W3C//DTD SVG 1.1//EN"
 "http://www.w3.org/Graphics/SVG/1.1/DTD/svg11.dtd">
<!-- Generated by graphviz version 14.1.5 (0)
 -->
<!-- Title: Graphical Class Hierarchy Pages: 1 -->
<svg width="291pt" height="68pt"
 viewBox="0.00 0.00 291.00 68.00" xmlns="http://www.w3.org/2000/svg" xmlns:xlink="http://www.w3.org/1999/xlink">
<g id="graph0" class="graph" transform="scale(1 1) rotate(0) translate(4 63.75)">
<title>Graphical Class Hierarchy</title>
<!-- Node0 -->
<g id="Node000000" class="node">
<title>Node0</title>
<g id="a_Node000000"><a xlink:href="classTactix_1_1ITactixAgent.html" target="_top" xlink:title="Interface every Tactix agent implements.">
<polygon fill="white" stroke="#666666" points="110.5,-59.75 0,-59.75 0,-39 110.5,-39 110.5,-59.75"/>
<text xml:space="preserve" text-anchor="middle" x="55.25" y="-46.25" font-family="Helvetica,sans-Serif" font-size="10.00">Tactix::ITactixAgent</text>
</a>
</g>
</g>
<!-- Node1 -->
<g id="Node000001" class="node">
<title>Node1</title>
<g id="a_Node000001"><a xlink:href="classUTactixAgentComponent.html" target="_top" xlink:title="Adapts a UE pawn to Tactix::ITactixAgent and holds its AI state.">
<polygon fill="white" stroke="#666666" points="283.25,-39.75 146.5,-39.75 146.5,-19 283.25,-19 283.25,-39.75"/>
<text xml:space="preserve" text-anchor="middle" x="214.88" y="-26.25" font-family="Helvetica,sans-Serif" font-size="10.00">UTactixAgentComponent</text>
</a>
</g>
</g>
<!-- Node0&#45;&gt;Node1 -->
<g id="edge8_Node000000_Node000001" class="edge">
<title>Node0&#45;&gt;Node1</title>
<g id="a_edge8_Node000000_Node000001"><a xlink:title=" ">
<path fill="none" stroke="#63b8ff" d="M122.34,-40.99C130.24,-39.99 138.31,-38.96 146.23,-37.96"/>
<polygon fill="#63b8ff" stroke="#63b8ff" points="121.92,-37.51 112.44,-42.25 122.8,-44.46 121.92,-37.51"/>
</a>
</g>
</g>
<!-- Node2 -->
<g id="Node000002" class="node">
<title>Node2</title>
<g id="a_Node000002"><a xlink:title=" ">
<polygon fill="#e0e0e0" stroke="#999999" points="107.88,-20.75 2.62,-20.75 2.62,0 107.88,0 107.88,-20.75"/>
<text xml:space="preserve" text-anchor="middle" x="55.25" y="-7.25" font-family="Helvetica,sans-Serif" font-size="10.00">UActorComponent</text>
</a>
</g>
</g>
<!-- Node2&#45;&gt;Node1 -->
<g id="edge9_Node000002_Node000001" class="edge">
<title>Node2&#45;&gt;Node1</title>
<g id="a_edge9_Node000002_Node000001"><a xlink:title=" ">
<path fill="none" stroke="#63b8ff" d="M119.59,-18.01C128.33,-19.06 137.33,-20.15 146.14,-21.21"/>
<polygon fill="#63b8ff" stroke="#63b8ff" points="120.15,-14.55 109.8,-16.83 119.31,-21.5 120.15,-14.55"/>
</a>
</g>
</g>
</g>
</svg>
