<?xml version="1.0" encoding="UTF-8" standalone="no"?>
<!DOCTYPE svg PUBLIC "-//W3C//DTD SVG 1.1//EN"
 "http://www.w3.org/Graphics/SVG/1.1/DTD/svg11.dtd">
<!-- Generated by graphviz version 14.1.5 (0)
 -->
<!-- Title: Graphical Class Hierarchy Pages: 1 -->
<svg width="270pt" height="146pt"
 viewBox="0.00 0.00 270.00 146.00" xmlns="http://www.w3.org/2000/svg" xmlns:xlink="http://www.w3.org/1999/xlink">
<g id="graph0" class="graph" transform="scale(1 1) rotate(0) translate(4 141.75)">
<title>Graphical Class Hierarchy</title>
<!-- Node0 -->
<g id="Node000000" class="node">
<title>Node0</title>
<g id="a_Node000000"><a xlink:title=" ">
<polygon fill="#e0e0e0" stroke="#999999" points="98.5,-78.75 0,-78.75 0,-58 98.5,-58 98.5,-78.75"/>
<text xml:space="preserve" text-anchor="middle" x="49.25" y="-65.25" font-family="Helvetica,sans-Serif" font-size="10.00">IModuleInterface</text>
</a>
</g>
</g>
<!-- Node1 -->
<g id="Node000001" class="node">
<title>Node1</title>
<g id="a_Node000001"><a xlink:href="classFTactixCoreModule.html" target="_top" xlink:title="Module implementation for TactixCore.">
<polygon fill="white" stroke="#666666" points="252.5,-137.75 144.25,-137.75 144.25,-117 252.5,-117 252.5,-137.75"/>
<text xml:space="preserve" text-anchor="middle" x="198.38" y="-124.25" font-family="Helvetica,sans-Serif" font-size="10.00">FTactixCoreModule</text>
</a>
</g>
</g>
<!-- Node0&#45;&gt;Node1 -->
<g id="edge3_Node000000_Node000001" class="edge">
<title>Node0&#45;&gt;Node1</title>
<g id="a_edge3_Node000000_Node000001"><a xlink:title=" ">
<path fill="none" stroke="#63b8ff" d="M81.92,-84.18C97.55,-91.69 116.8,-100.49 134.5,-107.38 142.83,-110.61 151.92,-113.73 160.53,-116.51"/>
<polygon fill="#63b8ff" stroke="#63b8ff" points="83.63,-81.12 73.11,-79.9 80.57,-87.42 83.63,-81.12"/>
</a>
</g>
</g>
<!-- Node2 -->
<g id="Node000002" class="node">
<title>Node2</title>
<g id="a_Node000002"><a xlink:href="classFTactixDebugModule.html" target="_top" xlink:title="Module implementation for TactixDebug.">
<polygon fill="white" stroke="#666666" points="257,-98.75 139.75,-98.75 139.75,-78 257,-78 257,-98.75"/>
<text xml:space="preserve" text-anchor="middle" x="198.38" y="-85.25" font-family="Helvetica,sans-Serif" font-size="10.00">FTactixDebugModule</text>
</a>
</g>
</g>
<!-- Node0&#45;&gt;Node2 -->
<g id="edge4_Node000000_Node000002" class="edge">
<title>Node0&#45;&gt;Node2</title>
<g id="a_edge4_Node000000_Node000002"><a xlink:title=" ">
<path fill="none" stroke="#63b8ff" d="M110.02,-76.5C119.71,-77.82 129.73,-79.18 139.38,-80.49"/>
<polygon fill="#63b8ff" stroke="#63b8ff" points="110.71,-73.06 100.33,-75.18 109.77,-80 110.71,-73.06"/>
</a>
</g>
</g>
<!-- Node3 -->
<g id="Node000003" class="node">
<title>Node3</title>
<g id="a_Node000003"><a xlink:href="classFTactixSystemsModule.html" target="_top" xlink:title="Module implementation for TactixSystems.">
<polygon fill="white" stroke="#666666" points="262.25,-59.75 134.5,-59.75 134.5,-39 262.25,-39 262.25,-59.75"/>
<text xml:space="preserve" text-anchor="middle" x="198.38" y="-46.25" font-family="Helvetica,sans-Serif" font-size="10.00">FTactixSystemsModule</text>
</a>
</g>
</g>
<!-- Node0&#45;&gt;Node3 -->
<g id="edge5_Node000000_Node000003" class="edge">
<title>Node0&#45;&gt;Node3</title>
<g id="a_edge5_Node000000_Node000003"><a xlink:title=" ">
<path fill="none" stroke="#63b8ff" d="M110.2,-60.63C118.09,-59.61 126.2,-58.57 134.15,-57.54"/>
<polygon fill="#63b8ff" stroke="#63b8ff" points="109.8,-57.16 100.33,-61.91 110.7,-64.1 109.8,-57.16"/>
</a>
</g>
</g>
<!-- Node4 -->
<g id="Node000004" class="node">
<title>Node4</title>
<g id="a_Node000004"><a xlink:href="classFTactixUEModule.html" target="_top" xlink:title="Module implementation for TactixUE. Lifecycle logging only.">
<polygon fill="white" stroke="#666666" points="248,-20.75 148.75,-20.75 148.75,0 248,0 248,-20.75"/>
<text xml:space="preserve" text-anchor="middle" x="198.38" y="-7.25" font-family="Helvetica,sans-Serif" font-size="10.00">FTactixUEModule</text>
</a>
</g>
</g>
<!-- Node0&#45;&gt;Node4 -->
<g id="edge6_Node000000_Node000004" class="edge">
<title>Node0&#45;&gt;Node4</title>
<g id="a_edge6_Node000000_Node000004"><a xlink:title=" ">
<path fill="none" stroke="#63b8ff" d="M82.29,-52.87C97.86,-45.61 116.97,-37.09 134.5,-30.38 142.95,-27.14 152.17,-23.99 160.89,-21.19"/>
<polygon fill="#63b8ff" stroke="#63b8ff" points="81.05,-49.59 73.5,-57.02 84.03,-55.92 81.05,-49.59"/>
</a>
</g>
</g>
</g>
</svg>
