<?xml version="1.0" encoding="UTF-8" standalone="no"?>
<!DOCTYPE svg PUBLIC "-//W3C//DTD SVG 1.1//EN"
 "http://www.w3.org/Graphics/SVG/1.1/DTD/svg11.dtd">
<!-- Generated by graphviz version 14.1.5 (0)
 -->
<!-- Title: Graphical Class Hierarchy Pages: 1 -->
<svg width="324pt" height="68pt"
 viewBox="0.00 0.00 324.00 68.00" xmlns="http://www.w3.org/2000/svg" xmlns:xlink="http://www.w3.org/1999/xlink">
<g id="graph0" class="graph" transform="scale(1 1) rotate(0) translate(4 63.75)">
<title>Graphical Class Hierarchy</title>
<!-- Node0 -->
<g id="Node000000" class="node">
<title>Node0</title>
<g id="a_Node000000"><a xlink:href="classTactix_1_1ITactixHTNTask.html" target="_top" xlink:title="Base for every HTN task; only distinguishes primitive from compound.">
<polygon fill="white" stroke="#666666" points="124.75,-39.75 0,-39.75 0,-19 124.75,-19 124.75,-39.75"/>
<text xml:space="preserve" text-anchor="middle" x="62.38" y="-26.25" font-family="Helvetica,sans-Serif" font-size="10.00">Tactix::ITactixHTNTask</text>
</a>
</g>
</g>
<!-- Node1 -->
<g id="Node000001" class="node">
<title>Node1</title>
<g id="a_Node000001"><a xlink:href="classTactix_1_1ITactixHTNCompound.html" target="_top" xlink:title="A task that decomposes into subtasks via one of several methods.">
<polygon fill="white" stroke="#666666" points="316.25,-59.75 160.75,-59.75 160.75,-39 316.25,-39 316.25,-59.75"/>
<text xml:space="preserve" text-anchor="middle" x="238.5" y="-46.25" font-family="Helvetica,sans-Serif" font-size="10.00">Tactix::ITactixHTNCompound</text>
</a>
</g>
</g>
<!-- Node0&#45;&gt;Node1 -->
<g id="edge11_Node000000_Node000001" class="edge">
<title>Node0&#45;&gt;Node1</title>
<g id="a_edge11_Node000000_Node000001"><a xlink:title=" ">
<path fill="none" stroke="#63b8ff" d="M136.04,-37.72C144.12,-38.65 152.37,-39.6 160.49,-40.53"/>
<polygon fill="#63b8ff" stroke="#63b8ff" points="136.6,-34.26 126.27,-36.6 135.8,-41.22 136.6,-34.26"/>
</a>
</g>
</g>
<!-- Node2 -->
<g id="Node000002" class="node">
<title>Node2</title>
<g id="a_Node000002"><a xlink:href="classTactix_1_1ITactixHTNPrimitive.html" target="_top" xlink:title="A leaf task: directly executable, with planner&#45;visible effects.">
<polygon fill="white" stroke="#666666" points="312.12,-20.75 164.88,-20.75 164.88,0 312.12,0 312.12,-20.75"/>
<text xml:space="preserve" text-anchor="middle" x="238.5" y="-7.25" font-family="Helvetica,sans-Serif" font-size="10.00">Tactix::ITactixHTNPrimitive</text>
</a>
</g>
</g>
<!-- Node0&#45;&gt;Node2 -->
<g id="edge12_Node000000_Node000002" class="edge">
<title>Node0&#45;&gt;Node2</title>
<g id="a_edge12_Node000000_Node000002"><a xlink:title=" ">
<path fill="none" stroke="#63b8ff" d="M136.06,-21.44C145.44,-20.42 155.05,-19.37 164.44,-18.35"/>
<polygon fill="#63b8ff" stroke="#63b8ff" points="135.83,-17.95 126.27,-22.51 136.59,-24.91 135.83,-17.95"/>
</a>
</g>
</g>
</g>
</svg>
