<?xml version="1.0" encoding="UTF-8" standalone="no"?>
<!DOCTYPE svg PUBLIC "-//W3C//DTD SVG 1.1//EN"
 "http://www.w3.org/Graphics/SVG/1.1/DTD/svg11.dtd">
<!-- Generated by graphviz version 14.1.5 (0)
 -->
<!-- Title: Graphical Class Hierarchy Pages: 1 -->
<svg width="258pt" height="68pt"
 viewBox="0.00 0.00 258.00 68.00" xmlns="http://www.w3.org/2000/svg" xmlns:xlink="http://www.w3.org/1999/xlink">
<g id="graph0" class="graph" transform="scale(1 1) rotate(0) translate(4 63.75)">
<title>Graphical Class Hierarchy</title>
<!-- Node0 -->
<g id="Node000000" class="node">
<title>Node0</title>
<g id="a_Node000000"><a xlink:title=" ">
<polygon fill="#e0e0e0" stroke="#999999" points="73.75,-39.75 0,-39.75 0,-19 73.75,-19 73.75,-39.75"/>
<text xml:space="preserve" text-anchor="middle" x="36.88" y="-26.25" font-family="Helvetica,sans-Serif" font-size="10.00">UDataAsset</text>
</a>
</g>
</g>
<!-- Node1 -->
<g id="Node000001" class="node">
<title>Node1</title>
<g id="a_Node000001"><a xlink:href="classUTactixSquadConfigAsset.html" target="_top" xlink:title="Data asset of squad composition and movement settings.">
<polygon fill="white" stroke="#666666" points="249.5,-59.75 109.75,-59.75 109.75,-39 249.5,-39 249.5,-59.75"/>
<text xml:space="preserve" text-anchor="middle" x="179.62" y="-46.25" font-family="Helvetica,sans-Serif" font-size="10.00">UTactixSquadConfigAsset</text>
</a>
</g>
</g>
<!-- Node0&#45;&gt;Node1 -->
<g id="edge19_Node000000_Node000001" class="edge">
<title>Node0&#45;&gt;Node1</title>
<g id="a_edge19_Node000000_Node000001"><a xlink:title=" ">
<path fill="none" stroke="#63b8ff" d="M85.47,-36.14C93.18,-37.23 101.31,-38.39 109.42,-39.54"/>
<polygon fill="#63b8ff" stroke="#63b8ff" points="86.01,-32.68 75.62,-34.74 85.03,-39.61 86.01,-32.68"/>
</a>
</g>
</g>
<!-- Node2 -->
<g id="Node000002" class="node">
<title>Node2</title>
<g id="a_Node000002"><a xlink:href="classUTactixUtilityAsset.html" target="_top" xlink:title="Data asset holding scored actions and the logic to evaluate them.">
<polygon fill="white" stroke="#666666" points="234.12,-20.75 125.12,-20.75 125.12,0 234.12,0 234.12,-20.75"/>
<text xml:space="preserve" text-anchor="middle" x="179.62" y="-7.25" font-family="Helvetica,sans-Serif" font-size="10.00">UTactixUtilityAsset</text>
</a>
</g>
</g>
<!-- Node0&#45;&gt;Node2 -->
<g id="edge20_Node000000_Node000002" class="edge">
<title>Node0&#45;&gt;Node2</title>
<g id="a_edge20_Node000000_Node000002"><a xlink:title=" ">
<path fill="none" stroke="#63b8ff" d="M85.37,-22.96C98.01,-21.26 111.75,-19.4 124.71,-17.65"/>
<polygon fill="#63b8ff" stroke="#63b8ff" points="85.06,-19.47 75.62,-24.28 86,-26.41 85.06,-19.47"/>
</a>
</g>
</g>
</g>
</svg>
