<?xml version="1.0" encoding="UTF-8" standalone="no"?>
<!DOCTYPE svg PUBLIC "-//W3C//DTD SVG 1.1//EN"
 "http://www.w3.org/Graphics/SVG/1.1/DTD/svg11.dtd">
<!-- Generated by graphviz version 14.1.5 (0)
 -->
<!-- Title: Graphical Class Hierarchy Pages: 1 -->
<svg width="279pt" height="107pt"
 viewBox="0.00 0.00 279.00 107.00" xmlns="http://www.w3.org/2000/svg" xmlns:xlink="http://www.w3.org/1999/xlink">
<g id="graph0" class="graph" transform="scale(1 1) rotate(0) translate(4 102.75)">
<title>Graphical Class Hierarchy</title>
<!-- Node0 -->
<g id="Node000000" class="node">
<title>Node0</title>
<g id="a_Node000000"><a xlink:title=" ">
<polygon fill="#e0e0e0" stroke="#999999" points="83.5,-59.75 0,-59.75 0,-39 83.5,-39 83.5,-59.75"/>
<text xml:space="preserve" text-anchor="middle" x="41.75" y="-46.25" font-family="Helvetica,sans-Serif" font-size="10.00">UBTTaskNode</text>
</a>
</g>
</g>
<!-- Node1 -->
<g id="Node000001" class="node">
<title>Node1</title>
<g id="a_Node000001"><a xlink:href="classUTactixBTTask__ClaimCover.html" target="_top" xlink:title="Behavior Tree task: query and claim the best cover point.">
<polygon fill="white" stroke="#666666" points="269.38,-98.75 120.62,-98.75 120.62,-78 269.38,-78 269.38,-98.75"/>
<text xml:space="preserve" text-anchor="middle" x="195" y="-85.25" font-family="Helvetica,sans-Serif" font-size="10.00">UTactixBTTask_ClaimCover</text>
</a>
</g>
</g>
<!-- Node0&#45;&gt;Node1 -->
<g id="edge16_Node000000_Node000001" class="edge">
<title>Node0&#45;&gt;Node1</title>
<g id="a_edge16_Node000000_Node000001"><a xlink:title=" ">
<path fill="none" stroke="#63b8ff" d="M94.7,-62.77C113.39,-67.59 134.24,-72.97 151.98,-77.54"/>
<polygon fill="#63b8ff" stroke="#63b8ff" points="95.7,-59.41 85.15,-60.31 93.96,-66.19 95.7,-59.41"/>
</a>
</g>
</g>
<!-- Node2 -->
<g id="Node000002" class="node">
<title>Node2</title>
<g id="a_Node000002"><a xlink:href="classUTactixBTTask__ExecutePlan.html" target="_top" xlink:title="Behavior Tree task: execute the active plan step by step.">
<polygon fill="white" stroke="#666666" points="270.5,-59.75 119.5,-59.75 119.5,-39 270.5,-39 270.5,-59.75"/>
<text xml:space="preserve" text-anchor="middle" x="195" y="-46.25" font-family="Helvetica,sans-Serif" font-size="10.00">UTactixBTTask_ExecutePlan</text>
</a>
</g>
</g>
<!-- Node0&#45;&gt;Node2 -->
<g id="edge17_Node000000_Node000002" class="edge">
<title>Node0&#45;&gt;Node2</title>
<g id="a_edge17_Node000000_Node000002"><a xlink:title=" ">
<path fill="none" stroke="#63b8ff" d="M95.17,-49.38C102.95,-49.38 111.1,-49.38 119.23,-49.38"/>
<polygon fill="#63b8ff" stroke="#63b8ff" points="95.19,-45.88 85.19,-49.38 95.19,-52.88 95.19,-45.88"/>
</a>
</g>
</g>
<!-- Node3 -->
<g id="Node000003" class="node">
<title>Node3</title>
<g id="a_Node000003"><a xlink:href="classUTactixBTTask__RunUtility.html" target="_top" xlink:title="Behavior Tree task: select the best action from a utility asset.">
<polygon fill="white" stroke="#666666" points="265.25,-20.75 124.75,-20.75 124.75,0 265.25,0 265.25,-20.75"/>
<text xml:space="preserve" text-anchor="middle" x="195" y="-7.25" font-family="Helvetica,sans-Serif" font-size="10.00">UTactixBTTask_RunUtility</text>
</a>
</g>
</g>
<!-- Node0&#45;&gt;Node3 -->
<g id="edge18_Node000000_Node000003" class="edge">
<title>Node0&#45;&gt;Node3</title>
<g id="a_edge18_Node000000_Node000003"><a xlink:title=" ">
<path fill="none" stroke="#63b8ff" d="M94.7,-35.98C113.39,-31.16 134.24,-25.78 151.98,-21.21"/>
<polygon fill="#63b8ff" stroke="#63b8ff" points="93.96,-32.56 85.15,-38.44 95.7,-39.34 93.96,-32.56"/>
</a>
</g>
</g>
</g>
</svg>
