<?xml version="1.0" encoding="UTF-8" standalone="no"?>
<!DOCTYPE svg PUBLIC "-//W3C//DTD SVG 1.1//EN"
 "http://www.w3.org/Graphics/SVG/1.1/DTD/svg11.dtd">
<!-- Generated by graphviz version 14.1.5 (0)
 -->
<!-- Title: Source/TactixCore/Public/Agent/ITactixAgent.h Pages: 1 -->
<svg width="178pt" height="155pt"
 viewBox="0.00 0.00 178.00 155.00" xmlns="http://www.w3.org/2000/svg" xmlns:xlink="http://www.w3.org/1999/xlink">
<g id="graph0" class="graph" transform="scale(1 1) rotate(0) translate(4 151)">
<title>Source/TactixCore/Public/Agent/ITactixAgent.h</title>
<!-- Node1 -->
<g id="Node000001" class="node">
<title>Node1</title>
<g id="a_Node000001"><a xlink:title="The engine&#45;agnostic contract a &quot;thinking&quot; entity implements to take part in Tactix systems.">
<polygon fill="#999999" stroke="#666666" points="152.81,-147 17.56,-147 17.56,-113.5 152.81,-113.5 152.81,-147"/>
<text xml:space="preserve" text-anchor="start" x="25.56" y="-133.5" font-family="Helvetica,sans-Serif" font-size="10.00">Source/TactixCore/Public</text>
<text xml:space="preserve" text-anchor="middle" x="85.18" y="-120.75" font-family="Helvetica,sans-Serif" font-size="10.00">/Agent/ITactixAgent.h</text>
</a>
</g>
</g>
<!-- Node2 -->
<g id="Node000002" class="node">
<title>Node2</title>
<g id="a_Node000002"><a xlink:href="TactixApi_8h.html" target="_top" xlink:title="Export macros, compiler attributes and version constants shared by every Tactix module.">
<polygon fill="white" stroke="#666666" points="74.81,-20.75 5.56,-20.75 5.56,0 74.81,0 74.81,-20.75"/>
<text xml:space="preserve" text-anchor="middle" x="40.18" y="-7.25" font-family="Helvetica,sans-Serif" font-size="10.00">TactixApi.h</text>
</a>
</g>
</g>
<!-- Node1&#45;&gt;Node2 -->
<g id="edge1_Node000001_Node000002" class="edge">
<title>Node1&#45;&gt;Node2</title>
<g id="a_edge1_Node000001_Node000002"><a xlink:title=" ">
<path fill="none" stroke="#63b8ff" d="M43.02,-113.09C27.63,-104.9 11.88,-93.27 3.18,-77.5 -5.88,-61.06 6.66,-42.39 19.54,-29.1"/>
<polygon fill="#63b8ff" stroke="#63b8ff" points="21.9,-31.69 26.73,-22.26 17.07,-26.61 21.9,-31.69"/>
</a>
</g>
</g>
<!-- Node3 -->
<g id="Node000003" class="node">
<title>Node3</title>
<g id="a_Node000003"><a xlink:href="TactixHandle_8h.html" target="_top" xlink:title="Type&#45;safe generational handle: the only sanctioned way to reference a pooled object across frames.">
<polygon fill="white" stroke="#666666" points="157.68,-77.5 12.68,-77.5 12.68,-56.75 157.68,-56.75 157.68,-77.5"/>
<text xml:space="preserve" text-anchor="middle" x="85.18" y="-64" font-family="Helvetica,sans-Serif" font-size="10.00">Foundation/TactixHandle.h</text>
</a>
</g>
</g>
<!-- Node1&#45;&gt;Node3 -->
<g id="edge2_Node000001_Node000003" class="edge">
<title>Node1&#45;&gt;Node3</title>
<g id="a_edge2_Node000001_Node000003"><a xlink:title=" ">
<path fill="none" stroke="#63b8ff" d="M85.18,-113.19C85.18,-105.85 85.18,-97.07 85.18,-89.21"/>
<polygon fill="#63b8ff" stroke="#63b8ff" points="88.68,-89.48 85.18,-79.48 81.68,-89.48 88.68,-89.48"/>
</a>
</g>
</g>
<!-- Node4 -->
<g id="Node000004" class="node">
<title>Node4</title>
<g id="a_Node000004"><a xlink:title=" ">
<polygon fill="#e0e0e0" stroke="#999999" points="153.68,-20.75 104.68,-20.75 104.68,0 153.68,0 153.68,-20.75"/>
<text xml:space="preserve" text-anchor="middle" x="129.18" y="-7.25" font-family="Helvetica,sans-Serif" font-size="10.00">cstdint</text>
</a>
</g>
</g>
<!-- Node1&#45;&gt;Node4 -->
<g id="edge5_Node000001_Node000004" class="edge">
<title>Node1&#45;&gt;Node4</title>
<g id="a_edge5_Node000001_Node000004"><a xlink:title=" ">
<path fill="none" stroke="#63b8ff" d="M127.34,-113.09C142.73,-104.9 158.49,-93.27 167.18,-77.5 176.39,-60.79 163.2,-41.94 149.9,-28.66"/>
<polygon fill="#63b8ff" stroke="#63b8ff" points="152.63,-26.42 142.92,-22.2 147.88,-31.56 152.63,-26.42"/>
</a>
</g>
</g>
<!-- Node3&#45;&gt;Node2 -->
<g id="edge3_Node000003_Node000002" class="edge">
<title>Node3&#45;&gt;Node2</title>
<g id="a_edge3_Node000003_Node000002"><a xlink:title=" ">
<path fill="none" stroke="#63b8ff" d="M77.14,-56.34C71.12,-49.02 62.72,-38.79 55.44,-29.94"/>
<polygon fill="#63b8ff" stroke="#63b8ff" points="58.17,-27.75 49.12,-22.25 52.76,-32.2 58.17,-27.75"/>
</a>
</g>
</g>
<!-- Node3&#45;&gt;Node4 -->
<g id="edge4_Node000003_Node000004" class="edge">
<title>Node3&#45;&gt;Node4</title>
<g id="a_edge4_Node000003_Node000004"><a xlink:title=" ">
<path fill="none" stroke="#63b8ff" d="M93.05,-56.34C98.93,-49.02 107.15,-38.79 114.26,-29.94"/>
<polygon fill="#63b8ff" stroke="#63b8ff" points="116.9,-32.25 120.44,-22.26 111.44,-27.86 116.9,-32.25"/>
</a>
</g>
</g>
</g>
</svg>
