<?xml version="1.0" encoding="UTF-8" standalone="no"?>
<!DOCTYPE svg PUBLIC "-//W3C//DTD SVG 1.1//EN"
 "http://www.w3.org/Graphics/SVG/1.1/DTD/svg11.dtd">
<!-- Generated by graphviz version 14.1.5 (0)
 -->
<!-- Title: Source/TactixCore/Public/Perception/ITactixPerceptionChannel.h Pages: 1 -->
<svg width="410pt" height="212pt"
 viewBox="0.00 0.00 410.00 212.00" xmlns="http://www.w3.org/2000/svg" xmlns:xlink="http://www.w3.org/1999/xlink">
<g id="graph0" class="graph" transform="scale(1 1) rotate(0) translate(4 207.75)">
<title>Source/TactixCore/Public/Perception/ITactixPerceptionChannel.h</title>
<!-- Node1 -->
<g id="Node000001" class="node">
<title>Node1</title>
<g id="a_Node000001"><a xlink:title="Stimulus record and channel interface for the perception memory.">
<polygon fill="#999999" stroke="#666666" points="290.26,-203.75 84.51,-203.75 84.51,-170.25 290.26,-170.25 290.26,-203.75"/>
<text xml:space="preserve" text-anchor="start" x="92.51" y="-190.25" font-family="Helvetica,sans-Serif" font-size="10.00">Source/TactixCore/Public</text>
<text xml:space="preserve" text-anchor="middle" x="187.38" y="-177.5" font-family="Helvetica,sans-Serif" font-size="10.00">/Perception/ITactixPerceptionChannel.h</text>
</a>
</g>
</g>
<!-- Node2 -->
<g id="Node000002" class="node">
<title>Node2</title>
<g id="a_Node000002"><a xlink:href="TactixApi_8h.html" target="_top" xlink:title="Export macros, compiler attributes and version constants shared by every Tactix module.">
<polygon fill="white" stroke="#666666" points="167.01,-20.75 97.76,-20.75 97.76,0 167.01,0 167.01,-20.75"/>
<text xml:space="preserve" text-anchor="middle" x="132.38" y="-7.25" font-family="Helvetica,sans-Serif" font-size="10.00">TactixApi.h</text>
</a>
</g>
</g>
<!-- Node1&#45;&gt;Node2 -->
<g id="edge1_Node000001_Node000002" class="edge">
<title>Node1&#45;&gt;Node2</title>
<g id="a_edge1_Node000001_Node000002"><a xlink:title=" ">
<path fill="none" stroke="#63b8ff" d="M132.04,-169.88C88.76,-154.03 31.53,-125.16 4.38,-77.5 -15.84,-42.01 41.81,-24.89 86.22,-17.15"/>
<polygon fill="#63b8ff" stroke="#63b8ff" points="86.65,-20.62 95.96,-15.57 85.53,-13.71 86.65,-20.62"/>
</a>
</g>
</g>
<!-- Node3 -->
<g id="Node000003" class="node">
<title>Node3</title>
<g id="a_Node000003"><a xlink:href="TactixHandle_8h.html" target="_top" xlink:title="Type&#45;safe generational handle: the only sanctioned way to reference a pooled object across frames.">
<polygon fill="white" stroke="#666666" points="158.88,-77.5 13.88,-77.5 13.88,-56.75 158.88,-56.75 158.88,-77.5"/>
<text xml:space="preserve" text-anchor="middle" x="86.38" y="-64" font-family="Helvetica,sans-Serif" font-size="10.00">Foundation/TactixHandle.h</text>
</a>
</g>
</g>
<!-- Node1&#45;&gt;Node3 -->
<g id="edge2_Node000001_Node000003" class="edge">
<title>Node1&#45;&gt;Node3</title>
<g id="a_edge2_Node000001_Node000003"><a xlink:title=" ">
<path fill="none" stroke="#63b8ff" d="M161.28,-169.86C147.86,-160.64 131.94,-148.15 120.38,-134.25 108.9,-120.45 99.86,-102.13 93.99,-88.27"/>
<polygon fill="#63b8ff" stroke="#63b8ff" points="97.36,-87.27 90.4,-79.29 90.86,-89.87 97.36,-87.27"/>
</a>
</g>
</g>
<!-- Node4 -->
<g id="Node000004" class="node">
<title>Node4</title>
<g id="a_Node000004"><a xlink:title=" ">
<polygon fill="#e0e0e0" stroke="#999999" points="264.88,-20.75 215.88,-20.75 215.88,0 264.88,0 264.88,-20.75"/>
<text xml:space="preserve" text-anchor="middle" x="240.38" y="-7.25" font-family="Helvetica,sans-Serif" font-size="10.00">cstdint</text>
</a>
</g>
</g>
<!-- Node1&#45;&gt;Node4 -->
<g id="edge13_Node000001_Node000004" class="edge">
<title>Node1&#45;&gt;Node4</title>
<g id="a_edge13_Node000001_Node000004"><a xlink:title=" ">
<path fill="none" stroke="#63b8ff" d="M259.33,-169.76C307.84,-154.66 368.29,-126.81 398.38,-77.5 403.18,-69.63 403.93,-64.12 398.38,-56.75 390.91,-46.84 320.64,-29.44 276.36,-19.31"/>
<polygon fill="#63b8ff" stroke="#63b8ff" points="277.18,-15.91 266.66,-17.12 275.64,-22.74 277.18,-15.91"/>
</a>
</g>
</g>
<!-- Node5 -->
<g id="Node000005" class="node">
<title>Node5</title>
<g id="a_Node000005"><a xlink:href="TactixMath_8h.html" target="_top" xlink:title="Small, engine&#45;agnostic vector and scalar math used across Tactix.">
<polygon fill="white" stroke="#666666" points="389.01,-77.5 253.76,-77.5 253.76,-56.75 389.01,-56.75 389.01,-77.5"/>
<text xml:space="preserve" text-anchor="middle" x="321.38" y="-64" font-family="Helvetica,sans-Serif" font-size="10.00">Foundation/TactixMath.h</text>
</a>
</g>
</g>
<!-- Node1&#45;&gt;Node5 -->
<g id="edge5_Node000001_Node000005" class="edge">
<title>Node1&#45;&gt;Node5</title>
<g id="a_edge5_Node000001_Node000005"><a xlink:title=" ">
<path fill="none" stroke="#63b8ff" d="M209.64,-169.87C222.94,-159.97 239.99,-146.82 254.38,-134.25 272.15,-118.72 291.18,-99.68 304.41,-86.02"/>
<polygon fill="#63b8ff" stroke="#63b8ff" points="306.74,-88.65 311.14,-79.01 301.69,-83.8 306.74,-88.65"/>
</a>
</g>
</g>
<!-- Node7 -->
<g id="Node000007" class="node">
<title>Node7</title>
<g id="a_Node000007"><a xlink:href="ITactixAgent_8h.html" target="_top" xlink:title="The engine&#45;agnostic contract a &quot;thinking&quot; entity implements to take part in Tactix systems.">
<polygon fill="white" stroke="#666666" points="245.63,-134.25 129.13,-134.25 129.13,-113.5 245.63,-113.5 245.63,-134.25"/>
<text xml:space="preserve" text-anchor="middle" x="187.38" y="-120.75" font-family="Helvetica,sans-Serif" font-size="10.00">Agent/ITactixAgent.h</text>
</a>
</g>
</g>
<!-- Node1&#45;&gt;Node7 -->
<g id="edge9_Node000001_Node000007" class="edge">
<title>Node1&#45;&gt;Node7</title>
<g id="a_edge9_Node000001_Node000007"><a xlink:title=" ">
<path fill="none" stroke="#63b8ff" d="M187.38,-169.94C187.38,-162.6 187.38,-153.82 187.38,-145.96"/>
<polygon fill="#63b8ff" stroke="#63b8ff" points="190.88,-146.23 187.38,-136.23 183.88,-146.23 190.88,-146.23"/>
</a>
</g>
</g>
<!-- Node3&#45;&gt;Node2 -->
<g id="edge3_Node000003_Node000002" class="edge">
<title>Node3&#45;&gt;Node2</title>
<g id="a_edge3_Node000003_Node000002"><a xlink:title=" ">
<path fill="none" stroke="#63b8ff" d="M94.6,-56.34C100.82,-48.94 109.53,-38.57 117.02,-29.66"/>
<polygon fill="#63b8ff" stroke="#63b8ff" points="119.5,-32.15 123.25,-22.24 114.14,-27.64 119.5,-32.15"/>
</a>
</g>
</g>
<!-- Node3&#45;&gt;Node4 -->
<g id="edge4_Node000003_Node000004" class="edge">
<title>Node3&#45;&gt;Node4</title>
<g id="a_edge4_Node000003_Node000004"><a xlink:title=" ">
<path fill="none" stroke="#63b8ff" d="M113.91,-56.34C139.31,-47.31 177.16,-33.85 204.83,-24.01"/>
<polygon fill="#63b8ff" stroke="#63b8ff" points="205.95,-27.33 214.2,-20.68 203.61,-20.73 205.95,-27.33"/>
</a>
</g>
</g>
<!-- Node5&#45;&gt;Node2 -->
<g id="edge6_Node000005_Node000002" class="edge">
<title>Node5&#45;&gt;Node2</title>
<g id="a_edge6_Node000005_Node000002"><a xlink:title=" ">
<path fill="none" stroke="#63b8ff" d="M287.59,-56.34C256.78,-47.41 211.03,-34.16 177.18,-24.35"/>
<polygon fill="#63b8ff" stroke="#63b8ff" points="178.23,-21.01 167.65,-21.59 176.28,-27.74 178.23,-21.01"/>
</a>
</g>
</g>
<!-- Node5&#45;&gt;Node4 -->
<g id="edge8_Node000005_Node000004" class="edge">
<title>Node5&#45;&gt;Node4</title>
<g id="a_edge8_Node000005_Node000004"><a xlink:title=" ">
<path fill="none" stroke="#63b8ff" d="M306.9,-56.34C295.04,-48.32 278.01,-36.81 264.15,-27.44"/>
<polygon fill="#63b8ff" stroke="#63b8ff" points="266.24,-24.63 255.99,-21.93 262.32,-30.43 266.24,-24.63"/>
</a>
</g>
</g>
<!-- Node6 -->
<g id="Node000006" class="node">
<title>Node6</title>
<g id="a_Node000006"><a xlink:title=" ">
<polygon fill="#e0e0e0" stroke="#999999" points="344.76,-20.75 298.01,-20.75 298.01,0 344.76,0 344.76,-20.75"/>
<text xml:space="preserve" text-anchor="middle" x="321.38" y="-7.25" font-family="Helvetica,sans-Serif" font-size="10.00">cmath</text>
</a>
</g>
</g>
<!-- Node5&#45;&gt;Node6 -->
<g id="edge7_Node000005_Node000006" class="edge">
<title>Node5&#45;&gt;Node6</title>
<g id="a_edge7_Node000005_Node000006"><a xlink:title=" ">
<path fill="none" stroke="#63b8ff" d="M321.38,-56.34C321.38,-49.72 321.38,-40.72 321.38,-32.52"/>
<polygon fill="#63b8ff" stroke="#63b8ff" points="324.88,-32.59 321.38,-22.59 317.88,-32.59 324.88,-32.59"/>
</a>
</g>
</g>
<!-- Node7&#45;&gt;Node2 -->
<g id="edge10_Node000007_Node000002" class="edge">
<title>Node7&#45;&gt;Node2</title>
<g id="a_edge10_Node000007_Node000002"><a xlink:title=" ">
<path fill="none" stroke="#63b8ff" d="M185.79,-113.01C183.37,-99.69 178,-75.44 168.38,-56.75 163.35,-46.98 156.06,-37.29 149.35,-29.38"/>
<polygon fill="#63b8ff" stroke="#63b8ff" points="152.18,-27.3 142.92,-22.16 146.96,-31.95 152.18,-27.3"/>
</a>
</g>
</g>
<!-- Node7&#45;&gt;Node3 -->
<g id="edge11_Node000007_Node000003" class="edge">
<title>Node7&#45;&gt;Node3</title>
<g id="a_edge11_Node000007_Node000003"><a xlink:title=" ">
<path fill="none" stroke="#63b8ff" d="M169.32,-113.09C153.96,-104.76 131.64,-92.66 114.02,-83.11"/>
<polygon fill="#63b8ff" stroke="#63b8ff" points="116.07,-80.24 105.61,-78.55 112.74,-86.39 116.07,-80.24"/>
</a>
</g>
</g>
<!-- Node7&#45;&gt;Node4 -->
<g id="edge12_Node000007_Node000004" class="edge">
<title>Node7&#45;&gt;Node4</title>
<g id="a_edge12_Node000007_Node000004"><a xlink:title=" ">
<path fill="none" stroke="#63b8ff" d="M191.9,-113.37C200.5,-95.27 219.39,-55.53 230.89,-31.35"/>
<polygon fill="#63b8ff" stroke="#63b8ff" points="233.94,-33.08 235.07,-22.54 227.62,-30.07 233.94,-33.08"/>
</a>
</g>
</g>
</g>
</svg>
