<?xml version="1.0" encoding="UTF-8" standalone="no"?>
<!DOCTYPE svg PUBLIC "-//W3C//DTD SVG 1.1//EN"
 "http://www.w3.org/Graphics/SVG/1.1/DTD/svg11.dtd">
<!-- Generated by graphviz version 14.1.5 (0)
 -->
<!-- Title: Source/TactixSystems/Public/GOAP/ITactixGOAPAction.h Pages: 1 -->
<svg width="220pt" height="155pt"
 viewBox="0.00 0.00 220.00 155.00" xmlns="http://www.w3.org/2000/svg" xmlns:xlink="http://www.w3.org/1999/xlink">
<g id="graph0" class="graph" transform="scale(1 1) rotate(0) translate(4 151)">
<title>Source/TactixSystems/Public/GOAP/ITactixGOAPAction.h</title>
<!-- Node1 -->
<g id="Node000001" class="node">
<title>Node1</title>
<g id="a_Node000001"><a xlink:title="Interface for a GOAP action: a graph edge with preconditions, effects and a cost.">
<polygon fill="#999999" stroke="#666666" points="180.25,-147 0,-147 0,-113.5 180.25,-113.5 180.25,-147"/>
<text xml:space="preserve" text-anchor="start" x="8" y="-133.5" font-family="Helvetica,sans-Serif" font-size="10.00">Source/TactixSystems</text>
<text xml:space="preserve" text-anchor="middle" x="90.12" y="-120.75" font-family="Helvetica,sans-Serif" font-size="10.00">/Public/GOAP/ITactixGOAPAction.h</text>
</a>
</g>
</g>
<!-- Node2 -->
<g id="Node000002" class="node">
<title>Node2</title>
<g id="a_Node000002"><a xlink:href="TactixApi_8h.html" target="_top" xlink:title="Export macros, compiler attributes and version constants shared by every Tactix module.">
<polygon fill="white" stroke="#666666" points="86.75,-20.75 17.5,-20.75 17.5,0 86.75,0 86.75,-20.75"/>
<text xml:space="preserve" text-anchor="middle" x="52.12" y="-7.25" font-family="Helvetica,sans-Serif" font-size="10.00">TactixApi.h</text>
</a>
</g>
</g>
<!-- Node1&#45;&gt;Node2 -->
<g id="edge1_Node000001_Node000002" class="edge">
<title>Node1&#45;&gt;Node2</title>
<g id="a_edge1_Node000001_Node000002"><a xlink:title=" ">
<path fill="none" stroke="#63b8ff" d="M78.59,-113.29C72.08,-103.45 64.41,-90.3 60.12,-77.5 55.23,-62.87 53.27,-45.54 52.5,-32.29"/>
<polygon fill="#63b8ff" stroke="#63b8ff" points="56.01,-32.43 52.14,-22.57 49.02,-32.69 56.01,-32.43"/>
</a>
</g>
</g>
<!-- Node3 -->
<g id="Node000003" class="node">
<title>Node3</title>
<g id="a_Node000003"><a xlink:href="FTactixWorldState_8h.html" target="_top" xlink:title="Symbolic world state for the GOAP planner: 64 boolean facts plus a &quot;defined&quot; mask.">
<polygon fill="white" stroke="#666666" points="211.5,-77.5 68.75,-77.5 68.75,-56.75 211.5,-56.75 211.5,-77.5"/>
<text xml:space="preserve" text-anchor="middle" x="140.12" y="-64" font-family="Helvetica,sans-Serif" font-size="10.00">GOAP/FTactixWorldState.h</text>
</a>
</g>
</g>
<!-- Node1&#45;&gt;Node3 -->
<g id="edge2_Node000001_Node000003" class="edge">
<title>Node1&#45;&gt;Node3</title>
<g id="a_edge2_Node000001_Node000003"><a xlink:title=" ">
<path fill="none" stroke="#63b8ff" d="M103.26,-113.19C109.9,-105.07 118,-95.17 124.91,-86.72"/>
<polygon fill="#63b8ff" stroke="#63b8ff" points="127.49,-89.09 131.12,-79.14 122.08,-84.66 127.49,-89.09"/>
</a>
</g>
</g>
<!-- Node3&#45;&gt;Node2 -->
<g id="edge3_Node000003_Node000002" class="edge">
<title>Node3&#45;&gt;Node2</title>
<g id="a_edge3_Node000003_Node000002"><a xlink:title=" ">
<path fill="none" stroke="#63b8ff" d="M124.39,-56.34C111.25,-48.16 92.28,-36.36 77.07,-26.9"/>
<polygon fill="#63b8ff" stroke="#63b8ff" points="79.35,-24.19 69.01,-21.88 75.65,-30.13 79.35,-24.19"/>
</a>
</g>
</g>
<!-- Node4 -->
<g id="Node000004" class="node">
<title>Node4</title>
<g id="a_Node000004"><a xlink:title=" ">
<polygon fill="#e0e0e0" stroke="#999999" points="164.62,-20.75 115.62,-20.75 115.62,0 164.62,0 164.62,-20.75"/>
<text xml:space="preserve" text-anchor="middle" x="140.12" y="-7.25" font-family="Helvetica,sans-Serif" font-size="10.00">cstdint</text>
</a>
</g>
</g>
<!-- Node3&#45;&gt;Node4 -->
<g id="edge4_Node000003_Node000004" class="edge">
<title>Node3&#45;&gt;Node4</title>
<g id="a_edge4_Node000003_Node000004"><a xlink:title=" ">
<path fill="none" stroke="#63b8ff" d="M140.12,-56.34C140.12,-49.72 140.12,-40.72 140.12,-32.52"/>
<polygon fill="#63b8ff" stroke="#63b8ff" points="143.63,-32.59 140.13,-22.59 136.63,-32.59 143.63,-32.59"/>
</a>
</g>
</g>
</g>
</svg>
