<?xml version="1.0" encoding="UTF-8" standalone="no"?>
<!DOCTYPE svg PUBLIC "-//W3C//DTD SVG 1.1//EN"
 "http://www.w3.org/Graphics/SVG/1.1/DTD/svg11.dtd">
<!-- Generated by graphviz version 14.1.5 (0)
 -->
<!-- Title: Source/TactixCore/Public/Agent/ITactixAgent.h Pages: 1 -->
<svg width="2405pt" height="345pt"
 viewBox="0.00 0.00 2405.00 345.00" xmlns="http://www.w3.org/2000/svg" xmlns:xlink="http://www.w3.org/1999/xlink">
<g id="graph0" class="graph" transform="scale(1 1) rotate(0) translate(4 341)">
<title>Source/TactixCore/Public/Agent/ITactixAgent.h</title>
<!-- Node1 -->
<g id="Node000001" class="node">
<title>Node1</title>
<g id="a_Node000001"><a xlink:title="The engine&#45;agnostic contract a &quot;thinking&quot; entity implements to take part in Tactix systems.">
<polygon fill="#999999" stroke="#666666" points="1711,-337 1575.75,-337 1575.75,-303.5 1711,-303.5 1711,-337"/>
<text xml:space="preserve" text-anchor="start" x="1583.75" y="-323.5" font-family="Helvetica,sans-Serif" font-size="10.00">Source/TactixCore/Public</text>
<text xml:space="preserve" text-anchor="middle" x="1643.38" y="-310.75" font-family="Helvetica,sans-Serif" font-size="10.00">/Agent/ITactixAgent.h</text>
</a>
</g>
</g>
<!-- Node2 -->
<g id="Node000002" class="node">
<title>Node2</title>
<g id="a_Node000002"><a xlink:href="FTactixAgentContext_8h.html" target="_top" xlink:title="Read&#45;only, side&#45;effect&#45;free snapshot of one agent for a single decision.">
<polygon fill="white" stroke="#666666" points="913.38,-267.5 753.38,-267.5 753.38,-234 913.38,-234 913.38,-267.5"/>
<text xml:space="preserve" text-anchor="start" x="761.38" y="-254" font-family="Helvetica,sans-Serif" font-size="10.00">Source/TactixCore/Public</text>
<text xml:space="preserve" text-anchor="middle" x="833.38" y="-241.25" font-family="Helvetica,sans-Serif" font-size="10.00">/Agent/FTactixAgentContext.h</text>
</a>
</g>
</g>
<!-- Node1&#45;&gt;Node2 -->
<g id="edge1_Node000001_Node000002" class="edge">
<title>Node1&#45;&gt;Node2</title>
<g id="a_edge1_Node000001_Node000002"><a xlink:title=" ">
<path fill="none" stroke="#63b8ff" d="M1564.03,-313.86C1439.29,-305.21 1189.7,-287.19 978.38,-267.5 957.45,-265.55 934.85,-263.21 913.86,-260.93"/>
<polygon fill="#63b8ff" stroke="#63b8ff" points="1563.62,-317.34 1573.84,-314.54 1564.1,-310.36 1563.62,-317.34"/>
</a>
</g>
</g>
<!-- Node5 -->
<g id="Node000005" class="node">
<title>Node5</title>
<g id="a_Node000005"><a xlink:href="UTactixAgentComponent_8h.html" target="_top" xlink:title="The component that makes a pawn a Tactix agent.">
<polygon fill="white" stroke="#666666" points="1020,-198 806.75,-198 806.75,-164.5 1020,-164.5 1020,-198"/>
<text xml:space="preserve" text-anchor="start" x="814.75" y="-184.5" font-family="Helvetica,sans-Serif" font-size="10.00">Source/TactixUE/Public</text>
<text xml:space="preserve" text-anchor="middle" x="913.38" y="-171.75" font-family="Helvetica,sans-Serif" font-size="10.00">/Components/UTactixAgentComponent.h</text>
</a>
</g>
</g>
<!-- Node1&#45;&gt;Node5 -->
<g id="edge35_Node000001_Node000005" class="edge">
<title>Node1&#45;&gt;Node5</title>
<g id="a_edge35_Node000001_Node000005"><a xlink:title=" ">
<path fill="none" stroke="#63b8ff" d="M1564.18,-311.47C1484.89,-303.04 1359.59,-288.01 1252.38,-267.5 1151.64,-248.23 1036.17,-217.25 969.32,-198.42"/>
<polygon fill="#63b8ff" stroke="#63b8ff" points="1563.72,-314.94 1574.03,-312.5 1564.45,-307.97 1563.72,-314.94"/>
</a>
</g>
</g>
<!-- Node16 -->
<g id="Node000016" class="node">
<title>Node16</title>
<g id="a_Node000016"><a xlink:href="FTactixAgentScheduler_8h.html" target="_top" xlink:title="Min&#45;heap tick distributor that spreads agent work across frames under a per&#45;frame CPU budget.">
<polygon fill="white" stroke="#666666" points="1823.88,-267.5 1654.88,-267.5 1654.88,-234 1823.88,-234 1823.88,-267.5"/>
<text xml:space="preserve" text-anchor="start" x="1662.88" y="-254" font-family="Helvetica,sans-Serif" font-size="10.00">Source/TactixCore/Public</text>
<text xml:space="preserve" text-anchor="middle" x="1739.38" y="-241.25" font-family="Helvetica,sans-Serif" font-size="10.00">/Agent/FTactixAgentScheduler.h</text>
</a>
</g>
</g>
<!-- Node1&#45;&gt;Node16 -->
<g id="edge17_Node000001_Node000016" class="edge">
<title>Node1&#45;&gt;Node16</title>
<g id="a_edge17_Node000001_Node000016"><a xlink:title=" ">
<path fill="none" stroke="#63b8ff" d="M1675.5,-296.66C1688.92,-287.23 1704.2,-276.48 1716.45,-267.87"/>
<polygon fill="#63b8ff" stroke="#63b8ff" points="1673.53,-293.77 1667.36,-302.38 1677.56,-299.49 1673.53,-293.77"/>
</a>
</g>
</g>
<!-- Node18 -->
<g id="Node000018" class="node">
<title>Node18</title>
<g id="a_Node000018"><a xlink:href="ITactixPerceptionChannel_8h.html" target="_top" xlink:title="Stimulus record and channel interface for the perception memory.">
<polygon fill="white" stroke="#666666" points="2047.25,-267.5 1841.5,-267.5 1841.5,-234 2047.25,-234 2047.25,-267.5"/>
<text xml:space="preserve" text-anchor="start" x="1849.5" y="-254" font-family="Helvetica,sans-Serif" font-size="10.00">Source/TactixCore/Public</text>
<text xml:space="preserve" text-anchor="middle" x="1944.38" y="-241.25" font-family="Helvetica,sans-Serif" font-size="10.00">/Perception/ITactixPerceptionChannel.h</text>
</a>
</g>
</g>
<!-- Node1&#45;&gt;Node18 -->
<g id="edge19_Node000001_Node000018" class="edge">
<title>Node1&#45;&gt;Node18</title>
<g id="a_edge19_Node000001_Node000018"><a xlink:title=" ">
<path fill="none" stroke="#63b8ff" d="M1722.5,-301.51C1768.82,-291.12 1826.87,-278.1 1871.97,-267.99"/>
<polygon fill="#63b8ff" stroke="#63b8ff" points="1721.77,-298.08 1712.78,-303.69 1723.3,-304.91 1721.77,-298.08"/>
</a>
</g>
</g>
<!-- Node20 -->
<g id="Node000020" class="node">
<title>Node20</title>
<g id="a_Node000020"><a xlink:href="FTactixAgentProfiler_8h.html" target="_top" xlink:title="Per&#45;agent timing recorder for spotting which agents and which phases cost the most.">
<polygon fill="white" stroke="#666666" points="2221.5,-267.5 2065.25,-267.5 2065.25,-234 2221.5,-234 2221.5,-267.5"/>
<text xml:space="preserve" text-anchor="start" x="2073.25" y="-254" font-family="Helvetica,sans-Serif" font-size="10.00">Source/TactixDebug</text>
<text xml:space="preserve" text-anchor="middle" x="2143.38" y="-241.25" font-family="Helvetica,sans-Serif" font-size="10.00">/Public/FTactixAgentProfiler.h</text>
</a>
</g>
</g>
<!-- Node1&#45;&gt;Node20 -->
<g id="edge21_Node000001_Node000020" class="edge">
<title>Node1&#45;&gt;Node20</title>
<g id="a_edge21_Node000001_Node000020"><a xlink:title=" ">
<path fill="none" stroke="#63b8ff" d="M1722.9,-310.59C1806.2,-301.21 1940.74,-285.2 2056.38,-267.5 2059.26,-267.06 2062.19,-266.6 2065.15,-266.12"/>
<polygon fill="#63b8ff" stroke="#63b8ff" points="1722.55,-307.1 1713,-311.7 1723.33,-314.06 1722.55,-307.1"/>
</a>
</g>
</g>
<!-- Node22 -->
<g id="Node000022" class="node">
<title>Node22</title>
<g id="a_Node000022"><a xlink:href="FTactixDecisionRecorder_8h.html" target="_top" xlink:title="Ring buffer of recent AI decisions for replay scrubbing and post&#45;mortems (&quot;why did it do that?...">
<polygon fill="white" stroke="#666666" points="1439.75,-267.5 1261,-267.5 1261,-234 1439.75,-234 1439.75,-267.5"/>
<text xml:space="preserve" text-anchor="start" x="1269" y="-254" font-family="Helvetica,sans-Serif" font-size="10.00">Source/TactixDebug</text>
<text xml:space="preserve" text-anchor="middle" x="1350.38" y="-241.25" font-family="Helvetica,sans-Serif" font-size="10.00">/Public/FTactixDecisionRecorder.h</text>
</a>
</g>
</g>
<!-- Node1&#45;&gt;Node22 -->
<g id="edge23_Node000001_Node000022" class="edge">
<title>Node1&#45;&gt;Node22</title>
<g id="a_edge23_Node000001_Node000022"><a xlink:title=" ">
<path fill="none" stroke="#63b8ff" d="M1564.28,-301.03C1519.52,-290.72 1464.02,-277.93 1420.77,-267.97"/>
<polygon fill="#63b8ff" stroke="#63b8ff" points="1563.41,-304.42 1573.94,-303.25 1564.98,-297.6 1563.41,-304.42"/>
</a>
</g>
</g>
<!-- Node24 -->
<g id="Node000024" class="node">
<title>Node24</title>
<g id="a_Node000024"><a xlink:href="FTactixCoverPoint_8h.html" target="_top" xlink:title="A single piece of cover: where to stand, which way it faces, and who currently owns it.">
<polygon fill="white" stroke="#666666" points="1636.75,-267.5 1458,-267.5 1458,-234 1636.75,-234 1636.75,-267.5"/>
<text xml:space="preserve" text-anchor="start" x="1466" y="-254" font-family="Helvetica,sans-Serif" font-size="10.00">Source/TactixSystems</text>
<text xml:space="preserve" text-anchor="middle" x="1547.38" y="-241.25" font-family="Helvetica,sans-Serif" font-size="10.00">/Public/Cover/FTactixCoverPoint.h</text>
</a>
</g>
</g>
<!-- Node1&#45;&gt;Node24 -->
<g id="edge26_Node000001_Node000024" class="edge">
<title>Node1&#45;&gt;Node24</title>
<g id="a_edge26_Node000001_Node000024"><a xlink:title=" ">
<path fill="none" stroke="#63b8ff" d="M1611.25,-296.66C1597.83,-287.23 1582.55,-276.48 1570.3,-267.87"/>
<polygon fill="#63b8ff" stroke="#63b8ff" points="1609.19,-299.49 1619.39,-302.38 1613.22,-293.77 1609.19,-299.49"/>
</a>
</g>
</g>
<!-- Node30 -->
<g id="Node000030" class="node">
<title>Node30</title>
<g id="a_Node000030"><a xlink:href="FTactixSquad_8h.html" target="_top" xlink:title="Fixed&#45;capacity squad: a roster of agent handles with roles, slots, a leader and a current tactic.">
<polygon fill="white" stroke="#666666" points="2396.88,-267.5 2239.88,-267.5 2239.88,-234 2396.88,-234 2396.88,-267.5"/>
<text xml:space="preserve" text-anchor="start" x="2247.88" y="-254" font-family="Helvetica,sans-Serif" font-size="10.00">Source/TactixSystems</text>
<text xml:space="preserve" text-anchor="middle" x="2318.38" y="-241.25" font-family="Helvetica,sans-Serif" font-size="10.00">/Public/Squad/FTactixSquad.h</text>
</a>
</g>
</g>
<!-- Node1&#45;&gt;Node30 -->
<g id="edge34_Node000001_Node000030" class="edge">
<title>Node1&#45;&gt;Node30</title>
<g id="a_edge34_Node000001_Node000030"><a xlink:title=" ">
<path fill="none" stroke="#63b8ff" d="M1722.67,-314.51C1835.69,-307.25 2049.49,-291.61 2230.38,-267.5 2233.45,-267.09 2236.59,-266.65 2239.75,-266.18"/>
<polygon fill="#63b8ff" stroke="#63b8ff" points="1722.65,-311.01 1712.89,-315.13 1723.1,-317.99 1722.65,-311.01"/>
</a>
</g>
</g>
<!-- Node3 -->
<g id="Node000003" class="node">
<title>Node3</title>
<g id="a_Node000003"><a xlink:href="FTactixVisualDebugger_8h.html" target="_top" xlink:title="Static helpers that draw per&#45;agent debug overlays in the world.">
<polygon fill="white" stroke="#666666" points="677.62,-198 507.12,-198 507.12,-164.5 677.62,-164.5 677.62,-198"/>
<text xml:space="preserve" text-anchor="start" x="515.12" y="-184.5" font-family="Helvetica,sans-Serif" font-size="10.00">Source/TactixDebug</text>
<text xml:space="preserve" text-anchor="middle" x="592.38" y="-171.75" font-family="Helvetica,sans-Serif" font-size="10.00">/Public/FTactixVisualDebugger.h</text>
</a>
</g>
</g>
<!-- Node2&#45;&gt;Node3 -->
<g id="edge2_Node000002_Node000003" class="edge">
<title>Node2&#45;&gt;Node3</title>
<g id="a_edge2_Node000002_Node000003"><a xlink:title=" ">
<path fill="none" stroke="#63b8ff" d="M764.67,-230.51C728.44,-220.36 684.49,-208.05 650.05,-198.4"/>
<polygon fill="#63b8ff" stroke="#63b8ff" points="763.62,-233.85 774.19,-233.17 765.51,-227.11 763.62,-233.85"/>
</a>
</g>
</g>
<!-- Node2&#45;&gt;Node5 -->
<g id="edge4_Node000002_Node000005" class="edge">
<title>Node2&#45;&gt;Node5</title>
<g id="a_edge4_Node000002_Node000005"><a xlink:title=" ">
<path fill="none" stroke="#63b8ff" d="M861.12,-226.34C872.07,-217.1 884.36,-206.73 894.27,-198.37"/>
<polygon fill="#63b8ff" stroke="#63b8ff" points="858.88,-223.65 853.49,-232.78 863.39,-229 858.88,-223.65"/>
</a>
</g>
</g>
<!-- Node14 -->
<g id="Node000014" class="node">
<title>Node14</title>
<g id="a_Node000014"><a xlink:href="UTactixUtilityAsset_8h.html" target="_top" xlink:title="Designer&#45;facing asset: a named set of scored actions for one decision context.">
<polygon fill="white" stroke="#666666" points="377.12,-198 197.62,-198 197.62,-164.5 377.12,-164.5 377.12,-198"/>
<text xml:space="preserve" text-anchor="start" x="205.62" y="-184.5" font-family="Helvetica,sans-Serif" font-size="10.00">Source/TactixUE/Public</text>
<text xml:space="preserve" text-anchor="middle" x="287.38" y="-171.75" font-family="Helvetica,sans-Serif" font-size="10.00">/DataAssets/UTactixUtilityAsset.h</text>
</a>
</g>
</g>
<!-- Node2&#45;&gt;Node14 -->
<g id="edge14_Node000002_Node000014" class="edge">
<title>Node2&#45;&gt;Node14</title>
<g id="a_edge14_Node000002_Node000014"><a xlink:title=" ">
<path fill="none" stroke="#63b8ff" d="M741.97,-238.45C640.65,-225.92 478.26,-205.85 377.47,-193.39"/>
<polygon fill="#63b8ff" stroke="#63b8ff" points="741.25,-241.89 751.6,-239.64 742.11,-234.94 741.25,-241.89"/>
</a>
</g>
</g>
<!-- Node4 -->
<g id="Node000004" class="node">
<title>Node4</title>
<g id="a_Node000004"><a xlink:href="FTactixVisualDebugger_8cpp.html" target="_top" xlink:title="Implements the agent debug overlays with debug&#45;draw primitives.">
<polygon fill="white" stroke="#666666" points="570.88,-122.12 383.88,-122.12 383.88,-88.62 570.88,-88.62 570.88,-122.12"/>
<text xml:space="preserve" text-anchor="start" x="391.88" y="-108.62" font-family="Helvetica,sans-Serif" font-size="10.00">Source/TactixDebug</text>
<text xml:space="preserve" text-anchor="middle" x="477.38" y="-95.88" font-family="Helvetica,sans-Serif" font-size="10.00">/Private/FTactixVisualDebugger.cpp</text>
</a>
</g>
</g>
<!-- Node3&#45;&gt;Node4 -->
<g id="edge3_Node000003_Node000004" class="edge">
<title>Node3&#45;&gt;Node4</title>
<g id="a_edge3_Node000003_Node000004"><a xlink:title=" ">
<path fill="none" stroke="#63b8ff" d="M557.69,-157.97C539.93,-146.56 518.72,-132.93 502.55,-122.55"/>
<polygon fill="#63b8ff" stroke="#63b8ff" points="555.56,-160.76 565.86,-163.22 559.34,-154.87 555.56,-160.76"/>
</a>
</g>
</g>
<!-- Node5&#45;&gt;Node4 -->
<g id="edge6_Node000005_Node000004" class="edge">
<title>Node5&#45;&gt;Node4</title>
<g id="a_edge6_Node000005_Node000004"><a xlink:title=" ">
<path fill="none" stroke="#63b8ff" d="M795.35,-162.96C732.83,-153.46 654.81,-141.08 585.38,-128.5 575.3,-126.67 564.72,-124.65 554.28,-122.58"/>
<polygon fill="#63b8ff" stroke="#63b8ff" points="794.53,-166.37 804.94,-164.41 795.58,-159.45 794.53,-166.37"/>
</a>
</g>
</g>
<!-- Node6 -->
<g id="Node000006" class="node">
<title>Node6</title>
<g id="a_Node000006"><a xlink:href="FTactixGameplayDebuggerCategory_8cpp.html" target="_top" xlink:title="Implements the Gameplay Debugger category: collect agent state, then render it as text lines.">
<polygon fill="white" stroke="#666666" points="1669.25,-128.5 1481.5,-128.5 1481.5,-82.25 1669.25,-82.25 1669.25,-128.5"/>
<text xml:space="preserve" text-anchor="start" x="1489.5" y="-115" font-family="Helvetica,sans-Serif" font-size="10.00">Source/TactixDebug</text>
<text xml:space="preserve" text-anchor="start" x="1489.5" y="-102.25" font-family="Helvetica,sans-Serif" font-size="10.00">/Private/FTactixGameplayDebugger</text>
<text xml:space="preserve" text-anchor="middle" x="1575.38" y="-89.5" font-family="Helvetica,sans-Serif" font-size="10.00">Category.cpp</text>
</a>
</g>
</g>
<!-- Node5&#45;&gt;Node6 -->
<g id="edge5_Node000005_Node000006" class="edge">
<title>Node5&#45;&gt;Node6</title>
<g id="a_edge5_Node000005_Node000006"><a xlink:title=" ">
<path fill="none" stroke="#63b8ff" d="M1031.62,-172.95C1144.09,-165.12 1317.84,-150.73 1467.38,-128.5 1471.92,-127.82 1476.56,-127.08 1481.24,-126.29"/>
<polygon fill="#63b8ff" stroke="#63b8ff" points="1031.5,-169.45 1021.76,-173.63 1031.98,-176.43 1031.5,-169.45"/>
</a>
</g>
</g>
<!-- Node7 -->
<g id="Node000007" class="node">
<title>Node7</title>
<g id="a_Node000007"><a xlink:href="UTactixBTDecorator__InCover_8cpp.html" target="_top" xlink:title="Implements the in&#45;cover decorator condition.">
<polygon fill="white" stroke="#666666" points="1425.62,-128.5 1243.12,-128.5 1243.12,-82.25 1425.62,-82.25 1425.62,-128.5"/>
<text xml:space="preserve" text-anchor="start" x="1251.12" y="-115" font-family="Helvetica,sans-Serif" font-size="10.00">Source/TactixUE/Private</text>
<text xml:space="preserve" text-anchor="start" x="1251.12" y="-102.25" font-family="Helvetica,sans-Serif" font-size="10.00">/BehaviorTree/UTactixBTDecorator</text>
<text xml:space="preserve" text-anchor="middle" x="1334.38" y="-89.5" font-family="Helvetica,sans-Serif" font-size="10.00">_InCover.cpp</text>
</a>
</g>
</g>
<!-- Node5&#45;&gt;Node7 -->
<g id="edge7_Node000005_Node000007" class="edge">
<title>Node5&#45;&gt;Node7</title>
<g id="a_edge7_Node000005_Node000007"><a xlink:title=" ">
<path fill="none" stroke="#63b8ff" d="M1031.46,-162.89C1092.23,-153.53 1167.43,-141.29 1234.38,-128.5 1237.17,-127.97 1240.01,-127.41 1242.87,-126.84"/>
<polygon fill="#63b8ff" stroke="#63b8ff" points="1031.13,-159.4 1021.78,-164.37 1032.19,-166.32 1031.13,-159.4"/>
</a>
</g>
</g>
<!-- Node8 -->
<g id="Node000008" class="node">
<title>Node8</title>
<g id="a_Node000008"><a xlink:href="UTactixBTService__InfluenceQuery_8cpp.html" target="_top" xlink:title="Implements the influence&#45;sampling BT service.">
<polygon fill="white" stroke="#666666" points="1538.62,-46.25 1368.12,-46.25 1368.12,0 1538.62,0 1538.62,-46.25"/>
<text xml:space="preserve" text-anchor="start" x="1376.12" y="-32.75" font-family="Helvetica,sans-Serif" font-size="10.00">Source/TactixUE/Private</text>
<text xml:space="preserve" text-anchor="start" x="1376.12" y="-20" font-family="Helvetica,sans-Serif" font-size="10.00">/BehaviorTree/UTactixBTService</text>
<text xml:space="preserve" text-anchor="middle" x="1453.38" y="-7.25" font-family="Helvetica,sans-Serif" font-size="10.00">_InfluenceQuery.cpp</text>
</a>
</g>
</g>
<!-- Node5&#45;&gt;Node8 -->
<g id="edge8_Node000005_Node000008" class="edge">
<title>Node5&#45;&gt;Node8</title>
<g id="a_edge8_Node000005_Node000008"><a xlink:title=" ">
<path fill="none" stroke="#63b8ff" d="M1031.67,-172.09C1180.82,-161.28 1419.73,-142 1434.38,-128.5 1456.72,-107.9 1458.15,-70.49 1456.35,-46.51"/>
<polygon fill="#63b8ff" stroke="#63b8ff" points="1031.43,-168.6 1021.71,-172.81 1031.93,-175.58 1031.43,-168.6"/>
</a>
</g>
</g>
<!-- Node9 -->
<g id="Node000009" class="node">
<title>Node9</title>
<g id="a_Node000009"><a xlink:href="UTactixBTTask__ClaimCover_8cpp.html" target="_top" xlink:title="Implements the cover query/claim BT task: build the query from agent and blackboard state,...">
<polygon fill="white" stroke="#666666" points="1014.5,-46.25 858.25,-46.25 858.25,0 1014.5,0 1014.5,-46.25"/>
<text xml:space="preserve" text-anchor="start" x="866.25" y="-32.75" font-family="Helvetica,sans-Serif" font-size="10.00">Source/TactixUE/Private</text>
<text xml:space="preserve" text-anchor="start" x="866.25" y="-20" font-family="Helvetica,sans-Serif" font-size="10.00">/BehaviorTree/UTactixBTTask</text>
<text xml:space="preserve" text-anchor="middle" x="936.38" y="-7.25" font-family="Helvetica,sans-Serif" font-size="10.00">_ClaimCover.cpp</text>
</a>
</g>
</g>
<!-- Node5&#45;&gt;Node9 -->
<g id="edge9_Node000005_Node000009" class="edge">
<title>Node5&#45;&gt;Node9</title>
<g id="a_edge9_Node000005_Node000009"><a xlink:title=" ">
<path fill="none" stroke="#63b8ff" d="M795.14,-177.12C690.85,-170.05 563.36,-148.24 618.38,-82.25 648.3,-46.36 773.81,-32.57 857.92,-27.31"/>
<polygon fill="#63b8ff" stroke="#63b8ff" points="794.72,-180.6 804.92,-177.73 795.16,-173.61 794.72,-180.6"/>
</a>
</g>
</g>
<!-- Node10 -->
<g id="Node000010" class="node">
<title>Node10</title>
<g id="a_Node000010"><a xlink:href="UTactixBTTask__ExecutePlan_8cpp.html" target="_top" xlink:title="Implements step&#45;by&#45;step plan execution for the BT task.">
<polygon fill="white" stroke="#666666" points="783.5,-128.5 627.25,-128.5 627.25,-82.25 783.5,-82.25 783.5,-128.5"/>
<text xml:space="preserve" text-anchor="start" x="635.25" y="-115" font-family="Helvetica,sans-Serif" font-size="10.00">Source/TactixUE/Private</text>
<text xml:space="preserve" text-anchor="start" x="635.25" y="-102.25" font-family="Helvetica,sans-Serif" font-size="10.00">/BehaviorTree/UTactixBTTask</text>
<text xml:space="preserve" text-anchor="middle" x="705.38" y="-89.5" font-family="Helvetica,sans-Serif" font-size="10.00">_ExecutePlan.cpp</text>
</a>
</g>
</g>
<!-- Node5&#45;&gt;Node10 -->
<g id="edge10_Node000005_Node000010" class="edge">
<title>Node5&#45;&gt;Node10</title>
<g id="a_edge10_Node000005_Node000010"><a xlink:title=" ">
<path fill="none" stroke="#63b8ff" d="M857.21,-160.3C830,-150.64 797.2,-138.99 769.06,-128.99"/>
<polygon fill="#63b8ff" stroke="#63b8ff" points="855.71,-163.48 866.3,-163.53 858.05,-156.89 855.71,-163.48"/>
</a>
</g>
</g>
<!-- Node11 -->
<g id="Node000011" class="node">
<title>Node11</title>
<g id="a_Node000011"><a xlink:href="UTactixBTTask__RunUtility_8cpp.html" target="_top" xlink:title="Implements the utility&#45;selection BT task: snapshot the agent, pick the best action,...">
<polygon fill="white" stroke="#666666" points="365.5,-128.5 209.25,-128.5 209.25,-82.25 365.5,-82.25 365.5,-128.5"/>
<text xml:space="preserve" text-anchor="start" x="217.25" y="-115" font-family="Helvetica,sans-Serif" font-size="10.00">Source/TactixUE/Private</text>
<text xml:space="preserve" text-anchor="start" x="217.25" y="-102.25" font-family="Helvetica,sans-Serif" font-size="10.00">/BehaviorTree/UTactixBTTask</text>
<text xml:space="preserve" text-anchor="middle" x="287.38" y="-89.5" font-family="Helvetica,sans-Serif" font-size="10.00">_RunUtility.cpp</text>
</a>
</g>
</g>
<!-- Node5&#45;&gt;Node11 -->
<g id="edge11_Node000005_Node000011" class="edge">
<title>Node5&#45;&gt;Node11</title>
<g id="a_edge11_Node000005_Node000011"><a xlink:title=" ">
<path fill="none" stroke="#63b8ff" d="M795.18,-171.03C661.56,-160.24 452.46,-142.1 374.38,-128.5 371.61,-128.02 368.81,-127.5 365.98,-126.94"/>
<polygon fill="#63b8ff" stroke="#63b8ff" points="794.51,-174.49 804.76,-171.8 795.07,-167.51 794.51,-174.49"/>
</a>
</g>
</g>
<!-- Node12 -->
<g id="Node000012" class="node">
<title>Node12</title>
<g id="a_Node000012"><a xlink:href="UTactixAgentComponent_8cpp.html" target="_top" xlink:title="Implements the pawn&#45;to&#45;agent adapter: snapshotting UE state into a Tactix::FTactixAgentContext.">
<polygon fill="white" stroke="#666666" points="1025.62,-122.12 801.12,-122.12 801.12,-88.62 1025.62,-88.62 1025.62,-122.12"/>
<text xml:space="preserve" text-anchor="start" x="809.12" y="-108.62" font-family="Helvetica,sans-Serif" font-size="10.00">Source/TactixUE/Private</text>
<text xml:space="preserve" text-anchor="middle" x="913.38" y="-95.88" font-family="Helvetica,sans-Serif" font-size="10.00">/Components/UTactixAgentComponent.cpp</text>
</a>
</g>
</g>
<!-- Node5&#45;&gt;Node12 -->
<g id="edge12_Node000005_Node000012" class="edge">
<title>Node5&#45;&gt;Node12</title>
<g id="a_edge12_Node000005_Node000012"><a xlink:title=" ">
<path fill="none" stroke="#63b8ff" d="M913.38,-152.86C913.38,-142.6 913.38,-131.27 913.38,-122.37"/>
<polygon fill="#63b8ff" stroke="#63b8ff" points="909.88,-152.71 913.38,-162.71 916.88,-152.71 909.88,-152.71"/>
</a>
</g>
</g>
<!-- Node13 -->
<g id="Node000013" class="node">
<title>Node13</title>
<g id="a_Node000013"><a xlink:href="ATactixAIController_8cpp.html" target="_top" xlink:title="Implements the Tactix AIController: scratch arena ownership, handle assignment on possess,...">
<polygon fill="white" stroke="#666666" points="1225.25,-122.12 1043.5,-122.12 1043.5,-88.62 1225.25,-88.62 1225.25,-122.12"/>
<text xml:space="preserve" text-anchor="start" x="1051.5" y="-108.62" font-family="Helvetica,sans-Serif" font-size="10.00">Source/TactixUE/Private</text>
<text xml:space="preserve" text-anchor="middle" x="1134.38" y="-95.88" font-family="Helvetica,sans-Serif" font-size="10.00">/Controller/ATactixAIController.cpp</text>
</a>
</g>
</g>
<!-- Node5&#45;&gt;Node13 -->
<g id="edge13_Node000005_Node000013" class="edge">
<title>Node5&#45;&gt;Node13</title>
<g id="a_edge13_Node000005_Node000013"><a xlink:title=" ">
<path fill="none" stroke="#63b8ff" d="M972.57,-160.46C1008.06,-148.6 1052.62,-133.7 1085.99,-122.55"/>
<polygon fill="#63b8ff" stroke="#63b8ff" points="971.68,-157.07 963.31,-163.56 973.9,-163.71 971.68,-157.07"/>
</a>
</g>
</g>
<!-- Node14&#45;&gt;Node11 -->
<g id="edge15_Node000014_Node000011" class="edge">
<title>Node14&#45;&gt;Node11</title>
<g id="a_edge15_Node000014_Node000011"><a xlink:title=" ">
<path fill="none" stroke="#63b8ff" d="M287.38,-152.89C287.38,-144.96 287.38,-136.41 287.38,-128.82"/>
<polygon fill="#63b8ff" stroke="#63b8ff" points="283.88,-152.71 287.38,-162.71 290.88,-152.71 283.88,-152.71"/>
</a>
</g>
</g>
<!-- Node15 -->
<g id="Node000015" class="node">
<title>Node15</title>
<g id="a_Node000015"><a xlink:href="UTactixUtilityAsset_8cpp.html" target="_top" xlink:title="Implements utility scoring: input extraction, curve building, and the Lewis&#45;compensated action score.">
<polygon fill="white" stroke="#666666" points="190.75,-122.12 0,-122.12 0,-88.62 190.75,-88.62 190.75,-122.12"/>
<text xml:space="preserve" text-anchor="start" x="8" y="-108.62" font-family="Helvetica,sans-Serif" font-size="10.00">Source/TactixUE/Private</text>
<text xml:space="preserve" text-anchor="middle" x="95.38" y="-95.88" font-family="Helvetica,sans-Serif" font-size="10.00">/DataAssets/UTactixUtilityAsset.cpp</text>
</a>
</g>
</g>
<!-- Node14&#45;&gt;Node15 -->
<g id="edge16_Node000014_Node000015" class="edge">
<title>Node14&#45;&gt;Node15</title>
<g id="a_edge16_Node000014_Node000015"><a xlink:title=" ">
<path fill="none" stroke="#63b8ff" d="M234.74,-160C204.11,-148.21 166.03,-133.56 137.41,-122.55"/>
<polygon fill="#63b8ff" stroke="#63b8ff" points="233.24,-163.17 243.83,-163.49 235.75,-156.64 233.24,-163.17"/>
</a>
</g>
</g>
<!-- Node17 -->
<g id="Node000017" class="node">
<title>Node17</title>
<g id="a_Node000017"><a xlink:href="FTactixAgentScheduler_8cpp.html" target="_top" xlink:title="Implements the min&#45;heap scheduler. Contracts live in the header; this file documents the few spots wh...">
<polygon fill="white" stroke="#666666" points="1835.5,-198 1655.25,-198 1655.25,-164.5 1835.5,-164.5 1835.5,-198"/>
<text xml:space="preserve" text-anchor="start" x="1663.25" y="-184.5" font-family="Helvetica,sans-Serif" font-size="10.00">Source/TactixCore/Private</text>
<text xml:space="preserve" text-anchor="middle" x="1745.38" y="-171.75" font-family="Helvetica,sans-Serif" font-size="10.00">/Agent/FTactixAgentScheduler.cpp</text>
</a>
</g>
</g>
<!-- Node16&#45;&gt;Node17 -->
<g id="edge18_Node000016_Node000017" class="edge">
<title>Node16&#45;&gt;Node17</title>
<g id="a_edge18_Node000016_Node000017"><a xlink:title=" ">
<path fill="none" stroke="#63b8ff" d="M1741.81,-222.31C1742.54,-214.09 1743.32,-205.34 1743.96,-198.13"/>
<polygon fill="#63b8ff" stroke="#63b8ff" points="1738.33,-221.98 1740.93,-232.25 1745.3,-222.6 1738.33,-221.98"/>
</a>
</g>
</g>
<!-- Node19 -->
<g id="Node000019" class="node">
<title>Node19</title>
<g id="a_Node000019"><a xlink:href="FTactixPerceptionMemory_8h.html" target="_top" xlink:title="Per&#45;agent ring buffer of timestamped stimuli with on&#45;demand decay.">
<polygon fill="white" stroke="#666666" points="2061,-198 1853.75,-198 1853.75,-164.5 2061,-164.5 2061,-198"/>
<text xml:space="preserve" text-anchor="start" x="1861.75" y="-184.5" font-family="Helvetica,sans-Serif" font-size="10.00">Source/TactixCore/Public</text>
<text xml:space="preserve" text-anchor="middle" x="1957.38" y="-171.75" font-family="Helvetica,sans-Serif" font-size="10.00">/Perception/FTactixPerceptionMemory.h</text>
</a>
</g>
</g>
<!-- Node18&#45;&gt;Node19 -->
<g id="edge20_Node000018_Node000019" class="edge">
<title>Node18&#45;&gt;Node19</title>
<g id="a_edge20_Node000018_Node000019"><a xlink:title=" ">
<path fill="none" stroke="#63b8ff" d="M1949.6,-222.6C1951.2,-214.29 1952.91,-205.43 1954.32,-198.13"/>
<polygon fill="#63b8ff" stroke="#63b8ff" points="1946.2,-221.79 1947.74,-232.27 1953.07,-223.11 1946.2,-221.79"/>
</a>
</g>
</g>
<!-- Node21 -->
<g id="Node000021" class="node">
<title>Node21</title>
<g id="a_Node000021"><a xlink:href="FTactixAgentProfiler_8cpp.html" target="_top" xlink:title="Implements the timing profiler: cycle&#45;counter sampling, ring storage, and the aggregate queries.">
<polygon fill="white" stroke="#666666" points="2251.75,-198 2079,-198 2079,-164.5 2251.75,-164.5 2251.75,-198"/>
<text xml:space="preserve" text-anchor="start" x="2087" y="-184.5" font-family="Helvetica,sans-Serif" font-size="10.00">Source/TactixDebug</text>
<text xml:space="preserve" text-anchor="middle" x="2165.38" y="-171.75" font-family="Helvetica,sans-Serif" font-size="10.00">/Private/FTactixAgentProfiler.cpp</text>
</a>
</g>
</g>
<!-- Node20&#45;&gt;Node21 -->
<g id="edge22_Node000020_Node000021" class="edge">
<title>Node20&#45;&gt;Node21</title>
<g id="a_edge22_Node000020_Node000021"><a xlink:title=" ">
<path fill="none" stroke="#63b8ff" d="M2152.13,-222.89C2154.87,-214.5 2157.79,-205.51 2160.2,-198.13"/>
<polygon fill="#63b8ff" stroke="#63b8ff" points="2148.83,-221.72 2149.06,-232.31 2155.48,-223.89 2148.83,-221.72"/>
</a>
</g>
</g>
<!-- Node22&#45;&gt;Node6 -->
<g id="edge25_Node000022_Node000006" class="edge">
<title>Node22&#45;&gt;Node6</title>
<g id="a_edge25_Node000022_Node000006"><a xlink:title=" ">
<path fill="none" stroke="#63b8ff" d="M1373.09,-225.55C1393.91,-203.73 1423.54,-173.7 1437.38,-164.5 1458.91,-150.17 1484.56,-138.2 1507.86,-128.92"/>
<polygon fill="#63b8ff" stroke="#63b8ff" points="1370.71,-222.97 1366.36,-232.64 1375.78,-227.79 1370.71,-222.97"/>
</a>
</g>
</g>
<!-- Node23 -->
<g id="Node000023" class="node">
<title>Node23</title>
<g id="a_Node000023"><a xlink:href="FTactixDecisionRecorder_8cpp.html" target="_top" xlink:title="Implements the decision ring buffer: recording, history/all queries, and the log dump.">
<polygon fill="white" stroke="#666666" points="1390,-198 1194.75,-198 1194.75,-164.5 1390,-164.5 1390,-198"/>
<text xml:space="preserve" text-anchor="start" x="1202.75" y="-184.5" font-family="Helvetica,sans-Serif" font-size="10.00">Source/TactixDebug</text>
<text xml:space="preserve" text-anchor="middle" x="1292.38" y="-171.75" font-family="Helvetica,sans-Serif" font-size="10.00">/Private/FTactixDecisionRecorder.cpp</text>
</a>
</g>
</g>
<!-- Node22&#45;&gt;Node23 -->
<g id="edge24_Node000022_Node000023" class="edge">
<title>Node22&#45;&gt;Node23</title>
<g id="a_edge24_Node000022_Node000023"><a xlink:title=" ">
<path fill="none" stroke="#63b8ff" d="M1329.24,-225.16C1321.5,-216.14 1312.94,-206.18 1306.02,-198.13"/>
<polygon fill="#63b8ff" stroke="#63b8ff" points="1326.47,-227.3 1335.64,-232.61 1331.78,-222.74 1326.47,-227.3"/>
</a>
</g>
</g>
<!-- Node25 -->
<g id="Node000025" class="node">
<title>Node25</title>
<g id="a_Node000025"><a xlink:href="FTactixCoverSystem_8h.html" target="_top" xlink:title="Registry of cover points with claim/release ownership and a &quot;best cover &#160;&#160;&#160;&#160;&#160;&#160;for this situation&quot; que...">
<polygon fill="white" stroke="#666666" points="1636.75,-198 1446,-198 1446,-164.5 1636.75,-164.5 1636.75,-198"/>
<text xml:space="preserve" text-anchor="start" x="1454" y="-184.5" font-family="Helvetica,sans-Serif" font-size="10.00">Source/TactixSystems</text>
<text xml:space="preserve" text-anchor="middle" x="1541.38" y="-171.75" font-family="Helvetica,sans-Serif" font-size="10.00">/Public/Cover/FTactixCoverSystem.h</text>
</a>
</g>
</g>
<!-- Node24&#45;&gt;Node25 -->
<g id="edge27_Node000024_Node000025" class="edge">
<title>Node24&#45;&gt;Node25</title>
<g id="a_edge27_Node000024_Node000025"><a xlink:title=" ">
<path fill="none" stroke="#63b8ff" d="M1544.94,-222.31C1544.21,-214.09 1543.43,-205.34 1542.79,-198.13"/>
<polygon fill="#63b8ff" stroke="#63b8ff" points="1541.45,-222.6 1545.82,-232.25 1548.42,-221.98 1541.45,-222.6"/>
</a>
</g>
</g>
<!-- Node26 -->
<g id="Node000026" class="node">
<title>Node26</title>
<g id="a_Node000026"><a xlink:href="UTactixWorldSubsystem_8h.html" target="_top" xlink:title="Per&#45;world owner of the cover system and influence map shared by every agent in the level.">
<polygon fill="white" stroke="#666666" points="1889.75,-122.12 1687,-122.12 1687,-88.62 1889.75,-88.62 1889.75,-122.12"/>
<text xml:space="preserve" text-anchor="start" x="1695" y="-108.62" font-family="Helvetica,sans-Serif" font-size="10.00">Source/TactixUE/Public</text>
<text xml:space="preserve" text-anchor="middle" x="1788.38" y="-95.88" font-family="Helvetica,sans-Serif" font-size="10.00">/Subsystem/UTactixWorldSubsystem.h</text>
</a>
</g>
</g>
<!-- Node25&#45;&gt;Node26 -->
<g id="edge28_Node000025_Node000026" class="edge">
<title>Node25&#45;&gt;Node26</title>
<g id="a_edge28_Node000025_Node000026"><a xlink:title=" ">
<path fill="none" stroke="#63b8ff" d="M1606.52,-160.77C1646.34,-148.86 1696.68,-133.8 1734.3,-122.55"/>
<polygon fill="#63b8ff" stroke="#63b8ff" points="1605.61,-157.39 1597.03,-163.6 1607.61,-164.09 1605.61,-157.39"/>
</a>
</g>
</g>
<!-- Node26&#45;&gt;Node8 -->
<g id="edge29_Node000026_Node000008" class="edge">
<title>Node26&#45;&gt;Node8</title>
<g id="a_edge29_Node000026_Node000008"><a xlink:title=" ">
<path fill="none" stroke="#63b8ff" d="M1709.56,-85.5C1658.32,-73.22 1591.5,-57.21 1538.95,-44.63"/>
<polygon fill="#63b8ff" stroke="#63b8ff" points="1708.57,-88.86 1719.11,-87.78 1710.2,-82.05 1708.57,-88.86"/>
</a>
</g>
</g>
<!-- Node26&#45;&gt;Node9 -->
<g id="edge30_Node000026_Node000009" class="edge">
<title>Node26&#45;&gt;Node9</title>
<g id="a_edge30_Node000026_Node000009"><a xlink:title=" ">
<path fill="none" stroke="#63b8ff" d="M1702.82,-86.13C1694.58,-84.68 1686.33,-83.36 1678.38,-82.25 1437.93,-48.78 1150.77,-33.13 1014.96,-27.17"/>
<polygon fill="#63b8ff" stroke="#63b8ff" points="1702.07,-89.55 1712.54,-87.89 1703.32,-82.66 1702.07,-89.55"/>
</a>
</g>
</g>
<!-- Node27 -->
<g id="Node000027" class="node">
<title>Node27</title>
<g id="a_Node000027"><a xlink:href="UTactixEQSGenerator__Cover_8cpp.html" target="_top" xlink:title="Implements the cover EQS generator: emit each registered cover point as a point item.">
<polygon fill="white" stroke="#666666" points="1702.25,-46.25 1556.5,-46.25 1556.5,0 1702.25,0 1702.25,-46.25"/>
<text xml:space="preserve" text-anchor="start" x="1564.5" y="-32.75" font-family="Helvetica,sans-Serif" font-size="10.00">Source/TactixUE/Private</text>
<text xml:space="preserve" text-anchor="start" x="1564.5" y="-20" font-family="Helvetica,sans-Serif" font-size="10.00">/EQS/UTactixEQSGenerator</text>
<text xml:space="preserve" text-anchor="middle" x="1629.38" y="-7.25" font-family="Helvetica,sans-Serif" font-size="10.00">_Cover.cpp</text>
</a>
</g>
</g>
<!-- Node26&#45;&gt;Node27 -->
<g id="edge31_Node000026_Node000027" class="edge">
<title>Node26&#45;&gt;Node27</title>
<g id="a_edge31_Node000026_Node000027"><a xlink:title=" ">
<path fill="none" stroke="#63b8ff" d="M1746.07,-83.02C1723.88,-71.82 1696.7,-58.1 1674.15,-46.73"/>
<polygon fill="#63b8ff" stroke="#63b8ff" points="1744.34,-86.07 1754.85,-87.45 1747.5,-79.82 1744.34,-86.07"/>
</a>
</g>
</g>
<!-- Node28 -->
<g id="Node000028" class="node">
<title>Node28</title>
<g id="a_Node000028"><a xlink:href="UTactixEQSTest__Influence_8cpp.html" target="_top" xlink:title="Implements the influence EQS test: sample the map per item and score it.">
<polygon fill="white" stroke="#666666" points="1906.5,-39.88 1720.25,-39.88 1720.25,-6.38 1906.5,-6.38 1906.5,-39.88"/>
<text xml:space="preserve" text-anchor="start" x="1728.25" y="-26.38" font-family="Helvetica,sans-Serif" font-size="10.00">Source/TactixUE/Private</text>
<text xml:space="preserve" text-anchor="middle" x="1813.38" y="-13.62" font-family="Helvetica,sans-Serif" font-size="10.00">/EQS/UTactixEQSTest_Influence.cpp</text>
</a>
</g>
</g>
<!-- Node26&#45;&gt;Node28 -->
<g id="edge32_Node000026_Node000028" class="edge">
<title>Node26&#45;&gt;Node28</title>
<g id="a_edge32_Node000026_Node000028"><a xlink:title=" ">
<path fill="none" stroke="#63b8ff" d="M1796.75,-77.51C1800.58,-65.19 1805,-51 1808.32,-40.34"/>
<polygon fill="#63b8ff" stroke="#63b8ff" points="1793.52,-76.1 1793.88,-86.69 1800.2,-78.18 1793.52,-76.1"/>
</a>
</g>
</g>
<!-- Node29 -->
<g id="Node000029" class="node">
<title>Node29</title>
<g id="a_Node000029"><a xlink:href="UTactixWorldSubsystem_8cpp.html" target="_top" xlink:title="Implements the world subsystem: the soft cover&#45;reservation layer.">
<polygon fill="white" stroke="#666666" points="2138.38,-39.88 1924.38,-39.88 1924.38,-6.38 2138.38,-6.38 2138.38,-39.88"/>
<text xml:space="preserve" text-anchor="start" x="1932.38" y="-26.38" font-family="Helvetica,sans-Serif" font-size="10.00">Source/TactixUE/Private</text>
<text xml:space="preserve" text-anchor="middle" x="2031.38" y="-13.62" font-family="Helvetica,sans-Serif" font-size="10.00">/Subsystem/UTactixWorldSubsystem.cpp</text>
</a>
</g>
</g>
<!-- Node26&#45;&gt;Node29 -->
<g id="edge33_Node000026_Node000029" class="edge">
<title>Node26&#45;&gt;Node29</title>
<g id="a_edge33_Node000026_Node000029"><a xlink:title=" ">
<path fill="none" stroke="#63b8ff" d="M1848.27,-84.59C1889.5,-70.98 1943.59,-53.12 1982.27,-40.34"/>
<polygon fill="#63b8ff" stroke="#63b8ff" points="1847.38,-81.2 1838.99,-87.66 1849.58,-87.85 1847.38,-81.2"/>
</a>
</g>
</g>
</g>
</svg>
