<?xml version="1.0" encoding="UTF-8" standalone="no"?>
<!DOCTYPE svg PUBLIC "-//W3C//DTD SVG 1.1//EN"
 "http://www.w3.org/Graphics/SVG/1.1/DTD/svg11.dtd">
<!-- Generated by graphviz version 14.1.5 (0)
 -->
<!-- Title: Tactix::FTactixCoverSystem&lt; Capacity &gt;::FQuery Pages: 1 -->
<svg width="252pt" height="147pt"
 viewBox="0.00 0.00 252.00 147.00" xmlns="http://www.w3.org/2000/svg" xmlns:xlink="http://www.w3.org/1999/xlink">
<g id="graph0" class="graph" transform="scale(1 1) rotate(0) translate(4 142.5)">
<title>Tactix::FTactixCoverSystem&lt; Capacity &gt;::FQuery</title>
<!-- Node1 -->
<g id="Node000001" class="node">
<title>Node1</title>
<g id="a_Node000001"><a xlink:title="Parameters describing what kind of cover an agent is looking for.">
<polygon fill="#999999" stroke="#666666" points="193.5,-33.5 44,-33.5 44,0 193.5,0 193.5,-33.5"/>
<text xml:space="preserve" text-anchor="start" x="52" y="-20" font-family="Helvetica,sans-Serif" font-size="10.00">Tactix::FTactixCoverSystem</text>
<text xml:space="preserve" text-anchor="middle" x="118.75" y="-7.25" font-family="Helvetica,sans-Serif" font-size="10.00">&lt; Capacity &gt;::FQuery</text>
</a>
</g>
</g>
<!-- Node2 -->
<g id="Node000002" class="node">
<title>Node2</title>
<g id="a_Node000002"><a xlink:href="structTactix_1_1FTactixVec3.html" target="_top" xlink:title="Three&#45;component float vector. Plain data, constexpr&#45;friendly.">
<polygon fill="white" stroke="#666666" points="107.5,-132.12 0,-132.12 0,-111.38 107.5,-111.38 107.5,-132.12"/>
<text xml:space="preserve" text-anchor="middle" x="53.75" y="-118.62" font-family="Helvetica,sans-Serif" font-size="10.00">Tactix::FTactixVec3</text>
</a>
</g>
</g>
<!-- Node2&#45;&gt;Node1 -->
<g id="edge1_Node000001_Node000002" class="edge">
<title>Node2&#45;&gt;Node1</title>
<g id="a_edge1_Node000001_Node000002"><a xlink:title=" ">
<path fill="none" stroke="#9a32cd" stroke-dasharray="5,2" d="M61.15,-100.61C66.9,-86.26 75.66,-66.89 86.25,-51.5 90.49,-45.33 95.88,-39.24 101.05,-33.97"/>
<polygon fill="#9a32cd" stroke="#9a32cd" points="57.92,-99.27 57.6,-109.86 64.45,-101.78 57.92,-99.27"/>
</a>
</g>
<text xml:space="preserve" text-anchor="start" x="89.25" y="-74.25" font-family="Helvetica,sans-Serif" font-size="10.00" fill="grey">FromPosition</text>
<text xml:space="preserve" text-anchor="start" x="89.25" y="-57.5" font-family="Helvetica,sans-Serif" font-size="10.00" fill="grey">ThreatPosition</text>
</g>
<!-- Node3 -->
<g id="Node000003" class="node">
<title>Node3</title>
<g id="a_Node000003"><a xlink:href="structTactix_1_1FTactixHandle.html" target="_top" xlink:title=" ">
<polygon fill="white" stroke="#666666" points="244.12,-138.5 125.38,-138.5 125.38,-105 244.12,-105 244.12,-138.5"/>
<text xml:space="preserve" text-anchor="start" x="133.38" y="-125" font-family="Helvetica,sans-Serif" font-size="10.00">Tactix::FTactixHandle</text>
<text xml:space="preserve" text-anchor="middle" x="184.75" y="-112.25" font-family="Helvetica,sans-Serif" font-size="10.00">&lt; ITactixAgent &gt;</text>
</a>
</g>
</g>
<!-- Node3&#45;&gt;Node1 -->
<g id="edge2_Node000001_Node000003" class="edge">
<title>Node3&#45;&gt;Node1</title>
<g id="a_edge2_Node000001_Node000003"><a xlink:title=" ">
<path fill="none" stroke="#9a32cd" stroke-dasharray="5,2" d="M180.14,-93.59C176.88,-80.06 171.49,-63.96 162.75,-51.5 157.99,-44.72 151.47,-38.69 144.9,-33.67"/>
<polygon fill="#9a32cd" stroke="#9a32cd" points="176.67,-94.14 182.16,-103.2 183.52,-92.69 176.67,-94.14"/>
</a>
</g>
<text xml:space="preserve" text-anchor="start" x="181" y="-65.88" font-family="Helvetica,sans-Serif" font-size="10.00" fill="grey">Querier</text>
</g>
</g>
</svg>
