<?xml version="1.0" encoding="UTF-8" standalone="no"?>
<!DOCTYPE svg PUBLIC "-//W3C//DTD SVG 1.1//EN"
 "http://www.w3.org/Graphics/SVG/1.1/DTD/svg11.dtd">
<!-- Generated by graphviz version 14.1.5 (0)
 -->
<!-- Title: Tactix::FTactixStimulus Pages: 1 -->
<svg width="266pt" height="117pt"
 viewBox="0.00 0.00 266.00 117.00" xmlns="http://www.w3.org/2000/svg" xmlns:xlink="http://www.w3.org/1999/xlink">
<g id="graph0" class="graph" transform="scale(1 1) rotate(0) translate(4 113)">
<title>Tactix::FTactixStimulus</title>
<!-- Node1 -->
<g id="Node000001" class="node">
<title>Node1</title>
<g id="a_Node000001"><a xlink:title="A single timestamped sensory event.">
<polygon fill="#999999" stroke="#666666" points="186.25,-20.75 59.25,-20.75 59.25,0 186.25,0 186.25,-20.75"/>
<text xml:space="preserve" text-anchor="middle" x="122.75" y="-7.25" font-family="Helvetica,sans-Serif" font-size="10.00">Tactix::FTactixStimulus</text>
</a>
</g>
</g>
<!-- Node2 -->
<g id="Node000002" class="node">
<title>Node2</title>
<g id="a_Node000002"><a xlink:href="structTactix_1_1FTactixVec3.html" target="_top" xlink:title="Three&#45;component float vector. Plain data, constexpr&#45;friendly.">
<polygon fill="white" stroke="#666666" points="107.5,-102.62 0,-102.62 0,-81.88 107.5,-81.88 107.5,-102.62"/>
<text xml:space="preserve" text-anchor="middle" x="53.75" y="-89.12" font-family="Helvetica,sans-Serif" font-size="10.00">Tactix::FTactixVec3</text>
</a>
</g>
</g>
<!-- Node2&#45;&gt;Node1 -->
<g id="edge1_Node000001_Node000002" class="edge">
<title>Node2&#45;&gt;Node1</title>
<g id="a_edge1_Node000001_Node000002"><a xlink:title=" ">
<path fill="none" stroke="#9a32cd" stroke-dasharray="5,2" d="M69.61,-72.89C83.49,-56.83 103.11,-34.11 114.22,-21.25"/>
<polygon fill="#9a32cd" stroke="#9a32cd" points="67.09,-70.45 63.2,-80.31 72.39,-75.03 67.09,-70.45"/>
</a>
</g>
<text xml:space="preserve" text-anchor="start" x="101.46" y="-44.75" font-family="Helvetica,sans-Serif" font-size="10.00" fill="grey">Origin</text>
</g>
<!-- Node3 -->
<g id="Node000003" class="node">
<title>Node3</title>
<g id="a_Node000003"><a xlink:href="structTactix_1_1FTactixHandle.html" target="_top" xlink:title=" ">
<polygon fill="white" stroke="#666666" points="258.25,-109 125.25,-109 125.25,-75.5 258.25,-75.5 258.25,-109"/>
<text xml:space="preserve" text-anchor="start" x="133.25" y="-95.5" font-family="Helvetica,sans-Serif" font-size="10.00">Tactix::FTactixHandle</text>
<text xml:space="preserve" text-anchor="middle" x="191.75" y="-82.75" font-family="Helvetica,sans-Serif" font-size="10.00">&lt; Tactix::ITactixAgent &gt;</text>
</a>
</g>
</g>
<!-- Node3&#45;&gt;Node1 -->
<g id="edge2_Node000001_Node000003" class="edge">
<title>Node3&#45;&gt;Node1</title>
<g id="a_edge2_Node000001_Node000003"><a xlink:title=" ">
<path fill="none" stroke="#9a32cd" stroke-dasharray="5,2" d="M170.39,-66.52C157.09,-51.13 140.74,-32.2 131.06,-20.99"/>
<polygon fill="#9a32cd" stroke="#9a32cd" points="167.61,-68.66 176.8,-73.94 172.91,-64.09 167.61,-68.66"/>
</a>
</g>
<text xml:space="preserve" text-anchor="start" x="164.38" y="-44.75" font-family="Helvetica,sans-Serif" font-size="10.00" fill="grey">Source</text>
</g>
</g>
</svg>
