<?xml version="1.0" encoding="UTF-8" standalone="no"?>
<!DOCTYPE svg PUBLIC "-//W3C//DTD SVG 1.1//EN"
 "http://www.w3.org/Graphics/SVG/1.1/DTD/svg11.dtd">
<!-- Generated by graphviz version 14.1.5 (0)
 -->
<!-- Title: Tactix::FTactixHTNPlan Pages: 1 -->
<svg width="155pt" height="162pt"
 viewBox="0.00 0.00 155.00 162.00" xmlns="http://www.w3.org/2000/svg" xmlns:xlink="http://www.w3.org/1999/xlink">
<g id="graph0" class="graph" transform="scale(1 1) rotate(0) translate(4 158)">
<title>Tactix::FTactixHTNPlan</title>
<!-- Node1 -->
<g id="Node000001" class="node">
<title>Node1</title>
<g id="a_Node000001"><a xlink:title="A fully decomposed HTN plan: a flat, ordered list of primitives.">
<polygon fill="#999999" stroke="#666666" points="136.75,-20.75 10.5,-20.75 10.5,0 136.75,0 136.75,-20.75"/>
<text xml:space="preserve" text-anchor="middle" x="73.62" y="-7.25" font-family="Helvetica,sans-Serif" font-size="10.00">Tactix::FTactixHTNPlan</text>
</a>
</g>
</g>
<!-- Node2 -->
<g id="Node000002" class="node">
<title>Node2</title>
<g id="a_Node000002"><a xlink:href="classTactix_1_1ITactixHTNPrimitive.html" target="_top" xlink:title="A leaf task: directly executable, with planner&#45;visible effects.">
<polygon fill="white" stroke="#666666" points="147.25,-96.25 0,-96.25 0,-75.5 147.25,-75.5 147.25,-96.25"/>
<text xml:space="preserve" text-anchor="middle" x="73.62" y="-82.75" font-family="Helvetica,sans-Serif" font-size="10.00">Tactix::ITactixHTNPrimitive</text>
</a>
</g>
</g>
<!-- Node2&#45;&gt;Node1 -->
<g id="edge1_Node000001_Node000002" class="edge">
<title>Node2&#45;&gt;Node1</title>
<g id="a_edge1_Node000001_Node000002"><a xlink:title=" ">
<path fill="none" stroke="#9a32cd" stroke-dasharray="5,2" d="M73.62,-63.76C73.62,-49.76 73.62,-32.05 73.62,-21.22"/>
<polygon fill="#9a32cd" stroke="#9a32cd" points="70.13,-63.75 73.63,-73.75 77.13,-63.75 70.13,-63.75"/>
</a>
</g>
<text xml:space="preserve" text-anchor="start" x="76.62" y="-44.75" font-family="Helvetica,sans-Serif" font-size="10.00" fill="grey">Steps</text>
</g>
<!-- Node3 -->
<g id="Node000003" class="node">
<title>Node3</title>
<g id="a_Node000003"><a xlink:href="classTactix_1_1ITactixHTNTask.html" target="_top" xlink:title="Base for every HTN task; only distinguishes primitive from compound.">
<polygon fill="white" stroke="#666666" points="136,-154 11.25,-154 11.25,-133.25 136,-133.25 136,-154"/>
<text xml:space="preserve" text-anchor="middle" x="73.62" y="-140.5" font-family="Helvetica,sans-Serif" font-size="10.00">Tactix::ITactixHTNTask</text>
</a>
</g>
</g>
<!-- Node3&#45;&gt;Node2 -->
<g id="edge2_Node000002_Node000003" class="edge">
<title>Node3&#45;&gt;Node2</title>
<g id="a_edge2_Node000002_Node000003"><a xlink:title=" ">
<path fill="none" stroke="#63b8ff" d="M73.62,-121.68C73.62,-113.02 73.62,-103.4 73.62,-96.47"/>
<polygon fill="#63b8ff" stroke="#63b8ff" points="70.13,-121.4 73.63,-131.4 77.13,-121.4 70.13,-121.4"/>
</a>
</g>
</g>
</g>
</svg>
