<?xml version="1.0" encoding="UTF-8" standalone="no"?>
<!DOCTYPE svg PUBLIC "-//W3C//DTD SVG 1.1//EN"
 "http://www.w3.org/Graphics/SVG/1.1/DTD/svg11.dtd">
<!-- Generated by graphviz version 14.1.5 (0)
 -->
<!-- Title: Tactix::FTactixConsideration Pages: 1 -->
<svg width="652pt" height="194pt"
 viewBox="0.00 0.00 652.00 194.00" xmlns="http://www.w3.org/2000/svg" xmlns:xlink="http://www.w3.org/1999/xlink">
<g id="graph0" class="graph" transform="scale(1 1) rotate(0) translate(4 189.88)">
<title>Tactix::FTactixConsideration</title>
<!-- Node1 -->
<g id="Node000001" class="node">
<title>Node1</title>
<g id="a_Node000001"><a xlink:title="Concrete consideration = input selector + response curve.">
<polygon fill="#999999" stroke="#666666" points="643.5,-64.75 491.75,-64.75 491.75,-44 643.5,-44 643.5,-64.75"/>
<text xml:space="preserve" text-anchor="middle" x="567.62" y="-51.25" font-family="Helvetica,sans-Serif" font-size="10.00">Tactix::FTactixConsideration</text>
</a>
</g>
</g>
<!-- Node2 -->
<g id="Node000002" class="node">
<title>Node2</title>
<g id="a_Node000002"><a xlink:href="classTactix_1_1ITactixConsideration.html" target="_top" xlink:title="One scoring factor evaluated against an agent&#39;s current state.">
<polygon fill="white" stroke="#666666" points="420.5,-101.75 271,-101.75 271,-81 420.5,-81 420.5,-101.75"/>
<text xml:space="preserve" text-anchor="middle" x="345.75" y="-88.25" font-family="Helvetica,sans-Serif" font-size="10.00">Tactix::ITactixConsideration</text>
</a>
</g>
</g>
<!-- Node2&#45;&gt;Node1 -->
<g id="edge1_Node000001_Node000002" class="edge">
<title>Node2&#45;&gt;Node1</title>
<g id="a_edge1_Node000001_Node000002"><a xlink:title=" ">
<path fill="none" stroke="#63b8ff" d="M431.97,-82.68C445.97,-80.86 460.29,-78.76 473.75,-76.38 490.88,-73.34 509.59,-69.1 525.69,-65.14"/>
<polygon fill="#63b8ff" stroke="#63b8ff" points="431.82,-79.17 422.33,-83.89 432.69,-86.12 431.82,-79.17"/>
</a>
</g>
</g>
<!-- Node3 -->
<g id="Node000003" class="node">
<title>Node3</title>
<g id="a_Node000003"><a xlink:href="structTactix_1_1FTactixAgentContext.html" target="_top" xlink:title="Everything an evaluator needs to know about an agent this frame.">
<polygon fill="white" stroke="#666666" points="421.25,-62.75 270.25,-62.75 270.25,-42 421.25,-42 421.25,-62.75"/>
<text xml:space="preserve" text-anchor="middle" x="345.75" y="-49.25" font-family="Helvetica,sans-Serif" font-size="10.00">Tactix::FTactixAgentContext</text>
</a>
</g>
</g>
<!-- Node3&#45;&gt;Node1 -->
<g id="edge2_Node000001_Node000003" class="edge">
<title>Node3&#45;&gt;Node1</title>
<g id="a_edge2_Node000001_Node000003"><a xlink:title=" ">
<path fill="none" stroke="#9a32cd" stroke-dasharray="5,2" d="M432.75,-53.16C452.09,-53.33 472.47,-53.52 491.34,-53.69"/>
<polygon fill="#9a32cd" stroke="#9a32cd" points="433.04,-49.66 423.01,-53.07 432.98,-56.66 433.04,-49.66"/>
</a>
</g>
<text xml:space="preserve" text-anchor="start" x="444.12" y="-59.49" font-family="Helvetica,sans-Serif" font-size="10.00" fill="grey">Input</text>
</g>
<!-- Node4 -->
<g id="Node000004" class="node">
<title>Node4</title>
<g id="a_Node000004"><a xlink:href="structTactix_1_1FTactixHandle.html" target="_top" xlink:title=" ">
<polygon fill="white" stroke="#666666" points="144.25,-161.12 11.25,-161.12 11.25,-127.62 144.25,-127.62 144.25,-161.12"/>
<text xml:space="preserve" text-anchor="start" x="19.25" y="-147.62" font-family="Helvetica,sans-Serif" font-size="10.00">Tactix::FTactixHandle</text>
<text xml:space="preserve" text-anchor="middle" x="77.75" y="-134.88" font-family="Helvetica,sans-Serif" font-size="10.00">&lt; Tactix::ITactixAgent &gt;</text>
</a>
</g>
</g>
<!-- Node4&#45;&gt;Node3 -->
<g id="edge3_Node000003_Node000004" class="edge">
<title>Node4&#45;&gt;Node3</title>
<g id="a_edge3_Node000003_Node000004"><a xlink:title=" ">
<path fill="none" stroke="#9a32cd" stroke-dasharray="5,2" d="M155.87,-151.53C188.73,-150.6 225.55,-143.78 252.25,-122.38 270.68,-107.6 252.87,-88.37 270.25,-72.38 274.29,-68.66 278.95,-65.62 283.92,-63.13"/>
<polygon fill="#9a32cd" stroke="#9a32cd" points="155.92,-148.03 145.95,-151.61 155.98,-155.03 155.92,-148.03"/>
</a>
</g>
<text xml:space="preserve" text-anchor="start" x="178" y="-173.13" font-family="Helvetica,sans-Serif" font-size="10.00" fill="grey">AgentHandle</text>
<text xml:space="preserve" text-anchor="start" x="178" y="-156.38" font-family="Helvetica,sans-Serif" font-size="10.00" fill="grey">PrimaryThreat</text>
</g>
<!-- Node5 -->
<g id="Node000005" class="node">
<title>Node5</title>
<g id="a_Node000005"><a xlink:href="structTactix_1_1FTactixVec3.html" target="_top" xlink:title="Three&#45;component float vector. Plain data, constexpr&#45;friendly.">
<polygon fill="white" stroke="#666666" points="131.5,-62.75 24,-62.75 24,-42 131.5,-42 131.5,-62.75"/>
<text xml:space="preserve" text-anchor="middle" x="77.75" y="-49.25" font-family="Helvetica,sans-Serif" font-size="10.00">Tactix::FTactixVec3</text>
</a>
</g>
</g>
<!-- Node5&#45;&gt;Node3 -->
<g id="edge4_Node000003_Node000005" class="edge">
<title>Node5&#45;&gt;Node3</title>
<g id="a_edge4_Node000003_Node000005"><a xlink:title=" ">
<path fill="none" stroke="#9a32cd" stroke-dasharray="5,2" d="M143.44,-52.38C181.64,-52.38 230.16,-52.38 269.99,-52.38"/>
<polygon fill="#9a32cd" stroke="#9a32cd" points="143.45,-48.88 133.45,-52.38 143.45,-55.88 143.45,-48.88"/>
</a>
</g>
<text xml:space="preserve" text-anchor="start" x="176.5" y="-108.62" font-family="Helvetica,sans-Serif" font-size="10.00" fill="grey">Forward</text>
<text xml:space="preserve" text-anchor="start" x="176.5" y="-91.88" font-family="Helvetica,sans-Serif" font-size="10.00" fill="grey">Position</text>
<text xml:space="preserve" text-anchor="start" x="176.5" y="-75.12" font-family="Helvetica,sans-Serif" font-size="10.00" fill="grey">ThreatLocation</text>
<text xml:space="preserve" text-anchor="start" x="176.5" y="-58.38" font-family="Helvetica,sans-Serif" font-size="10.00" fill="grey">Velocity</text>
</g>
<!-- Node6 -->
<g id="Node000006" class="node">
<title>Node6</title>
<g id="a_Node000006"><a xlink:href="classTactix_1_1FTactixBlackboardRef.html" target="_top" xlink:title="Capacity&#45;independent interface to a blackboard.">
<polygon fill="white" stroke="#666666" points="155.5,-20.75 0,-20.75 0,0 155.5,0 155.5,-20.75"/>
<text xml:space="preserve" text-anchor="middle" x="77.75" y="-7.25" font-family="Helvetica,sans-Serif" font-size="10.00">Tactix::FTactixBlackboardRef</text>
</a>
</g>
</g>
<!-- Node6&#45;&gt;Node3 -->
<g id="edge5_Node000003_Node000006" class="edge">
<title>Node6&#45;&gt;Node3</title>
<g id="a_edge5_Node000003_Node000006"><a xlink:title=" ">
<path fill="none" stroke="#9a32cd" stroke-dasharray="5,2" d="M167.08,-17.92C194.48,-20.87 224.71,-24.73 252.25,-29.62 270,-32.78 289.4,-37.37 305.83,-41.6"/>
<polygon fill="#9a32cd" stroke="#9a32cd" points="167.74,-14.47 157.43,-16.91 167.02,-21.43 167.74,-14.47"/>
</a>
</g>
<text xml:space="preserve" text-anchor="start" x="185.5" y="-35.62" font-family="Helvetica,sans-Serif" font-size="10.00" fill="grey">Blackboard</text>
</g>
<!-- Node7 -->
<g id="Node000007" class="node">
<title>Node7</title>
<g id="a_Node000007"><a xlink:href="structTactix_1_1FTactixCurve.html" target="_top" xlink:title="A plain&#45;data response curve: a shape plus its tuning parameters.">
<polygon fill="white" stroke="#666666" points="402.12,-22.75 289.38,-22.75 289.38,-2 402.12,-2 402.12,-22.75"/>
<text xml:space="preserve" text-anchor="middle" x="345.75" y="-9.25" font-family="Helvetica,sans-Serif" font-size="10.00">Tactix::FTactixCurve</text>
</a>
</g>
</g>
<!-- Node7&#45;&gt;Node1 -->
<g id="edge6_Node000001_Node000007" class="edge">
<title>Node7&#45;&gt;Node1</title>
<g id="a_edge6_Node000001_Node000007"><a xlink:title=" ">
<path fill="none" stroke="#9a32cd" stroke-dasharray="5,2" d="M413.81,-20.64C433.22,-23.4 454.39,-26.77 473.75,-30.62 491.87,-34.23 511.74,-39.18 528.43,-43.62"/>
<polygon fill="#9a32cd" stroke="#9a32cd" points="414.49,-17.2 404.11,-19.29 413.53,-24.13 414.49,-17.2"/>
</a>
</g>
<text xml:space="preserve" text-anchor="start" x="442.25" y="-36.62" font-family="Helvetica,sans-Serif" font-size="10.00" fill="grey">Curve</text>
</g>
</g>
</svg>
