<?xml version="1.0" encoding="UTF-8" standalone="no"?>
<!DOCTYPE svg PUBLIC "-//W3C//DTD SVG 1.1//EN"
 "http://www.w3.org/Graphics/SVG/1.1/DTD/svg11.dtd">
<!-- Generated by graphviz version 14.1.5 (0)
 -->
<!-- Title: Tactix::FTactixAgentContext Pages: 1 -->
<svg width="429pt" height="185pt"
 viewBox="0.00 0.00 429.00 185.00" xmlns="http://www.w3.org/2000/svg" xmlns:xlink="http://www.w3.org/1999/xlink">
<g id="graph0" class="graph" transform="scale(1 1) rotate(0) translate(4 180.81)">
<title>Tactix::FTactixAgentContext</title>
<!-- Node1 -->
<g id="Node000001" class="node">
<title>Node1</title>
<g id="a_Node000001"><a xlink:title="Everything an evaluator needs to know about an agent this frame.">
<polygon fill="#999999" stroke="#666666" points="421.25,-62.75 270.25,-62.75 270.25,-42 421.25,-42 421.25,-62.75"/>
<text xml:space="preserve" text-anchor="middle" x="345.75" y="-49.25" font-family="Helvetica,sans-Serif" font-size="10.00">Tactix::FTactixAgentContext</text>
</a>
</g>
</g>
<!-- Node2 -->
<g id="Node000002" class="node">
<title>Node2</title>
<g id="a_Node000002"><a xlink:href="structTactix_1_1FTactixHandle.html" target="_top" xlink:title=" ">
<polygon fill="white" stroke="#666666" points="144.25,-161.12 11.25,-161.12 11.25,-127.62 144.25,-127.62 144.25,-161.12"/>
<text xml:space="preserve" text-anchor="start" x="19.25" y="-147.62" font-family="Helvetica,sans-Serif" font-size="10.00">Tactix::FTactixHandle</text>
<text xml:space="preserve" text-anchor="middle" x="77.75" y="-134.88" font-family="Helvetica,sans-Serif" font-size="10.00">&lt; Tactix::ITactixAgent &gt;</text>
</a>
</g>
</g>
<!-- Node2&#45;&gt;Node1 -->
<g id="edge1_Node000001_Node000002" class="edge">
<title>Node2&#45;&gt;Node1</title>
<g id="a_edge1_Node000001_Node000002"><a xlink:title=" ">
<path fill="none" stroke="#9a32cd" stroke-dasharray="5,2" d="M155.8,-143.18C186.71,-140.53 222.07,-134.67 252.25,-122.38 286.19,-108.54 318.63,-79 334.54,-63.07"/>
<polygon fill="#9a32cd" stroke="#9a32cd" points="155.86,-139.66 146.15,-143.9 156.38,-146.64 155.86,-139.66"/>
</a>
</g>
<text xml:space="preserve" text-anchor="start" x="178" y="-164.06" font-family="Helvetica,sans-Serif" font-size="10.00" fill="grey">AgentHandle</text>
<text xml:space="preserve" text-anchor="start" x="178" y="-147.31" font-family="Helvetica,sans-Serif" font-size="10.00" fill="grey">PrimaryThreat</text>
</g>
<!-- Node3 -->
<g id="Node000003" class="node">
<title>Node3</title>
<g id="a_Node000003"><a xlink:href="structTactix_1_1FTactixVec3.html" target="_top" xlink:title="Three&#45;component float vector. Plain data, constexpr&#45;friendly.">
<polygon fill="white" stroke="#666666" points="131.5,-62.75 24,-62.75 24,-42 131.5,-42 131.5,-62.75"/>
<text xml:space="preserve" text-anchor="middle" x="77.75" y="-49.25" font-family="Helvetica,sans-Serif" font-size="10.00">Tactix::FTactixVec3</text>
</a>
</g>
</g>
<!-- Node3&#45;&gt;Node1 -->
<g id="edge2_Node000001_Node000003" class="edge">
<title>Node3&#45;&gt;Node1</title>
<g id="a_edge2_Node000001_Node000003"><a xlink:title=" ">
<path fill="none" stroke="#9a32cd" stroke-dasharray="5,2" d="M143.44,-52.38C181.64,-52.38 230.16,-52.38 269.99,-52.38"/>
<polygon fill="#9a32cd" stroke="#9a32cd" points="143.45,-48.88 133.45,-52.38 143.45,-55.88 143.45,-48.88"/>
</a>
</g>
<text xml:space="preserve" text-anchor="start" x="176.5" y="-108.62" font-family="Helvetica,sans-Serif" font-size="10.00" fill="grey">Forward</text>
<text xml:space="preserve" text-anchor="start" x="176.5" y="-91.88" font-family="Helvetica,sans-Serif" font-size="10.00" fill="grey">Position</text>
<text xml:space="preserve" text-anchor="start" x="176.5" y="-75.12" font-family="Helvetica,sans-Serif" font-size="10.00" fill="grey">ThreatLocation</text>
<text xml:space="preserve" text-anchor="start" x="176.5" y="-58.38" font-family="Helvetica,sans-Serif" font-size="10.00" fill="grey">Velocity</text>
</g>
<!-- Node4 -->
<g id="Node000004" class="node">
<title>Node4</title>
<g id="a_Node000004"><a xlink:href="classTactix_1_1FTactixBlackboardRef.html" target="_top" xlink:title="Capacity&#45;independent interface to a blackboard.">
<polygon fill="white" stroke="#666666" points="155.5,-20.75 0,-20.75 0,0 155.5,0 155.5,-20.75"/>
<text xml:space="preserve" text-anchor="middle" x="77.75" y="-7.25" font-family="Helvetica,sans-Serif" font-size="10.00">Tactix::FTactixBlackboardRef</text>
</a>
</g>
</g>
<!-- Node4&#45;&gt;Node1 -->
<g id="edge3_Node000001_Node000004" class="edge">
<title>Node4&#45;&gt;Node1</title>
<g id="a_edge3_Node000001_Node000004"><a xlink:title=" ">
<path fill="none" stroke="#9a32cd" stroke-dasharray="5,2" d="M167.08,-17.92C194.48,-20.87 224.71,-24.73 252.25,-29.62 270,-32.78 289.4,-37.37 305.83,-41.6"/>
<polygon fill="#9a32cd" stroke="#9a32cd" points="167.74,-14.47 157.43,-16.91 167.02,-21.43 167.74,-14.47"/>
</a>
</g>
<text xml:space="preserve" text-anchor="start" x="185.5" y="-35.62" font-family="Helvetica,sans-Serif" font-size="10.00" fill="grey">Blackboard</text>
</g>
</g>
</svg>
