<?xml version="1.0" encoding="UTF-8" standalone="no"?>
<!DOCTYPE svg PUBLIC "-//W3C//DTD SVG 1.1//EN"
 "http://www.w3.org/Graphics/SVG/1.1/DTD/svg11.dtd">
<!-- Generated by graphviz version 14.1.5 (0)
 -->
<!-- Title: Source/TactixCore/Public/Foundation/TactixHandle.h Pages: 1 -->
<svg width="2282pt" height="415pt"
 viewBox="0.00 0.00 2282.00 415.00" xmlns="http://www.w3.org/2000/svg" xmlns:xlink="http://www.w3.org/1999/xlink">
<g id="graph0" class="graph" transform="scale(1 1) rotate(0) translate(4 410.5)">
<title>Source/TactixCore/Public/Foundation/TactixHandle.h</title>
<!-- Node1 -->
<g id="Node000001" class="node">
<title>Node1</title>
<g id="a_Node000001"><a xlink:title="Type&#45;safe generational handle: the only sanctioned way to reference a pooled object across frames.">
<polygon fill="#999999" stroke="#666666" points="1395.38,-406.5 1247.38,-406.5 1247.38,-373 1395.38,-373 1395.38,-406.5"/>
<text xml:space="preserve" text-anchor="start" x="1255.38" y="-393" font-family="Helvetica,sans-Serif" font-size="10.00">Source/TactixCore/Public</text>
<text xml:space="preserve" text-anchor="middle" x="1321.38" y="-380.25" font-family="Helvetica,sans-Serif" font-size="10.00">/Foundation/TactixHandle.h</text>
</a>
</g>
</g>
<!-- Node2 -->
<g id="Node000002" class="node">
<title>Node2</title>
<g id="a_Node000002"><a xlink:href="FTactixAgentContext_8h.html" target="_top" xlink:title="Read&#45;only, side&#45;effect&#45;free snapshot of one agent for a single decision.">
<polygon fill="white" stroke="#666666" points="613.38,-267.5 453.38,-267.5 453.38,-234 613.38,-234 613.38,-267.5"/>
<text xml:space="preserve" text-anchor="start" x="461.38" y="-254" font-family="Helvetica,sans-Serif" font-size="10.00">Source/TactixCore/Public</text>
<text xml:space="preserve" text-anchor="middle" x="533.38" y="-241.25" font-family="Helvetica,sans-Serif" font-size="10.00">/Agent/FTactixAgentContext.h</text>
</a>
</g>
</g>
<!-- Node1&#45;&gt;Node2 -->
<g id="edge1_Node000001_Node000002" class="edge">
<title>Node1&#45;&gt;Node2</title>
<g id="a_edge1_Node000001_Node000002"><a xlink:title=" ">
<path fill="none" stroke="#63b8ff" d="M1235.62,-381.81C1146.6,-373.88 1003.56,-359.06 881.38,-337 777.62,-318.26 658.7,-286.97 590.18,-267.95"/>
<polygon fill="#63b8ff" stroke="#63b8ff" points="1235.23,-385.29 1245.5,-382.68 1235.84,-378.32 1235.23,-385.29"/>
</a>
</g>
</g>
<!-- Node16 -->
<g id="Node000016" class="node">
<title>Node16</title>
<g id="a_Node000016"><a xlink:href="FTactixAgentScheduler_8h.html" target="_top" xlink:title="Min&#45;heap tick distributor that spreads agent work across frames under a per&#45;frame CPU budget.">
<polygon fill="white" stroke="#666666" points="800.88,-267.5 631.88,-267.5 631.88,-234 800.88,-234 800.88,-267.5"/>
<text xml:space="preserve" text-anchor="start" x="639.88" y="-254" font-family="Helvetica,sans-Serif" font-size="10.00">Source/TactixCore/Public</text>
<text xml:space="preserve" text-anchor="middle" x="716.38" y="-241.25" font-family="Helvetica,sans-Serif" font-size="10.00">/Agent/FTactixAgentScheduler.h</text>
</a>
</g>
</g>
<!-- Node1&#45;&gt;Node16 -->
<g id="edge17_Node000001_Node000016" class="edge">
<title>Node1&#45;&gt;Node16</title>
<g id="a_edge17_Node000001_Node000016"><a xlink:title=" ">
<path fill="none" stroke="#63b8ff" d="M1235.9,-377.69C1172,-368.71 1082.7,-354.66 1005.38,-337 919.44,-317.37 821.43,-286.65 764.47,-267.94"/>
<polygon fill="#63b8ff" stroke="#63b8ff" points="1235.24,-381.13 1245.62,-379.04 1236.2,-374.2 1235.24,-381.13"/>
</a>
</g>
</g>
<!-- Node18 -->
<g id="Node000018" class="node">
<title>Node18</title>
<g id="a_Node000018"><a xlink:href="ITactixAgent_8h.html" target="_top" xlink:title="The engine&#45;agnostic contract a &quot;thinking&quot; entity implements to take part in Tactix systems.">
<polygon fill="white" stroke="#666666" points="1226,-337 1090.75,-337 1090.75,-303.5 1226,-303.5 1226,-337"/>
<text xml:space="preserve" text-anchor="start" x="1098.75" y="-323.5" font-family="Helvetica,sans-Serif" font-size="10.00">Source/TactixCore/Public</text>
<text xml:space="preserve" text-anchor="middle" x="1158.38" y="-310.75" font-family="Helvetica,sans-Serif" font-size="10.00">/Agent/ITactixAgent.h</text>
</a>
</g>
</g>
<!-- Node1&#45;&gt;Node18 -->
<g id="edge19_Node000001_Node000018" class="edge">
<title>Node1&#45;&gt;Node18</title>
<g id="a_edge19_Node000001_Node000018"><a xlink:title=" ">
<path fill="none" stroke="#63b8ff" d="M1271.71,-368.18C1247.85,-358.3 1219.67,-346.63 1197.38,-337.4"/>
<polygon fill="#63b8ff" stroke="#63b8ff" points="1270.36,-371.41 1280.93,-372 1273.03,-364.94 1270.36,-371.41"/>
</a>
</g>
</g>
<!-- Node19 -->
<g id="Node000019" class="node">
<title>Node19</title>
<g id="a_Node000019"><a xlink:href="ITactixPerceptionChannel_8h.html" target="_top" xlink:title="Stimulus record and channel interface for the perception memory.">
<polygon fill="white" stroke="#666666" points="1024.25,-267.5 818.5,-267.5 818.5,-234 1024.25,-234 1024.25,-267.5"/>
<text xml:space="preserve" text-anchor="start" x="826.5" y="-254" font-family="Helvetica,sans-Serif" font-size="10.00">Source/TactixCore/Public</text>
<text xml:space="preserve" text-anchor="middle" x="921.38" y="-241.25" font-family="Helvetica,sans-Serif" font-size="10.00">/Perception/ITactixPerceptionChannel.h</text>
</a>
</g>
</g>
<!-- Node1&#45;&gt;Node19 -->
<g id="edge41_Node000001_Node000019" class="edge">
<title>Node1&#45;&gt;Node19</title>
<g id="a_edge41_Node000001_Node000019"><a xlink:title=" ">
<path fill="none" stroke="#63b8ff" d="M1235.63,-376.21C1189.1,-367.93 1131.11,-355.21 1081.38,-337 1031.13,-318.6 977.06,-287.05 946.4,-267.92"/>
<polygon fill="#63b8ff" stroke="#63b8ff" points="1234.94,-379.64 1245.4,-377.9 1236.14,-372.74 1234.94,-379.64"/>
</a>
</g>
</g>
<!-- Node21 -->
<g id="Node000021" class="node">
<title>Node21</title>
<g id="a_Node000021"><a xlink:href="FTactixAgentProfiler_8h.html" target="_top" xlink:title="Per&#45;agent timing recorder for spotting which agents and which phases cost the most.">
<polygon fill="white" stroke="#666666" points="1236.5,-267.5 1080.25,-267.5 1080.25,-234 1236.5,-234 1236.5,-267.5"/>
<text xml:space="preserve" text-anchor="start" x="1088.25" y="-254" font-family="Helvetica,sans-Serif" font-size="10.00">Source/TactixDebug</text>
<text xml:space="preserve" text-anchor="middle" x="1158.38" y="-241.25" font-family="Helvetica,sans-Serif" font-size="10.00">/Public/FTactixAgentProfiler.h</text>
</a>
</g>
</g>
<!-- Node1&#45;&gt;Node21 -->
<g id="edge42_Node000001_Node000021" class="edge">
<title>Node1&#45;&gt;Node21</title>
<g id="a_edge42_Node000001_Node000021"><a xlink:title=" ">
<path fill="none" stroke="#63b8ff" d="M1299.37,-364.59C1282.62,-346.8 1258.57,-322.51 1235.38,-303.5 1219.43,-290.43 1200.18,-277.5 1184.91,-267.83"/>
<polygon fill="#63b8ff" stroke="#63b8ff" points="1296.56,-366.71 1305.94,-371.64 1301.68,-361.94 1296.56,-366.71"/>
</a>
</g>
</g>
<!-- Node23 -->
<g id="Node000023" class="node">
<title>Node23</title>
<g id="a_Node000023"><a xlink:href="FTactixDecisionRecorder_8h.html" target="_top" xlink:title="Ring buffer of recent AI decisions for replay scrubbing and post&#45;mortems (&quot;why did it do that?...">
<polygon fill="white" stroke="#666666" points="1433.75,-267.5 1255,-267.5 1255,-234 1433.75,-234 1433.75,-267.5"/>
<text xml:space="preserve" text-anchor="start" x="1263" y="-254" font-family="Helvetica,sans-Serif" font-size="10.00">Source/TactixDebug</text>
<text xml:space="preserve" text-anchor="middle" x="1344.38" y="-241.25" font-family="Helvetica,sans-Serif" font-size="10.00">/Public/FTactixDecisionRecorder.h</text>
</a>
</g>
</g>
<!-- Node1&#45;&gt;Node23 -->
<g id="edge43_Node000001_Node000023" class="edge">
<title>Node1&#45;&gt;Node23</title>
<g id="a_edge43_Node000001_Node000023"><a xlink:title=" ">
<path fill="none" stroke="#63b8ff" d="M1325.91,-361.75C1330.62,-333.67 1337.84,-290.67 1341.71,-267.63"/>
<polygon fill="#63b8ff" stroke="#63b8ff" points="1322.51,-360.83 1324.31,-371.27 1329.42,-361.99 1322.51,-360.83"/>
</a>
</g>
</g>
<!-- Node25 -->
<g id="Node000025" class="node">
<title>Node25</title>
<g id="a_Node000025"><a xlink:href="FTactixCoverPoint_8h.html" target="_top" xlink:title="A single piece of cover: where to stand, which way it faces, and who currently owns it.">
<polygon fill="white" stroke="#666666" points="1805.75,-267.5 1627,-267.5 1627,-234 1805.75,-234 1805.75,-267.5"/>
<text xml:space="preserve" text-anchor="start" x="1635" y="-254" font-family="Helvetica,sans-Serif" font-size="10.00">Source/TactixSystems</text>
<text xml:space="preserve" text-anchor="middle" x="1716.38" y="-241.25" font-family="Helvetica,sans-Serif" font-size="10.00">/Public/Cover/FTactixCoverPoint.h</text>
</a>
</g>
</g>
<!-- Node1&#45;&gt;Node25 -->
<g id="edge44_Node000001_Node000025" class="edge">
<title>Node1&#45;&gt;Node25</title>
<g id="a_edge44_Node000001_Node000025"><a xlink:title=" ">
<path fill="none" stroke="#63b8ff" d="M1378.52,-368.93C1457.13,-341.66 1597.14,-293.11 1669.77,-267.91"/>
<polygon fill="#63b8ff" stroke="#63b8ff" points="1377.58,-365.55 1369.28,-372.14 1379.87,-372.17 1377.58,-365.55"/>
</a>
</g>
</g>
<!-- Node26 -->
<g id="Node000026" class="node">
<title>Node26</title>
<g id="a_Node000026"><a xlink:href="FTactixCoverSystem_8h.html" target="_top" xlink:title="Registry of cover points with claim/release ownership and a &quot;best cover &#160;&#160;&#160;&#160;&#160;&#160;for this situation&quot; que...">
<polygon fill="white" stroke="#666666" points="1923.75,-198 1733,-198 1733,-164.5 1923.75,-164.5 1923.75,-198"/>
<text xml:space="preserve" text-anchor="start" x="1741" y="-184.5" font-family="Helvetica,sans-Serif" font-size="10.00">Source/TactixSystems</text>
<text xml:space="preserve" text-anchor="middle" x="1828.38" y="-171.75" font-family="Helvetica,sans-Serif" font-size="10.00">/Public/Cover/FTactixCoverSystem.h</text>
</a>
</g>
</g>
<!-- Node1&#45;&gt;Node26 -->
<g id="edge45_Node000001_Node000026" class="edge">
<title>Node1&#45;&gt;Node26</title>
<g id="a_edge45_Node000001_Node000026"><a xlink:title=" ">
<path fill="none" stroke="#63b8ff" d="M1406.98,-379.05C1533.12,-362.95 1759.89,-326.51 1814.38,-267.5 1831.67,-248.77 1832.17,-217.32 1830.55,-198.31"/>
<polygon fill="#63b8ff" stroke="#63b8ff" points="1406.83,-375.54 1397.35,-380.26 1407.71,-382.49 1406.83,-375.54"/>
</a>
</g>
</g>
<!-- Node31 -->
<g id="Node000031" class="node">
<title>Node31</title>
<g id="a_Node000031"><a xlink:href="FTactixSquad_8h.html" target="_top" xlink:title="Fixed&#45;capacity squad: a roster of agent handles with roles, slots, a leader and a current tactic.">
<polygon fill="white" stroke="#666666" points="1608.88,-267.5 1451.88,-267.5 1451.88,-234 1608.88,-234 1608.88,-267.5"/>
<text xml:space="preserve" text-anchor="start" x="1459.88" y="-254" font-family="Helvetica,sans-Serif" font-size="10.00">Source/TactixSystems</text>
<text xml:space="preserve" text-anchor="middle" x="1530.38" y="-241.25" font-family="Helvetica,sans-Serif" font-size="10.00">/Public/Squad/FTactixSquad.h</text>
</a>
</g>
</g>
<!-- Node1&#45;&gt;Node31 -->
<g id="edge46_Node000001_Node000031" class="edge">
<title>Node1&#45;&gt;Node31</title>
<g id="a_edge46_Node000001_Node000031"><a xlink:title=" ">
<path fill="none" stroke="#63b8ff" d="M1355.32,-366.5C1397.53,-338.83 1468.54,-292.28 1505.82,-267.84"/>
<polygon fill="#63b8ff" stroke="#63b8ff" points="1353.47,-363.53 1347.02,-371.94 1357.31,-369.38 1353.47,-363.53"/>
</a>
</g>
</g>
<!-- Node32 -->
<g id="Node000032" class="node">
<title>Node32</title>
<g id="a_Node000032"><a xlink:href="TactixPool_8h.html" target="_top" xlink:title="Fixed&#45;capacity pool allocator with per&#45;slot generation tracking.">
<polygon fill="white" stroke="#666666" points="1997,-337 1861.75,-337 1861.75,-303.5 1997,-303.5 1997,-337"/>
<text xml:space="preserve" text-anchor="start" x="1869.75" y="-323.5" font-family="Helvetica,sans-Serif" font-size="10.00">Source/TactixCore/Public</text>
<text xml:space="preserve" text-anchor="middle" x="1929.38" y="-310.75" font-family="Helvetica,sans-Serif" font-size="10.00">/Foundation/TactixPool.h</text>
</a>
</g>
</g>
<!-- Node1&#45;&gt;Node32 -->
<g id="edge39_Node000001_Node000032" class="edge">
<title>Node1&#45;&gt;Node32</title>
<g id="a_edge39_Node000001_Node000032"><a xlink:title=" ">
<path fill="none" stroke="#63b8ff" d="M1407.08,-382.74C1511.43,-374.87 1692.88,-359.39 1847.38,-337 1851.97,-336.33 1856.69,-335.59 1861.44,-334.8"/>
<polygon fill="#63b8ff" stroke="#63b8ff" points="1406.9,-379.25 1397.19,-383.48 1407.42,-386.23 1406.9,-379.25"/>
</a>
</g>
</g>
<!-- Node3 -->
<g id="Node000003" class="node">
<title>Node3</title>
<g id="a_Node000003"><a xlink:href="FTactixVisualDebugger_8h.html" target="_top" xlink:title="Static helpers that draw per&#45;agent debug overlays in the world.">
<polygon fill="white" stroke="#666666" points="518.62,-198 348.12,-198 348.12,-164.5 518.62,-164.5 518.62,-198"/>
<text xml:space="preserve" text-anchor="start" x="356.12" y="-184.5" font-family="Helvetica,sans-Serif" font-size="10.00">Source/TactixDebug</text>
<text xml:space="preserve" text-anchor="middle" x="433.38" y="-171.75" font-family="Helvetica,sans-Serif" font-size="10.00">/Public/FTactixVisualDebugger.h</text>
</a>
</g>
</g>
<!-- Node2&#45;&gt;Node3 -->
<g id="edge2_Node000002_Node000003" class="edge">
<title>Node2&#45;&gt;Node3</title>
<g id="a_edge2_Node000002_Node000003"><a xlink:title=" ">
<path fill="none" stroke="#63b8ff" d="M500.07,-227.27C486.01,-217.78 469.96,-206.95 457.13,-198.29"/>
<polygon fill="#63b8ff" stroke="#63b8ff" points="497.92,-230.04 508.17,-232.74 501.84,-224.24 497.92,-230.04"/>
</a>
</g>
</g>
<!-- Node5 -->
<g id="Node000005" class="node">
<title>Node5</title>
<g id="a_Node000005"><a xlink:href="UTactixAgentComponent_8h.html" target="_top" xlink:title="The component that makes a pawn a Tactix agent.">
<polygon fill="white" stroke="#666666" points="1173,-198 959.75,-198 959.75,-164.5 1173,-164.5 1173,-198"/>
<text xml:space="preserve" text-anchor="start" x="967.75" y="-184.5" font-family="Helvetica,sans-Serif" font-size="10.00">Source/TactixUE/Public</text>
<text xml:space="preserve" text-anchor="middle" x="1066.38" y="-171.75" font-family="Helvetica,sans-Serif" font-size="10.00">/Components/UTactixAgentComponent.h</text>
</a>
</g>
</g>
<!-- Node2&#45;&gt;Node5 -->
<g id="edge4_Node000002_Node000005" class="edge">
<title>Node2&#45;&gt;Node5</title>
<g id="a_edge4_Node000002_Node000005"><a xlink:title=" ">
<path fill="none" stroke="#63b8ff" d="M624.93,-233.84C770.45,-213.46 809.38,-215.51 951.38,-198 953.98,-197.68 956.61,-197.35 959.26,-197.02"/>
<polygon fill="#63b8ff" stroke="#63b8ff" points="624.72,-230.34 615.3,-235.2 625.7,-237.27 624.72,-230.34"/>
</a>
</g>
</g>
<!-- Node14 -->
<g id="Node000014" class="node">
<title>Node14</title>
<g id="a_Node000014"><a xlink:href="UTactixUtilityAsset_8h.html" target="_top" xlink:title="Designer&#45;facing asset: a named set of scored actions for one decision context.">
<polygon fill="white" stroke="#666666" points="330.12,-198 150.62,-198 150.62,-164.5 330.12,-164.5 330.12,-198"/>
<text xml:space="preserve" text-anchor="start" x="158.62" y="-184.5" font-family="Helvetica,sans-Serif" font-size="10.00">Source/TactixUE/Public</text>
<text xml:space="preserve" text-anchor="middle" x="240.38" y="-171.75" font-family="Helvetica,sans-Serif" font-size="10.00">/DataAssets/UTactixUtilityAsset.h</text>
</a>
</g>
</g>
<!-- Node2&#45;&gt;Node14 -->
<g id="edge14_Node000002_Node000014" class="edge">
<title>Node2&#45;&gt;Node14</title>
<g id="a_edge14_Node000002_Node000014"><a xlink:title=" ">
<path fill="none" stroke="#63b8ff" d="M452.14,-231.04C407.75,-220.81 353.31,-208.27 310.74,-198.46"/>
<polygon fill="#63b8ff" stroke="#63b8ff" points="451.19,-234.41 461.72,-233.24 452.76,-227.59 451.19,-234.41"/>
</a>
</g>
</g>
<!-- Node4 -->
<g id="Node000004" class="node">
<title>Node4</title>
<g id="a_Node000004"><a xlink:href="FTactixVisualDebugger_8cpp.html" target="_top" xlink:title="Implements the agent debug overlays with debug&#45;draw primitives.">
<polygon fill="white" stroke="#666666" points="570.88,-122.12 383.88,-122.12 383.88,-88.62 570.88,-88.62 570.88,-122.12"/>
<text xml:space="preserve" text-anchor="start" x="391.88" y="-108.62" font-family="Helvetica,sans-Serif" font-size="10.00">Source/TactixDebug</text>
<text xml:space="preserve" text-anchor="middle" x="477.38" y="-95.88" font-family="Helvetica,sans-Serif" font-size="10.00">/Private/FTactixVisualDebugger.cpp</text>
</a>
</g>
</g>
<!-- Node3&#45;&gt;Node4 -->
<g id="edge3_Node000003_Node000004" class="edge">
<title>Node3&#45;&gt;Node4</title>
<g id="a_edge3_Node000003_Node000004"><a xlink:title=" ">
<path fill="none" stroke="#63b8ff" d="M448.7,-154.53C455.06,-143.83 462.26,-131.76 467.85,-122.37"/>
<polygon fill="#63b8ff" stroke="#63b8ff" points="445.81,-152.54 443.7,-162.92 451.82,-156.12 445.81,-152.54"/>
</a>
</g>
</g>
<!-- Node5&#45;&gt;Node4 -->
<g id="edge6_Node000005_Node000004" class="edge">
<title>Node5&#45;&gt;Node4</title>
<g id="a_edge6_Node000005_Node000004"><a xlink:title=" ">
<path fill="none" stroke="#63b8ff" d="M947.84,-164.12C784.85,-145.63 740.4,-153.37 580.38,-128.5 569.71,-126.84 558.49,-124.77 547.54,-122.57"/>
<polygon fill="#63b8ff" stroke="#63b8ff" points="947.43,-167.6 957.76,-165.27 948.23,-160.64 947.43,-167.6"/>
</a>
</g>
</g>
<!-- Node6 -->
<g id="Node000006" class="node">
<title>Node6</title>
<g id="a_Node000006"><a xlink:href="FTactixGameplayDebuggerCategory_8cpp.html" target="_top" xlink:title="Implements the Gameplay Debugger category: collect agent state, then render it as text lines.">
<polygon fill="white" stroke="#666666" points="1692.25,-128.5 1504.5,-128.5 1504.5,-82.25 1692.25,-82.25 1692.25,-128.5"/>
<text xml:space="preserve" text-anchor="start" x="1512.5" y="-115" font-family="Helvetica,sans-Serif" font-size="10.00">Source/TactixDebug</text>
<text xml:space="preserve" text-anchor="start" x="1512.5" y="-102.25" font-family="Helvetica,sans-Serif" font-size="10.00">/Private/FTactixGameplayDebugger</text>
<text xml:space="preserve" text-anchor="middle" x="1598.38" y="-89.5" font-family="Helvetica,sans-Serif" font-size="10.00">Category.cpp</text>
</a>
</g>
</g>
<!-- Node5&#45;&gt;Node6 -->
<g id="edge5_Node000005_Node000006" class="edge">
<title>Node5&#45;&gt;Node6</title>
<g id="a_edge5_Node000005_Node000006"><a xlink:title=" ">
<path fill="none" stroke="#63b8ff" d="M1184.67,-164.22C1314.38,-147.68 1349.2,-147.58 1475.38,-128.5 1484.71,-127.09 1494.42,-125.52 1504.11,-123.88"/>
<polygon fill="#63b8ff" stroke="#63b8ff" points="1184.47,-160.72 1175,-165.46 1185.36,-167.66 1184.47,-160.72"/>
</a>
</g>
</g>
<!-- Node7 -->
<g id="Node000007" class="node">
<title>Node7</title>
<g id="a_Node000007"><a xlink:href="UTactixBTDecorator__InCover_8cpp.html" target="_top" xlink:title="Implements the in&#45;cover decorator condition.">
<polygon fill="white" stroke="#666666" points="1387.62,-128.5 1205.12,-128.5 1205.12,-82.25 1387.62,-82.25 1387.62,-128.5"/>
<text xml:space="preserve" text-anchor="start" x="1213.12" y="-115" font-family="Helvetica,sans-Serif" font-size="10.00">Source/TactixUE/Private</text>
<text xml:space="preserve" text-anchor="start" x="1213.12" y="-102.25" font-family="Helvetica,sans-Serif" font-size="10.00">/BehaviorTree/UTactixBTDecorator</text>
<text xml:space="preserve" text-anchor="middle" x="1296.38" y="-89.5" font-family="Helvetica,sans-Serif" font-size="10.00">_InCover.cpp</text>
</a>
</g>
</g>
<!-- Node5&#45;&gt;Node7 -->
<g id="edge7_Node000005_Node000007" class="edge">
<title>Node5&#45;&gt;Node7</title>
<g id="a_edge7_Node000005_Node000007"><a xlink:title=" ">
<path fill="none" stroke="#63b8ff" d="M1127.68,-160.56C1157.93,-150.84 1194.56,-139.08 1225.95,-128.99"/>
<polygon fill="#63b8ff" stroke="#63b8ff" points="1126.74,-157.18 1118.29,-163.57 1128.88,-163.85 1126.74,-157.18"/>
</a>
</g>
</g>
<!-- Node8 -->
<g id="Node000008" class="node">
<title>Node8</title>
<g id="a_Node000008"><a xlink:href="UTactixBTService__InfluenceQuery_8cpp.html" target="_top" xlink:title="Implements the influence&#45;sampling BT service.">
<polygon fill="white" stroke="#666666" points="1500.62,-46.25 1330.12,-46.25 1330.12,0 1500.62,0 1500.62,-46.25"/>
<text xml:space="preserve" text-anchor="start" x="1338.12" y="-32.75" font-family="Helvetica,sans-Serif" font-size="10.00">Source/TactixUE/Private</text>
<text xml:space="preserve" text-anchor="start" x="1338.12" y="-20" font-family="Helvetica,sans-Serif" font-size="10.00">/BehaviorTree/UTactixBTService</text>
<text xml:space="preserve" text-anchor="middle" x="1415.38" y="-7.25" font-family="Helvetica,sans-Serif" font-size="10.00">_InfluenceQuery.cpp</text>
</a>
</g>
</g>
<!-- Node5&#45;&gt;Node8 -->
<g id="edge8_Node000005_Node000008" class="edge">
<title>Node5&#45;&gt;Node8</title>
<g id="a_edge8_Node000005_Node000008"><a xlink:title=" ">
<path fill="none" stroke="#63b8ff" d="M1184.32,-163.36C1277.46,-149.78 1392.44,-132.34 1396.38,-128.5 1417.99,-107.4 1419.71,-70.5 1418.15,-46.7"/>
<polygon fill="#63b8ff" stroke="#63b8ff" points="1183.97,-159.88 1174.58,-164.78 1184.98,-166.8 1183.97,-159.88"/>
</a>
</g>
</g>
<!-- Node9 -->
<g id="Node000009" class="node">
<title>Node9</title>
<g id="a_Node000009"><a xlink:href="UTactixBTTask__ClaimCover_8cpp.html" target="_top" xlink:title="Implements the cover query/claim BT task: build the query from agent and blackboard state,...">
<polygon fill="white" stroke="#666666" points="1674.5,-46.25 1518.25,-46.25 1518.25,0 1674.5,0 1674.5,-46.25"/>
<text xml:space="preserve" text-anchor="start" x="1526.25" y="-32.75" font-family="Helvetica,sans-Serif" font-size="10.00">Source/TactixUE/Private</text>
<text xml:space="preserve" text-anchor="start" x="1526.25" y="-20" font-family="Helvetica,sans-Serif" font-size="10.00">/BehaviorTree/UTactixBTTask</text>
<text xml:space="preserve" text-anchor="middle" x="1596.38" y="-7.25" font-family="Helvetica,sans-Serif" font-size="10.00">_ClaimCover.cpp</text>
</a>
</g>
</g>
<!-- Node5&#45;&gt;Node9 -->
<g id="edge9_Node000005_Node000009" class="edge">
<title>Node5&#45;&gt;Node9</title>
<g id="a_edge9_Node000005_Node000009"><a xlink:title=" ">
<path fill="none" stroke="#63b8ff" d="M1184.72,-164.11C1283.21,-150.5 1409.13,-132.59 1420.38,-128.5 1457.18,-115.11 1461.73,-102.3 1495.38,-82.25 1515.54,-70.24 1538.16,-57.18 1556.88,-46.48"/>
<polygon fill="#63b8ff" stroke="#63b8ff" points="1184.38,-160.63 1174.96,-165.46 1185.34,-167.56 1184.38,-160.63"/>
</a>
</g>
</g>
<!-- Node10 -->
<g id="Node000010" class="node">
<title>Node10</title>
<g id="a_Node000010"><a xlink:href="UTactixBTTask__ExecutePlan_8cpp.html" target="_top" xlink:title="Implements step&#45;by&#45;step plan execution for the BT task.">
<polygon fill="white" stroke="#666666" points="745.5,-128.5 589.25,-128.5 589.25,-82.25 745.5,-82.25 745.5,-128.5"/>
<text xml:space="preserve" text-anchor="start" x="597.25" y="-115" font-family="Helvetica,sans-Serif" font-size="10.00">Source/TactixUE/Private</text>
<text xml:space="preserve" text-anchor="start" x="597.25" y="-102.25" font-family="Helvetica,sans-Serif" font-size="10.00">/BehaviorTree/UTactixBTTask</text>
<text xml:space="preserve" text-anchor="middle" x="667.38" y="-89.5" font-family="Helvetica,sans-Serif" font-size="10.00">_ExecutePlan.cpp</text>
</a>
</g>
</g>
<!-- Node5&#45;&gt;Node10 -->
<g id="edge10_Node000005_Node000010" class="edge">
<title>Node5&#45;&gt;Node10</title>
<g id="a_edge10_Node000005_Node000010"><a xlink:title=" ">
<path fill="none" stroke="#63b8ff" d="M948.31,-163.08C889.76,-153.95 818.11,-141.87 754.38,-128.5 751.48,-127.89 748.53,-127.25 745.56,-126.59"/>
<polygon fill="#63b8ff" stroke="#63b8ff" points="947.55,-166.5 957.96,-164.58 948.62,-159.59 947.55,-166.5"/>
</a>
</g>
</g>
<!-- Node11 -->
<g id="Node000011" class="node">
<title>Node11</title>
<g id="a_Node000011"><a xlink:href="UTactixBTTask__RunUtility_8cpp.html" target="_top" xlink:title="Implements the utility&#45;selection BT task: snapshot the agent, pick the best action,...">
<polygon fill="white" stroke="#666666" points="365.5,-128.5 209.25,-128.5 209.25,-82.25 365.5,-82.25 365.5,-128.5"/>
<text xml:space="preserve" text-anchor="start" x="217.25" y="-115" font-family="Helvetica,sans-Serif" font-size="10.00">Source/TactixUE/Private</text>
<text xml:space="preserve" text-anchor="start" x="217.25" y="-102.25" font-family="Helvetica,sans-Serif" font-size="10.00">/BehaviorTree/UTactixBTTask</text>
<text xml:space="preserve" text-anchor="middle" x="287.38" y="-89.5" font-family="Helvetica,sans-Serif" font-size="10.00">_RunUtility.cpp</text>
</a>
</g>
</g>
<!-- Node5&#45;&gt;Node11 -->
<g id="edge11_Node000005_Node000011" class="edge">
<title>Node5&#45;&gt;Node11</title>
<g id="a_edge11_Node000005_Node000011"><a xlink:title=" ">
<path fill="none" stroke="#63b8ff" d="M947.84,-164.2C694.13,-139.91 625.11,-167.36 375.38,-128.5 372.26,-128.02 369.1,-127.47 365.91,-126.88"/>
<polygon fill="#63b8ff" stroke="#63b8ff" points="947.48,-167.68 957.77,-165.17 948.16,-160.72 947.48,-167.68"/>
</a>
</g>
</g>
<!-- Node12 -->
<g id="Node000012" class="node">
<title>Node12</title>
<g id="a_Node000012"><a xlink:href="UTactixAgentComponent_8cpp.html" target="_top" xlink:title="Implements the pawn&#45;to&#45;agent adapter: snapshotting UE state into a Tactix::FTactixAgentContext.">
<polygon fill="white" stroke="#666666" points="987.62,-122.12 763.12,-122.12 763.12,-88.62 987.62,-88.62 987.62,-122.12"/>
<text xml:space="preserve" text-anchor="start" x="771.12" y="-108.62" font-family="Helvetica,sans-Serif" font-size="10.00">Source/TactixUE/Private</text>
<text xml:space="preserve" text-anchor="middle" x="875.38" y="-95.88" font-family="Helvetica,sans-Serif" font-size="10.00">/Components/UTactixAgentComponent.cpp</text>
</a>
</g>
</g>
<!-- Node5&#45;&gt;Node12 -->
<g id="edge12_Node000005_Node000012" class="edge">
<title>Node5&#45;&gt;Node12</title>
<g id="a_edge12_Node000005_Node000012"><a xlink:title=" ">
<path fill="none" stroke="#63b8ff" d="M1014.02,-160C983.55,-148.21 945.66,-133.56 917.19,-122.55"/>
<polygon fill="#63b8ff" stroke="#63b8ff" points="1012.46,-163.15 1023.05,-163.49 1014.98,-156.62 1012.46,-163.15"/>
</a>
</g>
</g>
<!-- Node13 -->
<g id="Node000013" class="node">
<title>Node13</title>
<g id="a_Node000013"><a xlink:href="ATactixAIController_8cpp.html" target="_top" xlink:title="Implements the Tactix AIController: scratch arena ownership, handle assignment on possess,...">
<polygon fill="white" stroke="#666666" points="1187.25,-122.12 1005.5,-122.12 1005.5,-88.62 1187.25,-88.62 1187.25,-122.12"/>
<text xml:space="preserve" text-anchor="start" x="1013.5" y="-108.62" font-family="Helvetica,sans-Serif" font-size="10.00">Source/TactixUE/Private</text>
<text xml:space="preserve" text-anchor="middle" x="1096.38" y="-95.88" font-family="Helvetica,sans-Serif" font-size="10.00">/Controller/ATactixAIController.cpp</text>
</a>
</g>
</g>
<!-- Node5&#45;&gt;Node13 -->
<g id="edge13_Node000005_Node000013" class="edge">
<title>Node5&#45;&gt;Node13</title>
<g id="a_edge13_Node000005_Node000013"><a xlink:title=" ">
<path fill="none" stroke="#63b8ff" d="M1077.09,-153.86C1081.36,-143.34 1086.15,-131.56 1089.88,-122.37"/>
<polygon fill="#63b8ff" stroke="#63b8ff" points="1073.97,-152.24 1073.45,-162.82 1080.46,-154.87 1073.97,-152.24"/>
</a>
</g>
</g>
<!-- Node14&#45;&gt;Node11 -->
<g id="edge15_Node000014_Node000011" class="edge">
<title>Node14&#45;&gt;Node11</title>
<g id="a_edge15_Node000014_Node000011"><a xlink:title=" ">
<path fill="none" stroke="#63b8ff" d="M256.72,-154.55C262.05,-146.17 267.93,-136.94 273.1,-128.82"/>
<polygon fill="#63b8ff" stroke="#63b8ff" points="253.8,-152.63 251.39,-162.94 259.71,-156.38 253.8,-152.63"/>
</a>
</g>
</g>
<!-- Node15 -->
<g id="Node000015" class="node">
<title>Node15</title>
<g id="a_Node000015"><a xlink:href="UTactixUtilityAsset_8cpp.html" target="_top" xlink:title="Implements utility scoring: input extraction, curve building, and the Lewis&#45;compensated action score.">
<polygon fill="white" stroke="#666666" points="190.75,-122.12 0,-122.12 0,-88.62 190.75,-88.62 190.75,-122.12"/>
<text xml:space="preserve" text-anchor="start" x="8" y="-108.62" font-family="Helvetica,sans-Serif" font-size="10.00">Source/TactixUE/Private</text>
<text xml:space="preserve" text-anchor="middle" x="95.38" y="-95.88" font-family="Helvetica,sans-Serif" font-size="10.00">/DataAssets/UTactixUtilityAsset.cpp</text>
</a>
</g>
</g>
<!-- Node14&#45;&gt;Node15 -->
<g id="edge16_Node000014_Node000015" class="edge">
<title>Node14&#45;&gt;Node15</title>
<g id="a_edge16_Node000014_Node000015"><a xlink:title=" ">
<path fill="none" stroke="#63b8ff" d="M198.49,-158.91C175.74,-147.32 148.07,-133.22 127.12,-122.55"/>
<polygon fill="#63b8ff" stroke="#63b8ff" points="196.71,-161.93 207.21,-163.35 199.88,-155.69 196.71,-161.93"/>
</a>
</g>
</g>
<!-- Node17 -->
<g id="Node000017" class="node">
<title>Node17</title>
<g id="a_Node000017"><a xlink:href="FTactixAgentScheduler_8cpp.html" target="_top" xlink:title="Implements the min&#45;heap scheduler. Contracts live in the header; this file documents the few spots wh...">
<polygon fill="white" stroke="#666666" points="716.5,-198 536.25,-198 536.25,-164.5 716.5,-164.5 716.5,-198"/>
<text xml:space="preserve" text-anchor="start" x="544.25" y="-184.5" font-family="Helvetica,sans-Serif" font-size="10.00">Source/TactixCore/Private</text>
<text xml:space="preserve" text-anchor="middle" x="626.38" y="-171.75" font-family="Helvetica,sans-Serif" font-size="10.00">/Agent/FTactixAgentScheduler.cpp</text>
</a>
</g>
</g>
<!-- Node16&#45;&gt;Node17 -->
<g id="edge18_Node000016_Node000017" class="edge">
<title>Node16&#45;&gt;Node17</title>
<g id="a_edge18_Node000016_Node000017"><a xlink:title=" ">
<path fill="none" stroke="#63b8ff" d="M685.89,-226.89C673.4,-217.52 659.24,-206.9 647.86,-198.37"/>
<polygon fill="#63b8ff" stroke="#63b8ff" points="683.74,-229.65 693.84,-232.85 687.94,-224.05 683.74,-229.65"/>
</a>
</g>
</g>
<!-- Node18&#45;&gt;Node2 -->
<g id="edge20_Node000018_Node000002" class="edge">
<title>Node18&#45;&gt;Node2</title>
<g id="a_edge20_Node000018_Node000002"><a xlink:title=" ">
<path fill="none" stroke="#63b8ff" d="M1079.22,-313.5C974.61,-305.48 784.7,-289.38 623.38,-267.5 620.23,-267.07 617.03,-266.62 613.8,-266.14"/>
<polygon fill="#63b8ff" stroke="#63b8ff" points="1078.87,-316.99 1089.11,-314.26 1079.4,-310.01 1078.87,-316.99"/>
</a>
</g>
</g>
<!-- Node18&#45;&gt;Node5 -->
<g id="edge38_Node000018_Node000005" class="edge">
<title>Node18&#45;&gt;Node5</title>
<g id="a_edge38_Node000018_Node000005"><a xlink:title=" ">
<path fill="none" stroke="#63b8ff" d="M1103.93,-297.77C1091.18,-290.13 1079.09,-280.18 1071.38,-267.5 1058.51,-246.35 1060.3,-216.51 1063.1,-198.33"/>
<polygon fill="#63b8ff" stroke="#63b8ff" points="1101.97,-300.68 1112.41,-302.43 1105.34,-294.55 1101.97,-300.68"/>
</a>
</g>
</g>
<!-- Node18&#45;&gt;Node16 -->
<g id="edge21_Node000018_Node000016" class="edge">
<title>Node18&#45;&gt;Node16</title>
<g id="a_edge21_Node000018_Node000016"><a xlink:title=" ">
<path fill="none" stroke="#63b8ff" d="M1079.38,-308.01C1008.6,-297.82 901.97,-282.2 809.38,-267.5 806.63,-267.06 803.83,-266.62 801.01,-266.16"/>
<polygon fill="#63b8ff" stroke="#63b8ff" points="1078.53,-311.42 1088.93,-309.38 1079.53,-304.49 1078.53,-311.42"/>
</a>
</g>
</g>
<!-- Node18&#45;&gt;Node19 -->
<g id="edge22_Node000018_Node000019" class="edge">
<title>Node18&#45;&gt;Node19</title>
<g id="a_edge22_Node000018_Node000019"><a xlink:title=" ">
<path fill="none" stroke="#63b8ff" d="M1090.81,-300.01C1055.18,-289.86 1011.96,-277.55 978.09,-267.9"/>
<polygon fill="#63b8ff" stroke="#63b8ff" points="1089.58,-303.29 1100.15,-302.67 1091.49,-296.56 1089.58,-303.29"/>
</a>
</g>
</g>
<!-- Node18&#45;&gt;Node21 -->
<g id="edge24_Node000018_Node000021" class="edge">
<title>Node18&#45;&gt;Node21</title>
<g id="a_edge24_Node000018_Node000021"><a xlink:title=" ">
<path fill="none" stroke="#63b8ff" d="M1158.38,-291.81C1158.38,-283.59 1158.38,-274.84 1158.38,-267.63"/>
<polygon fill="#63b8ff" stroke="#63b8ff" points="1154.88,-291.74 1158.38,-301.74 1161.88,-291.74 1154.88,-291.74"/>
</a>
</g>
</g>
<!-- Node18&#45;&gt;Node23 -->
<g id="edge26_Node000018_Node000023" class="edge">
<title>Node18&#45;&gt;Node23</title>
<g id="a_edge26_Node000018_Node000023"><a xlink:title=" ">
<path fill="none" stroke="#63b8ff" d="M1213.58,-299.22C1241.11,-289.22 1273.97,-277.3 1299.86,-267.9"/>
<polygon fill="#63b8ff" stroke="#63b8ff" points="1212.56,-295.86 1204.35,-302.57 1214.94,-302.44 1212.56,-295.86"/>
</a>
</g>
</g>
<!-- Node18&#45;&gt;Node25 -->
<g id="edge29_Node000018_Node000025" class="edge">
<title>Node18&#45;&gt;Node25</title>
<g id="a_edge29_Node000018_Node000025"><a xlink:title=" ">
<path fill="none" stroke="#63b8ff" d="M1237.73,-311.47C1329.52,-302.21 1485.13,-285.69 1618.38,-267.5 1621.11,-267.13 1623.88,-266.74 1626.68,-266.34"/>
<polygon fill="#63b8ff" stroke="#63b8ff" points="1237.41,-307.99 1227.81,-312.47 1238.11,-314.95 1237.41,-307.99"/>
</a>
</g>
</g>
<!-- Node18&#45;&gt;Node31 -->
<g id="edge37_Node000018_Node000031" class="edge">
<title>Node18&#45;&gt;Node31</title>
<g id="a_edge37_Node000018_Node000031"><a xlink:title=" ">
<path fill="none" stroke="#63b8ff" d="M1237.25,-304.94C1300.33,-293.49 1388.34,-277.52 1451.43,-266.07"/>
<polygon fill="#63b8ff" stroke="#63b8ff" points="1236.88,-301.45 1227.66,-306.68 1238.13,-308.34 1236.88,-301.45"/>
</a>
</g>
</g>
<!-- Node20 -->
<g id="Node000020" class="node">
<title>Node20</title>
<g id="a_Node000020"><a xlink:href="FTactixPerceptionMemory_8h.html" target="_top" xlink:title="Per&#45;agent ring buffer of timestamped stimuli with on&#45;demand decay.">
<polygon fill="white" stroke="#666666" points="942,-198 734.75,-198 734.75,-164.5 942,-164.5 942,-198"/>
<text xml:space="preserve" text-anchor="start" x="742.75" y="-184.5" font-family="Helvetica,sans-Serif" font-size="10.00">Source/TactixCore/Public</text>
<text xml:space="preserve" text-anchor="middle" x="838.38" y="-171.75" font-family="Helvetica,sans-Serif" font-size="10.00">/Perception/FTactixPerceptionMemory.h</text>
</a>
</g>
</g>
<!-- Node19&#45;&gt;Node20 -->
<g id="edge23_Node000019_Node000020" class="edge">
<title>Node19&#45;&gt;Node20</title>
<g id="a_edge23_Node000019_Node000020"><a xlink:title=" ">
<path fill="none" stroke="#63b8ff" d="M892.93,-226.61C881.49,-217.31 868.58,-206.81 858.19,-198.37"/>
<polygon fill="#63b8ff" stroke="#63b8ff" points="890.56,-229.2 900.53,-232.8 894.98,-223.77 890.56,-229.2"/>
</a>
</g>
</g>
<!-- Node22 -->
<g id="Node000022" class="node">
<title>Node22</title>
<g id="a_Node000022"><a xlink:href="FTactixAgentProfiler_8cpp.html" target="_top" xlink:title="Implements the timing profiler: cycle&#45;counter sampling, ring storage, and the aggregate queries.">
<polygon fill="white" stroke="#666666" points="1363.75,-198 1191,-198 1191,-164.5 1363.75,-164.5 1363.75,-198"/>
<text xml:space="preserve" text-anchor="start" x="1199" y="-184.5" font-family="Helvetica,sans-Serif" font-size="10.00">Source/TactixDebug</text>
<text xml:space="preserve" text-anchor="middle" x="1277.38" y="-171.75" font-family="Helvetica,sans-Serif" font-size="10.00">/Private/FTactixAgentProfiler.cpp</text>
</a>
</g>
</g>
<!-- Node21&#45;&gt;Node22 -->
<g id="edge25_Node000021_Node000022" class="edge">
<title>Node21&#45;&gt;Node22</title>
<g id="a_edge25_Node000021_Node000022"><a xlink:title=" ">
<path fill="none" stroke="#63b8ff" d="M1196.56,-228.09C1213.63,-218.41 1233.39,-207.2 1249.1,-198.29"/>
<polygon fill="#63b8ff" stroke="#63b8ff" points="1195.17,-224.86 1188.19,-232.84 1198.62,-230.95 1195.17,-224.86"/>
</a>
</g>
</g>
<!-- Node23&#45;&gt;Node6 -->
<g id="edge28_Node000023_Node000006" class="edge">
<title>Node23&#45;&gt;Node6</title>
<g id="a_edge28_Node000023_Node000006"><a xlink:title=" ">
<path fill="none" stroke="#63b8ff" d="M1442.8,-231.38C1507.52,-218.87 1581.21,-203.6 1586.38,-198 1603.35,-179.61 1604.09,-149.61 1602.08,-128.97"/>
<polygon fill="#63b8ff" stroke="#63b8ff" points="1442.32,-227.91 1433.16,-233.24 1443.64,-234.79 1442.32,-227.91"/>
</a>
</g>
</g>
<!-- Node24 -->
<g id="Node000024" class="node">
<title>Node24</title>
<g id="a_Node000024"><a xlink:href="FTactixDecisionRecorder_8cpp.html" target="_top" xlink:title="Implements the decision ring buffer: recording, history/all queries, and the log dump.">
<polygon fill="white" stroke="#666666" points="1577,-198 1381.75,-198 1381.75,-164.5 1577,-164.5 1577,-198"/>
<text xml:space="preserve" text-anchor="start" x="1389.75" y="-184.5" font-family="Helvetica,sans-Serif" font-size="10.00">Source/TactixDebug</text>
<text xml:space="preserve" text-anchor="middle" x="1479.38" y="-171.75" font-family="Helvetica,sans-Serif" font-size="10.00">/Private/FTactixDecisionRecorder.cpp</text>
</a>
</g>
</g>
<!-- Node23&#45;&gt;Node24 -->
<g id="edge27_Node000023_Node000024" class="edge">
<title>Node23&#45;&gt;Node24</title>
<g id="a_edge27_Node000023_Node000024"><a xlink:title=" ">
<path fill="none" stroke="#63b8ff" d="M1386.89,-228.49C1406.43,-218.72 1429.23,-207.32 1447.3,-198.29"/>
<polygon fill="#63b8ff" stroke="#63b8ff" points="1385.44,-225.3 1378.06,-232.91 1388.57,-231.56 1385.44,-225.3"/>
</a>
</g>
</g>
<!-- Node25&#45;&gt;Node26 -->
<g id="edge30_Node000025_Node000026" class="edge">
<title>Node25&#45;&gt;Node26</title>
<g id="a_edge30_Node000025_Node000026"><a xlink:title=" ">
<path fill="none" stroke="#63b8ff" d="M1752.77,-227.82C1768.73,-218.2 1787.12,-207.11 1801.77,-198.29"/>
<polygon fill="#63b8ff" stroke="#63b8ff" points="1751.26,-224.64 1744.5,-232.8 1754.87,-230.64 1751.26,-224.64"/>
</a>
</g>
</g>
<!-- Node27 -->
<g id="Node000027" class="node">
<title>Node27</title>
<g id="a_Node000027"><a xlink:href="UTactixWorldSubsystem_8h.html" target="_top" xlink:title="Per&#45;world owner of the cover system and influence map shared by every agent in the level.">
<polygon fill="white" stroke="#666666" points="1918.75,-122.12 1716,-122.12 1716,-88.62 1918.75,-88.62 1918.75,-122.12"/>
<text xml:space="preserve" text-anchor="start" x="1724" y="-108.62" font-family="Helvetica,sans-Serif" font-size="10.00">Source/TactixUE/Public</text>
<text xml:space="preserve" text-anchor="middle" x="1817.38" y="-95.88" font-family="Helvetica,sans-Serif" font-size="10.00">/Subsystem/UTactixWorldSubsystem.h</text>
</a>
</g>
</g>
<!-- Node26&#45;&gt;Node27 -->
<g id="edge31_Node000026_Node000027" class="edge">
<title>Node26&#45;&gt;Node27</title>
<g id="a_edge31_Node000026_Node000027"><a xlink:title=" ">
<path fill="none" stroke="#63b8ff" d="M1824.3,-152.86C1822.77,-142.6 1821.08,-131.27 1819.76,-122.37"/>
<polygon fill="#63b8ff" stroke="#63b8ff" points="1820.83,-153.35 1825.77,-162.72 1827.75,-152.32 1820.83,-153.35"/>
</a>
</g>
</g>
<!-- Node27&#45;&gt;Node8 -->
<g id="edge32_Node000027_Node000008" class="edge">
<title>Node27&#45;&gt;Node8</title>
<g id="a_edge32_Node000027_Node000008"><a xlink:title=" ">
<path fill="none" stroke="#63b8ff" d="M1721.19,-86C1714.48,-84.73 1707.83,-83.47 1701.38,-82.25 1616.07,-66.12 1594.32,-64.2 1509.38,-46.25 1506.59,-45.66 1503.75,-45.05 1500.9,-44.43"/>
<polygon fill="#63b8ff" stroke="#63b8ff" points="1720.52,-89.44 1731,-87.87 1721.83,-82.56 1720.52,-89.44"/>
</a>
</g>
</g>
<!-- Node27&#45;&gt;Node9 -->
<g id="edge33_Node000027_Node000009" class="edge">
<title>Node27&#45;&gt;Node9</title>
<g id="a_edge33_Node000027_Node000009"><a xlink:title=" ">
<path fill="none" stroke="#63b8ff" d="M1761.9,-84.23C1730.48,-72.82 1691.09,-58.52 1658.62,-46.73"/>
<polygon fill="#63b8ff" stroke="#63b8ff" points="1760.64,-87.5 1771.23,-87.62 1763.02,-80.92 1760.64,-87.5"/>
</a>
</g>
</g>
<!-- Node28 -->
<g id="Node000028" class="node">
<title>Node28</title>
<g id="a_Node000028"><a xlink:href="UTactixEQSGenerator__Cover_8cpp.html" target="_top" xlink:title="Implements the cover EQS generator: emit each registered cover point as a point item.">
<polygon fill="white" stroke="#666666" points="1838.25,-46.25 1692.5,-46.25 1692.5,0 1838.25,0 1838.25,-46.25"/>
<text xml:space="preserve" text-anchor="start" x="1700.5" y="-32.75" font-family="Helvetica,sans-Serif" font-size="10.00">Source/TactixUE/Private</text>
<text xml:space="preserve" text-anchor="start" x="1700.5" y="-20" font-family="Helvetica,sans-Serif" font-size="10.00">/EQS/UTactixEQSGenerator</text>
<text xml:space="preserve" text-anchor="middle" x="1765.38" y="-7.25" font-family="Helvetica,sans-Serif" font-size="10.00">_Cover.cpp</text>
</a>
</g>
</g>
<!-- Node27&#45;&gt;Node28 -->
<g id="edge34_Node000027_Node000028" class="edge">
<title>Node27&#45;&gt;Node28</title>
<g id="a_edge34_Node000027_Node000028"><a xlink:title=" ">
<path fill="none" stroke="#63b8ff" d="M1800.61,-78.49C1793.98,-68.26 1786.43,-56.61 1780.02,-46.73"/>
<polygon fill="#63b8ff" stroke="#63b8ff" points="1797.65,-80.38 1806.03,-86.87 1803.53,-76.57 1797.65,-80.38"/>
</a>
</g>
</g>
<!-- Node29 -->
<g id="Node000029" class="node">
<title>Node29</title>
<g id="a_Node000029"><a xlink:href="UTactixEQSTest__Influence_8cpp.html" target="_top" xlink:title="Implements the influence EQS test: sample the map per item and score it.">
<polygon fill="white" stroke="#666666" points="2042.5,-39.88 1856.25,-39.88 1856.25,-6.38 2042.5,-6.38 2042.5,-39.88"/>
<text xml:space="preserve" text-anchor="start" x="1864.25" y="-26.38" font-family="Helvetica,sans-Serif" font-size="10.00">Source/TactixUE/Private</text>
<text xml:space="preserve" text-anchor="middle" x="1949.38" y="-13.62" font-family="Helvetica,sans-Serif" font-size="10.00">/EQS/UTactixEQSTest_Influence.cpp</text>
</a>
</g>
</g>
<!-- Node27&#45;&gt;Node29 -->
<g id="edge35_Node000027_Node000029" class="edge">
<title>Node27&#45;&gt;Node29</title>
<g id="a_edge35_Node000027_Node000029"><a xlink:title=" ">
<path fill="none" stroke="#63b8ff" d="M1853.69,-82.3C1875.53,-69.02 1902.85,-52.41 1922.7,-40.34"/>
<polygon fill="#63b8ff" stroke="#63b8ff" points="1852.11,-79.16 1845.38,-87.35 1855.74,-85.14 1852.11,-79.16"/>
</a>
</g>
</g>
<!-- Node30 -->
<g id="Node000030" class="node">
<title>Node30</title>
<g id="a_Node000030"><a xlink:href="UTactixWorldSubsystem_8cpp.html" target="_top" xlink:title="Implements the world subsystem: the soft cover&#45;reservation layer.">
<polygon fill="white" stroke="#666666" points="2274.38,-39.88 2060.38,-39.88 2060.38,-6.38 2274.38,-6.38 2274.38,-39.88"/>
<text xml:space="preserve" text-anchor="start" x="2068.38" y="-26.38" font-family="Helvetica,sans-Serif" font-size="10.00">Source/TactixUE/Private</text>
<text xml:space="preserve" text-anchor="middle" x="2167.38" y="-13.62" font-family="Helvetica,sans-Serif" font-size="10.00">/Subsystem/UTactixWorldSubsystem.cpp</text>
</a>
</g>
</g>
<!-- Node27&#45;&gt;Node30 -->
<g id="edge36_Node000027_Node000030" class="edge">
<title>Node27&#45;&gt;Node30</title>
<g id="a_edge36_Node000027_Node000030"><a xlink:title=" ">
<path fill="none" stroke="#63b8ff" d="M1899.14,-85.63C1959.03,-71.89 2039.52,-53.44 2096.65,-40.34"/>
<polygon fill="#63b8ff" stroke="#63b8ff" points="1898.64,-82.15 1889.68,-87.8 1900.21,-88.97 1898.64,-82.15"/>
</a>
</g>
</g>
<!-- Node32&#45;&gt;Node26 -->
<g id="edge40_Node000032_Node000026" class="edge">
<title>Node32&#45;&gt;Node26</title>
<g id="a_edge40_Node000032_Node000026"><a xlink:title=" ">
<path fill="none" stroke="#63b8ff" d="M1910.84,-294.11C1890.19,-266.1 1857.45,-221.69 1840.08,-198.13"/>
<polygon fill="#63b8ff" stroke="#63b8ff" points="1907.94,-296.08 1916.69,-302.05 1913.58,-291.92 1907.94,-296.08"/>
</a>
</g>
</g>
</g>
</svg>
