<?xml version="1.0" encoding="UTF-8" standalone="no"?>
<!DOCTYPE svg PUBLIC "-//W3C//DTD SVG 1.1//EN"
 "http://www.w3.org/Graphics/SVG/1.1/DTD/svg11.dtd">
<!-- Generated by graphviz version 14.1.5 (0)
 -->
<!-- Title: Source/TactixCore/Private/Foundation/TactixCurve.cpp Pages: 1 -->
<svg width="313pt" height="155pt"
 viewBox="0.00 0.00 313.00 155.00" xmlns="http://www.w3.org/2000/svg" xmlns:xlink="http://www.w3.org/1999/xlink">
<g id="graph0" class="graph" transform="scale(1 1) rotate(0) translate(4 151)">
<title>Source/TactixCore/Private/Foundation/TactixCurve.cpp</title>
<!-- Node1 -->
<g id="Node000001" class="node">
<title>Node1</title>
<g id="a_Node000001"><a xlink:title=" ">
<polygon fill="#999999" stroke="#666666" points="301.12,-147 147.88,-147 147.88,-113.5 301.12,-113.5 301.12,-147"/>
<text xml:space="preserve" text-anchor="start" x="155.88" y="-133.5" font-family="Helvetica,sans-Serif" font-size="10.00">Source/TactixCore/Private</text>
<text xml:space="preserve" text-anchor="middle" x="224.5" y="-120.75" font-family="Helvetica,sans-Serif" font-size="10.00">/Foundation/TactixCurve.cpp</text>
</a>
</g>
</g>
<!-- Node2 -->
<g id="Node000002" class="node">
<title>Node2</title>
<g id="a_Node000002"><a xlink:href="TactixCurve_8h.html" target="_top" xlink:title="Response curves that turn a raw input into a normalised utility score.">
<polygon fill="white" stroke="#666666" points="139,-77.5 0,-77.5 0,-56.75 139,-56.75 139,-77.5"/>
<text xml:space="preserve" text-anchor="middle" x="69.5" y="-64" font-family="Helvetica,sans-Serif" font-size="10.00">Foundation/TactixCurve.h</text>
</a>
</g>
</g>
<!-- Node1&#45;&gt;Node2 -->
<g id="edge1_Node000001_Node000002" class="edge">
<title>Node1&#45;&gt;Node2</title>
<g id="a_edge1_Node000001_Node000002"><a xlink:title=" ">
<path fill="none" stroke="#63b8ff" d="M183.37,-113.03C158.9,-103.38 128.18,-91.27 104.82,-82.05"/>
<polygon fill="#63b8ff" stroke="#63b8ff" points="106.32,-78.88 95.73,-78.47 103.75,-85.39 106.32,-78.88"/>
</a>
</g>
</g>
<!-- Node5 -->
<g id="Node000005" class="node">
<title>Node5</title>
<g id="a_Node000005"><a xlink:href="TactixMath_8h.html" target="_top" xlink:title="Small, engine&#45;agnostic vector and scalar math used across Tactix.">
<polygon fill="white" stroke="#666666" points="292.12,-77.5 156.88,-77.5 156.88,-56.75 292.12,-56.75 292.12,-77.5"/>
<text xml:space="preserve" text-anchor="middle" x="224.5" y="-64" font-family="Helvetica,sans-Serif" font-size="10.00">Foundation/TactixMath.h</text>
</a>
</g>
</g>
<!-- Node1&#45;&gt;Node5 -->
<g id="edge4_Node000001_Node000005" class="edge">
<title>Node1&#45;&gt;Node5</title>
<g id="a_edge4_Node000001_Node000005"><a xlink:title=" ">
<path fill="none" stroke="#63b8ff" d="M224.5,-113.19C224.5,-105.85 224.5,-97.07 224.5,-89.21"/>
<polygon fill="#63b8ff" stroke="#63b8ff" points="228,-89.48 224.5,-79.48 221,-89.48 228,-89.48"/>
</a>
</g>
</g>
<!-- Node6 -->
<g id="Node000006" class="node">
<title>Node6</title>
<g id="a_Node000006"><a xlink:title=" ">
<polygon fill="#e0e0e0" stroke="#999999" points="285.88,-20.75 239.12,-20.75 239.12,0 285.88,0 285.88,-20.75"/>
<text xml:space="preserve" text-anchor="middle" x="262.5" y="-7.25" font-family="Helvetica,sans-Serif" font-size="10.00">cmath</text>
</a>
</g>
</g>
<!-- Node1&#45;&gt;Node6 -->
<g id="edge8_Node000001_Node000006" class="edge">
<title>Node1&#45;&gt;Node6</title>
<g id="a_edge8_Node000001_Node000006"><a xlink:title=" ">
<path fill="none" stroke="#63b8ff" d="M262.94,-113.21C277.78,-104.89 293.17,-93.14 301.5,-77.5 310.53,-60.55 297.04,-41.73 283.52,-28.52"/>
<polygon fill="#63b8ff" stroke="#63b8ff" points="286.18,-26.21 276.42,-22.1 281.49,-31.4 286.18,-26.21"/>
</a>
</g>
</g>
<!-- Node3 -->
<g id="Node000003" class="node">
<title>Node3</title>
<g id="a_Node000003"><a xlink:href="TactixApi_8h.html" target="_top" xlink:title="Export macros, compiler attributes and version constants shared by every Tactix module.">
<polygon fill="white" stroke="#666666" points="221.12,-20.75 151.88,-20.75 151.88,0 221.12,0 221.12,-20.75"/>
<text xml:space="preserve" text-anchor="middle" x="186.5" y="-7.25" font-family="Helvetica,sans-Serif" font-size="10.00">TactixApi.h</text>
</a>
</g>
</g>
<!-- Node2&#45;&gt;Node3 -->
<g id="edge2_Node000002_Node000003" class="edge">
<title>Node2&#45;&gt;Node3</title>
<g id="a_edge2_Node000002_Node000003"><a xlink:title=" ">
<path fill="none" stroke="#63b8ff" d="M90.42,-56.34C108.47,-47.89 134.8,-35.57 155.34,-25.96"/>
<polygon fill="#63b8ff" stroke="#63b8ff" points="156.82,-29.13 164.39,-21.72 153.85,-22.79 156.82,-29.13"/>
</a>
</g>
</g>
<!-- Node4 -->
<g id="Node000004" class="node">
<title>Node4</title>
<g id="a_Node000004"><a xlink:title=" ">
<polygon fill="#e0e0e0" stroke="#999999" points="133,-20.75 84,-20.75 84,0 133,0 133,-20.75"/>
<text xml:space="preserve" text-anchor="middle" x="108.5" y="-7.25" font-family="Helvetica,sans-Serif" font-size="10.00">cstdint</text>
</a>
</g>
</g>
<!-- Node2&#45;&gt;Node4 -->
<g id="edge3_Node000002_Node000004" class="edge">
<title>Node2&#45;&gt;Node4</title>
<g id="a_edge3_Node000002_Node000004"><a xlink:title=" ">
<path fill="none" stroke="#63b8ff" d="M76.47,-56.34C81.63,-49.1 88.82,-39.01 95.07,-30.22"/>
<polygon fill="#63b8ff" stroke="#63b8ff" points="97.76,-32.49 100.71,-22.31 92.06,-28.43 97.76,-32.49"/>
</a>
</g>
</g>
<!-- Node5&#45;&gt;Node3 -->
<g id="edge5_Node000005_Node000003" class="edge">
<title>Node5&#45;&gt;Node3</title>
<g id="a_edge5_Node000005_Node000003"><a xlink:title=" ">
<path fill="none" stroke="#63b8ff" d="M217.71,-56.34C212.73,-49.17 205.83,-39.23 199.78,-30.51"/>
<polygon fill="#63b8ff" stroke="#63b8ff" points="202.68,-28.54 194.1,-22.32 196.92,-32.53 202.68,-28.54"/>
</a>
</g>
</g>
<!-- Node5&#45;&gt;Node4 -->
<g id="edge7_Node000005_Node000004" class="edge">
<title>Node5&#45;&gt;Node4</title>
<g id="a_edge7_Node000005_Node000004"><a xlink:title=" ">
<path fill="none" stroke="#63b8ff" d="M203.76,-56.34C185.86,-47.89 159.76,-35.57 139.4,-25.96"/>
<polygon fill="#63b8ff" stroke="#63b8ff" points="140.96,-22.83 130.43,-21.72 137.98,-29.16 140.96,-22.83"/>
</a>
</g>
</g>
<!-- Node5&#45;&gt;Node6 -->
<g id="edge6_Node000005_Node000006" class="edge">
<title>Node5&#45;&gt;Node6</title>
<g id="a_edge6_Node000005_Node000006"><a xlink:title=" ">
<path fill="none" stroke="#63b8ff" d="M231.29,-56.34C236.27,-49.17 243.17,-39.23 249.22,-30.51"/>
<polygon fill="#63b8ff" stroke="#63b8ff" points="252.08,-32.53 254.9,-22.32 246.32,-28.54 252.08,-32.53"/>
</a>
</g>
</g>
</g>
</svg>
