<?xml version="1.0" encoding="UTF-8" standalone="no"?>
<!DOCTYPE svg PUBLIC "-//W3C//DTD SVG 1.1//EN"
 "http://www.w3.org/Graphics/SVG/1.1/DTD/svg11.dtd">
<!-- Generated by graphviz version 14.1.5 (0)
 -->
<!-- Title: Source/TactixCore/Private/TactixCoreModule.cpp Pages: 1 -->
<svg width="484pt" height="155pt"
 viewBox="0.00 0.00 484.00 155.00" xmlns="http://www.w3.org/2000/svg" xmlns:xlink="http://www.w3.org/1999/xlink">
<g id="graph0" class="graph" transform="scale(1 1) rotate(0) translate(4 151)">
<title>Source/TactixCore/Private/TactixCoreModule.cpp</title>
<!-- Node1 -->
<g id="Node000001" class="node">
<title>Node1</title>
<g id="a_Node000001"><a xlink:title="Implements the TactixCore module object and defines the shared log category for the whole plugin.">
<polygon fill="#999999" stroke="#666666" points="309.88,-147 169.38,-147 169.38,-113.5 309.88,-113.5 309.88,-147"/>
<text xml:space="preserve" text-anchor="start" x="177.38" y="-133.5" font-family="Helvetica,sans-Serif" font-size="10.00">Source/TactixCore/Private</text>
<text xml:space="preserve" text-anchor="middle" x="239.62" y="-120.75" font-family="Helvetica,sans-Serif" font-size="10.00">/TactixCoreModule.cpp</text>
</a>
</g>
</g>
<!-- Node2 -->
<g id="Node000002" class="node">
<title>Node2</title>
<g id="a_Node000002"><a xlink:href="TactixCore_8h.html" target="_top" xlink:title="Unreal&#45;facing entry point for the TactixCore module: the shared log category and the module lifecycle...">
<polygon fill="white" stroke="#666666" points="277.62,-77.5 201.62,-77.5 201.62,-56.75 277.62,-56.75 277.62,-77.5"/>
<text xml:space="preserve" text-anchor="middle" x="239.62" y="-64" font-family="Helvetica,sans-Serif" font-size="10.00">TactixCore.h</text>
</a>
</g>
</g>
<!-- Node1&#45;&gt;Node2 -->
<g id="edge1_Node000001_Node000002" class="edge">
<title>Node1&#45;&gt;Node2</title>
<g id="a_edge1_Node000001_Node000002"><a xlink:title=" ">
<path fill="none" stroke="#63b8ff" d="M239.62,-113.19C239.62,-105.85 239.62,-97.07 239.62,-89.21"/>
<polygon fill="#63b8ff" stroke="#63b8ff" points="243.13,-89.48 239.63,-79.48 236.13,-89.48 243.13,-89.48"/>
</a>
</g>
</g>
<!-- Node3 -->
<g id="Node000003" class="node">
<title>Node3</title>
<g id="a_Node000003"><a xlink:title=" ">
<polygon fill="#e0e0e0" stroke="#999999" points="87.25,-20.75 0,-20.75 0,0 87.25,0 87.25,-20.75"/>
<text xml:space="preserve" text-anchor="middle" x="43.62" y="-7.25" font-family="Helvetica,sans-Serif" font-size="10.00">CoreMinimal.h</text>
</a>
</g>
</g>
<!-- Node2&#45;&gt;Node3 -->
<g id="edge2_Node000002_Node000003" class="edge">
<title>Node2&#45;&gt;Node3</title>
<g id="a_edge2_Node000002_Node000003"><a xlink:title=" ">
<path fill="none" stroke="#63b8ff" d="M204.58,-56.34C172.49,-47.37 124.78,-34.04 89.63,-24.23"/>
<polygon fill="#63b8ff" stroke="#63b8ff" points="90.72,-20.9 80.15,-21.58 88.84,-27.64 90.72,-20.9"/>
</a>
</g>
</g>
<!-- Node4 -->
<g id="Node000004" class="node">
<title>Node4</title>
<g id="a_Node000004"><a xlink:title=" ">
<polygon fill="#e0e0e0" stroke="#999999" points="224,-20.75 105.25,-20.75 105.25,0 224,0 224,-20.75"/>
<text xml:space="preserve" text-anchor="middle" x="164.62" y="-7.25" font-family="Helvetica,sans-Serif" font-size="10.00">Logging/LogMacros.h</text>
</a>
</g>
</g>
<!-- Node2&#45;&gt;Node4 -->
<g id="edge3_Node000002_Node000004" class="edge">
<title>Node2&#45;&gt;Node4</title>
<g id="a_edge3_Node000002_Node000004"><a xlink:title=" ">
<path fill="none" stroke="#63b8ff" d="M226.22,-56.34C215.34,-48.4 199.77,-37.03 187.01,-27.71"/>
<polygon fill="#63b8ff" stroke="#63b8ff" points="189.28,-25.04 179.14,-21.97 185.15,-30.69 189.28,-25.04"/>
</a>
</g>
</g>
<!-- Node5 -->
<g id="Node000005" class="node">
<title>Node5</title>
<g id="a_Node000005"><a xlink:title=" ">
<polygon fill="#e0e0e0" stroke="#999999" points="389.25,-20.75 242,-20.75 242,0 389.25,0 389.25,-20.75"/>
<text xml:space="preserve" text-anchor="middle" x="315.62" y="-7.25" font-family="Helvetica,sans-Serif" font-size="10.00">Modules/ModuleManager.h</text>
</a>
</g>
</g>
<!-- Node2&#45;&gt;Node5 -->
<g id="edge4_Node000002_Node000005" class="edge">
<title>Node2&#45;&gt;Node5</title>
<g id="a_edge4_Node000002_Node000005"><a xlink:title=" ">
<path fill="none" stroke="#63b8ff" d="M253.21,-56.34C264.24,-48.4 280.01,-37.03 292.95,-27.71"/>
<polygon fill="#63b8ff" stroke="#63b8ff" points="294.86,-30.65 300.93,-21.96 290.77,-24.97 294.86,-30.65"/>
</a>
</g>
</g>
<!-- Node6 -->
<g id="Node000006" class="node">
<title>Node6</title>
<g id="a_Node000006"><a xlink:href="TactixApi_8h.html" target="_top" xlink:title="Export macros, compiler attributes and version constants shared by every Tactix module.">
<polygon fill="white" stroke="#666666" points="476.25,-20.75 407,-20.75 407,0 476.25,0 476.25,-20.75"/>
<text xml:space="preserve" text-anchor="middle" x="441.62" y="-7.25" font-family="Helvetica,sans-Serif" font-size="10.00">TactixApi.h</text>
</a>
</g>
</g>
<!-- Node2&#45;&gt;Node6 -->
<g id="edge5_Node000002_Node000006" class="edge">
<title>Node2&#45;&gt;Node6</title>
<g id="a_edge5_Node000002_Node000006"><a xlink:title=" ">
<path fill="none" stroke="#63b8ff" d="M275.74,-56.34C309.27,-47.25 359.33,-33.68 395.69,-23.82"/>
<polygon fill="#63b8ff" stroke="#63b8ff" points="396.3,-27.29 405.04,-21.29 394.47,-20.53 396.3,-27.29"/>
</a>
</g>
</g>
</g>
</svg>
