<?xml version="1.0" encoding="UTF-8" standalone="no"?>
<!DOCTYPE svg PUBLIC "-//W3C//DTD SVG 1.1//EN"
 "http://www.w3.org/Graphics/SVG/1.1/DTD/svg11.dtd">
<!-- Generated by graphviz version 14.1.5 (0)
 -->
<!-- Title: Source/TactixCore/Public/Foundation/TactixCurve.h Pages: 1 -->
<svg width="152pt" height="98pt"
 viewBox="0.00 0.00 152.00 98.00" xmlns="http://www.w3.org/2000/svg" xmlns:xlink="http://www.w3.org/1999/xlink">
<g id="graph0" class="graph" transform="scale(1 1) rotate(0) translate(4 94.25)">
<title>Source/TactixCore/Public/Foundation/TactixCurve.h</title>
<!-- Node1 -->
<g id="Node000001" class="node">
<title>Node1</title>
<g id="a_Node000001"><a xlink:title="Response curves that turn a raw input into a normalised utility score.">
<polygon fill="#999999" stroke="#666666" points="143.62,-90.25 1.62,-90.25 1.62,-56.75 143.62,-56.75 143.62,-90.25"/>
<text xml:space="preserve" text-anchor="start" x="9.62" y="-76.75" font-family="Helvetica,sans-Serif" font-size="10.00">Source/TactixCore/Public</text>
<text xml:space="preserve" text-anchor="middle" x="72.62" y="-64" font-family="Helvetica,sans-Serif" font-size="10.00">/Foundation/TactixCurve.h</text>
</a>
</g>
</g>
<!-- Node2 -->
<g id="Node000002" class="node">
<title>Node2</title>
<g id="a_Node000002"><a xlink:href="TactixApi_8h.html" target="_top" xlink:title="Export macros, compiler attributes and version constants shared by every Tactix module.">
<polygon fill="white" stroke="#666666" points="69.25,-20.75 0,-20.75 0,0 69.25,0 69.25,-20.75"/>
<text xml:space="preserve" text-anchor="middle" x="34.62" y="-7.25" font-family="Helvetica,sans-Serif" font-size="10.00">TactixApi.h</text>
</a>
</g>
</g>
<!-- Node1&#45;&gt;Node2 -->
<g id="edge1_Node000001_Node000002" class="edge">
<title>Node1&#45;&gt;Node2</title>
<g id="a_edge1_Node000001_Node000002"><a xlink:title=" ">
<path fill="none" stroke="#63b8ff" d="M62.64,-56.44C57.76,-48.58 51.83,-39.06 46.7,-30.79"/>
<polygon fill="#63b8ff" stroke="#63b8ff" points="49.79,-29.15 41.54,-22.5 43.85,-32.84 49.79,-29.15"/>
</a>
</g>
</g>
<!-- Node3 -->
<g id="Node000003" class="node">
<title>Node3</title>
<g id="a_Node000003"><a xlink:title=" ">
<polygon fill="#e0e0e0" stroke="#999999" points="136.12,-20.75 87.12,-20.75 87.12,0 136.12,0 136.12,-20.75"/>
<text xml:space="preserve" text-anchor="middle" x="111.62" y="-7.25" font-family="Helvetica,sans-Serif" font-size="10.00">cstdint</text>
</a>
</g>
</g>
<!-- Node1&#45;&gt;Node3 -->
<g id="edge2_Node000001_Node000003" class="edge">
<title>Node1&#45;&gt;Node3</title>
<g id="a_edge2_Node000001_Node000003"><a xlink:title=" ">
<path fill="none" stroke="#63b8ff" d="M82.87,-56.44C87.89,-48.58 93.96,-39.06 99.24,-30.79"/>
<polygon fill="#63b8ff" stroke="#63b8ff" points="102.1,-32.81 104.53,-22.49 96.2,-29.04 102.1,-32.81"/>
</a>
</g>
</g>
</g>
</svg>
