<?xml version="1.0" encoding="UTF-8" standalone="no"?>
<!DOCTYPE svg PUBLIC "-//W3C//DTD SVG 1.1//EN"
 "http://www.w3.org/Graphics/SVG/1.1/DTD/svg11.dtd">
<!-- Generated by graphviz version 14.1.5 (0)
 -->
<!-- Title: Source/TactixCore/Public/Foundation/TactixGrid.h Pages: 1 -->
<svg width="366pt" height="155pt"
 viewBox="0.00 0.00 366.00 155.00" xmlns="http://www.w3.org/2000/svg" xmlns:xlink="http://www.w3.org/1999/xlink">
<g id="graph0" class="graph" transform="scale(1 1) rotate(0) translate(4 151)">
<title>Source/TactixCore/Public/Foundation/TactixGrid.h</title>
<!-- Node1 -->
<g id="Node000001" class="node">
<title>Node1</title>
<g id="a_Node000001"><a xlink:title="Engine&#45;agnostic 2D grid with world&lt;&#45;&gt;cell coordinate conversion.">
<polygon fill="#999999" stroke="#666666" points="240.25,-147 105,-147 105,-113.5 240.25,-113.5 240.25,-147"/>
<text xml:space="preserve" text-anchor="start" x="113" y="-133.5" font-family="Helvetica,sans-Serif" font-size="10.00">Source/TactixCore/Public</text>
<text xml:space="preserve" text-anchor="middle" x="172.62" y="-120.75" font-family="Helvetica,sans-Serif" font-size="10.00">/Foundation/TactixGrid.h</text>
</a>
</g>
</g>
<!-- Node2 -->
<g id="Node000002" class="node">
<title>Node2</title>
<g id="a_Node000002"><a xlink:href="TactixApi_8h.html" target="_top" xlink:title="Export macros, compiler attributes and version constants shared by every Tactix module.">
<polygon fill="white" stroke="#666666" points="69.25,-20.75 0,-20.75 0,0 69.25,0 69.25,-20.75"/>
<text xml:space="preserve" text-anchor="middle" x="34.62" y="-7.25" font-family="Helvetica,sans-Serif" font-size="10.00">TactixApi.h</text>
</a>
</g>
</g>
<!-- Node1&#45;&gt;Node2 -->
<g id="edge1_Node000001_Node000002" class="edge">
<title>Node1&#45;&gt;Node2</title>
<g id="a_edge1_Node000001_Node000002"><a xlink:title=" ">
<path fill="none" stroke="#63b8ff" d="M104.59,-118.75C79.88,-111.38 54.23,-98.84 38.62,-77.5 29.17,-64.57 28.82,-46.15 30.46,-32.03"/>
<polygon fill="#63b8ff" stroke="#63b8ff" points="33.87,-32.9 32,-22.47 26.96,-31.79 33.87,-32.9"/>
</a>
</g>
</g>
<!-- Node3 -->
<g id="Node000003" class="node">
<title>Node3</title>
<g id="a_Node000003"><a xlink:href="TactixMath_8h.html" target="_top" xlink:title="Small, engine&#45;agnostic vector and scalar math used across Tactix.">
<polygon fill="white" stroke="#666666" points="125.75,-77.5 47.5,-77.5 47.5,-56.75 125.75,-56.75 125.75,-77.5"/>
<text xml:space="preserve" text-anchor="middle" x="86.62" y="-64" font-family="Helvetica,sans-Serif" font-size="10.00">TactixMath.h</text>
</a>
</g>
</g>
<!-- Node1&#45;&gt;Node3 -->
<g id="edge2_Node000001_Node000003" class="edge">
<title>Node1&#45;&gt;Node3</title>
<g id="a_edge2_Node000001_Node000003"><a xlink:title=" ">
<path fill="none" stroke="#63b8ff" d="M150.03,-113.19C137.62,-104.37 122.26,-93.45 109.77,-84.57"/>
<polygon fill="#63b8ff" stroke="#63b8ff" points="111.88,-81.78 101.71,-78.84 107.83,-87.49 111.88,-81.78"/>
</a>
</g>
</g>
<!-- Node4 -->
<g id="Node000004" class="node">
<title>Node4</title>
<g id="a_Node000004"><a xlink:title=" ">
<polygon fill="#e0e0e0" stroke="#999999" points="141,-20.75 94.25,-20.75 94.25,0 141,0 141,-20.75"/>
<text xml:space="preserve" text-anchor="middle" x="117.62" y="-7.25" font-family="Helvetica,sans-Serif" font-size="10.00">cmath</text>
</a>
</g>
</g>
<!-- Node1&#45;&gt;Node4 -->
<g id="edge6_Node000001_Node000004" class="edge">
<title>Node1&#45;&gt;Node4</title>
<g id="a_edge6_Node000001_Node000004"><a xlink:title=" ">
<path fill="none" stroke="#63b8ff" d="M165.21,-113.35C155.32,-92.17 137.83,-54.68 127.03,-31.54"/>
<polygon fill="#63b8ff" stroke="#63b8ff" points="130.24,-30.14 122.84,-22.55 123.9,-33.1 130.24,-30.14"/>
</a>
</g>
</g>
<!-- Node5 -->
<g id="Node000005" class="node">
<title>Node5</title>
<g id="a_Node000005"><a xlink:title=" ">
<polygon fill="#e0e0e0" stroke="#999999" points="212.12,-20.75 163.12,-20.75 163.12,0 212.12,0 212.12,-20.75"/>
<text xml:space="preserve" text-anchor="middle" x="187.62" y="-7.25" font-family="Helvetica,sans-Serif" font-size="10.00">cstdint</text>
</a>
</g>
</g>
<!-- Node1&#45;&gt;Node5 -->
<g id="edge8_Node000001_Node000005" class="edge">
<title>Node1&#45;&gt;Node5</title>
<g id="a_edge8_Node000001_Node000005"><a xlink:title=" ">
<path fill="none" stroke="#63b8ff" d="M174.65,-113.35C177.31,-92.46 181.98,-55.71 184.94,-32.5"/>
<polygon fill="#63b8ff" stroke="#63b8ff" points="188.4,-33.05 186.19,-22.68 181.45,-32.16 188.4,-33.05"/>
</a>
</g>
</g>
<!-- Node6 -->
<g id="Node000006" class="node">
<title>Node6</title>
<g id="a_Node000006"><a xlink:title=" ">
<polygon fill="#e0e0e0" stroke="#999999" points="271.62,-77.5 219.62,-77.5 219.62,-56.75 271.62,-56.75 271.62,-77.5"/>
<text xml:space="preserve" text-anchor="middle" x="245.62" y="-64" font-family="Helvetica,sans-Serif" font-size="10.00">cstddef</text>
</a>
</g>
</g>
<!-- Node1&#45;&gt;Node6 -->
<g id="edge7_Node000001_Node000006" class="edge">
<title>Node1&#45;&gt;Node6</title>
<g id="a_edge7_Node000001_Node000006"><a xlink:title=" ">
<path fill="none" stroke="#63b8ff" d="M191.8,-113.19C202.13,-104.55 214.86,-93.88 225.35,-85.1"/>
<polygon fill="#63b8ff" stroke="#63b8ff" points="227.29,-88.04 232.71,-78.94 222.8,-82.68 227.29,-88.04"/>
</a>
</g>
</g>
<!-- Node7 -->
<g id="Node000007" class="node">
<title>Node7</title>
<g id="a_Node000007"><a xlink:title=" ">
<polygon fill="#e0e0e0" stroke="#999999" points="357.88,-77.5 289.38,-77.5 289.38,-56.75 357.88,-56.75 357.88,-77.5"/>
<text xml:space="preserve" text-anchor="middle" x="323.62" y="-64" font-family="Helvetica,sans-Serif" font-size="10.00">type_traits</text>
</a>
</g>
</g>
<!-- Node1&#45;&gt;Node7 -->
<g id="edge9_Node000001_Node000007" class="edge">
<title>Node1&#45;&gt;Node7</title>
<g id="a_edge9_Node000001_Node000007"><a xlink:title=" ">
<path fill="none" stroke="#63b8ff" d="M212.69,-113.03C236.42,-103.43 266.19,-91.38 288.91,-82.18"/>
<polygon fill="#63b8ff" stroke="#63b8ff" points="290.08,-85.48 298.04,-78.48 287.45,-78.99 290.08,-85.48"/>
</a>
</g>
</g>
<!-- Node3&#45;&gt;Node2 -->
<g id="edge3_Node000003_Node000002" class="edge">
<title>Node3&#45;&gt;Node2</title>
<g id="a_edge3_Node000003_Node000002"><a xlink:title=" ">
<path fill="none" stroke="#63b8ff" d="M77.33,-56.34C70.23,-48.86 60.25,-38.36 51.72,-29.38"/>
<polygon fill="#63b8ff" stroke="#63b8ff" points="54.31,-27.02 44.88,-22.18 49.23,-31.84 54.31,-27.02"/>
</a>
</g>
</g>
<!-- Node3&#45;&gt;Node4 -->
<g id="edge4_Node000003_Node000004" class="edge">
<title>Node3&#45;&gt;Node4</title>
<g id="a_edge4_Node000003_Node000004"><a xlink:title=" ">
<path fill="none" stroke="#63b8ff" d="M92.17,-56.34C96.13,-49.33 101.61,-39.66 106.47,-31.08"/>
<polygon fill="#63b8ff" stroke="#63b8ff" points="109.5,-32.82 111.39,-22.4 103.41,-29.37 109.5,-32.82"/>
</a>
</g>
</g>
<!-- Node3&#45;&gt;Node5 -->
<g id="edge5_Node000003_Node000005" class="edge">
<title>Node3&#45;&gt;Node5</title>
<g id="a_edge5_Node000003_Node000005"><a xlink:title=" ">
<path fill="none" stroke="#63b8ff" d="M104.68,-56.34C120.05,-48.01 142.37,-35.91 159.98,-26.36"/>
<polygon fill="#63b8ff" stroke="#63b8ff" points="161.27,-29.64 168.39,-21.8 157.93,-23.49 161.27,-29.64"/>
</a>
</g>
</g>
</g>
</svg>
