<?xml version="1.0" encoding="UTF-8" standalone="no"?>
<!DOCTYPE svg PUBLIC "-//W3C//DTD SVG 1.1//EN"
 "http://www.w3.org/Graphics/SVG/1.1/DTD/svg11.dtd">
<!-- Generated by graphviz version 14.1.5 (0)
 -->
<!-- Title: Source/TactixCore/Public/TactixCore.h Pages: 1 -->
<svg width="484pt" height="98pt"
 viewBox="0.00 0.00 484.00 98.00" xmlns="http://www.w3.org/2000/svg" xmlns:xlink="http://www.w3.org/1999/xlink">
<g id="graph0" class="graph" transform="scale(1 1) rotate(0) translate(4 94.25)">
<title>Source/TactixCore/Public/TactixCore.h</title>
<!-- Node1 -->
<g id="Node000001" class="node">
<title>Node1</title>
<g id="a_Node000001"><a xlink:title="Unreal&#45;facing entry point for the TactixCore module: the shared log category and the module lifecycle...">
<polygon fill="#999999" stroke="#666666" points="307.25,-90.25 172,-90.25 172,-56.75 307.25,-56.75 307.25,-90.25"/>
<text xml:space="preserve" text-anchor="start" x="180" y="-76.75" font-family="Helvetica,sans-Serif" font-size="10.00">Source/TactixCore/Public</text>
<text xml:space="preserve" text-anchor="middle" x="239.62" y="-64" font-family="Helvetica,sans-Serif" font-size="10.00">/TactixCore.h</text>
</a>
</g>
</g>
<!-- Node2 -->
<g id="Node000002" class="node">
<title>Node2</title>
<g id="a_Node000002"><a xlink:title=" ">
<polygon fill="#e0e0e0" stroke="#999999" points="87.25,-20.75 0,-20.75 0,0 87.25,0 87.25,-20.75"/>
<text xml:space="preserve" text-anchor="middle" x="43.62" y="-7.25" font-family="Helvetica,sans-Serif" font-size="10.00">CoreMinimal.h</text>
</a>
</g>
</g>
<!-- Node1&#45;&gt;Node2 -->
<g id="edge1_Node000001_Node000002" class="edge">
<title>Node1&#45;&gt;Node2</title>
<g id="a_edge1_Node000001_Node000002"><a xlink:title=" ">
<path fill="none" stroke="#63b8ff" d="M187.62,-56.28C155.84,-46.37 115.72,-33.86 85.9,-24.56"/>
<polygon fill="#63b8ff" stroke="#63b8ff" points="87.05,-21.25 76.46,-21.62 84.97,-27.93 87.05,-21.25"/>
</a>
</g>
</g>
<!-- Node3 -->
<g id="Node000003" class="node">
<title>Node3</title>
<g id="a_Node000003"><a xlink:title=" ">
<polygon fill="#e0e0e0" stroke="#999999" points="224,-20.75 105.25,-20.75 105.25,0 224,0 224,-20.75"/>
<text xml:space="preserve" text-anchor="middle" x="164.62" y="-7.25" font-family="Helvetica,sans-Serif" font-size="10.00">Logging/LogMacros.h</text>
</a>
</g>
</g>
<!-- Node1&#45;&gt;Node3 -->
<g id="edge2_Node000001_Node000003" class="edge">
<title>Node1&#45;&gt;Node3</title>
<g id="a_edge2_Node000001_Node000003"><a xlink:title=" ">
<path fill="none" stroke="#63b8ff" d="M219.92,-56.44C209.31,-47.8 196.23,-37.13 185.46,-28.35"/>
<polygon fill="#63b8ff" stroke="#63b8ff" points="187.84,-25.78 177.87,-22.17 183.41,-31.2 187.84,-25.78"/>
</a>
</g>
</g>
<!-- Node4 -->
<g id="Node000004" class="node">
<title>Node4</title>
<g id="a_Node000004"><a xlink:title=" ">
<polygon fill="#e0e0e0" stroke="#999999" points="389.25,-20.75 242,-20.75 242,0 389.25,0 389.25,-20.75"/>
<text xml:space="preserve" text-anchor="middle" x="315.62" y="-7.25" font-family="Helvetica,sans-Serif" font-size="10.00">Modules/ModuleManager.h</text>
</a>
</g>
</g>
<!-- Node1&#45;&gt;Node4 -->
<g id="edge3_Node000001_Node000004" class="edge">
<title>Node1&#45;&gt;Node4</title>
<g id="a_edge3_Node000001_Node000004"><a xlink:title=" ">
<path fill="none" stroke="#63b8ff" d="M259.59,-56.44C270.34,-47.8 283.6,-37.13 294.52,-28.35"/>
<polygon fill="#63b8ff" stroke="#63b8ff" points="296.61,-31.16 302.21,-22.17 292.22,-25.71 296.61,-31.16"/>
</a>
</g>
</g>
<!-- Node5 -->
<g id="Node000005" class="node">
<title>Node5</title>
<g id="a_Node000005"><a xlink:href="TactixApi_8h.html" target="_top" xlink:title="Export macros, compiler attributes and version constants shared by every Tactix module.">
<polygon fill="white" stroke="#666666" points="476.25,-20.75 407,-20.75 407,0 476.25,0 476.25,-20.75"/>
<text xml:space="preserve" text-anchor="middle" x="441.62" y="-7.25" font-family="Helvetica,sans-Serif" font-size="10.00">TactixApi.h</text>
</a>
</g>
</g>
<!-- Node1&#45;&gt;Node5 -->
<g id="edge4_Node000001_Node000005" class="edge">
<title>Node1&#45;&gt;Node5</title>
<g id="a_edge4_Node000001_Node000005"><a xlink:title=" ">
<path fill="none" stroke="#63b8ff" d="M293.23,-56.28C326.12,-46.33 367.69,-33.75 398.46,-24.44"/>
<polygon fill="#63b8ff" stroke="#63b8ff" points="399.27,-27.85 407.82,-21.6 397.24,-21.15 399.27,-27.85"/>
</a>
</g>
</g>
</g>
</svg>
