<?xml version="1.0" encoding="UTF-8" standalone="no"?>
<!DOCTYPE svg PUBLIC "-//W3C//DTD SVG 1.1//EN"
 "http://www.w3.org/Graphics/SVG/1.1/DTD/svg11.dtd">
<!-- Generated by graphviz version 14.1.5 (0)
 -->
<!-- Title: Source/TactixUE/Public/TactixUETypes.h Pages: 1 -->
<svg width="572pt" height="206pt"
 viewBox="0.00 0.00 572.00 206.00" xmlns="http://www.w3.org/2000/svg" xmlns:xlink="http://www.w3.org/1999/xlink">
<g id="graph0" class="graph" transform="scale(1 1) rotate(0) translate(4 202)">
<title>Source/TactixUE/Public/TactixUETypes.h</title>
<!-- Node1 -->
<g id="Node000001" class="node">
<title>Node1</title>
<g id="a_Node000001"><a xlink:title="Blueprint&#45;exposed mirrors of Tactix enums and config structs.">
<polygon fill="#999999" stroke="#666666" points="247.25,-198 121,-198 121,-164.5 247.25,-164.5 247.25,-198"/>
<text xml:space="preserve" text-anchor="start" x="129" y="-184.5" font-family="Helvetica,sans-Serif" font-size="10.00">Source/TactixUE/Public</text>
<text xml:space="preserve" text-anchor="middle" x="184.12" y="-171.75" font-family="Helvetica,sans-Serif" font-size="10.00">/TactixUETypes.h</text>
</a>
</g>
</g>
<!-- Node2 -->
<g id="Node000002" class="node">
<title>Node2</title>
<g id="a_Node000002"><a xlink:href="UTactixSquadConfigAsset_8h.html" target="_top" xlink:title="Designer&#45;facing asset describing a squad&#39;s roles, formation and tactic.">
<polygon fill="white" stroke="#666666" points="174.25,-128.5 0,-128.5 0,-82.25 174.25,-82.25 174.25,-128.5"/>
<text xml:space="preserve" text-anchor="start" x="8" y="-115" font-family="Helvetica,sans-Serif" font-size="10.00">Source/TactixUE/Public</text>
<text xml:space="preserve" text-anchor="start" x="8" y="-102.25" font-family="Helvetica,sans-Serif" font-size="10.00">/DataAssets/UTactixSquadConfig</text>
<text xml:space="preserve" text-anchor="middle" x="87.12" y="-89.5" font-family="Helvetica,sans-Serif" font-size="10.00">Asset.h</text>
</a>
</g>
</g>
<!-- Node1&#45;&gt;Node2 -->
<g id="edge1_Node000001_Node000002" class="edge">
<title>Node1&#45;&gt;Node2</title>
<g id="a_edge1_Node000001_Node000002"><a xlink:title=" ">
<path fill="none" stroke="#63b8ff" d="M153.97,-157.28C142.06,-148.22 128.43,-137.83 116.59,-128.82"/>
<polygon fill="#63b8ff" stroke="#63b8ff" points="151.8,-160.03 161.87,-163.3 156.04,-154.46 151.8,-160.03"/>
</a>
</g>
</g>
<!-- Node4 -->
<g id="Node000004" class="node">
<title>Node4</title>
<g id="a_Node000004"><a xlink:href="UTactixUtilityAsset_8h.html" target="_top" xlink:title="Designer&#45;facing asset: a named set of scored actions for one decision context.">
<polygon fill="white" stroke="#666666" points="371.88,-122.12 192.38,-122.12 192.38,-88.62 371.88,-88.62 371.88,-122.12"/>
<text xml:space="preserve" text-anchor="start" x="200.38" y="-108.62" font-family="Helvetica,sans-Serif" font-size="10.00">Source/TactixUE/Public</text>
<text xml:space="preserve" text-anchor="middle" x="282.12" y="-95.88" font-family="Helvetica,sans-Serif" font-size="10.00">/DataAssets/UTactixUtilityAsset.h</text>
</a>
</g>
</g>
<!-- Node1&#45;&gt;Node4 -->
<g id="edge3_Node000001_Node000004" class="edge">
<title>Node1&#45;&gt;Node4</title>
<g id="a_edge3_Node000001_Node000004"><a xlink:title=" ">
<path fill="none" stroke="#63b8ff" d="M214.35,-157.46C229.43,-146.1 247.3,-132.63 260.9,-122.37"/>
<polygon fill="#63b8ff" stroke="#63b8ff" points="212.48,-154.49 206.6,-163.31 216.69,-160.08 212.48,-154.49"/>
</a>
</g>
</g>
<!-- Node3 -->
<g id="Node000003" class="node">
<title>Node3</title>
<g id="a_Node000003"><a xlink:href="UTactixSquadConfigAsset_8cpp.html" target="_top" xlink:title="Translation unit for the squad config asset. It&#39;s pure data, so there&#39;s no behaviour to implement her...">
<polygon fill="white" stroke="#666666" points="174.25,-46.25 0,-46.25 0,0 174.25,0 174.25,-46.25"/>
<text xml:space="preserve" text-anchor="start" x="8" y="-32.75" font-family="Helvetica,sans-Serif" font-size="10.00">Source/TactixUE/Private</text>
<text xml:space="preserve" text-anchor="start" x="8" y="-20" font-family="Helvetica,sans-Serif" font-size="10.00">/DataAssets/UTactixSquadConfig</text>
<text xml:space="preserve" text-anchor="middle" x="87.12" y="-7.25" font-family="Helvetica,sans-Serif" font-size="10.00">Asset.cpp</text>
</a>
</g>
</g>
<!-- Node2&#45;&gt;Node3 -->
<g id="edge2_Node000002_Node000003" class="edge">
<title>Node2&#45;&gt;Node3</title>
<g id="a_edge2_Node000002_Node000003"><a xlink:title=" ">
<path fill="none" stroke="#63b8ff" d="M87.12,-70.59C87.12,-62.5 87.12,-54.07 87.12,-46.64"/>
<polygon fill="#63b8ff" stroke="#63b8ff" points="83.63,-70.51 87.13,-80.51 90.63,-70.51 83.63,-70.51"/>
</a>
</g>
</g>
<!-- Node5 -->
<g id="Node000005" class="node">
<title>Node5</title>
<g id="a_Node000005"><a xlink:href="UTactixBTTask__RunUtility_8cpp.html" target="_top" xlink:title="Implements the utility&#45;selection BT task: snapshot the agent, pick the best action,...">
<polygon fill="white" stroke="#666666" points="354.25,-46.25 198,-46.25 198,0 354.25,0 354.25,-46.25"/>
<text xml:space="preserve" text-anchor="start" x="206" y="-32.75" font-family="Helvetica,sans-Serif" font-size="10.00">Source/TactixUE/Private</text>
<text xml:space="preserve" text-anchor="start" x="206" y="-20" font-family="Helvetica,sans-Serif" font-size="10.00">/BehaviorTree/UTactixBTTask</text>
<text xml:space="preserve" text-anchor="middle" x="276.12" y="-7.25" font-family="Helvetica,sans-Serif" font-size="10.00">_RunUtility.cpp</text>
</a>
</g>
</g>
<!-- Node4&#45;&gt;Node5 -->
<g id="edge4_Node000004_Node000005" class="edge">
<title>Node4&#45;&gt;Node5</title>
<g id="a_edge4_Node000004_Node000005"><a xlink:title=" ">
<path fill="none" stroke="#63b8ff" d="M280.07,-76.89C279.33,-67.05 278.52,-56.1 277.81,-46.73"/>
<polygon fill="#63b8ff" stroke="#63b8ff" points="276.56,-76.91 280.8,-86.63 283.54,-76.39 276.56,-76.91"/>
</a>
</g>
</g>
<!-- Node6 -->
<g id="Node000006" class="node">
<title>Node6</title>
<g id="a_Node000006"><a xlink:href="UTactixUtilityAsset_8cpp.html" target="_top" xlink:title="Implements utility scoring: input extraction, curve building, and the Lewis&#45;compensated action score.">
<polygon fill="white" stroke="#666666" points="563.5,-39.88 372.75,-39.88 372.75,-6.38 563.5,-6.38 563.5,-39.88"/>
<text xml:space="preserve" text-anchor="start" x="380.75" y="-26.38" font-family="Helvetica,sans-Serif" font-size="10.00">Source/TactixUE/Private</text>
<text xml:space="preserve" text-anchor="middle" x="468.12" y="-13.62" font-family="Helvetica,sans-Serif" font-size="10.00">/DataAssets/UTactixUtilityAsset.cpp</text>
</a>
</g>
</g>
<!-- Node4&#45;&gt;Node6 -->
<g id="edge5_Node000004_Node000006" class="edge">
<title>Node4&#45;&gt;Node6</title>
<g id="a_edge5_Node000004_Node000006"><a xlink:title=" ">
<path fill="none" stroke="#63b8ff" d="M330,-83.72C361.29,-70.22 401.56,-52.84 430.54,-40.34"/>
<polygon fill="#63b8ff" stroke="#63b8ff" points="328.95,-80.36 321.15,-87.54 331.72,-86.79 328.95,-80.36"/>
</a>
</g>
</g>
</g>
</svg>
