<?xml version="1.0" encoding="UTF-8" standalone="no"?>
<!DOCTYPE svg PUBLIC "-//W3C//DTD SVG 1.1//EN"
 "http://www.w3.org/Graphics/SVG/1.1/DTD/svg11.dtd">
<!-- Generated by graphviz version 14.1.5 (0)
 -->
<!-- Title: Source/TactixCore/Public/Foundation/TactixArena.h Pages: 1 -->
<svg width="332pt" height="98pt"
 viewBox="0.00 0.00 332.00 98.00" xmlns="http://www.w3.org/2000/svg" xmlns:xlink="http://www.w3.org/1999/xlink">
<g id="graph0" class="graph" transform="scale(1 1) rotate(0) translate(4 94.25)">
<title>Source/TactixCore/Public/Foundation/TactixArena.h</title>
<!-- Node1 -->
<g id="Node000001" class="node">
<title>Node1</title>
<g id="a_Node000001"><a xlink:title="Bump (linear) allocator for short&#45;lived scratch memory.">
<polygon fill="#999999" stroke="#666666" points="253.62,-90.25 111.62,-90.25 111.62,-56.75 253.62,-56.75 253.62,-90.25"/>
<text xml:space="preserve" text-anchor="start" x="119.62" y="-76.75" font-family="Helvetica,sans-Serif" font-size="10.00">Source/TactixCore/Public</text>
<text xml:space="preserve" text-anchor="middle" x="182.62" y="-64" font-family="Helvetica,sans-Serif" font-size="10.00">/Foundation/TactixArena.h</text>
</a>
</g>
</g>
<!-- Node2 -->
<g id="Node000002" class="node">
<title>Node2</title>
<g id="a_Node000002"><a xlink:href="TactixApi_8h.html" target="_top" xlink:title="Export macros, compiler attributes and version constants shared by every Tactix module.">
<polygon fill="white" stroke="#666666" points="69.25,-20.75 0,-20.75 0,0 69.25,0 69.25,-20.75"/>
<text xml:space="preserve" text-anchor="middle" x="34.62" y="-7.25" font-family="Helvetica,sans-Serif" font-size="10.00">TactixApi.h</text>
</a>
</g>
</g>
<!-- Node1&#45;&gt;Node2 -->
<g id="edge1_Node000001_Node000002" class="edge">
<title>Node1&#45;&gt;Node2</title>
<g id="a_edge1_Node000001_Node000002"><a xlink:title=" ">
<path fill="none" stroke="#63b8ff" d="M143.35,-56.28C120.2,-46.72 91.19,-34.74 68.96,-25.55"/>
<polygon fill="#63b8ff" stroke="#63b8ff" points="70.31,-22.33 59.73,-21.74 67.63,-28.8 70.31,-22.33"/>
</a>
</g>
</g>
<!-- Node3 -->
<g id="Node000003" class="node">
<title>Node3</title>
<g id="a_Node000003"><a xlink:title=" ">
<polygon fill="#e0e0e0" stroke="#999999" points="139.62,-20.75 87.62,-20.75 87.62,0 139.62,0 139.62,-20.75"/>
<text xml:space="preserve" text-anchor="middle" x="113.62" y="-7.25" font-family="Helvetica,sans-Serif" font-size="10.00">cstddef</text>
</a>
</g>
</g>
<!-- Node1&#45;&gt;Node3 -->
<g id="edge2_Node000001_Node000003" class="edge">
<title>Node1&#45;&gt;Node3</title>
<g id="a_edge2_Node000001_Node000003"><a xlink:title=" ">
<path fill="none" stroke="#63b8ff" d="M164.5,-56.44C154.84,-47.88 142.95,-37.35 133.09,-28.62"/>
<polygon fill="#63b8ff" stroke="#63b8ff" points="135.67,-26.23 125.87,-22.22 131.03,-31.47 135.67,-26.23"/>
</a>
</g>
</g>
<!-- Node4 -->
<g id="Node000004" class="node">
<title>Node4</title>
<g id="a_Node000004"><a xlink:title=" ">
<polygon fill="#e0e0e0" stroke="#999999" points="207.12,-20.75 158.12,-20.75 158.12,0 207.12,0 207.12,-20.75"/>
<text xml:space="preserve" text-anchor="middle" x="182.62" y="-7.25" font-family="Helvetica,sans-Serif" font-size="10.00">cstdint</text>
</a>
</g>
</g>
<!-- Node1&#45;&gt;Node4 -->
<g id="edge3_Node000001_Node000004" class="edge">
<title>Node1&#45;&gt;Node4</title>
<g id="a_edge3_Node000001_Node000004"><a xlink:title=" ">
<path fill="none" stroke="#63b8ff" d="M182.62,-56.44C182.62,-49.1 182.62,-40.32 182.62,-32.46"/>
<polygon fill="#63b8ff" stroke="#63b8ff" points="186.13,-32.73 182.63,-22.73 179.13,-32.73 186.13,-32.73"/>
</a>
</g>
</g>
<!-- Node5 -->
<g id="Node000005" class="node">
<title>Node5</title>
<g id="a_Node000005"><a xlink:title=" ">
<polygon fill="#e0e0e0" stroke="#999999" points="261.75,-20.75 225.5,-20.75 225.5,0 261.75,0 261.75,-20.75"/>
<text xml:space="preserve" text-anchor="middle" x="243.62" y="-7.25" font-family="Helvetica,sans-Serif" font-size="10.00">new</text>
</a>
</g>
</g>
<!-- Node1&#45;&gt;Node5 -->
<g id="edge4_Node000001_Node000005" class="edge">
<title>Node1&#45;&gt;Node5</title>
<g id="a_edge4_Node000001_Node000005"><a xlink:title=" ">
<path fill="none" stroke="#63b8ff" d="M198.65,-56.44C207.02,-48.06 217.28,-37.78 225.88,-29.16"/>
<polygon fill="#63b8ff" stroke="#63b8ff" points="228.15,-31.84 232.73,-22.29 223.19,-26.89 228.15,-31.84"/>
</a>
</g>
</g>
<!-- Node6 -->
<g id="Node000006" class="node">
<title>Node6</title>
<g id="a_Node000006"><a xlink:title=" ">
<polygon fill="#e0e0e0" stroke="#999999" points="323.88,-20.75 279.38,-20.75 279.38,0 323.88,0 323.88,-20.75"/>
<text xml:space="preserve" text-anchor="middle" x="301.62" y="-7.25" font-family="Helvetica,sans-Serif" font-size="10.00">utility</text>
</a>
</g>
</g>
<!-- Node1&#45;&gt;Node6 -->
<g id="edge5_Node000001_Node000006" class="edge">
<title>Node1&#45;&gt;Node6</title>
<g id="a_edge5_Node000001_Node000006"><a xlink:title=" ">
<path fill="none" stroke="#63b8ff" d="M214.2,-56.28C232.39,-46.94 255.08,-35.28 272.79,-26.19"/>
<polygon fill="#63b8ff" stroke="#63b8ff" points="273.92,-29.54 281.22,-21.86 270.72,-23.31 273.92,-29.54"/>
</a>
</g>
</g>
</g>
</svg>
