<?xml version="1.0" encoding="UTF-8" standalone="no"?>
<!DOCTYPE svg PUBLIC "-//W3C//DTD SVG 1.1//EN"
 "http://www.w3.org/Graphics/SVG/1.1/DTD/svg11.dtd">
<!-- Generated by graphviz version 14.1.5 (0)
 -->
<!-- Title: Source/TactixCore/Public/Foundation/TactixPool.h Pages: 1 -->
<svg width="437pt" height="155pt"
 viewBox="0.00 0.00 437.00 155.00" xmlns="http://www.w3.org/2000/svg" xmlns:xlink="http://www.w3.org/1999/xlink">
<g id="graph0" class="graph" transform="scale(1 1) rotate(0) translate(4 151)">
<title>Source/TactixCore/Public/Foundation/TactixPool.h</title>
<!-- Node1 -->
<g id="Node000001" class="node">
<title>Node1</title>
<g id="a_Node000001"><a xlink:title="Fixed&#45;capacity pool allocator with per&#45;slot generation tracking.">
<polygon fill="#999999" stroke="#666666" points="267.25,-147 132,-147 132,-113.5 267.25,-113.5 267.25,-147"/>
<text xml:space="preserve" text-anchor="start" x="140" y="-133.5" font-family="Helvetica,sans-Serif" font-size="10.00">Source/TactixCore/Public</text>
<text xml:space="preserve" text-anchor="middle" x="199.62" y="-120.75" font-family="Helvetica,sans-Serif" font-size="10.00">/Foundation/TactixPool.h</text>
</a>
</g>
</g>
<!-- Node2 -->
<g id="Node000002" class="node">
<title>Node2</title>
<g id="a_Node000002"><a xlink:href="TactixApi_8h.html" target="_top" xlink:title="Export macros, compiler attributes and version constants shared by every Tactix module.">
<polygon fill="white" stroke="#666666" points="69.25,-20.75 0,-20.75 0,0 69.25,0 69.25,-20.75"/>
<text xml:space="preserve" text-anchor="middle" x="34.62" y="-7.25" font-family="Helvetica,sans-Serif" font-size="10.00">TactixApi.h</text>
</a>
</g>
</g>
<!-- Node1&#45;&gt;Node2 -->
<g id="edge1_Node000001_Node000002" class="edge">
<title>Node1&#45;&gt;Node2</title>
<g id="a_edge1_Node000001_Node000002"><a xlink:title=" ">
<path fill="none" stroke="#63b8ff" d="M131.53,-118.25C86.86,-109.48 34.28,-95.66 20.62,-77.5 10.51,-64.05 16.13,-44.91 23.02,-30.68"/>
<polygon fill="#63b8ff" stroke="#63b8ff" points="25.89,-32.73 27.58,-22.27 19.74,-29.39 25.89,-32.73"/>
</a>
</g>
</g>
<!-- Node3 -->
<g id="Node000003" class="node">
<title>Node3</title>
<g id="a_Node000003"><a xlink:href="TactixHandle_8h.html" target="_top" xlink:title="Type&#45;safe generational handle: the only sanctioned way to reference a pooled object across frames.">
<polygon fill="white" stroke="#666666" points="117.62,-77.5 29.62,-77.5 29.62,-56.75 117.62,-56.75 117.62,-77.5"/>
<text xml:space="preserve" text-anchor="middle" x="73.62" y="-64" font-family="Helvetica,sans-Serif" font-size="10.00">TactixHandle.h</text>
</a>
</g>
</g>
<!-- Node1&#45;&gt;Node3 -->
<g id="edge2_Node000001_Node000003" class="edge">
<title>Node1&#45;&gt;Node3</title>
<g id="a_edge2_Node000001_Node000003"><a xlink:title=" ">
<path fill="none" stroke="#63b8ff" d="M166.19,-113.03C146.93,-103.69 122.91,-92.03 104.16,-82.94"/>
<polygon fill="#63b8ff" stroke="#63b8ff" points="105.69,-79.79 95.17,-78.58 102.64,-86.09 105.69,-79.79"/>
</a>
</g>
</g>
<!-- Node4 -->
<g id="Node000004" class="node">
<title>Node4</title>
<g id="a_Node000004"><a xlink:title=" ">
<polygon fill="#e0e0e0" stroke="#999999" points="153.12,-20.75 104.12,-20.75 104.12,0 153.12,0 153.12,-20.75"/>
<text xml:space="preserve" text-anchor="middle" x="128.62" y="-7.25" font-family="Helvetica,sans-Serif" font-size="10.00">cstdint</text>
</a>
</g>
</g>
<!-- Node1&#45;&gt;Node4 -->
<g id="edge6_Node000001_Node000004" class="edge">
<title>Node1&#45;&gt;Node4</title>
<g id="a_edge6_Node000001_Node000004"><a xlink:title=" ">
<path fill="none" stroke="#63b8ff" d="M188.18,-113.2C181.14,-103.11 172.07,-89.73 164.62,-77.5 155.28,-62.15 145.59,-44.21 138.62,-30.89"/>
<polygon fill="#63b8ff" stroke="#63b8ff" points="141.87,-29.57 134.17,-22.3 135.66,-32.79 141.87,-29.57"/>
</a>
</g>
</g>
<!-- Node5 -->
<g id="Node000005" class="node">
<title>Node5</title>
<g id="a_Node000005"><a xlink:title=" ">
<polygon fill="#e0e0e0" stroke="#999999" points="225.62,-77.5 173.62,-77.5 173.62,-56.75 225.62,-56.75 225.62,-77.5"/>
<text xml:space="preserve" text-anchor="middle" x="199.62" y="-64" font-family="Helvetica,sans-Serif" font-size="10.00">cstddef</text>
</a>
</g>
</g>
<!-- Node1&#45;&gt;Node5 -->
<g id="edge5_Node000001_Node000005" class="edge">
<title>Node1&#45;&gt;Node5</title>
<g id="a_edge5_Node000001_Node000005"><a xlink:title=" ">
<path fill="none" stroke="#63b8ff" d="M199.62,-113.19C199.62,-105.85 199.62,-97.07 199.62,-89.21"/>
<polygon fill="#63b8ff" stroke="#63b8ff" points="203.13,-89.48 199.63,-79.48 196.13,-89.48 203.13,-89.48"/>
</a>
</g>
</g>
<!-- Node6 -->
<g id="Node000006" class="node">
<title>Node6</title>
<g id="a_Node000006"><a xlink:title=" ">
<polygon fill="#e0e0e0" stroke="#999999" points="279.75,-77.5 243.5,-77.5 243.5,-56.75 279.75,-56.75 279.75,-77.5"/>
<text xml:space="preserve" text-anchor="middle" x="261.62" y="-64" font-family="Helvetica,sans-Serif" font-size="10.00">new</text>
</a>
</g>
</g>
<!-- Node1&#45;&gt;Node6 -->
<g id="edge7_Node000001_Node000006" class="edge">
<title>Node1&#45;&gt;Node6</title>
<g id="a_edge7_Node000001_Node000006"><a xlink:title=" ">
<path fill="none" stroke="#63b8ff" d="M215.91,-113.19C224.42,-104.81 234.84,-94.53 243.59,-85.91"/>
<polygon fill="#63b8ff" stroke="#63b8ff" points="245.9,-88.54 250.56,-79.03 240.99,-83.56 245.9,-88.54"/>
</a>
</g>
</g>
<!-- Node7 -->
<g id="Node000007" class="node">
<title>Node7</title>
<g id="a_Node000007"><a xlink:title=" ">
<polygon fill="#e0e0e0" stroke="#999999" points="341.88,-77.5 297.38,-77.5 297.38,-56.75 341.88,-56.75 341.88,-77.5"/>
<text xml:space="preserve" text-anchor="middle" x="319.62" y="-64" font-family="Helvetica,sans-Serif" font-size="10.00">utility</text>
</a>
</g>
</g>
<!-- Node1&#45;&gt;Node7 -->
<g id="edge8_Node000001_Node000007" class="edge">
<title>Node1&#45;&gt;Node7</title>
<g id="a_edge8_Node000001_Node000007"><a xlink:title=" ">
<path fill="none" stroke="#63b8ff" d="M231.47,-113.03C249.72,-103.73 272.48,-92.14 290.3,-83.06"/>
<polygon fill="#63b8ff" stroke="#63b8ff" points="291.73,-86.26 299.06,-78.6 288.56,-80.02 291.73,-86.26"/>
</a>
</g>
</g>
<!-- Node8 -->
<g id="Node000008" class="node">
<title>Node8</title>
<g id="a_Node000008"><a xlink:title=" ">
<polygon fill="#e0e0e0" stroke="#999999" points="428.88,-77.5 360.38,-77.5 360.38,-56.75 428.88,-56.75 428.88,-77.5"/>
<text xml:space="preserve" text-anchor="middle" x="394.62" y="-64" font-family="Helvetica,sans-Serif" font-size="10.00">type_traits</text>
</a>
</g>
</g>
<!-- Node1&#45;&gt;Node8 -->
<g id="edge9_Node000001_Node000008" class="edge">
<title>Node1&#45;&gt;Node8</title>
<g id="a_edge9_Node000001_Node000008"><a xlink:title=" ">
<path fill="none" stroke="#63b8ff" d="M251.37,-113.03C282.99,-103.12 322.9,-90.61 352.57,-81.31"/>
<polygon fill="#63b8ff" stroke="#63b8ff" points="353.45,-84.7 361.95,-78.37 351.36,-78.02 353.45,-84.7"/>
</a>
</g>
</g>
<!-- Node3&#45;&gt;Node2 -->
<g id="edge3_Node000003_Node000002" class="edge">
<title>Node3&#45;&gt;Node2</title>
<g id="a_edge3_Node000003_Node000002"><a xlink:title=" ">
<path fill="none" stroke="#63b8ff" d="M66.65,-56.34C61.49,-49.1 54.31,-39.01 48.05,-30.22"/>
<polygon fill="#63b8ff" stroke="#63b8ff" points="51.07,-28.43 42.42,-22.31 45.37,-32.49 51.07,-28.43"/>
</a>
</g>
</g>
<!-- Node3&#45;&gt;Node4 -->
<g id="edge4_Node000003_Node000004" class="edge">
<title>Node3&#45;&gt;Node4</title>
<g id="a_edge4_Node000003_Node000004"><a xlink:title=" ">
<path fill="none" stroke="#63b8ff" d="M83.46,-56.34C91.04,-48.78 101.74,-38.14 110.82,-29.1"/>
<polygon fill="#63b8ff" stroke="#63b8ff" points="113.19,-31.68 117.8,-22.15 108.25,-26.72 113.19,-31.68"/>
</a>
</g>
</g>
</g>
</svg>
