<?xml version="1.0" encoding="UTF-8" standalone="no"?>
<!DOCTYPE svg PUBLIC "-//W3C//DTD SVG 1.1//EN"
 "http://www.w3.org/Graphics/SVG/1.1/DTD/svg11.dtd">
<!-- Generated by graphviz version 14.1.5 (0)
 -->
<!-- Title: Source/TactixSystems/Private/TactixSystemsModule.cpp Pages: 1 -->
<svg width="484pt" height="155pt"
 viewBox="0.00 0.00 484.00 155.00" xmlns="http://www.w3.org/2000/svg" xmlns:xlink="http://www.w3.org/1999/xlink">
<g id="graph0" class="graph" transform="scale(1 1) rotate(0) translate(4 151)">
<title>Source/TactixSystems/Private/TactixSystemsModule.cpp</title>
<!-- Node1 -->
<g id="Node000001" class="node">
<title>Node1</title>
<g id="a_Node000001"><a xlink:title="Implements the TactixSystems module lifecycle (logging only).">
<polygon fill="#999999" stroke="#666666" points="270.25,-147 87,-147 87,-113.5 270.25,-113.5 270.25,-147"/>
<text xml:space="preserve" text-anchor="start" x="95" y="-133.5" font-family="Helvetica,sans-Serif" font-size="10.00">Source/TactixSystems</text>
<text xml:space="preserve" text-anchor="middle" x="178.62" y="-120.75" font-family="Helvetica,sans-Serif" font-size="10.00">/Private/TactixSystemsModule.cpp</text>
</a>
</g>
</g>
<!-- Node2 -->
<g id="Node000002" class="node">
<title>Node2</title>
<g id="a_Node000002"><a xlink:href="TactixSystems_8h.html" target="_top" xlink:title="Unreal&#45;facing module object for TactixSystems (L3 behaviour systems).">
<polygon fill="white" stroke="#666666" points="174.38,-77.5 78.88,-77.5 78.88,-56.75 174.38,-56.75 174.38,-77.5"/>
<text xml:space="preserve" text-anchor="middle" x="126.62" y="-64" font-family="Helvetica,sans-Serif" font-size="10.00">TactixSystems.h</text>
</a>
</g>
</g>
<!-- Node1&#45;&gt;Node2 -->
<g id="edge1_Node000001_Node000002" class="edge">
<title>Node1&#45;&gt;Node2</title>
<g id="a_edge1_Node000001_Node000002"><a xlink:title=" ">
<path fill="none" stroke="#63b8ff" d="M164.96,-113.19C158.05,-105.07 149.63,-95.17 142.44,-86.72"/>
<polygon fill="#63b8ff" stroke="#63b8ff" points="145.12,-84.47 135.98,-79.12 139.79,-89 145.12,-84.47"/>
</a>
</g>
</g>
<!-- Node5 -->
<g id="Node000005" class="node">
<title>Node5</title>
<g id="a_Node000005"><a xlink:href="TactixCore_8h.html" target="_top" xlink:title="Unreal&#45;facing entry point for the TactixCore module: the shared log category and the module lifecycle...">
<polygon fill="white" stroke="#666666" points="268.62,-77.5 192.62,-77.5 192.62,-56.75 268.62,-56.75 268.62,-77.5"/>
<text xml:space="preserve" text-anchor="middle" x="230.62" y="-64" font-family="Helvetica,sans-Serif" font-size="10.00">TactixCore.h</text>
</a>
</g>
</g>
<!-- Node1&#45;&gt;Node5 -->
<g id="edge4_Node000001_Node000005" class="edge">
<title>Node1&#45;&gt;Node5</title>
<g id="a_edge4_Node000001_Node000005"><a xlink:title=" ">
<path fill="none" stroke="#63b8ff" d="M192.29,-113.19C199.2,-105.07 207.62,-95.17 214.81,-86.72"/>
<polygon fill="#63b8ff" stroke="#63b8ff" points="217.46,-89 221.27,-79.12 212.13,-84.47 217.46,-89"/>
</a>
</g>
</g>
<!-- Node3 -->
<g id="Node000003" class="node">
<title>Node3</title>
<g id="a_Node000003"><a xlink:title=" ">
<polygon fill="#e0e0e0" stroke="#999999" points="87.25,-20.75 0,-20.75 0,0 87.25,0 87.25,-20.75"/>
<text xml:space="preserve" text-anchor="middle" x="43.62" y="-7.25" font-family="Helvetica,sans-Serif" font-size="10.00">CoreMinimal.h</text>
</a>
</g>
</g>
<!-- Node2&#45;&gt;Node3 -->
<g id="edge2_Node000002_Node000003" class="edge">
<title>Node2&#45;&gt;Node3</title>
<g id="a_edge2_Node000002_Node000003"><a xlink:title=" ">
<path fill="none" stroke="#63b8ff" d="M111.79,-56.34C99.51,-48.24 81.84,-36.58 67.57,-27.17"/>
<polygon fill="#63b8ff" stroke="#63b8ff" points="69.87,-24.5 59.6,-21.91 66.02,-30.34 69.87,-24.5"/>
</a>
</g>
</g>
<!-- Node4 -->
<g id="Node000004" class="node">
<title>Node4</title>
<g id="a_Node000004"><a xlink:title=" ">
<polygon fill="#e0e0e0" stroke="#999999" points="252.25,-20.75 105,-20.75 105,0 252.25,0 252.25,-20.75"/>
<text xml:space="preserve" text-anchor="middle" x="178.62" y="-7.25" font-family="Helvetica,sans-Serif" font-size="10.00">Modules/ModuleManager.h</text>
</a>
</g>
</g>
<!-- Node2&#45;&gt;Node4 -->
<g id="edge3_Node000002_Node000004" class="edge">
<title>Node2&#45;&gt;Node4</title>
<g id="a_edge3_Node000002_Node000004"><a xlink:title=" ">
<path fill="none" stroke="#63b8ff" d="M135.92,-56.34C143.02,-48.86 153,-38.36 161.53,-29.38"/>
<polygon fill="#63b8ff" stroke="#63b8ff" points="164.02,-31.84 168.37,-22.18 158.94,-27.02 164.02,-31.84"/>
</a>
</g>
</g>
<!-- Node5&#45;&gt;Node3 -->
<g id="edge5_Node000005_Node000003" class="edge">
<title>Node5&#45;&gt;Node3</title>
<g id="a_edge5_Node000005_Node000003"><a xlink:title=" ">
<path fill="none" stroke="#63b8ff" d="M197.19,-56.34C166.71,-47.41 121.45,-34.16 87.95,-24.35"/>
<polygon fill="#63b8ff" stroke="#63b8ff" points="89.12,-21.05 78.53,-21.6 87.15,-27.76 89.12,-21.05"/>
</a>
</g>
</g>
<!-- Node5&#45;&gt;Node4 -->
<g id="edge7_Node000005_Node000004" class="edge">
<title>Node5&#45;&gt;Node4</title>
<g id="a_edge7_Node000005_Node000004"><a xlink:title=" ">
<path fill="none" stroke="#63b8ff" d="M221.33,-56.34C214.23,-48.86 204.25,-38.36 195.72,-29.38"/>
<polygon fill="#63b8ff" stroke="#63b8ff" points="198.31,-27.02 188.88,-22.18 193.23,-31.84 198.31,-27.02"/>
</a>
</g>
</g>
<!-- Node6 -->
<g id="Node000006" class="node">
<title>Node6</title>
<g id="a_Node000006"><a xlink:title=" ">
<polygon fill="#e0e0e0" stroke="#999999" points="389,-20.75 270.25,-20.75 270.25,0 389,0 389,-20.75"/>
<text xml:space="preserve" text-anchor="middle" x="329.62" y="-7.25" font-family="Helvetica,sans-Serif" font-size="10.00">Logging/LogMacros.h</text>
</a>
</g>
</g>
<!-- Node5&#45;&gt;Node6 -->
<g id="edge6_Node000005_Node000006" class="edge">
<title>Node5&#45;&gt;Node6</title>
<g id="a_edge6_Node000005_Node000006"><a xlink:title=" ">
<path fill="none" stroke="#63b8ff" d="M248.32,-56.34C263.25,-48.08 284.86,-36.13 302.05,-26.63"/>
<polygon fill="#63b8ff" stroke="#63b8ff" points="303.7,-29.71 310.75,-21.81 300.31,-23.59 303.7,-29.71"/>
</a>
</g>
</g>
<!-- Node7 -->
<g id="Node000007" class="node">
<title>Node7</title>
<g id="a_Node000007"><a xlink:href="TactixApi_8h.html" target="_top" xlink:title="Export macros, compiler attributes and version constants shared by every Tactix module.">
<polygon fill="white" stroke="#666666" points="476.25,-20.75 407,-20.75 407,0 476.25,0 476.25,-20.75"/>
<text xml:space="preserve" text-anchor="middle" x="441.62" y="-7.25" font-family="Helvetica,sans-Serif" font-size="10.00">TactixApi.h</text>
</a>
</g>
</g>
<!-- Node5&#45;&gt;Node7 -->
<g id="edge8_Node000005_Node000007" class="edge">
<title>Node5&#45;&gt;Node7</title>
<g id="a_edge8_Node000005_Node000007"><a xlink:title=" ">
<path fill="none" stroke="#63b8ff" d="M268.35,-56.34C304.06,-47.07 357.74,-33.14 395.87,-23.25"/>
<polygon fill="#63b8ff" stroke="#63b8ff" points="396.42,-26.72 405.22,-20.82 394.66,-19.95 396.42,-26.72"/>
</a>
</g>
</g>
</g>
</svg>
