<?xml version="1.0" encoding="UTF-8" standalone="no"?>
<!DOCTYPE svg PUBLIC "-//W3C//DTD SVG 1.1//EN"
 "http://www.w3.org/Graphics/SVG/1.1/DTD/svg11.dtd">
<!-- Generated by graphviz version 14.1.5 (0)
 -->
<!-- Title: Source/TactixDebug/Private/TactixDebugModule.cpp Pages: 1 -->
<svg width="754pt" height="155pt"
 viewBox="0.00 0.00 754.00 155.00" xmlns="http://www.w3.org/2000/svg" xmlns:xlink="http://www.w3.org/1999/xlink">
<g id="graph0" class="graph" transform="scale(1 1) rotate(0) translate(4 151)">
<title>Source/TactixDebug/Private/TactixDebugModule.cpp</title>
<!-- Node1 -->
<g id="Node000001" class="node">
<title>Node1</title>
<g id="a_Node000001"><a xlink:title="Implements the TactixDebug module: registering and removing the Gameplay Debugger category.">
<polygon fill="#999999" stroke="#666666" points="513,-147 340.25,-147 340.25,-113.5 513,-113.5 513,-147"/>
<text xml:space="preserve" text-anchor="start" x="348.25" y="-133.5" font-family="Helvetica,sans-Serif" font-size="10.00">Source/TactixDebug</text>
<text xml:space="preserve" text-anchor="middle" x="426.62" y="-120.75" font-family="Helvetica,sans-Serif" font-size="10.00">/Private/TactixDebugModule.cpp</text>
</a>
</g>
</g>
<!-- Node2 -->
<g id="Node000002" class="node">
<title>Node2</title>
<g id="a_Node000002"><a xlink:href="TactixDebug_8h.html" target="_top" xlink:title="Module object for TactixDebug, the editor/development tooling layer.">
<polygon fill="white" stroke="#666666" points="389.12,-77.5 304.12,-77.5 304.12,-56.75 389.12,-56.75 389.12,-77.5"/>
<text xml:space="preserve" text-anchor="middle" x="346.62" y="-64" font-family="Helvetica,sans-Serif" font-size="10.00">TactixDebug.h</text>
</a>
</g>
</g>
<!-- Node1&#45;&gt;Node2 -->
<g id="edge1_Node000001_Node000002" class="edge">
<title>Node1&#45;&gt;Node2</title>
<g id="a_edge1_Node000001_Node000002"><a xlink:title=" ">
<path fill="none" stroke="#63b8ff" d="M405.61,-113.19C394.18,-104.46 380.06,-93.67 368.5,-84.84"/>
<polygon fill="#63b8ff" stroke="#63b8ff" points="370.78,-82.18 360.71,-78.89 366.53,-87.74 370.78,-82.18"/>
</a>
</g>
</g>
<!-- Node5 -->
<g id="Node000005" class="node">
<title>Node5</title>
<g id="a_Node000005"><a xlink:href="TactixCore_8h.html" target="_top" xlink:title="Unreal&#45;facing entry point for the TactixCore module: the shared log category and the module lifecycle...">
<polygon fill="white" stroke="#666666" points="285.62,-77.5 209.62,-77.5 209.62,-56.75 285.62,-56.75 285.62,-77.5"/>
<text xml:space="preserve" text-anchor="middle" x="247.62" y="-64" font-family="Helvetica,sans-Serif" font-size="10.00">TactixCore.h</text>
</a>
</g>
</g>
<!-- Node1&#45;&gt;Node5 -->
<g id="edge4_Node000001_Node000005" class="edge">
<title>Node1&#45;&gt;Node5</title>
<g id="a_edge4_Node000001_Node000005"><a xlink:title=" ">
<path fill="none" stroke="#63b8ff" d="M379.13,-113.03C350.36,-103.21 314.11,-90.83 286.96,-81.56"/>
<polygon fill="#63b8ff" stroke="#63b8ff" points="288.32,-78.32 277.73,-78.4 286.06,-84.95 288.32,-78.32"/>
</a>
</g>
</g>
<!-- Node8 -->
<g id="Node000008" class="node">
<title>Node8</title>
<g id="a_Node000008"><a xlink:href="FTactixGameplayDebuggerCategory_8h.html" target="_top" xlink:title="Tactix category for Unreal&#39;s built&#45;in Gameplay Debugger.">
<polygon fill="white" stroke="#666666" points="606.12,-77.5 407.12,-77.5 407.12,-56.75 606.12,-56.75 606.12,-77.5"/>
<text xml:space="preserve" text-anchor="middle" x="506.62" y="-64" font-family="Helvetica,sans-Serif" font-size="10.00">FTactixGameplayDebuggerCategory.h</text>
</a>
</g>
</g>
<!-- Node1&#45;&gt;Node8 -->
<g id="edge9_Node000001_Node000008" class="edge">
<title>Node1&#45;&gt;Node8</title>
<g id="a_edge9_Node000001_Node000008"><a xlink:title=" ">
<path fill="none" stroke="#63b8ff" d="M447.64,-113.19C459.07,-104.46 473.19,-93.67 484.75,-84.84"/>
<polygon fill="#63b8ff" stroke="#63b8ff" points="486.72,-87.74 492.54,-78.89 482.47,-82.18 486.72,-87.74"/>
</a>
</g>
</g>
<!-- Node10 -->
<g id="Node000010" class="node">
<title>Node10</title>
<g id="a_Node000010"><a xlink:title=" ">
<polygon fill="#e0e0e0" stroke="#999999" points="745.5,-77.5 623.75,-77.5 623.75,-56.75 745.5,-56.75 745.5,-77.5"/>
<text xml:space="preserve" text-anchor="middle" x="684.62" y="-64" font-family="Helvetica,sans-Serif" font-size="10.00">GameplayDebugger.h</text>
</a>
</g>
</g>
<!-- Node1&#45;&gt;Node10 -->
<g id="edge12_Node000001_Node000010" class="edge">
<title>Node1&#45;&gt;Node10</title>
<g id="a_edge12_Node000001_Node000010"><a xlink:title=" ">
<path fill="none" stroke="#63b8ff" d="M495.09,-113.03C538.11,-102.84 592.76,-89.89 632.31,-80.52"/>
<polygon fill="#63b8ff" stroke="#63b8ff" points="632.91,-83.98 641.83,-78.26 631.29,-77.16 632.91,-83.98"/>
</a>
</g>
</g>
<!-- Node3 -->
<g id="Node000003" class="node">
<title>Node3</title>
<g id="a_Node000003"><a xlink:title=" ">
<polygon fill="#e0e0e0" stroke="#999999" points="476.25,-20.75 389,-20.75 389,0 476.25,0 476.25,-20.75"/>
<text xml:space="preserve" text-anchor="middle" x="432.62" y="-7.25" font-family="Helvetica,sans-Serif" font-size="10.00">CoreMinimal.h</text>
</a>
</g>
</g>
<!-- Node2&#45;&gt;Node3 -->
<g id="edge2_Node000002_Node000003" class="edge">
<title>Node2&#45;&gt;Node3</title>
<g id="a_edge2_Node000002_Node000003"><a xlink:title=" ">
<path fill="none" stroke="#63b8ff" d="M362,-56.34C374.72,-48.24 393.03,-36.58 407.82,-27.17"/>
<polygon fill="#63b8ff" stroke="#63b8ff" points="409.55,-30.21 416.11,-21.89 405.79,-24.31 409.55,-30.21"/>
</a>
</g>
</g>
<!-- Node4 -->
<g id="Node000004" class="node">
<title>Node4</title>
<g id="a_Node000004"><a xlink:title=" ">
<polygon fill="#e0e0e0" stroke="#999999" points="371.25,-20.75 224,-20.75 224,0 371.25,0 371.25,-20.75"/>
<text xml:space="preserve" text-anchor="middle" x="297.62" y="-7.25" font-family="Helvetica,sans-Serif" font-size="10.00">Modules/ModuleManager.h</text>
</a>
</g>
</g>
<!-- Node2&#45;&gt;Node4 -->
<g id="edge3_Node000002_Node000004" class="edge">
<title>Node2&#45;&gt;Node4</title>
<g id="a_edge3_Node000002_Node000004"><a xlink:title=" ">
<path fill="none" stroke="#63b8ff" d="M337.86,-56.34C331.18,-48.86 321.77,-38.36 313.74,-29.38"/>
<polygon fill="#63b8ff" stroke="#63b8ff" points="316.6,-27.32 307.32,-22.21 311.38,-31.99 316.6,-27.32"/>
</a>
</g>
</g>
<!-- Node5&#45;&gt;Node3 -->
<g id="edge5_Node000005_Node000003" class="edge">
<title>Node5&#45;&gt;Node3</title>
<g id="a_edge5_Node000005_Node000003"><a xlink:title=" ">
<path fill="none" stroke="#63b8ff" d="M280.7,-56.34C310.86,-47.41 355.64,-34.16 388.77,-24.35"/>
<polygon fill="#63b8ff" stroke="#63b8ff" points="389.48,-27.79 398.07,-21.6 387.49,-21.08 389.48,-27.79"/>
</a>
</g>
</g>
<!-- Node5&#45;&gt;Node4 -->
<g id="edge7_Node000005_Node000004" class="edge">
<title>Node5&#45;&gt;Node4</title>
<g id="a_edge7_Node000005_Node000004"><a xlink:title=" ">
<path fill="none" stroke="#63b8ff" d="M256.56,-56.34C263.39,-48.86 272.99,-38.36 281.18,-29.38"/>
<polygon fill="#63b8ff" stroke="#63b8ff" points="283.58,-31.94 287.74,-22.2 278.41,-27.22 283.58,-31.94"/>
</a>
</g>
</g>
<!-- Node6 -->
<g id="Node000006" class="node">
<title>Node6</title>
<g id="a_Node000006"><a xlink:title=" ">
<polygon fill="#e0e0e0" stroke="#999999" points="206,-20.75 87.25,-20.75 87.25,0 206,0 206,-20.75"/>
<text xml:space="preserve" text-anchor="middle" x="146.62" y="-7.25" font-family="Helvetica,sans-Serif" font-size="10.00">Logging/LogMacros.h</text>
</a>
</g>
</g>
<!-- Node5&#45;&gt;Node6 -->
<g id="edge6_Node000005_Node000006" class="edge">
<title>Node5&#45;&gt;Node6</title>
<g id="a_edge6_Node000005_Node000006"><a xlink:title=" ">
<path fill="none" stroke="#63b8ff" d="M229.57,-56.34C214.2,-48.01 191.88,-35.91 174.27,-26.36"/>
<polygon fill="#63b8ff" stroke="#63b8ff" points="176.32,-23.49 165.86,-21.8 172.98,-29.64 176.32,-23.49"/>
</a>
</g>
</g>
<!-- Node7 -->
<g id="Node000007" class="node">
<title>Node7</title>
<g id="a_Node000007"><a xlink:href="TactixApi_8h.html" target="_top" xlink:title="Export macros, compiler attributes and version constants shared by every Tactix module.">
<polygon fill="white" stroke="#666666" points="69.25,-20.75 0,-20.75 0,0 69.25,0 69.25,-20.75"/>
<text xml:space="preserve" text-anchor="middle" x="34.62" y="-7.25" font-family="Helvetica,sans-Serif" font-size="10.00">TactixApi.h</text>
</a>
</g>
</g>
<!-- Node5&#45;&gt;Node7 -->
<g id="edge8_Node000005_Node000007" class="edge">
<title>Node5&#45;&gt;Node7</title>
<g id="a_edge8_Node000005_Node000007"><a xlink:title=" ">
<path fill="none" stroke="#63b8ff" d="M209.54,-56.34C173.39,-47.04 118.98,-33.06 80.46,-23.16"/>
<polygon fill="#63b8ff" stroke="#63b8ff" points="81.57,-19.83 71.02,-20.73 79.83,-26.61 81.57,-19.83"/>
</a>
</g>
</g>
<!-- Node8&#45;&gt;Node3 -->
<g id="edge10_Node000008_Node000003" class="edge">
<title>Node8&#45;&gt;Node3</title>
<g id="a_edge10_Node000008_Node000003"><a xlink:title=" ">
<path fill="none" stroke="#63b8ff" d="M493.4,-56.34C482.66,-48.4 467.3,-37.03 454.71,-27.71"/>
<polygon fill="#63b8ff" stroke="#63b8ff" points="457.08,-25.11 446.96,-21.98 452.91,-30.74 457.08,-25.11"/>
</a>
</g>
</g>
<!-- Node9 -->
<g id="Node000009" class="node">
<title>Node9</title>
<g id="a_Node000009"><a xlink:title=" ">
<polygon fill="#e0e0e0" stroke="#999999" points="659.25,-20.75 494,-20.75 494,0 659.25,0 659.25,-20.75"/>
<text xml:space="preserve" text-anchor="middle" x="576.62" y="-7.25" font-family="Helvetica,sans-Serif" font-size="10.00">GameplayDebuggerCategory.h</text>
</a>
</g>
</g>
<!-- Node8&#45;&gt;Node9 -->
<g id="edge11_Node000008_Node000009" class="edge">
<title>Node8&#45;&gt;Node9</title>
<g id="a_edge11_Node000008_Node000009"><a xlink:title=" ">
<path fill="none" stroke="#63b8ff" d="M519.14,-56.34C529.19,-48.47 543.54,-37.25 555.38,-27.99"/>
<polygon fill="#63b8ff" stroke="#63b8ff" points="557.31,-30.93 563.03,-22.01 552.99,-25.41 557.31,-30.93"/>
</a>
</g>
</g>
</g>
</svg>
