<?xml version="1.0" encoding="UTF-8" standalone="no"?>
<!DOCTYPE svg PUBLIC "-//W3C//DTD SVG 1.1//EN"
 "http://www.w3.org/Graphics/SVG/1.1/DTD/svg11.dtd">
<!-- Generated by graphviz version 14.1.5 (0)
 -->
<!-- Title: Source/TactixCore/Public/Foundation/TactixHandle.h Pages: 1 -->
<svg width="156pt" height="98pt"
 viewBox="0.00 0.00 156.00 98.00" xmlns="http://www.w3.org/2000/svg" xmlns:xlink="http://www.w3.org/1999/xlink">
<g id="graph0" class="graph" transform="scale(1 1) rotate(0) translate(4 94.25)">
<title>Source/TactixCore/Public/Foundation/TactixHandle.h</title>
<!-- Node1 -->
<g id="Node000001" class="node">
<title>Node1</title>
<g id="a_Node000001"><a xlink:title="Type&#45;safe generational handle: the only sanctioned way to reference a pooled object across frames.">
<polygon fill="#999999" stroke="#666666" points="148,-90.25 0,-90.25 0,-56.75 148,-56.75 148,-90.25"/>
<text xml:space="preserve" text-anchor="start" x="8" y="-76.75" font-family="Helvetica,sans-Serif" font-size="10.00">Source/TactixCore/Public</text>
<text xml:space="preserve" text-anchor="middle" x="74" y="-64" font-family="Helvetica,sans-Serif" font-size="10.00">/Foundation/TactixHandle.h</text>
</a>
</g>
</g>
<!-- Node2 -->
<g id="Node000002" class="node">
<title>Node2</title>
<g id="a_Node000002"><a xlink:href="TactixApi_8h.html" target="_top" xlink:title="Export macros, compiler attributes and version constants shared by every Tactix module.">
<polygon fill="white" stroke="#666666" points="70.62,-20.75 1.38,-20.75 1.38,0 70.62,0 70.62,-20.75"/>
<text xml:space="preserve" text-anchor="middle" x="36" y="-7.25" font-family="Helvetica,sans-Serif" font-size="10.00">TactixApi.h</text>
</a>
</g>
</g>
<!-- Node1&#45;&gt;Node2 -->
<g id="edge1_Node000001_Node000002" class="edge">
<title>Node1&#45;&gt;Node2</title>
<g id="a_edge1_Node000001_Node000002"><a xlink:title=" ">
<path fill="none" stroke="#63b8ff" d="M64.02,-56.44C59.13,-48.58 53.21,-39.06 48.07,-30.79"/>
<polygon fill="#63b8ff" stroke="#63b8ff" points="51.17,-29.15 42.92,-22.5 45.22,-32.84 51.17,-29.15"/>
</a>
</g>
</g>
<!-- Node3 -->
<g id="Node000003" class="node">
<title>Node3</title>
<g id="a_Node000003"><a xlink:title=" ">
<polygon fill="#e0e0e0" stroke="#999999" points="137.5,-20.75 88.5,-20.75 88.5,0 137.5,0 137.5,-20.75"/>
<text xml:space="preserve" text-anchor="middle" x="113" y="-7.25" font-family="Helvetica,sans-Serif" font-size="10.00">cstdint</text>
</a>
</g>
</g>
<!-- Node1&#45;&gt;Node3 -->
<g id="edge2_Node000001_Node000003" class="edge">
<title>Node1&#45;&gt;Node3</title>
<g id="a_edge2_Node000001_Node000003"><a xlink:title=" ">
<path fill="none" stroke="#63b8ff" d="M84.25,-56.44C89.26,-48.58 95.34,-39.06 100.61,-30.79"/>
<polygon fill="#63b8ff" stroke="#63b8ff" points="103.48,-32.81 105.91,-22.49 97.58,-29.04 103.48,-32.81"/>
</a>
</g>
</g>
</g>
</svg>
