<?xml version="1.0" encoding="UTF-8" standalone="no"?>
<!DOCTYPE svg PUBLIC "-//W3C//DTD SVG 1.1//EN"
 "http://www.w3.org/Graphics/SVG/1.1/DTD/svg11.dtd">
<!-- Generated by graphviz version 14.1.5 (0)
 -->
<!-- Title: Source/TactixUE/Private/TactixUEModule.cpp Pages: 1 -->
<svg width="484pt" height="155pt"
 viewBox="0.00 0.00 484.00 155.00" xmlns="http://www.w3.org/2000/svg" xmlns:xlink="http://www.w3.org/1999/xlink">
<g id="graph0" class="graph" transform="scale(1 1) rotate(0) translate(4 151)">
<title>Source/TactixUE/Private/TactixUEModule.cpp</title>
<!-- Node1 -->
<g id="Node000001" class="node">
<title>Node1</title>
<g id="a_Node000001"><a xlink:title="Implements the TactixUE module lifecycle (logging only).">
<polygon fill="#999999" stroke="#666666" points="244.38,-147 112.88,-147 112.88,-113.5 244.38,-113.5 244.38,-147"/>
<text xml:space="preserve" text-anchor="start" x="120.88" y="-133.5" font-family="Helvetica,sans-Serif" font-size="10.00">Source/TactixUE/Private</text>
<text xml:space="preserve" text-anchor="middle" x="178.62" y="-120.75" font-family="Helvetica,sans-Serif" font-size="10.00">/TactixUEModule.cpp</text>
</a>
</g>
</g>
<!-- Node2 -->
<g id="Node000002" class="node">
<title>Node2</title>
<g id="a_Node000002"><a xlink:href="TactixUE_8h.html" target="_top" xlink:title="Module object for TactixUE, the engine&#45;integration layer.">
<polygon fill="white" stroke="#666666" points="167.12,-77.5 100.12,-77.5 100.12,-56.75 167.12,-56.75 167.12,-77.5"/>
<text xml:space="preserve" text-anchor="middle" x="133.62" y="-64" font-family="Helvetica,sans-Serif" font-size="10.00">TactixUE.h</text>
</a>
</g>
</g>
<!-- Node1&#45;&gt;Node2 -->
<g id="edge1_Node000001_Node000002" class="edge">
<title>Node1&#45;&gt;Node2</title>
<g id="a_edge1_Node000001_Node000002"><a xlink:title=" ">
<path fill="none" stroke="#63b8ff" d="M166.8,-113.19C160.89,-105.16 153.69,-95.38 147.52,-86.99"/>
<polygon fill="#63b8ff" stroke="#63b8ff" points="150.52,-85.16 141.77,-79.19 144.88,-89.31 150.52,-85.16"/>
</a>
</g>
</g>
<!-- Node5 -->
<g id="Node000005" class="node">
<title>Node5</title>
<g id="a_Node000005"><a xlink:href="TactixCore_8h.html" target="_top" xlink:title="Unreal&#45;facing entry point for the TactixCore module: the shared log category and the module lifecycle...">
<polygon fill="white" stroke="#666666" points="261.62,-77.5 185.62,-77.5 185.62,-56.75 261.62,-56.75 261.62,-77.5"/>
<text xml:space="preserve" text-anchor="middle" x="223.62" y="-64" font-family="Helvetica,sans-Serif" font-size="10.00">TactixCore.h</text>
</a>
</g>
</g>
<!-- Node1&#45;&gt;Node5 -->
<g id="edge4_Node000001_Node000005" class="edge">
<title>Node1&#45;&gt;Node5</title>
<g id="a_edge4_Node000001_Node000005"><a xlink:title=" ">
<path fill="none" stroke="#63b8ff" d="M190.45,-113.19C196.36,-105.16 203.56,-95.38 209.73,-86.99"/>
<polygon fill="#63b8ff" stroke="#63b8ff" points="212.37,-89.31 215.48,-79.19 206.73,-85.16 212.37,-89.31"/>
</a>
</g>
</g>
<!-- Node3 -->
<g id="Node000003" class="node">
<title>Node3</title>
<g id="a_Node000003"><a xlink:title=" ">
<polygon fill="#e0e0e0" stroke="#999999" points="87.25,-20.75 0,-20.75 0,0 87.25,0 87.25,-20.75"/>
<text xml:space="preserve" text-anchor="middle" x="43.62" y="-7.25" font-family="Helvetica,sans-Serif" font-size="10.00">CoreMinimal.h</text>
</a>
</g>
</g>
<!-- Node2&#45;&gt;Node3 -->
<g id="edge2_Node000002_Node000003" class="edge">
<title>Node2&#45;&gt;Node3</title>
<g id="a_edge2_Node000002_Node000003"><a xlink:title=" ">
<path fill="none" stroke="#63b8ff" d="M117.53,-56.34C104.1,-48.16 84.69,-36.36 69.14,-26.9"/>
<polygon fill="#63b8ff" stroke="#63b8ff" points="71.23,-24.07 60.87,-21.87 67.59,-30.05 71.23,-24.07"/>
</a>
</g>
</g>
<!-- Node4 -->
<g id="Node000004" class="node">
<title>Node4</title>
<g id="a_Node000004"><a xlink:title=" ">
<polygon fill="#e0e0e0" stroke="#999999" points="252.25,-20.75 105,-20.75 105,0 252.25,0 252.25,-20.75"/>
<text xml:space="preserve" text-anchor="middle" x="178.62" y="-7.25" font-family="Helvetica,sans-Serif" font-size="10.00">Modules/ModuleManager.h</text>
</a>
</g>
</g>
<!-- Node2&#45;&gt;Node4 -->
<g id="edge3_Node000002_Node000004" class="edge">
<title>Node2&#45;&gt;Node4</title>
<g id="a_edge3_Node000002_Node000004"><a xlink:title=" ">
<path fill="none" stroke="#63b8ff" d="M141.67,-56.34C147.69,-49.02 156.09,-38.79 163.37,-29.94"/>
<polygon fill="#63b8ff" stroke="#63b8ff" points="166.04,-32.2 169.69,-22.25 160.63,-27.75 166.04,-32.2"/>
</a>
</g>
</g>
<!-- Node5&#45;&gt;Node3 -->
<g id="edge5_Node000005_Node000003" class="edge">
<title>Node5&#45;&gt;Node3</title>
<g id="a_edge5_Node000005_Node000003"><a xlink:title=" ">
<path fill="none" stroke="#63b8ff" d="M191.44,-56.34C162.23,-47.45 118.91,-34.27 86.71,-24.48"/>
<polygon fill="#63b8ff" stroke="#63b8ff" points="87.86,-21.17 77.28,-21.61 85.83,-27.87 87.86,-21.17"/>
</a>
</g>
</g>
<!-- Node5&#45;&gt;Node4 -->
<g id="edge7_Node000005_Node000004" class="edge">
<title>Node5&#45;&gt;Node4</title>
<g id="a_edge7_Node000005_Node000004"><a xlink:title=" ">
<path fill="none" stroke="#63b8ff" d="M215.58,-56.34C209.56,-49.02 201.16,-38.79 193.88,-29.94"/>
<polygon fill="#63b8ff" stroke="#63b8ff" points="196.62,-27.75 187.56,-22.25 191.21,-32.2 196.62,-27.75"/>
</a>
</g>
</g>
<!-- Node6 -->
<g id="Node000006" class="node">
<title>Node6</title>
<g id="a_Node000006"><a xlink:title=" ">
<polygon fill="#e0e0e0" stroke="#999999" points="389,-20.75 270.25,-20.75 270.25,0 389,0 389,-20.75"/>
<text xml:space="preserve" text-anchor="middle" x="329.62" y="-7.25" font-family="Helvetica,sans-Serif" font-size="10.00">Logging/LogMacros.h</text>
</a>
</g>
</g>
<!-- Node5&#45;&gt;Node6 -->
<g id="edge6_Node000005_Node000006" class="edge">
<title>Node5&#45;&gt;Node6</title>
<g id="a_edge6_Node000005_Node000006"><a xlink:title=" ">
<path fill="none" stroke="#63b8ff" d="M242.58,-56.34C258.7,-48.01 282.13,-35.91 300.62,-26.36"/>
<polygon fill="#63b8ff" stroke="#63b8ff" points="302.21,-29.47 309.49,-21.77 299,-23.25 302.21,-29.47"/>
</a>
</g>
</g>
<!-- Node7 -->
<g id="Node000007" class="node">
<title>Node7</title>
<g id="a_Node000007"><a xlink:href="TactixApi_8h.html" target="_top" xlink:title="Export macros, compiler attributes and version constants shared by every Tactix module.">
<polygon fill="white" stroke="#666666" points="476.25,-20.75 407,-20.75 407,0 476.25,0 476.25,-20.75"/>
<text xml:space="preserve" text-anchor="middle" x="441.62" y="-7.25" font-family="Helvetica,sans-Serif" font-size="10.00">TactixApi.h</text>
</a>
</g>
</g>
<!-- Node5&#45;&gt;Node7 -->
<g id="edge8_Node000005_Node000007" class="edge">
<title>Node5&#45;&gt;Node7</title>
<g id="a_edge8_Node000005_Node000007"><a xlink:title=" ">
<path fill="none" stroke="#63b8ff" d="M262.1,-56.46C299.45,-47.08 356.16,-32.84 395.82,-22.88"/>
<polygon fill="#63b8ff" stroke="#63b8ff" points="396.46,-26.33 405.31,-20.5 394.75,-19.54 396.46,-26.33"/>
</a>
</g>
</g>
</g>
</svg>
