<?xml version="1.0" encoding="UTF-8" standalone="no"?>
<!DOCTYPE svg PUBLIC "-//W3C//DTD SVG 1.1//EN"
 "http://www.w3.org/Graphics/SVG/1.1/DTD/svg11.dtd">
<!-- Generated by graphviz version 14.1.5 (0)
 -->
<!-- Title: Source/TactixCore/Public/TactixCore.h Pages: 1 -->
<svg width="1094pt" height="111pt"
 viewBox="0.00 0.00 1094.00 111.00" xmlns="http://www.w3.org/2000/svg" xmlns:xlink="http://www.w3.org/1999/xlink">
<g id="graph0" class="graph" transform="scale(1 1) rotate(0) translate(4 107)">
<title>Source/TactixCore/Public/TactixCore.h</title>
<!-- Node1 -->
<g id="Node000001" class="node">
<title>Node1</title>
<g id="a_Node000001"><a xlink:title="Unreal&#45;facing entry point for the TactixCore module: the shared log category and the module lifecycle...">
<polygon fill="#999999" stroke="#666666" points="615.88,-103 480.62,-103 480.62,-69.5 615.88,-69.5 615.88,-103"/>
<text xml:space="preserve" text-anchor="start" x="488.62" y="-89.5" font-family="Helvetica,sans-Serif" font-size="10.00">Source/TactixCore/Public</text>
<text xml:space="preserve" text-anchor="middle" x="548.25" y="-76.75" font-family="Helvetica,sans-Serif" font-size="10.00">/TactixCore.h</text>
</a>
</g>
</g>
<!-- Node2 -->
<g id="Node000002" class="node">
<title>Node2</title>
<g id="a_Node000002"><a xlink:href="TactixCoreModule_8cpp.html" target="_top" xlink:title="Implements the TactixCore module object and defines the shared log category for the whole plugin.">
<polygon fill="white" stroke="#666666" points="140.5,-33.5 0,-33.5 0,0 140.5,0 140.5,-33.5"/>
<text xml:space="preserve" text-anchor="start" x="8" y="-20" font-family="Helvetica,sans-Serif" font-size="10.00">Source/TactixCore/Private</text>
<text xml:space="preserve" text-anchor="middle" x="70.25" y="-7.25" font-family="Helvetica,sans-Serif" font-size="10.00">/TactixCoreModule.cpp</text>
</a>
</g>
</g>
<!-- Node1&#45;&gt;Node2 -->
<g id="edge1_Node000001_Node000002" class="edge">
<title>Node1&#45;&gt;Node2</title>
<g id="a_edge1_Node000001_Node000002"><a xlink:title=" ">
<path fill="none" stroke="#63b8ff" d="M469.42,-76.53C388.97,-67.28 260.59,-51.52 150.25,-33.5 147.18,-33 144.04,-32.47 140.88,-31.91"/>
<polygon fill="#63b8ff" stroke="#63b8ff" points="468.61,-79.96 478.95,-77.62 469.41,-73.01 468.61,-79.96"/>
</a>
</g>
</g>
<!-- Node3 -->
<g id="Node000003" class="node">
<title>Node3</title>
<g id="a_Node000003"><a xlink:href="FTactixAgentProfiler_8cpp.html" target="_top" xlink:title="Implements the timing profiler: cycle&#45;counter sampling, ring storage, and the aggregate queries.">
<polygon fill="white" stroke="#666666" points="331.62,-33.5 158.88,-33.5 158.88,0 331.62,0 331.62,-33.5"/>
<text xml:space="preserve" text-anchor="start" x="166.88" y="-20" font-family="Helvetica,sans-Serif" font-size="10.00">Source/TactixDebug</text>
<text xml:space="preserve" text-anchor="middle" x="245.25" y="-7.25" font-family="Helvetica,sans-Serif" font-size="10.00">/Private/FTactixAgentProfiler.cpp</text>
</a>
</g>
</g>
<!-- Node1&#45;&gt;Node3 -->
<g id="edge2_Node000001_Node000003" class="edge">
<title>Node1&#45;&gt;Node3</title>
<g id="a_edge2_Node000001_Node000003"><a xlink:title=" ">
<path fill="none" stroke="#63b8ff" d="M469.25,-67.65C422.49,-57.23 363.68,-44.13 318.05,-33.97"/>
<polygon fill="#63b8ff" stroke="#63b8ff" points="468.25,-71.01 478.77,-69.77 469.77,-64.18 468.25,-71.01"/>
</a>
</g>
</g>
<!-- Node4 -->
<g id="Node000004" class="node">
<title>Node4</title>
<g id="a_Node000004"><a xlink:href="FTactixDecisionRecorder_8cpp.html" target="_top" xlink:title="Implements the decision ring buffer: recording, history/all queries, and the log dump.">
<polygon fill="white" stroke="#666666" points="544.88,-33.5 349.62,-33.5 349.62,0 544.88,0 544.88,-33.5"/>
<text xml:space="preserve" text-anchor="start" x="357.62" y="-20" font-family="Helvetica,sans-Serif" font-size="10.00">Source/TactixDebug</text>
<text xml:space="preserve" text-anchor="middle" x="447.25" y="-7.25" font-family="Helvetica,sans-Serif" font-size="10.00">/Private/FTactixDecisionRecorder.cpp</text>
</a>
</g>
</g>
<!-- Node1&#45;&gt;Node4 -->
<g id="edge3_Node000001_Node000004" class="edge">
<title>Node1&#45;&gt;Node4</title>
<g id="a_edge3_Node000001_Node000004"><a xlink:title=" ">
<path fill="none" stroke="#63b8ff" d="M514.61,-62.77C500.41,-53.28 484.2,-42.45 471.24,-33.79"/>
<polygon fill="#63b8ff" stroke="#63b8ff" points="512.54,-65.59 522.8,-68.24 516.43,-59.77 512.54,-65.59"/>
</a>
</g>
</g>
<!-- Node5 -->
<g id="Node000005" class="node">
<title>Node5</title>
<g id="a_Node000005"><a xlink:href="TactixDebugModule_8cpp.html" target="_top" xlink:title="Implements the TactixDebug module: registering and removing the Gameplay Debugger category.">
<polygon fill="white" stroke="#666666" points="735.62,-33.5 562.88,-33.5 562.88,0 735.62,0 735.62,-33.5"/>
<text xml:space="preserve" text-anchor="start" x="570.88" y="-20" font-family="Helvetica,sans-Serif" font-size="10.00">Source/TactixDebug</text>
<text xml:space="preserve" text-anchor="middle" x="649.25" y="-7.25" font-family="Helvetica,sans-Serif" font-size="10.00">/Private/TactixDebugModule.cpp</text>
</a>
</g>
</g>
<!-- Node1&#45;&gt;Node5 -->
<g id="edge4_Node000001_Node000005" class="edge">
<title>Node1&#45;&gt;Node5</title>
<g id="a_edge4_Node000001_Node000005"><a xlink:title=" ">
<path fill="none" stroke="#63b8ff" d="M581.89,-62.77C596.09,-53.28 612.3,-42.45 625.26,-33.79"/>
<polygon fill="#63b8ff" stroke="#63b8ff" points="580.07,-59.77 573.7,-68.24 583.96,-65.59 580.07,-59.77"/>
</a>
</g>
</g>
<!-- Node6 -->
<g id="Node000006" class="node">
<title>Node6</title>
<g id="a_Node000006"><a xlink:href="TactixSystemsModule_8cpp.html" target="_top" xlink:title="Implements the TactixSystems module lifecycle (logging only).">
<polygon fill="white" stroke="#666666" points="936.88,-33.5 753.62,-33.5 753.62,0 936.88,0 936.88,-33.5"/>
<text xml:space="preserve" text-anchor="start" x="761.62" y="-20" font-family="Helvetica,sans-Serif" font-size="10.00">Source/TactixSystems</text>
<text xml:space="preserve" text-anchor="middle" x="845.25" y="-7.25" font-family="Helvetica,sans-Serif" font-size="10.00">/Private/TactixSystemsModule.cpp</text>
</a>
</g>
</g>
<!-- Node1&#45;&gt;Node6 -->
<g id="edge5_Node000001_Node000006" class="edge">
<title>Node1&#45;&gt;Node6</title>
<g id="a_edge5_Node000001_Node000006"><a xlink:title=" ">
<path fill="none" stroke="#63b8ff" d="M627.05,-67.34C672.66,-56.97 729.61,-44.03 773.89,-33.97"/>
<polygon fill="#63b8ff" stroke="#63b8ff" points="626.47,-63.88 617.49,-69.51 628.02,-70.71 626.47,-63.88"/>
</a>
</g>
</g>
<!-- Node7 -->
<g id="Node000007" class="node">
<title>Node7</title>
<g id="a_Node000007"><a xlink:href="TactixUEModule_8cpp.html" target="_top" xlink:title="Implements the TactixUE module lifecycle (logging only).">
<polygon fill="white" stroke="#666666" points="1086,-33.5 954.5,-33.5 954.5,0 1086,0 1086,-33.5"/>
<text xml:space="preserve" text-anchor="start" x="962.5" y="-20" font-family="Helvetica,sans-Serif" font-size="10.00">Source/TactixUE/Private</text>
<text xml:space="preserve" text-anchor="middle" x="1020.25" y="-7.25" font-family="Helvetica,sans-Serif" font-size="10.00">/TactixUEModule.cpp</text>
</a>
</g>
</g>
<!-- Node1&#45;&gt;Node7 -->
<g id="edge6_Node000001_Node000007" class="edge">
<title>Node1&#45;&gt;Node7</title>
<g id="a_edge6_Node000001_Node000007"><a xlink:title=" ">
<path fill="none" stroke="#63b8ff" d="M627.14,-76.89C707.64,-67.91 836.05,-52.36 946.25,-33.5 948.84,-33.06 951.48,-32.59 954.14,-32.1"/>
<polygon fill="#63b8ff" stroke="#63b8ff" points="627.16,-73.36 617.61,-77.94 627.93,-80.32 627.16,-73.36"/>
</a>
</g>
</g>
</g>
</svg>
