<?xml version="1.0" encoding="UTF-8" standalone="no"?>
<!DOCTYPE svg PUBLIC "-//W3C//DTD SVG 1.1//EN"
 "http://www.w3.org/Graphics/SVG/1.1/DTD/svg11.dtd">
<!-- Generated by graphviz version 14.1.5 (0)
 -->
<!-- Title: Source/TactixCore/Public/Foundation/TactixCurve.h Pages: 1 -->
<svg width="673pt" height="193pt"
 viewBox="0.00 0.00 673.00 193.00" xmlns="http://www.w3.org/2000/svg" xmlns:xlink="http://www.w3.org/1999/xlink">
<g id="graph0" class="graph" transform="scale(1 1) rotate(0) translate(4 189.25)">
<title>Source/TactixCore/Public/Foundation/TactixCurve.h</title>
<!-- Node1 -->
<g id="Node000001" class="node">
<title>Node1</title>
<g id="a_Node000001"><a xlink:title="Response curves that turn a raw input into a normalised utility score.">
<polygon fill="#999999" stroke="#666666" points="339.62,-185.25 197.62,-185.25 197.62,-151.75 339.62,-151.75 339.62,-185.25"/>
<text xml:space="preserve" text-anchor="start" x="205.62" y="-171.75" font-family="Helvetica,sans-Serif" font-size="10.00">Source/TactixCore/Public</text>
<text xml:space="preserve" text-anchor="middle" x="268.62" y="-159" font-family="Helvetica,sans-Serif" font-size="10.00">/Foundation/TactixCurve.h</text>
</a>
</g>
</g>
<!-- Node2 -->
<g id="Node000002" class="node">
<title>Node2</title>
<g id="a_Node000002"><a xlink:href="TactixCurve_8cpp.html" target="_top" xlink:title=" ">
<polygon fill="white" stroke="#666666" points="153.25,-115.75 0,-115.75 0,-82.25 153.25,-82.25 153.25,-115.75"/>
<text xml:space="preserve" text-anchor="start" x="8" y="-102.25" font-family="Helvetica,sans-Serif" font-size="10.00">Source/TactixCore/Private</text>
<text xml:space="preserve" text-anchor="middle" x="76.62" y="-89.5" font-family="Helvetica,sans-Serif" font-size="10.00">/Foundation/TactixCurve.cpp</text>
</a>
</g>
</g>
<!-- Node1&#45;&gt;Node2 -->
<g id="edge1_Node000001_Node000002" class="edge">
<title>Node1&#45;&gt;Node2</title>
<g id="a_edge1_Node000001_Node000002"><a xlink:title=" ">
<path fill="none" stroke="#63b8ff" d="M212.02,-147.6C183.52,-137.58 149.42,-125.59 122.57,-116.15"/>
<polygon fill="#63b8ff" stroke="#63b8ff" points="210.61,-150.82 221.21,-150.83 212.94,-144.21 210.61,-150.82"/>
</a>
</g>
</g>
<!-- Node3 -->
<g id="Node000003" class="node">
<title>Node3</title>
<g id="a_Node000003"><a xlink:href="FTactixConsideration_8h.html" target="_top" xlink:title="The standard consideration: pull one number out of the context, run it through a response curve.">
<polygon fill="white" stroke="#666666" points="365.88,-115.75 171.38,-115.75 171.38,-82.25 365.88,-82.25 365.88,-115.75"/>
<text xml:space="preserve" text-anchor="start" x="179.38" y="-102.25" font-family="Helvetica,sans-Serif" font-size="10.00">Source/TactixSystems</text>
<text xml:space="preserve" text-anchor="middle" x="268.62" y="-89.5" font-family="Helvetica,sans-Serif" font-size="10.00">/Public/Utility/FTactixConsideration.h</text>
</a>
</g>
</g>
<!-- Node1&#45;&gt;Node3 -->
<g id="edge2_Node000001_Node000003" class="edge">
<title>Node1&#45;&gt;Node3</title>
<g id="a_edge2_Node000001_Node000003"><a xlink:title=" ">
<path fill="none" stroke="#63b8ff" d="M268.62,-140.06C268.62,-131.84 268.62,-123.09 268.62,-115.88"/>
<polygon fill="#63b8ff" stroke="#63b8ff" points="265.13,-139.99 268.63,-149.99 272.13,-139.99 265.13,-139.99"/>
</a>
</g>
</g>
<!-- Node4 -->
<g id="Node000004" class="node">
<title>Node4</title>
<g id="a_Node000004"><a xlink:href="UTactixUtilityAsset_8h.html" target="_top" xlink:title="Designer&#45;facing asset: a named set of scored actions for one decision context.">
<polygon fill="white" stroke="#666666" points="563.38,-115.75 383.88,-115.75 383.88,-82.25 563.38,-82.25 563.38,-115.75"/>
<text xml:space="preserve" text-anchor="start" x="391.88" y="-102.25" font-family="Helvetica,sans-Serif" font-size="10.00">Source/TactixUE/Public</text>
<text xml:space="preserve" text-anchor="middle" x="473.62" y="-89.5" font-family="Helvetica,sans-Serif" font-size="10.00">/DataAssets/UTactixUtilityAsset.h</text>
</a>
</g>
</g>
<!-- Node1&#45;&gt;Node4 -->
<g id="edge3_Node000001_Node000004" class="edge">
<title>Node1&#45;&gt;Node4</title>
<g id="a_edge3_Node000001_Node000004"><a xlink:title=" ">
<path fill="none" stroke="#63b8ff" d="M328.26,-147.86C358.85,-137.79 395.65,-125.67 424.57,-116.15"/>
<polygon fill="#63b8ff" stroke="#63b8ff" points="327.57,-144.41 319.17,-150.86 329.76,-151.06 327.57,-144.41"/>
</a>
</g>
</g>
<!-- Node5 -->
<g id="Node000005" class="node">
<title>Node5</title>
<g id="a_Node000005"><a xlink:href="UTactixBTTask__RunUtility_8cpp.html" target="_top" xlink:title="Implements the utility&#45;selection BT task: snapshot the agent, pick the best action,...">
<polygon fill="white" stroke="#666666" points="455.75,-46.25 299.5,-46.25 299.5,0 455.75,0 455.75,-46.25"/>
<text xml:space="preserve" text-anchor="start" x="307.5" y="-32.75" font-family="Helvetica,sans-Serif" font-size="10.00">Source/TactixUE/Private</text>
<text xml:space="preserve" text-anchor="start" x="307.5" y="-20" font-family="Helvetica,sans-Serif" font-size="10.00">/BehaviorTree/UTactixBTTask</text>
<text xml:space="preserve" text-anchor="middle" x="377.62" y="-7.25" font-family="Helvetica,sans-Serif" font-size="10.00">_RunUtility.cpp</text>
</a>
</g>
</g>
<!-- Node4&#45;&gt;Node5 -->
<g id="edge4_Node000004_Node000005" class="edge">
<title>Node4&#45;&gt;Node5</title>
<g id="a_edge4_Node000004_Node000005"><a xlink:title=" ">
<path fill="none" stroke="#63b8ff" d="M443.78,-75.03C432,-65.97 418.5,-55.58 406.79,-46.57"/>
<polygon fill="#63b8ff" stroke="#63b8ff" points="441.54,-77.72 451.59,-81.05 445.8,-72.17 441.54,-77.72"/>
</a>
</g>
</g>
<!-- Node6 -->
<g id="Node000006" class="node">
<title>Node6</title>
<g id="a_Node000006"><a xlink:href="UTactixUtilityAsset_8cpp.html" target="_top" xlink:title="Implements utility scoring: input extraction, curve building, and the Lewis&#45;compensated action score.">
<polygon fill="white" stroke="#666666" points="665,-39.88 474.25,-39.88 474.25,-6.38 665,-6.38 665,-39.88"/>
<text xml:space="preserve" text-anchor="start" x="482.25" y="-26.38" font-family="Helvetica,sans-Serif" font-size="10.00">Source/TactixUE/Private</text>
<text xml:space="preserve" text-anchor="middle" x="569.62" y="-13.62" font-family="Helvetica,sans-Serif" font-size="10.00">/DataAssets/UTactixUtilityAsset.cpp</text>
</a>
</g>
</g>
<!-- Node4&#45;&gt;Node6 -->
<g id="edge5_Node000004_Node000006" class="edge">
<title>Node4&#45;&gt;Node6</title>
<g id="a_edge5_Node000004_Node000006"><a xlink:title=" ">
<path fill="none" stroke="#63b8ff" d="M503.24,-75.21C518,-63.85 535.51,-50.38 548.84,-40.12"/>
<polygon fill="#63b8ff" stroke="#63b8ff" points="501.45,-72.17 495.66,-81.05 505.71,-77.72 501.45,-72.17"/>
</a>
</g>
</g>
</g>
</svg>
