<?xml version="1.0" encoding="UTF-8" standalone="no"?>
<!DOCTYPE svg PUBLIC "-//W3C//DTD SVG 1.1//EN"
 "http://www.w3.org/Graphics/SVG/1.1/DTD/svg11.dtd">
<!-- Generated by graphviz version 14.1.5 (0)
 -->
<!-- Title: Source/TactixUE/Public/TactixUETypes.h Pages: 1 -->
<svg width="260pt" height="98pt"
 viewBox="0.00 0.00 260.00 98.00" xmlns="http://www.w3.org/2000/svg" xmlns:xlink="http://www.w3.org/1999/xlink">
<g id="graph0" class="graph" transform="scale(1 1) rotate(0) translate(4 94.25)">
<title>Source/TactixUE/Public/TactixUETypes.h</title>
<!-- Node1 -->
<g id="Node000001" class="node">
<title>Node1</title>
<g id="a_Node000001"><a xlink:title="Blueprint&#45;exposed mirrors of Tactix enums and config structs.">
<polygon fill="#999999" stroke="#666666" points="173.75,-90.25 47.5,-90.25 47.5,-56.75 173.75,-56.75 173.75,-90.25"/>
<text xml:space="preserve" text-anchor="start" x="55.5" y="-76.75" font-family="Helvetica,sans-Serif" font-size="10.00">Source/TactixUE/Public</text>
<text xml:space="preserve" text-anchor="middle" x="110.62" y="-64" font-family="Helvetica,sans-Serif" font-size="10.00">/TactixUETypes.h</text>
</a>
</g>
</g>
<!-- Node2 -->
<g id="Node000002" class="node">
<title>Node2</title>
<g id="a_Node000002"><a xlink:title=" ">
<polygon fill="#e0e0e0" stroke="#999999" points="87.25,-20.75 0,-20.75 0,0 87.25,0 87.25,-20.75"/>
<text xml:space="preserve" text-anchor="middle" x="43.62" y="-7.25" font-family="Helvetica,sans-Serif" font-size="10.00">CoreMinimal.h</text>
</a>
</g>
</g>
<!-- Node1&#45;&gt;Node2 -->
<g id="edge1_Node000001_Node000002" class="edge">
<title>Node1&#45;&gt;Node2</title>
<g id="a_edge1_Node000001_Node000002"><a xlink:title=" ">
<path fill="none" stroke="#63b8ff" d="M93.02,-56.44C83.74,-47.97 72.33,-37.56 62.82,-28.89"/>
<polygon fill="#63b8ff" stroke="#63b8ff" points="65.28,-26.39 55.53,-22.24 60.56,-31.56 65.28,-26.39"/>
</a>
</g>
</g>
<!-- Node3 -->
<g id="Node000003" class="node">
<title>Node3</title>
<g id="a_Node000003"><a xlink:title=" ">
<polygon fill="#e0e0e0" stroke="#999999" points="252.25,-20.75 105,-20.75 105,0 252.25,0 252.25,-20.75"/>
<text xml:space="preserve" text-anchor="middle" x="178.62" y="-7.25" font-family="Helvetica,sans-Serif" font-size="10.00">TactixUETypes.generated.h</text>
</a>
</g>
</g>
<!-- Node1&#45;&gt;Node3 -->
<g id="edge2_Node000001_Node000003" class="edge">
<title>Node1&#45;&gt;Node3</title>
<g id="a_edge2_Node000001_Node000003"><a xlink:title=" ">
<path fill="none" stroke="#63b8ff" d="M128.49,-56.44C137.91,-47.97 149.49,-37.56 159.14,-28.89"/>
<polygon fill="#63b8ff" stroke="#63b8ff" points="161.45,-31.52 166.55,-22.23 156.77,-26.31 161.45,-31.52"/>
</a>
</g>
</g>
</g>
</svg>
