<?xml version="1.0" encoding="UTF-8" standalone="no"?>
<!DOCTYPE svg PUBLIC "-//W3C//DTD SVG 1.1//EN"
 "http://www.w3.org/Graphics/SVG/1.1/DTD/svg11.dtd">
<!-- Generated by graphviz version 14.1.5 (0)
 -->
<!-- Title: Source/TactixCore/Public/Foundation/TactixMath.h Pages: 1 -->
<svg width="2298pt" height="358pt"
 viewBox="0.00 0.00 2298.00 358.00" xmlns="http://www.w3.org/2000/svg" xmlns:xlink="http://www.w3.org/1999/xlink">
<g id="graph0" class="graph" transform="scale(1 1) rotate(0) translate(4 353.75)">
<title>Source/TactixCore/Public/Foundation/TactixMath.h</title>
<!-- Node1 -->
<g id="Node000001" class="node">
<title>Node1</title>
<g id="a_Node000001"><a xlink:title="Small, engine&#45;agnostic vector and scalar math used across Tactix.">
<polygon fill="#999999" stroke="#666666" points="1548.62,-349.75 1410.38,-349.75 1410.38,-316.25 1548.62,-316.25 1548.62,-349.75"/>
<text xml:space="preserve" text-anchor="start" x="1418.38" y="-336.25" font-family="Helvetica,sans-Serif" font-size="10.00">Source/TactixCore/Public</text>
<text xml:space="preserve" text-anchor="middle" x="1479.5" y="-323.5" font-family="Helvetica,sans-Serif" font-size="10.00">/Foundation/TactixMath.h</text>
</a>
</g>
</g>
<!-- Node2 -->
<g id="Node000002" class="node">
<title>Node2</title>
<g id="a_Node000002"><a xlink:href="TactixCurve_8cpp.html" target="_top" xlink:title=" ">
<polygon fill="white" stroke="#666666" points="881.12,-273.88 727.88,-273.88 727.88,-240.38 881.12,-240.38 881.12,-273.88"/>
<text xml:space="preserve" text-anchor="start" x="735.88" y="-260.38" font-family="Helvetica,sans-Serif" font-size="10.00">Source/TactixCore/Private</text>
<text xml:space="preserve" text-anchor="middle" x="804.5" y="-247.62" font-family="Helvetica,sans-Serif" font-size="10.00">/Foundation/TactixCurve.cpp</text>
</a>
</g>
</g>
<!-- Node1&#45;&gt;Node2 -->
<g id="edge1_Node000001_Node000002" class="edge">
<title>Node1&#45;&gt;Node2</title>
<g id="a_edge1_Node000001_Node000002"><a xlink:title=" ">
<path fill="none" stroke="#63b8ff" d="M1398.73,-329.1C1284.74,-324.06 1070.48,-311.09 890.5,-280.25 881.23,-278.66 871.5,-276.57 862.04,-274.32"/>
<polygon fill="#63b8ff" stroke="#63b8ff" points="1398.46,-332.59 1408.6,-329.53 1398.76,-325.6 1398.46,-332.59"/>
</a>
</g>
</g>
<!-- Node3 -->
<g id="Node000003" class="node">
<title>Node3</title>
<g id="a_Node000003"><a xlink:href="FTactixAgentContext_8h.html" target="_top" xlink:title="Read&#45;only, side&#45;effect&#45;free snapshot of one agent for a single decision.">
<polygon fill="white" stroke="#666666" points="1059.5,-273.88 899.5,-273.88 899.5,-240.38 1059.5,-240.38 1059.5,-273.88"/>
<text xml:space="preserve" text-anchor="start" x="907.5" y="-260.38" font-family="Helvetica,sans-Serif" font-size="10.00">Source/TactixCore/Public</text>
<text xml:space="preserve" text-anchor="middle" x="979.5" y="-247.62" font-family="Helvetica,sans-Serif" font-size="10.00">/Agent/FTactixAgentContext.h</text>
</a>
</g>
</g>
<!-- Node1&#45;&gt;Node3 -->
<g id="edge2_Node000001_Node000003" class="edge">
<title>Node1&#45;&gt;Node3</title>
<g id="a_edge2_Node000001_Node000003"><a xlink:title=" ">
<path fill="none" stroke="#63b8ff" d="M1399.22,-323.41C1319.01,-314.38 1192.33,-298.91 1083.5,-280.25 1073.31,-278.5 1062.6,-276.46 1052.09,-274.34"/>
<polygon fill="#63b8ff" stroke="#63b8ff" points="1398.39,-326.84 1408.71,-324.47 1399.16,-319.88 1398.39,-326.84"/>
</a>
</g>
</g>
<!-- Node16 -->
<g id="Node000016" class="node">
<title>Node16</title>
<g id="a_Node000016"><a xlink:href="UTactixUtilityAsset_8cpp.html" target="_top" xlink:title="Implements utility scoring: input extraction, curve building, and the Lewis&#45;compensated action score.">
<polygon fill="white" stroke="#666666" points="1667.88,-122.12 1477.12,-122.12 1477.12,-88.62 1667.88,-88.62 1667.88,-122.12"/>
<text xml:space="preserve" text-anchor="start" x="1485.12" y="-108.62" font-family="Helvetica,sans-Serif" font-size="10.00">Source/TactixUE/Private</text>
<text xml:space="preserve" text-anchor="middle" x="1572.5" y="-95.88" font-family="Helvetica,sans-Serif" font-size="10.00">/DataAssets/UTactixUtilityAsset.cpp</text>
</a>
</g>
</g>
<!-- Node1&#45;&gt;Node16 -->
<g id="edge36_Node000001_Node000016" class="edge">
<title>Node1&#45;&gt;Node16</title>
<g id="a_edge36_Node000001_Node000016"><a xlink:title=" ">
<path fill="none" stroke="#63b8ff" d="M1398.7,-332.29C1303.08,-330.7 1152.28,-321.49 1116.5,-280.25 1103.03,-264.72 1104.08,-250.38 1116.5,-234 1139.73,-203.38 1372.34,-149.4 1496.04,-122.52"/>
<polygon fill="#63b8ff" stroke="#63b8ff" points="1398.51,-335.78 1408.56,-332.42 1398.61,-328.78 1398.51,-335.78"/>
</a>
</g>
</g>
<!-- Node17 -->
<g id="Node000017" class="node">
<title>Node17</title>
<g id="a_Node000017"><a xlink:href="FTactixBlackboard_8h.html" target="_top" xlink:title="Typed key&#45;value store with compile&#45;time key hashing: the AI systems&#39; shared working memory.">
<polygon fill="white" stroke="#666666" points="1299.62,-273.88 1125.38,-273.88 1125.38,-240.38 1299.62,-240.38 1299.62,-273.88"/>
<text xml:space="preserve" text-anchor="start" x="1133.38" y="-260.38" font-family="Helvetica,sans-Serif" font-size="10.00">Source/TactixCore/Public</text>
<text xml:space="preserve" text-anchor="middle" x="1212.5" y="-247.62" font-family="Helvetica,sans-Serif" font-size="10.00">/Blackboard/FTactixBlackboard.h</text>
</a>
</g>
</g>
<!-- Node1&#45;&gt;Node17 -->
<g id="edge18_Node000001_Node000017" class="edge">
<title>Node1&#45;&gt;Node17</title>
<g id="a_edge18_Node000001_Node000017"><a xlink:title=" ">
<path fill="none" stroke="#63b8ff" d="M1409.91,-312.75C1366.73,-300.8 1311.88,-285.62 1270.96,-274.3"/>
<polygon fill="#63b8ff" stroke="#63b8ff" points="1408.88,-316.09 1419.45,-315.38 1410.74,-309.34 1408.88,-316.09"/>
</a>
</g>
</g>
<!-- Node18 -->
<g id="Node000018" class="node">
<title>Node18</title>
<g id="a_Node000018"><a xlink:href="TactixGrid_8h.html" target="_top" xlink:title="Engine&#45;agnostic 2D grid with world&lt;&#45;&gt;cell coordinate conversion.">
<polygon fill="white" stroke="#666666" points="1453.12,-273.88 1317.88,-273.88 1317.88,-240.38 1453.12,-240.38 1453.12,-273.88"/>
<text xml:space="preserve" text-anchor="start" x="1325.88" y="-260.38" font-family="Helvetica,sans-Serif" font-size="10.00">Source/TactixCore/Public</text>
<text xml:space="preserve" text-anchor="middle" x="1385.5" y="-247.62" font-family="Helvetica,sans-Serif" font-size="10.00">/Foundation/TactixGrid.h</text>
</a>
</g>
</g>
<!-- Node1&#45;&gt;Node18 -->
<g id="edge19_Node000001_Node000018" class="edge">
<title>Node1&#45;&gt;Node18</title>
<g id="a_edge19_Node000001_Node000018"><a xlink:title=" ">
<path fill="none" stroke="#63b8ff" d="M1450.1,-308.89C1435.72,-297.6 1418.78,-284.28 1405.86,-274.12"/>
<polygon fill="#63b8ff" stroke="#63b8ff" points="1447.89,-311.61 1457.91,-315.03 1452.21,-306.1 1447.89,-311.61"/>
</a>
</g>
</g>
<!-- Node19 -->
<g id="Node000019" class="node">
<title>Node19</title>
<g id="a_Node000019"><a xlink:href="ITactixPerceptionChannel_8h.html" target="_top" xlink:title="Stimulus record and channel interface for the perception memory.">
<polygon fill="white" stroke="#666666" points="1677.38,-273.88 1471.62,-273.88 1471.62,-240.38 1677.38,-240.38 1677.38,-273.88"/>
<text xml:space="preserve" text-anchor="start" x="1479.62" y="-260.38" font-family="Helvetica,sans-Serif" font-size="10.00">Source/TactixCore/Public</text>
<text xml:space="preserve" text-anchor="middle" x="1574.5" y="-247.62" font-family="Helvetica,sans-Serif" font-size="10.00">/Perception/ITactixPerceptionChannel.h</text>
</a>
</g>
</g>
<!-- Node1&#45;&gt;Node19 -->
<g id="edge20_Node000001_Node000019" class="edge">
<title>Node1&#45;&gt;Node19</title>
<g id="a_edge20_Node000001_Node000019"><a xlink:title=" ">
<path fill="none" stroke="#63b8ff" d="M1508.8,-309.21C1523.42,-297.85 1540.74,-284.38 1553.93,-274.12"/>
<polygon fill="#63b8ff" stroke="#63b8ff" points="1507.05,-306.14 1501.31,-315.04 1511.35,-311.67 1507.05,-306.14"/>
</a>
</g>
</g>
<!-- Node21 -->
<g id="Node000021" class="node">
<title>Node21</title>
<g id="a_Node000021"><a xlink:href="FTactixCoverPoint_8h.html" target="_top" xlink:title="A single piece of cover: where to stand, which way it faces, and who currently owns it.">
<polygon fill="white" stroke="#666666" points="1873.88,-273.88 1695.12,-273.88 1695.12,-240.38 1873.88,-240.38 1873.88,-273.88"/>
<text xml:space="preserve" text-anchor="start" x="1703.12" y="-260.38" font-family="Helvetica,sans-Serif" font-size="10.00">Source/TactixSystems</text>
<text xml:space="preserve" text-anchor="middle" x="1784.5" y="-247.62" font-family="Helvetica,sans-Serif" font-size="10.00">/Public/Cover/FTactixCoverPoint.h</text>
</a>
</g>
</g>
<!-- Node1&#45;&gt;Node21 -->
<g id="edge22_Node000001_Node000021" class="edge">
<title>Node1&#45;&gt;Node21</title>
<g id="a_edge22_Node000001_Node000021"><a xlink:title=" ">
<path fill="none" stroke="#63b8ff" d="M1557.41,-313.13C1606.88,-301.15 1670.24,-285.8 1717.46,-274.36"/>
<polygon fill="#63b8ff" stroke="#63b8ff" points="1556.8,-309.68 1547.9,-315.43 1558.45,-316.48 1556.8,-309.68"/>
</a>
</g>
</g>
<!-- Node22 -->
<g id="Node000022" class="node">
<title>Node22</title>
<g id="a_Node000022"><a xlink:href="FTactixCoverSystem_8h.html" target="_top" xlink:title="Registry of cover points with claim/release ownership and a &quot;best cover &#160;&#160;&#160;&#160;&#160;&#160;for this situation&quot; que...">
<polygon fill="white" stroke="#666666" points="1882.88,-198 1692.12,-198 1692.12,-164.5 1882.88,-164.5 1882.88,-198"/>
<text xml:space="preserve" text-anchor="start" x="1700.12" y="-184.5" font-family="Helvetica,sans-Serif" font-size="10.00">Source/TactixSystems</text>
<text xml:space="preserve" text-anchor="middle" x="1787.5" y="-171.75" font-family="Helvetica,sans-Serif" font-size="10.00">/Public/Cover/FTactixCoverSystem.h</text>
</a>
</g>
</g>
<!-- Node1&#45;&gt;Node22 -->
<g id="edge30_Node000001_Node000022" class="edge">
<title>Node1&#45;&gt;Node22</title>
<g id="a_edge30_Node000001_Node000022"><a xlink:title=" ">
<path fill="none" stroke="#63b8ff" d="M1560.2,-327.28C1671.7,-319.91 1861.58,-304.03 1882.5,-280.25 1896.08,-264.82 1893,-251.67 1882.5,-234 1872.91,-217.85 1856.31,-206.42 1839.65,-198.49"/>
<polygon fill="#63b8ff" stroke="#63b8ff" points="1560.26,-323.76 1550.51,-327.91 1560.71,-330.75 1560.26,-323.76"/>
</a>
</g>
</g>
<!-- Node27 -->
<g id="Node000027" class="node">
<title>Node27</title>
<g id="a_Node000027"><a xlink:href="FTactixInfluenceMap_8h.html" target="_top" xlink:title="Multi&#45;channel 2D scalar field for spatial reasoning (danger, control, resource, .....">
<polygon fill="white" stroke="#666666" points="2095.5,-280.25 1929.5,-280.25 1929.5,-234 2095.5,-234 2095.5,-280.25"/>
<text xml:space="preserve" text-anchor="start" x="1937.5" y="-266.75" font-family="Helvetica,sans-Serif" font-size="10.00">Source/TactixSystems</text>
<text xml:space="preserve" text-anchor="start" x="1937.5" y="-254" font-family="Helvetica,sans-Serif" font-size="10.00">/Public/Spatial/FTactixInfluence</text>
<text xml:space="preserve" text-anchor="middle" x="2012.5" y="-241.25" font-family="Helvetica,sans-Serif" font-size="10.00">Map.h</text>
</a>
</g>
</g>
<!-- Node1&#45;&gt;Node27 -->
<g id="edge31_Node000001_Node000027" class="edge">
<title>Node1&#45;&gt;Node27</title>
<g id="a_edge31_Node000001_Node000027"><a xlink:title=" ">
<path fill="none" stroke="#63b8ff" d="M1560.13,-325.01C1647.92,-316.81 1792.27,-301.55 1915.5,-280.25 1919.93,-279.48 1924.45,-278.65 1929.01,-277.76"/>
<polygon fill="#63b8ff" stroke="#63b8ff" points="1560.06,-321.51 1550.43,-325.91 1560.71,-328.48 1560.06,-321.51"/>
</a>
</g>
</g>
<!-- Node30 -->
<g id="Node000030" class="node">
<title>Node30</title>
<g id="a_Node000030"><a xlink:href="FTactixFormation_8h.html" target="_top" xlink:title="Movement formations: per&#45;slot local offsets and the transform that places them in the world relative ...">
<polygon fill="white" stroke="#666666" points="2289.75,-273.88 2113.25,-273.88 2113.25,-240.38 2289.75,-240.38 2289.75,-273.88"/>
<text xml:space="preserve" text-anchor="start" x="2121.25" y="-260.38" font-family="Helvetica,sans-Serif" font-size="10.00">Source/TactixSystems</text>
<text xml:space="preserve" text-anchor="middle" x="2201.5" y="-247.62" font-family="Helvetica,sans-Serif" font-size="10.00">/Public/Squad/FTactixFormation.h</text>
</a>
</g>
</g>
<!-- Node1&#45;&gt;Node30 -->
<g id="edge35_Node000001_Node000030" class="edge">
<title>Node1&#45;&gt;Node30</title>
<g id="a_edge35_Node000001_Node000030"><a xlink:title=" ">
<path fill="none" stroke="#63b8ff" d="M1559.98,-328.98C1679.41,-323.68 1910.36,-310.27 2104.5,-280.25 2114.83,-278.65 2125.69,-276.57 2136.26,-274.33"/>
<polygon fill="#63b8ff" stroke="#63b8ff" points="1560.13,-325.47 1550.29,-329.4 1560.43,-332.47 1560.13,-325.47"/>
</a>
</g>
</g>
<!-- Node4 -->
<g id="Node000004" class="node">
<title>Node4</title>
<g id="a_Node000004"><a xlink:href="FTactixVisualDebugger_8h.html" target="_top" xlink:title="Static helpers that draw per&#45;agent debug overlays in the world.">
<polygon fill="white" stroke="#666666" points="409.75,-198 239.25,-198 239.25,-164.5 409.75,-164.5 409.75,-198"/>
<text xml:space="preserve" text-anchor="start" x="247.25" y="-184.5" font-family="Helvetica,sans-Serif" font-size="10.00">Source/TactixDebug</text>
<text xml:space="preserve" text-anchor="middle" x="324.5" y="-171.75" font-family="Helvetica,sans-Serif" font-size="10.00">/Public/FTactixVisualDebugger.h</text>
</a>
</g>
</g>
<!-- Node3&#45;&gt;Node4 -->
<g id="edge3_Node000003_Node000004" class="edge">
<title>Node3&#45;&gt;Node4</title>
<g id="a_edge3_Node000003_Node000004"><a xlink:title=" ">
<path fill="none" stroke="#63b8ff" d="M908.54,-237.46C902.46,-236.17 896.39,-234.99 890.5,-234 721.45,-205.43 521.15,-191.8 409.88,-186"/>
<polygon fill="#63b8ff" stroke="#63b8ff" points="907.44,-240.8 917.96,-239.55 908.96,-233.97 907.44,-240.8"/>
</a>
</g>
</g>
<!-- Node6 -->
<g id="Node000006" class="node">
<title>Node6</title>
<g id="a_Node000006"><a xlink:href="UTactixAgentComponent_8h.html" target="_top" xlink:title="The component that makes a pawn a Tactix agent.">
<polygon fill="white" stroke="#666666" points="818.12,-198 604.88,-198 604.88,-164.5 818.12,-164.5 818.12,-198"/>
<text xml:space="preserve" text-anchor="start" x="612.88" y="-184.5" font-family="Helvetica,sans-Serif" font-size="10.00">Source/TactixUE/Public</text>
<text xml:space="preserve" text-anchor="middle" x="711.5" y="-171.75" font-family="Helvetica,sans-Serif" font-size="10.00">/Components/UTactixAgentComponent.h</text>
</a>
</g>
</g>
<!-- Node3&#45;&gt;Node6 -->
<g id="edge5_Node000003_Node000006" class="edge">
<title>Node3&#45;&gt;Node6</title>
<g id="a_edge5_Node000003_Node000006"><a xlink:title=" ">
<path fill="none" stroke="#63b8ff" d="M909.65,-236.87C866.31,-224.92 811.25,-209.75 770.18,-198.42"/>
<polygon fill="#63b8ff" stroke="#63b8ff" points="908.66,-240.23 919.23,-239.51 910.52,-233.48 908.66,-240.23"/>
</a>
</g>
</g>
<!-- Node15 -->
<g id="Node000015" class="node">
<title>Node15</title>
<g id="a_Node000015"><a xlink:href="UTactixUtilityAsset_8h.html" target="_top" xlink:title="Designer&#45;facing asset: a named set of scored actions for one decision context.">
<polygon fill="white" stroke="#666666" points="1069.25,-198 889.75,-198 889.75,-164.5 1069.25,-164.5 1069.25,-198"/>
<text xml:space="preserve" text-anchor="start" x="897.75" y="-184.5" font-family="Helvetica,sans-Serif" font-size="10.00">Source/TactixUE/Public</text>
<text xml:space="preserve" text-anchor="middle" x="979.5" y="-171.75" font-family="Helvetica,sans-Serif" font-size="10.00">/DataAssets/UTactixUtilityAsset.h</text>
</a>
</g>
</g>
<!-- Node3&#45;&gt;Node15 -->
<g id="edge15_Node000003_Node000015" class="edge">
<title>Node3&#45;&gt;Node15</title>
<g id="a_edge15_Node000003_Node000015"><a xlink:title=" ">
<path fill="none" stroke="#63b8ff" d="M979.5,-228.74C979.5,-218.47 979.5,-207.15 979.5,-198.25"/>
<polygon fill="#63b8ff" stroke="#63b8ff" points="976,-228.58 979.5,-238.58 983,-228.58 976,-228.58"/>
</a>
</g>
</g>
<!-- Node5 -->
<g id="Node000005" class="node">
<title>Node5</title>
<g id="a_Node000005"><a xlink:href="FTactixVisualDebugger_8cpp.html" target="_top" xlink:title="Implements the agent debug overlays with debug&#45;draw primitives.">
<polygon fill="white" stroke="#666666" points="187,-122.12 0,-122.12 0,-88.62 187,-88.62 187,-122.12"/>
<text xml:space="preserve" text-anchor="start" x="8" y="-108.62" font-family="Helvetica,sans-Serif" font-size="10.00">Source/TactixDebug</text>
<text xml:space="preserve" text-anchor="middle" x="93.5" y="-95.88" font-family="Helvetica,sans-Serif" font-size="10.00">/Private/FTactixVisualDebugger.cpp</text>
</a>
</g>
</g>
<!-- Node4&#45;&gt;Node5 -->
<g id="edge4_Node000004_Node000005" class="edge">
<title>Node4&#45;&gt;Node5</title>
<g id="a_edge4_Node000004_Node000005"><a xlink:title=" ">
<path fill="none" stroke="#63b8ff" d="M263.1,-160.61C225.93,-148.73 179.1,-133.75 144.08,-122.55"/>
<polygon fill="#63b8ff" stroke="#63b8ff" points="261.77,-163.86 272.36,-163.58 263.91,-157.2 261.77,-163.86"/>
</a>
</g>
</g>
<!-- Node6&#45;&gt;Node5 -->
<g id="edge7_Node000006_Node000005" class="edge">
<title>Node6&#45;&gt;Node5</title>
<g id="a_edge7_Node000006_Node000005"><a xlink:title=" ">
<path fill="none" stroke="#63b8ff" d="M593.56,-172.26C488.65,-164.23 331.28,-149.96 195.5,-128.5 185.03,-126.84 174.02,-124.79 163.26,-122.61"/>
<polygon fill="#63b8ff" stroke="#63b8ff" points="593.07,-175.73 603.3,-172.99 593.59,-168.75 593.07,-175.73"/>
</a>
</g>
</g>
<!-- Node7 -->
<g id="Node000007" class="node">
<title>Node7</title>
<g id="a_Node000007"><a xlink:href="FTactixGameplayDebuggerCategory_8cpp.html" target="_top" xlink:title="Implements the Gameplay Debugger category: collect agent state, then render it as text lines.">
<polygon fill="white" stroke="#666666" points="392.38,-128.5 204.62,-128.5 204.62,-82.25 392.38,-82.25 392.38,-128.5"/>
<text xml:space="preserve" text-anchor="start" x="212.62" y="-115" font-family="Helvetica,sans-Serif" font-size="10.00">Source/TactixDebug</text>
<text xml:space="preserve" text-anchor="start" x="212.62" y="-102.25" font-family="Helvetica,sans-Serif" font-size="10.00">/Private/FTactixGameplayDebugger</text>
<text xml:space="preserve" text-anchor="middle" x="298.5" y="-89.5" font-family="Helvetica,sans-Serif" font-size="10.00">Category.cpp</text>
</a>
</g>
</g>
<!-- Node6&#45;&gt;Node7 -->
<g id="edge6_Node000006_Node000007" class="edge">
<title>Node6&#45;&gt;Node7</title>
<g id="a_edge6_Node000006_Node000007"><a xlink:title=" ">
<path fill="none" stroke="#63b8ff" d="M595.78,-162.23C537.41,-152.82 465.57,-140.72 401.5,-128.5 398.63,-127.95 395.71,-127.39 392.76,-126.81"/>
<polygon fill="#63b8ff" stroke="#63b8ff" points="594.97,-165.65 605.4,-163.78 596.08,-158.74 594.97,-165.65"/>
</a>
</g>
</g>
<!-- Node8 -->
<g id="Node000008" class="node">
<title>Node8</title>
<g id="a_Node000008"><a xlink:href="UTactixBTDecorator__InCover_8cpp.html" target="_top" xlink:title="Implements the in&#45;cover decorator condition.">
<polygon fill="white" stroke="#666666" points="592.75,-128.5 410.25,-128.5 410.25,-82.25 592.75,-82.25 592.75,-128.5"/>
<text xml:space="preserve" text-anchor="start" x="418.25" y="-115" font-family="Helvetica,sans-Serif" font-size="10.00">Source/TactixUE/Private</text>
<text xml:space="preserve" text-anchor="start" x="418.25" y="-102.25" font-family="Helvetica,sans-Serif" font-size="10.00">/BehaviorTree/UTactixBTDecorator</text>
<text xml:space="preserve" text-anchor="middle" x="501.5" y="-89.5" font-family="Helvetica,sans-Serif" font-size="10.00">_InCover.cpp</text>
</a>
</g>
</g>
<!-- Node6&#45;&gt;Node8 -->
<g id="edge8_Node000006_Node000008" class="edge">
<title>Node6&#45;&gt;Node8</title>
<g id="a_edge8_Node000006_Node000008"><a xlink:title=" ">
<path fill="none" stroke="#63b8ff" d="M654.8,-160.3C627.32,-150.64 594.21,-138.99 565.8,-128.99"/>
<polygon fill="#63b8ff" stroke="#63b8ff" points="653.39,-163.52 663.99,-163.54 655.72,-156.92 653.39,-163.52"/>
</a>
</g>
</g>
<!-- Node9 -->
<g id="Node000009" class="node">
<title>Node9</title>
<g id="a_Node000009"><a xlink:href="UTactixBTService__InfluenceQuery_8cpp.html" target="_top" xlink:title="Implements the influence&#45;sampling BT service.">
<polygon fill="white" stroke="#666666" points="864.75,-46.25 694.25,-46.25 694.25,0 864.75,0 864.75,-46.25"/>
<text xml:space="preserve" text-anchor="start" x="702.25" y="-32.75" font-family="Helvetica,sans-Serif" font-size="10.00">Source/TactixUE/Private</text>
<text xml:space="preserve" text-anchor="start" x="702.25" y="-20" font-family="Helvetica,sans-Serif" font-size="10.00">/BehaviorTree/UTactixBTService</text>
<text xml:space="preserve" text-anchor="middle" x="779.5" y="-7.25" font-family="Helvetica,sans-Serif" font-size="10.00">_InfluenceQuery.cpp</text>
</a>
</g>
</g>
<!-- Node6&#45;&gt;Node9 -->
<g id="edge9_Node000006_Node000009" class="edge">
<title>Node6&#45;&gt;Node9</title>
<g id="a_edge9_Node000006_Node000009"><a xlink:title=" ">
<path fill="none" stroke="#63b8ff" d="M669.92,-157.45C659.74,-149.69 650.16,-140.01 644.5,-128.5 635.44,-110.05 633.2,-99.42 644.5,-82.25 656.14,-64.56 674.43,-52.23 693.82,-43.64"/>
<polygon fill="#63b8ff" stroke="#63b8ff" points="667.9,-160.31 678.1,-163.16 671.91,-154.57 667.9,-160.31"/>
</a>
</g>
</g>
<!-- Node10 -->
<g id="Node000010" class="node">
<title>Node10</title>
<g id="a_Node000010"><a xlink:href="UTactixBTTask__ClaimCover_8cpp.html" target="_top" xlink:title="Implements the cover query/claim BT task: build the query from agent and blackboard state,...">
<polygon fill="white" stroke="#666666" points="1354.62,-46.25 1198.38,-46.25 1198.38,0 1354.62,0 1354.62,-46.25"/>
<text xml:space="preserve" text-anchor="start" x="1206.38" y="-32.75" font-family="Helvetica,sans-Serif" font-size="10.00">Source/TactixUE/Private</text>
<text xml:space="preserve" text-anchor="start" x="1206.38" y="-20" font-family="Helvetica,sans-Serif" font-size="10.00">/BehaviorTree/UTactixBTTask</text>
<text xml:space="preserve" text-anchor="middle" x="1276.5" y="-7.25" font-family="Helvetica,sans-Serif" font-size="10.00">_ClaimCover.cpp</text>
</a>
</g>
</g>
<!-- Node6&#45;&gt;Node10 -->
<g id="edge10_Node000006_Node000010" class="edge">
<title>Node6&#45;&gt;Node10</title>
<g id="a_edge10_Node000006_Node000010"><a xlink:title=" ">
<path fill="none" stroke="#63b8ff" d="M690.25,-155.09C674.63,-133.45 659.05,-102.58 677.5,-82.25 694.78,-63.21 1039.75,-39.08 1198.17,-28.95"/>
<polygon fill="#63b8ff" stroke="#63b8ff" points="687.31,-157.01 696.16,-162.83 692.87,-152.76 687.31,-157.01"/>
</a>
</g>
</g>
<!-- Node11 -->
<g id="Node000011" class="node">
<title>Node11</title>
<g id="a_Node000011"><a xlink:href="UTactixBTTask__ExecutePlan_8cpp.html" target="_top" xlink:title="Implements step&#45;by&#45;step plan execution for the BT task.">
<polygon fill="white" stroke="#666666" points="842.62,-128.5 686.38,-128.5 686.38,-82.25 842.62,-82.25 842.62,-128.5"/>
<text xml:space="preserve" text-anchor="start" x="694.38" y="-115" font-family="Helvetica,sans-Serif" font-size="10.00">Source/TactixUE/Private</text>
<text xml:space="preserve" text-anchor="start" x="694.38" y="-102.25" font-family="Helvetica,sans-Serif" font-size="10.00">/BehaviorTree/UTactixBTTask</text>
<text xml:space="preserve" text-anchor="middle" x="764.5" y="-89.5" font-family="Helvetica,sans-Serif" font-size="10.00">_ExecutePlan.cpp</text>
</a>
</g>
</g>
<!-- Node6&#45;&gt;Node11 -->
<g id="edge11_Node000006_Node000011" class="edge">
<title>Node6&#45;&gt;Node11</title>
<g id="a_edge11_Node000006_Node000011"><a xlink:title=" ">
<path fill="none" stroke="#63b8ff" d="M729.54,-155.11C735.66,-146.58 742.44,-137.12 748.4,-128.82"/>
<polygon fill="#63b8ff" stroke="#63b8ff" points="726.87,-152.82 723.88,-162.99 732.56,-156.91 726.87,-152.82"/>
</a>
</g>
</g>
<!-- Node12 -->
<g id="Node000012" class="node">
<title>Node12</title>
<g id="a_Node000012"><a xlink:href="UTactixBTTask__RunUtility_8cpp.html" target="_top" xlink:title="Implements the utility&#45;selection BT task: snapshot the agent, pick the best action,...">
<polygon fill="white" stroke="#666666" points="1458.62,-128.5 1302.38,-128.5 1302.38,-82.25 1458.62,-82.25 1458.62,-128.5"/>
<text xml:space="preserve" text-anchor="start" x="1310.38" y="-115" font-family="Helvetica,sans-Serif" font-size="10.00">Source/TactixUE/Private</text>
<text xml:space="preserve" text-anchor="start" x="1310.38" y="-102.25" font-family="Helvetica,sans-Serif" font-size="10.00">/BehaviorTree/UTactixBTTask</text>
<text xml:space="preserve" text-anchor="middle" x="1380.5" y="-89.5" font-family="Helvetica,sans-Serif" font-size="10.00">_RunUtility.cpp</text>
</a>
</g>
</g>
<!-- Node6&#45;&gt;Node12 -->
<g id="edge12_Node000006_Node000012" class="edge">
<title>Node6&#45;&gt;Node12</title>
<g id="a_edge12_Node000006_Node000012"><a xlink:title=" ">
<path fill="none" stroke="#63b8ff" d="M829.51,-169.16C846.61,-167.58 864.01,-165.99 880.5,-164.5 1064.01,-147.95 1111.84,-159.31 1293.5,-128.5 1296.27,-128.03 1299.07,-127.52 1301.9,-126.97"/>
<polygon fill="#63b8ff" stroke="#63b8ff" points="829.46,-165.65 819.83,-170.06 830.11,-172.62 829.46,-165.65"/>
</a>
</g>
</g>
<!-- Node13 -->
<g id="Node000013" class="node">
<title>Node13</title>
<g id="a_Node000013"><a xlink:href="UTactixAgentComponent_8cpp.html" target="_top" xlink:title="Implements the pawn&#45;to&#45;agent adapter: snapshotting UE state into a Tactix::FTactixAgentContext.">
<polygon fill="white" stroke="#666666" points="1084.75,-122.12 860.25,-122.12 860.25,-88.62 1084.75,-88.62 1084.75,-122.12"/>
<text xml:space="preserve" text-anchor="start" x="868.25" y="-108.62" font-family="Helvetica,sans-Serif" font-size="10.00">Source/TactixUE/Private</text>
<text xml:space="preserve" text-anchor="middle" x="972.5" y="-95.88" font-family="Helvetica,sans-Serif" font-size="10.00">/Components/UTactixAgentComponent.cpp</text>
</a>
</g>
</g>
<!-- Node6&#45;&gt;Node13 -->
<g id="edge13_Node000006_Node000013" class="edge">
<title>Node6&#45;&gt;Node13</title>
<g id="a_edge13_Node000006_Node000013"><a xlink:title=" ">
<path fill="none" stroke="#63b8ff" d="M779.79,-160.92C821.96,-148.98 875.44,-133.85 915.36,-122.55"/>
<polygon fill="#63b8ff" stroke="#63b8ff" points="778.9,-157.53 770.23,-163.63 780.81,-164.27 778.9,-157.53"/>
</a>
</g>
</g>
<!-- Node14 -->
<g id="Node000014" class="node">
<title>Node14</title>
<g id="a_Node000014"><a xlink:href="ATactixAIController_8cpp.html" target="_top" xlink:title="Implements the Tactix AIController: scratch arena ownership, handle assignment on possess,...">
<polygon fill="white" stroke="#666666" points="1284.38,-122.12 1102.62,-122.12 1102.62,-88.62 1284.38,-88.62 1284.38,-122.12"/>
<text xml:space="preserve" text-anchor="start" x="1110.62" y="-108.62" font-family="Helvetica,sans-Serif" font-size="10.00">Source/TactixUE/Private</text>
<text xml:space="preserve" text-anchor="middle" x="1193.5" y="-95.88" font-family="Helvetica,sans-Serif" font-size="10.00">/Controller/ATactixAIController.cpp</text>
</a>
</g>
</g>
<!-- Node6&#45;&gt;Node14 -->
<g id="edge14_Node000006_Node000014" class="edge">
<title>Node6&#45;&gt;Node14</title>
<g id="a_edge14_Node000006_Node000014"><a xlink:title=" ">
<path fill="none" stroke="#63b8ff" d="M829.47,-166.84C905.17,-157.6 1005.42,-144.18 1093.5,-128.5 1103.3,-126.75 1113.6,-124.71 1123.71,-122.59"/>
<polygon fill="#63b8ff" stroke="#63b8ff" points="829.5,-163.31 819.99,-167.99 830.34,-170.26 829.5,-163.31"/>
</a>
</g>
</g>
<!-- Node15&#45;&gt;Node12 -->
<g id="edge16_Node000015_Node000012" class="edge">
<title>Node15&#45;&gt;Node12</title>
<g id="a_edge16_Node000015_Node000012"><a xlink:title=" ">
<path fill="none" stroke="#63b8ff" d="M1080.52,-164.56C1156.41,-152.6 1253.81,-136.8 1293.5,-128.5 1296.4,-127.89 1299.35,-127.26 1302.32,-126.59"/>
<polygon fill="#63b8ff" stroke="#63b8ff" points="1080.32,-161.05 1070.99,-166.06 1081.41,-167.97 1080.32,-161.05"/>
</a>
</g>
</g>
<!-- Node15&#45;&gt;Node16 -->
<g id="edge17_Node000015_Node000016" class="edge">
<title>Node15&#45;&gt;Node16</title>
<g id="a_edge17_Node000015_Node000016"><a xlink:title=" ">
<path fill="none" stroke="#63b8ff" d="M1080.94,-164.82C1081.8,-164.71 1082.65,-164.6 1083.5,-164.5 1253.64,-143.66 1298.02,-154.21 1467.5,-128.5 1478.37,-126.85 1489.8,-124.79 1500.97,-122.59"/>
<polygon fill="#63b8ff" stroke="#63b8ff" points="1080.62,-161.33 1071.15,-166.08 1081.52,-168.27 1080.62,-161.33"/>
</a>
</g>
</g>
<!-- Node20 -->
<g id="Node000020" class="node">
<title>Node20</title>
<g id="a_Node000020"><a xlink:href="FTactixPerceptionMemory_8h.html" target="_top" xlink:title="Per&#45;agent ring buffer of timestamped stimuli with on&#45;demand decay.">
<polygon fill="white" stroke="#666666" points="1674.12,-198 1466.88,-198 1466.88,-164.5 1674.12,-164.5 1674.12,-198"/>
<text xml:space="preserve" text-anchor="start" x="1474.88" y="-184.5" font-family="Helvetica,sans-Serif" font-size="10.00">Source/TactixCore/Public</text>
<text xml:space="preserve" text-anchor="middle" x="1570.5" y="-171.75" font-family="Helvetica,sans-Serif" font-size="10.00">/Perception/FTactixPerceptionMemory.h</text>
</a>
</g>
</g>
<!-- Node19&#45;&gt;Node20 -->
<g id="edge21_Node000019_Node000020" class="edge">
<title>Node19&#45;&gt;Node20</title>
<g id="a_edge21_Node000019_Node000020"><a xlink:title=" ">
<path fill="none" stroke="#63b8ff" d="M1573.02,-228.74C1572.46,-218.47 1571.85,-207.15 1571.37,-198.25"/>
<polygon fill="#63b8ff" stroke="#63b8ff" points="1569.51,-228.79 1573.55,-238.58 1576.5,-228.41 1569.51,-228.79"/>
</a>
</g>
</g>
<!-- Node21&#45;&gt;Node22 -->
<g id="edge23_Node000021_Node000022" class="edge">
<title>Node21&#45;&gt;Node22</title>
<g id="a_edge23_Node000021_Node000022"><a xlink:title=" ">
<path fill="none" stroke="#63b8ff" d="M1785.61,-228.74C1786.03,-218.47 1786.49,-207.15 1786.85,-198.25"/>
<polygon fill="#63b8ff" stroke="#63b8ff" points="1782.12,-228.45 1785.21,-238.58 1789.12,-228.73 1782.12,-228.45"/>
</a>
</g>
</g>
<!-- Node23 -->
<g id="Node000023" class="node">
<title>Node23</title>
<g id="a_Node000023"><a xlink:href="UTactixWorldSubsystem_8h.html" target="_top" xlink:title="Per&#45;world owner of the cover system and influence map shared by every agent in the level.">
<polygon fill="white" stroke="#666666" points="1888.88,-122.12 1686.12,-122.12 1686.12,-88.62 1888.88,-88.62 1888.88,-122.12"/>
<text xml:space="preserve" text-anchor="start" x="1694.12" y="-108.62" font-family="Helvetica,sans-Serif" font-size="10.00">Source/TactixUE/Public</text>
<text xml:space="preserve" text-anchor="middle" x="1787.5" y="-95.88" font-family="Helvetica,sans-Serif" font-size="10.00">/Subsystem/UTactixWorldSubsystem.h</text>
</a>
</g>
</g>
<!-- Node22&#45;&gt;Node23 -->
<g id="edge24_Node000022_Node000023" class="edge">
<title>Node22&#45;&gt;Node23</title>
<g id="a_edge24_Node000022_Node000023"><a xlink:title=" ">
<path fill="none" stroke="#63b8ff" d="M1787.5,-152.86C1787.5,-142.6 1787.5,-131.27 1787.5,-122.37"/>
<polygon fill="#63b8ff" stroke="#63b8ff" points="1784,-152.71 1787.5,-162.71 1791,-152.71 1784,-152.71"/>
</a>
</g>
</g>
<!-- Node23&#45;&gt;Node9 -->
<g id="edge25_Node000023_Node000009" class="edge">
<title>Node23&#45;&gt;Node9</title>
<g id="a_edge25_Node000023_Node000009"><a xlink:title=" ">
<path fill="none" stroke="#63b8ff" d="M1701.89,-86.14C1693.34,-84.67 1684.76,-83.34 1676.5,-82.25 1597.49,-71.86 1073.56,-41.05 864.96,-29.02"/>
<polygon fill="#63b8ff" stroke="#63b8ff" points="1701.14,-89.56 1711.6,-87.87 1702.37,-82.67 1701.14,-89.56"/>
</a>
</g>
</g>
<!-- Node23&#45;&gt;Node10 -->
<g id="edge26_Node000023_Node000010" class="edge">
<title>Node23&#45;&gt;Node10</title>
<g id="a_edge26_Node000023_Node000010"><a xlink:title=" ">
<path fill="none" stroke="#63b8ff" d="M1697.57,-86.04C1690.45,-84.71 1683.36,-83.43 1676.5,-82.25 1565.16,-63.08 1435.65,-45.03 1354.87,-34.28"/>
<polygon fill="#63b8ff" stroke="#63b8ff" points="1696.8,-89.45 1707.28,-87.87 1698.1,-82.57 1696.8,-89.45"/>
</a>
</g>
</g>
<!-- Node24 -->
<g id="Node000024" class="node">
<title>Node24</title>
<g id="a_Node000024"><a xlink:href="UTactixEQSGenerator__Cover_8cpp.html" target="_top" xlink:title="Implements the cover EQS generator: emit each registered cover point as a point item.">
<polygon fill="white" stroke="#666666" points="1676.38,-46.25 1530.62,-46.25 1530.62,0 1676.38,0 1676.38,-46.25"/>
<text xml:space="preserve" text-anchor="start" x="1538.62" y="-32.75" font-family="Helvetica,sans-Serif" font-size="10.00">Source/TactixUE/Private</text>
<text xml:space="preserve" text-anchor="start" x="1538.62" y="-20" font-family="Helvetica,sans-Serif" font-size="10.00">/EQS/UTactixEQSGenerator</text>
<text xml:space="preserve" text-anchor="middle" x="1603.5" y="-7.25" font-family="Helvetica,sans-Serif" font-size="10.00">_Cover.cpp</text>
</a>
</g>
</g>
<!-- Node23&#45;&gt;Node24 -->
<g id="edge27_Node000023_Node000024" class="edge">
<title>Node23&#45;&gt;Node24</title>
<g id="a_edge27_Node000023_Node000024"><a xlink:title=" ">
<path fill="none" stroke="#63b8ff" d="M1739.93,-83.63C1714.01,-72.32 1681.88,-58.31 1655.32,-46.73"/>
<polygon fill="#63b8ff" stroke="#63b8ff" points="1738.31,-86.74 1748.88,-87.53 1741.11,-80.32 1738.31,-86.74"/>
</a>
</g>
</g>
<!-- Node25 -->
<g id="Node000025" class="node">
<title>Node25</title>
<g id="a_Node000025"><a xlink:href="UTactixEQSTest__Influence_8cpp.html" target="_top" xlink:title="Implements the influence EQS test: sample the map per item and score it.">
<polygon fill="white" stroke="#666666" points="1880.62,-39.88 1694.38,-39.88 1694.38,-6.38 1880.62,-6.38 1880.62,-39.88"/>
<text xml:space="preserve" text-anchor="start" x="1702.38" y="-26.38" font-family="Helvetica,sans-Serif" font-size="10.00">Source/TactixUE/Private</text>
<text xml:space="preserve" text-anchor="middle" x="1787.5" y="-13.62" font-family="Helvetica,sans-Serif" font-size="10.00">/EQS/UTactixEQSTest_Influence.cpp</text>
</a>
</g>
</g>
<!-- Node23&#45;&gt;Node25 -->
<g id="edge28_Node000023_Node000025" class="edge">
<title>Node23&#45;&gt;Node25</title>
<g id="a_edge28_Node000023_Node000025"><a xlink:title=" ">
<path fill="none" stroke="#63b8ff" d="M1787.5,-76.75C1787.5,-64.61 1787.5,-50.78 1787.5,-40.34"/>
<polygon fill="#63b8ff" stroke="#63b8ff" points="1784,-76.62 1787.5,-86.62 1791,-76.62 1784,-76.62"/>
</a>
</g>
</g>
<!-- Node26 -->
<g id="Node000026" class="node">
<title>Node26</title>
<g id="a_Node000026"><a xlink:href="UTactixWorldSubsystem_8cpp.html" target="_top" xlink:title="Implements the world subsystem: the soft cover&#45;reservation layer.">
<polygon fill="white" stroke="#666666" points="2112.5,-39.88 1898.5,-39.88 1898.5,-6.38 2112.5,-6.38 2112.5,-39.88"/>
<text xml:space="preserve" text-anchor="start" x="1906.5" y="-26.38" font-family="Helvetica,sans-Serif" font-size="10.00">Source/TactixUE/Private</text>
<text xml:space="preserve" text-anchor="middle" x="2005.5" y="-13.62" font-family="Helvetica,sans-Serif" font-size="10.00">/Subsystem/UTactixWorldSubsystem.cpp</text>
</a>
</g>
</g>
<!-- Node23&#45;&gt;Node26 -->
<g id="edge29_Node000023_Node000026" class="edge">
<title>Node23&#45;&gt;Node26</title>
<g id="a_edge29_Node000023_Node000026"><a xlink:title=" ">
<path fill="none" stroke="#63b8ff" d="M1842.18,-84.25C1879.05,-70.68 1927.04,-53.01 1961.45,-40.34"/>
<polygon fill="#63b8ff" stroke="#63b8ff" points="1841.21,-80.87 1833.04,-87.61 1843.63,-87.44 1841.21,-80.87"/>
</a>
</g>
</g>
<!-- Node27&#45;&gt;Node23 -->
<g id="edge34_Node000027_Node000023" class="edge">
<title>Node27&#45;&gt;Node23</title>
<g id="a_edge34_Node000027_Node000023"><a xlink:title=" ">
<path fill="none" stroke="#63b8ff" d="M1969.5,-227.37C1956.43,-218.27 1942.18,-207.98 1929.5,-198 1911.81,-184.08 1909.88,-177.51 1891.5,-164.5 1868.88,-148.48 1841.44,-133.31 1820.43,-122.48"/>
<polygon fill="#63b8ff" stroke="#63b8ff" points="1967.3,-230.1 1977.52,-232.9 1971.28,-224.34 1967.3,-230.1"/>
</a>
</g>
</g>
<!-- Node28 -->
<g id="Node000028" class="node">
<title>Node28</title>
<g id="a_Node000028"><a xlink:href="FTactixInfluenceRenderer_8h.html" target="_top" xlink:title="Draws an influence&#45;map channel as a world&#45;space heat grid.">
<polygon fill="white" stroke="#666666" points="2120.38,-198 1938.62,-198 1938.62,-164.5 2120.38,-164.5 2120.38,-198"/>
<text xml:space="preserve" text-anchor="start" x="1946.62" y="-184.5" font-family="Helvetica,sans-Serif" font-size="10.00">Source/TactixDebug</text>
<text xml:space="preserve" text-anchor="middle" x="2029.5" y="-171.75" font-family="Helvetica,sans-Serif" font-size="10.00">/Public/FTactixInfluenceRenderer.h</text>
</a>
</g>
</g>
<!-- Node27&#45;&gt;Node28 -->
<g id="edge32_Node000027_Node000028" class="edge">
<title>Node27&#45;&gt;Node28</title>
<g id="a_edge32_Node000027_Node000028"><a xlink:title=" ">
<path fill="none" stroke="#63b8ff" d="M2020.25,-222.43C2022.18,-214.05 2024.16,-205.44 2025.79,-198.35"/>
<polygon fill="#63b8ff" stroke="#63b8ff" points="2016.86,-221.55 2018.03,-232.08 2023.69,-223.12 2016.86,-221.55"/>
</a>
</g>
</g>
<!-- Node29 -->
<g id="Node000029" class="node">
<title>Node29</title>
<g id="a_Node000029"><a xlink:href="FTactixInfluenceRenderer_8cpp.html" target="_top" xlink:title="Implements the influence heat renderer with debug boxes.">
<polygon fill="white" stroke="#666666" points="2128.62,-122.12 1930.38,-122.12 1930.38,-88.62 2128.62,-88.62 2128.62,-122.12"/>
<text xml:space="preserve" text-anchor="start" x="1938.38" y="-108.62" font-family="Helvetica,sans-Serif" font-size="10.00">Source/TactixDebug</text>
<text xml:space="preserve" text-anchor="middle" x="2029.5" y="-95.88" font-family="Helvetica,sans-Serif" font-size="10.00">/Private/FTactixInfluenceRenderer.cpp</text>
</a>
</g>
</g>
<!-- Node28&#45;&gt;Node29 -->
<g id="edge33_Node000028_Node000029" class="edge">
<title>Node28&#45;&gt;Node29</title>
<g id="a_edge33_Node000028_Node000029"><a xlink:title=" ">
<path fill="none" stroke="#63b8ff" d="M2029.5,-152.86C2029.5,-142.6 2029.5,-131.27 2029.5,-122.37"/>
<polygon fill="#63b8ff" stroke="#63b8ff" points="2026,-152.71 2029.5,-162.71 2033,-152.71 2026,-152.71"/>
</a>
</g>
</g>
</g>
</svg>
