<?xml version="1.0" encoding="UTF-8" standalone="no"?>
<!DOCTYPE svg PUBLIC "-//W3C//DTD SVG 1.1//EN"
 "http://www.w3.org/Graphics/SVG/1.1/DTD/svg11.dtd">
<!-- Generated by graphviz version 14.1.5 (0)
 -->
<!-- Title: Source/TactixCore/Public/Foundation/TactixArena.h Pages: 1 -->
<svg width="1713pt" height="193pt"
 viewBox="0.00 0.00 1713.00 193.00" xmlns="http://www.w3.org/2000/svg" xmlns:xlink="http://www.w3.org/1999/xlink">
<g id="graph0" class="graph" transform="scale(1 1) rotate(0) translate(4 189.25)">
<title>Source/TactixCore/Public/Foundation/TactixArena.h</title>
<!-- Node1 -->
<g id="Node000001" class="node">
<title>Node1</title>
<g id="a_Node000001"><a xlink:title="Bump (linear) allocator for short&#45;lived scratch memory.">
<polygon fill="#999999" stroke="#666666" points="769.88,-185.25 627.88,-185.25 627.88,-151.75 769.88,-151.75 769.88,-185.25"/>
<text xml:space="preserve" text-anchor="start" x="635.88" y="-171.75" font-family="Helvetica,sans-Serif" font-size="10.00">Source/TactixCore/Public</text>
<text xml:space="preserve" text-anchor="middle" x="698.88" y="-159" font-family="Helvetica,sans-Serif" font-size="10.00">/Foundation/TactixArena.h</text>
</a>
</g>
</g>
<!-- Node2 -->
<g id="Node000002" class="node">
<title>Node2</title>
<g id="a_Node000002"><a xlink:href="FTactixGOAPPlanner_8cpp.html" target="_top" xlink:title="A* implementation for Tactix::FTactixGOAPPlanner.">
<polygon fill="white" stroke="#666666" points="585.38,-115.75 380.38,-115.75 380.38,-82.25 585.38,-82.25 585.38,-115.75"/>
<text xml:space="preserve" text-anchor="start" x="388.38" y="-102.25" font-family="Helvetica,sans-Serif" font-size="10.00">Source/TactixSystems</text>
<text xml:space="preserve" text-anchor="middle" x="482.88" y="-89.5" font-family="Helvetica,sans-Serif" font-size="10.00">/Private/GOAP/FTactixGOAPPlanner.cpp</text>
</a>
</g>
</g>
<!-- Node1&#45;&gt;Node2 -->
<g id="edge1_Node000001_Node000002" class="edge">
<title>Node1&#45;&gt;Node2</title>
<g id="a_edge1_Node000001_Node000002"><a xlink:title=" ">
<path fill="none" stroke="#63b8ff" d="M636.46,-147.99C604.15,-137.9 565.17,-125.72 534.56,-116.15"/>
<polygon fill="#63b8ff" stroke="#63b8ff" points="635.1,-151.24 645.69,-150.88 637.19,-144.56 635.1,-151.24"/>
</a>
</g>
</g>
<!-- Node3 -->
<g id="Node000003" class="node">
<title>Node3</title>
<g id="a_Node000003"><a xlink:href="FTactixHTNPlanner_8cpp.html" target="_top" xlink:title="Recursive decomposition for Tactix::FTactixHTNPlanner.">
<polygon fill="white" stroke="#666666" points="794.62,-115.75 603.12,-115.75 603.12,-82.25 794.62,-82.25 794.62,-115.75"/>
<text xml:space="preserve" text-anchor="start" x="611.12" y="-102.25" font-family="Helvetica,sans-Serif" font-size="10.00">Source/TactixSystems</text>
<text xml:space="preserve" text-anchor="middle" x="698.88" y="-89.5" font-family="Helvetica,sans-Serif" font-size="10.00">/Private/HTN/FTactixHTNPlanner.cpp</text>
</a>
</g>
</g>
<!-- Node1&#45;&gt;Node3 -->
<g id="edge2_Node000001_Node000003" class="edge">
<title>Node1&#45;&gt;Node3</title>
<g id="a_edge2_Node000001_Node000003"><a xlink:title=" ">
<path fill="none" stroke="#63b8ff" d="M698.88,-140.06C698.88,-131.84 698.88,-123.09 698.88,-115.88"/>
<polygon fill="#63b8ff" stroke="#63b8ff" points="695.38,-139.99 698.88,-149.99 702.38,-139.99 695.38,-139.99"/>
</a>
</g>
</g>
<!-- Node4 -->
<g id="Node000004" class="node">
<title>Node4</title>
<g id="a_Node000004"><a xlink:href="ATactixAIController_8h.html" target="_top" xlink:title="Base AIController for Tactix&#45;aware pawns.">
<polygon fill="white" stroke="#666666" points="983.12,-115.75 812.62,-115.75 812.62,-82.25 983.12,-82.25 983.12,-115.75"/>
<text xml:space="preserve" text-anchor="start" x="820.62" y="-102.25" font-family="Helvetica,sans-Serif" font-size="10.00">Source/TactixUE/Public</text>
<text xml:space="preserve" text-anchor="middle" x="897.88" y="-89.5" font-family="Helvetica,sans-Serif" font-size="10.00">/Controller/ATactixAIController.h</text>
</a>
</g>
</g>
<!-- Node1&#45;&gt;Node4 -->
<g id="edge3_Node000001_Node000004" class="edge">
<title>Node1&#45;&gt;Node4</title>
<g id="a_edge3_Node000001_Node000004"><a xlink:title=" ">
<path fill="none" stroke="#63b8ff" d="M757.16,-147.73C786.77,-137.69 822.3,-125.63 850.25,-116.15"/>
<polygon fill="#63b8ff" stroke="#63b8ff" points="756.32,-144.32 747.97,-150.85 758.57,-150.95 756.32,-144.32"/>
</a>
</g>
</g>
<!-- Node5 -->
<g id="Node000005" class="node">
<title>Node5</title>
<g id="a_Node000005"><a xlink:href="FTactixGameplayDebuggerCategory_8cpp.html" target="_top" xlink:title="Implements the Gameplay Debugger category: collect agent state, then render it as text lines.">
<polygon fill="white" stroke="#666666" points="187.75,-46.25 0,-46.25 0,0 187.75,0 187.75,-46.25"/>
<text xml:space="preserve" text-anchor="start" x="8" y="-32.75" font-family="Helvetica,sans-Serif" font-size="10.00">Source/TactixDebug</text>
<text xml:space="preserve" text-anchor="start" x="8" y="-20" font-family="Helvetica,sans-Serif" font-size="10.00">/Private/FTactixGameplayDebugger</text>
<text xml:space="preserve" text-anchor="middle" x="93.88" y="-7.25" font-family="Helvetica,sans-Serif" font-size="10.00">Category.cpp</text>
</a>
</g>
</g>
<!-- Node4&#45;&gt;Node5 -->
<g id="edge4_Node000004_Node000005" class="edge">
<title>Node4&#45;&gt;Node5</title>
<g id="a_edge4_Node000004_Node000005"><a xlink:title=" ">
<path fill="none" stroke="#63b8ff" d="M801.11,-82.02C532.92,-52.68 460.39,-82.55 195.88,-46.25 193.27,-45.89 190.64,-45.51 187.98,-45.09"/>
<polygon fill="#63b8ff" stroke="#63b8ff" points="800.54,-85.48 810.87,-83.11 801.32,-78.52 800.54,-85.48"/>
</a>
</g>
</g>
<!-- Node6 -->
<g id="Node000006" class="node">
<title>Node6</title>
<g id="a_Node000006"><a xlink:href="FTactixVisualDebugger_8cpp.html" target="_top" xlink:title="Implements the agent debug overlays with debug&#45;draw primitives.">
<polygon fill="white" stroke="#666666" points="392.38,-39.88 205.38,-39.88 205.38,-6.38 392.38,-6.38 392.38,-39.88"/>
<text xml:space="preserve" text-anchor="start" x="213.38" y="-26.38" font-family="Helvetica,sans-Serif" font-size="10.00">Source/TactixDebug</text>
<text xml:space="preserve" text-anchor="middle" x="298.88" y="-13.62" font-family="Helvetica,sans-Serif" font-size="10.00">/Private/FTactixVisualDebugger.cpp</text>
</a>
</g>
</g>
<!-- Node4&#45;&gt;Node6 -->
<g id="edge5_Node000004_Node000006" class="edge">
<title>Node4&#45;&gt;Node6</title>
<g id="a_edge5_Node000004_Node000006"><a xlink:title=" ">
<path fill="none" stroke="#63b8ff" d="M801.06,-81.96C623.98,-59.96 575.59,-72.59 401.88,-46.25 391.12,-44.62 379.79,-42.55 368.75,-40.34"/>
<polygon fill="#63b8ff" stroke="#63b8ff" points="800.5,-85.41 810.86,-83.2 801.38,-78.47 800.5,-85.41"/>
</a>
</g>
</g>
<!-- Node7 -->
<g id="Node000007" class="node">
<title>Node7</title>
<g id="a_Node000007"><a xlink:href="UTactixBTDecorator__InCover_8cpp.html" target="_top" xlink:title="Implements the in&#45;cover decorator condition.">
<polygon fill="white" stroke="#666666" points="593.12,-46.25 410.62,-46.25 410.62,0 593.12,0 593.12,-46.25"/>
<text xml:space="preserve" text-anchor="start" x="418.62" y="-32.75" font-family="Helvetica,sans-Serif" font-size="10.00">Source/TactixUE/Private</text>
<text xml:space="preserve" text-anchor="start" x="418.62" y="-20" font-family="Helvetica,sans-Serif" font-size="10.00">/BehaviorTree/UTactixBTDecorator</text>
<text xml:space="preserve" text-anchor="middle" x="501.88" y="-7.25" font-family="Helvetica,sans-Serif" font-size="10.00">_InCover.cpp</text>
</a>
</g>
</g>
<!-- Node4&#45;&gt;Node7 -->
<g id="edge6_Node000004_Node000007" class="edge">
<title>Node4&#45;&gt;Node7</title>
<g id="a_edge6_Node000004_Node000007"><a xlink:title=" ">
<path fill="none" stroke="#63b8ff" d="M801.13,-81.48C730.17,-69.28 639.98,-53.57 602.88,-46.25 599.79,-45.64 596.66,-45.01 593.5,-44.37"/>
<polygon fill="#63b8ff" stroke="#63b8ff" points="800.41,-84.91 810.85,-83.15 801.59,-78.01 800.41,-84.91"/>
</a>
</g>
</g>
<!-- Node8 -->
<g id="Node000008" class="node">
<title>Node8</title>
<g id="a_Node000008"><a xlink:href="UTactixBTDecorator__PlanActive_8cpp.html" target="_top" xlink:title="Implements the plan&#45;active decorator condition (valid plan with steps left).">
<polygon fill="white" stroke="#666666" points="794.12,-46.25 611.62,-46.25 611.62,0 794.12,0 794.12,-46.25"/>
<text xml:space="preserve" text-anchor="start" x="619.62" y="-32.75" font-family="Helvetica,sans-Serif" font-size="10.00">Source/TactixUE/Private</text>
<text xml:space="preserve" text-anchor="start" x="619.62" y="-20" font-family="Helvetica,sans-Serif" font-size="10.00">/BehaviorTree/UTactixBTDecorator</text>
<text xml:space="preserve" text-anchor="middle" x="702.88" y="-7.25" font-family="Helvetica,sans-Serif" font-size="10.00">_PlanActive.cpp</text>
</a>
</g>
</g>
<!-- Node4&#45;&gt;Node8 -->
<g id="edge7_Node000004_Node000008" class="edge">
<title>Node4&#45;&gt;Node8</title>
<g id="a_edge7_Node000004_Node000008"><a xlink:title=" ">
<path fill="none" stroke="#63b8ff" d="M844.54,-77.8C819.17,-68.18 788.73,-56.65 762.58,-46.74"/>
<polygon fill="#63b8ff" stroke="#63b8ff" points="843.07,-80.98 853.67,-81.25 845.55,-74.44 843.07,-80.98"/>
</a>
</g>
</g>
<!-- Node9 -->
<g id="Node000009" class="node">
<title>Node9</title>
<g id="a_Node000009"><a xlink:href="UTactixBTService__InfluenceQuery_8cpp.html" target="_top" xlink:title="Implements the influence&#45;sampling BT service.">
<polygon fill="white" stroke="#666666" points="983.12,-46.25 812.62,-46.25 812.62,0 983.12,0 983.12,-46.25"/>
<text xml:space="preserve" text-anchor="start" x="820.62" y="-32.75" font-family="Helvetica,sans-Serif" font-size="10.00">Source/TactixUE/Private</text>
<text xml:space="preserve" text-anchor="start" x="820.62" y="-20" font-family="Helvetica,sans-Serif" font-size="10.00">/BehaviorTree/UTactixBTService</text>
<text xml:space="preserve" text-anchor="middle" x="897.88" y="-7.25" font-family="Helvetica,sans-Serif" font-size="10.00">_InfluenceQuery.cpp</text>
</a>
</g>
</g>
<!-- Node4&#45;&gt;Node9 -->
<g id="edge8_Node000004_Node000009" class="edge">
<title>Node4&#45;&gt;Node9</title>
<g id="a_edge8_Node000004_Node000009"><a xlink:title=" ">
<path fill="none" stroke="#63b8ff" d="M897.88,-70.64C897.88,-62.71 897.88,-54.16 897.88,-46.57"/>
<polygon fill="#63b8ff" stroke="#63b8ff" points="894.38,-70.46 897.88,-80.46 901.38,-70.46 894.38,-70.46"/>
</a>
</g>
</g>
<!-- Node10 -->
<g id="Node000010" class="node">
<title>Node10</title>
<g id="a_Node000010"><a xlink:href="UTactixBTTask__ClaimCover_8cpp.html" target="_top" xlink:title="Implements the cover query/claim BT task: build the query from agent and blackboard state,...">
<polygon fill="white" stroke="#666666" points="1157,-46.25 1000.75,-46.25 1000.75,0 1157,0 1157,-46.25"/>
<text xml:space="preserve" text-anchor="start" x="1008.75" y="-32.75" font-family="Helvetica,sans-Serif" font-size="10.00">Source/TactixUE/Private</text>
<text xml:space="preserve" text-anchor="start" x="1008.75" y="-20" font-family="Helvetica,sans-Serif" font-size="10.00">/BehaviorTree/UTactixBTTask</text>
<text xml:space="preserve" text-anchor="middle" x="1078.88" y="-7.25" font-family="Helvetica,sans-Serif" font-size="10.00">_ClaimCover.cpp</text>
</a>
</g>
</g>
<!-- Node4&#45;&gt;Node10 -->
<g id="edge9_Node000004_Node000010" class="edge">
<title>Node4&#45;&gt;Node10</title>
<g id="a_edge9_Node000004_Node000010"><a xlink:title=" ">
<path fill="none" stroke="#63b8ff" d="M948.01,-77.54C971.44,-67.98 999.4,-56.56 1023.46,-46.74"/>
<polygon fill="#63b8ff" stroke="#63b8ff" points="946.93,-74.2 939,-81.22 949.58,-80.68 946.93,-74.2"/>
</a>
</g>
</g>
<!-- Node11 -->
<g id="Node000011" class="node">
<title>Node11</title>
<g id="a_Node000011"><a xlink:href="UTactixBTTask__ExecutePlan_8cpp.html" target="_top" xlink:title="Implements step&#45;by&#45;step plan execution for the BT task.">
<polygon fill="white" stroke="#666666" points="1331,-46.25 1174.75,-46.25 1174.75,0 1331,0 1331,-46.25"/>
<text xml:space="preserve" text-anchor="start" x="1182.75" y="-32.75" font-family="Helvetica,sans-Serif" font-size="10.00">Source/TactixUE/Private</text>
<text xml:space="preserve" text-anchor="start" x="1182.75" y="-20" font-family="Helvetica,sans-Serif" font-size="10.00">/BehaviorTree/UTactixBTTask</text>
<text xml:space="preserve" text-anchor="middle" x="1252.88" y="-7.25" font-family="Helvetica,sans-Serif" font-size="10.00">_ExecutePlan.cpp</text>
</a>
</g>
</g>
<!-- Node4&#45;&gt;Node11 -->
<g id="edge10_Node000004_Node000011" class="edge">
<title>Node4&#45;&gt;Node11</title>
<g id="a_edge10_Node000004_Node000011"><a xlink:title=" ">
<path fill="none" stroke="#63b8ff" d="M994.57,-80.74C1045.65,-71.26 1109.33,-58.89 1165.88,-46.25 1168.76,-45.6 1171.7,-44.93 1174.67,-44.24"/>
<polygon fill="#63b8ff" stroke="#63b8ff" points="994.22,-77.24 985.02,-82.5 995.49,-84.13 994.22,-77.24"/>
</a>
</g>
</g>
<!-- Node12 -->
<g id="Node000012" class="node">
<title>Node12</title>
<g id="a_Node000012"><a xlink:href="UTactixBTTask__RunUtility_8cpp.html" target="_top" xlink:title="Implements the utility&#45;selection BT task: snapshot the agent, pick the best action,...">
<polygon fill="white" stroke="#666666" points="1505,-46.25 1348.75,-46.25 1348.75,0 1505,0 1505,-46.25"/>
<text xml:space="preserve" text-anchor="start" x="1356.75" y="-32.75" font-family="Helvetica,sans-Serif" font-size="10.00">Source/TactixUE/Private</text>
<text xml:space="preserve" text-anchor="start" x="1356.75" y="-20" font-family="Helvetica,sans-Serif" font-size="10.00">/BehaviorTree/UTactixBTTask</text>
<text xml:space="preserve" text-anchor="middle" x="1426.88" y="-7.25" font-family="Helvetica,sans-Serif" font-size="10.00">_RunUtility.cpp</text>
</a>
</g>
</g>
<!-- Node4&#45;&gt;Node12 -->
<g id="edge11_Node000004_Node000012" class="edge">
<title>Node4&#45;&gt;Node12</title>
<g id="a_edge11_Node000004_Node000012"><a xlink:title=" ">
<path fill="none" stroke="#63b8ff" d="M994.8,-90.37C1084.72,-82.42 1222.03,-68.03 1339.88,-46.25 1342.63,-45.74 1345.43,-45.19 1348.26,-44.62"/>
<polygon fill="#63b8ff" stroke="#63b8ff" points="994.69,-86.87 985.03,-91.23 995.3,-93.84 994.69,-86.87"/>
</a>
</g>
</g>
<!-- Node13 -->
<g id="Node000013" class="node">
<title>Node13</title>
<g id="a_Node000013"><a xlink:href="ATactixAIController_8cpp.html" target="_top" xlink:title="Implements the Tactix AIController: scratch arena ownership, handle assignment on possess,...">
<polygon fill="white" stroke="#666666" points="1704.75,-39.88 1523,-39.88 1523,-6.38 1704.75,-6.38 1704.75,-39.88"/>
<text xml:space="preserve" text-anchor="start" x="1531" y="-26.38" font-family="Helvetica,sans-Serif" font-size="10.00">Source/TactixUE/Private</text>
<text xml:space="preserve" text-anchor="middle" x="1613.88" y="-13.62" font-family="Helvetica,sans-Serif" font-size="10.00">/Controller/ATactixAIController.cpp</text>
</a>
</g>
</g>
<!-- Node4&#45;&gt;Node13 -->
<g id="edge12_Node000004_Node000013" class="edge">
<title>Node4&#45;&gt;Node13</title>
<g id="a_edge12_Node000004_Node000013"><a xlink:title=" ">
<path fill="none" stroke="#63b8ff" d="M994.99,-93.87C1116.76,-87.76 1331.68,-73.93 1513.88,-46.25 1524.42,-44.65 1535.52,-42.58 1546.33,-40.36"/>
<polygon fill="#63b8ff" stroke="#63b8ff" points="994.82,-90.37 985.01,-94.36 995.17,-97.36 994.82,-90.37"/>
</a>
</g>
</g>
</g>
</svg>
