<?xml version="1.0" encoding="UTF-8" standalone="no"?>
<!DOCTYPE svg PUBLIC "-//W3C//DTD SVG 1.1//EN"
 "http://www.w3.org/Graphics/SVG/1.1/DTD/svg11.dtd">
<!-- Generated by graphviz version 14.1.5 (0)
 -->
<!-- Title: Source/TactixCore/Public/Foundation/TactixMath.h Pages: 1 -->
<svg width="209pt" height="98pt"
 viewBox="0.00 0.00 209.00 98.00" xmlns="http://www.w3.org/2000/svg" xmlns:xlink="http://www.w3.org/1999/xlink">
<g id="graph0" class="graph" transform="scale(1 1) rotate(0) translate(4 94.25)">
<title>Source/TactixCore/Public/Foundation/TactixMath.h</title>
<!-- Node1 -->
<g id="Node000001" class="node">
<title>Node1</title>
<g id="a_Node000001"><a xlink:title="Small, engine&#45;agnostic vector and scalar math used across Tactix.">
<polygon fill="#999999" stroke="#666666" points="179.75,-90.25 41.5,-90.25 41.5,-56.75 179.75,-56.75 179.75,-90.25"/>
<text xml:space="preserve" text-anchor="start" x="49.5" y="-76.75" font-family="Helvetica,sans-Serif" font-size="10.00">Source/TactixCore/Public</text>
<text xml:space="preserve" text-anchor="middle" x="110.62" y="-64" font-family="Helvetica,sans-Serif" font-size="10.00">/Foundation/TactixMath.h</text>
</a>
</g>
</g>
<!-- Node2 -->
<g id="Node000002" class="node">
<title>Node2</title>
<g id="a_Node000002"><a xlink:href="TactixApi_8h.html" target="_top" xlink:title="Export macros, compiler attributes and version constants shared by every Tactix module.">
<polygon fill="white" stroke="#666666" points="69.25,-20.75 0,-20.75 0,0 69.25,0 69.25,-20.75"/>
<text xml:space="preserve" text-anchor="middle" x="34.62" y="-7.25" font-family="Helvetica,sans-Serif" font-size="10.00">TactixApi.h</text>
</a>
</g>
</g>
<!-- Node1&#45;&gt;Node2 -->
<g id="edge1_Node000001_Node000002" class="edge">
<title>Node1&#45;&gt;Node2</title>
<g id="a_edge1_Node000001_Node000002"><a xlink:title=" ">
<path fill="none" stroke="#63b8ff" d="M90.66,-56.44C79.91,-47.8 66.65,-37.13 55.73,-28.35"/>
<polygon fill="#63b8ff" stroke="#63b8ff" points="58.03,-25.71 48.04,-22.17 53.64,-31.16 58.03,-25.71"/>
</a>
</g>
</g>
<!-- Node3 -->
<g id="Node000003" class="node">
<title>Node3</title>
<g id="a_Node000003"><a xlink:title=" ">
<polygon fill="#e0e0e0" stroke="#999999" points="134,-20.75 87.25,-20.75 87.25,0 134,0 134,-20.75"/>
<text xml:space="preserve" text-anchor="middle" x="110.62" y="-7.25" font-family="Helvetica,sans-Serif" font-size="10.00">cmath</text>
</a>
</g>
</g>
<!-- Node1&#45;&gt;Node3 -->
<g id="edge2_Node000001_Node000003" class="edge">
<title>Node1&#45;&gt;Node3</title>
<g id="a_edge2_Node000001_Node000003"><a xlink:title=" ">
<path fill="none" stroke="#63b8ff" d="M110.62,-56.44C110.62,-49.1 110.62,-40.32 110.62,-32.46"/>
<polygon fill="#63b8ff" stroke="#63b8ff" points="114.13,-32.73 110.63,-22.73 107.13,-32.73 114.13,-32.73"/>
</a>
</g>
</g>
<!-- Node4 -->
<g id="Node000004" class="node">
<title>Node4</title>
<g id="a_Node000004"><a xlink:title=" ">
<polygon fill="#e0e0e0" stroke="#999999" points="201.12,-20.75 152.12,-20.75 152.12,0 201.12,0 201.12,-20.75"/>
<text xml:space="preserve" text-anchor="middle" x="176.62" y="-7.25" font-family="Helvetica,sans-Serif" font-size="10.00">cstdint</text>
</a>
</g>
</g>
<!-- Node1&#45;&gt;Node4 -->
<g id="edge3_Node000001_Node000004" class="edge">
<title>Node1&#45;&gt;Node4</title>
<g id="a_edge3_Node000001_Node000004"><a xlink:title=" ">
<path fill="none" stroke="#63b8ff" d="M127.97,-56.44C137.11,-47.97 148.35,-37.56 157.72,-28.89"/>
<polygon fill="#63b8ff" stroke="#63b8ff" points="159.93,-31.61 164.89,-22.25 155.17,-26.47 159.93,-31.61"/>
</a>
</g>
</g>
</g>
</svg>
