<?xml version="1.0" encoding="UTF-8" standalone="no"?>
<!DOCTYPE svg PUBLIC "-//W3C//DTD SVG 1.1//EN"
 "http://www.w3.org/Graphics/SVG/1.1/DTD/svg11.dtd">
<!-- Generated by graphviz version 14.1.5 (0)
 -->
<!-- Title: Source/TactixUE/Public/EQS/UTactixEQSGenerator_Cover.h Pages: 1 -->
<svg width="410pt" height="124pt"
 viewBox="0.00 0.00 410.00 124.00" xmlns="http://www.w3.org/2000/svg" xmlns:xlink="http://www.w3.org/1999/xlink">
<g id="graph0" class="graph" transform="scale(1 1) rotate(0) translate(4 119.75)">
<title>Source/TactixUE/Public/EQS/UTactixEQSGenerator_Cover.h</title>
<!-- Node1 -->
<g id="Node000001" class="node">
<title>Node1</title>
<g id="a_Node000001"><a xlink:title="EQS generator that emits registered cover points as query items.">
<polygon fill="#999999" stroke="#666666" points="257.5,-115.75 111.75,-115.75 111.75,-69.5 257.5,-69.5 257.5,-115.75"/>
<text xml:space="preserve" text-anchor="start" x="119.75" y="-102.25" font-family="Helvetica,sans-Serif" font-size="10.00">Source/TactixUE/Public</text>
<text xml:space="preserve" text-anchor="start" x="119.75" y="-89.5" font-family="Helvetica,sans-Serif" font-size="10.00">/EQS/UTactixEQSGenerator</text>
<text xml:space="preserve" text-anchor="middle" x="184.62" y="-76.75" font-family="Helvetica,sans-Serif" font-size="10.00">_Cover.h</text>
</a>
</g>
</g>
<!-- Node2 -->
<g id="Node000002" class="node">
<title>Node2</title>
<g id="a_Node000002"><a xlink:title=" ">
<polygon fill="#e0e0e0" stroke="#999999" points="87.25,-27.12 0,-27.12 0,-6.38 87.25,-6.38 87.25,-27.12"/>
<text xml:space="preserve" text-anchor="middle" x="43.62" y="-13.62" font-family="Helvetica,sans-Serif" font-size="10.00">CoreMinimal.h</text>
</a>
</g>
</g>
<!-- Node1&#45;&gt;Node2 -->
<g id="edge1_Node000001_Node000002" class="edge">
<title>Node1&#45;&gt;Node2</title>
<g id="a_edge1_Node000001_Node000002"><a xlink:title=" ">
<path fill="none" stroke="#63b8ff" d="M141.55,-69.06C119.04,-57.26 92.1,-43.15 72.18,-32.71"/>
<polygon fill="#63b8ff" stroke="#63b8ff" points="74.01,-29.72 63.53,-28.18 70.76,-35.92 74.01,-29.72"/>
</a>
</g>
</g>
<!-- Node3 -->
<g id="Node000003" class="node">
<title>Node3</title>
<g id="a_Node000003"><a xlink:title=" ">
<polygon fill="#e0e0e0" stroke="#999999" points="263.5,-33.5 105.75,-33.5 105.75,0 263.5,0 263.5,-33.5"/>
<text xml:space="preserve" text-anchor="start" x="113.75" y="-20" font-family="Helvetica,sans-Serif" font-size="10.00">EnvironmentQuery/EnvQuery</text>
<text xml:space="preserve" text-anchor="middle" x="184.62" y="-7.25" font-family="Helvetica,sans-Serif" font-size="10.00">Generator.h</text>
</a>
</g>
</g>
<!-- Node1&#45;&gt;Node3 -->
<g id="edge2_Node000001_Node000003" class="edge">
<title>Node1&#45;&gt;Node3</title>
<g id="a_edge2_Node000001_Node000003"><a xlink:title=" ">
<path fill="none" stroke="#63b8ff" d="M184.62,-69.06C184.62,-61.51 184.62,-53.01 184.62,-45.13"/>
<polygon fill="#63b8ff" stroke="#63b8ff" points="188.13,-45.37 184.63,-35.37 181.13,-45.37 188.13,-45.37"/>
</a>
</g>
</g>
<!-- Node4 -->
<g id="Node000004" class="node">
<title>Node4</title>
<g id="a_Node000004"><a xlink:title=" ">
<polygon fill="#e0e0e0" stroke="#999999" points="401.75,-33.5 281.5,-33.5 281.5,0 401.75,0 401.75,-33.5"/>
<text xml:space="preserve" text-anchor="start" x="289.5" y="-20" font-family="Helvetica,sans-Serif" font-size="10.00">UTactixEQSGenerator</text>
<text xml:space="preserve" text-anchor="middle" x="341.62" y="-7.25" font-family="Helvetica,sans-Serif" font-size="10.00">_Cover.generated.h</text>
</a>
</g>
</g>
<!-- Node1&#45;&gt;Node4 -->
<g id="edge3_Node000001_Node000004" class="edge">
<title>Node1&#45;&gt;Node4</title>
<g id="a_edge3_Node000001_Node000004"><a xlink:title=" ">
<path fill="none" stroke="#63b8ff" d="M232.58,-69.06C253.16,-59.37 277.06,-48.13 297.23,-38.64"/>
<polygon fill="#63b8ff" stroke="#63b8ff" points="298.47,-41.92 306.03,-34.5 295.49,-35.59 298.47,-41.92"/>
</a>
</g>
</g>
</g>
</svg>
