<?xml version="1.0" encoding="UTF-8" standalone="no"?>
<!DOCTYPE svg PUBLIC "-//W3C//DTD SVG 1.1//EN"
 "http://www.w3.org/Graphics/SVG/1.1/DTD/svg11.dtd">
<!-- Generated by graphviz version 14.1.5 (0)
 -->
<!-- Title: Source/TactixUE/Private/BehaviorTree/UTactixBTTask_RunUtility.cpp Pages: 1 -->
<svg width="1969pt" height="364pt"
 viewBox="0.00 0.00 1969.00 364.00" xmlns="http://www.w3.org/2000/svg" xmlns:xlink="http://www.w3.org/1999/xlink">
<g id="graph0" class="graph" transform="scale(1 1) rotate(0) translate(4 359.5)">
<title>Source/TactixUE/Private/BehaviorTree/UTactixBTTask_RunUtility.cpp</title>
<!-- Node1 -->
<g id="Node000001" class="node">
<title>Node1</title>
<g id="a_Node000001"><a xlink:title="Implements the utility&#45;selection BT task: snapshot the agent, pick the best action,...">
<polygon fill="#999999" stroke="#666666" points="1447.75,-355.5 1291.5,-355.5 1291.5,-309.25 1447.75,-309.25 1447.75,-355.5"/>
<text xml:space="preserve" text-anchor="start" x="1299.5" y="-342" font-family="Helvetica,sans-Serif" font-size="10.00">Source/TactixUE/Private</text>
<text xml:space="preserve" text-anchor="start" x="1299.5" y="-329.25" font-family="Helvetica,sans-Serif" font-size="10.00">/BehaviorTree/UTactixBTTask</text>
<text xml:space="preserve" text-anchor="middle" x="1369.62" y="-316.5" font-family="Helvetica,sans-Serif" font-size="10.00">_RunUtility.cpp</text>
</a>
</g>
</g>
<!-- Node2 -->
<g id="Node000002" class="node">
<title>Node2</title>
<g id="a_Node000002"><a xlink:href="UTactixBTTask__RunUtility_8h.html" target="_top" xlink:title="BT leaf that runs one utility&#45;selection pass and reports the winner.">
<polygon fill="white" stroke="#666666" points="1579.25,-273.25 1426,-273.25 1426,-239.75 1579.25,-239.75 1579.25,-273.25"/>
<text xml:space="preserve" text-anchor="start" x="1434" y="-259.75" font-family="Helvetica,sans-Serif" font-size="10.00">BehaviorTree/UTactixBTTask</text>
<text xml:space="preserve" text-anchor="middle" x="1502.62" y="-247" font-family="Helvetica,sans-Serif" font-size="10.00">_RunUtility.h</text>
</a>
</g>
</g>
<!-- Node1&#45;&gt;Node2 -->
<g id="edge1_Node000001_Node000002" class="edge">
<title>Node1&#45;&gt;Node2</title>
<g id="a_edge1_Node000001_Node000002"><a xlink:title=" ">
<path fill="none" stroke="#63b8ff" d="M1410.25,-308.81C1427.21,-299.39 1446.82,-288.5 1463.6,-279.18"/>
<polygon fill="#63b8ff" stroke="#63b8ff" points="1465.27,-282.25 1472.31,-274.34 1461.87,-276.13 1465.27,-282.25"/>
</a>
</g>
</g>
<!-- Node7 -->
<g id="Node000007" class="node">
<title>Node7</title>
<g id="a_Node000007"><a xlink:title=" ">
<polygon fill="#e0e0e0" stroke="#999999" points="1800,-266.88 1597.25,-266.88 1597.25,-246.12 1800,-246.12 1800,-266.88"/>
<text xml:space="preserve" text-anchor="middle" x="1698.62" y="-253.38" font-family="Helvetica,sans-Serif" font-size="10.00">BehaviorTree/BlackboardComponent.h</text>
</a>
</g>
</g>
<!-- Node1&#45;&gt;Node7 -->
<g id="edge6_Node000001_Node000007" class="edge">
<title>Node1&#45;&gt;Node7</title>
<g id="a_edge6_Node000001_Node000007"><a xlink:title=" ">
<path fill="none" stroke="#63b8ff" d="M1448.01,-313.77C1508.34,-300.23 1590.19,-281.85 1643.69,-269.84"/>
<polygon fill="#63b8ff" stroke="#63b8ff" points="1644.19,-273.31 1653.18,-267.7 1642.66,-266.48 1644.19,-273.31"/>
</a>
</g>
</g>
<!-- Node8 -->
<g id="Node000008" class="node">
<title>Node8</title>
<g id="a_Node000008"><a xlink:title=" ">
<polygon fill="#e0e0e0" stroke="#999999" points="1565.62,-134.25 1483.62,-134.25 1483.62,-113.5 1565.62,-113.5 1565.62,-134.25"/>
<text xml:space="preserve" text-anchor="middle" x="1524.62" y="-120.75" font-family="Helvetica,sans-Serif" font-size="10.00">AIController.h</text>
</a>
</g>
</g>
<!-- Node1&#45;&gt;Node8 -->
<g id="edge7_Node000001_Node000008" class="edge">
<title>Node1&#45;&gt;Node8</title>
<g id="a_edge7_Node000001_Node000008"><a xlink:title=" ">
<path fill="none" stroke="#63b8ff" d="M1370.27,-308.97C1372.41,-274.92 1381.22,-209.93 1416.62,-170.25 1431.19,-153.92 1452.59,-143.31 1472.5,-136.48"/>
<polygon fill="#63b8ff" stroke="#63b8ff" points="1473.42,-139.86 1481.91,-133.52 1471.32,-133.18 1473.42,-139.86"/>
</a>
</g>
</g>
<!-- Node9 -->
<g id="Node000009" class="node">
<title>Node9</title>
<g id="a_Node000009"><a xlink:href="UTactixAgentComponent_8h.html" target="_top" xlink:title="The component that makes a pawn a Tactix agent.">
<polygon fill="white" stroke="#666666" points="574.75,-266.88 364.5,-266.88 364.5,-246.12 574.75,-246.12 574.75,-266.88"/>
<text xml:space="preserve" text-anchor="middle" x="469.62" y="-253.38" font-family="Helvetica,sans-Serif" font-size="10.00">Components/UTactixAgentComponent.h</text>
</a>
</g>
</g>
<!-- Node1&#45;&gt;Node9 -->
<g id="edge8_Node000001_Node000009" class="edge">
<title>Node1&#45;&gt;Node9</title>
<g id="a_edge8_Node000001_Node000009"><a xlink:title=" ">
<path fill="none" stroke="#63b8ff" d="M1291.33,-324.95C1132.7,-311.93 772.65,-282.37 586.27,-267.07"/>
<polygon fill="#63b8ff" stroke="#63b8ff" points="586.83,-263.61 576.58,-266.28 586.26,-270.59 586.83,-263.61"/>
</a>
</g>
</g>
<!-- Node19 -->
<g id="Node000019" class="node">
<title>Node19</title>
<g id="a_Node000019"><a xlink:href="UTactixUtilityAsset_8h.html" target="_top" xlink:title="Designer&#45;facing asset: a named set of scored actions for one decision context.">
<polygon fill="white" stroke="#666666" points="933.88,-273.25 793.38,-273.25 793.38,-239.75 933.88,-239.75 933.88,-273.25"/>
<text xml:space="preserve" text-anchor="start" x="801.38" y="-259.75" font-family="Helvetica,sans-Serif" font-size="10.00">DataAssets/UTactixUtility</text>
<text xml:space="preserve" text-anchor="middle" x="863.62" y="-247" font-family="Helvetica,sans-Serif" font-size="10.00">Asset.h</text>
</a>
</g>
</g>
<!-- Node1&#45;&gt;Node19 -->
<g id="edge27_Node000001_Node000019" class="edge">
<title>Node1&#45;&gt;Node19</title>
<g id="a_edge27_Node000001_Node000019"><a xlink:title=" ">
<path fill="none" stroke="#63b8ff" d="M1291.12,-319.91C1197.22,-306.2 1040.81,-283.37 945.46,-269.45"/>
<polygon fill="#63b8ff" stroke="#63b8ff" points="946.05,-266 935.65,-268.01 945.04,-272.92 946.05,-266"/>
</a>
</g>
</g>
<!-- Node25 -->
<g id="Node000025" class="node">
<title>Node25</title>
<g id="a_Node000025"><a xlink:href="ATactixAIController_8h.html" target="_top" xlink:title="Base AIController for Tactix&#45;aware pawns.">
<polygon fill="white" stroke="#666666" points="1369.38,-197.38 1201.88,-197.38 1201.88,-176.62 1369.38,-176.62 1369.38,-197.38"/>
<text xml:space="preserve" text-anchor="middle" x="1285.62" y="-183.88" font-family="Helvetica,sans-Serif" font-size="10.00">Controller/ATactixAIController.h</text>
</a>
</g>
</g>
<!-- Node1&#45;&gt;Node25 -->
<g id="edge38_Node000001_Node000025" class="edge">
<title>Node1&#45;&gt;Node25</title>
<g id="a_edge38_Node000001_Node000025"><a xlink:title=" ">
<path fill="none" stroke="#63b8ff" d="M1356.5,-308.97C1340.12,-281.01 1312.37,-233.65 1296.9,-207.24"/>
<polygon fill="#63b8ff" stroke="#63b8ff" points="1300.11,-205.79 1292.03,-198.94 1294.07,-209.33 1300.11,-205.79"/>
</a>
</g>
</g>
<!-- Node3 -->
<g id="Node000003" class="node">
<title>Node3</title>
<g id="a_Node000003"><a xlink:title=" ">
<polygon fill="#e0e0e0" stroke="#999999" points="910.25,-134.25 823,-134.25 823,-113.5 910.25,-113.5 910.25,-134.25"/>
<text xml:space="preserve" text-anchor="middle" x="866.62" y="-120.75" font-family="Helvetica,sans-Serif" font-size="10.00">CoreMinimal.h</text>
</a>
</g>
</g>
<!-- Node2&#45;&gt;Node3 -->
<g id="edge2_Node000002_Node000003" class="edge">
<title>Node2&#45;&gt;Node3</title>
<g id="a_edge2_Node000002_Node000003"><a xlink:title=" ">
<path fill="none" stroke="#63b8ff" d="M1425.53,-250.33C1361.61,-244.24 1269.15,-231.21 1192.62,-203.75 1164.61,-193.69 1162.64,-180.31 1134.62,-170.25 1046.83,-138.71 1017.3,-149.77 921.91,-134.56"/>
<polygon fill="#63b8ff" stroke="#63b8ff" points="922.51,-131.11 912.07,-132.93 921.36,-138.02 922.51,-131.11"/>
</a>
</g>
</g>
<!-- Node4 -->
<g id="Node000004" class="node">
<title>Node4</title>
<g id="a_Node000004"><a xlink:title=" ">
<polygon fill="#e0e0e0" stroke="#999999" points="1577.5,-197.38 1425.75,-197.38 1425.75,-176.62 1577.5,-176.62 1577.5,-197.38"/>
<text xml:space="preserve" text-anchor="middle" x="1501.62" y="-183.88" font-family="Helvetica,sans-Serif" font-size="10.00">BehaviorTree/BTTaskNode.h</text>
</a>
</g>
</g>
<!-- Node2&#45;&gt;Node4 -->
<g id="edge3_Node000002_Node000004" class="edge">
<title>Node2&#45;&gt;Node4</title>
<g id="a_edge3_Node000002_Node000004"><a xlink:title=" ">
<path fill="none" stroke="#63b8ff" d="M1502.39,-239.5C1502.25,-230.4 1502.08,-218.89 1501.94,-209.07"/>
<polygon fill="#63b8ff" stroke="#63b8ff" points="1505.44,-209.28 1501.79,-199.34 1498.44,-209.39 1505.44,-209.28"/>
</a>
</g>
</g>
<!-- Node5 -->
<g id="Node000005" class="node">
<title>Node5</title>
<g id="a_Node000005"><a xlink:title=" ">
<polygon fill="#e0e0e0" stroke="#999999" points="1741.88,-203.75 1595.38,-203.75 1595.38,-170.25 1741.88,-170.25 1741.88,-203.75"/>
<text xml:space="preserve" text-anchor="start" x="1603.38" y="-190.25" font-family="Helvetica,sans-Serif" font-size="10.00">BehaviorTree/BehaviorTree</text>
<text xml:space="preserve" text-anchor="middle" x="1668.62" y="-177.5" font-family="Helvetica,sans-Serif" font-size="10.00">Types.h</text>
</a>
</g>
</g>
<!-- Node2&#45;&gt;Node5 -->
<g id="edge4_Node000002_Node000005" class="edge">
<title>Node2&#45;&gt;Node5</title>
<g id="a_edge4_Node000002_Node000005"><a xlink:title=" ">
<path fill="none" stroke="#63b8ff" d="M1542.39,-239.33C1565.2,-230.06 1594.05,-218.32 1618.41,-208.42"/>
<polygon fill="#63b8ff" stroke="#63b8ff" points="1619.55,-211.73 1627.5,-204.72 1616.92,-205.25 1619.55,-211.73"/>
</a>
</g>
</g>
<!-- Node6 -->
<g id="Node000006" class="node">
<title>Node6</title>
<g id="a_Node000006"><a xlink:title=" ">
<polygon fill="#e0e0e0" stroke="#999999" points="1960.88,-197.38 1760.38,-197.38 1760.38,-176.62 1960.88,-176.62 1960.88,-197.38"/>
<text xml:space="preserve" text-anchor="middle" x="1860.62" y="-183.88" font-family="Helvetica,sans-Serif" font-size="10.00">UTactixBTTask_RunUtility.generated.h</text>
</a>
</g>
</g>
<!-- Node2&#45;&gt;Node6 -->
<g id="edge5_Node000002_Node000006" class="edge">
<title>Node2&#45;&gt;Node6</title>
<g id="a_edge5_Node000002_Node000006"><a xlink:title=" ">
<path fill="none" stroke="#63b8ff" d="M1579.42,-241.02C1644.41,-228.77 1736.43,-211.42 1797.27,-199.94"/>
<polygon fill="#63b8ff" stroke="#63b8ff" points="1797.59,-203.45 1806.77,-198.15 1796.29,-196.57 1797.59,-203.45"/>
</a>
</g>
</g>
<!-- Node9&#45;&gt;Node3 -->
<g id="edge9_Node000009_Node000003" class="edge">
<title>Node9&#45;&gt;Node3</title>
<g id="a_edge9_Node000009_Node000003"><a xlink:title=" ">
<path fill="none" stroke="#63b8ff" d="M575.2,-250.56C632.4,-244.55 702.96,-231.55 760.62,-203.75 780.91,-193.97 780.78,-183.97 798.62,-170.25 812.12,-159.87 827.9,-149.26 840.85,-140.91"/>
<polygon fill="#63b8ff" stroke="#63b8ff" points="842.71,-143.88 849.27,-135.56 838.95,-137.97 842.71,-143.88"/>
</a>
</g>
</g>
<!-- Node10 -->
<g id="Node000010" class="node">
<title>Node10</title>
<g id="a_Node000010"><a xlink:title=" ">
<polygon fill="#e0e0e0" stroke="#999999" points="171.25,-197.38 0,-197.38 0,-176.62 171.25,-176.62 171.25,-197.38"/>
<text xml:space="preserve" text-anchor="middle" x="85.62" y="-183.88" font-family="Helvetica,sans-Serif" font-size="10.00">Components/ActorComponent.h</text>
</a>
</g>
</g>
<!-- Node9&#45;&gt;Node10 -->
<g id="edge10_Node000009_Node000010" class="edge">
<title>Node9&#45;&gt;Node10</title>
<g id="a_edge10_Node000009_Node000010"><a xlink:title=" ">
<path fill="none" stroke="#63b8ff" d="M413.79,-245.68C344.54,-233.51 226.6,-212.78 152.57,-199.77"/>
<polygon fill="#63b8ff" stroke="#63b8ff" points="153.47,-196.37 143.02,-198.09 152.26,-203.27 153.47,-196.37"/>
</a>
</g>
</g>
<!-- Node11 -->
<g id="Node000011" class="node">
<title>Node11</title>
<g id="a_Node000011"><a xlink:href="ITactixAgent_8h.html" target="_top" xlink:title="The engine&#45;agnostic contract a &quot;thinking&quot; entity implements to take part in Tactix systems.">
<polygon fill="white" stroke="#666666" points="525.88,-134.25 409.38,-134.25 409.38,-113.5 525.88,-113.5 525.88,-134.25"/>
<text xml:space="preserve" text-anchor="middle" x="467.62" y="-120.75" font-family="Helvetica,sans-Serif" font-size="10.00">Agent/ITactixAgent.h</text>
</a>
</g>
</g>
<!-- Node9&#45;&gt;Node11 -->
<g id="edge11_Node000009_Node000011" class="edge">
<title>Node9&#45;&gt;Node11</title>
<g id="a_edge11_Node000009_Node000011"><a xlink:title=" ">
<path fill="none" stroke="#63b8ff" d="M460.37,-245.76C451.8,-236.01 439.65,-220.14 434.62,-203.75 430.26,-189.51 430.02,-184.41 434.62,-170.25 437.84,-160.37 444.1,-150.85 450.31,-143.1"/>
<polygon fill="#63b8ff" stroke="#63b8ff" points="452.76,-145.62 456.67,-135.77 447.48,-141.03 452.76,-145.62"/>
</a>
</g>
</g>
<!-- Node15 -->
<g id="Node000015" class="node">
<title>Node15</title>
<g id="a_Node000015"><a xlink:href="FTactixAgentContext_8h.html" target="_top" xlink:title="Read&#45;only, side&#45;effect&#45;free snapshot of one agent for a single decision.">
<polygon fill="white" stroke="#666666" points="601.12,-197.38 444.12,-197.38 444.12,-176.62 601.12,-176.62 601.12,-197.38"/>
<text xml:space="preserve" text-anchor="middle" x="522.62" y="-183.88" font-family="Helvetica,sans-Serif" font-size="10.00">Agent/FTactixAgentContext.h</text>
</a>
</g>
</g>
<!-- Node9&#45;&gt;Node15 -->
<g id="edge17_Node000009_Node000015" class="edge">
<title>Node9&#45;&gt;Node15</title>
<g id="a_edge17_Node000009_Node000015"><a xlink:title=" ">
<path fill="none" stroke="#63b8ff" d="M477.22,-245.83C485.25,-235.6 498.11,-219.23 508.1,-206.5"/>
<polygon fill="#63b8ff" stroke="#63b8ff" points="510.69,-208.87 514.11,-198.84 505.18,-204.55 510.69,-208.87"/>
</a>
</g>
</g>
<!-- Node18 -->
<g id="Node000018" class="node">
<title>Node18</title>
<g id="a_Node000018"><a xlink:title=" ">
<polygon fill="#e0e0e0" stroke="#999999" points="387.75,-197.38 189.5,-197.38 189.5,-176.62 387.75,-176.62 387.75,-197.38"/>
<text xml:space="preserve" text-anchor="middle" x="288.62" y="-183.88" font-family="Helvetica,sans-Serif" font-size="10.00">UTactixAgentComponent.generated.h</text>
</a>
</g>
</g>
<!-- Node9&#45;&gt;Node18 -->
<g id="edge26_Node000009_Node000018" class="edge">
<title>Node9&#45;&gt;Node18</title>
<g id="a_edge26_Node000009_Node000018"><a xlink:title=" ">
<path fill="none" stroke="#63b8ff" d="M443.31,-245.68C412.34,-234.14 360.72,-214.89 325.71,-201.83"/>
<polygon fill="#63b8ff" stroke="#63b8ff" points="326.99,-198.57 316.39,-198.36 324.54,-205.13 326.99,-198.57"/>
</a>
</g>
</g>
<!-- Node12 -->
<g id="Node000012" class="node">
<title>Node12</title>
<g id="a_Node000012"><a xlink:href="TactixApi_8h.html" target="_top" xlink:title="Export macros, compiler attributes and version constants shared by every Tactix module.">
<polygon fill="white" stroke="#666666" points="732.25,-20.75 663,-20.75 663,0 732.25,0 732.25,-20.75"/>
<text xml:space="preserve" text-anchor="middle" x="697.62" y="-7.25" font-family="Helvetica,sans-Serif" font-size="10.00">TactixApi.h</text>
</a>
</g>
</g>
<!-- Node11&#45;&gt;Node12 -->
<g id="edge12_Node000011_Node000012" class="edge">
<title>Node11&#45;&gt;Node12</title>
<g id="a_edge12_Node000011_Node000012"><a xlink:title=" ">
<path fill="none" stroke="#63b8ff" d="M458.8,-113.31C447.11,-99.45 429.51,-73.61 443.62,-56.75 469.6,-25.73 585.4,-15.89 651.32,-12.79"/>
<polygon fill="#63b8ff" stroke="#63b8ff" points="651.27,-16.3 661.11,-12.37 650.97,-9.3 651.27,-16.3"/>
</a>
</g>
</g>
<!-- Node13 -->
<g id="Node000013" class="node">
<title>Node13</title>
<g id="a_Node000013"><a xlink:href="TactixHandle_8h.html" target="_top" xlink:title="Type&#45;safe generational handle: the only sanctioned way to reference a pooled object across frames.">
<polygon fill="white" stroke="#666666" points="631.12,-77.5 486.12,-77.5 486.12,-56.75 631.12,-56.75 631.12,-77.5"/>
<text xml:space="preserve" text-anchor="middle" x="558.62" y="-64" font-family="Helvetica,sans-Serif" font-size="10.00">Foundation/TactixHandle.h</text>
</a>
</g>
</g>
<!-- Node11&#45;&gt;Node13 -->
<g id="edge13_Node000011_Node000013" class="edge">
<title>Node11&#45;&gt;Node13</title>
<g id="a_edge13_Node000011_Node000013"><a xlink:title=" ">
<path fill="none" stroke="#63b8ff" d="M483.89,-113.09C497.48,-104.91 517.1,-93.11 532.83,-83.65"/>
<polygon fill="#63b8ff" stroke="#63b8ff" points="534.44,-86.76 541.2,-78.61 530.83,-80.77 534.44,-86.76"/>
</a>
</g>
</g>
<!-- Node14 -->
<g id="Node000014" class="node">
<title>Node14</title>
<g id="a_Node000014"><a xlink:title=" ">
<polygon fill="#e0e0e0" stroke="#999999" points="820.12,-20.75 771.12,-20.75 771.12,0 820.12,0 820.12,-20.75"/>
<text xml:space="preserve" text-anchor="middle" x="795.62" y="-7.25" font-family="Helvetica,sans-Serif" font-size="10.00">cstdint</text>
</a>
</g>
</g>
<!-- Node11&#45;&gt;Node14 -->
<g id="edge16_Node000011_Node000014" class="edge">
<title>Node11&#45;&gt;Node14</title>
<g id="a_edge16_Node000011_Node000014"><a xlink:title=" ">
<path fill="none" stroke="#63b8ff" d="M465.71,-113.23C463.46,-98.79 461.71,-71.66 476.62,-56.75 518.65,-14.73 682.89,-29.83 741.62,-20.75 747.41,-19.85 753.54,-18.85 759.51,-17.84"/>
<polygon fill="#63b8ff" stroke="#63b8ff" points="759.9,-21.32 769.16,-16.17 758.71,-14.42 759.9,-21.32"/>
</a>
</g>
</g>
<!-- Node13&#45;&gt;Node12 -->
<g id="edge14_Node000013_Node000012" class="edge">
<title>Node13&#45;&gt;Node12</title>
<g id="a_edge14_Node000013_Node000012"><a xlink:title=" ">
<path fill="none" stroke="#63b8ff" d="M583.48,-56.34C605.51,-47.66 637.94,-34.88 662.61,-25.17"/>
<polygon fill="#63b8ff" stroke="#63b8ff" points="663.56,-28.55 671.58,-21.63 660.99,-22.04 663.56,-28.55"/>
</a>
</g>
</g>
<!-- Node13&#45;&gt;Node14 -->
<g id="edge15_Node000013_Node000014" class="edge">
<title>Node13&#45;&gt;Node14</title>
<g id="a_edge15_Node000013_Node000014"><a xlink:title=" ">
<path fill="none" stroke="#63b8ff" d="M601.27,-56.27C646.46,-45.83 717.05,-29.53 759.57,-19.7"/>
<polygon fill="#63b8ff" stroke="#63b8ff" points="760.34,-23.12 769.3,-17.46 758.77,-16.3 760.34,-23.12"/>
</a>
</g>
</g>
<!-- Node15&#45;&gt;Node11 -->
<g id="edge24_Node000015_Node000011" class="edge">
<title>Node15&#45;&gt;Node11</title>
<g id="a_edge24_Node000015_Node000011"><a xlink:title=" ">
<path fill="none" stroke="#63b8ff" d="M513.79,-176.18C505.72,-167.22 493.6,-153.74 483.8,-142.85"/>
<polygon fill="#63b8ff" stroke="#63b8ff" points="486.56,-140.69 477.27,-135.6 481.36,-145.37 486.56,-140.69"/>
</a>
</g>
</g>
<!-- Node15&#45;&gt;Node12 -->
<g id="edge18_Node000015_Node000012" class="edge">
<title>Node15&#45;&gt;Node12</title>
<g id="a_edge18_Node000015_Node000012"><a xlink:title=" ">
<path fill="none" stroke="#63b8ff" d="M465.34,-176.18C441.11,-168.88 415.17,-156.22 400.62,-134.25 381.67,-105.62 424.27,-63.85 434.62,-56.75 469.14,-33.09 585.91,-20.22 651.66,-14.7"/>
<polygon fill="#63b8ff" stroke="#63b8ff" points="651.73,-18.21 661.41,-13.91 651.16,-11.23 651.73,-18.21"/>
</a>
</g>
</g>
<!-- Node15&#45;&gt;Node13 -->
<g id="edge19_Node000015_Node000013" class="edge">
<title>Node15&#45;&gt;Node13</title>
<g id="a_edge19_Node000015_Node000013"><a xlink:title=" ">
<path fill="none" stroke="#63b8ff" d="M525.57,-176.35C531.4,-157.27 544.51,-114.33 552.36,-88.65"/>
<polygon fill="#63b8ff" stroke="#63b8ff" points="555.62,-89.94 555.2,-79.35 548.93,-87.89 555.62,-89.94"/>
</a>
</g>
</g>
<!-- Node15&#45;&gt;Node14 -->
<g id="edge25_Node000015_Node000014" class="edge">
<title>Node15&#45;&gt;Node14</title>
<g id="a_edge25_Node000015_Node000014"><a xlink:title=" ">
<path fill="none" stroke="#63b8ff" d="M536.53,-176.27C568.11,-154.28 647.81,-99.37 716.62,-56.75 733.45,-46.33 752.7,-35.26 767.99,-26.66"/>
<polygon fill="#63b8ff" stroke="#63b8ff" points="769.52,-29.81 776.54,-21.88 766.1,-23.7 769.52,-29.81"/>
</a>
</g>
</g>
<!-- Node16 -->
<g id="Node000016" class="node">
<title>Node16</title>
<g id="a_Node000016"><a xlink:href="TactixMath_8h.html" target="_top" xlink:title="Small, engine&#45;agnostic vector and scalar math used across Tactix.">
<polygon fill="white" stroke="#666666" points="353.25,-77.5 218,-77.5 218,-56.75 353.25,-56.75 353.25,-77.5"/>
<text xml:space="preserve" text-anchor="middle" x="285.62" y="-64" font-family="Helvetica,sans-Serif" font-size="10.00">Foundation/TactixMath.h</text>
</a>
</g>
</g>
<!-- Node15&#45;&gt;Node16 -->
<g id="edge20_Node000015_Node000016" class="edge">
<title>Node15&#45;&gt;Node16</title>
<g id="a_edge20_Node000015_Node000016"><a xlink:title=" ">
<path fill="none" stroke="#63b8ff" d="M480.16,-176.21C448.03,-167.78 403.47,-153.85 367.62,-134.25 343.48,-121.05 319.39,-100.52 303.63,-85.84"/>
<polygon fill="#63b8ff" stroke="#63b8ff" points="306.13,-83.38 296.47,-79.02 301.3,-88.45 306.13,-83.38"/>
</a>
</g>
</g>
<!-- Node16&#45;&gt;Node12 -->
<g id="edge21_Node000016_Node000012" class="edge">
<title>Node16&#45;&gt;Node12</title>
<g id="a_edge21_Node000016_Node000012"><a xlink:title=" ">
<path fill="none" stroke="#63b8ff" d="M353.66,-57.08C437.94,-45.88 579.25,-27.11 651.72,-17.48"/>
<polygon fill="#63b8ff" stroke="#63b8ff" points="651.79,-21 661.24,-16.21 650.87,-14.06 651.79,-21"/>
</a>
</g>
</g>
<!-- Node16&#45;&gt;Node14 -->
<g id="edge23_Node000016_Node000014" class="edge">
<title>Node16&#45;&gt;Node14</title>
<g id="a_edge23_Node000016_Node000014"><a xlink:title=" ">
<path fill="none" stroke="#63b8ff" d="M353.41,-60.93C442.63,-53.74 604.27,-39.48 741.62,-20.75 747.43,-19.96 753.56,-19.01 759.53,-18.02"/>
<polygon fill="#63b8ff" stroke="#63b8ff" points="759.93,-21.5 769.19,-16.35 758.74,-14.6 759.93,-21.5"/>
</a>
</g>
</g>
<!-- Node17 -->
<g id="Node000017" class="node">
<title>Node17</title>
<g id="a_Node000017"><a xlink:title=" ">
<polygon fill="#e0e0e0" stroke="#999999" points="309,-20.75 262.25,-20.75 262.25,0 309,0 309,-20.75"/>
<text xml:space="preserve" text-anchor="middle" x="285.62" y="-7.25" font-family="Helvetica,sans-Serif" font-size="10.00">cmath</text>
</a>
</g>
</g>
<!-- Node16&#45;&gt;Node17 -->
<g id="edge22_Node000016_Node000017" class="edge">
<title>Node16&#45;&gt;Node17</title>
<g id="a_edge22_Node000016_Node000017"><a xlink:title=" ">
<path fill="none" stroke="#63b8ff" d="M285.62,-56.34C285.62,-49.72 285.62,-40.72 285.62,-32.52"/>
<polygon fill="#63b8ff" stroke="#63b8ff" points="289.13,-32.59 285.63,-22.59 282.13,-32.59 289.13,-32.59"/>
</a>
</g>
</g>
<!-- Node19&#45;&gt;Node3 -->
<g id="edge28_Node000019_Node000003" class="edge">
<title>Node19&#45;&gt;Node3</title>
<g id="a_edge28_Node000019_Node000003"><a xlink:title=" ">
<path fill="none" stroke="#63b8ff" d="M934.11,-250.85C1000.79,-244.8 1093.95,-231.54 1116.62,-203.75 1126.04,-192.22 1126.17,-181.68 1116.62,-170.25 1115.84,-169.31 994.81,-147.66 921.46,-134.61"/>
<polygon fill="#63b8ff" stroke="#63b8ff" points="922.52,-131.24 912.06,-132.93 921.29,-138.13 922.52,-131.24"/>
</a>
</g>
</g>
<!-- Node19&#45;&gt;Node15 -->
<g id="edge36_Node000019_Node000015" class="edge">
<title>Node19&#45;&gt;Node15</title>
<g id="a_edge36_Node000019_Node000015"><a xlink:title=" ">
<path fill="none" stroke="#63b8ff" d="M792.97,-241.51C731.12,-229.27 642.2,-211.67 583.45,-200.04"/>
<polygon fill="#63b8ff" stroke="#63b8ff" points="584.46,-196.67 573.97,-198.16 583.1,-203.54 584.46,-196.67"/>
</a>
</g>
</g>
<!-- Node20 -->
<g id="Node000020" class="node">
<title>Node20</title>
<g id="a_Node000020"><a xlink:title=" ">
<polygon fill="#e0e0e0" stroke="#999999" points="919.25,-197.38 808,-197.38 808,-176.62 919.25,-176.62 919.25,-197.38"/>
<text xml:space="preserve" text-anchor="middle" x="863.62" y="-183.88" font-family="Helvetica,sans-Serif" font-size="10.00">Engine/DataAsset.h</text>
</a>
</g>
</g>
<!-- Node19&#45;&gt;Node20 -->
<g id="edge29_Node000019_Node000020" class="edge">
<title>Node19&#45;&gt;Node20</title>
<g id="a_edge29_Node000019_Node000020"><a xlink:title=" ">
<path fill="none" stroke="#63b8ff" d="M863.62,-239.5C863.62,-230.4 863.62,-218.89 863.62,-209.07"/>
<polygon fill="#63b8ff" stroke="#63b8ff" points="867.13,-209.34 863.63,-199.34 860.13,-209.34 867.13,-209.34"/>
</a>
</g>
</g>
<!-- Node21 -->
<g id="Node000021" class="node">
<title>Node21</title>
<g id="a_Node000021"><a xlink:href="TactixUETypes_8h.html" target="_top" xlink:title="Blueprint&#45;exposed mirrors of Tactix enums and config structs.">
<polygon fill="white" stroke="#666666" points="752,-197.38 657.25,-197.38 657.25,-176.62 752,-176.62 752,-197.38"/>
<text xml:space="preserve" text-anchor="middle" x="704.62" y="-183.88" font-family="Helvetica,sans-Serif" font-size="10.00">TactixUETypes.h</text>
</a>
</g>
</g>
<!-- Node19&#45;&gt;Node21 -->
<g id="edge30_Node000019_Node000021" class="edge">
<title>Node19&#45;&gt;Node21</title>
<g id="a_edge30_Node000019_Node000021"><a xlink:title=" ">
<path fill="none" stroke="#63b8ff" d="M825.54,-239.33C798.85,-228 763.52,-213 737.95,-202.15"/>
<polygon fill="#63b8ff" stroke="#63b8ff" points="739.61,-199.05 729.03,-198.36 736.87,-205.49 739.61,-199.05"/>
</a>
</g>
</g>
<!-- Node23 -->
<g id="Node000023" class="node">
<title>Node23</title>
<g id="a_Node000023"><a xlink:href="TactixCurve_8h.html" target="_top" xlink:title="Response curves that turn a raw input into a normalised utility score.">
<polygon fill="white" stroke="#666666" points="865.12,-77.5 726.12,-77.5 726.12,-56.75 865.12,-56.75 865.12,-77.5"/>
<text xml:space="preserve" text-anchor="middle" x="795.62" y="-64" font-family="Helvetica,sans-Serif" font-size="10.00">Foundation/TactixCurve.h</text>
</a>
</g>
</g>
<!-- Node19&#45;&gt;Node23 -->
<g id="edge33_Node000019_Node000023" class="edge">
<title>Node19&#45;&gt;Node23</title>
<g id="a_edge33_Node000019_Node000023"><a xlink:title=" ">
<path fill="none" stroke="#63b8ff" d="M793.01,-247.9C737.43,-240.29 666.47,-226.41 648.62,-203.75 623.8,-172.24 624.81,-145.78 648.62,-113.5 664.17,-92.44 689.35,-80.85 714.52,-74.57"/>
<polygon fill="#63b8ff" stroke="#63b8ff" points="715.16,-78.02 724.18,-72.45 713.66,-71.18 715.16,-78.02"/>
</a>
</g>
</g>
<!-- Node24 -->
<g id="Node000024" class="node">
<title>Node24</title>
<g id="a_Node000024"><a xlink:title=" ">
<polygon fill="#e0e0e0" stroke="#999999" points="1107.88,-197.38 937.38,-197.38 937.38,-176.62 1107.88,-176.62 1107.88,-197.38"/>
<text xml:space="preserve" text-anchor="middle" x="1022.62" y="-183.88" font-family="Helvetica,sans-Serif" font-size="10.00">UTactixUtilityAsset.generated.h</text>
</a>
</g>
</g>
<!-- Node19&#45;&gt;Node24 -->
<g id="edge37_Node000019_Node000024" class="edge">
<title>Node19&#45;&gt;Node24</title>
<g id="a_edge37_Node000019_Node000024"><a xlink:title=" ">
<path fill="none" stroke="#63b8ff" d="M901.71,-239.33C928.4,-228 963.73,-213 989.3,-202.15"/>
<polygon fill="#63b8ff" stroke="#63b8ff" points="990.38,-205.49 998.22,-198.36 987.64,-199.05 990.38,-205.49"/>
</a>
</g>
</g>
<!-- Node21&#45;&gt;Node3 -->
<g id="edge31_Node000021_Node000003" class="edge">
<title>Node21&#45;&gt;Node3</title>
<g id="a_edge31_Node000021_Node000003"><a xlink:title=" ">
<path fill="none" stroke="#63b8ff" d="M730.65,-176.18C757.58,-166.02 799.85,-150.07 830.11,-138.65"/>
<polygon fill="#63b8ff" stroke="#63b8ff" points="831.12,-142.01 839.25,-135.21 828.65,-135.46 831.12,-142.01"/>
</a>
</g>
</g>
<!-- Node22 -->
<g id="Node000022" class="node">
<title>Node22</title>
<g id="a_Node000022"><a xlink:title=" ">
<polygon fill="#e0e0e0" stroke="#999999" points="805.25,-134.25 658,-134.25 658,-113.5 805.25,-113.5 805.25,-134.25"/>
<text xml:space="preserve" text-anchor="middle" x="731.62" y="-120.75" font-family="Helvetica,sans-Serif" font-size="10.00">TactixUETypes.generated.h</text>
</a>
</g>
</g>
<!-- Node21&#45;&gt;Node22 -->
<g id="edge32_Node000021_Node000022" class="edge">
<title>Node21&#45;&gt;Node22</title>
<g id="a_edge32_Node000021_Node000022"><a xlink:title=" ">
<path fill="none" stroke="#63b8ff" d="M708.96,-176.18C712.69,-167.75 718.17,-155.34 722.81,-144.84"/>
<polygon fill="#63b8ff" stroke="#63b8ff" points="725.94,-146.42 726.78,-135.85 719.53,-143.59 725.94,-146.42"/>
</a>
</g>
</g>
<!-- Node23&#45;&gt;Node12 -->
<g id="edge34_Node000023_Node000012" class="edge">
<title>Node23&#45;&gt;Node12</title>
<g id="a_edge34_Node000023_Node000012"><a xlink:title=" ">
<path fill="none" stroke="#63b8ff" d="M778.1,-56.34C763.33,-48.08 741.94,-36.13 724.93,-26.63"/>
<polygon fill="#63b8ff" stroke="#63b8ff" points="726.75,-23.64 716.32,-21.82 723.34,-29.75 726.75,-23.64"/>
</a>
</g>
</g>
<!-- Node23&#45;&gt;Node14 -->
<g id="edge35_Node000023_Node000014" class="edge">
<title>Node23&#45;&gt;Node14</title>
<g id="a_edge35_Node000023_Node000014"><a xlink:title=" ">
<path fill="none" stroke="#63b8ff" d="M795.62,-56.34C795.62,-49.72 795.62,-40.72 795.62,-32.52"/>
<polygon fill="#63b8ff" stroke="#63b8ff" points="799.13,-32.59 795.63,-22.59 792.13,-32.59 799.13,-32.59"/>
</a>
</g>
</g>
<!-- Node25&#45;&gt;Node3 -->
<g id="edge39_Node000025_Node000003" class="edge">
<title>Node25&#45;&gt;Node3</title>
<g id="a_edge39_Node000025_Node000003"><a xlink:title=" ">
<path fill="none" stroke="#63b8ff" d="M1225.8,-176.13C1213.2,-174.13 1199.98,-172.07 1187.62,-170.25 1072.33,-153.24 1040.3,-152.74 921.91,-134.55"/>
<polygon fill="#63b8ff" stroke="#63b8ff" points="922.47,-131.09 912.06,-133.02 921.4,-138.01 922.47,-131.09"/>
</a>
</g>
</g>
<!-- Node25&#45;&gt;Node8 -->
<g id="edge40_Node000025_Node000008" class="edge">
<title>Node25&#45;&gt;Node8</title>
<g id="a_edge40_Node000025_Node000008"><a xlink:title=" ">
<path fill="none" stroke="#63b8ff" d="M1324.02,-176.18C1365.14,-165.66 1430.51,-148.95 1475.38,-137.47"/>
<polygon fill="#63b8ff" stroke="#63b8ff" points="1476.03,-140.92 1484.85,-135.05 1474.3,-134.13 1476.03,-140.92"/>
</a>
</g>
</g>
<!-- Node26 -->
<g id="Node000026" class="node">
<title>Node26</title>
<g id="a_Node000026"><a xlink:href="TactixArena_8h.html" target="_top" xlink:title="Bump (linear) allocator for short&#45;lived scratch memory.">
<polygon fill="white" stroke="#666666" points="1297.12,-77.5 1158.12,-77.5 1158.12,-56.75 1297.12,-56.75 1297.12,-77.5"/>
<text xml:space="preserve" text-anchor="middle" x="1227.62" y="-64" font-family="Helvetica,sans-Serif" font-size="10.00">Foundation/TactixArena.h</text>
</a>
</g>
</g>
<!-- Node25&#45;&gt;Node26 -->
<g id="edge41_Node000025_Node000026" class="edge">
<title>Node25&#45;&gt;Node26</title>
<g id="a_edge41_Node000025_Node000026"><a xlink:title=" ">
<path fill="none" stroke="#63b8ff" d="M1357.48,-176.17C1408.58,-166.13 1463.73,-147.12 1436.62,-113.5 1420.45,-93.44 1360.37,-81.79 1308.75,-75.33"/>
<polygon fill="#63b8ff" stroke="#63b8ff" points="1309.39,-71.88 1299.04,-74.17 1308.56,-78.83 1309.39,-71.88"/>
</a>
</g>
</g>
<!-- Node30 -->
<g id="Node000030" class="node">
<title>Node30</title>
<g id="a_Node000030"><a xlink:href="FTactixGOAPPlanner_8h.html" target="_top" xlink:title="A* planner over the GOAP world&#45;state graph.">
<polygon fill="white" stroke="#666666" points="1240.25,-134.25 1087,-134.25 1087,-113.5 1240.25,-113.5 1240.25,-134.25"/>
<text xml:space="preserve" text-anchor="middle" x="1163.62" y="-120.75" font-family="Helvetica,sans-Serif" font-size="10.00">GOAP/FTactixGOAPPlanner.h</text>
</a>
</g>
</g>
<!-- Node25&#45;&gt;Node30 -->
<g id="edge47_Node000025_Node000030" class="edge">
<title>Node25&#45;&gt;Node30</title>
<g id="a_edge47_Node000025_Node000030"><a xlink:title=" ">
<path fill="none" stroke="#63b8ff" d="M1266.02,-176.18C1246.37,-166.33 1215.86,-151.05 1193.25,-139.72"/>
<polygon fill="#63b8ff" stroke="#63b8ff" points="1195.04,-136.7 1184.53,-135.35 1191.9,-142.96 1195.04,-136.7"/>
</a>
</g>
</g>
<!-- Node32 -->
<g id="Node000032" class="node">
<title>Node32</title>
<g id="a_Node000032"><a xlink:href="FTactixHTNPlanner_8h.html" target="_top" xlink:title="Depth&#45;first HTN planner with method&#45;order fallback and backtracking.">
<polygon fill="white" stroke="#666666" points="1068.5,-134.25 928.75,-134.25 928.75,-113.5 1068.5,-113.5 1068.5,-134.25"/>
<text xml:space="preserve" text-anchor="middle" x="998.62" y="-120.75" font-family="Helvetica,sans-Serif" font-size="10.00">HTN/FTactixHTNPlanner.h</text>
</a>
</g>
</g>
<!-- Node25&#45;&gt;Node32 -->
<g id="edge53_Node000025_Node000032" class="edge">
<title>Node25&#45;&gt;Node32</title>
<g id="a_edge53_Node000025_Node000032"><a xlink:title=" ">
<path fill="none" stroke="#63b8ff" d="M1239.51,-176.18C1189.51,-165.53 1109.64,-148.52 1055.72,-137.03"/>
<polygon fill="#63b8ff" stroke="#63b8ff" points="1056.61,-133.65 1046.1,-134.99 1055.15,-140.49 1056.61,-133.65"/>
</a>
</g>
</g>
<!-- Node33 -->
<g id="Node000033" class="node">
<title>Node33</title>
<g id="a_Node000033"><a xlink:title=" ">
<polygon fill="#e0e0e0" stroke="#999999" points="1427.12,-134.25 1258.12,-134.25 1258.12,-113.5 1427.12,-113.5 1427.12,-134.25"/>
<text xml:space="preserve" text-anchor="middle" x="1342.62" y="-120.75" font-family="Helvetica,sans-Serif" font-size="10.00">ATactixAIController.generated.h</text>
</a>
</g>
</g>
<!-- Node25&#45;&gt;Node33 -->
<g id="edge57_Node000025_Node000033" class="edge">
<title>Node25&#45;&gt;Node33</title>
<g id="a_edge57_Node000025_Node000033"><a xlink:title=" ">
<path fill="none" stroke="#63b8ff" d="M1294.78,-176.18C1303.14,-167.22 1315.7,-153.74 1325.86,-142.85"/>
<polygon fill="#63b8ff" stroke="#63b8ff" points="1328.39,-145.28 1332.65,-135.58 1323.27,-140.5 1328.39,-145.28"/>
</a>
</g>
</g>
<!-- Node26&#45;&gt;Node12 -->
<g id="edge42_Node000026_Node000012" class="edge">
<title>Node26&#45;&gt;Node12</title>
<g id="a_edge42_Node000026_Node000012"><a xlink:title=" ">
<path fill="none" stroke="#63b8ff" d="M1157.64,-60.37C1066.37,-52.63 901.82,-37.83 761.62,-20.75 755.85,-20.05 749.79,-19.24 743.8,-18.41"/>
<polygon fill="#63b8ff" stroke="#63b8ff" points="744.35,-14.95 733.96,-17 743.36,-21.88 744.35,-14.95"/>
</a>
</g>
</g>
<!-- Node26&#45;&gt;Node14 -->
<g id="edge44_Node000026_Node000014" class="edge">
<title>Node26&#45;&gt;Node14</title>
<g id="a_edge44_Node000026_Node000014"><a xlink:title=" ">
<path fill="none" stroke="#63b8ff" d="M1157.74,-57.27C1064.54,-45.46 903.02,-24.99 831.49,-15.92"/>
<polygon fill="#63b8ff" stroke="#63b8ff" points="832.27,-12.49 821.91,-14.71 831.39,-19.44 832.27,-12.49"/>
</a>
</g>
</g>
<!-- Node27 -->
<g id="Node000027" class="node">
<title>Node27</title>
<g id="a_Node000027"><a xlink:title=" ">
<polygon fill="#e0e0e0" stroke="#999999" points="1191.62,-20.75 1139.62,-20.75 1139.62,0 1191.62,0 1191.62,-20.75"/>
<text xml:space="preserve" text-anchor="middle" x="1165.62" y="-7.25" font-family="Helvetica,sans-Serif" font-size="10.00">cstddef</text>
</a>
</g>
</g>
<!-- Node26&#45;&gt;Node27 -->
<g id="edge43_Node000026_Node000027" class="edge">
<title>Node26&#45;&gt;Node27</title>
<g id="a_edge43_Node000026_Node000027"><a xlink:title=" ">
<path fill="none" stroke="#63b8ff" d="M1216.54,-56.34C1207.81,-48.63 1195.43,-37.7 1185.06,-28.54"/>
<polygon fill="#63b8ff" stroke="#63b8ff" points="1187.56,-26.08 1177.75,-22.08 1182.93,-31.32 1187.56,-26.08"/>
</a>
</g>
</g>
<!-- Node28 -->
<g id="Node000028" class="node">
<title>Node28</title>
<g id="a_Node000028"><a xlink:title=" ">
<polygon fill="#e0e0e0" stroke="#999999" points="1245.75,-20.75 1209.5,-20.75 1209.5,0 1245.75,0 1245.75,-20.75"/>
<text xml:space="preserve" text-anchor="middle" x="1227.62" y="-7.25" font-family="Helvetica,sans-Serif" font-size="10.00">new</text>
</a>
</g>
</g>
<!-- Node26&#45;&gt;Node28 -->
<g id="edge45_Node000026_Node000028" class="edge">
<title>Node26&#45;&gt;Node28</title>
<g id="a_edge45_Node000026_Node000028"><a xlink:title=" ">
<path fill="none" stroke="#63b8ff" d="M1227.62,-56.34C1227.62,-49.72 1227.62,-40.72 1227.62,-32.52"/>
<polygon fill="#63b8ff" stroke="#63b8ff" points="1231.13,-32.59 1227.63,-22.59 1224.13,-32.59 1231.13,-32.59"/>
</a>
</g>
</g>
<!-- Node29 -->
<g id="Node000029" class="node">
<title>Node29</title>
<g id="a_Node000029"><a xlink:title=" ">
<polygon fill="#e0e0e0" stroke="#999999" points="1307.88,-20.75 1263.38,-20.75 1263.38,0 1307.88,0 1307.88,-20.75"/>
<text xml:space="preserve" text-anchor="middle" x="1285.62" y="-7.25" font-family="Helvetica,sans-Serif" font-size="10.00">utility</text>
</a>
</g>
</g>
<!-- Node26&#45;&gt;Node29 -->
<g id="edge46_Node000026_Node000029" class="edge">
<title>Node26&#45;&gt;Node29</title>
<g id="a_edge46_Node000026_Node000029"><a xlink:title=" ">
<path fill="none" stroke="#63b8ff" d="M1237.99,-56.34C1246.08,-48.71 1257.51,-37.92 1267.15,-28.82"/>
<polygon fill="#63b8ff" stroke="#63b8ff" points="1269.38,-31.53 1274.24,-22.12 1264.57,-26.44 1269.38,-31.53"/>
</a>
</g>
</g>
<!-- Node30&#45;&gt;Node12 -->
<g id="edge48_Node000030_Node000012" class="edge">
<title>Node30&#45;&gt;Node12</title>
<g id="a_edge48_Node000030_Node000012"><a xlink:title=" ">
<path fill="none" stroke="#63b8ff" d="M1113.96,-113.08C1070.68,-104.35 1006.31,-90.92 950.62,-77.5 916.17,-69.19 907.9,-65.79 873.62,-56.75 829.57,-45.14 779.23,-32.19 743.7,-23.11"/>
<polygon fill="#63b8ff" stroke="#63b8ff" points="744.74,-19.76 734.18,-20.68 743.01,-26.54 744.74,-19.76"/>
</a>
</g>
</g>
<!-- Node30&#45;&gt;Node14 -->
<g id="edge52_Node000030_Node000014" class="edge">
<title>Node30&#45;&gt;Node14</title>
<g id="a_edge52_Node000030_Node000014"><a xlink:title=" ">
<path fill="none" stroke="#63b8ff" d="M1158.98,-113.31C1151.23,-98.46 1134.13,-70.18 1110.62,-56.75 1063.59,-29.88 903.8,-17.55 831.58,-13.25"/>
<polygon fill="#63b8ff" stroke="#63b8ff" points="832.07,-9.77 821.88,-12.69 831.67,-16.76 832.07,-9.77"/>
</a>
</g>
</g>
<!-- Node31 -->
<g id="Node000031" class="node">
<title>Node31</title>
<g id="a_Node000031"><a xlink:href="FTactixWorldState_8h.html" target="_top" xlink:title="Symbolic world state for the GOAP planner: 64 boolean facts plus a &quot;defined&quot; mask.">
<polygon fill="white" stroke="#666666" points="1102,-77.5 959.25,-77.5 959.25,-56.75 1102,-56.75 1102,-77.5"/>
<text xml:space="preserve" text-anchor="middle" x="1030.62" y="-64" font-family="Helvetica,sans-Serif" font-size="10.00">GOAP/FTactixWorldState.h</text>
</a>
</g>
</g>
<!-- Node30&#45;&gt;Node31 -->
<g id="edge49_Node000030_Node000031" class="edge">
<title>Node30&#45;&gt;Node31</title>
<g id="a_edge49_Node000030_Node000031"><a xlink:title=" ">
<path fill="none" stroke="#63b8ff" d="M1139.85,-113.09C1118.95,-104.48 1088.29,-91.86 1064.77,-82.18"/>
<polygon fill="#63b8ff" stroke="#63b8ff" points="1066.18,-78.97 1055.6,-78.4 1063.51,-85.45 1066.18,-78.97"/>
</a>
</g>
</g>
<!-- Node31&#45;&gt;Node12 -->
<g id="edge50_Node000031_Node000012" class="edge">
<title>Node31&#45;&gt;Node12</title>
<g id="a_edge50_Node000031_Node000012"><a xlink:title=" ">
<path fill="none" stroke="#63b8ff" d="M970.71,-56.27C905.58,-45.57 802.92,-28.69 743.77,-18.96"/>
<polygon fill="#63b8ff" stroke="#63b8ff" points="744.47,-15.53 734.04,-17.36 743.34,-22.44 744.47,-15.53"/>
</a>
</g>
</g>
<!-- Node31&#45;&gt;Node14 -->
<g id="edge51_Node000031_Node000014" class="edge">
<title>Node31&#45;&gt;Node14</title>
<g id="a_edge51_Node000031_Node000014"><a xlink:title=" ">
<path fill="none" stroke="#63b8ff" d="M988.34,-56.27C943.65,-45.86 873.91,-29.61 831.72,-19.78"/>
<polygon fill="#63b8ff" stroke="#63b8ff" points="832.6,-16.4 822.06,-17.53 831.01,-23.21 832.6,-16.4"/>
</a>
</g>
</g>
<!-- Node32&#45;&gt;Node12 -->
<g id="edge54_Node000032_Node000012" class="edge">
<title>Node32&#45;&gt;Node12</title>
<g id="a_edge54_Node000032_Node000012"><a xlink:title=" ">
<path fill="none" stroke="#63b8ff" d="M928.27,-113.47C847.36,-102.36 724.55,-84.52 716.62,-77.5 703.92,-66.23 699.46,-47.08 698.02,-32.28"/>
<polygon fill="#63b8ff" stroke="#63b8ff" points="701.53,-32.44 697.48,-22.65 694.54,-32.83 701.53,-32.44"/>
</a>
</g>
</g>
<!-- Node32&#45;&gt;Node14 -->
<g id="edge56_Node000032_Node000014" class="edge">
<title>Node32&#45;&gt;Node14</title>
<g id="a_edge56_Node000032_Node000014"><a xlink:title=" ">
<path fill="none" stroke="#63b8ff" d="M980.97,-113.18C945.57,-93.74 865.73,-49.88 823.31,-26.58"/>
<polygon fill="#63b8ff" stroke="#63b8ff" points="825.17,-23.61 814.72,-21.86 821.8,-29.74 825.17,-23.61"/>
</a>
</g>
</g>
<!-- Node32&#45;&gt;Node31 -->
<g id="edge55_Node000032_Node000031" class="edge">
<title>Node32&#45;&gt;Node31</title>
<g id="a_edge55_Node000032_Node000031"><a xlink:title=" ">
<path fill="none" stroke="#63b8ff" d="M1004.35,-113.09C1008.49,-106 1014.22,-96.19 1019.28,-87.54"/>
<polygon fill="#63b8ff" stroke="#63b8ff" points="1022.17,-89.53 1024.19,-79.14 1016.12,-86 1022.17,-89.53"/>
</a>
</g>
</g>
</g>
</svg>
