<?xml version="1.0" encoding="UTF-8" standalone="no"?>
<!DOCTYPE svg PUBLIC "-//W3C//DTD SVG 1.1//EN"
 "http://www.w3.org/Graphics/SVG/1.1/DTD/svg11.dtd">
<!-- Generated by graphviz version 14.1.5 (0)
 -->
<!-- Title: Source/TactixUE/Private/DataAssets/UTactixUtilityAsset.cpp Pages: 1 -->
<svg width="840pt" height="338pt"
 viewBox="0.00 0.00 840.00 338.00" xmlns="http://www.w3.org/2000/svg" xmlns:xlink="http://www.w3.org/1999/xlink">
<g id="graph0" class="graph" transform="scale(1 1) rotate(0) translate(4 334)">
<title>Source/TactixUE/Private/DataAssets/UTactixUtilityAsset.cpp</title>
<!-- Node1 -->
<g id="Node000001" class="node">
<title>Node1</title>
<g id="a_Node000001"><a xlink:title="Implements utility scoring: input extraction, curve building, and the Lewis&#45;compensated action score.">
<polygon fill="#999999" stroke="#666666" points="640,-330 449.25,-330 449.25,-296.5 640,-296.5 640,-330"/>
<text xml:space="preserve" text-anchor="start" x="457.25" y="-316.5" font-family="Helvetica,sans-Serif" font-size="10.00">Source/TactixUE/Private</text>
<text xml:space="preserve" text-anchor="middle" x="544.62" y="-303.75" font-family="Helvetica,sans-Serif" font-size="10.00">/DataAssets/UTactixUtilityAsset.cpp</text>
</a>
</g>
</g>
<!-- Node2 -->
<g id="Node000002" class="node">
<title>Node2</title>
<g id="a_Node000002"><a xlink:href="UTactixUtilityAsset_8h.html" target="_top" xlink:title="Designer&#45;facing asset: a named set of scored actions for one decision context.">
<polygon fill="white" stroke="#666666" points="393.88,-260.5 253.38,-260.5 253.38,-227 393.88,-227 393.88,-260.5"/>
<text xml:space="preserve" text-anchor="start" x="261.38" y="-247" font-family="Helvetica,sans-Serif" font-size="10.00">DataAssets/UTactixUtility</text>
<text xml:space="preserve" text-anchor="middle" x="323.62" y="-234.25" font-family="Helvetica,sans-Serif" font-size="10.00">Asset.h</text>
</a>
</g>
</g>
<!-- Node1&#45;&gt;Node2 -->
<g id="edge1_Node000001_Node000002" class="edge">
<title>Node1&#45;&gt;Node2</title>
<g id="a_edge1_Node000001_Node000002"><a xlink:title=" ">
<path fill="none" stroke="#63b8ff" d="M491.69,-296.08C460.37,-286.52 420.49,-274.33 387.44,-264.24"/>
<polygon fill="#63b8ff" stroke="#63b8ff" points="388.54,-260.92 377.96,-261.34 386.5,-267.61 388.54,-260.92"/>
</a>
</g>
</g>
<!-- Node12 -->
<g id="Node000012" class="node">
<title>Node12</title>
<g id="a_Node000012"><a xlink:href="TactixMath_8h.html" target="_top" xlink:title="Small, engine&#45;agnostic vector and scalar math used across Tactix.">
<polygon fill="white" stroke="#666666" points="832.25,-134.25 697,-134.25 697,-113.5 832.25,-113.5 832.25,-134.25"/>
<text xml:space="preserve" text-anchor="middle" x="764.62" y="-120.75" font-family="Helvetica,sans-Serif" font-size="10.00">Foundation/TactixMath.h</text>
</a>
</g>
</g>
<!-- Node1&#45;&gt;Node12 -->
<g id="edge25_Node000001_Node000012" class="edge">
<title>Node1&#45;&gt;Node12</title>
<g id="a_edge25_Node000001_Node000012"><a xlink:title=" ">
<path fill="none" stroke="#63b8ff" d="M585.25,-296.11C628.67,-276.98 696.86,-241.25 738.62,-191 749.6,-177.79 756.33,-159.39 760.18,-145.36"/>
<polygon fill="#63b8ff" stroke="#63b8ff" points="763.53,-146.4 762.5,-135.85 756.73,-144.74 763.53,-146.4"/>
</a>
</g>
</g>
<!-- Node3 -->
<g id="Node000003" class="node">
<title>Node3</title>
<g id="a_Node000003"><a xlink:title=" ">
<polygon fill="#e0e0e0" stroke="#999999" points="87.25,-134.25 0,-134.25 0,-113.5 87.25,-113.5 87.25,-134.25"/>
<text xml:space="preserve" text-anchor="middle" x="43.62" y="-120.75" font-family="Helvetica,sans-Serif" font-size="10.00">CoreMinimal.h</text>
</a>
</g>
</g>
<!-- Node2&#45;&gt;Node3 -->
<g id="edge2_Node000002_Node000003" class="edge">
<title>Node2&#45;&gt;Node3</title>
<g id="a_edge2_Node000002_Node000003"><a xlink:title=" ">
<path fill="none" stroke="#63b8ff" d="M253.15,-236.99C185.58,-230.06 89.92,-216.09 62.62,-191 50.12,-179.51 45.65,-160.38 44.14,-145.65"/>
<polygon fill="#63b8ff" stroke="#63b8ff" points="47.66,-145.85 43.55,-136.08 40.67,-146.27 47.66,-145.85"/>
</a>
</g>
</g>
<!-- Node4 -->
<g id="Node000004" class="node">
<title>Node4</title>
<g id="a_Node000004"><a xlink:title=" ">
<polygon fill="#e0e0e0" stroke="#999999" points="295.25,-191 184,-191 184,-170.25 295.25,-170.25 295.25,-191"/>
<text xml:space="preserve" text-anchor="middle" x="239.62" y="-177.5" font-family="Helvetica,sans-Serif" font-size="10.00">Engine/DataAsset.h</text>
</a>
</g>
</g>
<!-- Node2&#45;&gt;Node4 -->
<g id="edge3_Node000002_Node000004" class="edge">
<title>Node2&#45;&gt;Node4</title>
<g id="a_edge3_Node000002_Node000004"><a xlink:title=" ">
<path fill="none" stroke="#63b8ff" d="M301.55,-226.69C289.43,-217.87 274.43,-206.95 262.23,-198.07"/>
<polygon fill="#63b8ff" stroke="#63b8ff" points="264.52,-195.41 254.37,-192.36 260.4,-201.07 264.52,-195.41"/>
</a>
</g>
</g>
<!-- Node5 -->
<g id="Node000005" class="node">
<title>Node5</title>
<g id="a_Node000005"><a xlink:href="TactixUETypes_8h.html" target="_top" xlink:title="Blueprint&#45;exposed mirrors of Tactix enums and config structs.">
<polygon fill="white" stroke="#666666" points="166,-191 71.25,-191 71.25,-170.25 166,-170.25 166,-191"/>
<text xml:space="preserve" text-anchor="middle" x="118.62" y="-177.5" font-family="Helvetica,sans-Serif" font-size="10.00">TactixUETypes.h</text>
</a>
</g>
</g>
<!-- Node2&#45;&gt;Node5 -->
<g id="edge4_Node000002_Node000005" class="edge">
<title>Node2&#45;&gt;Node5</title>
<g id="a_edge4_Node000002_Node000005"><a xlink:title=" ">
<path fill="none" stroke="#63b8ff" d="M269.23,-226.53C235.84,-216.58 193.66,-204 162.43,-194.69"/>
<polygon fill="#63b8ff" stroke="#63b8ff" points="163.49,-191.35 152.91,-191.85 161.49,-198.06 163.49,-191.35"/>
</a>
</g>
</g>
<!-- Node7 -->
<g id="Node000007" class="node">
<title>Node7</title>
<g id="a_Node000007"><a xlink:href="TactixCurve_8h.html" target="_top" xlink:title="Response curves that turn a raw input into a normalised utility score.">
<polygon fill="white" stroke="#666666" points="333.12,-77.5 194.12,-77.5 194.12,-56.75 333.12,-56.75 333.12,-77.5"/>
<text xml:space="preserve" text-anchor="middle" x="263.62" y="-64" font-family="Helvetica,sans-Serif" font-size="10.00">Foundation/TactixCurve.h</text>
</a>
</g>
</g>
<!-- Node2&#45;&gt;Node7 -->
<g id="edge7_Node000002_Node000007" class="edge">
<title>Node2&#45;&gt;Node7</title>
<g id="a_edge7_Node000002_Node000007"><a xlink:title=" ">
<path fill="none" stroke="#63b8ff" d="M320.04,-226.74C316.58,-211.94 310.95,-189.4 304.62,-170.25 295.06,-141.28 281.48,-108.72 272.61,-88.32"/>
<polygon fill="#63b8ff" stroke="#63b8ff" points="275.84,-86.96 268.61,-79.22 269.43,-89.78 275.84,-86.96"/>
</a>
</g>
</g>
<!-- Node10 -->
<g id="Node000010" class="node">
<title>Node10</title>
<g id="a_Node000010"><a xlink:href="FTactixAgentContext_8h.html" target="_top" xlink:title="Read&#45;only, side&#45;effect&#45;free snapshot of one agent for a single decision.">
<polygon fill="white" stroke="#666666" points="541.12,-191 384.12,-191 384.12,-170.25 541.12,-170.25 541.12,-191"/>
<text xml:space="preserve" text-anchor="middle" x="462.62" y="-177.5" font-family="Helvetica,sans-Serif" font-size="10.00">Agent/FTactixAgentContext.h</text>
</a>
</g>
</g>
<!-- Node2&#45;&gt;Node10 -->
<g id="edge10_Node000002_Node000010" class="edge">
<title>Node2&#45;&gt;Node10</title>
<g id="a_edge10_Node000002_Node000010"><a xlink:title=" ">
<path fill="none" stroke="#63b8ff" d="M360.51,-226.53C382.15,-217.01 409.25,-205.1 430.1,-195.93"/>
<polygon fill="#63b8ff" stroke="#63b8ff" points="431.23,-199.25 438.98,-192.02 428.41,-192.85 431.23,-199.25"/>
</a>
</g>
</g>
<!-- Node15 -->
<g id="Node000015" class="node">
<title>Node15</title>
<g id="a_Node000015"><a xlink:title=" ">
<polygon fill="#e0e0e0" stroke="#999999" points="729.88,-191 559.38,-191 559.38,-170.25 729.88,-170.25 729.88,-191"/>
<text xml:space="preserve" text-anchor="middle" x="644.62" y="-177.5" font-family="Helvetica,sans-Serif" font-size="10.00">UTactixUtilityAsset.generated.h</text>
</a>
</g>
</g>
<!-- Node2&#45;&gt;Node15 -->
<g id="edge24_Node000002_Node000015" class="edge">
<title>Node2&#45;&gt;Node15</title>
<g id="a_edge24_Node000002_Node000015"><a xlink:title=" ">
<path fill="none" stroke="#63b8ff" d="M394.07,-229.34C450.07,-218.67 527.69,-203.89 581.64,-193.62"/>
<polygon fill="#63b8ff" stroke="#63b8ff" points="582.12,-197.09 591.29,-191.78 580.81,-190.21 582.12,-197.09"/>
</a>
</g>
</g>
<!-- Node5&#45;&gt;Node3 -->
<g id="edge5_Node000005_Node000003" class="edge">
<title>Node5&#45;&gt;Node3</title>
<g id="a_edge5_Node000005_Node000003"><a xlink:title=" ">
<path fill="none" stroke="#63b8ff" d="M105.22,-169.84C94.34,-161.9 78.77,-150.53 66.01,-141.21"/>
<polygon fill="#63b8ff" stroke="#63b8ff" points="68.28,-138.54 58.14,-135.47 64.15,-144.19 68.28,-138.54"/>
</a>
</g>
</g>
<!-- Node6 -->
<g id="Node000006" class="node">
<title>Node6</title>
<g id="a_Node000006"><a xlink:title=" ">
<polygon fill="#e0e0e0" stroke="#999999" points="252.25,-134.25 105,-134.25 105,-113.5 252.25,-113.5 252.25,-134.25"/>
<text xml:space="preserve" text-anchor="middle" x="178.62" y="-120.75" font-family="Helvetica,sans-Serif" font-size="10.00">TactixUETypes.generated.h</text>
</a>
</g>
</g>
<!-- Node5&#45;&gt;Node6 -->
<g id="edge6_Node000005_Node000006" class="edge">
<title>Node5&#45;&gt;Node6</title>
<g id="a_edge6_Node000005_Node000006"><a xlink:title=" ">
<path fill="none" stroke="#63b8ff" d="M129.35,-169.84C137.71,-162.21 149.54,-151.42 159.51,-142.32"/>
<polygon fill="#63b8ff" stroke="#63b8ff" points="161.85,-144.92 166.87,-135.6 157.13,-139.75 161.85,-144.92"/>
</a>
</g>
</g>
<!-- Node8 -->
<g id="Node000008" class="node">
<title>Node8</title>
<g id="a_Node000008"><a xlink:href="TactixApi_8h.html" target="_top" xlink:title="Export macros, compiler attributes and version constants shared by every Tactix module.">
<polygon fill="white" stroke="#666666" points="497.25,-20.75 428,-20.75 428,0 497.25,0 497.25,-20.75"/>
<text xml:space="preserve" text-anchor="middle" x="462.62" y="-7.25" font-family="Helvetica,sans-Serif" font-size="10.00">TactixApi.h</text>
</a>
</g>
</g>
<!-- Node7&#45;&gt;Node8 -->
<g id="edge8_Node000007_Node000008" class="edge">
<title>Node7&#45;&gt;Node8</title>
<g id="a_edge8_Node000007_Node000008"><a xlink:title=" ">
<path fill="none" stroke="#63b8ff" d="M299.2,-56.34C332.13,-47.28 381.25,-33.76 417.04,-23.92"/>
<polygon fill="#63b8ff" stroke="#63b8ff" points="417.52,-27.42 426.23,-21.39 415.66,-20.67 417.52,-27.42"/>
</a>
</g>
</g>
<!-- Node9 -->
<g id="Node000009" class="node">
<title>Node9</title>
<g id="a_Node000009"><a xlink:title=" ">
<polygon fill="#e0e0e0" stroke="#999999" points="664.12,-20.75 615.12,-20.75 615.12,0 664.12,0 664.12,-20.75"/>
<text xml:space="preserve" text-anchor="middle" x="639.62" y="-7.25" font-family="Helvetica,sans-Serif" font-size="10.00">cstdint</text>
</a>
</g>
</g>
<!-- Node7&#45;&gt;Node9 -->
<g id="edge9_Node000007_Node000009" class="edge">
<title>Node7&#45;&gt;Node9</title>
<g id="a_edge9_Node000007_Node000009"><a xlink:title=" ">
<path fill="none" stroke="#63b8ff" d="M331.28,-56.27C411.13,-44.65 540.95,-25.74 603.57,-16.62"/>
<polygon fill="#63b8ff" stroke="#63b8ff" points="603.92,-20.11 613.31,-15.21 602.91,-13.18 603.92,-20.11"/>
</a>
</g>
</g>
<!-- Node10&#45;&gt;Node8 -->
<g id="edge11_Node000010_Node000008" class="edge">
<title>Node10&#45;&gt;Node8</title>
<g id="a_edge11_Node000010_Node000008"><a xlink:title=" ">
<path fill="none" stroke="#63b8ff" d="M450.73,-169.84C431.59,-153.23 394.66,-117.4 380.62,-77.5 377.56,-68.8 375.94,-64.69 380.62,-56.75 388.94,-42.65 403.38,-32.63 417.84,-25.65"/>
<polygon fill="#63b8ff" stroke="#63b8ff" points="419.14,-28.9 426.91,-21.7 416.34,-22.49 419.14,-28.9"/>
</a>
</g>
</g>
<!-- Node10&#45;&gt;Node9 -->
<g id="edge23_Node000010_Node000009" class="edge">
<title>Node10&#45;&gt;Node9</title>
<g id="a_edge23_Node000010_Node000009"><a xlink:title=" ">
<path fill="none" stroke="#63b8ff" d="M522.8,-169.76C562.76,-161.93 610.24,-149.74 623.62,-134.25 648.16,-105.87 646.69,-59.14 643.26,-32.23"/>
<polygon fill="#63b8ff" stroke="#63b8ff" points="646.76,-31.94 641.81,-22.58 639.84,-32.99 646.76,-31.94"/>
</a>
</g>
</g>
<!-- Node11 -->
<g id="Node000011" class="node">
<title>Node11</title>
<g id="a_Node000011"><a xlink:href="TactixHandle_8h.html" target="_top" xlink:title="Type&#45;safe generational handle: the only sanctioned way to reference a pooled object across frames.">
<polygon fill="white" stroke="#666666" points="535.12,-77.5 390.12,-77.5 390.12,-56.75 535.12,-56.75 535.12,-77.5"/>
<text xml:space="preserve" text-anchor="middle" x="462.62" y="-64" font-family="Helvetica,sans-Serif" font-size="10.00">Foundation/TactixHandle.h</text>
</a>
</g>
</g>
<!-- Node10&#45;&gt;Node11 -->
<g id="edge12_Node000010_Node000011" class="edge">
<title>Node10&#45;&gt;Node11</title>
<g id="a_edge12_Node000010_Node000011"><a xlink:title=" ">
<path fill="none" stroke="#63b8ff" d="M462.62,-170.12C462.62,-152.35 462.62,-113.72 462.62,-89.43"/>
<polygon fill="#63b8ff" stroke="#63b8ff" points="466.13,-89.44 462.63,-79.44 459.13,-89.44 466.13,-89.44"/>
</a>
</g>
</g>
<!-- Node10&#45;&gt;Node12 -->
<g id="edge15_Node000010_Node000012" class="edge">
<title>Node10&#45;&gt;Node12</title>
<g id="a_edge15_Node000010_Node000012"><a xlink:title=" ">
<path fill="none" stroke="#63b8ff" d="M516.97,-169.77C568.02,-160.52 644.5,-146.65 698.95,-136.78"/>
<polygon fill="#63b8ff" stroke="#63b8ff" points="699.51,-140.24 708.72,-135.01 698.26,-133.35 699.51,-140.24"/>
</a>
</g>
</g>
<!-- Node14 -->
<g id="Node000014" class="node">
<title>Node14</title>
<g id="a_Node000014"><a xlink:href="ITactixAgent_8h.html" target="_top" xlink:title="The engine&#45;agnostic contract a &quot;thinking&quot; entity implements to take part in Tactix systems.">
<polygon fill="white" stroke="#666666" points="614.88,-134.25 498.38,-134.25 498.38,-113.5 614.88,-113.5 614.88,-134.25"/>
<text xml:space="preserve" text-anchor="middle" x="556.62" y="-120.75" font-family="Helvetica,sans-Serif" font-size="10.00">Agent/ITactixAgent.h</text>
</a>
</g>
</g>
<!-- Node10&#45;&gt;Node14 -->
<g id="edge19_Node000010_Node000014" class="edge">
<title>Node10&#45;&gt;Node14</title>
<g id="a_edge19_Node000010_Node000014"><a xlink:title=" ">
<path fill="none" stroke="#63b8ff" d="M479.43,-169.84C493.6,-161.58 514.12,-149.63 530.44,-140.13"/>
<polygon fill="#63b8ff" stroke="#63b8ff" points="531.78,-143.4 538.66,-135.34 528.25,-137.35 531.78,-143.4"/>
</a>
</g>
</g>
<!-- Node11&#45;&gt;Node8 -->
<g id="edge13_Node000011_Node000008" class="edge">
<title>Node11&#45;&gt;Node8</title>
<g id="a_edge13_Node000011_Node000008"><a xlink:title=" ">
<path fill="none" stroke="#63b8ff" d="M462.62,-56.34C462.62,-49.72 462.62,-40.72 462.62,-32.52"/>
<polygon fill="#63b8ff" stroke="#63b8ff" points="466.13,-32.59 462.63,-22.59 459.13,-32.59 466.13,-32.59"/>
</a>
</g>
</g>
<!-- Node11&#45;&gt;Node9 -->
<g id="edge14_Node000011_Node000009" class="edge">
<title>Node11&#45;&gt;Node9</title>
<g id="a_edge14_Node000011_Node000009"><a xlink:title=" ">
<path fill="none" stroke="#63b8ff" d="M494.27,-56.34C525.13,-46.79 572,-32.29 604.12,-22.36"/>
<polygon fill="#63b8ff" stroke="#63b8ff" points="604.85,-25.79 613.37,-19.5 602.78,-19.11 604.85,-25.79"/>
</a>
</g>
</g>
<!-- Node12&#45;&gt;Node8 -->
<g id="edge16_Node000012_Node000008" class="edge">
<title>Node12&#45;&gt;Node8</title>
<g id="a_edge16_Node000012_Node000008"><a xlink:title=" ">
<path fill="none" stroke="#63b8ff" d="M738.09,-113.08C684.05,-93.13 561.13,-47.75 499.42,-24.96"/>
<polygon fill="#63b8ff" stroke="#63b8ff" points="501.01,-21.81 490.41,-21.63 498.58,-28.38 501.01,-21.81"/>
</a>
</g>
</g>
<!-- Node12&#45;&gt;Node9 -->
<g id="edge18_Node000012_Node000009" class="edge">
<title>Node12&#45;&gt;Node9</title>
<g id="a_edge18_Node000012_Node000009"><a xlink:title=" ">
<path fill="none" stroke="#63b8ff" d="M754.28,-113.4C740.19,-100.5 714.12,-76.75 691.62,-56.75 681.04,-47.34 669.14,-36.94 659.4,-28.48"/>
<polygon fill="#63b8ff" stroke="#63b8ff" points="661.83,-25.95 651.98,-22.04 657.24,-31.24 661.83,-25.95"/>
</a>
</g>
</g>
<!-- Node13 -->
<g id="Node000013" class="node">
<title>Node13</title>
<g id="a_Node000013"><a xlink:title=" ">
<polygon fill="#e0e0e0" stroke="#999999" points="790,-77.5 743.25,-77.5 743.25,-56.75 790,-56.75 790,-77.5"/>
<text xml:space="preserve" text-anchor="middle" x="766.62" y="-64" font-family="Helvetica,sans-Serif" font-size="10.00">cmath</text>
</a>
</g>
</g>
<!-- Node12&#45;&gt;Node13 -->
<g id="edge17_Node000012_Node000013" class="edge">
<title>Node12&#45;&gt;Node13</title>
<g id="a_edge17_Node000012_Node000013"><a xlink:title=" ">
<path fill="none" stroke="#63b8ff" d="M764.98,-113.09C765.22,-106.47 765.55,-97.47 765.85,-89.27"/>
<polygon fill="#63b8ff" stroke="#63b8ff" points="769.35,-89.46 766.22,-79.34 762.35,-89.21 769.35,-89.46"/>
</a>
</g>
</g>
<!-- Node14&#45;&gt;Node8 -->
<g id="edge20_Node000014_Node000008" class="edge">
<title>Node14&#45;&gt;Node8</title>
<g id="a_edge20_Node000014_Node000008"><a xlink:title=" ">
<path fill="none" stroke="#63b8ff" d="M557.14,-113.36C557.39,-99.57 555.98,-73.8 543.62,-56.75 533.73,-43.1 518.4,-33.03 503.72,-25.89"/>
<polygon fill="#63b8ff" stroke="#63b8ff" points="505.18,-22.71 494.62,-21.82 502.32,-29.1 505.18,-22.71"/>
</a>
</g>
</g>
<!-- Node14&#45;&gt;Node9 -->
<g id="edge22_Node000014_Node000009" class="edge">
<title>Node14&#45;&gt;Node9</title>
<g id="a_edge22_Node000014_Node000009"><a xlink:title=" ">
<path fill="none" stroke="#63b8ff" d="M563.7,-113.37C577.35,-95.03 607.56,-54.45 625.48,-30.37"/>
<polygon fill="#63b8ff" stroke="#63b8ff" points="628.26,-32.5 631.43,-22.39 622.65,-28.32 628.26,-32.5"/>
</a>
</g>
</g>
<!-- Node14&#45;&gt;Node11 -->
<g id="edge21_Node000014_Node000011" class="edge">
<title>Node14&#45;&gt;Node11</title>
<g id="a_edge21_Node000014_Node000011"><a xlink:title=" ">
<path fill="none" stroke="#63b8ff" d="M539.82,-113.09C525.65,-104.83 505.13,-92.88 488.81,-83.38"/>
<polygon fill="#63b8ff" stroke="#63b8ff" points="491,-80.6 480.59,-78.59 487.47,-86.65 491,-80.6"/>
</a>
</g>
</g>
</g>
</svg>
