<?xml version="1.0" encoding="UTF-8" standalone="no"?>
<!DOCTYPE svg PUBLIC "-//W3C//DTD SVG 1.1//EN"
 "http://www.w3.org/Graphics/SVG/1.1/DTD/svg11.dtd">
<!-- Generated by graphviz version 14.1.5 (0)
 -->
<!-- Title: Source/TactixUE/Public/BehaviorTree/UTactixBTTask_RunUtility.h Pages: 1 -->
<svg width="649pt" height="124pt"
 viewBox="0.00 0.00 649.00 124.00" xmlns="http://www.w3.org/2000/svg" xmlns:xlink="http://www.w3.org/1999/xlink">
<g id="graph0" class="graph" transform="scale(1 1) rotate(0) translate(4 119.75)">
<title>Source/TactixUE/Public/BehaviorTree/UTactixBTTask_RunUtility.h</title>
<!-- Node1 -->
<g id="Node000001" class="node">
<title>Node1</title>
<g id="a_Node000001"><a xlink:title="BT leaf that runs one utility&#45;selection pass and reports the winner.">
<polygon fill="#999999" stroke="#666666" points="342.75,-115.75 186.5,-115.75 186.5,-69.5 342.75,-69.5 342.75,-115.75"/>
<text xml:space="preserve" text-anchor="start" x="194.5" y="-102.25" font-family="Helvetica,sans-Serif" font-size="10.00">Source/TactixUE/Public</text>
<text xml:space="preserve" text-anchor="start" x="194.5" y="-89.5" font-family="Helvetica,sans-Serif" font-size="10.00">/BehaviorTree/UTactixBTTask</text>
<text xml:space="preserve" text-anchor="middle" x="264.62" y="-76.75" font-family="Helvetica,sans-Serif" font-size="10.00">_RunUtility.h</text>
</a>
</g>
</g>
<!-- Node2 -->
<g id="Node000002" class="node">
<title>Node2</title>
<g id="a_Node000002"><a xlink:title=" ">
<polygon fill="#e0e0e0" stroke="#999999" points="87.25,-27.12 0,-27.12 0,-6.38 87.25,-6.38 87.25,-27.12"/>
<text xml:space="preserve" text-anchor="middle" x="43.62" y="-13.62" font-family="Helvetica,sans-Serif" font-size="10.00">CoreMinimal.h</text>
</a>
</g>
</g>
<!-- Node1&#45;&gt;Node2 -->
<g id="edge1_Node000001_Node000002" class="edge">
<title>Node1&#45;&gt;Node2</title>
<g id="a_edge1_Node000001_Node000002"><a xlink:title=" ">
<path fill="none" stroke="#63b8ff" d="M197.12,-69.06C159.99,-56.65 115.18,-41.67 83.59,-31.11"/>
<polygon fill="#63b8ff" stroke="#63b8ff" points="85.03,-27.9 74.44,-28.05 82.81,-34.54 85.03,-27.9"/>
</a>
</g>
</g>
<!-- Node3 -->
<g id="Node000003" class="node">
<title>Node3</title>
<g id="a_Node000003"><a xlink:title=" ">
<polygon fill="#e0e0e0" stroke="#999999" points="257.5,-27.12 105.75,-27.12 105.75,-6.38 257.5,-6.38 257.5,-27.12"/>
<text xml:space="preserve" text-anchor="middle" x="181.62" y="-13.62" font-family="Helvetica,sans-Serif" font-size="10.00">BehaviorTree/BTTaskNode.h</text>
</a>
</g>
</g>
<!-- Node1&#45;&gt;Node3 -->
<g id="edge2_Node000001_Node000003" class="edge">
<title>Node1&#45;&gt;Node3</title>
<g id="a_edge2_Node000001_Node000003"><a xlink:title=" ">
<path fill="none" stroke="#63b8ff" d="M239.27,-69.06C226.93,-58.08 212.34,-45.09 200.92,-34.93"/>
<polygon fill="#63b8ff" stroke="#63b8ff" points="203.48,-32.51 193.68,-28.48 198.82,-37.74 203.48,-32.51"/>
</a>
</g>
</g>
<!-- Node4 -->
<g id="Node000004" class="node">
<title>Node4</title>
<g id="a_Node000004"><a xlink:title=" ">
<polygon fill="#e0e0e0" stroke="#999999" points="421.88,-33.5 275.38,-33.5 275.38,0 421.88,0 421.88,-33.5"/>
<text xml:space="preserve" text-anchor="start" x="283.38" y="-20" font-family="Helvetica,sans-Serif" font-size="10.00">BehaviorTree/BehaviorTree</text>
<text xml:space="preserve" text-anchor="middle" x="348.62" y="-7.25" font-family="Helvetica,sans-Serif" font-size="10.00">Types.h</text>
</a>
</g>
</g>
<!-- Node1&#45;&gt;Node4 -->
<g id="edge3_Node000001_Node000004" class="edge">
<title>Node1&#45;&gt;Node4</title>
<g id="a_edge3_Node000001_Node000004"><a xlink:title=" ">
<path fill="none" stroke="#63b8ff" d="M290.28,-69.06C300.29,-60.26 311.75,-50.18 321.86,-41.29"/>
<polygon fill="#63b8ff" stroke="#63b8ff" points="323.98,-44.09 329.18,-34.85 319.36,-38.83 323.98,-44.09"/>
</a>
</g>
</g>
<!-- Node5 -->
<g id="Node000005" class="node">
<title>Node5</title>
<g id="a_Node000005"><a xlink:title=" ">
<polygon fill="#e0e0e0" stroke="#999999" points="640.88,-27.12 440.38,-27.12 440.38,-6.38 640.88,-6.38 640.88,-27.12"/>
<text xml:space="preserve" text-anchor="middle" x="540.62" y="-13.62" font-family="Helvetica,sans-Serif" font-size="10.00">UTactixBTTask_RunUtility.generated.h</text>
</a>
</g>
</g>
<!-- Node1&#45;&gt;Node5 -->
<g id="edge4_Node000001_Node000005" class="edge">
<title>Node1&#45;&gt;Node5</title>
<g id="a_edge4_Node000001_Node000005"><a xlink:title=" ">
<path fill="none" stroke="#63b8ff" d="M342.98,-70.65C391.2,-57.75 451.44,-41.62 492.67,-30.59"/>
<polygon fill="#63b8ff" stroke="#63b8ff" points="493.55,-33.97 502.3,-28.01 491.74,-27.21 493.55,-33.97"/>
</a>
</g>
</g>
</g>
</svg>
