<?xml version="1.0" encoding="UTF-8" standalone="no"?>
<!DOCTYPE svg PUBLIC "-//W3C//DTD SVG 1.1//EN"
 "http://www.w3.org/Graphics/SVG/1.1/DTD/svg11.dtd">
<!-- Generated by graphviz version 14.1.5 (0)
 -->
<!-- Title: Source/TactixUE/Public/BehaviorTree/UTactixBTDecorator_PlanActive.h Pages: 1 -->
<svg width="541pt" height="181pt"
 viewBox="0.00 0.00 541.00 181.00" xmlns="http://www.w3.org/2000/svg" xmlns:xlink="http://www.w3.org/1999/xlink">
<g id="graph0" class="graph" transform="scale(1 1) rotate(0) translate(4 176.5)">
<title>Source/TactixUE/Public/BehaviorTree/UTactixBTDecorator_PlanActive.h</title>
<!-- Node1 -->
<g id="Node000001" class="node">
<title>Node1</title>
<g id="a_Node000001"><a xlink:title="BT decorator that passes while a plan of the chosen type is running.">
<polygon fill="#999999" stroke="#666666" points="266.9,-172.5 84.4,-172.5 84.4,-126.25 266.9,-126.25 266.9,-172.5"/>
<text xml:space="preserve" text-anchor="start" x="92.4" y="-159" font-family="Helvetica,sans-Serif" font-size="10.00">Source/TactixUE/Public</text>
<text xml:space="preserve" text-anchor="start" x="92.4" y="-146.25" font-family="Helvetica,sans-Serif" font-size="10.00">/BehaviorTree/UTactixBTDecorator</text>
<text xml:space="preserve" text-anchor="middle" x="175.65" y="-133.5" font-family="Helvetica,sans-Serif" font-size="10.00">_PlanActive.h</text>
</a>
</g>
</g>
<!-- Node2 -->
<g id="Node000002" class="node">
<title>Node2</title>
<g id="a_Node000002"><a xlink:title=" ">
<polygon fill="#e0e0e0" stroke="#999999" points="98.28,-20.75 11.03,-20.75 11.03,0 98.28,0 98.28,-20.75"/>
<text xml:space="preserve" text-anchor="middle" x="54.65" y="-7.25" font-family="Helvetica,sans-Serif" font-size="10.00">CoreMinimal.h</text>
</a>
</g>
</g>
<!-- Node1&#45;&gt;Node2 -->
<g id="edge1_Node000001_Node000002" class="edge">
<title>Node1&#45;&gt;Node2</title>
<g id="a_edge1_Node000001_Node000002"><a xlink:title=" ">
<path fill="none" stroke="#63b8ff" d="M84.31,-138.44C54.3,-130.33 23.97,-115.88 5.65,-90.25 -3.01,-78.14 -0.31,-70.39 5.65,-56.75 10.66,-45.28 20.17,-35.41 29.48,-27.83"/>
<polygon fill="#63b8ff" stroke="#63b8ff" points="31.43,-30.74 37.35,-21.95 27.24,-25.14 31.43,-30.74"/>
</a>
</g>
</g>
<!-- Node3 -->
<g id="Node000003" class="node">
<title>Node3</title>
<g id="a_Node000003"><a xlink:title=" ">
<polygon fill="#e0e0e0" stroke="#999999" points="166.53,-83.88 14.78,-83.88 14.78,-63.12 166.53,-63.12 166.53,-83.88"/>
<text xml:space="preserve" text-anchor="middle" x="90.65" y="-70.38" font-family="Helvetica,sans-Serif" font-size="10.00">BehaviorTree/BTDecorator.h</text>
</a>
</g>
</g>
<!-- Node1&#45;&gt;Node3 -->
<g id="edge2_Node000001_Node000003" class="edge">
<title>Node1&#45;&gt;Node3</title>
<g id="a_edge2_Node000001_Node000003"><a xlink:title=" ">
<path fill="none" stroke="#63b8ff" d="M149.69,-125.81C137.05,-114.83 122.1,-101.84 110.41,-91.68"/>
<polygon fill="#63b8ff" stroke="#63b8ff" points="112.83,-89.14 102.98,-85.22 108.23,-94.42 112.83,-89.14"/>
</a>
</g>
</g>
<!-- Node4 -->
<g id="Node000004" class="node">
<title>Node4</title>
<g id="a_Node000004"><a xlink:href="UTactixBTTask__ExecutePlan_8h.html" target="_top" xlink:title="BT task that walks the controller&#39;s active GOAP or HTN plan, one step per tick.">
<polygon fill="white" stroke="#666666" points="338.28,-90.25 185.03,-90.25 185.03,-56.75 338.28,-56.75 338.28,-90.25"/>
<text xml:space="preserve" text-anchor="start" x="193.03" y="-76.75" font-family="Helvetica,sans-Serif" font-size="10.00">BehaviorTree/UTactixBTTask</text>
<text xml:space="preserve" text-anchor="middle" x="261.65" y="-64" font-family="Helvetica,sans-Serif" font-size="10.00">_ExecutePlan.h</text>
</a>
</g>
</g>
<!-- Node1&#45;&gt;Node4 -->
<g id="edge3_Node000001_Node000004" class="edge">
<title>Node1&#45;&gt;Node4</title>
<g id="a_edge3_Node000001_Node000004"><a xlink:title=" ">
<path fill="none" stroke="#63b8ff" d="M201.92,-125.81C212.16,-117.01 223.9,-106.93 234.24,-98.04"/>
<polygon fill="#63b8ff" stroke="#63b8ff" points="236.45,-100.76 241.76,-91.59 231.89,-95.45 236.45,-100.76"/>
</a>
</g>
</g>
<!-- Node7 -->
<g id="Node000007" class="node">
<title>Node7</title>
<g id="a_Node000007"><a xlink:title=" ">
<polygon fill="#e0e0e0" stroke="#999999" points="490.9,-90.25 356.4,-90.25 356.4,-56.75 490.9,-56.75 490.9,-90.25"/>
<text xml:space="preserve" text-anchor="start" x="364.4" y="-76.75" font-family="Helvetica,sans-Serif" font-size="10.00">UTactixBTDecorator</text>
<text xml:space="preserve" text-anchor="middle" x="423.65" y="-64" font-family="Helvetica,sans-Serif" font-size="10.00">_PlanActive.generated.h</text>
</a>
</g>
</g>
<!-- Node1&#45;&gt;Node7 -->
<g id="edge7_Node000001_Node000007" class="edge">
<title>Node1&#45;&gt;Node7</title>
<g id="a_edge7_Node000001_Node000007"><a xlink:title=" ">
<path fill="none" stroke="#63b8ff" d="M251.41,-125.81C285.58,-115.63 325.54,-103.73 358.36,-93.95"/>
<polygon fill="#63b8ff" stroke="#63b8ff" points="359.17,-97.36 367.75,-91.15 357.17,-90.65 359.17,-97.36"/>
</a>
</g>
</g>
<!-- Node4&#45;&gt;Node2 -->
<g id="edge4_Node000004_Node000002" class="edge">
<title>Node4&#45;&gt;Node2</title>
<g id="a_edge4_Node000004_Node000002"><a xlink:title=" ">
<path fill="none" stroke="#63b8ff" d="M206.72,-56.28C172.87,-46.28 130.04,-33.64 98.47,-24.31"/>
<polygon fill="#63b8ff" stroke="#63b8ff" points="99.84,-21.07 89.26,-21.59 97.86,-27.78 99.84,-21.07"/>
</a>
</g>
</g>
<!-- Node5 -->
<g id="Node000005" class="node">
<title>Node5</title>
<g id="a_Node000005"><a xlink:title=" ">
<polygon fill="#e0e0e0" stroke="#999999" points="302.53,-20.75 150.78,-20.75 150.78,0 302.53,0 302.53,-20.75"/>
<text xml:space="preserve" text-anchor="middle" x="226.65" y="-7.25" font-family="Helvetica,sans-Serif" font-size="10.00">BehaviorTree/BTTaskNode.h</text>
</a>
</g>
</g>
<!-- Node4&#45;&gt;Node5 -->
<g id="edge5_Node000004_Node000005" class="edge">
<title>Node4&#45;&gt;Node5</title>
<g id="a_edge5_Node000004_Node000005"><a xlink:title=" ">
<path fill="none" stroke="#63b8ff" d="M252.46,-56.44C248.01,-48.67 242.62,-39.27 237.93,-31.07"/>
<polygon fill="#63b8ff" stroke="#63b8ff" points="241.05,-29.47 233.04,-22.53 234.97,-32.95 241.05,-29.47"/>
</a>
</g>
</g>
<!-- Node6 -->
<g id="Node000006" class="node">
<title>Node6</title>
<g id="a_Node000006"><a xlink:title=" ">
<polygon fill="#e0e0e0" stroke="#999999" points="532.9,-20.75 320.4,-20.75 320.4,0 532.9,0 532.9,-20.75"/>
<text xml:space="preserve" text-anchor="middle" x="426.65" y="-7.25" font-family="Helvetica,sans-Serif" font-size="10.00">UTactixBTTask_ExecutePlan.generated.h</text>
</a>
</g>
</g>
<!-- Node4&#45;&gt;Node6 -->
<g id="edge6_Node000004_Node000006" class="edge">
<title>Node4&#45;&gt;Node6</title>
<g id="a_edge6_Node000004_Node000006"><a xlink:title=" ">
<path fill="none" stroke="#63b8ff" d="M305.43,-56.28C331.72,-46.54 364.77,-34.3 389.73,-25.05"/>
<polygon fill="#63b8ff" stroke="#63b8ff" points="390.64,-28.45 398.8,-21.69 388.21,-21.88 390.64,-28.45"/>
</a>
</g>
</g>
</g>
</svg>
