<?xml version="1.0" encoding="UTF-8" standalone="no"?>
<!DOCTYPE svg PUBLIC "-//W3C//DTD SVG 1.1//EN"
 "http://www.w3.org/Graphics/SVG/1.1/DTD/svg11.dtd">
<!-- Generated by graphviz version 14.1.5 (0)
 -->
<!-- Title: Source/TactixUE/Public/DataAssets/UTactixSquadConfigAsset.h Pages: 1 -->
<svg width="488pt" height="168pt"
 viewBox="0.00 0.00 488.00 168.00" xmlns="http://www.w3.org/2000/svg" xmlns:xlink="http://www.w3.org/1999/xlink">
<g id="graph0" class="graph" transform="scale(1 1) rotate(0) translate(4 163.75)">
<title>Source/TactixUE/Public/DataAssets/UTactixSquadConfigAsset.h</title>
<!-- Node1 -->
<g id="Node000001" class="node">
<title>Node1</title>
<g id="a_Node000001"><a xlink:title="Designer&#45;facing asset describing a squad&#39;s roles, formation and tactic.">
<polygon fill="#999999" stroke="#666666" points="239.75,-159.75 65.5,-159.75 65.5,-113.5 239.75,-113.5 239.75,-159.75"/>
<text xml:space="preserve" text-anchor="start" x="73.5" y="-146.25" font-family="Helvetica,sans-Serif" font-size="10.00">Source/TactixUE/Public</text>
<text xml:space="preserve" text-anchor="start" x="73.5" y="-133.5" font-family="Helvetica,sans-Serif" font-size="10.00">/DataAssets/UTactixSquadConfig</text>
<text xml:space="preserve" text-anchor="middle" x="152.62" y="-120.75" font-family="Helvetica,sans-Serif" font-size="10.00">Asset.h</text>
</a>
</g>
</g>
<!-- Node2 -->
<g id="Node000002" class="node">
<title>Node2</title>
<g id="a_Node000002"><a xlink:title=" ">
<polygon fill="#e0e0e0" stroke="#999999" points="87.25,-20.75 0,-20.75 0,0 87.25,0 87.25,-20.75"/>
<text xml:space="preserve" text-anchor="middle" x="43.62" y="-7.25" font-family="Helvetica,sans-Serif" font-size="10.00">CoreMinimal.h</text>
</a>
</g>
</g>
<!-- Node1&#45;&gt;Node2 -->
<g id="edge1_Node000001_Node000002" class="edge">
<title>Node1&#45;&gt;Node2</title>
<g id="a_edge1_Node000001_Node000002"><a xlink:title=" ">
<path fill="none" stroke="#63b8ff" d="M69.6,-113.06C52.99,-104.63 37.6,-93.14 27.62,-77.5 18.7,-63.51 24.39,-44.97 31.34,-31.08"/>
<polygon fill="#63b8ff" stroke="#63b8ff" points="34.35,-32.87 36.19,-22.43 28.24,-29.44 34.35,-32.87"/>
</a>
</g>
</g>
<!-- Node3 -->
<g id="Node000003" class="node">
<title>Node3</title>
<g id="a_Node000003"><a xlink:title=" ">
<polygon fill="#e0e0e0" stroke="#999999" points="148.25,-77.5 37,-77.5 37,-56.75 148.25,-56.75 148.25,-77.5"/>
<text xml:space="preserve" text-anchor="middle" x="92.62" y="-64" font-family="Helvetica,sans-Serif" font-size="10.00">Engine/DataAsset.h</text>
</a>
</g>
</g>
<!-- Node1&#45;&gt;Node3 -->
<g id="edge2_Node000001_Node000003" class="edge">
<title>Node1&#45;&gt;Node3</title>
<g id="a_edge2_Node000001_Node000003"><a xlink:title=" ">
<path fill="none" stroke="#63b8ff" d="M132.65,-113.15C124.92,-104.45 116.19,-94.63 108.86,-86.39"/>
<polygon fill="#63b8ff" stroke="#63b8ff" points="111.57,-84.17 102.31,-79.02 106.34,-88.82 111.57,-84.17"/>
</a>
</g>
</g>
<!-- Node4 -->
<g id="Node000004" class="node">
<title>Node4</title>
<g id="a_Node000004"><a xlink:href="TactixUETypes_8h.html" target="_top" xlink:title="Blueprint&#45;exposed mirrors of Tactix enums and config structs.">
<polygon fill="white" stroke="#666666" points="261,-77.5 166.25,-77.5 166.25,-56.75 261,-56.75 261,-77.5"/>
<text xml:space="preserve" text-anchor="middle" x="213.62" y="-64" font-family="Helvetica,sans-Serif" font-size="10.00">TactixUETypes.h</text>
</a>
</g>
</g>
<!-- Node1&#45;&gt;Node4 -->
<g id="edge3_Node000001_Node000004" class="edge">
<title>Node1&#45;&gt;Node4</title>
<g id="a_edge3_Node000001_Node000004"><a xlink:title=" ">
<path fill="none" stroke="#63b8ff" d="M172.94,-113.15C180.79,-104.45 189.67,-94.63 197.12,-86.39"/>
<polygon fill="#63b8ff" stroke="#63b8ff" points="199.68,-88.78 203.79,-79.01 194.48,-84.09 199.68,-88.78"/>
</a>
</g>
</g>
<!-- Node6 -->
<g id="Node000006" class="node">
<title>Node6</title>
<g id="a_Node000006"><a xlink:title=" ">
<polygon fill="#e0e0e0" stroke="#999999" points="480.25,-77.5 279,-77.5 279,-56.75 480.25,-56.75 480.25,-77.5"/>
<text xml:space="preserve" text-anchor="middle" x="379.62" y="-64" font-family="Helvetica,sans-Serif" font-size="10.00">UTactixSquadConfigAsset.generated.h</text>
</a>
</g>
</g>
<!-- Node1&#45;&gt;Node6 -->
<g id="edge6_Node000001_Node000006" class="edge">
<title>Node1&#45;&gt;Node6</title>
<g id="a_edge6_Node000001_Node000006"><a xlink:title=" ">
<path fill="none" stroke="#63b8ff" d="M228.53,-113.05C264.23,-102.44 305.52,-90.16 335.91,-81.12"/>
<polygon fill="#63b8ff" stroke="#63b8ff" points="336.54,-84.59 345.13,-78.38 334.55,-77.88 336.54,-84.59"/>
</a>
</g>
</g>
<!-- Node4&#45;&gt;Node2 -->
<g id="edge4_Node000004_Node000002" class="edge">
<title>Node4&#45;&gt;Node2</title>
<g id="a_edge4_Node000004_Node000002"><a xlink:title=" ">
<path fill="none" stroke="#63b8ff" d="M183.23,-56.34C155.76,-47.49 115.09,-34.39 84.72,-24.61"/>
<polygon fill="#63b8ff" stroke="#63b8ff" points="86.07,-21.37 75.48,-21.63 83.93,-28.03 86.07,-21.37"/>
</a>
</g>
</g>
<!-- Node5 -->
<g id="Node000005" class="node">
<title>Node5</title>
<g id="a_Node000005"><a xlink:title=" ">
<polygon fill="#e0e0e0" stroke="#999999" points="287.25,-20.75 140,-20.75 140,0 287.25,0 287.25,-20.75"/>
<text xml:space="preserve" text-anchor="middle" x="213.62" y="-7.25" font-family="Helvetica,sans-Serif" font-size="10.00">TactixUETypes.generated.h</text>
</a>
</g>
</g>
<!-- Node4&#45;&gt;Node5 -->
<g id="edge5_Node000004_Node000005" class="edge">
<title>Node4&#45;&gt;Node5</title>
<g id="a_edge5_Node000004_Node000005"><a xlink:title=" ">
<path fill="none" stroke="#63b8ff" d="M213.62,-56.34C213.62,-49.72 213.62,-40.72 213.62,-32.52"/>
<polygon fill="#63b8ff" stroke="#63b8ff" points="217.13,-32.59 213.63,-22.59 210.13,-32.59 217.13,-32.59"/>
</a>
</g>
</g>
</g>
</svg>
