<?xml version="1.0" encoding="UTF-8" standalone="no"?>
<!DOCTYPE svg PUBLIC "-//W3C//DTD SVG 1.1//EN"
 "http://www.w3.org/Graphics/SVG/1.1/DTD/svg11.dtd">
<!-- Generated by graphviz version 14.1.5 (0)
 -->
<!-- Title: Source/TactixUE/Public/DataAssets/UTactixUtilityAsset.h Pages: 1 -->
<svg width="876pt" height="269pt"
 viewBox="0.00 0.00 876.00 269.00" xmlns="http://www.w3.org/2000/svg" xmlns:xlink="http://www.w3.org/1999/xlink">
<g id="graph0" class="graph" transform="scale(1 1) rotate(0) translate(4 264.5)">
<title>Source/TactixUE/Public/DataAssets/UTactixUtilityAsset.h</title>
<!-- Node1 -->
<g id="Node000001" class="node">
<title>Node1</title>
<g id="a_Node000001"><a xlink:title="Designer&#45;facing asset: a named set of scored actions for one decision context.">
<polygon fill="#999999" stroke="#666666" points="371.38,-260.5 191.88,-260.5 191.88,-227 371.38,-227 371.38,-260.5"/>
<text xml:space="preserve" text-anchor="start" x="199.88" y="-247" font-family="Helvetica,sans-Serif" font-size="10.00">Source/TactixUE/Public</text>
<text xml:space="preserve" text-anchor="middle" x="281.62" y="-234.25" font-family="Helvetica,sans-Serif" font-size="10.00">/DataAssets/UTactixUtilityAsset.h</text>
</a>
</g>
</g>
<!-- Node2 -->
<g id="Node000002" class="node">
<title>Node2</title>
<g id="a_Node000002"><a xlink:title=" ">
<polygon fill="#e0e0e0" stroke="#999999" points="87.25,-134.25 0,-134.25 0,-113.5 87.25,-113.5 87.25,-134.25"/>
<text xml:space="preserve" text-anchor="middle" x="43.62" y="-120.75" font-family="Helvetica,sans-Serif" font-size="10.00">CoreMinimal.h</text>
</a>
</g>
</g>
<!-- Node1&#45;&gt;Node2 -->
<g id="edge1_Node000001_Node000002" class="edge">
<title>Node1&#45;&gt;Node2</title>
<g id="a_edge1_Node000001_Node000002"><a xlink:title=" ">
<path fill="none" stroke="#63b8ff" d="M191.56,-230.81C139.81,-222.19 81.43,-208.93 62.62,-191 50.46,-179.4 45.92,-160.56 44.31,-145.96"/>
<polygon fill="#63b8ff" stroke="#63b8ff" points="47.8,-145.74 43.63,-136.01 40.82,-146.22 47.8,-145.74"/>
</a>
</g>
</g>
<!-- Node3 -->
<g id="Node000003" class="node">
<title>Node3</title>
<g id="a_Node000003"><a xlink:title=" ">
<polygon fill="#e0e0e0" stroke="#999999" points="295.25,-191 184,-191 184,-170.25 295.25,-170.25 295.25,-191"/>
<text xml:space="preserve" text-anchor="middle" x="239.62" y="-177.5" font-family="Helvetica,sans-Serif" font-size="10.00">Engine/DataAsset.h</text>
</a>
</g>
</g>
<!-- Node1&#45;&gt;Node3 -->
<g id="edge2_Node000001_Node000003" class="edge">
<title>Node1&#45;&gt;Node3</title>
<g id="a_edge2_Node000001_Node000003"><a xlink:title=" ">
<path fill="none" stroke="#63b8ff" d="M270.59,-226.69C265.13,-218.74 258.5,-209.09 252.78,-200.77"/>
<polygon fill="#63b8ff" stroke="#63b8ff" points="255.79,-198.97 247.24,-192.71 250.02,-202.94 255.79,-198.97"/>
</a>
</g>
</g>
<!-- Node4 -->
<g id="Node000004" class="node">
<title>Node4</title>
<g id="a_Node000004"><a xlink:href="TactixUETypes_8h.html" target="_top" xlink:title="Blueprint&#45;exposed mirrors of Tactix enums and config structs.">
<polygon fill="white" stroke="#666666" points="166,-191 71.25,-191 71.25,-170.25 166,-170.25 166,-191"/>
<text xml:space="preserve" text-anchor="middle" x="118.62" y="-177.5" font-family="Helvetica,sans-Serif" font-size="10.00">TactixUETypes.h</text>
</a>
</g>
</g>
<!-- Node1&#45;&gt;Node4 -->
<g id="edge3_Node000001_Node000004" class="edge">
<title>Node1&#45;&gt;Node4</title>
<g id="a_edge3_Node000001_Node000004"><a xlink:title=" ">
<path fill="none" stroke="#63b8ff" d="M238.37,-226.53C212.53,-216.84 180.04,-204.66 155.43,-195.43"/>
<polygon fill="#63b8ff" stroke="#63b8ff" points="156.74,-192.18 146.15,-191.95 154.28,-198.73 156.74,-192.18"/>
</a>
</g>
</g>
<!-- Node6 -->
<g id="Node000006" class="node">
<title>Node6</title>
<g id="a_Node000006"><a xlink:href="TactixCurve_8h.html" target="_top" xlink:title="Response curves that turn a raw input into a normalised utility score.">
<polygon fill="white" stroke="#666666" points="461.12,-77.5 322.12,-77.5 322.12,-56.75 461.12,-56.75 461.12,-77.5"/>
<text xml:space="preserve" text-anchor="middle" x="391.62" y="-64" font-family="Helvetica,sans-Serif" font-size="10.00">Foundation/TactixCurve.h</text>
</a>
</g>
</g>
<!-- Node1&#45;&gt;Node6 -->
<g id="edge6_Node000001_Node000006" class="edge">
<title>Node1&#45;&gt;Node6</title>
<g id="a_edge6_Node000001_Node000006"><a xlink:title=" ">
<path fill="none" stroke="#63b8ff" d="M291.78,-226.63C312.12,-194.34 357.78,-121.85 379.59,-87.24"/>
<polygon fill="#63b8ff" stroke="#63b8ff" points="382.36,-89.4 384.73,-79.07 376.44,-85.67 382.36,-89.4"/>
</a>
</g>
</g>
<!-- Node9 -->
<g id="Node000009" class="node">
<title>Node9</title>
<g id="a_Node000009"><a xlink:href="FTactixAgentContext_8h.html" target="_top" xlink:title="Read&#45;only, side&#45;effect&#45;free snapshot of one agent for a single decision.">
<polygon fill="white" stroke="#666666" points="630.12,-191 473.12,-191 473.12,-170.25 630.12,-170.25 630.12,-191"/>
<text xml:space="preserve" text-anchor="middle" x="551.62" y="-177.5" font-family="Helvetica,sans-Serif" font-size="10.00">Agent/FTactixAgentContext.h</text>
</a>
</g>
</g>
<!-- Node1&#45;&gt;Node9 -->
<g id="edge9_Node000001_Node000009" class="edge">
<title>Node1&#45;&gt;Node9</title>
<g id="a_edge9_Node000001_Node000009"><a xlink:title=" ">
<path fill="none" stroke="#63b8ff" d="M353.27,-226.53C398.49,-216.29 455.98,-203.28 497.41,-193.9"/>
<polygon fill="#63b8ff" stroke="#63b8ff" points="497.92,-197.37 506.9,-191.75 496.38,-190.54 497.92,-197.37"/>
</a>
</g>
</g>
<!-- Node14 -->
<g id="Node000014" class="node">
<title>Node14</title>
<g id="a_Node000014"><a xlink:title=" ">
<polygon fill="#e0e0e0" stroke="#999999" points="818.88,-191 648.38,-191 648.38,-170.25 818.88,-170.25 818.88,-191"/>
<text xml:space="preserve" text-anchor="middle" x="733.62" y="-177.5" font-family="Helvetica,sans-Serif" font-size="10.00">UTactixUtilityAsset.generated.h</text>
</a>
</g>
</g>
<!-- Node1&#45;&gt;Node14 -->
<g id="edge23_Node000001_Node000014" class="edge">
<title>Node1&#45;&gt;Node14</title>
<g id="a_edge23_Node000001_Node000014"><a xlink:title=" ">
<path fill="none" stroke="#63b8ff" d="M371.74,-230.56C452.62,-219.63 570.44,-203.69 649.44,-193.01"/>
<polygon fill="#63b8ff" stroke="#63b8ff" points="649.87,-196.48 659.31,-191.67 648.93,-189.55 649.87,-196.48"/>
</a>
</g>
</g>
<!-- Node4&#45;&gt;Node2 -->
<g id="edge4_Node000004_Node000002" class="edge">
<title>Node4&#45;&gt;Node2</title>
<g id="a_edge4_Node000004_Node000002"><a xlink:title=" ">
<path fill="none" stroke="#63b8ff" d="M105.22,-169.84C94.34,-161.9 78.77,-150.53 66.01,-141.21"/>
<polygon fill="#63b8ff" stroke="#63b8ff" points="68.28,-138.54 58.14,-135.47 64.15,-144.19 68.28,-138.54"/>
</a>
</g>
</g>
<!-- Node5 -->
<g id="Node000005" class="node">
<title>Node5</title>
<g id="a_Node000005"><a xlink:title=" ">
<polygon fill="#e0e0e0" stroke="#999999" points="252.25,-134.25 105,-134.25 105,-113.5 252.25,-113.5 252.25,-134.25"/>
<text xml:space="preserve" text-anchor="middle" x="178.62" y="-120.75" font-family="Helvetica,sans-Serif" font-size="10.00">TactixUETypes.generated.h</text>
</a>
</g>
</g>
<!-- Node4&#45;&gt;Node5 -->
<g id="edge5_Node000004_Node000005" class="edge">
<title>Node4&#45;&gt;Node5</title>
<g id="a_edge5_Node000004_Node000005"><a xlink:title=" ">
<path fill="none" stroke="#63b8ff" d="M129.35,-169.84C137.71,-162.21 149.54,-151.42 159.51,-142.32"/>
<polygon fill="#63b8ff" stroke="#63b8ff" points="161.85,-144.92 166.87,-135.6 157.13,-139.75 161.85,-144.92"/>
</a>
</g>
</g>
<!-- Node7 -->
<g id="Node000007" class="node">
<title>Node7</title>
<g id="a_Node000007"><a xlink:href="TactixApi_8h.html" target="_top" xlink:title="Export macros, compiler attributes and version constants shared by every Tactix module.">
<polygon fill="white" stroke="#666666" points="725.25,-20.75 656,-20.75 656,0 725.25,0 725.25,-20.75"/>
<text xml:space="preserve" text-anchor="middle" x="690.62" y="-7.25" font-family="Helvetica,sans-Serif" font-size="10.00">TactixApi.h</text>
</a>
</g>
</g>
<!-- Node6&#45;&gt;Node7 -->
<g id="edge7_Node000006_Node000007" class="edge">
<title>Node6&#45;&gt;Node7</title>
<g id="a_edge7_Node000006_Node000007"><a xlink:title=" ">
<path fill="none" stroke="#63b8ff" d="M445.43,-56.27C502.29,-45.86 591.01,-29.62 644.69,-19.79"/>
<polygon fill="#63b8ff" stroke="#63b8ff" points="645.23,-23.25 654.43,-18 643.96,-16.36 645.23,-23.25"/>
</a>
</g>
</g>
<!-- Node8 -->
<g id="Node000008" class="node">
<title>Node8</title>
<g id="a_Node000008"><a xlink:title=" ">
<polygon fill="#e0e0e0" stroke="#999999" points="576.12,-20.75 527.12,-20.75 527.12,0 576.12,0 576.12,-20.75"/>
<text xml:space="preserve" text-anchor="middle" x="551.62" y="-7.25" font-family="Helvetica,sans-Serif" font-size="10.00">cstdint</text>
</a>
</g>
</g>
<!-- Node6&#45;&gt;Node8 -->
<g id="edge8_Node000006_Node000008" class="edge">
<title>Node6&#45;&gt;Node8</title>
<g id="a_edge8_Node000006_Node000008"><a xlink:title=" ">
<path fill="none" stroke="#63b8ff" d="M420.23,-56.34C446.97,-47.19 487,-33.49 515.85,-23.62"/>
<polygon fill="#63b8ff" stroke="#63b8ff" points="516.92,-26.95 525.25,-20.4 514.66,-20.33 516.92,-26.95"/>
</a>
</g>
</g>
<!-- Node9&#45;&gt;Node7 -->
<g id="edge10_Node000009_Node000007" class="edge">
<title>Node9&#45;&gt;Node7</title>
<g id="a_edge10_Node000009_Node000007"><a xlink:title=" ">
<path fill="none" stroke="#63b8ff" d="M608.43,-169.78C690.57,-154.19 835.75,-121.07 863.62,-77.5 868.6,-69.73 869.26,-64.05 863.62,-56.75 855.75,-46.54 785.2,-30.46 736.66,-20.44"/>
<polygon fill="#63b8ff" stroke="#63b8ff" points="737.44,-17.03 726.94,-18.46 736.04,-23.89 737.44,-17.03"/>
</a>
</g>
</g>
<!-- Node9&#45;&gt;Node8 -->
<g id="edge22_Node000009_Node000008" class="edge">
<title>Node9&#45;&gt;Node8</title>
<g id="a_edge22_Node000009_Node000008"><a xlink:title=" ">
<path fill="none" stroke="#63b8ff" d="M482.26,-169.8C394.64,-154.53 261.23,-120.08 313.62,-56.75 338.83,-26.29 455.33,-16.1 515.47,-12.83"/>
<polygon fill="#63b8ff" stroke="#63b8ff" points="515.38,-16.34 525.2,-12.34 515.03,-9.35 515.38,-16.34"/>
</a>
</g>
</g>
<!-- Node10 -->
<g id="Node000010" class="node">
<title>Node10</title>
<g id="a_Node000010"><a xlink:href="TactixHandle_8h.html" target="_top" xlink:title="Type&#45;safe generational handle: the only sanctioned way to reference a pooled object across frames.">
<polygon fill="white" stroke="#666666" points="624.12,-77.5 479.12,-77.5 479.12,-56.75 624.12,-56.75 624.12,-77.5"/>
<text xml:space="preserve" text-anchor="middle" x="551.62" y="-64" font-family="Helvetica,sans-Serif" font-size="10.00">Foundation/TactixHandle.h</text>
</a>
</g>
</g>
<!-- Node9&#45;&gt;Node10 -->
<g id="edge11_Node000009_Node000010" class="edge">
<title>Node9&#45;&gt;Node10</title>
<g id="a_edge11_Node000009_Node000010"><a xlink:title=" ">
<path fill="none" stroke="#63b8ff" d="M551.62,-170.12C551.62,-152.35 551.62,-113.72 551.62,-89.43"/>
<polygon fill="#63b8ff" stroke="#63b8ff" points="555.13,-89.44 551.63,-79.44 548.13,-89.44 555.13,-89.44"/>
</a>
</g>
</g>
<!-- Node11 -->
<g id="Node000011" class="node">
<title>Node11</title>
<g id="a_Node000011"><a xlink:href="TactixMath_8h.html" target="_top" xlink:title="Small, engine&#45;agnostic vector and scalar math used across Tactix.">
<polygon fill="white" stroke="#666666" points="854.25,-77.5 719,-77.5 719,-56.75 854.25,-56.75 854.25,-77.5"/>
<text xml:space="preserve" text-anchor="middle" x="786.62" y="-64" font-family="Helvetica,sans-Serif" font-size="10.00">Foundation/TactixMath.h</text>
</a>
</g>
</g>
<!-- Node9&#45;&gt;Node11 -->
<g id="edge14_Node000009_Node000011" class="edge">
<title>Node9&#45;&gt;Node11</title>
<g id="a_edge14_Node000009_Node000011"><a xlink:title=" ">
<path fill="none" stroke="#63b8ff" d="M610.34,-169.78C641.98,-162.85 680.93,-151.65 712.62,-134.25 735.39,-121.76 757,-101.05 770.92,-86.14"/>
<polygon fill="#63b8ff" stroke="#63b8ff" points="773.41,-88.61 777.52,-78.85 768.22,-83.91 773.41,-88.61"/>
</a>
</g>
</g>
<!-- Node13 -->
<g id="Node000013" class="node">
<title>Node13</title>
<g id="a_Node000013"><a xlink:href="ITactixAgent_8h.html" target="_top" xlink:title="The engine&#45;agnostic contract a &quot;thinking&quot; entity implements to take part in Tactix systems.">
<polygon fill="white" stroke="#666666" points="703.88,-134.25 587.38,-134.25 587.38,-113.5 703.88,-113.5 703.88,-134.25"/>
<text xml:space="preserve" text-anchor="middle" x="645.62" y="-120.75" font-family="Helvetica,sans-Serif" font-size="10.00">Agent/ITactixAgent.h</text>
</a>
</g>
</g>
<!-- Node9&#45;&gt;Node13 -->
<g id="edge18_Node000009_Node000013" class="edge">
<title>Node9&#45;&gt;Node13</title>
<g id="a_edge18_Node000009_Node000013"><a xlink:title=" ">
<path fill="none" stroke="#63b8ff" d="M568.43,-169.84C582.6,-161.58 603.12,-149.63 619.44,-140.13"/>
<polygon fill="#63b8ff" stroke="#63b8ff" points="620.78,-143.4 627.66,-135.34 617.25,-137.35 620.78,-143.4"/>
</a>
</g>
</g>
<!-- Node10&#45;&gt;Node7 -->
<g id="edge12_Node000010_Node000007" class="edge">
<title>Node10&#45;&gt;Node7</title>
<g id="a_edge12_Node000010_Node000007"><a xlink:title=" ">
<path fill="none" stroke="#63b8ff" d="M576.48,-56.34C598.51,-47.66 630.94,-34.88 655.61,-25.17"/>
<polygon fill="#63b8ff" stroke="#63b8ff" points="656.56,-28.55 664.58,-21.63 653.99,-22.04 656.56,-28.55"/>
</a>
</g>
</g>
<!-- Node10&#45;&gt;Node8 -->
<g id="edge13_Node000010_Node000008" class="edge">
<title>Node10&#45;&gt;Node8</title>
<g id="a_edge13_Node000010_Node000008"><a xlink:title=" ">
<path fill="none" stroke="#63b8ff" d="M551.62,-56.34C551.62,-49.72 551.62,-40.72 551.62,-32.52"/>
<polygon fill="#63b8ff" stroke="#63b8ff" points="555.13,-32.59 551.63,-22.59 548.13,-32.59 555.13,-32.59"/>
</a>
</g>
</g>
<!-- Node11&#45;&gt;Node7 -->
<g id="edge15_Node000011_Node000007" class="edge">
<title>Node11&#45;&gt;Node7</title>
<g id="a_edge15_Node000011_Node000007"><a xlink:title=" ">
<path fill="none" stroke="#63b8ff" d="M769.46,-56.34C754.99,-48.08 734.04,-36.13 717.37,-26.63"/>
<polygon fill="#63b8ff" stroke="#63b8ff" points="719.37,-23.74 708.95,-21.83 715.91,-29.82 719.37,-23.74"/>
</a>
</g>
</g>
<!-- Node11&#45;&gt;Node8 -->
<g id="edge17_Node000011_Node000008" class="edge">
<title>Node11&#45;&gt;Node8</title>
<g id="a_edge17_Node000011_Node000008"><a xlink:title=" ">
<path fill="none" stroke="#63b8ff" d="M744.34,-56.27C699.65,-45.86 629.91,-29.61 587.72,-19.78"/>
<polygon fill="#63b8ff" stroke="#63b8ff" points="588.6,-16.4 578.06,-17.53 587.01,-23.21 588.6,-16.4"/>
</a>
</g>
</g>
<!-- Node12 -->
<g id="Node000012" class="node">
<title>Node12</title>
<g id="a_Node000012"><a xlink:title=" ">
<polygon fill="#e0e0e0" stroke="#999999" points="810,-20.75 763.25,-20.75 763.25,0 810,0 810,-20.75"/>
<text xml:space="preserve" text-anchor="middle" x="786.62" y="-7.25" font-family="Helvetica,sans-Serif" font-size="10.00">cmath</text>
</a>
</g>
</g>
<!-- Node11&#45;&gt;Node12 -->
<g id="edge16_Node000011_Node000012" class="edge">
<title>Node11&#45;&gt;Node12</title>
<g id="a_edge16_Node000011_Node000012"><a xlink:title=" ">
<path fill="none" stroke="#63b8ff" d="M786.62,-56.34C786.62,-49.72 786.62,-40.72 786.62,-32.52"/>
<polygon fill="#63b8ff" stroke="#63b8ff" points="790.13,-32.59 786.63,-22.59 783.13,-32.59 790.13,-32.59"/>
</a>
</g>
</g>
<!-- Node13&#45;&gt;Node7 -->
<g id="edge19_Node000013_Node000007" class="edge">
<title>Node13&#45;&gt;Node7</title>
<g id="a_edge19_Node000013_Node000007"><a xlink:title=" ">
<path fill="none" stroke="#63b8ff" d="M650.37,-113.24C654.8,-104.13 661.47,-90.02 666.62,-77.5 672.89,-62.28 679.21,-44.77 683.79,-31.58"/>
<polygon fill="#63b8ff" stroke="#63b8ff" points="687.04,-32.92 686.97,-22.32 680.41,-30.65 687.04,-32.92"/>
</a>
</g>
</g>
<!-- Node13&#45;&gt;Node8 -->
<g id="edge21_Node000013_Node000008" class="edge">
<title>Node13&#45;&gt;Node8</title>
<g id="a_edge21_Node000013_Node000008"><a xlink:title=" ">
<path fill="none" stroke="#63b8ff" d="M646.32,-113.36C646.83,-99.57 645.87,-73.81 633.62,-56.75 622.26,-40.92 603.59,-29.97 586.92,-22.8"/>
<polygon fill="#63b8ff" stroke="#63b8ff" points="588.36,-19.6 577.77,-19.18 585.78,-26.11 588.36,-19.6"/>
</a>
</g>
</g>
<!-- Node13&#45;&gt;Node10 -->
<g id="edge20_Node000013_Node000010" class="edge">
<title>Node13&#45;&gt;Node10</title>
<g id="a_edge20_Node000013_Node000010"><a xlink:title=" ">
<path fill="none" stroke="#63b8ff" d="M628.82,-113.09C614.65,-104.83 594.13,-92.88 577.81,-83.38"/>
<polygon fill="#63b8ff" stroke="#63b8ff" points="580,-80.6 569.59,-78.59 576.47,-86.65 580,-80.6"/>
</a>
</g>
</g>
</g>
</svg>
