<?xml version="1.0" encoding="UTF-8" standalone="no"?>
<!DOCTYPE svg PUBLIC "-//W3C//DTD SVG 1.1//EN"
 "http://www.w3.org/Graphics/SVG/1.1/DTD/svg11.dtd">
<!-- Generated by graphviz version 14.1.5 (0)
 -->
<!-- Title: Source/TactixUE/Private/EQS/UTactixEQSGenerator_Cover.cpp Pages: 1 -->
<svg width="1922pt" height="433pt"
 viewBox="0.00 0.00 1922.00 433.00" xmlns="http://www.w3.org/2000/svg" xmlns:xlink="http://www.w3.org/1999/xlink">
<g id="graph0" class="graph" transform="scale(1 1) rotate(0) translate(4 429)">
<title>Source/TactixUE/Private/EQS/UTactixEQSGenerator_Cover.cpp</title>
<!-- Node1 -->
<g id="Node000001" class="node">
<title>Node1</title>
<g id="a_Node000001"><a xlink:title="Implements the cover EQS generator: emit each registered cover point as a point item.">
<polygon fill="#999999" stroke="#666666" points="1655.32,-425 1509.57,-425 1509.57,-378.75 1655.32,-378.75 1655.32,-425"/>
<text xml:space="preserve" text-anchor="start" x="1517.57" y="-411.5" font-family="Helvetica,sans-Serif" font-size="10.00">Source/TactixUE/Private</text>
<text xml:space="preserve" text-anchor="start" x="1517.57" y="-398.75" font-family="Helvetica,sans-Serif" font-size="10.00">/EQS/UTactixEQSGenerator</text>
<text xml:space="preserve" text-anchor="middle" x="1582.44" y="-386" font-family="Helvetica,sans-Serif" font-size="10.00">_Cover.cpp</text>
</a>
</g>
</g>
<!-- Node2 -->
<g id="Node000002" class="node">
<title>Node2</title>
<g id="a_Node000002"><a xlink:href="UTactixEQSGenerator__Cover_8h.html" target="_top" xlink:title="EQS generator that emits registered cover points as query items.">
<polygon fill="white" stroke="#666666" points="1569.82,-342.75 1427.07,-342.75 1427.07,-309.25 1569.82,-309.25 1569.82,-342.75"/>
<text xml:space="preserve" text-anchor="start" x="1435.07" y="-329.25" font-family="Helvetica,sans-Serif" font-size="10.00">EQS/UTactixEQSGenerator</text>
<text xml:space="preserve" text-anchor="middle" x="1498.44" y="-316.5" font-family="Helvetica,sans-Serif" font-size="10.00">_Cover.h</text>
</a>
</g>
</g>
<!-- Node1&#45;&gt;Node2 -->
<g id="edge1_Node000001_Node000002" class="edge">
<title>Node1&#45;&gt;Node2</title>
<g id="a_edge1_Node000001_Node000002"><a xlink:title=" ">
<path fill="none" stroke="#63b8ff" d="M1556.78,-378.31C1546.78,-369.51 1535.32,-359.43 1525.21,-350.54"/>
<polygon fill="#63b8ff" stroke="#63b8ff" points="1527.71,-348.08 1517.89,-344.1 1523.09,-353.34 1527.71,-348.08"/>
</a>
</g>
</g>
<!-- Node6 -->
<g id="Node000006" class="node">
<title>Node6</title>
<g id="a_Node000006"><a xlink:title=" ">
<polygon fill="#e0e0e0" stroke="#999999" points="1745.32,-342.75 1587.57,-342.75 1587.57,-309.25 1745.32,-309.25 1745.32,-342.75"/>
<text xml:space="preserve" text-anchor="start" x="1595.57" y="-329.25" font-family="Helvetica,sans-Serif" font-size="10.00">EnvironmentQuery/EnvQuery</text>
<text xml:space="preserve" text-anchor="middle" x="1666.44" y="-316.5" font-family="Helvetica,sans-Serif" font-size="10.00">Types.h</text>
</a>
</g>
</g>
<!-- Node1&#45;&gt;Node6 -->
<g id="edge5_Node000001_Node000006" class="edge">
<title>Node1&#45;&gt;Node6</title>
<g id="a_edge5_Node000001_Node000006"><a xlink:title=" ">
<path fill="none" stroke="#63b8ff" d="M1608.1,-378.31C1618.1,-369.51 1629.57,-359.43 1639.67,-350.54"/>
<polygon fill="#63b8ff" stroke="#63b8ff" points="1641.8,-353.34 1646.99,-344.1 1637.17,-348.08 1641.8,-353.34"/>
</a>
</g>
</g>
<!-- Node7 -->
<g id="Node000007" class="node">
<title>Node7</title>
<g id="a_Node000007"><a xlink:title=" ">
<polygon fill="#e0e0e0" stroke="#999999" points="1913.57,-342.75 1763.32,-342.75 1763.32,-309.25 1913.57,-309.25 1913.57,-342.75"/>
<text xml:space="preserve" text-anchor="start" x="1771.32" y="-329.25" font-family="Helvetica,sans-Serif" font-size="10.00">EnvironmentQuery/Items</text>
<text xml:space="preserve" text-anchor="middle" x="1838.44" y="-316.5" font-family="Helvetica,sans-Serif" font-size="10.00">/EnvQueryItemType_Point.h</text>
</a>
</g>
</g>
<!-- Node1&#45;&gt;Node7 -->
<g id="edge6_Node000001_Node000007" class="edge">
<title>Node1&#45;&gt;Node7</title>
<g id="a_edge6_Node000001_Node000007"><a xlink:title=" ">
<path fill="none" stroke="#63b8ff" d="M1655.8,-379.71C1692.22,-369.2 1735.91,-356.59 1771.42,-346.34"/>
<polygon fill="#63b8ff" stroke="#63b8ff" points="1772.07,-349.8 1780.71,-343.66 1770.13,-343.07 1772.07,-349.8"/>
</a>
</g>
</g>
<!-- Node8 -->
<g id="Node000008" class="node">
<title>Node8</title>
<g id="a_Node000008"><a xlink:href="UTactixWorldSubsystem_8h.html" target="_top" xlink:title="Per&#45;world owner of the cover system and influence map shared by every agent in the level.">
<polygon fill="white" stroke="#666666" points="1331.32,-336.38 1131.57,-336.38 1131.57,-315.62 1331.32,-315.62 1331.32,-336.38"/>
<text xml:space="preserve" text-anchor="middle" x="1231.44" y="-322.88" font-family="Helvetica,sans-Serif" font-size="10.00">Subsystem/UTactixWorldSubsystem.h</text>
</a>
</g>
</g>
<!-- Node1&#45;&gt;Node8 -->
<g id="edge7_Node000001_Node000008" class="edge">
<title>Node1&#45;&gt;Node8</title>
<g id="a_edge7_Node000001_Node000008"><a xlink:title=" ">
<path fill="none" stroke="#63b8ff" d="M1509.29,-385.48C1443.98,-371.73 1349.61,-351.87 1289.4,-339.2"/>
<polygon fill="#63b8ff" stroke="#63b8ff" points="1290.19,-335.79 1279.68,-337.15 1288.75,-342.64 1290.19,-335.79"/>
</a>
</g>
</g>
<!-- Node3 -->
<g id="Node000003" class="node">
<title>Node3</title>
<g id="a_Node000003"><a xlink:title=" ">
<polygon fill="#e0e0e0" stroke="#999999" points="1482.07,-266.88 1394.82,-266.88 1394.82,-246.12 1482.07,-246.12 1482.07,-266.88"/>
<text xml:space="preserve" text-anchor="middle" x="1438.44" y="-253.38" font-family="Helvetica,sans-Serif" font-size="10.00">CoreMinimal.h</text>
</a>
</g>
</g>
<!-- Node2&#45;&gt;Node3 -->
<g id="edge2_Node000002_Node000003" class="edge">
<title>Node2&#45;&gt;Node3</title>
<g id="a_edge2_Node000002_Node000003"><a xlink:title=" ">
<path fill="none" stroke="#63b8ff" d="M1484.22,-309C1475.32,-298.99 1463.83,-286.07 1454.59,-275.67"/>
<polygon fill="#63b8ff" stroke="#63b8ff" points="1457.44,-273.6 1448.18,-268.45 1452.2,-278.25 1457.44,-273.6"/>
</a>
</g>
</g>
<!-- Node4 -->
<g id="Node000004" class="node">
<title>Node4</title>
<g id="a_Node000004"><a xlink:title=" ">
<polygon fill="#e0e0e0" stroke="#999999" points="1796.32,-273.25 1638.57,-273.25 1638.57,-239.75 1796.32,-239.75 1796.32,-273.25"/>
<text xml:space="preserve" text-anchor="start" x="1646.57" y="-259.75" font-family="Helvetica,sans-Serif" font-size="10.00">EnvironmentQuery/EnvQuery</text>
<text xml:space="preserve" text-anchor="middle" x="1717.44" y="-247" font-family="Helvetica,sans-Serif" font-size="10.00">Generator.h</text>
</a>
</g>
</g>
<!-- Node2&#45;&gt;Node4 -->
<g id="edge3_Node000002_Node000004" class="edge">
<title>Node2&#45;&gt;Node4</title>
<g id="a_edge3_Node000002_Node000004"><a xlink:title=" ">
<path fill="none" stroke="#63b8ff" d="M1550.9,-308.83C1581.93,-299.27 1621.45,-287.08 1654.21,-276.99"/>
<polygon fill="#63b8ff" stroke="#63b8ff" points="1655.06,-280.39 1663.59,-274.1 1653,-273.7 1655.06,-280.39"/>
</a>
</g>
</g>
<!-- Node5 -->
<g id="Node000005" class="node">
<title>Node5</title>
<g id="a_Node000005"><a xlink:title=" ">
<polygon fill="#e0e0e0" stroke="#999999" points="1620.57,-273.25 1500.32,-273.25 1500.32,-239.75 1620.57,-239.75 1620.57,-273.25"/>
<text xml:space="preserve" text-anchor="start" x="1508.32" y="-259.75" font-family="Helvetica,sans-Serif" font-size="10.00">UTactixEQSGenerator</text>
<text xml:space="preserve" text-anchor="middle" x="1560.44" y="-247" font-family="Helvetica,sans-Serif" font-size="10.00">_Cover.generated.h</text>
</a>
</g>
</g>
<!-- Node2&#45;&gt;Node5 -->
<g id="edge4_Node000002_Node000005" class="edge">
<title>Node2&#45;&gt;Node5</title>
<g id="a_edge4_Node000002_Node000005"><a xlink:title=" ">
<path fill="none" stroke="#63b8ff" d="M1513.13,-309C1520.62,-300.85 1529.89,-290.76 1538.23,-281.68"/>
<polygon fill="#63b8ff" stroke="#63b8ff" points="1540.64,-284.23 1544.83,-274.5 1535.49,-279.49 1540.64,-284.23"/>
</a>
</g>
</g>
<!-- Node8&#45;&gt;Node3 -->
<g id="edge8_Node000008_Node000003" class="edge">
<title>Node8&#45;&gt;Node3</title>
<g id="a_edge8_Node000008_Node000003"><a xlink:title=" ">
<path fill="none" stroke="#63b8ff" d="M1261.54,-315.18C1297.41,-303.49 1357.52,-283.89 1397.58,-270.83"/>
<polygon fill="#63b8ff" stroke="#63b8ff" points="1398.44,-274.22 1406.87,-267.8 1396.27,-267.57 1398.44,-274.22"/>
</a>
</g>
</g>
<!-- Node9 -->
<g id="Node000009" class="node">
<title>Node9</title>
<g id="a_Node000009"><a xlink:title=" ">
<polygon fill="#e0e0e0" stroke="#999999" points="1376.94,-266.88 1207.94,-266.88 1207.94,-246.12 1376.94,-246.12 1376.94,-266.88"/>
<text xml:space="preserve" text-anchor="middle" x="1292.44" y="-253.38" font-family="Helvetica,sans-Serif" font-size="10.00">Subsystems/WorldSubsystem.h</text>
</a>
</g>
</g>
<!-- Node8&#45;&gt;Node9 -->
<g id="edge9_Node000008_Node000009" class="edge">
<title>Node8&#45;&gt;Node9</title>
<g id="a_edge9_Node000008_Node000009"><a xlink:title=" ">
<path fill="none" stroke="#63b8ff" d="M1240.18,-315.33C1249.51,-305 1264.51,-288.4 1276.05,-275.63"/>
<polygon fill="#63b8ff" stroke="#63b8ff" points="1278.59,-278.04 1282.7,-268.28 1273.4,-273.35 1278.59,-278.04"/>
</a>
</g>
</g>
<!-- Node10 -->
<g id="Node000010" class="node">
<title>Node10</title>
<g id="a_Node000010"><a xlink:href="FTactixCoverSystem_8h.html" target="_top" xlink:title="Registry of cover points with claim/release ownership and a &quot;best cover &#160;&#160;&#160;&#160;&#160;&#160;for this situation&quot; que...">
<polygon fill="white" stroke="#666666" points="618.19,-266.88 462.69,-266.88 462.69,-246.12 618.19,-246.12 618.19,-266.88"/>
<text xml:space="preserve" text-anchor="middle" x="540.44" y="-253.38" font-family="Helvetica,sans-Serif" font-size="10.00">Cover/FTactixCoverSystem.h</text>
</a>
</g>
</g>
<!-- Node8&#45;&gt;Node10 -->
<g id="edge10_Node000008_Node000010" class="edge">
<title>Node8&#45;&gt;Node10</title>
<g id="a_edge10_Node000008_Node000010"><a xlink:title=" ">
<path fill="none" stroke="#63b8ff" d="M1131.33,-315.22C996.63,-302.06 759.08,-278.86 630.01,-266.25"/>
<polygon fill="#63b8ff" stroke="#63b8ff" points="630.43,-262.77 620.13,-265.28 629.74,-269.74 630.43,-262.77"/>
</a>
</g>
</g>
<!-- Node23 -->
<g id="Node000023" class="node">
<title>Node23</title>
<g id="a_Node000023"><a xlink:href="FTactixInfluenceMap_8h.html" target="_top" xlink:title="Multi&#45;channel 2D scalar field for spatial reasoning (danger, control, resource, .....">
<polygon fill="white" stroke="#666666" points="890.82,-147 760.07,-147 760.07,-113.5 890.82,-113.5 890.82,-147"/>
<text xml:space="preserve" text-anchor="start" x="768.07" y="-133.5" font-family="Helvetica,sans-Serif" font-size="10.00">Spatial/FTactixInfluence</text>
<text xml:space="preserve" text-anchor="middle" x="825.44" y="-120.75" font-family="Helvetica,sans-Serif" font-size="10.00">Map.h</text>
</a>
</g>
</g>
<!-- Node8&#45;&gt;Node23 -->
<g id="edge38_Node000008_Node000023" class="edge">
<title>Node8&#45;&gt;Node23</title>
<g id="a_edge38_Node000008_Node000023"><a xlink:title=" ">
<path fill="none" stroke="#63b8ff" d="M1131.16,-315.84C1084.93,-308.67 1030.46,-295.93 985.44,-273.25 927.23,-243.93 873.63,-188.07 845.69,-155.84"/>
<polygon fill="#63b8ff" stroke="#63b8ff" points="848.64,-153.91 839.48,-148.57 843.31,-158.45 848.64,-153.91"/>
</a>
</g>
</g>
<!-- Node24 -->
<g id="Node000024" class="node">
<title>Node24</title>
<g id="a_Node000024"><a xlink:title=" ">
<polygon fill="#e0e0e0" stroke="#999999" points="1190.07,-266.88 994.82,-266.88 994.82,-246.12 1190.07,-246.12 1190.07,-266.88"/>
<text xml:space="preserve" text-anchor="middle" x="1092.44" y="-253.38" font-family="Helvetica,sans-Serif" font-size="10.00">UTactixWorldSubsystem.generated.h</text>
</a>
</g>
</g>
<!-- Node8&#45;&gt;Node24 -->
<g id="edge44_Node000008_Node000024" class="edge">
<title>Node8&#45;&gt;Node24</title>
<g id="a_edge44_Node000008_Node000024"><a xlink:title=" ">
<path fill="none" stroke="#63b8ff" d="M1211.23,-315.18C1187.96,-303.89 1149.52,-285.22 1122.69,-272.19"/>
<polygon fill="#63b8ff" stroke="#63b8ff" points="1124.56,-269.21 1114.04,-267.99 1121.5,-275.5 1124.56,-269.21"/>
</a>
</g>
</g>
<!-- Node11 -->
<g id="Node000011" class="node">
<title>Node11</title>
<g id="a_Node000011"><a xlink:href="TactixApi_8h.html" target="_top" xlink:title="Export macros, compiler attributes and version constants shared by every Tactix module.">
<polygon fill="white" stroke="#666666" points="207.07,-20.75 137.82,-20.75 137.82,0 207.07,0 207.07,-20.75"/>
<text xml:space="preserve" text-anchor="middle" x="172.44" y="-7.25" font-family="Helvetica,sans-Serif" font-size="10.00">TactixApi.h</text>
</a>
</g>
</g>
<!-- Node10&#45;&gt;Node11 -->
<g id="edge11_Node000010_Node000011" class="edge">
<title>Node10&#45;&gt;Node11</title>
<g id="a_edge11_Node000010_Node000011"><a xlink:title=" ">
<path fill="none" stroke="#63b8ff" d="M462.24,-252.69C326.86,-245.84 58.81,-222.78 12.44,-147 -8.78,-112.32 -0.66,-86.14 27.44,-56.75 53.09,-29.92 94.35,-18.88 126.32,-14.37"/>
<polygon fill="#63b8ff" stroke="#63b8ff" points="126.62,-17.86 136.12,-13.17 125.77,-10.91 126.62,-17.86"/>
</a>
</g>
</g>
<!-- Node12 -->
<g id="Node000012" class="node">
<title>Node12</title>
<g id="a_Node000012"><a xlink:href="FTactixCoverPoint_8h.html" target="_top" xlink:title="A single piece of cover: where to stand, which way it faces, and who currently owns it.">
<polygon fill="white" stroke="#666666" points="276.19,-203.75 132.69,-203.75 132.69,-183 276.19,-183 276.19,-203.75"/>
<text xml:space="preserve" text-anchor="middle" x="204.44" y="-190.25" font-family="Helvetica,sans-Serif" font-size="10.00">Cover/FTactixCoverPoint.h</text>
</a>
</g>
</g>
<!-- Node10&#45;&gt;Node12 -->
<g id="edge12_Node000010_Node000012" class="edge">
<title>Node10&#45;&gt;Node12</title>
<g id="a_edge12_Node000010_Node000012"><a xlink:title=" ">
<path fill="none" stroke="#63b8ff" d="M486.46,-245.68C427.39,-234.93 332.73,-217.71 269.59,-206.23"/>
<polygon fill="#63b8ff" stroke="#63b8ff" points="270.52,-202.84 260.06,-204.49 269.27,-209.73 270.52,-202.84"/>
</a>
</g>
</g>
<!-- Node13 -->
<g id="Node000013" class="node">
<title>Node13</title>
<g id="a_Node000013"><a xlink:href="TactixHandle_8h.html" target="_top" xlink:title="Type&#45;safe generational handle: the only sanctioned way to reference a pooled object across frames.">
<polygon fill="white" stroke="#666666" points="244.94,-77.5 99.94,-77.5 99.94,-56.75 244.94,-56.75 244.94,-77.5"/>
<text xml:space="preserve" text-anchor="middle" x="172.44" y="-64" font-family="Helvetica,sans-Serif" font-size="10.00">Foundation/TactixHandle.h</text>
</a>
</g>
</g>
<!-- Node10&#45;&gt;Node13 -->
<g id="edge34_Node000010_Node000013" class="edge">
<title>Node10&#45;&gt;Node13</title>
<g id="a_edge34_Node000010_Node000013"><a xlink:title=" ">
<path fill="none" stroke="#63b8ff" d="M521.17,-245.69C460.69,-214.89 274.3,-119.99 201.76,-83.05"/>
<polygon fill="#63b8ff" stroke="#63b8ff" points="203.37,-79.94 192.87,-78.52 200.19,-86.18 203.37,-79.94"/>
</a>
</g>
</g>
<!-- Node14 -->
<g id="Node000014" class="node">
<title>Node14</title>
<g id="a_Node000014"><a xlink:title=" ">
<polygon fill="#e0e0e0" stroke="#999999" points="576.94,-20.75 527.94,-20.75 527.94,0 576.94,0 576.94,-20.75"/>
<text xml:space="preserve" text-anchor="middle" x="552.44" y="-7.25" font-family="Helvetica,sans-Serif" font-size="10.00">cstdint</text>
</a>
</g>
</g>
<!-- Node10&#45;&gt;Node14 -->
<g id="edge37_Node000010_Node000014" class="edge">
<title>Node10&#45;&gt;Node14</title>
<g id="a_edge37_Node000010_Node000014"><a xlink:title=" ">
<path fill="none" stroke="#63b8ff" d="M603.09,-245.67C696.2,-229.63 863.98,-194.77 899.44,-147 980.66,-37.6 693.24,-16.41 588.88,-12.34"/>
<polygon fill="#63b8ff" stroke="#63b8ff" points="589.01,-8.84 578.9,-11.98 588.76,-15.83 589.01,-8.84"/>
</a>
</g>
</g>
<!-- Node15 -->
<g id="Node000015" class="node">
<title>Node15</title>
<g id="a_Node000015"><a xlink:href="TactixMath_8h.html" target="_top" xlink:title="Small, engine&#45;agnostic vector and scalar math used across Tactix.">
<polygon fill="white" stroke="#666666" points="786.07,-77.5 650.82,-77.5 650.82,-56.75 786.07,-56.75 786.07,-77.5"/>
<text xml:space="preserve" text-anchor="middle" x="718.44" y="-64" font-family="Helvetica,sans-Serif" font-size="10.00">Foundation/TactixMath.h</text>
</a>
</g>
</g>
<!-- Node10&#45;&gt;Node15 -->
<g id="edge35_Node000010_Node000015" class="edge">
<title>Node10&#45;&gt;Node15</title>
<g id="a_edge35_Node000010_Node000015"><a xlink:title=" ">
<path fill="none" stroke="#63b8ff" d="M549.76,-245.69C578.24,-215.71 664.4,-125.01 701.34,-86.13"/>
<polygon fill="#63b8ff" stroke="#63b8ff" points="703.82,-88.6 708.17,-78.94 698.75,-83.78 703.82,-88.6"/>
</a>
</g>
</g>
<!-- Node18 -->
<g id="Node000018" class="node">
<title>Node18</title>
<g id="a_Node000018"><a xlink:href="TactixPool_8h.html" target="_top" xlink:title="Fixed&#45;capacity pool allocator with per&#45;slot generation tracking.">
<polygon fill="white" stroke="#666666" points="513.19,-140.62 381.69,-140.62 381.69,-119.88 513.19,-119.88 513.19,-140.62"/>
<text xml:space="preserve" text-anchor="middle" x="447.44" y="-127.12" font-family="Helvetica,sans-Serif" font-size="10.00">Foundation/TactixPool.h</text>
</a>
</g>
</g>
<!-- Node10&#45;&gt;Node18 -->
<g id="edge26_Node000010_Node000018" class="edge">
<title>Node10&#45;&gt;Node18</title>
<g id="a_edge26_Node000010_Node000018"><a xlink:title=" ">
<path fill="none" stroke="#63b8ff" d="M533.14,-245.75C517.73,-225.15 481.62,-176.91 461.54,-150.09"/>
<polygon fill="#63b8ff" stroke="#63b8ff" points="464.41,-148.07 455.61,-142.17 458.8,-152.27 464.41,-148.07"/>
</a>
</g>
</g>
<!-- Node19 -->
<g id="Node000019" class="node">
<title>Node19</title>
<g id="a_Node000019"><a xlink:title=" ">
<polygon fill="#e0e0e0" stroke="#999999" points="632.44,-77.5 580.44,-77.5 580.44,-56.75 632.44,-56.75 632.44,-77.5"/>
<text xml:space="preserve" text-anchor="middle" x="606.44" y="-64" font-family="Helvetica,sans-Serif" font-size="10.00">cstddef</text>
</a>
</g>
</g>
<!-- Node10&#45;&gt;Node19 -->
<g id="edge36_Node000010_Node000019" class="edge">
<title>Node10&#45;&gt;Node19</title>
<g id="a_edge36_Node000010_Node000019"><a xlink:title=" ">
<path fill="none" stroke="#63b8ff" d="M543.9,-245.69C554.23,-216.35 585.07,-128.81 599.21,-88.66"/>
<polygon fill="#63b8ff" stroke="#63b8ff" points="602.5,-89.86 602.52,-79.27 595.89,-87.53 602.5,-89.86"/>
</a>
</g>
</g>
<!-- Node12&#45;&gt;Node11 -->
<g id="edge13_Node000012_Node000011" class="edge">
<title>Node12&#45;&gt;Node11</title>
<g id="a_edge13_Node000012_Node000011"><a xlink:title=" ">
<path fill="none" stroke="#63b8ff" d="M132.4,-182.83C89.72,-175.53 41.49,-163.84 28.44,-147 3.22,-114.45 20.31,-85.86 49.44,-56.75 70.06,-36.15 100.83,-24.81 126.43,-18.61"/>
<polygon fill="#63b8ff" stroke="#63b8ff" points="126.92,-22.09 135.93,-16.51 125.41,-15.25 126.92,-22.09"/>
</a>
</g>
</g>
<!-- Node12&#45;&gt;Node13 -->
<g id="edge14_Node000012_Node000013" class="edge">
<title>Node12&#45;&gt;Node13</title>
<g id="a_edge14_Node000012_Node000013"><a xlink:title=" ">
<path fill="none" stroke="#63b8ff" d="M201.93,-182.63C196.74,-162.48 184.74,-115.9 177.76,-88.76"/>
<polygon fill="#63b8ff" stroke="#63b8ff" points="181.2,-88.11 175.32,-79.3 174.42,-89.85 181.2,-88.11"/>
</a>
</g>
</g>
<!-- Node12&#45;&gt;Node14 -->
<g id="edge25_Node000012_Node000014" class="edge">
<title>Node12&#45;&gt;Node14</title>
<g id="a_edge25_Node000012_Node000014"><a xlink:title=" ">
<path fill="none" stroke="#63b8ff" d="M276.59,-191.35C359.23,-188.63 487.72,-179.17 522.44,-147 554.32,-117.45 556.18,-62.28 554.49,-32.21"/>
<polygon fill="#63b8ff" stroke="#63b8ff" points="558,-32.22 553.74,-22.52 551.02,-32.76 558,-32.22"/>
</a>
</g>
</g>
<!-- Node12&#45;&gt;Node15 -->
<g id="edge17_Node000012_Node000015" class="edge">
<title>Node12&#45;&gt;Node15</title>
<g id="a_edge17_Node000012_Node000015"><a xlink:title=" ">
<path fill="none" stroke="#63b8ff" d="M276.42,-190.8C350.63,-187.47 468.92,-177.35 566.44,-147 614.48,-132.05 665.42,-102.4 694.44,-84.02"/>
<polygon fill="#63b8ff" stroke="#63b8ff" points="696.31,-86.98 702.82,-78.62 692.52,-81.09 696.31,-86.98"/>
</a>
</g>
</g>
<!-- Node17 -->
<g id="Node000017" class="node">
<title>Node17</title>
<g id="a_Node000017"><a xlink:href="ITactixAgent_8h.html" target="_top" xlink:title="The engine&#45;agnostic contract a &quot;thinking&quot; entity implements to take part in Tactix systems.">
<polygon fill="white" stroke="#666666" points="153.69,-140.62 37.19,-140.62 37.19,-119.88 153.69,-119.88 153.69,-140.62"/>
<text xml:space="preserve" text-anchor="middle" x="95.44" y="-127.12" font-family="Helvetica,sans-Serif" font-size="10.00">Agent/ITactixAgent.h</text>
</a>
</g>
</g>
<!-- Node12&#45;&gt;Node17 -->
<g id="edge21_Node000012_Node000017" class="edge">
<title>Node12&#45;&gt;Node17</title>
<g id="a_edge21_Node000012_Node000017"><a xlink:title=" ">
<path fill="none" stroke="#63b8ff" d="M186.93,-182.55C169.61,-172.84 142.85,-157.83 122.74,-146.56"/>
<polygon fill="#63b8ff" stroke="#63b8ff" points="124.66,-143.63 114.23,-141.79 121.24,-149.73 124.66,-143.63"/>
</a>
</g>
</g>
<!-- Node13&#45;&gt;Node11 -->
<g id="edge15_Node000013_Node000011" class="edge">
<title>Node13&#45;&gt;Node11</title>
<g id="a_edge15_Node000013_Node000011"><a xlink:title=" ">
<path fill="none" stroke="#63b8ff" d="M172.44,-56.34C172.44,-49.72 172.44,-40.72 172.44,-32.52"/>
<polygon fill="#63b8ff" stroke="#63b8ff" points="175.94,-32.59 172.44,-22.59 168.94,-32.59 175.94,-32.59"/>
</a>
</g>
</g>
<!-- Node13&#45;&gt;Node14 -->
<g id="edge16_Node000013_Node000014" class="edge">
<title>Node13&#45;&gt;Node14</title>
<g id="a_edge16_Node000013_Node000014"><a xlink:title=" ">
<path fill="none" stroke="#63b8ff" d="M240.82,-56.27C321.72,-44.62 453.37,-25.65 516.48,-16.56"/>
<polygon fill="#63b8ff" stroke="#63b8ff" points="516.9,-20.03 526.29,-15.14 515.9,-13.1 516.9,-20.03"/>
</a>
</g>
</g>
<!-- Node15&#45;&gt;Node11 -->
<g id="edge18_Node000015_Node000011" class="edge">
<title>Node15&#45;&gt;Node11</title>
<g id="a_edge18_Node000015_Node000011"><a xlink:title=" ">
<path fill="none" stroke="#63b8ff" d="M650.43,-57.75C647.39,-57.41 644.39,-57.07 641.44,-56.75 486.85,-39.86 303.22,-23.03 218.94,-15.49"/>
<polygon fill="#63b8ff" stroke="#63b8ff" points="219.26,-12 208.99,-14.6 218.63,-18.98 219.26,-12"/>
</a>
</g>
</g>
<!-- Node15&#45;&gt;Node14 -->
<g id="edge20_Node000015_Node000014" class="edge">
<title>Node15&#45;&gt;Node14</title>
<g id="a_edge20_Node000015_Node000014"><a xlink:title=" ">
<path fill="none" stroke="#63b8ff" d="M688.76,-56.34C660.56,-47.04 618.13,-33.04 588.1,-23.14"/>
<polygon fill="#63b8ff" stroke="#63b8ff" points="589.29,-19.84 578.7,-20.04 587.1,-26.49 589.29,-19.84"/>
</a>
</g>
</g>
<!-- Node16 -->
<g id="Node000016" class="node">
<title>Node16</title>
<g id="a_Node000016"><a xlink:title=" ">
<polygon fill="#e0e0e0" stroke="#999999" points="827.82,-20.75 781.07,-20.75 781.07,0 827.82,0 827.82,-20.75"/>
<text xml:space="preserve" text-anchor="middle" x="804.44" y="-7.25" font-family="Helvetica,sans-Serif" font-size="10.00">cmath</text>
</a>
</g>
</g>
<!-- Node15&#45;&gt;Node16 -->
<g id="edge19_Node000015_Node000016" class="edge">
<title>Node15&#45;&gt;Node16</title>
<g id="a_edge19_Node000015_Node000016"><a xlink:title=" ">
<path fill="none" stroke="#63b8ff" d="M733.82,-56.34C746.53,-48.24 764.84,-36.58 779.63,-27.17"/>
<polygon fill="#63b8ff" stroke="#63b8ff" points="781.37,-30.21 787.92,-21.89 777.61,-24.31 781.37,-30.21"/>
</a>
</g>
</g>
<!-- Node17&#45;&gt;Node11 -->
<g id="edge22_Node000017_Node000011" class="edge">
<title>Node17&#45;&gt;Node11</title>
<g id="a_edge22_Node000017_Node000011"><a xlink:title=" ">
<path fill="none" stroke="#63b8ff" d="M83.58,-119.47C67.68,-105.15 43.05,-77.9 57.44,-56.75 72.89,-34.05 101.61,-22.71 126.48,-17.04"/>
<polygon fill="#63b8ff" stroke="#63b8ff" points="126.98,-20.51 136.09,-15.11 125.6,-13.65 126.98,-20.51"/>
</a>
</g>
</g>
<!-- Node17&#45;&gt;Node13 -->
<g id="edge23_Node000017_Node000013" class="edge">
<title>Node17&#45;&gt;Node13</title>
<g id="a_edge23_Node000017_Node000013"><a xlink:title=" ">
<path fill="none" stroke="#63b8ff" d="M107.81,-119.43C119.49,-110.16 137.23,-96.08 151.17,-85.01"/>
<polygon fill="#63b8ff" stroke="#63b8ff" points="153.26,-87.82 158.91,-78.86 148.91,-82.34 153.26,-87.82"/>
</a>
</g>
</g>
<!-- Node17&#45;&gt;Node14 -->
<g id="edge24_Node000017_Node000014" class="edge">
<title>Node17&#45;&gt;Node14</title>
<g id="a_edge24_Node000017_Node000014"><a xlink:title=" ">
<path fill="none" stroke="#63b8ff" d="M90.99,-119.85C84.46,-104.53 74.68,-74.14 90.44,-56.75 118.88,-25.38 412.04,-14.93 516.07,-12.2"/>
<polygon fill="#63b8ff" stroke="#63b8ff" points="516.09,-15.7 526,-11.95 515.91,-8.7 516.09,-15.7"/>
</a>
</g>
</g>
<!-- Node18&#45;&gt;Node11 -->
<g id="edge27_Node000018_Node000011" class="edge">
<title>Node18&#45;&gt;Node11</title>
<g id="a_edge27_Node000018_Node000011"><a xlink:title=" ">
<path fill="none" stroke="#63b8ff" d="M411.98,-119.41C380.11,-110.1 332.33,-94.98 292.44,-77.5 290.06,-76.46 234.92,-45.97 200.22,-26.76"/>
<polygon fill="#63b8ff" stroke="#63b8ff" points="201.96,-23.72 191.51,-21.94 198.57,-29.85 201.96,-23.72"/>
</a>
</g>
</g>
<!-- Node18&#45;&gt;Node13 -->
<g id="edge28_Node000018_Node000013" class="edge">
<title>Node18&#45;&gt;Node13</title>
<g id="a_edge28_Node000018_Node000013"><a xlink:title=" ">
<path fill="none" stroke="#63b8ff" d="M403.26,-119.43C355.45,-108.8 279.14,-91.84 227.47,-80.36"/>
<polygon fill="#63b8ff" stroke="#63b8ff" points="228.51,-77 217.99,-78.25 226.99,-83.84 228.51,-77"/>
</a>
</g>
</g>
<!-- Node18&#45;&gt;Node14 -->
<g id="edge30_Node000018_Node000014" class="edge">
<title>Node18&#45;&gt;Node14</title>
<g id="a_edge30_Node000018_Node000014"><a xlink:title=" ">
<path fill="none" stroke="#63b8ff" d="M456.75,-119.43C466.5,-109.09 482.21,-92.3 495.44,-77.5 509.75,-61.5 525.67,-42.96 537.04,-29.6"/>
<polygon fill="#63b8ff" stroke="#63b8ff" points="539.65,-31.93 543.45,-22.04 534.31,-27.4 539.65,-31.93"/>
</a>
</g>
</g>
<!-- Node18&#45;&gt;Node19 -->
<g id="edge29_Node000018_Node000019" class="edge">
<title>Node18&#45;&gt;Node19</title>
<g id="a_edge29_Node000018_Node000019"><a xlink:title=" ">
<path fill="none" stroke="#63b8ff" d="M472.99,-119.43C499.41,-109.27 540.9,-93.32 570.6,-81.9"/>
<polygon fill="#63b8ff" stroke="#63b8ff" points="571.47,-85.32 579.55,-78.46 568.96,-78.79 571.47,-85.32"/>
</a>
</g>
</g>
<!-- Node20 -->
<g id="Node000020" class="node">
<title>Node20</title>
<g id="a_Node000020"><a xlink:title=" ">
<polygon fill="#e0e0e0" stroke="#999999" points="337.57,-77.5 301.32,-77.5 301.32,-56.75 337.57,-56.75 337.57,-77.5"/>
<text xml:space="preserve" text-anchor="middle" x="319.44" y="-64" font-family="Helvetica,sans-Serif" font-size="10.00">new</text>
</a>
</g>
</g>
<!-- Node18&#45;&gt;Node20 -->
<g id="edge31_Node000018_Node000020" class="edge">
<title>Node18&#45;&gt;Node20</title>
<g id="a_edge31_Node000018_Node000020"><a xlink:title=" ">
<path fill="none" stroke="#63b8ff" d="M426.88,-119.43C405.55,-109.24 372.04,-93.24 348.12,-81.82"/>
<polygon fill="#63b8ff" stroke="#63b8ff" points="349.78,-78.73 339.24,-77.58 346.76,-85.05 349.78,-78.73"/>
</a>
</g>
</g>
<!-- Node21 -->
<g id="Node000021" class="node">
<title>Node21</title>
<g id="a_Node000021"><a xlink:title=" ">
<polygon fill="#e0e0e0" stroke="#999999" points="399.69,-77.5 355.19,-77.5 355.19,-56.75 399.69,-56.75 399.69,-77.5"/>
<text xml:space="preserve" text-anchor="middle" x="377.44" y="-64" font-family="Helvetica,sans-Serif" font-size="10.00">utility</text>
</a>
</g>
</g>
<!-- Node18&#45;&gt;Node21 -->
<g id="edge32_Node000018_Node000021" class="edge">
<title>Node18&#45;&gt;Node21</title>
<g id="a_edge32_Node000018_Node000021"><a xlink:title=" ">
<path fill="none" stroke="#63b8ff" d="M436.19,-119.43C425.62,-110.2 409.57,-96.18 396.92,-85.13"/>
<polygon fill="#63b8ff" stroke="#63b8ff" points="399.4,-82.66 389.57,-78.72 394.8,-87.93 399.4,-82.66"/>
</a>
</g>
</g>
<!-- Node22 -->
<g id="Node000022" class="node">
<title>Node22</title>
<g id="a_Node000022"><a xlink:title=" ">
<polygon fill="#e0e0e0" stroke="#999999" points="486.69,-77.5 418.19,-77.5 418.19,-56.75 486.69,-56.75 486.69,-77.5"/>
<text xml:space="preserve" text-anchor="middle" x="452.44" y="-64" font-family="Helvetica,sans-Serif" font-size="10.00">type_traits</text>
</a>
</g>
</g>
<!-- Node18&#45;&gt;Node22 -->
<g id="edge33_Node000018_Node000022" class="edge">
<title>Node18&#45;&gt;Node22</title>
<g id="a_edge33_Node000018_Node000022"><a xlink:title=" ">
<path fill="none" stroke="#63b8ff" d="M448.24,-119.43C448.91,-111.27 449.88,-99.38 450.72,-89.1"/>
<polygon fill="#63b8ff" stroke="#63b8ff" points="454.21,-89.48 451.53,-79.23 447.23,-88.91 454.21,-89.48"/>
</a>
</g>
</g>
<!-- Node23&#45;&gt;Node11 -->
<g id="edge39_Node000023_Node000011" class="edge">
<title>Node23&#45;&gt;Node11</title>
<g id="a_edge39_Node000023_Node000011"><a xlink:title=" ">
<path fill="none" stroke="#63b8ff" d="M823.67,-113.27C820.86,-96.22 813.66,-69.91 795.44,-56.75 748.99,-23.2 354.64,-14.12 218.46,-11.97"/>
<polygon fill="#63b8ff" stroke="#63b8ff" points="218.8,-8.48 208.74,-11.83 218.69,-15.48 218.8,-8.48"/>
</a>
</g>
</g>
<!-- Node23&#45;&gt;Node14 -->
<g id="edge43_Node000023_Node000014" class="edge">
<title>Node23&#45;&gt;Node14</title>
<g id="a_edge43_Node000023_Node000014"><a xlink:title=" ">
<path fill="none" stroke="#63b8ff" d="M831.8,-113.1C837,-96.9 841.57,-72.21 828.44,-56.75 798.05,-20.96 656.07,-13.35 588.44,-11.77"/>
<polygon fill="#63b8ff" stroke="#63b8ff" points="588.68,-8.27 578.62,-11.57 588.54,-15.27 588.68,-8.27"/>
</a>
</g>
</g>
<!-- Node23&#45;&gt;Node15 -->
<g id="edge40_Node000023_Node000015" class="edge">
<title>Node23&#45;&gt;Node15</title>
<g id="a_edge40_Node000023_Node000015"><a xlink:title=" ">
<path fill="none" stroke="#63b8ff" d="M797.05,-113.03C781,-103.86 761.05,-92.47 745.27,-83.45"/>
<polygon fill="#63b8ff" stroke="#63b8ff" points="747.31,-80.59 736.89,-78.67 743.84,-86.67 747.31,-80.59"/>
</a>
</g>
</g>
<!-- Node23&#45;&gt;Node16 -->
<g id="edge41_Node000023_Node000016" class="edge">
<title>Node23&#45;&gt;Node16</title>
<g id="a_edge41_Node000023_Node000016"><a xlink:title=" ">
<path fill="none" stroke="#63b8ff" d="M844.87,-113.07C859.85,-98.52 876.45,-76.48 866.44,-56.75 860.05,-44.15 848.32,-34.2 836.78,-26.88"/>
<polygon fill="#63b8ff" stroke="#63b8ff" points="838.53,-23.85 828.13,-21.87 835.03,-29.91 838.53,-23.85"/>
</a>
</g>
</g>
<!-- Node23&#45;&gt;Node19 -->
<g id="edge42_Node000023_Node000019" class="edge">
<title>Node23&#45;&gt;Node19</title>
<g id="a_edge42_Node000023_Node000019"><a xlink:title=" ">
<path fill="none" stroke="#63b8ff" d="M767.33,-113.03C728.05,-102.07 677.36,-87.92 643.48,-78.46"/>
<polygon fill="#63b8ff" stroke="#63b8ff" points="644.7,-75.17 634.13,-75.85 642.82,-81.91 644.7,-75.17"/>
</a>
</g>
</g>
</g>
</svg>
