<?xml version="1.0" encoding="UTF-8" standalone="no"?>
<!DOCTYPE svg PUBLIC "-//W3C//DTD SVG 1.1//EN"
 "http://www.w3.org/Graphics/SVG/1.1/DTD/svg11.dtd">
<!-- Generated by graphviz version 14.1.5 (0)
 -->
<!-- Title: Source/TactixUE/Private/Subsystem/UTactixWorldSubsystem.cpp Pages: 1 -->
<svg width="1103pt" height="395pt"
 viewBox="0.00 0.00 1103.00 395.00" xmlns="http://www.w3.org/2000/svg" xmlns:xlink="http://www.w3.org/1999/xlink">
<g id="graph0" class="graph" transform="scale(1 1) rotate(0) translate(4 390.75)">
<title>Source/TactixUE/Private/Subsystem/UTactixWorldSubsystem.cpp</title>
<!-- Node1 -->
<g id="Node000001" class="node">
<title>Node1</title>
<g id="a_Node000001"><a xlink:title="Implements the world subsystem: the soft cover&#45;reservation layer.">
<polygon fill="#999999" stroke="#666666" points="885.78,-386.75 671.78,-386.75 671.78,-353.25 885.78,-353.25 885.78,-386.75"/>
<text xml:space="preserve" text-anchor="start" x="679.78" y="-373.25" font-family="Helvetica,sans-Serif" font-size="10.00">Source/TactixUE/Private</text>
<text xml:space="preserve" text-anchor="middle" x="778.78" y="-360.5" font-family="Helvetica,sans-Serif" font-size="10.00">/Subsystem/UTactixWorldSubsystem.cpp</text>
</a>
</g>
</g>
<!-- Node2 -->
<g id="Node000002" class="node">
<title>Node2</title>
<g id="a_Node000002"><a xlink:href="UTactixWorldSubsystem_8h.html" target="_top" xlink:title="Per&#45;world owner of the cover system and influence map shared by every agent in the level.">
<polygon fill="white" stroke="#666666" points="716.66,-317.25 516.91,-317.25 516.91,-296.5 716.66,-296.5 716.66,-317.25"/>
<text xml:space="preserve" text-anchor="middle" x="616.78" y="-303.75" font-family="Helvetica,sans-Serif" font-size="10.00">Subsystem/UTactixWorldSubsystem.h</text>
</a>
</g>
</g>
<!-- Node1&#45;&gt;Node2 -->
<g id="edge1_Node000001_Node000002" class="edge">
<title>Node1&#45;&gt;Node2</title>
<g id="a_edge1_Node000001_Node000002"><a xlink:title=" ">
<path fill="none" stroke="#63b8ff" d="M735.79,-352.78C710.11,-343.09 677.82,-330.91 653.36,-321.68"/>
<polygon fill="#63b8ff" stroke="#63b8ff" points="654.74,-318.46 644.14,-318.2 652.26,-325 654.74,-318.46"/>
</a>
</g>
</g>
<!-- Node20 -->
<g id="Node000020" class="node">
<title>Node20</title>
<g id="a_Node000020"><a xlink:title=" ">
<polygon fill="#e0e0e0" stroke="#999999" points="823.16,-317.25 734.41,-317.25 734.41,-296.5 823.16,-296.5 823.16,-317.25"/>
<text xml:space="preserve" text-anchor="middle" x="778.78" y="-303.75" font-family="Helvetica,sans-Serif" font-size="10.00">Engine/World.h</text>
</a>
</g>
</g>
<!-- Node1&#45;&gt;Node20 -->
<g id="edge39_Node000001_Node000020" class="edge">
<title>Node1&#45;&gt;Node20</title>
<g id="a_edge39_Node000001_Node000020"><a xlink:title=" ">
<path fill="none" stroke="#63b8ff" d="M778.78,-352.94C778.78,-345.6 778.78,-336.82 778.78,-328.96"/>
<polygon fill="#63b8ff" stroke="#63b8ff" points="782.28,-329.23 778.78,-319.23 775.28,-329.23 782.28,-329.23"/>
</a>
</g>
</g>
<!-- Node21 -->
<g id="Node000021" class="node">
<title>Node21</title>
<g id="a_Node000021"><a xlink:title=" ">
<polygon fill="#e0e0e0" stroke="#999999" points="978.16,-317.25 841.41,-317.25 841.41,-296.5 978.16,-296.5 978.16,-317.25"/>
<text xml:space="preserve" text-anchor="middle" x="909.78" y="-303.75" font-family="Helvetica,sans-Serif" font-size="10.00">GameFramework/Actor.h</text>
</a>
</g>
</g>
<!-- Node1&#45;&gt;Node21 -->
<g id="edge40_Node000001_Node000021" class="edge">
<title>Node1&#45;&gt;Node21</title>
<g id="a_edge40_Node000001_Node000021"><a xlink:title=" ">
<path fill="none" stroke="#63b8ff" d="M813.54,-352.78C833.75,-343.35 859.01,-331.56 878.58,-322.43"/>
<polygon fill="#63b8ff" stroke="#63b8ff" points="879.85,-325.71 887.43,-318.31 876.89,-319.36 879.85,-325.71"/>
</a>
</g>
</g>
<!-- Node3 -->
<g id="Node000003" class="node">
<title>Node3</title>
<g id="a_Node000003"><a xlink:title=" ">
<polygon fill="#e0e0e0" stroke="#999999" points="334.41,-260.5 247.16,-260.5 247.16,-239.75 334.41,-239.75 334.41,-260.5"/>
<text xml:space="preserve" text-anchor="middle" x="290.78" y="-247" font-family="Helvetica,sans-Serif" font-size="10.00">CoreMinimal.h</text>
</a>
</g>
</g>
<!-- Node2&#45;&gt;Node3 -->
<g id="edge2_Node000002_Node000003" class="edge">
<title>Node2&#45;&gt;Node3</title>
<g id="a_edge2_Node000002_Node000003"><a xlink:title=" ">
<path fill="none" stroke="#63b8ff" d="M556.3,-296.01C503.44,-287.34 424.33,-274.27 345.81,-260.83"/>
<polygon fill="#63b8ff" stroke="#63b8ff" points="346.67,-257.43 336.23,-259.19 345.49,-264.33 346.67,-257.43"/>
</a>
</g>
</g>
<!-- Node4 -->
<g id="Node000004" class="node">
<title>Node4</title>
<g id="a_Node000004"><a xlink:title=" ">
<polygon fill="#e0e0e0" stroke="#999999" points="521.28,-260.5 352.28,-260.5 352.28,-239.75 521.28,-239.75 521.28,-260.5"/>
<text xml:space="preserve" text-anchor="middle" x="436.78" y="-247" font-family="Helvetica,sans-Serif" font-size="10.00">Subsystems/WorldSubsystem.h</text>
</a>
</g>
</g>
<!-- Node2&#45;&gt;Node4 -->
<g id="edge3_Node000002_Node000004" class="edge">
<title>Node2&#45;&gt;Node4</title>
<g id="a_edge3_Node000002_Node000004"><a xlink:title=" ">
<path fill="none" stroke="#63b8ff" d="M584.6,-296.09C555.38,-287.2 512.07,-274.02 479.87,-264.23"/>
<polygon fill="#63b8ff" stroke="#63b8ff" points="481.02,-260.92 470.43,-261.36 478.98,-267.62 481.02,-260.92"/>
</a>
</g>
</g>
<!-- Node5 -->
<g id="Node000005" class="node">
<title>Node5</title>
<g id="a_Node000005"><a xlink:href="FTactixCoverSystem_8h.html" target="_top" xlink:title="Registry of cover points with claim/release ownership and a &quot;best cover &#160;&#160;&#160;&#160;&#160;&#160;for this situation&quot; que...">
<polygon fill="white" stroke="#666666" points="694.53,-260.5 539.03,-260.5 539.03,-239.75 694.53,-239.75 694.53,-260.5"/>
<text xml:space="preserve" text-anchor="middle" x="616.78" y="-247" font-family="Helvetica,sans-Serif" font-size="10.00">Cover/FTactixCoverSystem.h</text>
</a>
</g>
</g>
<!-- Node2&#45;&gt;Node5 -->
<g id="edge4_Node000002_Node000005" class="edge">
<title>Node2&#45;&gt;Node5</title>
<g id="a_edge4_Node000002_Node000005"><a xlink:title=" ">
<path fill="none" stroke="#63b8ff" d="M616.78,-296.09C616.78,-289.47 616.78,-280.47 616.78,-272.27"/>
<polygon fill="#63b8ff" stroke="#63b8ff" points="620.28,-272.34 616.78,-262.34 613.28,-272.34 620.28,-272.34"/>
</a>
</g>
</g>
<!-- Node18 -->
<g id="Node000018" class="node">
<title>Node18</title>
<g id="a_Node000018"><a xlink:href="FTactixInfluenceMap_8h.html" target="_top" xlink:title="Multi&#45;channel 2D scalar field for spatial reasoning (danger, control, resource, .....">
<polygon fill="white" stroke="#666666" points="852.16,-147 721.41,-147 721.41,-113.5 852.16,-113.5 852.16,-147"/>
<text xml:space="preserve" text-anchor="start" x="729.41" y="-133.5" font-family="Helvetica,sans-Serif" font-size="10.00">Spatial/FTactixInfluence</text>
<text xml:space="preserve" text-anchor="middle" x="786.78" y="-120.75" font-family="Helvetica,sans-Serif" font-size="10.00">Map.h</text>
</a>
</g>
</g>
<!-- Node2&#45;&gt;Node18 -->
<g id="edge32_Node000002_Node000018" class="edge">
<title>Node2&#45;&gt;Node18</title>
<g id="a_edge32_Node000002_Node000018"><a xlink:title=" ">
<path fill="none" stroke="#63b8ff" d="M643.73,-296.11C662.15,-288.48 686.3,-276.47 703.78,-260.5 736.11,-230.96 761.11,-186.14 774.89,-157.79"/>
<polygon fill="#63b8ff" stroke="#63b8ff" points="778.02,-159.36 779.12,-148.82 771.69,-156.37 778.02,-159.36"/>
</a>
</g>
</g>
<!-- Node19 -->
<g id="Node000019" class="node">
<title>Node19</title>
<g id="a_Node000019"><a xlink:title=" ">
<polygon fill="#e0e0e0" stroke="#999999" points="1095.41,-260.5 900.16,-260.5 900.16,-239.75 1095.41,-239.75 1095.41,-260.5"/>
<text xml:space="preserve" text-anchor="middle" x="997.78" y="-247" font-family="Helvetica,sans-Serif" font-size="10.00">UTactixWorldSubsystem.generated.h</text>
</a>
</g>
</g>
<!-- Node2&#45;&gt;Node19 -->
<g id="edge38_Node000002_Node000019" class="edge">
<title>Node2&#45;&gt;Node19</title>
<g id="a_edge38_Node000002_Node000019"><a xlink:title=" ">
<path fill="none" stroke="#63b8ff" d="M685.34,-296.02C750.68,-286.63 849.06,-272.5 917.92,-262.6"/>
<polygon fill="#63b8ff" stroke="#63b8ff" points="918.24,-266.09 927.64,-261.2 917.24,-259.16 918.24,-266.09"/>
</a>
</g>
</g>
<!-- Node6 -->
<g id="Node000006" class="node">
<title>Node6</title>
<g id="a_Node000006"><a xlink:href="TactixApi_8h.html" target="_top" xlink:title="Export macros, compiler attributes and version constants shared by every Tactix module.">
<polygon fill="white" stroke="#666666" points="597.41,-20.75 528.16,-20.75 528.16,0 597.41,0 597.41,-20.75"/>
<text xml:space="preserve" text-anchor="middle" x="562.78" y="-7.25" font-family="Helvetica,sans-Serif" font-size="10.00">TactixApi.h</text>
</a>
</g>
</g>
<!-- Node5&#45;&gt;Node6 -->
<g id="edge5_Node000005_Node000006" class="edge">
<title>Node5&#45;&gt;Node6</title>
<g id="a_edge5_Node000005_Node000006"><a xlink:title=" ">
<path fill="none" stroke="#63b8ff" d="M694.69,-239.26C751.27,-227.57 824.08,-202.15 860.78,-147 883,-113.61 886.92,-87.17 860.78,-56.75 828.93,-19.69 684.95,-12.55 609.4,-11.4"/>
<polygon fill="#63b8ff" stroke="#63b8ff" points="609.44,-7.9 599.4,-11.28 609.36,-14.9 609.44,-7.9"/>
</a>
</g>
</g>
<!-- Node7 -->
<g id="Node000007" class="node">
<title>Node7</title>
<g id="a_Node000007"><a xlink:href="FTactixCoverPoint_8h.html" target="_top" xlink:title="A single piece of cover: where to stand, which way it faces, and who currently owns it.">
<polygon fill="white" stroke="#666666" points="355.53,-203.75 212.03,-203.75 212.03,-183 355.53,-183 355.53,-203.75"/>
<text xml:space="preserve" text-anchor="middle" x="283.78" y="-190.25" font-family="Helvetica,sans-Serif" font-size="10.00">Cover/FTactixCoverPoint.h</text>
</a>
</g>
</g>
<!-- Node5&#45;&gt;Node7 -->
<g id="edge6_Node000005_Node000007" class="edge">
<title>Node5&#45;&gt;Node7</title>
<g id="a_edge6_Node000005_Node000007"><a xlink:title=" ">
<path fill="none" stroke="#63b8ff" d="M556.86,-239.27C500.22,-229.96 415.18,-215.98 355.08,-206.1"/>
<polygon fill="#63b8ff" stroke="#63b8ff" points="355.71,-202.65 345.27,-204.49 354.57,-209.56 355.71,-202.65"/>
</a>
</g>
</g>
<!-- Node8 -->
<g id="Node000008" class="node">
<title>Node8</title>
<g id="a_Node000008"><a xlink:href="TactixHandle_8h.html" target="_top" xlink:title="Type&#45;safe generational handle: the only sanctioned way to reference a pooled object across frames.">
<polygon fill="white" stroke="#666666" points="255.28,-77.5 110.28,-77.5 110.28,-56.75 255.28,-56.75 255.28,-77.5"/>
<text xml:space="preserve" text-anchor="middle" x="182.78" y="-64" font-family="Helvetica,sans-Serif" font-size="10.00">Foundation/TactixHandle.h</text>
</a>
</g>
</g>
<!-- Node5&#45;&gt;Node8 -->
<g id="edge28_Node000005_Node000008" class="edge">
<title>Node5&#45;&gt;Node8</title>
<g id="a_edge28_Node000005_Node000008"><a xlink:title=" ">
<path fill="none" stroke="#63b8ff" d="M538.95,-240.63C419.09,-227.55 202.97,-203.93 202.78,-203.75 171.89,-173.98 174.58,-118.9 178.88,-88.9"/>
<polygon fill="#63b8ff" stroke="#63b8ff" points="182.3,-89.66 180.48,-79.23 175.4,-88.52 182.3,-89.66"/>
</a>
</g>
</g>
<!-- Node9 -->
<g id="Node000009" class="node">
<title>Node9</title>
<g id="a_Node000009"><a xlink:title=" ">
<polygon fill="#e0e0e0" stroke="#999999" points="207.28,-20.75 158.28,-20.75 158.28,0 207.28,0 207.28,-20.75"/>
<text xml:space="preserve" text-anchor="middle" x="182.78" y="-7.25" font-family="Helvetica,sans-Serif" font-size="10.00">cstdint</text>
</a>
</g>
</g>
<!-- Node5&#45;&gt;Node9 -->
<g id="edge31_Node000005_Node000009" class="edge">
<title>Node5&#45;&gt;Node9</title>
<g id="a_edge31_Node000005_Node000009"><a xlink:title=" ">
<path fill="none" stroke="#63b8ff" d="M538.97,-240.63C536.2,-240.33 533.47,-240.04 530.78,-239.75 414.5,-227.36 81.3,-241.76 12.78,-147 -11.29,-113.71 3.08,-85.14 32.78,-56.75 63.66,-27.24 113.07,-16.86 146.68,-13.24"/>
<polygon fill="#63b8ff" stroke="#63b8ff" points="146.7,-16.76 156.34,-12.36 146.07,-9.78 146.7,-16.76"/>
</a>
</g>
</g>
<!-- Node10 -->
<g id="Node000010" class="node">
<title>Node10</title>
<g id="a_Node000010"><a xlink:href="TactixMath_8h.html" target="_top" xlink:title="Small, engine&#45;agnostic vector and scalar math used across Tactix.">
<polygon fill="white" stroke="#666666" points="834.41,-77.5 699.16,-77.5 699.16,-56.75 834.41,-56.75 834.41,-77.5"/>
<text xml:space="preserve" text-anchor="middle" x="766.78" y="-64" font-family="Helvetica,sans-Serif" font-size="10.00">Foundation/TactixMath.h</text>
</a>
</g>
</g>
<!-- Node5&#45;&gt;Node10 -->
<g id="edge29_Node000005_Node000010" class="edge">
<title>Node5&#45;&gt;Node10</title>
<g id="a_edge29_Node000005_Node000010"><a xlink:title=" ">
<path fill="none" stroke="#63b8ff" d="M622.53,-239.29C636.36,-216.03 673.32,-156.38 712.78,-113.5 722.43,-103.01 734.47,-92.69 744.73,-84.54"/>
<polygon fill="#63b8ff" stroke="#63b8ff" points="746.56,-87.54 752.33,-78.65 742.28,-82 746.56,-87.54"/>
</a>
</g>
</g>
<!-- Node13 -->
<g id="Node000013" class="node">
<title>Node13</title>
<g id="a_Node000013"><a xlink:href="TactixPool_8h.html" target="_top" xlink:title="Fixed&#45;capacity pool allocator with per&#45;slot generation tracking.">
<polygon fill="white" stroke="#666666" points="506.53,-140.62 375.03,-140.62 375.03,-119.88 506.53,-119.88 506.53,-140.62"/>
<text xml:space="preserve" text-anchor="middle" x="440.78" y="-127.12" font-family="Helvetica,sans-Serif" font-size="10.00">Foundation/TactixPool.h</text>
</a>
</g>
</g>
<!-- Node5&#45;&gt;Node13 -->
<g id="edge20_Node000005_Node000013" class="edge">
<title>Node5&#45;&gt;Node13</title>
<g id="a_edge20_Node000005_Node000013"><a xlink:title=" ">
<path fill="none" stroke="#63b8ff" d="M602.08,-239.28C571.72,-218.95 501.86,-172.16 464.83,-147.36"/>
<polygon fill="#63b8ff" stroke="#63b8ff" points="466.83,-144.49 456.58,-141.83 462.94,-150.3 466.83,-144.49"/>
</a>
</g>
</g>
<!-- Node14 -->
<g id="Node000014" class="node">
<title>Node14</title>
<g id="a_Node000014"><a xlink:title=" ">
<polygon fill="#e0e0e0" stroke="#999999" points="642.78,-77.5 590.78,-77.5 590.78,-56.75 642.78,-56.75 642.78,-77.5"/>
<text xml:space="preserve" text-anchor="middle" x="616.78" y="-64" font-family="Helvetica,sans-Serif" font-size="10.00">cstddef</text>
</a>
</g>
</g>
<!-- Node5&#45;&gt;Node14 -->
<g id="edge30_Node000005_Node000014" class="edge">
<title>Node5&#45;&gt;Node14</title>
<g id="a_edge30_Node000005_Node000014"><a xlink:title=" ">
<path fill="none" stroke="#63b8ff" d="M616.78,-239.39C616.78,-211.1 616.78,-128.37 616.78,-89.18"/>
<polygon fill="#63b8ff" stroke="#63b8ff" points="620.28,-89.42 616.78,-79.42 613.28,-89.42 620.28,-89.42"/>
</a>
</g>
</g>
<!-- Node7&#45;&gt;Node6 -->
<g id="edge7_Node000007_Node000006" class="edge">
<title>Node7&#45;&gt;Node6</title>
<g id="a_edge7_Node000007_Node000006"><a xlink:title=" ">
<path fill="none" stroke="#63b8ff" d="M284.8,-182.69C287.99,-157.61 300.11,-90.13 340.78,-56.75 367.17,-35.09 459.8,-21.95 516.74,-15.72"/>
<polygon fill="#63b8ff" stroke="#63b8ff" points="516.88,-19.23 526.46,-14.7 516.14,-12.27 516.88,-19.23"/>
</a>
</g>
</g>
<!-- Node7&#45;&gt;Node8 -->
<g id="edge8_Node000007_Node000008" class="edge">
<title>Node7&#45;&gt;Node8</title>
<g id="a_edge8_Node000007_Node000008"><a xlink:title=" ">
<path fill="none" stroke="#63b8ff" d="M275.86,-182.63C259.04,-161.94 219.55,-113.36 197.8,-86.61"/>
<polygon fill="#63b8ff" stroke="#63b8ff" points="200.65,-84.56 191.62,-79 195.22,-88.97 200.65,-84.56"/>
</a>
</g>
</g>
<!-- Node7&#45;&gt;Node9 -->
<g id="edge19_Node000007_Node000009" class="edge">
<title>Node7&#45;&gt;Node9</title>
<g id="a_edge19_Node000007_Node000009"><a xlink:title=" ">
<path fill="none" stroke="#63b8ff" d="M211.62,-189.63C144.3,-185.38 50.87,-174.54 27.78,-147 0.53,-114.5 26.64,-84.42 58.78,-56.75 83.75,-35.25 119.77,-23.59 146.56,-17.5"/>
<polygon fill="#63b8ff" stroke="#63b8ff" points="147.23,-20.93 156.3,-15.46 145.79,-14.08 147.23,-20.93"/>
</a>
</g>
</g>
<!-- Node7&#45;&gt;Node10 -->
<g id="edge11_Node000007_Node000010" class="edge">
<title>Node7&#45;&gt;Node10</title>
<g id="a_edge11_Node000007_Node000010"><a xlink:title=" ">
<path fill="none" stroke="#63b8ff" d="M343.79,-182.53C390.87,-174.35 457.91,-161.7 515.78,-147 592.17,-127.59 679.62,-98.51 728.51,-81.62"/>
<polygon fill="#63b8ff" stroke="#63b8ff" points="729.49,-84.98 737.78,-78.4 727.19,-78.37 729.49,-84.98"/>
</a>
</g>
</g>
<!-- Node12 -->
<g id="Node000012" class="node">
<title>Node12</title>
<g id="a_Node000012"><a xlink:href="ITactixAgent_8h.html" target="_top" xlink:title="The engine&#45;agnostic contract a &quot;thinking&quot; entity implements to take part in Tactix systems.">
<polygon fill="white" stroke="#666666" points="153.03,-140.62 36.53,-140.62 36.53,-119.88 153.03,-119.88 153.03,-140.62"/>
<text xml:space="preserve" text-anchor="middle" x="94.78" y="-127.12" font-family="Helvetica,sans-Serif" font-size="10.00">Agent/ITactixAgent.h</text>
</a>
</g>
</g>
<!-- Node7&#45;&gt;Node12 -->
<g id="edge15_Node000007_Node000012" class="edge">
<title>Node7&#45;&gt;Node12</title>
<g id="a_edge15_Node000007_Node000012"><a xlink:title=" ">
<path fill="none" stroke="#63b8ff" d="M253.41,-182.55C221.59,-172.26 171.39,-156.03 136,-144.58"/>
<polygon fill="#63b8ff" stroke="#63b8ff" points="137.1,-141.26 126.51,-141.51 134.95,-147.92 137.1,-141.26"/>
</a>
</g>
</g>
<!-- Node8&#45;&gt;Node6 -->
<g id="edge9_Node000008_Node000006" class="edge">
<title>Node8&#45;&gt;Node6</title>
<g id="a_edge9_Node000008_Node000006"><a xlink:title=" ">
<path fill="none" stroke="#63b8ff" d="M251.16,-56.27C327.96,-45.21 450.5,-27.55 516.71,-18.01"/>
<polygon fill="#63b8ff" stroke="#63b8ff" points="517.11,-21.49 526.51,-16.6 516.11,-14.56 517.11,-21.49"/>
</a>
</g>
</g>
<!-- Node8&#45;&gt;Node9 -->
<g id="edge10_Node000008_Node000009" class="edge">
<title>Node8&#45;&gt;Node9</title>
<g id="a_edge10_Node000008_Node000009"><a xlink:title=" ">
<path fill="none" stroke="#63b8ff" d="M182.78,-56.34C182.78,-49.72 182.78,-40.72 182.78,-32.52"/>
<polygon fill="#63b8ff" stroke="#63b8ff" points="186.28,-32.59 182.78,-22.59 179.28,-32.59 186.28,-32.59"/>
</a>
</g>
</g>
<!-- Node10&#45;&gt;Node6 -->
<g id="edge12_Node000010_Node000006" class="edge">
<title>Node10&#45;&gt;Node6</title>
<g id="a_edge12_Node000010_Node000006"><a xlink:title=" ">
<path fill="none" stroke="#63b8ff" d="M730.31,-56.34C696.24,-47.19 645.27,-33.51 608.5,-23.64"/>
<polygon fill="#63b8ff" stroke="#63b8ff" points="609.6,-20.32 599.04,-21.11 607.79,-27.08 609.6,-20.32"/>
</a>
</g>
</g>
<!-- Node10&#45;&gt;Node9 -->
<g id="edge14_Node000010_Node000009" class="edge">
<title>Node10&#45;&gt;Node9</title>
<g id="a_edge14_Node000010_Node000009"><a xlink:title=" ">
<path fill="none" stroke="#63b8ff" d="M698.78,-58.23C694.04,-57.71 689.34,-57.22 684.78,-56.75 510.33,-38.9 301.39,-21.19 218.85,-14.34"/>
<polygon fill="#63b8ff" stroke="#63b8ff" points="219.37,-10.87 209.12,-13.53 218.8,-17.85 219.37,-10.87"/>
</a>
</g>
</g>
<!-- Node11 -->
<g id="Node000011" class="node">
<title>Node11</title>
<g id="a_Node000011"><a xlink:title=" ">
<polygon fill="#e0e0e0" stroke="#999999" points="857.16,-20.75 810.41,-20.75 810.41,0 857.16,0 857.16,-20.75"/>
<text xml:space="preserve" text-anchor="middle" x="833.78" y="-7.25" font-family="Helvetica,sans-Serif" font-size="10.00">cmath</text>
</a>
</g>
</g>
<!-- Node10&#45;&gt;Node11 -->
<g id="edge13_Node000010_Node000011" class="edge">
<title>Node10&#45;&gt;Node11</title>
<g id="a_edge13_Node000010_Node000011"><a xlink:title=" ">
<path fill="none" stroke="#63b8ff" d="M778.76,-56.34C788.29,-48.55 801.84,-37.47 813.11,-28.26"/>
<polygon fill="#63b8ff" stroke="#63b8ff" points="815.21,-31.07 820.73,-22.04 810.78,-25.65 815.21,-31.07"/>
</a>
</g>
</g>
<!-- Node12&#45;&gt;Node6 -->
<g id="edge16_Node000012_Node000006" class="edge">
<title>Node12&#45;&gt;Node6</title>
<g id="a_edge16_Node000012_Node000006"><a xlink:title=" ">
<path fill="none" stroke="#63b8ff" d="M92.18,-119.71C88.6,-104.18 84.3,-73.49 100.78,-56.75 129.59,-27.49 405.3,-16.06 516.56,-12.62"/>
<polygon fill="#63b8ff" stroke="#63b8ff" points="516.34,-16.13 526.23,-12.33 516.13,-9.13 516.34,-16.13"/>
</a>
</g>
</g>
<!-- Node12&#45;&gt;Node8 -->
<g id="edge17_Node000012_Node000008" class="edge">
<title>Node12&#45;&gt;Node8</title>
<g id="a_edge17_Node000012_Node000008"><a xlink:title=" ">
<path fill="none" stroke="#63b8ff" d="M108.92,-119.43C122.52,-109.98 143.32,-95.53 159.39,-84.37"/>
<polygon fill="#63b8ff" stroke="#63b8ff" points="161.22,-87.36 167.43,-78.78 157.22,-81.62 161.22,-87.36"/>
</a>
</g>
</g>
<!-- Node12&#45;&gt;Node9 -->
<g id="edge18_Node000012_Node000009" class="edge">
<title>Node12&#45;&gt;Node9</title>
<g id="a_edge18_Node000012_Node000009"><a xlink:title=" ">
<path fill="none" stroke="#63b8ff" d="M85.87,-119.64C73.48,-105.08 54.03,-76.96 67.78,-56.75 85.35,-30.94 120.08,-19.81 146.8,-15.01"/>
<polygon fill="#63b8ff" stroke="#63b8ff" points="147.22,-18.49 156.56,-13.5 146.15,-11.57 147.22,-18.49"/>
</a>
</g>
</g>
<!-- Node13&#45;&gt;Node6 -->
<g id="edge21_Node000013_Node000006" class="edge">
<title>Node13&#45;&gt;Node6</title>
<g id="a_edge21_Node000013_Node000006"><a xlink:title=" ">
<path fill="none" stroke="#63b8ff" d="M476.5,-119.43C498.83,-111.55 526.53,-98.29 543.78,-77.5 554.4,-64.7 559.09,-46.27 561.15,-32.11"/>
<polygon fill="#63b8ff" stroke="#63b8ff" points="564.59,-32.85 562.21,-22.53 557.64,-32.08 564.59,-32.85"/>
</a>
</g>
</g>
<!-- Node13&#45;&gt;Node8 -->
<g id="edge22_Node000013_Node000008" class="edge">
<title>Node13&#45;&gt;Node8</title>
<g id="a_edge22_Node000013_Node000008"><a xlink:title=" ">
<path fill="none" stroke="#63b8ff" d="M399.33,-119.43C354.76,-108.87 283.78,-92.05 235.32,-80.57"/>
<polygon fill="#63b8ff" stroke="#63b8ff" points="236.14,-77.17 225.6,-78.27 234.53,-83.98 236.14,-77.17"/>
</a>
</g>
</g>
<!-- Node13&#45;&gt;Node9 -->
<g id="edge24_Node000013_Node000009" class="edge">
<title>Node13&#45;&gt;Node9</title>
<g id="a_edge24_Node000013_Node000009"><a xlink:title=" ">
<path fill="none" stroke="#63b8ff" d="M419.23,-119.4C373.68,-98.59 267.47,-50.07 214.29,-25.77"/>
<polygon fill="#63b8ff" stroke="#63b8ff" points="216.02,-22.71 205.47,-21.74 213.11,-29.08 216.02,-22.71"/>
</a>
</g>
</g>
<!-- Node13&#45;&gt;Node14 -->
<g id="edge23_Node000013_Node000014" class="edge">
<title>Node13&#45;&gt;Node14</title>
<g id="a_edge23_Node000013_Node000014"><a xlink:title=" ">
<path fill="none" stroke="#63b8ff" d="M469.06,-119.43C499.09,-109 546.69,-92.47 579.71,-81"/>
<polygon fill="#63b8ff" stroke="#63b8ff" points="580.57,-84.41 588.87,-77.82 578.28,-77.79 580.57,-84.41"/>
</a>
</g>
</g>
<!-- Node15 -->
<g id="Node000015" class="node">
<title>Node15</title>
<g id="a_Node000015"><a xlink:title=" ">
<polygon fill="#e0e0e0" stroke="#999999" points="385.91,-77.5 349.66,-77.5 349.66,-56.75 385.91,-56.75 385.91,-77.5"/>
<text xml:space="preserve" text-anchor="middle" x="367.78" y="-64" font-family="Helvetica,sans-Serif" font-size="10.00">new</text>
</a>
</g>
</g>
<!-- Node13&#45;&gt;Node15 -->
<g id="edge25_Node000013_Node000015" class="edge">
<title>Node13&#45;&gt;Node15</title>
<g id="a_edge25_Node000013_Node000015"><a xlink:title=" ">
<path fill="none" stroke="#63b8ff" d="M429.05,-119.43C417.92,-110.11 400.96,-95.91 387.71,-84.81"/>
<polygon fill="#63b8ff" stroke="#63b8ff" points="390.31,-82.43 380.4,-78.69 385.82,-87.8 390.31,-82.43"/>
</a>
</g>
</g>
<!-- Node16 -->
<g id="Node000016" class="node">
<title>Node16</title>
<g id="a_Node000016"><a xlink:title=" ">
<polygon fill="#e0e0e0" stroke="#999999" points="448.03,-77.5 403.53,-77.5 403.53,-56.75 448.03,-56.75 448.03,-77.5"/>
<text xml:space="preserve" text-anchor="middle" x="425.78" y="-64" font-family="Helvetica,sans-Serif" font-size="10.00">utility</text>
</a>
</g>
</g>
<!-- Node13&#45;&gt;Node16 -->
<g id="edge26_Node000013_Node000016" class="edge">
<title>Node13&#45;&gt;Node16</title>
<g id="a_edge26_Node000013_Node000016"><a xlink:title=" ">
<path fill="none" stroke="#63b8ff" d="M438.37,-119.43C436.35,-111.18 433.39,-99.12 430.85,-88.76"/>
<polygon fill="#63b8ff" stroke="#63b8ff" points="434.28,-88.07 428.5,-79.19 427.48,-89.74 434.28,-88.07"/>
</a>
</g>
</g>
<!-- Node17 -->
<g id="Node000017" class="node">
<title>Node17</title>
<g id="a_Node000017"><a xlink:title=" ">
<polygon fill="#e0e0e0" stroke="#999999" points="535.03,-77.5 466.53,-77.5 466.53,-56.75 535.03,-56.75 535.03,-77.5"/>
<text xml:space="preserve" text-anchor="middle" x="500.78" y="-64" font-family="Helvetica,sans-Serif" font-size="10.00">type_traits</text>
</a>
</g>
</g>
<!-- Node13&#45;&gt;Node17 -->
<g id="edge27_Node000013_Node000017" class="edge">
<title>Node13&#45;&gt;Node17</title>
<g id="a_edge27_Node000013_Node000017"><a xlink:title=" ">
<path fill="none" stroke="#63b8ff" d="M450.42,-119.43C459.31,-110.38 472.71,-96.72 483.45,-85.78"/>
<polygon fill="#63b8ff" stroke="#63b8ff" points="485.79,-88.39 490.3,-78.8 480.8,-83.48 485.79,-88.39"/>
</a>
</g>
</g>
<!-- Node18&#45;&gt;Node6 -->
<g id="edge33_Node000018_Node000006" class="edge">
<title>Node18&#45;&gt;Node6</title>
<g id="a_edge33_Node000018_Node000006"><a xlink:title=" ">
<path fill="none" stroke="#63b8ff" d="M813.91,-113.12C835.58,-98.24 859.87,-75.65 843.78,-56.75 814.19,-22 681,-13.77 609.13,-11.89"/>
<polygon fill="#63b8ff" stroke="#63b8ff" points="609.31,-8.39 599.23,-11.66 609.15,-15.39 609.31,-8.39"/>
</a>
</g>
</g>
<!-- Node18&#45;&gt;Node9 -->
<g id="edge37_Node000018_Node000009" class="edge">
<title>Node18&#45;&gt;Node9</title>
<g id="a_edge37_Node000018_Node000009"><a xlink:title=" ">
<path fill="none" stroke="#63b8ff" d="M756.16,-113.01C737.05,-102.85 711.95,-89.47 689.78,-77.5 672.85,-68.36 670.17,-62.4 651.78,-56.75 570.89,-31.89 314.4,-17.58 218.99,-13"/>
<polygon fill="#63b8ff" stroke="#63b8ff" points="219.33,-9.51 209.17,-12.54 219,-16.5 219.33,-9.51"/>
</a>
</g>
</g>
<!-- Node18&#45;&gt;Node10 -->
<g id="edge34_Node000018_Node000010" class="edge">
<title>Node18&#45;&gt;Node10</title>
<g id="a_edge34_Node000018_Node000010"><a xlink:title=" ">
<path fill="none" stroke="#63b8ff" d="M781.53,-113.19C779.07,-105.68 776.11,-96.65 773.5,-88.65"/>
<polygon fill="#63b8ff" stroke="#63b8ff" points="776.91,-87.82 770.47,-79.41 770.26,-90 776.91,-87.82"/>
</a>
</g>
</g>
<!-- Node18&#45;&gt;Node11 -->
<g id="edge35_Node000018_Node000011" class="edge">
<title>Node18&#45;&gt;Node11</title>
<g id="a_edge35_Node000018_Node000011"><a xlink:title=" ">
<path fill="none" stroke="#63b8ff" d="M834.83,-113.11C851.1,-105.09 867.48,-93.57 876.78,-77.5 886.76,-60.26 871.51,-41.26 856.49,-28.07"/>
<polygon fill="#63b8ff" stroke="#63b8ff" points="859,-25.6 849.04,-21.99 854.57,-31.02 859,-25.6"/>
</a>
</g>
</g>
<!-- Node18&#45;&gt;Node14 -->
<g id="edge36_Node000018_Node000014" class="edge">
<title>Node18&#45;&gt;Node14</title>
<g id="a_edge36_Node000018_Node000014"><a xlink:title=" ">
<path fill="none" stroke="#63b8ff" d="M741.67,-113.03C714.25,-103.17 679.67,-90.74 653.85,-81.45"/>
<polygon fill="#63b8ff" stroke="#63b8ff" points="655.04,-78.16 644.44,-78.07 652.67,-84.75 655.04,-78.16"/>
</a>
</g>
</g>
</g>
</svg>
