<?xml version="1.0" encoding="UTF-8" standalone="no"?>
<!DOCTYPE svg PUBLIC "-//W3C//DTD SVG 1.1//EN"
 "http://www.w3.org/Graphics/SVG/1.1/DTD/svg11.dtd">
<!-- Generated by graphviz version 14.1.5 (0)
 -->
<!-- Title: Source/TactixUE/Public/EQS/UTactixEQSTest_Influence.h Pages: 1 -->
<svg width="492pt" height="111pt"
 viewBox="0.00 0.00 492.00 111.00" xmlns="http://www.w3.org/2000/svg" xmlns:xlink="http://www.w3.org/1999/xlink">
<g id="graph0" class="graph" transform="scale(1 1) rotate(0) translate(4 107)">
<title>Source/TactixUE/Public/EQS/UTactixEQSTest_Influence.h</title>
<!-- Node1 -->
<g id="Node000001" class="node">
<title>Node1</title>
<g id="a_Node000001"><a xlink:title="EQS test that scores items by the influence map value beneath them.">
<polygon fill="#999999" stroke="#666666" points="272.12,-103 97.12,-103 97.12,-69.5 272.12,-69.5 272.12,-103"/>
<text xml:space="preserve" text-anchor="start" x="105.12" y="-89.5" font-family="Helvetica,sans-Serif" font-size="10.00">Source/TactixUE/Public</text>
<text xml:space="preserve" text-anchor="middle" x="184.62" y="-76.75" font-family="Helvetica,sans-Serif" font-size="10.00">/EQS/UTactixEQSTest_Influence.h</text>
</a>
</g>
</g>
<!-- Node2 -->
<g id="Node000002" class="node">
<title>Node2</title>
<g id="a_Node000002"><a xlink:title=" ">
<polygon fill="#e0e0e0" stroke="#999999" points="87.25,-27.12 0,-27.12 0,-6.38 87.25,-6.38 87.25,-27.12"/>
<text xml:space="preserve" text-anchor="middle" x="43.62" y="-13.62" font-family="Helvetica,sans-Serif" font-size="10.00">CoreMinimal.h</text>
</a>
</g>
</g>
<!-- Node1&#45;&gt;Node2 -->
<g id="edge1_Node000001_Node000002" class="edge">
<title>Node1&#45;&gt;Node2</title>
<g id="a_edge1_Node000001_Node000002"><a xlink:title=" ">
<path fill="none" stroke="#63b8ff" d="M150.85,-69.08C127.61,-57.95 96.97,-43.29 74.4,-32.48"/>
<polygon fill="#63b8ff" stroke="#63b8ff" points="75.93,-29.34 65.4,-28.17 72.91,-35.65 75.93,-29.34"/>
</a>
</g>
</g>
<!-- Node3 -->
<g id="Node000003" class="node">
<title>Node3</title>
<g id="a_Node000003"><a xlink:title=" ">
<polygon fill="#e0e0e0" stroke="#999999" points="263.5,-33.5 105.75,-33.5 105.75,0 263.5,0 263.5,-33.5"/>
<text xml:space="preserve" text-anchor="start" x="113.75" y="-20" font-family="Helvetica,sans-Serif" font-size="10.00">EnvironmentQuery/EnvQuery</text>
<text xml:space="preserve" text-anchor="middle" x="184.62" y="-7.25" font-family="Helvetica,sans-Serif" font-size="10.00">Test.h</text>
</a>
</g>
</g>
<!-- Node1&#45;&gt;Node3 -->
<g id="edge2_Node000001_Node000003" class="edge">
<title>Node1&#45;&gt;Node3</title>
<g id="a_edge2_Node000001_Node000003"><a xlink:title=" ">
<path fill="none" stroke="#63b8ff" d="M184.62,-69.25C184.62,-62.02 184.62,-53.28 184.62,-45.06"/>
<polygon fill="#63b8ff" stroke="#63b8ff" points="188.13,-45.15 184.63,-35.15 181.13,-45.15 188.13,-45.15"/>
</a>
</g>
</g>
<!-- Node4 -->
<g id="Node000004" class="node">
<title>Node4</title>
<g id="a_Node000004"><a xlink:title=" ">
<polygon fill="#e0e0e0" stroke="#999999" points="483.62,-27.12 281.62,-27.12 281.62,-6.38 483.62,-6.38 483.62,-27.12"/>
<text xml:space="preserve" text-anchor="middle" x="382.62" y="-13.62" font-family="Helvetica,sans-Serif" font-size="10.00">UTactixEQSTest_Influence.generated.h</text>
</a>
</g>
</g>
<!-- Node1&#45;&gt;Node4 -->
<g id="edge3_Node000001_Node000004" class="edge">
<title>Node1&#45;&gt;Node4</title>
<g id="a_edge3_Node000001_Node000004"><a xlink:title=" ">
<path fill="none" stroke="#63b8ff" d="M232.05,-69.08C265.93,-57.53 310.98,-42.18 342.95,-31.28"/>
<polygon fill="#63b8ff" stroke="#63b8ff" points="343.91,-34.65 352.24,-28.11 341.65,-28.02 343.91,-34.65"/>
</a>
</g>
</g>
</g>
</svg>
