<?xml version="1.0" encoding="UTF-8" standalone="no"?>
<!DOCTYPE svg PUBLIC "-//W3C//DTD SVG 1.1//EN"
 "http://www.w3.org/Graphics/SVG/1.1/DTD/svg11.dtd">
<!-- Generated by graphviz version 14.1.5 (0)
 -->
<!-- Title: Source/TactixUE/Private/DataAssets/UTactixSquadConfigAsset.cpp Pages: 1 -->
<svg width="488pt" height="237pt"
 viewBox="0.00 0.00 488.00 237.00" xmlns="http://www.w3.org/2000/svg" xmlns:xlink="http://www.w3.org/1999/xlink">
<g id="graph0" class="graph" transform="scale(1 1) rotate(0) translate(4 233.25)">
<title>Source/TactixUE/Private/DataAssets/UTactixSquadConfigAsset.cpp</title>
<!-- Node1 -->
<g id="Node000001" class="node">
<title>Node1</title>
<g id="a_Node000001"><a xlink:title="Translation unit for the squad config asset. It&#39;s pure data, so there&#39;s no behaviour to implement her...">
<polygon fill="#999999" stroke="#666666" points="239.75,-229.25 65.5,-229.25 65.5,-183 239.75,-183 239.75,-229.25"/>
<text xml:space="preserve" text-anchor="start" x="73.5" y="-215.75" font-family="Helvetica,sans-Serif" font-size="10.00">Source/TactixUE/Private</text>
<text xml:space="preserve" text-anchor="start" x="73.5" y="-203" font-family="Helvetica,sans-Serif" font-size="10.00">/DataAssets/UTactixSquadConfig</text>
<text xml:space="preserve" text-anchor="middle" x="152.62" y="-190.25" font-family="Helvetica,sans-Serif" font-size="10.00">Asset.cpp</text>
</a>
</g>
</g>
<!-- Node2 -->
<g id="Node000002" class="node">
<title>Node2</title>
<g id="a_Node000002"><a xlink:href="UTactixSquadConfigAsset_8h.html" target="_top" xlink:title="Designer&#45;facing asset describing a squad&#39;s roles, formation and tactic.">
<polygon fill="white" stroke="#666666" points="238.25,-147 67,-147 67,-113.5 238.25,-113.5 238.25,-147"/>
<text xml:space="preserve" text-anchor="start" x="75" y="-133.5" font-family="Helvetica,sans-Serif" font-size="10.00">DataAssets/UTactixSquadConfig</text>
<text xml:space="preserve" text-anchor="middle" x="152.62" y="-120.75" font-family="Helvetica,sans-Serif" font-size="10.00">Asset.h</text>
</a>
</g>
</g>
<!-- Node1&#45;&gt;Node2 -->
<g id="edge1_Node000001_Node000002" class="edge">
<title>Node1&#45;&gt;Node2</title>
<g id="a_edge1_Node000001_Node000002"><a xlink:title=" ">
<path fill="none" stroke="#63b8ff" d="M152.62,-182.56C152.62,-175.01 152.62,-166.51 152.62,-158.63"/>
<polygon fill="#63b8ff" stroke="#63b8ff" points="156.13,-158.87 152.63,-148.87 149.13,-158.87 156.13,-158.87"/>
</a>
</g>
</g>
<!-- Node3 -->
<g id="Node000003" class="node">
<title>Node3</title>
<g id="a_Node000003"><a xlink:title=" ">
<polygon fill="#e0e0e0" stroke="#999999" points="87.25,-20.75 0,-20.75 0,0 87.25,0 87.25,-20.75"/>
<text xml:space="preserve" text-anchor="middle" x="43.62" y="-7.25" font-family="Helvetica,sans-Serif" font-size="10.00">CoreMinimal.h</text>
</a>
</g>
</g>
<!-- Node2&#45;&gt;Node3 -->
<g id="edge2_Node000002_Node000003" class="edge">
<title>Node2&#45;&gt;Node3</title>
<g id="a_edge2_Node000002_Node000003"><a xlink:title=" ">
<path fill="none" stroke="#63b8ff" d="M74.66,-113.05C56.23,-105.38 38.72,-94.1 27.62,-77.5 18.41,-63.71 24.12,-45.14 31.16,-31.2"/>
<polygon fill="#63b8ff" stroke="#63b8ff" points="34.2,-32.93 36.08,-22.5 28.11,-29.48 34.2,-32.93"/>
</a>
</g>
</g>
<!-- Node4 -->
<g id="Node000004" class="node">
<title>Node4</title>
<g id="a_Node000004"><a xlink:title=" ">
<polygon fill="#e0e0e0" stroke="#999999" points="148.25,-77.5 37,-77.5 37,-56.75 148.25,-56.75 148.25,-77.5"/>
<text xml:space="preserve" text-anchor="middle" x="92.62" y="-64" font-family="Helvetica,sans-Serif" font-size="10.00">Engine/DataAsset.h</text>
</a>
</g>
</g>
<!-- Node2&#45;&gt;Node4 -->
<g id="edge3_Node000002_Node000004" class="edge">
<title>Node2&#45;&gt;Node4</title>
<g id="a_edge3_Node000002_Node000004"><a xlink:title=" ">
<path fill="none" stroke="#63b8ff" d="M136.86,-113.19C128.72,-104.89 118.75,-94.74 110.34,-86.18"/>
<polygon fill="#63b8ff" stroke="#63b8ff" points="112.85,-83.73 103.35,-79.05 107.85,-88.64 112.85,-83.73"/>
</a>
</g>
</g>
<!-- Node5 -->
<g id="Node000005" class="node">
<title>Node5</title>
<g id="a_Node000005"><a xlink:href="TactixUETypes_8h.html" target="_top" xlink:title="Blueprint&#45;exposed mirrors of Tactix enums and config structs.">
<polygon fill="white" stroke="#666666" points="261,-77.5 166.25,-77.5 166.25,-56.75 261,-56.75 261,-77.5"/>
<text xml:space="preserve" text-anchor="middle" x="213.62" y="-64" font-family="Helvetica,sans-Serif" font-size="10.00">TactixUETypes.h</text>
</a>
</g>
</g>
<!-- Node2&#45;&gt;Node5 -->
<g id="edge4_Node000002_Node000005" class="edge">
<title>Node2&#45;&gt;Node5</title>
<g id="a_edge4_Node000002_Node000005"><a xlink:title=" ">
<path fill="none" stroke="#63b8ff" d="M168.65,-113.19C177.02,-104.81 187.28,-94.53 195.88,-85.91"/>
<polygon fill="#63b8ff" stroke="#63b8ff" points="198.15,-88.59 202.73,-79.04 193.19,-83.64 198.15,-88.59"/>
</a>
</g>
</g>
<!-- Node7 -->
<g id="Node000007" class="node">
<title>Node7</title>
<g id="a_Node000007"><a xlink:title=" ">
<polygon fill="#e0e0e0" stroke="#999999" points="480.25,-77.5 279,-77.5 279,-56.75 480.25,-56.75 480.25,-77.5"/>
<text xml:space="preserve" text-anchor="middle" x="379.62" y="-64" font-family="Helvetica,sans-Serif" font-size="10.00">UTactixSquadConfigAsset.generated.h</text>
</a>
</g>
</g>
<!-- Node2&#45;&gt;Node7 -->
<g id="edge7_Node000002_Node000007" class="edge">
<title>Node2&#45;&gt;Node7</title>
<g id="a_edge7_Node000002_Node000007"><a xlink:title=" ">
<path fill="none" stroke="#63b8ff" d="M212.86,-113.03C250.31,-102.95 297.77,-90.17 332.48,-80.82"/>
<polygon fill="#63b8ff" stroke="#63b8ff" points="333.06,-84.29 341.81,-78.31 331.24,-77.53 333.06,-84.29"/>
</a>
</g>
</g>
<!-- Node5&#45;&gt;Node3 -->
<g id="edge5_Node000005_Node000003" class="edge">
<title>Node5&#45;&gt;Node3</title>
<g id="a_edge5_Node000005_Node000003"><a xlink:title=" ">
<path fill="none" stroke="#63b8ff" d="M183.23,-56.34C155.76,-47.49 115.09,-34.39 84.72,-24.61"/>
<polygon fill="#63b8ff" stroke="#63b8ff" points="86.07,-21.37 75.48,-21.63 83.93,-28.03 86.07,-21.37"/>
</a>
</g>
</g>
<!-- Node6 -->
<g id="Node000006" class="node">
<title>Node6</title>
<g id="a_Node000006"><a xlink:title=" ">
<polygon fill="#e0e0e0" stroke="#999999" points="287.25,-20.75 140,-20.75 140,0 287.25,0 287.25,-20.75"/>
<text xml:space="preserve" text-anchor="middle" x="213.62" y="-7.25" font-family="Helvetica,sans-Serif" font-size="10.00">TactixUETypes.generated.h</text>
</a>
</g>
</g>
<!-- Node5&#45;&gt;Node6 -->
<g id="edge6_Node000005_Node000006" class="edge">
<title>Node5&#45;&gt;Node6</title>
<g id="a_edge6_Node000005_Node000006"><a xlink:title=" ">
<path fill="none" stroke="#63b8ff" d="M213.62,-56.34C213.62,-49.72 213.62,-40.72 213.62,-32.52"/>
<polygon fill="#63b8ff" stroke="#63b8ff" points="217.13,-32.59 213.63,-22.59 210.13,-32.59 217.13,-32.59"/>
</a>
</g>
</g>
</g>
</svg>
