<?xml version="1.0" encoding="UTF-8" standalone="no"?>
<!DOCTYPE svg PUBLIC "-//W3C//DTD SVG 1.1//EN"
 "http://www.w3.org/Graphics/SVG/1.1/DTD/svg11.dtd">
<!-- Generated by graphviz version 14.1.5 (0)
 -->
<!-- Title: Source/TactixUE/Private/BehaviorTree/UTactixBTTask_ExecutePlan.cpp Pages: 1 -->
<svg width="1681pt" height="351pt"
 viewBox="0.00 0.00 1681.00 351.00" xmlns="http://www.w3.org/2000/svg" xmlns:xlink="http://www.w3.org/1999/xlink">
<g id="graph0" class="graph" transform="scale(1 1) rotate(0) translate(4 346.75)">
<title>Source/TactixUE/Private/BehaviorTree/UTactixBTTask_ExecutePlan.cpp</title>
<!-- Node1 -->
<g id="Node000001" class="node">
<title>Node1</title>
<g id="a_Node000001"><a xlink:title="Implements step&#45;by&#45;step plan execution for the BT task.">
<polygon fill="#999999" stroke="#666666" points="560.12,-342.75 403.88,-342.75 403.88,-296.5 560.12,-296.5 560.12,-342.75"/>
<text xml:space="preserve" text-anchor="start" x="411.88" y="-329.25" font-family="Helvetica,sans-Serif" font-size="10.00">Source/TactixUE/Private</text>
<text xml:space="preserve" text-anchor="start" x="411.88" y="-316.5" font-family="Helvetica,sans-Serif" font-size="10.00">/BehaviorTree/UTactixBTTask</text>
<text xml:space="preserve" text-anchor="middle" x="482" y="-303.75" font-family="Helvetica,sans-Serif" font-size="10.00">_ExecutePlan.cpp</text>
</a>
</g>
</g>
<!-- Node2 -->
<g id="Node000002" class="node">
<title>Node2</title>
<g id="a_Node000002"><a xlink:href="UTactixBTTask__ExecutePlan_8h.html" target="_top" xlink:title="BT task that walks the controller&#39;s active GOAP or HTN plan, one step per tick.">
<polygon fill="white" stroke="#666666" points="1253.62,-260.5 1100.38,-260.5 1100.38,-227 1253.62,-227 1253.62,-260.5"/>
<text xml:space="preserve" text-anchor="start" x="1108.38" y="-247" font-family="Helvetica,sans-Serif" font-size="10.00">BehaviorTree/UTactixBTTask</text>
<text xml:space="preserve" text-anchor="middle" x="1177" y="-234.25" font-family="Helvetica,sans-Serif" font-size="10.00">_ExecutePlan.h</text>
</a>
</g>
</g>
<!-- Node1&#45;&gt;Node2 -->
<g id="edge1_Node000001_Node000002" class="edge">
<title>Node1&#45;&gt;Node2</title>
<g id="a_edge1_Node000001_Node000002"><a xlink:title=" ">
<path fill="none" stroke="#63b8ff" d="M560.37,-310.29C690.9,-296.42 951.93,-268.67 1088.74,-254.13"/>
<polygon fill="#63b8ff" stroke="#63b8ff" points="1088.89,-257.64 1098.47,-253.1 1088.15,-250.67 1088.89,-257.64"/>
</a>
</g>
</g>
<!-- Node6 -->
<g id="Node000006" class="node">
<title>Node6</title>
<g id="a_Node000006"><a xlink:title=" ">
<polygon fill="#e0e0e0" stroke="#999999" points="176,-191 94,-191 94,-170.25 176,-170.25 176,-191"/>
<text xml:space="preserve" text-anchor="middle" x="135" y="-177.5" font-family="Helvetica,sans-Serif" font-size="10.00">AIController.h</text>
</a>
</g>
</g>
<!-- Node1&#45;&gt;Node6 -->
<g id="edge5_Node000001_Node000006" class="edge">
<title>Node1&#45;&gt;Node6</title>
<g id="a_edge5_Node000001_Node000006"><a xlink:title=" ">
<path fill="none" stroke="#63b8ff" d="M423.94,-296.09C396.37,-285.35 362.96,-272.31 333,-260.5 275.86,-237.97 209.56,-211.49 170.02,-195.66"/>
<polygon fill="#63b8ff" stroke="#63b8ff" points="171.35,-192.43 160.77,-191.96 168.75,-198.92 171.35,-192.43"/>
</a>
</g>
</g>
<!-- Node7 -->
<g id="Node000007" class="node">
<title>Node7</title>
<g id="a_Node000007"><a xlink:href="ATactixAIController_8h.html" target="_top" xlink:title="Base AIController for Tactix&#45;aware pawns.">
<polygon fill="white" stroke="#666666" points="509.75,-254.12 342.25,-254.12 342.25,-233.38 509.75,-233.38 509.75,-254.12"/>
<text xml:space="preserve" text-anchor="middle" x="426" y="-240.62" font-family="Helvetica,sans-Serif" font-size="10.00">Controller/ATactixAIController.h</text>
</a>
</g>
</g>
<!-- Node1&#45;&gt;Node7 -->
<g id="edge6_Node000001_Node000007" class="edge">
<title>Node1&#45;&gt;Node7</title>
<g id="a_edge6_Node000001_Node000007"><a xlink:title=" ">
<path fill="none" stroke="#63b8ff" d="M464.89,-296.06C456.98,-285.62 447.69,-273.37 440.18,-263.45"/>
<polygon fill="#63b8ff" stroke="#63b8ff" points="443.12,-261.54 434.29,-255.68 437.54,-265.76 443.12,-261.54"/>
</a>
</g>
</g>
<!-- Node18 -->
<g id="Node000018" class="node">
<title>Node18</title>
<g id="a_Node000018"><a xlink:href="UTactixAgentComponent_8h.html" target="_top" xlink:title="The component that makes a pawn a Tactix agent.">
<polygon fill="white" stroke="#666666" points="840.12,-254.12 629.88,-254.12 629.88,-233.38 840.12,-233.38 840.12,-254.12"/>
<text xml:space="preserve" text-anchor="middle" x="735" y="-240.62" font-family="Helvetica,sans-Serif" font-size="10.00">Components/UTactixAgentComponent.h</text>
</a>
</g>
</g>
<!-- Node1&#45;&gt;Node18 -->
<g id="edge26_Node000001_Node000018" class="edge">
<title>Node1&#45;&gt;Node18</title>
<g id="a_edge26_Node000001_Node000018"><a xlink:title=" ">
<path fill="none" stroke="#63b8ff" d="M559.28,-296.06C602.35,-283.48 654.43,-268.28 690.66,-257.7"/>
<polygon fill="#63b8ff" stroke="#63b8ff" points="691.3,-261.16 699.91,-255 689.33,-254.44 691.3,-261.16"/>
</a>
</g>
</g>
<!-- Node26 -->
<g id="Node000026" class="node">
<title>Node26</title>
<g id="a_Node000026"><a xlink:href="ITactixGOAPAction_8h.html" target="_top" xlink:title="Interface for a GOAP action: a graph edge with preconditions, effects and a cost.">
<polygon fill="white" stroke="#666666" points="195.5,-134.25 50.5,-134.25 50.5,-113.5 195.5,-113.5 195.5,-134.25"/>
<text xml:space="preserve" text-anchor="middle" x="123" y="-120.75" font-family="Helvetica,sans-Serif" font-size="10.00">GOAP/ITactixGOAPAction.h</text>
</a>
</g>
</g>
<!-- Node1&#45;&gt;Node26 -->
<g id="edge45_Node000001_Node000026" class="edge">
<title>Node1&#45;&gt;Node26</title>
<g id="a_edge45_Node000001_Node000026"><a xlink:title=" ">
<path fill="none" stroke="#63b8ff" d="M403.77,-305.28C298.54,-285.49 120.46,-244.8 85,-191 74.44,-174.98 88.01,-155.91 101.78,-142.37"/>
<polygon fill="#63b8ff" stroke="#63b8ff" points="104.01,-145.08 109.05,-135.75 99.3,-139.9 104.01,-145.08"/>
</a>
</g>
</g>
<!-- Node27 -->
<g id="Node000027" class="node">
<title>Node27</title>
<g id="a_Node000027"><a xlink:href="ITactixHTNTask_8h.html" target="_top" xlink:title="Task hierarchy for the HTN planner: the common base, primitive (leaf) tasks, and compound tasks that ...">
<polygon fill="white" stroke="#666666" points="704.62,-134.25 581.38,-134.25 581.38,-113.5 704.62,-113.5 704.62,-134.25"/>
<text xml:space="preserve" text-anchor="middle" x="643" y="-120.75" font-family="Helvetica,sans-Serif" font-size="10.00">HTN/ITactixHTNTask.h</text>
</a>
</g>
</g>
<!-- Node1&#45;&gt;Node27 -->
<g id="edge48_Node000001_Node000027" class="edge">
<title>Node1&#45;&gt;Node27</title>
<g id="a_edge48_Node000001_Node000027"><a xlink:title=" ">
<path fill="none" stroke="#63b8ff" d="M497.5,-296.24C504.5,-285.65 512.61,-272.68 519,-260.5 539.2,-221.95 527.59,-202.33 557,-170.25 569.54,-156.57 587.17,-146.27 603.2,-138.97"/>
<polygon fill="#63b8ff" stroke="#63b8ff" points="604.22,-142.34 612.04,-135.2 601.47,-135.91 604.22,-142.34"/>
</a>
</g>
</g>
<!-- Node3 -->
<g id="Node000003" class="node">
<title>Node3</title>
<g id="a_Node000003"><a xlink:title=" ">
<polygon fill="#e0e0e0" stroke="#999999" points="653.62,-191 566.38,-191 566.38,-170.25 653.62,-170.25 653.62,-191"/>
<text xml:space="preserve" text-anchor="middle" x="610" y="-177.5" font-family="Helvetica,sans-Serif" font-size="10.00">CoreMinimal.h</text>
</a>
</g>
</g>
<!-- Node2&#45;&gt;Node3 -->
<g id="edge2_Node000002_Node000003" class="edge">
<title>Node2&#45;&gt;Node3</title>
<g id="a_edge2_Node000002_Node000003"><a xlink:title=" ">
<path fill="none" stroke="#63b8ff" d="M1099.94,-234.44C983.76,-221.92 766.54,-198.5 664.98,-187.55"/>
<polygon fill="#63b8ff" stroke="#63b8ff" points="665.59,-184.1 655.27,-186.51 664.84,-191.06 665.59,-184.1"/>
</a>
</g>
</g>
<!-- Node4 -->
<g id="Node000004" class="node">
<title>Node4</title>
<g id="a_Node000004"><a xlink:title=" ">
<polygon fill="#e0e0e0" stroke="#999999" points="1442.88,-191 1291.12,-191 1291.12,-170.25 1442.88,-170.25 1442.88,-191"/>
<text xml:space="preserve" text-anchor="middle" x="1367" y="-177.5" font-family="Helvetica,sans-Serif" font-size="10.00">BehaviorTree/BTTaskNode.h</text>
</a>
</g>
</g>
<!-- Node2&#45;&gt;Node4 -->
<g id="edge3_Node000002_Node000004" class="edge">
<title>Node2&#45;&gt;Node4</title>
<g id="a_edge3_Node000002_Node000004"><a xlink:title=" ">
<path fill="none" stroke="#63b8ff" d="M1227.42,-226.53C1258.09,-216.66 1296.77,-204.22 1325.64,-194.93"/>
<polygon fill="#63b8ff" stroke="#63b8ff" points="1326.68,-198.27 1335.13,-191.88 1324.54,-191.61 1326.68,-198.27"/>
</a>
</g>
</g>
<!-- Node5 -->
<g id="Node000005" class="node">
<title>Node5</title>
<g id="a_Node000005"><a xlink:title=" ">
<polygon fill="#e0e0e0" stroke="#999999" points="1673.25,-191 1460.75,-191 1460.75,-170.25 1673.25,-170.25 1673.25,-191"/>
<text xml:space="preserve" text-anchor="middle" x="1567" y="-177.5" font-family="Helvetica,sans-Serif" font-size="10.00">UTactixBTTask_ExecutePlan.generated.h</text>
</a>
</g>
</g>
<!-- Node2&#45;&gt;Node5 -->
<g id="edge4_Node000002_Node000005" class="edge">
<title>Node2&#45;&gt;Node5</title>
<g id="a_edge4_Node000002_Node000005"><a xlink:title=" ">
<path fill="none" stroke="#63b8ff" d="M1254.05,-230.67C1323.44,-219.8 1424.76,-203.92 1493.15,-193.2"/>
<polygon fill="#63b8ff" stroke="#63b8ff" points="1493.42,-196.7 1502.76,-191.69 1492.34,-189.78 1493.42,-196.7"/>
</a>
</g>
</g>
<!-- Node7&#45;&gt;Node3 -->
<g id="edge7_Node000007_Node000003" class="edge">
<title>Node7&#45;&gt;Node3</title>
<g id="a_edge7_Node000007_Node000003"><a xlink:title=" ">
<path fill="none" stroke="#63b8ff" d="M455.56,-232.93C486.55,-222.64 535.42,-206.4 569.87,-194.96"/>
<polygon fill="#63b8ff" stroke="#63b8ff" points="570.69,-198.37 579.07,-191.9 568.48,-191.73 570.69,-198.37"/>
</a>
</g>
</g>
<!-- Node7&#45;&gt;Node6 -->
<g id="edge8_Node000007_Node000006" class="edge">
<title>Node7&#45;&gt;Node6</title>
<g id="a_edge8_Node000007_Node000006"><a xlink:title=" ">
<path fill="none" stroke="#63b8ff" d="M379.25,-232.93C326.9,-221.93 242.26,-204.16 187.63,-192.68"/>
<polygon fill="#63b8ff" stroke="#63b8ff" points="188.44,-189.27 177.94,-190.64 187,-196.12 188.44,-189.27"/>
</a>
</g>
</g>
<!-- Node8 -->
<g id="Node000008" class="node">
<title>Node8</title>
<g id="a_Node000008"><a xlink:href="TactixArena_8h.html" target="_top" xlink:title="Bump (linear) allocator for short&#45;lived scratch memory.">
<polygon fill="white" stroke="#666666" points="157.5,-77.5 18.5,-77.5 18.5,-56.75 157.5,-56.75 157.5,-77.5"/>
<text xml:space="preserve" text-anchor="middle" x="88" y="-64" font-family="Helvetica,sans-Serif" font-size="10.00">Foundation/TactixArena.h</text>
</a>
</g>
</g>
<!-- Node7&#45;&gt;Node8 -->
<g id="edge9_Node000007_Node000008" class="edge">
<title>Node7&#45;&gt;Node8</title>
<g id="a_edge9_Node000007_Node000008"><a xlink:title=" ">
<path fill="none" stroke="#63b8ff" d="M373.46,-232.88C332.05,-224.25 273.28,-210.11 224,-191 205.69,-183.9 203.32,-177.31 185,-170.25 123.84,-146.69 82.29,-185.94 42,-134.25 29.31,-117.96 46.56,-98.47 63.44,-84.88"/>
<polygon fill="#63b8ff" stroke="#63b8ff" points="65.48,-87.72 71.37,-78.91 61.28,-82.12 65.48,-87.72"/>
</a>
</g>
</g>
<!-- Node14 -->
<g id="Node000014" class="node">
<title>Node14</title>
<g id="a_Node000014"><a xlink:href="FTactixGOAPPlanner_8h.html" target="_top" xlink:title="A* planner over the GOAP world&#45;state graph.">
<polygon fill="white" stroke="#666666" points="563.62,-134.25 410.38,-134.25 410.38,-113.5 563.62,-113.5 563.62,-134.25"/>
<text xml:space="preserve" text-anchor="middle" x="487" y="-120.75" font-family="Helvetica,sans-Serif" font-size="10.00">GOAP/FTactixGOAPPlanner.h</text>
</a>
</g>
</g>
<!-- Node7&#45;&gt;Node14 -->
<g id="edge15_Node000007_Node000014" class="edge">
<title>Node7&#45;&gt;Node14</title>
<g id="a_edge15_Node000007_Node000014"><a xlink:title=" ">
<path fill="none" stroke="#63b8ff" d="M430.99,-233.1C440.96,-213.85 463.49,-170.31 476.74,-144.7"/>
<polygon fill="#63b8ff" stroke="#63b8ff" points="479.76,-146.49 481.24,-136 473.54,-143.27 479.76,-146.49"/>
</a>
</g>
</g>
<!-- Node16 -->
<g id="Node000016" class="node">
<title>Node16</title>
<g id="a_Node000016"><a xlink:href="FTactixHTNPlanner_8h.html" target="_top" xlink:title="Depth&#45;first HTN planner with method&#45;order fallback and backtracking.">
<polygon fill="white" stroke="#666666" points="391.88,-134.25 252.12,-134.25 252.12,-113.5 391.88,-113.5 391.88,-134.25"/>
<text xml:space="preserve" text-anchor="middle" x="322" y="-120.75" font-family="Helvetica,sans-Serif" font-size="10.00">HTN/FTactixHTNPlanner.h</text>
</a>
</g>
</g>
<!-- Node7&#45;&gt;Node16 -->
<g id="edge21_Node000007_Node000016" class="edge">
<title>Node7&#45;&gt;Node16</title>
<g id="a_edge21_Node000007_Node000016"><a xlink:title=" ">
<path fill="none" stroke="#63b8ff" d="M426.52,-232.99C426.8,-217.96 425.27,-188.95 411,-170.25 400.13,-156 383.53,-145.86 367.59,-138.83"/>
<polygon fill="#63b8ff" stroke="#63b8ff" points="369.27,-135.74 358.69,-135.22 366.64,-142.22 369.27,-135.74"/>
</a>
</g>
</g>
<!-- Node17 -->
<g id="Node000017" class="node">
<title>Node17</title>
<g id="a_Node000017"><a xlink:title=" ">
<polygon fill="#e0e0e0" stroke="#999999" points="401.5,-191 232.5,-191 232.5,-170.25 401.5,-170.25 401.5,-191"/>
<text xml:space="preserve" text-anchor="middle" x="317" y="-177.5" font-family="Helvetica,sans-Serif" font-size="10.00">ATactixAIController.generated.h</text>
</a>
</g>
</g>
<!-- Node7&#45;&gt;Node17 -->
<g id="edge25_Node000007_Node000017" class="edge">
<title>Node7&#45;&gt;Node17</title>
<g id="a_edge25_Node000007_Node000017"><a xlink:title=" ">
<path fill="none" stroke="#63b8ff" d="M408.49,-232.93C391.17,-223.22 364.41,-208.21 344.3,-196.93"/>
<polygon fill="#63b8ff" stroke="#63b8ff" points="346.22,-194 335.79,-192.16 342.8,-200.11 346.22,-194"/>
</a>
</g>
</g>
<!-- Node9 -->
<g id="Node000009" class="node">
<title>Node9</title>
<g id="a_Node000009"><a xlink:href="TactixApi_8h.html" target="_top" xlink:title="Export macros, compiler attributes and version constants shared by every Tactix module.">
<polygon fill="white" stroke="#666666" points="482.62,-20.75 413.38,-20.75 413.38,0 482.62,0 482.62,-20.75"/>
<text xml:space="preserve" text-anchor="middle" x="448" y="-7.25" font-family="Helvetica,sans-Serif" font-size="10.00">TactixApi.h</text>
</a>
</g>
</g>
<!-- Node8&#45;&gt;Node9 -->
<g id="edge10_Node000008_Node000009" class="edge">
<title>Node8&#45;&gt;Node9</title>
<g id="a_edge10_Node000008_Node000009"><a xlink:title=" ">
<path fill="none" stroke="#63b8ff" d="M152.78,-56.27C224.62,-45.35 338.72,-27.99 401.97,-18.38"/>
<polygon fill="#63b8ff" stroke="#63b8ff" points="402.31,-21.86 411.67,-16.9 401.26,-14.94 402.31,-21.86"/>
</a>
</g>
</g>
<!-- Node10 -->
<g id="Node000010" class="node">
<title>Node10</title>
<g id="a_Node000010"><a xlink:title=" ">
<polygon fill="#e0e0e0" stroke="#999999" points="52,-20.75 0,-20.75 0,0 52,0 52,-20.75"/>
<text xml:space="preserve" text-anchor="middle" x="26" y="-7.25" font-family="Helvetica,sans-Serif" font-size="10.00">cstddef</text>
</a>
</g>
</g>
<!-- Node8&#45;&gt;Node10 -->
<g id="edge11_Node000008_Node000010" class="edge">
<title>Node8&#45;&gt;Node10</title>
<g id="a_edge11_Node000008_Node000010"><a xlink:title=" ">
<path fill="none" stroke="#63b8ff" d="M76.92,-56.34C68.19,-48.63 55.81,-37.7 45.44,-28.54"/>
<polygon fill="#63b8ff" stroke="#63b8ff" points="47.94,-26.08 38.12,-22.08 43.3,-31.32 47.94,-26.08"/>
</a>
</g>
</g>
<!-- Node11 -->
<g id="Node000011" class="node">
<title>Node11</title>
<g id="a_Node000011"><a xlink:title=" ">
<polygon fill="#e0e0e0" stroke="#999999" points="636.5,-20.75 587.5,-20.75 587.5,0 636.5,0 636.5,-20.75"/>
<text xml:space="preserve" text-anchor="middle" x="612" y="-7.25" font-family="Helvetica,sans-Serif" font-size="10.00">cstdint</text>
</a>
</g>
</g>
<!-- Node8&#45;&gt;Node11 -->
<g id="edge12_Node000008_Node000011" class="edge">
<title>Node8&#45;&gt;Node11</title>
<g id="a_edge12_Node000008_Node000011"><a xlink:title=" ">
<path fill="none" stroke="#63b8ff" d="M157.85,-58.83C270.82,-47.02 489.65,-24.16 575.85,-15.15"/>
<polygon fill="#63b8ff" stroke="#63b8ff" points="576.02,-18.65 585.6,-14.13 575.29,-11.69 576.02,-18.65"/>
</a>
</g>
</g>
<!-- Node12 -->
<g id="Node000012" class="node">
<title>Node12</title>
<g id="a_Node000012"><a xlink:title=" ">
<polygon fill="#e0e0e0" stroke="#999999" points="106.12,-20.75 69.88,-20.75 69.88,0 106.12,0 106.12,-20.75"/>
<text xml:space="preserve" text-anchor="middle" x="88" y="-7.25" font-family="Helvetica,sans-Serif" font-size="10.00">new</text>
</a>
</g>
</g>
<!-- Node8&#45;&gt;Node12 -->
<g id="edge13_Node000008_Node000012" class="edge">
<title>Node8&#45;&gt;Node12</title>
<g id="a_edge13_Node000008_Node000012"><a xlink:title=" ">
<path fill="none" stroke="#63b8ff" d="M88,-56.34C88,-49.72 88,-40.72 88,-32.52"/>
<polygon fill="#63b8ff" stroke="#63b8ff" points="91.5,-32.59 88,-22.59 84.5,-32.59 91.5,-32.59"/>
</a>
</g>
</g>
<!-- Node13 -->
<g id="Node000013" class="node">
<title>Node13</title>
<g id="a_Node000013"><a xlink:title=" ">
<polygon fill="#e0e0e0" stroke="#999999" points="168.25,-20.75 123.75,-20.75 123.75,0 168.25,0 168.25,-20.75"/>
<text xml:space="preserve" text-anchor="middle" x="146" y="-7.25" font-family="Helvetica,sans-Serif" font-size="10.00">utility</text>
</a>
</g>
</g>
<!-- Node8&#45;&gt;Node13 -->
<g id="edge14_Node000008_Node000013" class="edge">
<title>Node8&#45;&gt;Node13</title>
<g id="a_edge14_Node000008_Node000013"><a xlink:title=" ">
<path fill="none" stroke="#63b8ff" d="M98.37,-56.34C106.45,-48.71 117.88,-37.92 127.52,-28.82"/>
<polygon fill="#63b8ff" stroke="#63b8ff" points="129.75,-31.53 134.62,-22.12 124.95,-26.44 129.75,-31.53"/>
</a>
</g>
</g>
<!-- Node14&#45;&gt;Node9 -->
<g id="edge16_Node000014_Node000009" class="edge">
<title>Node14&#45;&gt;Node9</title>
<g id="a_edge16_Node000014_Node000009"><a xlink:title=" ">
<path fill="none" stroke="#63b8ff" d="M487.24,-113.12C487.26,-99.91 486.17,-75.8 479,-56.75 475.41,-47.21 469.41,-37.72 463.65,-29.91"/>
<polygon fill="#63b8ff" stroke="#63b8ff" points="466.53,-27.92 457.6,-22.23 461.03,-32.25 466.53,-27.92"/>
</a>
</g>
</g>
<!-- Node14&#45;&gt;Node11 -->
<g id="edge20_Node000014_Node000011" class="edge">
<title>Node14&#45;&gt;Node11</title>
<g id="a_edge20_Node000014_Node000011"><a xlink:title=" ">
<path fill="none" stroke="#63b8ff" d="M497.66,-113.37C518.68,-94.62 565.75,-52.63 592.48,-28.78"/>
<polygon fill="#63b8ff" stroke="#63b8ff" points="594.75,-31.45 599.88,-22.18 590.09,-26.23 594.75,-31.45"/>
</a>
</g>
</g>
<!-- Node15 -->
<g id="Node000015" class="node">
<title>Node15</title>
<g id="a_Node000015"><a xlink:href="FTactixWorldState_8h.html" target="_top" xlink:title="Symbolic world state for the GOAP planner: 64 boolean facts plus a &quot;defined&quot; mask.">
<polygon fill="white" stroke="#666666" points="470.38,-77.5 327.62,-77.5 327.62,-56.75 470.38,-56.75 470.38,-77.5"/>
<text xml:space="preserve" text-anchor="middle" x="399" y="-64" font-family="Helvetica,sans-Serif" font-size="10.00">GOAP/FTactixWorldState.h</text>
</a>
</g>
</g>
<!-- Node14&#45;&gt;Node15 -->
<g id="edge17_Node000014_Node000015" class="edge">
<title>Node14&#45;&gt;Node15</title>
<g id="a_edge17_Node000014_Node000015"><a xlink:title=" ">
<path fill="none" stroke="#63b8ff" d="M471.27,-113.09C458.13,-104.91 439.16,-93.11 423.95,-83.65"/>
<polygon fill="#63b8ff" stroke="#63b8ff" points="426.22,-80.94 415.88,-78.63 422.52,-86.88 426.22,-80.94"/>
</a>
</g>
</g>
<!-- Node15&#45;&gt;Node9 -->
<g id="edge18_Node000015_Node000009" class="edge">
<title>Node15&#45;&gt;Node9</title>
<g id="a_edge18_Node000015_Node000009"><a xlink:title=" ">
<path fill="none" stroke="#63b8ff" d="M407.76,-56.34C414.45,-48.86 423.85,-38.36 431.89,-29.38"/>
<polygon fill="#63b8ff" stroke="#63b8ff" points="434.25,-31.99 438.31,-22.21 429.03,-27.32 434.25,-31.99"/>
</a>
</g>
</g>
<!-- Node15&#45;&gt;Node11 -->
<g id="edge19_Node000015_Node000011" class="edge">
<title>Node15&#45;&gt;Node11</title>
<g id="a_edge19_Node000015_Node000011"><a xlink:title=" ">
<path fill="none" stroke="#63b8ff" d="M437.08,-56.34C476.61,-46.17 537.96,-30.41 576.51,-20.5"/>
<polygon fill="#63b8ff" stroke="#63b8ff" points="576.94,-24 585.75,-18.12 575.19,-17.22 576.94,-24"/>
</a>
</g>
</g>
<!-- Node16&#45;&gt;Node9 -->
<g id="edge22_Node000016_Node000009" class="edge">
<title>Node16&#45;&gt;Node9</title>
<g id="a_edge22_Node000016_Node000009"><a xlink:title=" ">
<path fill="none" stroke="#63b8ff" d="M309.84,-113.14C294.58,-99.74 272.02,-75.18 286,-56.75 300.02,-38.26 359.07,-25.24 401.84,-18.02"/>
<polygon fill="#63b8ff" stroke="#63b8ff" points="402.34,-21.49 411.65,-16.43 401.21,-14.58 402.34,-21.49"/>
</a>
</g>
</g>
<!-- Node16&#45;&gt;Node11 -->
<g id="edge24_Node000016_Node000011" class="edge">
<title>Node16&#45;&gt;Node11</title>
<g id="a_edge24_Node000016_Node000011"><a xlink:title=" ">
<path fill="none" stroke="#63b8ff" d="M317.8,-113C312.49,-98.77 305.54,-72.46 319,-56.75 335.57,-37.41 501.64,-20.85 576.15,-14.34"/>
<polygon fill="#63b8ff" stroke="#63b8ff" points="576.11,-17.85 585.78,-13.51 575.51,-10.88 576.11,-17.85"/>
</a>
</g>
</g>
<!-- Node16&#45;&gt;Node15 -->
<g id="edge23_Node000016_Node000015" class="edge">
<title>Node16&#45;&gt;Node15</title>
<g id="a_edge23_Node000016_Node000015"><a xlink:title=" ">
<path fill="none" stroke="#63b8ff" d="M335.77,-113.09C346.93,-105.15 362.92,-93.78 376.02,-84.46"/>
<polygon fill="#63b8ff" stroke="#63b8ff" points="378,-87.35 384.12,-78.71 373.94,-81.65 378,-87.35"/>
</a>
</g>
</g>
<!-- Node18&#45;&gt;Node3 -->
<g id="edge27_Node000018_Node000003" class="edge">
<title>Node18&#45;&gt;Node3</title>
<g id="a_edge27_Node000018_Node000003"><a xlink:title=" ">
<path fill="none" stroke="#63b8ff" d="M714.92,-232.93C694.78,-223.08 663.52,-207.8 640.35,-196.47"/>
<polygon fill="#63b8ff" stroke="#63b8ff" points="641.91,-193.34 631.39,-192.09 638.84,-199.62 641.91,-193.34"/>
</a>
</g>
</g>
<!-- Node19 -->
<g id="Node000019" class="node">
<title>Node19</title>
<g id="a_Node000019"><a xlink:title=" ">
<polygon fill="#e0e0e0" stroke="#999999" points="1056.62,-191 885.38,-191 885.38,-170.25 1056.62,-170.25 1056.62,-191"/>
<text xml:space="preserve" text-anchor="middle" x="971" y="-177.5" font-family="Helvetica,sans-Serif" font-size="10.00">Components/ActorComponent.h</text>
</a>
</g>
</g>
<!-- Node18&#45;&gt;Node19 -->
<g id="edge28_Node000018_Node000019" class="edge">
<title>Node18&#45;&gt;Node19</title>
<g id="a_edge28_Node000018_Node000019"><a xlink:title=" ">
<path fill="none" stroke="#63b8ff" d="M772.92,-232.93C813.43,-222.44 877.79,-205.77 922.09,-194.29"/>
<polygon fill="#63b8ff" stroke="#63b8ff" points="922.91,-197.7 931.71,-191.8 921.15,-190.92 922.91,-197.7"/>
</a>
</g>
</g>
<!-- Node20 -->
<g id="Node000020" class="node">
<title>Node20</title>
<g id="a_Node000020"><a xlink:href="ITactixAgent_8h.html" target="_top" xlink:title="The engine&#45;agnostic contract a &quot;thinking&quot; entity implements to take part in Tactix systems.">
<polygon fill="white" stroke="#666666" points="839.25,-134.25 722.75,-134.25 722.75,-113.5 839.25,-113.5 839.25,-134.25"/>
<text xml:space="preserve" text-anchor="middle" x="781" y="-120.75" font-family="Helvetica,sans-Serif" font-size="10.00">Agent/ITactixAgent.h</text>
</a>
</g>
</g>
<!-- Node18&#45;&gt;Node20 -->
<g id="edge29_Node000018_Node000020" class="edge">
<title>Node18&#45;&gt;Node20</title>
<g id="a_edge29_Node000018_Node000020"><a xlink:title=" ">
<path fill="none" stroke="#63b8ff" d="M724.7,-233.07C710.91,-218.88 689.53,-191.79 702,-170.25 710.1,-156.26 724.32,-146.21 738.49,-139.18"/>
<polygon fill="#63b8ff" stroke="#63b8ff" points="739.64,-142.5 747.32,-135.21 736.77,-136.12 739.64,-142.5"/>
</a>
</g>
</g>
<!-- Node22 -->
<g id="Node000022" class="node">
<title>Node22</title>
<g id="a_Node000022"><a xlink:href="FTactixAgentContext_8h.html" target="_top" xlink:title="Read&#45;only, side&#45;effect&#45;free snapshot of one agent for a single decision.">
<polygon fill="white" stroke="#666666" points="867.5,-191 710.5,-191 710.5,-170.25 867.5,-170.25 867.5,-191"/>
<text xml:space="preserve" text-anchor="middle" x="789" y="-177.5" font-family="Helvetica,sans-Serif" font-size="10.00">Agent/FTactixAgentContext.h</text>
</a>
</g>
</g>
<!-- Node18&#45;&gt;Node22 -->
<g id="edge35_Node000018_Node000022" class="edge">
<title>Node18&#45;&gt;Node22</title>
<g id="a_edge35_Node000018_Node000022"><a xlink:title=" ">
<path fill="none" stroke="#63b8ff" d="M743.68,-232.93C751.6,-223.97 763.5,-210.49 773.12,-199.6"/>
<polygon fill="#63b8ff" stroke="#63b8ff" points="775.52,-202.17 779.52,-192.35 770.28,-197.53 775.52,-202.17"/>
</a>
</g>
</g>
<!-- Node25 -->
<g id="Node000025" class="node">
<title>Node25</title>
<g id="a_Node000025"><a xlink:title=" ">
<polygon fill="#e0e0e0" stroke="#999999" points="1273.12,-191 1074.88,-191 1074.88,-170.25 1273.12,-170.25 1273.12,-191"/>
<text xml:space="preserve" text-anchor="middle" x="1174" y="-177.5" font-family="Helvetica,sans-Serif" font-size="10.00">UTactixAgentComponent.generated.h</text>
</a>
</g>
</g>
<!-- Node18&#45;&gt;Node25 -->
<g id="edge44_Node000018_Node000025" class="edge">
<title>Node18&#45;&gt;Node25</title>
<g id="a_edge44_Node000018_Node000025"><a xlink:title=" ">
<path fill="none" stroke="#63b8ff" d="M805.53,-232.93C883.66,-222.05 1009.46,-204.54 1091.94,-193.05"/>
<polygon fill="#63b8ff" stroke="#63b8ff" points="1092.36,-196.53 1101.78,-191.68 1091.39,-189.59 1092.36,-196.53"/>
</a>
</g>
</g>
<!-- Node20&#45;&gt;Node9 -->
<g id="edge30_Node000020_Node000009" class="edge">
<title>Node20&#45;&gt;Node9</title>
<g id="a_edge30_Node000020_Node000009"><a xlink:title=" ">
<path fill="none" stroke="#63b8ff" d="M751.74,-113.08C691.91,-93.04 555.5,-47.37 487.73,-24.68"/>
<polygon fill="#63b8ff" stroke="#63b8ff" points="489.1,-21.45 478.51,-21.59 486.88,-28.08 489.1,-21.45"/>
</a>
</g>
</g>
<!-- Node20&#45;&gt;Node11 -->
<g id="edge34_Node000020_Node000011" class="edge">
<title>Node20&#45;&gt;Node11</title>
<g id="a_edge34_Node000020_Node000011"><a xlink:title=" ">
<path fill="none" stroke="#63b8ff" d="M764.91,-113.18C750.03,-104.13 727.35,-90.17 708,-77.5 682.77,-60.98 654.38,-41.29 635.06,-27.71"/>
<polygon fill="#63b8ff" stroke="#63b8ff" points="637.28,-24.99 627.09,-22.09 633.25,-30.71 637.28,-24.99"/>
</a>
</g>
</g>
<!-- Node21 -->
<g id="Node000021" class="node">
<title>Node21</title>
<g id="a_Node000021"><a xlink:href="TactixHandle_8h.html" target="_top" xlink:title="Type&#45;safe generational handle: the only sanctioned way to reference a pooled object across frames.">
<polygon fill="white" stroke="#666666" points="861.5,-77.5 716.5,-77.5 716.5,-56.75 861.5,-56.75 861.5,-77.5"/>
<text xml:space="preserve" text-anchor="middle" x="789" y="-64" font-family="Helvetica,sans-Serif" font-size="10.00">Foundation/TactixHandle.h</text>
</a>
</g>
</g>
<!-- Node20&#45;&gt;Node21 -->
<g id="edge31_Node000020_Node000021" class="edge">
<title>Node20&#45;&gt;Node21</title>
<g id="a_edge31_Node000020_Node000021"><a xlink:title=" ">
<path fill="none" stroke="#63b8ff" d="M782.43,-113.09C783.41,-106.39 784.74,-97.26 785.95,-88.98"/>
<polygon fill="#63b8ff" stroke="#63b8ff" points="789.38,-89.73 787.36,-79.33 782.45,-88.71 789.38,-89.73"/>
</a>
</g>
</g>
<!-- Node21&#45;&gt;Node9 -->
<g id="edge32_Node000021_Node000009" class="edge">
<title>Node21&#45;&gt;Node9</title>
<g id="a_edge32_Node000021_Node000009"><a xlink:title=" ">
<path fill="none" stroke="#63b8ff" d="M727.64,-56.27C660.45,-45.49 554.24,-28.43 493.9,-18.74"/>
<polygon fill="#63b8ff" stroke="#63b8ff" points="494.75,-15.34 484.32,-17.21 493.64,-22.25 494.75,-15.34"/>
</a>
</g>
</g>
<!-- Node21&#45;&gt;Node11 -->
<g id="edge33_Node000021_Node000011" class="edge">
<title>Node21&#45;&gt;Node11</title>
<g id="a_edge33_Node000021_Node000011"><a xlink:title=" ">
<path fill="none" stroke="#63b8ff" d="M757.36,-56.34C726.49,-46.79 679.62,-32.29 647.5,-22.36"/>
<polygon fill="#63b8ff" stroke="#63b8ff" points="648.84,-19.11 638.25,-19.5 646.77,-25.79 648.84,-19.11"/>
</a>
</g>
</g>
<!-- Node22&#45;&gt;Node9 -->
<g id="edge36_Node000022_Node000009" class="edge">
<title>Node22&#45;&gt;Node9</title>
<g id="a_edge36_Node000022_Node000009"><a xlink:title=" ">
<path fill="none" stroke="#63b8ff" d="M710.28,-173.76C560.06,-162.49 246.92,-138.5 243,-134.25 219.38,-108.59 253.61,-74.89 278,-56.75 314.16,-29.85 365.1,-18.89 401.78,-14.42"/>
<polygon fill="#63b8ff" stroke="#63b8ff" points="402.08,-17.91 411.65,-13.35 401.33,-10.95 402.08,-17.91"/>
</a>
</g>
</g>
<!-- Node22&#45;&gt;Node11 -->
<g id="edge43_Node000022_Node000011" class="edge">
<title>Node22&#45;&gt;Node11</title>
<g id="a_edge43_Node000022_Node000011"><a xlink:title=" ">
<path fill="none" stroke="#63b8ff" d="M854.19,-169.75C941.42,-153.95 1079.14,-118.3 1024,-56.75 999.11,-28.96 744.18,-16.42 648.24,-12.66"/>
<polygon fill="#63b8ff" stroke="#63b8ff" points="648.48,-9.16 638.35,-12.28 648.21,-16.16 648.48,-9.16"/>
</a>
</g>
</g>
<!-- Node22&#45;&gt;Node20 -->
<g id="edge42_Node000022_Node000020" class="edge">
<title>Node22&#45;&gt;Node20</title>
<g id="a_edge42_Node000022_Node000020"><a xlink:title=" ">
<path fill="none" stroke="#63b8ff" d="M787.57,-169.84C786.59,-163.14 785.26,-154.01 784.05,-145.73"/>
<polygon fill="#63b8ff" stroke="#63b8ff" points="787.55,-145.46 782.64,-136.08 780.62,-146.48 787.55,-145.46"/>
</a>
</g>
</g>
<!-- Node22&#45;&gt;Node21 -->
<g id="edge37_Node000022_Node000021" class="edge">
<title>Node22&#45;&gt;Node21</title>
<g id="a_edge37_Node000022_Node000021"><a xlink:title=" ">
<path fill="none" stroke="#63b8ff" d="M809.17,-169.78C830.44,-157.92 859.42,-136.69 848,-113.5 841.91,-101.13 830.64,-91.18 819.57,-83.79"/>
<polygon fill="#63b8ff" stroke="#63b8ff" points="821.68,-80.98 811.32,-78.75 818.03,-86.95 821.68,-80.98"/>
</a>
</g>
</g>
<!-- Node23 -->
<g id="Node000023" class="node">
<title>Node23</title>
<g id="a_Node000023"><a xlink:href="TactixMath_8h.html" target="_top" xlink:title="Small, engine&#45;agnostic vector and scalar math used across Tactix.">
<polygon fill="white" stroke="#666666" points="1014.62,-77.5 879.38,-77.5 879.38,-56.75 1014.62,-56.75 1014.62,-77.5"/>
<text xml:space="preserve" text-anchor="middle" x="947" y="-64" font-family="Helvetica,sans-Serif" font-size="10.00">Foundation/TactixMath.h</text>
</a>
</g>
</g>
<!-- Node22&#45;&gt;Node23 -->
<g id="edge38_Node000022_Node000023" class="edge">
<title>Node22&#45;&gt;Node23</title>
<g id="a_edge38_Node000022_Node000023"><a xlink:title=" ">
<path fill="none" stroke="#63b8ff" d="M806.11,-169.9C821.34,-161.06 844.08,-147.43 863,-134.25 885.61,-118.5 910.26,-98.77 926.97,-84.98"/>
<polygon fill="#63b8ff" stroke="#63b8ff" points="928.75,-88.04 934.21,-78.96 924.28,-82.66 928.75,-88.04"/>
</a>
</g>
</g>
<!-- Node23&#45;&gt;Node9 -->
<g id="edge39_Node000023_Node000009" class="edge">
<title>Node23&#45;&gt;Node9</title>
<g id="a_edge39_Node000023_Node000009"><a xlink:title=" ">
<path fill="none" stroke="#63b8ff" d="M879.05,-57.69C876.33,-57.37 873.64,-57.05 871,-56.75 734.21,-40.98 572.32,-24.11 494.43,-16.11"/>
<polygon fill="#63b8ff" stroke="#63b8ff" points="494.93,-12.64 484.62,-15.11 494.21,-19.61 494.93,-12.64"/>
</a>
</g>
</g>
<!-- Node23&#45;&gt;Node11 -->
<g id="edge41_Node000023_Node000011" class="edge">
<title>Node23&#45;&gt;Node11</title>
<g id="a_edge41_Node000023_Node000011"><a xlink:title=" ">
<path fill="none" stroke="#63b8ff" d="M886.72,-56.27C817.25,-44.92 705.34,-26.63 648.16,-17.28"/>
<polygon fill="#63b8ff" stroke="#63b8ff" points="648.75,-13.84 638.32,-15.68 647.62,-20.74 648.75,-13.84"/>
</a>
</g>
</g>
<!-- Node24 -->
<g id="Node000024" class="node">
<title>Node24</title>
<g id="a_Node000024"><a xlink:title=" ">
<polygon fill="#e0e0e0" stroke="#999999" points="970.38,-20.75 923.62,-20.75 923.62,0 970.38,0 970.38,-20.75"/>
<text xml:space="preserve" text-anchor="middle" x="947" y="-7.25" font-family="Helvetica,sans-Serif" font-size="10.00">cmath</text>
</a>
</g>
</g>
<!-- Node23&#45;&gt;Node24 -->
<g id="edge40_Node000023_Node000024" class="edge">
<title>Node23&#45;&gt;Node24</title>
<g id="a_edge40_Node000023_Node000024"><a xlink:title=" ">
<path fill="none" stroke="#63b8ff" d="M947,-56.34C947,-49.72 947,-40.72 947,-32.52"/>
<polygon fill="#63b8ff" stroke="#63b8ff" points="950.5,-32.59 947,-22.59 943.5,-32.59 950.5,-32.59"/>
</a>
</g>
</g>
<!-- Node26&#45;&gt;Node9 -->
<g id="edge46_Node000026_Node000009" class="edge">
<title>Node26&#45;&gt;Node9</title>
<g id="a_edge46_Node000026_Node000009"><a xlink:title=" ">
<path fill="none" stroke="#63b8ff" d="M132.7,-113.02C147.79,-98.3 178.46,-70.8 210,-56.75 272.78,-28.78 352.38,-18.03 401.75,-13.91"/>
<polygon fill="#63b8ff" stroke="#63b8ff" points="401.81,-17.42 411.51,-13.16 401.27,-10.44 401.81,-17.42"/>
</a>
</g>
</g>
<!-- Node26&#45;&gt;Node15 -->
<g id="edge47_Node000026_Node000015" class="edge">
<title>Node26&#45;&gt;Node15</title>
<g id="a_edge47_Node000026_Node000015"><a xlink:title=" ">
<path fill="none" stroke="#63b8ff" d="M172.66,-113.02C219.02,-103.83 288.34,-90.08 338.04,-80.22"/>
<polygon fill="#63b8ff" stroke="#63b8ff" points="338.66,-83.66 347.79,-78.28 337.3,-76.8 338.66,-83.66"/>
</a>
</g>
</g>
<!-- Node27&#45;&gt;Node9 -->
<g id="edge49_Node000027_Node000009" class="edge">
<title>Node27&#45;&gt;Node9</title>
<g id="a_edge49_Node000027_Node000009"><a xlink:title=" ">
<path fill="none" stroke="#63b8ff" d="M626.04,-113.18C592.11,-93.78 515.66,-50.06 474.86,-26.73"/>
<polygon fill="#63b8ff" stroke="#63b8ff" points="476.8,-23.81 466.38,-21.88 473.32,-29.89 476.8,-23.81"/>
</a>
</g>
</g>
<!-- Node27&#45;&gt;Node11 -->
<g id="edge51_Node000027_Node000011" class="edge">
<title>Node27&#45;&gt;Node11</title>
<g id="a_edge51_Node000027_Node000011"><a xlink:title=" ">
<path fill="none" stroke="#63b8ff" d="M640.36,-113.37C635.37,-95.44 624.48,-56.25 617.74,-32.01"/>
<polygon fill="#63b8ff" stroke="#63b8ff" points="621.18,-31.33 615.13,-22.63 614.44,-33.21 621.18,-31.33"/>
</a>
</g>
</g>
<!-- Node27&#45;&gt;Node15 -->
<g id="edge50_Node000027_Node000015" class="edge">
<title>Node27&#45;&gt;Node15</title>
<g id="a_edge50_Node000027_Node000015"><a xlink:title=" ">
<path fill="none" stroke="#63b8ff" d="M599.1,-113.02C558.45,-103.9 497.86,-90.31 454.01,-80.47"/>
<polygon fill="#63b8ff" stroke="#63b8ff" points="454.96,-77.1 444.44,-78.32 453.43,-83.93 454.96,-77.1"/>
</a>
</g>
</g>
</g>
</svg>
