<?xml version="1.0" encoding="UTF-8" standalone="no"?>
<!DOCTYPE svg PUBLIC "-//W3C//DTD SVG 1.1//EN"
 "http://www.w3.org/Graphics/SVG/1.1/DTD/svg11.dtd">
<!-- Generated by graphviz version 14.1.5 (0)
 -->
<!-- Title: Source/TactixUE/Public/Components/UTactixAgentComponent.h Pages: 1 -->
<svg width="714pt" height="269pt"
 viewBox="0.00 0.00 714.00 269.00" xmlns="http://www.w3.org/2000/svg" xmlns:xlink="http://www.w3.org/1999/xlink">
<g id="graph0" class="graph" transform="scale(1 1) rotate(0) translate(4 264.5)">
<title>Source/TactixUE/Public/Components/UTactixAgentComponent.h</title>
<!-- Node1 -->
<g id="Node000001" class="node">
<title>Node1</title>
<g id="a_Node000001"><a xlink:title="The component that makes a pawn a Tactix agent.">
<polygon fill="#999999" stroke="#666666" points="479.25,-260.5 266,-260.5 266,-227 479.25,-227 479.25,-260.5"/>
<text xml:space="preserve" text-anchor="start" x="274" y="-247" font-family="Helvetica,sans-Serif" font-size="10.00">Source/TactixUE/Public</text>
<text xml:space="preserve" text-anchor="middle" x="372.62" y="-234.25" font-family="Helvetica,sans-Serif" font-size="10.00">/Components/UTactixAgentComponent.h</text>
</a>
</g>
</g>
<!-- Node2 -->
<g id="Node000002" class="node">
<title>Node2</title>
<g id="a_Node000002"><a xlink:title=" ">
<polygon fill="#e0e0e0" stroke="#999999" points="87.25,-191 0,-191 0,-170.25 87.25,-170.25 87.25,-191"/>
<text xml:space="preserve" text-anchor="middle" x="43.62" y="-177.5" font-family="Helvetica,sans-Serif" font-size="10.00">CoreMinimal.h</text>
</a>
</g>
</g>
<!-- Node1&#45;&gt;Node2 -->
<g id="edge1_Node000001_Node000002" class="edge">
<title>Node1&#45;&gt;Node2</title>
<g id="a_edge1_Node000001_Node000002"><a xlink:title=" ">
<path fill="none" stroke="#63b8ff" d="M285.32,-226.53C226.03,-215.51 149.44,-201.28 98.54,-191.83"/>
<polygon fill="#63b8ff" stroke="#63b8ff" points="99.4,-188.43 88.93,-190.04 98.13,-195.31 99.4,-188.43"/>
</a>
</g>
</g>
<!-- Node3 -->
<g id="Node000003" class="node">
<title>Node3</title>
<g id="a_Node000003"><a xlink:title=" ">
<polygon fill="#e0e0e0" stroke="#999999" points="276.25,-191 105,-191 105,-170.25 276.25,-170.25 276.25,-191"/>
<text xml:space="preserve" text-anchor="middle" x="190.62" y="-177.5" font-family="Helvetica,sans-Serif" font-size="10.00">Components/ActorComponent.h</text>
</a>
</g>
</g>
<!-- Node1&#45;&gt;Node3 -->
<g id="edge2_Node000001_Node000003" class="edge">
<title>Node1&#45;&gt;Node3</title>
<g id="a_edge2_Node000001_Node000003"><a xlink:title=" ">
<path fill="none" stroke="#63b8ff" d="M324.33,-226.53C295.08,-216.71 258.22,-204.33 230.61,-195.06"/>
<polygon fill="#63b8ff" stroke="#63b8ff" points="231.8,-191.76 221.21,-191.9 229.58,-198.4 231.8,-191.76"/>
</a>
</g>
</g>
<!-- Node4 -->
<g id="Node000004" class="node">
<title>Node4</title>
<g id="a_Node000004"><a xlink:href="ITactixAgent_8h.html" target="_top" xlink:title="The engine&#45;agnostic contract a &quot;thinking&quot; entity implements to take part in Tactix systems.">
<polygon fill="white" stroke="#666666" points="531.88,-134.25 415.38,-134.25 415.38,-113.5 531.88,-113.5 531.88,-134.25"/>
<text xml:space="preserve" text-anchor="middle" x="473.62" y="-120.75" font-family="Helvetica,sans-Serif" font-size="10.00">Agent/ITactixAgent.h</text>
</a>
</g>
</g>
<!-- Node1&#45;&gt;Node4 -->
<g id="edge3_Node000001_Node000004" class="edge">
<title>Node1&#45;&gt;Node4</title>
<g id="a_edge3_Node000001_Node000004"><a xlink:title=" ">
<path fill="none" stroke="#63b8ff" d="M415.75,-226.52C432.16,-218.27 449.56,-206.62 460.62,-191 469.95,-177.85 473,-159.69 473.83,-145.73"/>
<polygon fill="#63b8ff" stroke="#63b8ff" points="477.33,-145.94 474.05,-135.87 470.33,-145.79 477.33,-145.94"/>
</a>
</g>
</g>
<!-- Node8 -->
<g id="Node000008" class="node">
<title>Node8</title>
<g id="a_Node000008"><a xlink:href="FTactixAgentContext_8h.html" target="_top" xlink:title="Read&#45;only, side&#45;effect&#45;free snapshot of one agent for a single decision.">
<polygon fill="white" stroke="#666666" points="451.12,-191 294.12,-191 294.12,-170.25 451.12,-170.25 451.12,-191"/>
<text xml:space="preserve" text-anchor="middle" x="372.62" y="-177.5" font-family="Helvetica,sans-Serif" font-size="10.00">Agent/FTactixAgentContext.h</text>
</a>
</g>
</g>
<!-- Node1&#45;&gt;Node8 -->
<g id="edge9_Node000001_Node000008" class="edge">
<title>Node1&#45;&gt;Node8</title>
<g id="a_edge9_Node000001_Node000008"><a xlink:title=" ">
<path fill="none" stroke="#63b8ff" d="M372.62,-226.69C372.62,-219.35 372.62,-210.57 372.62,-202.71"/>
<polygon fill="#63b8ff" stroke="#63b8ff" points="376.13,-202.98 372.63,-192.98 369.13,-202.98 376.13,-202.98"/>
</a>
</g>
</g>
<!-- Node11 -->
<g id="Node000011" class="node">
<title>Node11</title>
<g id="a_Node000011"><a xlink:title=" ">
<polygon fill="#e0e0e0" stroke="#999999" points="705.75,-191 507.5,-191 507.5,-170.25 705.75,-170.25 705.75,-191"/>
<text xml:space="preserve" text-anchor="middle" x="606.62" y="-177.5" font-family="Helvetica,sans-Serif" font-size="10.00">UTactixAgentComponent.generated.h</text>
</a>
</g>
</g>
<!-- Node1&#45;&gt;Node11 -->
<g id="edge18_Node000001_Node000011" class="edge">
<title>Node1&#45;&gt;Node11</title>
<g id="a_edge18_Node000001_Node000011"><a xlink:title=" ">
<path fill="none" stroke="#63b8ff" d="M434.72,-226.53C473.33,-216.45 522.25,-203.67 558.02,-194.32"/>
<polygon fill="#63b8ff" stroke="#63b8ff" points="558.89,-197.71 567.68,-191.8 557.12,-190.94 558.89,-197.71"/>
</a>
</g>
</g>
<!-- Node5 -->
<g id="Node000005" class="node">
<title>Node5</title>
<g id="a_Node000005"><a xlink:href="TactixApi_8h.html" target="_top" xlink:title="Export macros, compiler attributes and version constants shared by every Tactix module.">
<polygon fill="white" stroke="#666666" points="558.25,-20.75 489,-20.75 489,0 558.25,0 558.25,-20.75"/>
<text xml:space="preserve" text-anchor="middle" x="523.62" y="-7.25" font-family="Helvetica,sans-Serif" font-size="10.00">TactixApi.h</text>
</a>
</g>
</g>
<!-- Node4&#45;&gt;Node5 -->
<g id="edge4_Node000004_Node000005" class="edge">
<title>Node4&#45;&gt;Node5</title>
<g id="a_edge4_Node000004_Node000005"><a xlink:title=" ">
<path fill="none" stroke="#63b8ff" d="M507.95,-113.15C525.5,-106.25 545.3,-95.02 555.62,-77.5 564.98,-61.64 553.6,-42.64 541.91,-29.08"/>
<polygon fill="#63b8ff" stroke="#63b8ff" points="544.81,-27.06 535.42,-22.15 539.7,-31.84 544.81,-27.06"/>
</a>
</g>
</g>
<!-- Node6 -->
<g id="Node000006" class="node">
<title>Node6</title>
<g id="a_Node000006"><a xlink:href="TactixHandle_8h.html" target="_top" xlink:title="Type&#45;safe generational handle: the only sanctioned way to reference a pooled object across frames.">
<polygon fill="white" stroke="#666666" points="546.12,-77.5 401.12,-77.5 401.12,-56.75 546.12,-56.75 546.12,-77.5"/>
<text xml:space="preserve" text-anchor="middle" x="473.62" y="-64" font-family="Helvetica,sans-Serif" font-size="10.00">Foundation/TactixHandle.h</text>
</a>
</g>
</g>
<!-- Node4&#45;&gt;Node6 -->
<g id="edge5_Node000004_Node000006" class="edge">
<title>Node4&#45;&gt;Node6</title>
<g id="a_edge5_Node000004_Node000006"><a xlink:title=" ">
<path fill="none" stroke="#63b8ff" d="M473.62,-113.09C473.62,-106.47 473.62,-97.47 473.62,-89.27"/>
<polygon fill="#63b8ff" stroke="#63b8ff" points="477.13,-89.34 473.63,-79.34 470.13,-89.34 477.13,-89.34"/>
</a>
</g>
</g>
<!-- Node7 -->
<g id="Node000007" class="node">
<title>Node7</title>
<g id="a_Node000007"><a xlink:title=" ">
<polygon fill="#e0e0e0" stroke="#999999" points="382.12,-20.75 333.12,-20.75 333.12,0 382.12,0 382.12,-20.75"/>
<text xml:space="preserve" text-anchor="middle" x="357.62" y="-7.25" font-family="Helvetica,sans-Serif" font-size="10.00">cstdint</text>
</a>
</g>
</g>
<!-- Node4&#45;&gt;Node7 -->
<g id="edge8_Node000004_Node000007" class="edge">
<title>Node4&#45;&gt;Node7</title>
<g id="a_edge8_Node000004_Node000007"><a xlink:title=" ">
<path fill="none" stroke="#63b8ff" d="M448.14,-113.15C430.81,-105.53 408.28,-93.53 392.62,-77.5 379.86,-64.43 370.56,-45.77 364.77,-31.6"/>
<polygon fill="#63b8ff" stroke="#63b8ff" points="368.09,-30.49 361.27,-22.39 361.55,-32.98 368.09,-30.49"/>
</a>
</g>
</g>
<!-- Node6&#45;&gt;Node5 -->
<g id="edge6_Node000006_Node000005" class="edge">
<title>Node6&#45;&gt;Node5</title>
<g id="a_edge6_Node000006_Node000005"><a xlink:title=" ">
<path fill="none" stroke="#63b8ff" d="M482.56,-56.34C489.39,-48.86 498.99,-38.36 507.18,-29.38"/>
<polygon fill="#63b8ff" stroke="#63b8ff" points="509.58,-31.94 513.74,-22.2 504.41,-27.22 509.58,-31.94"/>
</a>
</g>
</g>
<!-- Node6&#45;&gt;Node7 -->
<g id="edge7_Node000006_Node000007" class="edge">
<title>Node6&#45;&gt;Node7</title>
<g id="a_edge7_Node000006_Node000007"><a xlink:title=" ">
<path fill="none" stroke="#63b8ff" d="M452.89,-56.34C434.99,-47.89 408.88,-35.57 388.52,-25.96"/>
<polygon fill="#63b8ff" stroke="#63b8ff" points="390.09,-22.83 379.55,-21.72 387.1,-29.16 390.09,-22.83"/>
</a>
</g>
</g>
<!-- Node8&#45;&gt;Node4 -->
<g id="edge16_Node000008_Node000004" class="edge">
<title>Node8&#45;&gt;Node4</title>
<g id="a_edge16_Node000008_Node000004"><a xlink:title=" ">
<path fill="none" stroke="#63b8ff" d="M390.68,-169.84C406.05,-161.51 428.37,-149.41 445.98,-139.86"/>
<polygon fill="#63b8ff" stroke="#63b8ff" points="447.27,-143.14 454.39,-135.3 443.93,-136.99 447.27,-143.14"/>
</a>
</g>
</g>
<!-- Node8&#45;&gt;Node5 -->
<g id="edge10_Node000008_Node000005" class="edge">
<title>Node8&#45;&gt;Node5</title>
<g id="a_edge10_Node000008_Node000005"><a xlink:title=" ">
<path fill="none" stroke="#63b8ff" d="M451.31,-171.74C481.72,-165.47 515.23,-154.26 540.62,-134.25 569.76,-111.29 586.3,-90.82 571.62,-56.75 566.73,-45.38 557.42,-35.52 548.29,-27.93"/>
<polygon fill="#63b8ff" stroke="#63b8ff" points="550.67,-25.34 540.6,-22.04 546.41,-30.9 550.67,-25.34"/>
</a>
</g>
</g>
<!-- Node8&#45;&gt;Node6 -->
<g id="edge11_Node000008_Node000006" class="edge">
<title>Node8&#45;&gt;Node6</title>
<g id="a_edge11_Node000008_Node000006"><a xlink:title=" ">
<path fill="none" stroke="#63b8ff" d="M375.76,-170.2C380.66,-156.52 391.21,-130.89 406.62,-113.5 417.21,-101.55 431.6,-91.27 444.33,-83.53"/>
<polygon fill="#63b8ff" stroke="#63b8ff" points="445.87,-86.69 452.77,-78.65 442.36,-80.63 445.87,-86.69"/>
</a>
</g>
</g>
<!-- Node8&#45;&gt;Node7 -->
<g id="edge17_Node000008_Node000007" class="edge">
<title>Node8&#45;&gt;Node7</title>
<g id="a_edge17_Node000008_Node000007"><a xlink:title=" ">
<path fill="none" stroke="#63b8ff" d="M335.65,-169.76C294.1,-156.47 228.68,-128.39 199.62,-77.5 195.05,-69.49 194.08,-64.12 199.62,-56.75 207.09,-46.84 277.37,-29.44 321.64,-19.31"/>
<polygon fill="#63b8ff" stroke="#63b8ff" points="322.37,-22.74 331.35,-17.12 320.82,-15.91 322.37,-22.74"/>
</a>
</g>
</g>
<!-- Node9 -->
<g id="Node000009" class="node">
<title>Node9</title>
<g id="a_Node000009"><a xlink:href="TactixMath_8h.html" target="_top" xlink:title="Small, engine&#45;agnostic vector and scalar math used across Tactix.">
<polygon fill="white" stroke="#666666" points="344.25,-77.5 209,-77.5 209,-56.75 344.25,-56.75 344.25,-77.5"/>
<text xml:space="preserve" text-anchor="middle" x="276.62" y="-64" font-family="Helvetica,sans-Serif" font-size="10.00">Foundation/TactixMath.h</text>
</a>
</g>
</g>
<!-- Node8&#45;&gt;Node9 -->
<g id="edge12_Node000008_Node000009" class="edge">
<title>Node8&#45;&gt;Node9</title>
<g id="a_edge12_Node000008_Node000009"><a xlink:title=" ">
<path fill="none" stroke="#63b8ff" d="M364.44,-170.12C348.51,-151.61 313.09,-110.47 292.43,-86.48"/>
<polygon fill="#63b8ff" stroke="#63b8ff" points="295.23,-84.37 286.05,-79.07 289.92,-88.93 295.23,-84.37"/>
</a>
</g>
</g>
<!-- Node9&#45;&gt;Node5 -->
<g id="edge13_Node000009_Node000005" class="edge">
<title>Node9&#45;&gt;Node5</title>
<g id="a_edge13_Node000009_Node000005"><a xlink:title=" ">
<path fill="none" stroke="#63b8ff" d="M321.07,-56.27C365.28,-46.47 432.8,-31.51 477.57,-21.58"/>
<polygon fill="#63b8ff" stroke="#63b8ff" points="478.23,-25.02 487.23,-19.44 476.71,-18.19 478.23,-25.02"/>
</a>
</g>
</g>
<!-- Node9&#45;&gt;Node7 -->
<g id="edge15_Node000009_Node000007" class="edge">
<title>Node9&#45;&gt;Node7</title>
<g id="a_edge15_Node000009_Node000007"><a xlink:title=" ">
<path fill="none" stroke="#63b8ff" d="M291.11,-56.34C302.97,-48.32 320,-36.81 333.86,-27.44"/>
<polygon fill="#63b8ff" stroke="#63b8ff" points="335.69,-30.43 342.02,-21.93 331.77,-24.63 335.69,-30.43"/>
</a>
</g>
</g>
<!-- Node10 -->
<g id="Node000010" class="node">
<title>Node10</title>
<g id="a_Node000010"><a xlink:title=" ">
<polygon fill="#e0e0e0" stroke="#999999" points="300,-20.75 253.25,-20.75 253.25,0 300,0 300,-20.75"/>
<text xml:space="preserve" text-anchor="middle" x="276.62" y="-7.25" font-family="Helvetica,sans-Serif" font-size="10.00">cmath</text>
</a>
</g>
</g>
<!-- Node9&#45;&gt;Node10 -->
<g id="edge14_Node000009_Node000010" class="edge">
<title>Node9&#45;&gt;Node10</title>
<g id="a_edge14_Node000009_Node000010"><a xlink:title=" ">
<path fill="none" stroke="#63b8ff" d="M276.62,-56.34C276.62,-49.72 276.62,-40.72 276.62,-32.52"/>
<polygon fill="#63b8ff" stroke="#63b8ff" points="280.13,-32.59 276.63,-22.59 273.13,-32.59 280.13,-32.59"/>
</a>
</g>
</g>
</g>
</svg>
