<?xml version="1.0" encoding="UTF-8" standalone="no"?>
<!DOCTYPE svg PUBLIC "-//W3C//DTD SVG 1.1//EN"
 "http://www.w3.org/Graphics/SVG/1.1/DTD/svg11.dtd">
<!-- Generated by graphviz version 14.1.5 (0)
 -->
<!-- Title: Source/TactixUE/Public/BehaviorTree/UTactixBTDecorator_InCover.h Pages: 1 -->
<svg width="403pt" height="124pt"
 viewBox="0.00 0.00 403.00 124.00" xmlns="http://www.w3.org/2000/svg" xmlns:xlink="http://www.w3.org/1999/xlink">
<g id="graph0" class="graph" transform="scale(1 1) rotate(0) translate(4 119.75)">
<title>Source/TactixUE/Public/BehaviorTree/UTactixBTDecorator_InCover.h</title>
<!-- Node1 -->
<g id="Node000001" class="node">
<title>Node1</title>
<g id="a_Node000001"><a xlink:title="BT decorator that passes while the agent is in cover.">
<polygon fill="#999999" stroke="#666666" points="272.88,-115.75 90.38,-115.75 90.38,-69.5 272.88,-69.5 272.88,-115.75"/>
<text xml:space="preserve" text-anchor="start" x="98.38" y="-102.25" font-family="Helvetica,sans-Serif" font-size="10.00">Source/TactixUE/Public</text>
<text xml:space="preserve" text-anchor="start" x="98.38" y="-89.5" font-family="Helvetica,sans-Serif" font-size="10.00">/BehaviorTree/UTactixBTDecorator</text>
<text xml:space="preserve" text-anchor="middle" x="181.62" y="-76.75" font-family="Helvetica,sans-Serif" font-size="10.00">_InCover.h</text>
</a>
</g>
</g>
<!-- Node2 -->
<g id="Node000002" class="node">
<title>Node2</title>
<g id="a_Node000002"><a xlink:title=" ">
<polygon fill="#e0e0e0" stroke="#999999" points="87.25,-27.12 0,-27.12 0,-6.38 87.25,-6.38 87.25,-27.12"/>
<text xml:space="preserve" text-anchor="middle" x="43.62" y="-13.62" font-family="Helvetica,sans-Serif" font-size="10.00">CoreMinimal.h</text>
</a>
</g>
</g>
<!-- Node1&#45;&gt;Node2 -->
<g id="edge1_Node000001_Node000002" class="edge">
<title>Node1&#45;&gt;Node2</title>
<g id="a_edge1_Node000001_Node000002"><a xlink:title=" ">
<path fill="none" stroke="#63b8ff" d="M139.47,-69.06C117.53,-57.32 91.31,-43.28 71.84,-32.85"/>
<polygon fill="#63b8ff" stroke="#63b8ff" points="73.59,-29.82 63.12,-28.19 70.29,-35.99 73.59,-29.82"/>
</a>
</g>
</g>
<!-- Node3 -->
<g id="Node000003" class="node">
<title>Node3</title>
<g id="a_Node000003"><a xlink:title=" ">
<polygon fill="#e0e0e0" stroke="#999999" points="257.5,-27.12 105.75,-27.12 105.75,-6.38 257.5,-6.38 257.5,-27.12"/>
<text xml:space="preserve" text-anchor="middle" x="181.62" y="-13.62" font-family="Helvetica,sans-Serif" font-size="10.00">BehaviorTree/BTDecorator.h</text>
</a>
</g>
</g>
<!-- Node1&#45;&gt;Node3 -->
<g id="edge2_Node000001_Node000003" class="edge">
<title>Node1&#45;&gt;Node3</title>
<g id="a_edge2_Node000001_Node000003"><a xlink:title=" ">
<path fill="none" stroke="#63b8ff" d="M181.62,-69.06C181.62,-59.49 181.62,-48.4 181.62,-38.98"/>
<polygon fill="#63b8ff" stroke="#63b8ff" points="185.13,-38.99 181.63,-28.99 178.13,-38.99 185.13,-38.99"/>
</a>
</g>
</g>
<!-- Node4 -->
<g id="Node000004" class="node">
<title>Node4</title>
<g id="a_Node000004"><a xlink:title=" ">
<polygon fill="#e0e0e0" stroke="#999999" points="395.38,-33.5 275.88,-33.5 275.88,0 395.38,0 395.38,-33.5"/>
<text xml:space="preserve" text-anchor="start" x="283.88" y="-20" font-family="Helvetica,sans-Serif" font-size="10.00">UTactixBTDecorator</text>
<text xml:space="preserve" text-anchor="middle" x="335.62" y="-7.25" font-family="Helvetica,sans-Serif" font-size="10.00">_InCover.generated.h</text>
</a>
</g>
</g>
<!-- Node1&#45;&gt;Node4 -->
<g id="edge3_Node000001_Node000004" class="edge">
<title>Node1&#45;&gt;Node4</title>
<g id="a_edge3_Node000001_Node000004"><a xlink:title=" ">
<path fill="none" stroke="#63b8ff" d="M228.67,-69.06C248.76,-59.42 272.08,-48.23 291.81,-38.77"/>
<polygon fill="#63b8ff" stroke="#63b8ff" points="293.19,-41.99 300.69,-34.51 290.16,-35.68 293.19,-41.99"/>
</a>
</g>
</g>
</g>
</svg>
