<?xml version="1.0" encoding="UTF-8" standalone="no"?>
<!DOCTYPE svg PUBLIC "-//W3C//DTD SVG 1.1//EN"
 "http://www.w3.org/Graphics/SVG/1.1/DTD/svg11.dtd">
<!-- Generated by graphviz version 14.1.5 (0)
 -->
<!-- Title: Source/TactixUE/Public/BehaviorTree/UTactixBTTask_ExecutePlan.h Pages: 1 -->
<svg width="496pt" height="111pt"
 viewBox="0.00 0.00 496.00 111.00" xmlns="http://www.w3.org/2000/svg" xmlns:xlink="http://www.w3.org/1999/xlink">
<g id="graph0" class="graph" transform="scale(1 1) rotate(0) translate(4 107)">
<title>Source/TactixUE/Public/BehaviorTree/UTactixBTTask_ExecutePlan.h</title>
<!-- Node1 -->
<g id="Node000001" class="node">
<title>Node1</title>
<g id="a_Node000001"><a xlink:title="BT task that walks the controller&#39;s active GOAP or HTN plan, one step per tick.">
<polygon fill="#999999" stroke="#666666" points="259.75,-103 103.5,-103 103.5,-56.75 259.75,-56.75 259.75,-103"/>
<text xml:space="preserve" text-anchor="start" x="111.5" y="-89.5" font-family="Helvetica,sans-Serif" font-size="10.00">Source/TactixUE/Public</text>
<text xml:space="preserve" text-anchor="start" x="111.5" y="-76.75" font-family="Helvetica,sans-Serif" font-size="10.00">/BehaviorTree/UTactixBTTask</text>
<text xml:space="preserve" text-anchor="middle" x="181.62" y="-64" font-family="Helvetica,sans-Serif" font-size="10.00">_ExecutePlan.h</text>
</a>
</g>
</g>
<!-- Node2 -->
<g id="Node000002" class="node">
<title>Node2</title>
<g id="a_Node000002"><a xlink:title=" ">
<polygon fill="#e0e0e0" stroke="#999999" points="87.25,-20.75 0,-20.75 0,0 87.25,0 87.25,-20.75"/>
<text xml:space="preserve" text-anchor="middle" x="43.62" y="-7.25" font-family="Helvetica,sans-Serif" font-size="10.00">CoreMinimal.h</text>
</a>
</g>
</g>
<!-- Node1&#45;&gt;Node2 -->
<g id="edge1_Node000001_Node000002" class="edge">
<title>Node1&#45;&gt;Node2</title>
<g id="a_edge1_Node000001_Node000002"><a xlink:title=" ">
<path fill="none" stroke="#63b8ff" d="M135.67,-56.4C115.32,-46.44 91.94,-35.01 73.84,-26.15"/>
<polygon fill="#63b8ff" stroke="#63b8ff" points="75.47,-23.06 64.95,-21.81 72.39,-29.34 75.47,-23.06"/>
</a>
</g>
</g>
<!-- Node3 -->
<g id="Node000003" class="node">
<title>Node3</title>
<g id="a_Node000003"><a xlink:title=" ">
<polygon fill="#e0e0e0" stroke="#999999" points="257.5,-20.75 105.75,-20.75 105.75,0 257.5,0 257.5,-20.75"/>
<text xml:space="preserve" text-anchor="middle" x="181.62" y="-7.25" font-family="Helvetica,sans-Serif" font-size="10.00">BehaviorTree/BTTaskNode.h</text>
</a>
</g>
</g>
<!-- Node1&#45;&gt;Node3 -->
<g id="edge2_Node000001_Node000003" class="edge">
<title>Node1&#45;&gt;Node3</title>
<g id="a_edge2_Node000001_Node000003"><a xlink:title=" ">
<path fill="none" stroke="#63b8ff" d="M181.62,-56.4C181.62,-48.73 181.62,-40.19 181.62,-32.63"/>
<polygon fill="#63b8ff" stroke="#63b8ff" points="185.13,-32.65 181.63,-22.65 178.13,-32.65 185.13,-32.65"/>
</a>
</g>
</g>
<!-- Node4 -->
<g id="Node000004" class="node">
<title>Node4</title>
<g id="a_Node000004"><a xlink:title=" ">
<polygon fill="#e0e0e0" stroke="#999999" points="487.88,-20.75 275.38,-20.75 275.38,0 487.88,0 487.88,-20.75"/>
<text xml:space="preserve" text-anchor="middle" x="381.62" y="-7.25" font-family="Helvetica,sans-Serif" font-size="10.00">UTactixBTTask_ExecutePlan.generated.h</text>
</a>
</g>
</g>
<!-- Node1&#45;&gt;Node4 -->
<g id="edge3_Node000001_Node000004" class="edge">
<title>Node1&#45;&gt;Node4</title>
<g id="a_edge3_Node000001_Node000004"><a xlink:title=" ">
<path fill="none" stroke="#63b8ff" d="M248.5,-56.3C279.4,-45.88 315.06,-33.84 341.69,-24.85"/>
<polygon fill="#63b8ff" stroke="#63b8ff" points="342.72,-28.2 351.08,-21.68 340.48,-21.57 342.72,-28.2"/>
</a>
</g>
</g>
</g>
</svg>
