<?xml version="1.0" encoding="UTF-8" standalone="no"?>
<!DOCTYPE svg PUBLIC "-//W3C//DTD SVG 1.1//EN"
 "http://www.w3.org/Graphics/SVG/1.1/DTD/svg11.dtd">
<!-- Generated by graphviz version 14.1.5 (0)
 -->
<!-- Title: Source/TactixUE/Public/BehaviorTree/UTactixBTService_InfluenceQuery.h Pages: 1 -->
<svg width="587pt" height="124pt"
 viewBox="0.00 0.00 587.00 124.00" xmlns="http://www.w3.org/2000/svg" xmlns:xlink="http://www.w3.org/1999/xlink">
<g id="graph0" class="graph" transform="scale(1 1) rotate(0) translate(4 119.75)">
<title>Source/TactixUE/Public/BehaviorTree/UTactixBTService_InfluenceQuery.h</title>
<!-- Node1 -->
<g id="Node000001" class="node">
<title>Node1</title>
<g id="a_Node000001"><a xlink:title="BT service that samples the world influence map under the agent each tick into a blackboard float.">
<polygon fill="#999999" stroke="#666666" points="341.88,-115.75 171.38,-115.75 171.38,-69.5 341.88,-69.5 341.88,-115.75"/>
<text xml:space="preserve" text-anchor="start" x="179.38" y="-102.25" font-family="Helvetica,sans-Serif" font-size="10.00">Source/TactixUE/Public</text>
<text xml:space="preserve" text-anchor="start" x="179.38" y="-89.5" font-family="Helvetica,sans-Serif" font-size="10.00">/BehaviorTree/UTactixBTService</text>
<text xml:space="preserve" text-anchor="middle" x="256.62" y="-76.75" font-family="Helvetica,sans-Serif" font-size="10.00">_InfluenceQuery.h</text>
</a>
</g>
</g>
<!-- Node2 -->
<g id="Node000002" class="node">
<title>Node2</title>
<g id="a_Node000002"><a xlink:title=" ">
<polygon fill="#e0e0e0" stroke="#999999" points="87.25,-27.12 0,-27.12 0,-6.38 87.25,-6.38 87.25,-27.12"/>
<text xml:space="preserve" text-anchor="middle" x="43.62" y="-13.62" font-family="Helvetica,sans-Serif" font-size="10.00">CoreMinimal.h</text>
</a>
</g>
</g>
<!-- Node1&#45;&gt;Node2 -->
<g id="edge1_Node000001_Node000002" class="edge">
<title>Node1&#45;&gt;Node2</title>
<g id="a_edge1_Node000001_Node000002"><a xlink:title=" ">
<path fill="none" stroke="#63b8ff" d="M191.56,-69.06C155.93,-56.7 112.97,-41.8 82.55,-31.25"/>
<polygon fill="#63b8ff" stroke="#63b8ff" points="83.97,-28.04 73.37,-28.07 81.67,-34.65 83.97,-28.04"/>
</a>
</g>
</g>
<!-- Node3 -->
<g id="Node000003" class="node">
<title>Node3</title>
<g id="a_Node000003"><a xlink:title=" ">
<polygon fill="#e0e0e0" stroke="#999999" points="245.88,-27.12 105.38,-27.12 105.38,-6.38 245.88,-6.38 245.88,-27.12"/>
<text xml:space="preserve" text-anchor="middle" x="175.62" y="-13.62" font-family="Helvetica,sans-Serif" font-size="10.00">BehaviorTree/BTService.h</text>
</a>
</g>
</g>
<!-- Node1&#45;&gt;Node3 -->
<g id="edge2_Node000001_Node000003" class="edge">
<title>Node1&#45;&gt;Node3</title>
<g id="a_edge2_Node000001_Node000003"><a xlink:title=" ">
<path fill="none" stroke="#63b8ff" d="M231.88,-69.06C219.96,-58.19 205.88,-45.34 194.79,-35.23"/>
<polygon fill="#63b8ff" stroke="#63b8ff" points="197.15,-32.65 187.41,-28.49 192.44,-37.82 197.15,-32.65"/>
</a>
</g>
</g>
<!-- Node4 -->
<g id="Node000004" class="node">
<title>Node4</title>
<g id="a_Node000004"><a xlink:title=" ">
<polygon fill="#e0e0e0" stroke="#999999" points="410.88,-33.5 264.38,-33.5 264.38,0 410.88,0 410.88,-33.5"/>
<text xml:space="preserve" text-anchor="start" x="272.38" y="-20" font-family="Helvetica,sans-Serif" font-size="10.00">BehaviorTree/BehaviorTree</text>
<text xml:space="preserve" text-anchor="middle" x="337.62" y="-7.25" font-family="Helvetica,sans-Serif" font-size="10.00">Types.h</text>
</a>
</g>
</g>
<!-- Node1&#45;&gt;Node4 -->
<g id="edge3_Node000001_Node000004" class="edge">
<title>Node1&#45;&gt;Node4</title>
<g id="a_edge3_Node000001_Node000004"><a xlink:title=" ">
<path fill="none" stroke="#63b8ff" d="M281.37,-69.06C290.91,-60.35 301.84,-50.38 311.52,-41.56"/>
<polygon fill="#63b8ff" stroke="#63b8ff" points="313.82,-44.2 318.85,-34.87 309.1,-39.03 313.82,-44.2"/>
</a>
</g>
</g>
<!-- Node5 -->
<g id="Node000005" class="node">
<title>Node5</title>
<g id="a_Node000005"><a xlink:title=" ">
<polygon fill="#e0e0e0" stroke="#999999" points="578.75,-33.5 428.5,-33.5 428.5,0 578.75,0 578.75,-33.5"/>
<text xml:space="preserve" text-anchor="start" x="436.5" y="-20" font-family="Helvetica,sans-Serif" font-size="10.00">UTactixBTService_Influence</text>
<text xml:space="preserve" text-anchor="middle" x="503.62" y="-7.25" font-family="Helvetica,sans-Serif" font-size="10.00">Query.generated.h</text>
</a>
</g>
</g>
<!-- Node1&#45;&gt;Node5 -->
<g id="edge4_Node000001_Node000005" class="edge">
<title>Node1&#45;&gt;Node5</title>
<g id="a_edge4_Node000001_Node000005"><a xlink:title=" ">
<path fill="none" stroke="#63b8ff" d="M332.08,-69.06C366.11,-58.88 405.91,-46.98 438.6,-37.2"/>
<polygon fill="#63b8ff" stroke="#63b8ff" points="439.37,-40.62 447.95,-34.4 437.36,-33.92 439.37,-40.62"/>
</a>
</g>
</g>
</g>
</svg>
