<?xml version="1.0" encoding="UTF-8" standalone="no"?>
<!DOCTYPE svg PUBLIC "-//W3C//DTD SVG 1.1//EN"
 "http://www.w3.org/Graphics/SVG/1.1/DTD/svg11.dtd">
<!-- Generated by graphviz version 14.1.5 (0)
 -->
<!-- Title: Source/TactixUE/Private/BehaviorTree/UTactixBTDecorator_InCover.cpp Pages: 1 -->
<svg width="1459pt" height="364pt"
 viewBox="0.00 0.00 1459.00 364.00" xmlns="http://www.w3.org/2000/svg" xmlns:xlink="http://www.w3.org/1999/xlink">
<g id="graph0" class="graph" transform="scale(1 1) rotate(0) translate(4 359.5)">
<title>Source/TactixUE/Private/BehaviorTree/UTactixBTDecorator_InCover.cpp</title>
<!-- Node1 -->
<g id="Node000001" class="node">
<title>Node1</title>
<g id="a_Node000001"><a xlink:title="Implements the in&#45;cover decorator condition.">
<polygon fill="#999999" stroke="#666666" points="524.12,-355.5 341.62,-355.5 341.62,-309.25 524.12,-309.25 524.12,-355.5"/>
<text xml:space="preserve" text-anchor="start" x="349.62" y="-342" font-family="Helvetica,sans-Serif" font-size="10.00">Source/TactixUE/Private</text>
<text xml:space="preserve" text-anchor="start" x="349.62" y="-329.25" font-family="Helvetica,sans-Serif" font-size="10.00">/BehaviorTree/UTactixBTDecorator</text>
<text xml:space="preserve" text-anchor="middle" x="432.88" y="-316.5" font-family="Helvetica,sans-Serif" font-size="10.00">_InCover.cpp</text>
</a>
</g>
</g>
<!-- Node2 -->
<g id="Node000002" class="node">
<title>Node2</title>
<g id="a_Node000002"><a xlink:href="UTactixBTDecorator__InCover_8h.html" target="_top" xlink:title="BT decorator that passes while the agent is in cover.">
<polygon fill="white" stroke="#666666" points="334.62,-273.25 155.12,-273.25 155.12,-239.75 334.62,-239.75 334.62,-273.25"/>
<text xml:space="preserve" text-anchor="start" x="163.12" y="-259.75" font-family="Helvetica,sans-Serif" font-size="10.00">BehaviorTree/UTactixBTDecorator</text>
<text xml:space="preserve" text-anchor="middle" x="244.88" y="-247" font-family="Helvetica,sans-Serif" font-size="10.00">_InCover.h</text>
</a>
</g>
</g>
<!-- Node1&#45;&gt;Node2 -->
<g id="edge1_Node000001_Node000002" class="edge">
<title>Node1&#45;&gt;Node2</title>
<g id="a_edge1_Node000001_Node000002"><a xlink:title=" ">
<path fill="none" stroke="#63b8ff" d="M375.45,-308.81C350.33,-298.94 321.09,-287.45 296.65,-277.85"/>
<polygon fill="#63b8ff" stroke="#63b8ff" points="298.15,-274.67 287.56,-274.27 295.59,-281.19 298.15,-274.67"/>
</a>
</g>
</g>
<!-- Node6 -->
<g id="Node000006" class="node">
<title>Node6</title>
<g id="a_Node000006"><a xlink:title=" ">
<polygon fill="#e0e0e0" stroke="#999999" points="389.88,-197.38 307.88,-197.38 307.88,-176.62 389.88,-176.62 389.88,-197.38"/>
<text xml:space="preserve" text-anchor="middle" x="348.88" y="-183.88" font-family="Helvetica,sans-Serif" font-size="10.00">AIController.h</text>
</a>
</g>
</g>
<!-- Node1&#45;&gt;Node6 -->
<g id="edge5_Node000001_Node000006" class="edge">
<title>Node1&#45;&gt;Node6</title>
<g id="a_edge5_Node000001_Node000006"><a xlink:title=" ">
<path fill="none" stroke="#63b8ff" d="M418.64,-308.87C411.93,-298.15 403.88,-285.1 396.88,-273.25 383.76,-251.06 369.33,-225.22 359.75,-207.86"/>
<polygon fill="#63b8ff" stroke="#63b8ff" points="362.83,-206.2 354.94,-199.12 356.69,-209.57 362.83,-206.2"/>
</a>
</g>
</g>
<!-- Node7 -->
<g id="Node000007" class="node">
<title>Node7</title>
<g id="a_Node000007"><a xlink:href="ATactixAIController_8h.html" target="_top" xlink:title="Base AIController for Tactix&#45;aware pawns.">
<polygon fill="white" stroke="#666666" points="573.62,-266.88 406.12,-266.88 406.12,-246.12 573.62,-246.12 573.62,-266.88"/>
<text xml:space="preserve" text-anchor="middle" x="489.88" y="-253.38" font-family="Helvetica,sans-Serif" font-size="10.00">Controller/ATactixAIController.h</text>
</a>
</g>
</g>
<!-- Node1&#45;&gt;Node7 -->
<g id="edge6_Node000001_Node000007" class="edge">
<title>Node1&#45;&gt;Node7</title>
<g id="a_edge6_Node000001_Node000007"><a xlink:title=" ">
<path fill="none" stroke="#63b8ff" d="M450.29,-308.81C458.34,-298.37 467.79,-286.12 475.44,-276.2"/>
<polygon fill="#63b8ff" stroke="#63b8ff" points="478.11,-278.48 481.45,-268.42 472.57,-274.2 478.11,-278.48"/>
</a>
</g>
</g>
<!-- Node18 -->
<g id="Node000018" class="node">
<title>Node18</title>
<g id="a_Node000018"><a xlink:href="UTactixAgentComponent_8h.html" target="_top" xlink:title="The component that makes a pawn a Tactix agent.">
<polygon fill="white" stroke="#666666" points="1018,-266.88 807.75,-266.88 807.75,-246.12 1018,-246.12 1018,-266.88"/>
<text xml:space="preserve" text-anchor="middle" x="912.88" y="-253.38" font-family="Helvetica,sans-Serif" font-size="10.00">Components/UTactixAgentComponent.h</text>
</a>
</g>
</g>
<!-- Node1&#45;&gt;Node18 -->
<g id="edge26_Node000001_Node000018" class="edge">
<title>Node1&#45;&gt;Node18</title>
<g id="a_edge26_Node000001_Node000018"><a xlink:title=" ">
<path fill="none" stroke="#63b8ff" d="M524.57,-317.26C615.37,-303.29 752.73,-282.15 837.41,-269.11"/>
<polygon fill="#63b8ff" stroke="#63b8ff" points="837.9,-272.58 847.25,-267.6 836.83,-265.66 837.9,-272.58"/>
</a>
</g>
</g>
<!-- Node3 -->
<g id="Node000003" class="node">
<title>Node3</title>
<g id="a_Node000003"><a xlink:title=" ">
<polygon fill="#e0e0e0" stroke="#999999" points="533.5,-197.38 446.25,-197.38 446.25,-176.62 533.5,-176.62 533.5,-197.38"/>
<text xml:space="preserve" text-anchor="middle" x="489.88" y="-183.88" font-family="Helvetica,sans-Serif" font-size="10.00">CoreMinimal.h</text>
</a>
</g>
</g>
<!-- Node2&#45;&gt;Node3 -->
<g id="edge2_Node000002_Node000003" class="edge">
<title>Node2&#45;&gt;Node3</title>
<g id="a_edge2_Node000002_Node000003"><a xlink:title=" ">
<path fill="none" stroke="#63b8ff" d="M303.56,-239.33C346.3,-227.56 403.42,-211.82 443.1,-200.89"/>
<polygon fill="#63b8ff" stroke="#63b8ff" points="443.88,-204.3 452.59,-198.27 442.02,-197.55 443.88,-204.3"/>
</a>
</g>
</g>
<!-- Node4 -->
<g id="Node000004" class="node">
<title>Node4</title>
<g id="a_Node000004"><a xlink:title=" ">
<polygon fill="#e0e0e0" stroke="#999999" points="151.75,-197.38 0,-197.38 0,-176.62 151.75,-176.62 151.75,-197.38"/>
<text xml:space="preserve" text-anchor="middle" x="75.88" y="-183.88" font-family="Helvetica,sans-Serif" font-size="10.00">BehaviorTree/BTDecorator.h</text>
</a>
</g>
</g>
<!-- Node2&#45;&gt;Node4 -->
<g id="edge3_Node000002_Node000004" class="edge">
<title>Node2&#45;&gt;Node4</title>
<g id="a_edge3_Node000002_Node000004"><a xlink:title=" ">
<path fill="none" stroke="#63b8ff" d="M204.4,-239.33C175.9,-227.95 138.14,-212.87 110.93,-202"/>
<polygon fill="#63b8ff" stroke="#63b8ff" points="112.33,-198.79 101.74,-198.33 109.73,-205.29 112.33,-198.79"/>
</a>
</g>
</g>
<!-- Node5 -->
<g id="Node000005" class="node">
<title>Node5</title>
<g id="a_Node000005"><a xlink:title=" ">
<polygon fill="#e0e0e0" stroke="#999999" points="289.62,-203.75 170.12,-203.75 170.12,-170.25 289.62,-170.25 289.62,-203.75"/>
<text xml:space="preserve" text-anchor="start" x="178.12" y="-190.25" font-family="Helvetica,sans-Serif" font-size="10.00">UTactixBTDecorator</text>
<text xml:space="preserve" text-anchor="middle" x="229.88" y="-177.5" font-family="Helvetica,sans-Serif" font-size="10.00">_InCover.generated.h</text>
</a>
</g>
</g>
<!-- Node2&#45;&gt;Node5 -->
<g id="edge4_Node000002_Node000005" class="edge">
<title>Node2&#45;&gt;Node5</title>
<g id="a_edge4_Node000002_Node000005"><a xlink:title=" ">
<path fill="none" stroke="#63b8ff" d="M241.32,-239.5C239.69,-232.19 237.72,-223.32 235.88,-215.02"/>
<polygon fill="#63b8ff" stroke="#63b8ff" points="239.32,-214.36 233.73,-205.36 232.49,-215.88 239.32,-214.36"/>
</a>
</g>
</g>
<!-- Node7&#45;&gt;Node3 -->
<g id="edge7_Node000007_Node000003" class="edge">
<title>Node7&#45;&gt;Node3</title>
<g id="a_edge7_Node000007_Node000003"><a xlink:title=" ">
<path fill="none" stroke="#63b8ff" d="M489.88,-245.83C489.88,-236.21 489.88,-221.13 489.88,-208.79"/>
<polygon fill="#63b8ff" stroke="#63b8ff" points="493.38,-209.17 489.88,-199.17 486.38,-209.17 493.38,-209.17"/>
</a>
</g>
</g>
<!-- Node7&#45;&gt;Node6 -->
<g id="edge8_Node000007_Node000006" class="edge">
<title>Node7&#45;&gt;Node6</title>
<g id="a_edge8_Node000007_Node000006"><a xlink:title=" ">
<path fill="none" stroke="#63b8ff" d="M469.37,-245.68C445.77,-234.39 406.77,-215.72 379.55,-202.69"/>
<polygon fill="#63b8ff" stroke="#63b8ff" points="381.3,-199.64 370.77,-198.48 378.28,-205.96 381.3,-199.64"/>
</a>
</g>
</g>
<!-- Node8 -->
<g id="Node000008" class="node">
<title>Node8</title>
<g id="a_Node000008"><a xlink:href="TactixArena_8h.html" target="_top" xlink:title="Bump (linear) allocator for short&#45;lived scratch memory.">
<polygon fill="white" stroke="#666666" points="487.38,-77.5 348.38,-77.5 348.38,-56.75 487.38,-56.75 487.38,-77.5"/>
<text xml:space="preserve" text-anchor="middle" x="417.88" y="-64" font-family="Helvetica,sans-Serif" font-size="10.00">Foundation/TactixArena.h</text>
</a>
</g>
</g>
<!-- Node7&#45;&gt;Node8 -->
<g id="edge9_Node000007_Node000008" class="edge">
<title>Node7&#45;&gt;Node8</title>
<g id="a_edge9_Node000007_Node000008"><a xlink:title=" ">
<path fill="none" stroke="#63b8ff" d="M475.6,-245.82C463.18,-236.56 445.81,-221.42 436.88,-203.75 418.16,-166.75 416.13,-117.23 416.73,-89.41"/>
<polygon fill="#63b8ff" stroke="#63b8ff" points="420.23,-89.6 417.1,-79.47 413.23,-89.34 420.23,-89.6"/>
</a>
</g>
</g>
<!-- Node14 -->
<g id="Node000014" class="node">
<title>Node14</title>
<g id="a_Node000014"><a xlink:href="FTactixGOAPPlanner_8h.html" target="_top" xlink:title="A* planner over the GOAP world&#45;state graph.">
<polygon fill="white" stroke="#666666" points="641.5,-134.25 488.25,-134.25 488.25,-113.5 641.5,-113.5 641.5,-134.25"/>
<text xml:space="preserve" text-anchor="middle" x="564.88" y="-120.75" font-family="Helvetica,sans-Serif" font-size="10.00">GOAP/FTactixGOAPPlanner.h</text>
</a>
</g>
</g>
<!-- Node7&#45;&gt;Node14 -->
<g id="edge15_Node000007_Node000014" class="edge">
<title>Node7&#45;&gt;Node14</title>
<g id="a_edge15_Node000007_Node000014"><a xlink:title=" ">
<path fill="none" stroke="#63b8ff" d="M573.9,-248.46C635.02,-241.39 710.33,-227.96 729.88,-203.75 758.28,-168.56 704,-148.11 650.25,-136.9"/>
<polygon fill="#63b8ff" stroke="#63b8ff" points="651.15,-133.51 640.66,-135 649.79,-140.37 651.15,-133.51"/>
</a>
</g>
</g>
<!-- Node16 -->
<g id="Node000016" class="node">
<title>Node16</title>
<g id="a_Node000016"><a xlink:href="FTactixHTNPlanner_8h.html" target="_top" xlink:title="Depth&#45;first HTN planner with method&#45;order fallback and backtracking.">
<polygon fill="white" stroke="#666666" points="799.75,-134.25 660,-134.25 660,-113.5 799.75,-113.5 799.75,-134.25"/>
<text xml:space="preserve" text-anchor="middle" x="729.88" y="-120.75" font-family="Helvetica,sans-Serif" font-size="10.00">HTN/FTactixHTNPlanner.h</text>
</a>
</g>
</g>
<!-- Node7&#45;&gt;Node16 -->
<g id="edge21_Node000007_Node000016" class="edge">
<title>Node7&#45;&gt;Node16</title>
<g id="a_edge21_Node000007_Node000016"><a xlink:title=" ">
<path fill="none" stroke="#63b8ff" d="M574.11,-249.93C640.75,-243.55 726.09,-230.34 747.88,-203.75 761.66,-186.93 752.18,-161.59 742.54,-144.2"/>
<polygon fill="#63b8ff" stroke="#63b8ff" points="745.66,-142.6 737.5,-135.84 739.67,-146.22 745.66,-142.6"/>
</a>
</g>
</g>
<!-- Node17 -->
<g id="Node000017" class="node">
<title>Node17</title>
<g id="a_Node000017"><a xlink:title=" ">
<polygon fill="#e0e0e0" stroke="#999999" points="720.38,-197.38 551.38,-197.38 551.38,-176.62 720.38,-176.62 720.38,-197.38"/>
<text xml:space="preserve" text-anchor="middle" x="635.88" y="-183.88" font-family="Helvetica,sans-Serif" font-size="10.00">ATactixAIController.generated.h</text>
</a>
</g>
</g>
<!-- Node7&#45;&gt;Node17 -->
<g id="edge25_Node000007_Node000017" class="edge">
<title>Node7&#45;&gt;Node17</title>
<g id="a_edge25_Node000007_Node000017"><a xlink:title=" ">
<path fill="none" stroke="#63b8ff" d="M511.1,-245.68C535.65,-234.34 576.28,-215.55 604.48,-202.51"/>
<polygon fill="#63b8ff" stroke="#63b8ff" points="605.64,-205.84 613.25,-198.46 602.7,-199.48 605.64,-205.84"/>
</a>
</g>
</g>
<!-- Node9 -->
<g id="Node000009" class="node">
<title>Node9</title>
<g id="a_Node000009"><a xlink:href="TactixApi_8h.html" target="_top" xlink:title="Export macros, compiler attributes and version constants shared by every Tactix module.">
<polygon fill="white" stroke="#666666" points="776.5,-20.75 707.25,-20.75 707.25,0 776.5,0 776.5,-20.75"/>
<text xml:space="preserve" text-anchor="middle" x="741.88" y="-7.25" font-family="Helvetica,sans-Serif" font-size="10.00">TactixApi.h</text>
</a>
</g>
</g>
<!-- Node8&#45;&gt;Node9 -->
<g id="edge10_Node000008_Node000009" class="edge">
<title>Node8&#45;&gt;Node9</title>
<g id="a_edge10_Node000008_Node000009"><a xlink:title=" ">
<path fill="none" stroke="#63b8ff" d="M476.17,-56.27C539.07,-45.65 637.94,-28.94 695.68,-19.18"/>
<polygon fill="#63b8ff" stroke="#63b8ff" points="696.24,-22.64 705.51,-17.52 695.07,-15.73 696.24,-22.64"/>
</a>
</g>
</g>
<!-- Node10 -->
<g id="Node000010" class="node">
<title>Node10</title>
<g id="a_Node000010"><a xlink:title=" ">
<polygon fill="#e0e0e0" stroke="#999999" points="381.88,-20.75 329.88,-20.75 329.88,0 381.88,0 381.88,-20.75"/>
<text xml:space="preserve" text-anchor="middle" x="355.88" y="-7.25" font-family="Helvetica,sans-Serif" font-size="10.00">cstddef</text>
</a>
</g>
</g>
<!-- Node8&#45;&gt;Node10 -->
<g id="edge11_Node000008_Node000010" class="edge">
<title>Node8&#45;&gt;Node10</title>
<g id="a_edge11_Node000008_Node000010"><a xlink:title=" ">
<path fill="none" stroke="#63b8ff" d="M406.79,-56.34C398.06,-48.63 385.68,-37.7 375.31,-28.54"/>
<polygon fill="#63b8ff" stroke="#63b8ff" points="377.81,-26.08 368,-22.08 373.18,-31.32 377.81,-26.08"/>
</a>
</g>
</g>
<!-- Node11 -->
<g id="Node000011" class="node">
<title>Node11</title>
<g id="a_Node000011"><a xlink:title=" ">
<polygon fill="#e0e0e0" stroke="#999999" points="872.38,-20.75 823.38,-20.75 823.38,0 872.38,0 872.38,-20.75"/>
<text xml:space="preserve" text-anchor="middle" x="847.88" y="-7.25" font-family="Helvetica,sans-Serif" font-size="10.00">cstdint</text>
</a>
</g>
</g>
<!-- Node8&#45;&gt;Node11 -->
<g id="edge12_Node000008_Node000011" class="edge">
<title>Node8&#45;&gt;Node11</title>
<g id="a_edge12_Node000008_Node000011"><a xlink:title=" ">
<path fill="none" stroke="#63b8ff" d="M487.81,-58.08C561.9,-49.42 682.24,-34.97 785.88,-20.75 794.33,-19.59 803.42,-18.26 811.96,-16.98"/>
<polygon fill="#63b8ff" stroke="#63b8ff" points="812.3,-20.46 821.66,-15.5 811.25,-13.54 812.3,-20.46"/>
</a>
</g>
</g>
<!-- Node12 -->
<g id="Node000012" class="node">
<title>Node12</title>
<g id="a_Node000012"><a xlink:title=" ">
<polygon fill="#e0e0e0" stroke="#999999" points="436,-20.75 399.75,-20.75 399.75,0 436,0 436,-20.75"/>
<text xml:space="preserve" text-anchor="middle" x="417.88" y="-7.25" font-family="Helvetica,sans-Serif" font-size="10.00">new</text>
</a>
</g>
</g>
<!-- Node8&#45;&gt;Node12 -->
<g id="edge13_Node000008_Node000012" class="edge">
<title>Node8&#45;&gt;Node12</title>
<g id="a_edge13_Node000008_Node000012"><a xlink:title=" ">
<path fill="none" stroke="#63b8ff" d="M417.88,-56.34C417.88,-49.72 417.88,-40.72 417.88,-32.52"/>
<polygon fill="#63b8ff" stroke="#63b8ff" points="421.38,-32.59 417.88,-22.59 414.38,-32.59 421.38,-32.59"/>
</a>
</g>
</g>
<!-- Node13 -->
<g id="Node000013" class="node">
<title>Node13</title>
<g id="a_Node000013"><a xlink:title=" ">
<polygon fill="#e0e0e0" stroke="#999999" points="498.12,-20.75 453.62,-20.75 453.62,0 498.12,0 498.12,-20.75"/>
<text xml:space="preserve" text-anchor="middle" x="475.88" y="-7.25" font-family="Helvetica,sans-Serif" font-size="10.00">utility</text>
</a>
</g>
</g>
<!-- Node8&#45;&gt;Node13 -->
<g id="edge14_Node000008_Node000013" class="edge">
<title>Node8&#45;&gt;Node13</title>
<g id="a_edge14_Node000008_Node000013"><a xlink:title=" ">
<path fill="none" stroke="#63b8ff" d="M428.24,-56.34C436.33,-48.71 447.76,-37.92 457.4,-28.82"/>
<polygon fill="#63b8ff" stroke="#63b8ff" points="459.63,-31.53 464.49,-22.12 454.82,-26.44 459.63,-31.53"/>
</a>
</g>
</g>
<!-- Node14&#45;&gt;Node9 -->
<g id="edge16_Node000014_Node000009" class="edge">
<title>Node14&#45;&gt;Node9</title>
<g id="a_edge16_Node000014_Node000009"><a xlink:title=" ">
<path fill="none" stroke="#63b8ff" d="M554.3,-113.07C540.81,-99.37 520.81,-74.23 534.88,-56.75 554.68,-32.13 641.11,-20.12 695.84,-14.88"/>
<polygon fill="#63b8ff" stroke="#63b8ff" points="695.85,-18.4 705.49,-14 695.21,-11.42 695.85,-18.4"/>
</a>
</g>
</g>
<!-- Node14&#45;&gt;Node11 -->
<g id="edge20_Node000014_Node000011" class="edge">
<title>Node14&#45;&gt;Node11</title>
<g id="a_edge20_Node000014_Node000011"><a xlink:title=" ">
<path fill="none" stroke="#63b8ff" d="M595.05,-113.03C621.54,-104.22 661.02,-90.7 694.88,-77.5 737.56,-60.85 785.97,-39.5 816.7,-25.64"/>
<polygon fill="#63b8ff" stroke="#63b8ff" points="817.75,-29 825.41,-21.69 814.86,-22.63 817.75,-29"/>
</a>
</g>
</g>
<!-- Node15 -->
<g id="Node000015" class="node">
<title>Node15</title>
<g id="a_Node000015"><a xlink:href="FTactixWorldState_8h.html" target="_top" xlink:title="Symbolic world state for the GOAP planner: 64 boolean facts plus a &quot;defined&quot; mask.">
<polygon fill="white" stroke="#666666" points="686.25,-77.5 543.5,-77.5 543.5,-56.75 686.25,-56.75 686.25,-77.5"/>
<text xml:space="preserve" text-anchor="middle" x="614.88" y="-64" font-family="Helvetica,sans-Serif" font-size="10.00">GOAP/FTactixWorldState.h</text>
</a>
</g>
</g>
<!-- Node14&#45;&gt;Node15 -->
<g id="edge17_Node000014_Node000015" class="edge">
<title>Node14&#45;&gt;Node15</title>
<g id="a_edge17_Node000014_Node000015"><a xlink:title=" ">
<path fill="none" stroke="#63b8ff" d="M573.81,-113.09C580.64,-105.61 590.24,-95.11 598.43,-86.13"/>
<polygon fill="#63b8ff" stroke="#63b8ff" points="600.83,-88.69 604.99,-78.95 595.66,-83.97 600.83,-88.69"/>
</a>
</g>
</g>
<!-- Node15&#45;&gt;Node9 -->
<g id="edge18_Node000015_Node000009" class="edge">
<title>Node15&#45;&gt;Node9</title>
<g id="a_edge18_Node000015_Node000009"><a xlink:title=" ">
<path fill="none" stroke="#63b8ff" d="M637.58,-56.34C657.45,-47.77 686.55,-35.23 708.97,-25.56"/>
<polygon fill="#63b8ff" stroke="#63b8ff" points="710.18,-28.85 717.98,-21.68 707.41,-22.42 710.18,-28.85"/>
</a>
</g>
</g>
<!-- Node15&#45;&gt;Node11 -->
<g id="edge19_Node000015_Node000011" class="edge">
<title>Node15&#45;&gt;Node11</title>
<g id="a_edge19_Node000015_Node000011"><a xlink:title=" ">
<path fill="none" stroke="#63b8ff" d="M656.8,-56.27C701.11,-45.86 770.25,-29.61 812.09,-19.78"/>
<polygon fill="#63b8ff" stroke="#63b8ff" points="812.71,-23.23 821.65,-17.54 811.11,-16.42 812.71,-23.23"/>
</a>
</g>
</g>
<!-- Node16&#45;&gt;Node9 -->
<g id="edge22_Node000016_Node000009" class="edge">
<title>Node16&#45;&gt;Node9</title>
<g id="a_edge22_Node000016_Node000009"><a xlink:title=" ">
<path fill="none" stroke="#63b8ff" d="M730.9,-113.37C732.82,-95.52 737.01,-56.61 739.62,-32.34"/>
<polygon fill="#63b8ff" stroke="#63b8ff" points="743.07,-33 740.66,-22.68 736.11,-32.25 743.07,-33"/>
</a>
</g>
</g>
<!-- Node16&#45;&gt;Node11 -->
<g id="edge24_Node000016_Node000011" class="edge">
<title>Node16&#45;&gt;Node11</title>
<g id="a_edge24_Node000016_Node000011"><a xlink:title=" ">
<path fill="none" stroke="#63b8ff" d="M739.94,-113.37C759.78,-94.62 804.22,-52.63 829.45,-28.78"/>
<polygon fill="#63b8ff" stroke="#63b8ff" points="831.54,-31.63 836.4,-22.21 826.73,-26.54 831.54,-31.63"/>
</a>
</g>
</g>
<!-- Node16&#45;&gt;Node15 -->
<g id="edge23_Node000016_Node000015" class="edge">
<title>Node16&#45;&gt;Node15</title>
<g id="a_edge23_Node000016_Node000015"><a xlink:title=" ">
<path fill="none" stroke="#63b8ff" d="M709.32,-113.09C691.57,-104.64 665.69,-92.32 645.51,-82.71"/>
<polygon fill="#63b8ff" stroke="#63b8ff" points="647.16,-79.62 636.62,-78.48 644.15,-85.94 647.16,-79.62"/>
</a>
</g>
</g>
<!-- Node18&#45;&gt;Node3 -->
<g id="edge27_Node000018_Node000003" class="edge">
<title>Node18&#45;&gt;Node3</title>
<g id="a_edge27_Node000018_Node000003"><a xlink:title=" ">
<path fill="none" stroke="#63b8ff" d="M813.23,-245.66C738.34,-237.28 633.51,-223.44 542.88,-203.75 539.05,-202.92 535.11,-201.96 531.17,-200.92"/>
<polygon fill="#63b8ff" stroke="#63b8ff" points="532.25,-197.59 521.68,-198.27 530.37,-204.33 532.25,-197.59"/>
</a>
</g>
</g>
<!-- Node19 -->
<g id="Node000019" class="node">
<title>Node19</title>
<g id="a_Node000019"><a xlink:title=" ">
<polygon fill="#e0e0e0" stroke="#999999" points="1234.5,-197.38 1063.25,-197.38 1063.25,-176.62 1234.5,-176.62 1234.5,-197.38"/>
<text xml:space="preserve" text-anchor="middle" x="1148.88" y="-183.88" font-family="Helvetica,sans-Serif" font-size="10.00">Components/ActorComponent.h</text>
</a>
</g>
</g>
<!-- Node18&#45;&gt;Node19 -->
<g id="edge28_Node000018_Node000019" class="edge">
<title>Node18&#45;&gt;Node19</title>
<g id="a_edge28_Node000018_Node000019"><a xlink:title=" ">
<path fill="none" stroke="#63b8ff" d="M947.19,-245.68C988.44,-233.89 1057.8,-214.05 1103.45,-200.99"/>
<polygon fill="#63b8ff" stroke="#63b8ff" points="1104.41,-204.36 1113.06,-198.24 1102.49,-197.63 1104.41,-204.36"/>
</a>
</g>
</g>
<!-- Node20 -->
<g id="Node000020" class="node">
<title>Node20</title>
<g id="a_Node000020"><a xlink:href="ITactixAgent_8h.html" target="_top" xlink:title="The engine&#45;agnostic contract a &quot;thinking&quot; entity implements to take part in Tactix systems.">
<polygon fill="white" stroke="#666666" points="972.12,-134.25 855.62,-134.25 855.62,-113.5 972.12,-113.5 972.12,-134.25"/>
<text xml:space="preserve" text-anchor="middle" x="913.88" y="-120.75" font-family="Helvetica,sans-Serif" font-size="10.00">Agent/ITactixAgent.h</text>
</a>
</g>
</g>
<!-- Node18&#45;&gt;Node20 -->
<g id="edge29_Node000018_Node000020" class="edge">
<title>Node18&#45;&gt;Node20</title>
<g id="a_edge29_Node000018_Node000020"><a xlink:title=" ">
<path fill="none" stroke="#63b8ff" d="M904.14,-245.66C896.06,-235.84 884.59,-219.91 879.88,-203.75 875.71,-189.46 875.17,-184.38 879.88,-170.25 883.19,-160.29 889.65,-150.75 896.05,-143.02"/>
<polygon fill="#63b8ff" stroke="#63b8ff" points="898.54,-145.48 902.61,-135.69 893.33,-140.81 898.54,-145.48"/>
</a>
</g>
</g>
<!-- Node22 -->
<g id="Node000022" class="node">
<title>Node22</title>
<g id="a_Node000022"><a xlink:href="FTactixAgentContext_8h.html" target="_top" xlink:title="Read&#45;only, side&#45;effect&#45;free snapshot of one agent for a single decision.">
<polygon fill="white" stroke="#666666" points="1045.38,-197.38 888.38,-197.38 888.38,-176.62 1045.38,-176.62 1045.38,-197.38"/>
<text xml:space="preserve" text-anchor="middle" x="966.88" y="-183.88" font-family="Helvetica,sans-Serif" font-size="10.00">Agent/FTactixAgentContext.h</text>
</a>
</g>
</g>
<!-- Node18&#45;&gt;Node22 -->
<g id="edge35_Node000018_Node000022" class="edge">
<title>Node18&#45;&gt;Node22</title>
<g id="a_edge35_Node000018_Node000022"><a xlink:title=" ">
<path fill="none" stroke="#63b8ff" d="M920.61,-245.83C928.79,-235.6 941.89,-219.23 952.07,-206.5"/>
<polygon fill="#63b8ff" stroke="#63b8ff" points="954.69,-208.83 958.21,-198.84 949.23,-204.46 954.69,-208.83"/>
</a>
</g>
</g>
<!-- Node25 -->
<g id="Node000025" class="node">
<title>Node25</title>
<g id="a_Node000025"><a xlink:title=" ">
<polygon fill="#e0e0e0" stroke="#999999" points="1451,-197.38 1252.75,-197.38 1252.75,-176.62 1451,-176.62 1451,-197.38"/>
<text xml:space="preserve" text-anchor="middle" x="1351.88" y="-183.88" font-family="Helvetica,sans-Serif" font-size="10.00">UTactixAgentComponent.generated.h</text>
</a>
</g>
</g>
<!-- Node18&#45;&gt;Node25 -->
<g id="edge44_Node000018_Node000025" class="edge">
<title>Node18&#45;&gt;Node25</title>
<g id="a_edge44_Node000018_Node000025"><a xlink:title=" ">
<path fill="none" stroke="#63b8ff" d="M976.71,-245.68C1056.28,-233.45 1192.09,-212.57 1276.64,-199.57"/>
<polygon fill="#63b8ff" stroke="#63b8ff" points="1277.12,-203.04 1286.47,-198.06 1276.05,-196.12 1277.12,-203.04"/>
</a>
</g>
</g>
<!-- Node20&#45;&gt;Node9 -->
<g id="edge30_Node000020_Node000009" class="edge">
<title>Node20&#45;&gt;Node9</title>
<g id="a_edge30_Node000020_Node000009"><a xlink:title=" ">
<path fill="none" stroke="#63b8ff" d="M905.34,-113.31C892.6,-99.45 867.35,-73.6 841.88,-56.75 822.65,-44.03 799.27,-33.2 779.95,-25.32"/>
<polygon fill="#63b8ff" stroke="#63b8ff" points="781.39,-22.12 770.81,-21.69 778.81,-28.63 781.39,-22.12"/>
</a>
</g>
</g>
<!-- Node20&#45;&gt;Node11 -->
<g id="edge34_Node000020_Node000011" class="edge">
<title>Node20&#45;&gt;Node11</title>
<g id="a_edge34_Node000020_Node000011"><a xlink:title=" ">
<path fill="none" stroke="#63b8ff" d="M909.44,-113.23C903.3,-100.15 891.64,-76.18 879.88,-56.75 874.47,-47.82 867.91,-38.33 862.14,-30.35"/>
<polygon fill="#63b8ff" stroke="#63b8ff" points="865.05,-28.39 856.3,-22.42 859.41,-32.54 865.05,-28.39"/>
</a>
</g>
</g>
<!-- Node21 -->
<g id="Node000021" class="node">
<title>Node21</title>
<g id="a_Node000021"><a xlink:href="TactixHandle_8h.html" target="_top" xlink:title="Type&#45;safe generational handle: the only sanctioned way to reference a pooled object across frames.">
<polygon fill="white" stroke="#666666" points="1077.38,-77.5 932.38,-77.5 932.38,-56.75 1077.38,-56.75 1077.38,-77.5"/>
<text xml:space="preserve" text-anchor="middle" x="1004.88" y="-64" font-family="Helvetica,sans-Serif" font-size="10.00">Foundation/TactixHandle.h</text>
</a>
</g>
</g>
<!-- Node20&#45;&gt;Node21 -->
<g id="edge31_Node000020_Node000021" class="edge">
<title>Node20&#45;&gt;Node21</title>
<g id="a_edge31_Node000020_Node000021"><a xlink:title=" ">
<path fill="none" stroke="#63b8ff" d="M930.14,-113.09C943.73,-104.91 963.35,-93.11 979.08,-83.65"/>
<polygon fill="#63b8ff" stroke="#63b8ff" points="980.69,-86.76 987.45,-78.61 977.08,-80.77 980.69,-86.76"/>
</a>
</g>
</g>
<!-- Node21&#45;&gt;Node9 -->
<g id="edge32_Node000021_Node000009" class="edge">
<title>Node21&#45;&gt;Node9</title>
<g id="a_edge32_Node000021_Node000009"><a xlink:title=" ">
<path fill="none" stroke="#63b8ff" d="M957.55,-56.27C909.46,-46.26 835.46,-30.86 787.85,-20.95"/>
<polygon fill="#63b8ff" stroke="#63b8ff" points="788.63,-17.53 778.13,-18.92 787.21,-24.39 788.63,-17.53"/>
</a>
</g>
</g>
<!-- Node21&#45;&gt;Node11 -->
<g id="edge33_Node000021_Node000011" class="edge">
<title>Node21&#45;&gt;Node11</title>
<g id="a_edge33_Node000021_Node000011"><a xlink:title=" ">
<path fill="none" stroke="#63b8ff" d="M976.81,-56.34C950.72,-47.24 911.75,-33.65 883.49,-23.79"/>
<polygon fill="#63b8ff" stroke="#63b8ff" points="884.88,-20.57 874.28,-20.58 882.57,-27.18 884.88,-20.57"/>
</a>
</g>
</g>
<!-- Node22&#45;&gt;Node9 -->
<g id="edge36_Node000022_Node000009" class="edge">
<title>Node22&#45;&gt;Node9</title>
<g id="a_edge36_Node000022_Node000009"><a xlink:title=" ">
<path fill="none" stroke="#63b8ff" d="M933.43,-176.17C908.09,-167.69 873.26,-153.71 846.88,-134.25 806.78,-104.68 771.8,-57.03 754.12,-30.59"/>
<polygon fill="#63b8ff" stroke="#63b8ff" points="757.06,-28.7 748.66,-22.25 751.2,-32.53 757.06,-28.7"/>
</a>
</g>
</g>
<!-- Node22&#45;&gt;Node11 -->
<g id="edge43_Node000022_Node000011" class="edge">
<title>Node22&#45;&gt;Node11</title>
<g id="a_edge43_Node000022_Node000011"><a xlink:title=" ">
<path fill="none" stroke="#63b8ff" d="M988.85,-176.13C1033.08,-154.97 1125.44,-103.33 1086.88,-56.75 1061.5,-26.1 943.98,-15.99 883.73,-12.78"/>
<polygon fill="#63b8ff" stroke="#63b8ff" points="884.15,-9.3 873.99,-12.31 883.81,-16.29 884.15,-9.3"/>
</a>
</g>
</g>
<!-- Node22&#45;&gt;Node20 -->
<g id="edge42_Node000022_Node000020" class="edge">
<title>Node22&#45;&gt;Node20</title>
<g id="a_edge42_Node000022_Node000020"><a xlink:title=" ">
<path fill="none" stroke="#63b8ff" d="M958.36,-176.18C950.59,-167.22 938.91,-153.74 929.46,-142.85"/>
<polygon fill="#63b8ff" stroke="#63b8ff" points="932.38,-140.88 923.19,-135.61 927.09,-145.46 932.38,-140.88"/>
</a>
</g>
</g>
<!-- Node22&#45;&gt;Node21 -->
<g id="edge37_Node000022_Node000021" class="edge">
<title>Node22&#45;&gt;Node21</title>
<g id="a_edge37_Node000022_Node000021"><a xlink:title=" ">
<path fill="none" stroke="#63b8ff" d="M969.98,-176.35C976.14,-157.27 989.98,-114.33 998.26,-88.65"/>
<polygon fill="#63b8ff" stroke="#63b8ff" points="1001.52,-89.94 1001.26,-79.35 994.86,-87.79 1001.52,-89.94"/>
</a>
</g>
</g>
<!-- Node23 -->
<g id="Node000023" class="node">
<title>Node23</title>
<g id="a_Node000023"><a xlink:href="TactixMath_8h.html" target="_top" xlink:title="Small, engine&#45;agnostic vector and scalar math used across Tactix.">
<polygon fill="white" stroke="#666666" points="1269.5,-77.5 1134.25,-77.5 1134.25,-56.75 1269.5,-56.75 1269.5,-77.5"/>
<text xml:space="preserve" text-anchor="middle" x="1201.88" y="-64" font-family="Helvetica,sans-Serif" font-size="10.00">Foundation/TactixMath.h</text>
</a>
</g>
</g>
<!-- Node22&#45;&gt;Node23 -->
<g id="edge38_Node000022_Node000023" class="edge">
<title>Node22&#45;&gt;Node23</title>
<g id="a_edge38_Node000022_Node000023"><a xlink:title=" ">
<path fill="none" stroke="#63b8ff" d="M1008.45,-176.2C1040.19,-167.73 1084.36,-153.76 1119.88,-134.25 1143.99,-121 1168.09,-100.48 1183.85,-85.82"/>
<polygon fill="#63b8ff" stroke="#63b8ff" points="1186.19,-88.43 1191.02,-79 1181.36,-83.36 1186.19,-88.43"/>
</a>
</g>
</g>
<!-- Node23&#45;&gt;Node9 -->
<g id="edge39_Node000023_Node000009" class="edge">
<title>Node23&#45;&gt;Node9</title>
<g id="a_edge39_Node000023_Node000009"><a xlink:title=" ">
<path fill="none" stroke="#63b8ff" d="M1134.04,-58.4C1056.75,-49.55 926.67,-34.48 814.88,-20.75 806.23,-19.69 797.02,-18.53 788.15,-17.4"/>
<polygon fill="#63b8ff" stroke="#63b8ff" points="788.63,-13.93 778.27,-16.13 787.74,-20.87 788.63,-13.93"/>
</a>
</g>
</g>
<!-- Node23&#45;&gt;Node11 -->
<g id="edge41_Node000023_Node000011" class="edge">
<title>Node23&#45;&gt;Node11</title>
<g id="a_edge41_Node000023_Node000011"><a xlink:title=" ">
<path fill="none" stroke="#63b8ff" d="M1138.18,-56.27C1063.9,-44.79 943.71,-26.2 883.97,-16.96"/>
<polygon fill="#63b8ff" stroke="#63b8ff" points="884.77,-13.54 874.35,-15.47 883.7,-20.46 884.77,-13.54"/>
</a>
</g>
</g>
<!-- Node24 -->
<g id="Node000024" class="node">
<title>Node24</title>
<g id="a_Node000024"><a xlink:title=" ">
<polygon fill="#e0e0e0" stroke="#999999" points="1225.25,-20.75 1178.5,-20.75 1178.5,0 1225.25,0 1225.25,-20.75"/>
<text xml:space="preserve" text-anchor="middle" x="1201.88" y="-7.25" font-family="Helvetica,sans-Serif" font-size="10.00">cmath</text>
</a>
</g>
</g>
<!-- Node23&#45;&gt;Node24 -->
<g id="edge40_Node000023_Node000024" class="edge">
<title>Node23&#45;&gt;Node24</title>
<g id="a_edge40_Node000023_Node000024"><a xlink:title=" ">
<path fill="none" stroke="#63b8ff" d="M1201.88,-56.34C1201.88,-49.72 1201.88,-40.72 1201.88,-32.52"/>
<polygon fill="#63b8ff" stroke="#63b8ff" points="1205.38,-32.59 1201.88,-22.59 1198.38,-32.59 1205.38,-32.59"/>
</a>
</g>
</g>
</g>
</svg>
