<?xml version="1.0" encoding="UTF-8" standalone="no"?>
<!DOCTYPE svg PUBLIC "-//W3C//DTD SVG 1.1//EN"
 "http://www.w3.org/Graphics/SVG/1.1/DTD/svg11.dtd">
<!-- Generated by graphviz version 14.1.5 (0)
 -->
<!-- Title: Source/TactixUE/Private/BehaviorTree/UTactixBTDecorator_PlanActive.cpp Pages: 1 -->
<svg width="1314pt" height="307pt"
 viewBox="0.00 0.00 1314.00 307.00" xmlns="http://www.w3.org/2000/svg" xmlns:xlink="http://www.w3.org/1999/xlink">
<g id="graph0" class="graph" transform="scale(1 1) rotate(0) translate(4 302.75)">
<title>Source/TactixUE/Private/BehaviorTree/UTactixBTDecorator_PlanActive.cpp</title>
<!-- Node1 -->
<g id="Node000001" class="node">
<title>Node1</title>
<g id="a_Node000001"><a xlink:title="Implements the plan&#45;active decorator condition (valid plan with steps left).">
<polygon fill="#999999" stroke="#666666" points="763.12,-298.75 580.62,-298.75 580.62,-252.5 763.12,-252.5 763.12,-298.75"/>
<text xml:space="preserve" text-anchor="start" x="588.62" y="-285.25" font-family="Helvetica,sans-Serif" font-size="10.00">Source/TactixUE/Private</text>
<text xml:space="preserve" text-anchor="start" x="588.62" y="-272.5" font-family="Helvetica,sans-Serif" font-size="10.00">/BehaviorTree/UTactixBTDecorator</text>
<text xml:space="preserve" text-anchor="middle" x="671.88" y="-259.75" font-family="Helvetica,sans-Serif" font-size="10.00">_PlanActive.cpp</text>
</a>
</g>
</g>
<!-- Node2 -->
<g id="Node000002" class="node">
<title>Node2</title>
<g id="a_Node000002"><a xlink:href="UTactixBTDecorator__PlanActive_8h.html" target="_top" xlink:title="BT decorator that passes while a plan of the chosen type is running.">
<polygon fill="white" stroke="#666666" points="597.62,-216.5 418.12,-216.5 418.12,-183 597.62,-183 597.62,-216.5"/>
<text xml:space="preserve" text-anchor="start" x="426.12" y="-203" font-family="Helvetica,sans-Serif" font-size="10.00">BehaviorTree/UTactixBTDecorator</text>
<text xml:space="preserve" text-anchor="middle" x="507.88" y="-190.25" font-family="Helvetica,sans-Serif" font-size="10.00">_PlanActive.h</text>
</a>
</g>
</g>
<!-- Node1&#45;&gt;Node2 -->
<g id="edge1_Node000001_Node000002" class="edge">
<title>Node1&#45;&gt;Node2</title>
<g id="a_edge1_Node000001_Node000002"><a xlink:title=" ">
<path fill="none" stroke="#63b8ff" d="M621.78,-252.06C600.26,-242.37 575.28,-231.11 554.2,-221.62"/>
<polygon fill="#63b8ff" stroke="#63b8ff" points="555.82,-218.51 545.26,-217.59 552.94,-224.89 555.82,-218.51"/>
</a>
</g>
</g>
<!-- Node9 -->
<g id="Node000009" class="node">
<title>Node9</title>
<g id="a_Node000009"><a xlink:title=" ">
<polygon fill="#e0e0e0" stroke="#999999" points="712.88,-140.62 630.88,-140.62 630.88,-119.88 712.88,-119.88 712.88,-140.62"/>
<text xml:space="preserve" text-anchor="middle" x="671.88" y="-127.12" font-family="Helvetica,sans-Serif" font-size="10.00">AIController.h</text>
</a>
</g>
</g>
<!-- Node1&#45;&gt;Node9 -->
<g id="edge9_Node000001_Node000009" class="edge">
<title>Node1&#45;&gt;Node9</title>
<g id="a_edge9_Node000001_Node000009"><a xlink:title=" ">
<path fill="none" stroke="#63b8ff" d="M671.88,-252.22C671.88,-224.88 671.88,-178.99 671.88,-152.29"/>
<polygon fill="#63b8ff" stroke="#63b8ff" points="675.38,-152.39 671.88,-142.39 668.38,-152.39 675.38,-152.39"/>
</a>
</g>
</g>
<!-- Node10 -->
<g id="Node000010" class="node">
<title>Node10</title>
<g id="a_Node000010"><a xlink:href="ATactixAIController_8h.html" target="_top" xlink:title="Base AIController for Tactix&#45;aware pawns.">
<polygon fill="white" stroke="#666666" points="922.62,-210.12 755.12,-210.12 755.12,-189.38 922.62,-189.38 922.62,-210.12"/>
<text xml:space="preserve" text-anchor="middle" x="838.88" y="-196.62" font-family="Helvetica,sans-Serif" font-size="10.00">Controller/ATactixAIController.h</text>
</a>
</g>
</g>
<!-- Node1&#45;&gt;Node10 -->
<g id="edge10_Node000001_Node000010" class="edge">
<title>Node1&#45;&gt;Node10</title>
<g id="a_edge10_Node000001_Node000010"><a xlink:title=" ">
<path fill="none" stroke="#63b8ff" d="M722.89,-252.06C750.17,-239.99 782.94,-225.49 806.67,-214.99"/>
<polygon fill="#63b8ff" stroke="#63b8ff" points="807.78,-218.33 815.51,-211.09 804.95,-211.93 807.78,-218.33"/>
</a>
</g>
</g>
<!-- Node3 -->
<g id="Node000003" class="node">
<title>Node3</title>
<g id="a_Node000003"><a xlink:title=" ">
<polygon fill="#e0e0e0" stroke="#999999" points="646.5,-77.5 559.25,-77.5 559.25,-56.75 646.5,-56.75 646.5,-77.5"/>
<text xml:space="preserve" text-anchor="middle" x="602.88" y="-64" font-family="Helvetica,sans-Serif" font-size="10.00">CoreMinimal.h</text>
</a>
</g>
</g>
<!-- Node2&#45;&gt;Node3 -->
<g id="edge2_Node000002_Node000003" class="edge">
<title>Node2&#45;&gt;Node3</title>
<g id="a_edge2_Node000002_Node000003"><a xlink:title=" ">
<path fill="none" stroke="#63b8ff" d="M542.15,-182.69C557.04,-174.08 573.44,-162.1 583.88,-147 595.74,-129.82 600.24,-106.1 601.92,-89.16"/>
<polygon fill="#63b8ff" stroke="#63b8ff" points="605.4,-89.49 602.62,-79.27 598.42,-88.99 605.4,-89.49"/>
</a>
</g>
</g>
<!-- Node4 -->
<g id="Node000004" class="node">
<title>Node4</title>
<g id="a_Node000004"><a xlink:title=" ">
<polygon fill="#e0e0e0" stroke="#999999" points="422.75,-140.62 271,-140.62 271,-119.88 422.75,-119.88 422.75,-140.62"/>
<text xml:space="preserve" text-anchor="middle" x="346.88" y="-127.12" font-family="Helvetica,sans-Serif" font-size="10.00">BehaviorTree/BTDecorator.h</text>
</a>
</g>
</g>
<!-- Node2&#45;&gt;Node4 -->
<g id="edge3_Node000002_Node000004" class="edge">
<title>Node2&#45;&gt;Node4</title>
<g id="a_edge3_Node000002_Node000004"><a xlink:title=" ">
<path fill="none" stroke="#63b8ff" d="M469.31,-182.58C442.29,-171.25 406.51,-156.25 380.62,-145.4"/>
<polygon fill="#63b8ff" stroke="#63b8ff" points="382.15,-142.25 371.58,-141.61 379.45,-148.7 382.15,-142.25"/>
</a>
</g>
</g>
<!-- Node5 -->
<g id="Node000005" class="node">
<title>Node5</title>
<g id="a_Node000005"><a xlink:href="UTactixBTTask__ExecutePlan_8h.html" target="_top" xlink:title="BT task that walks the controller&#39;s active GOAP or HTN plan, one step per tick.">
<polygon fill="white" stroke="#666666" points="252.5,-147 99.25,-147 99.25,-113.5 252.5,-113.5 252.5,-147"/>
<text xml:space="preserve" text-anchor="start" x="107.25" y="-133.5" font-family="Helvetica,sans-Serif" font-size="10.00">BehaviorTree/UTactixBTTask</text>
<text xml:space="preserve" text-anchor="middle" x="175.88" y="-120.75" font-family="Helvetica,sans-Serif" font-size="10.00">_ExecutePlan.h</text>
</a>
</g>
</g>
<!-- Node2&#45;&gt;Node5 -->
<g id="edge4_Node000002_Node000005" class="edge">
<title>Node2&#45;&gt;Node5</title>
<g id="a_edge4_Node000002_Node000005"><a xlink:title=" ">
<path fill="none" stroke="#63b8ff" d="M428.35,-182.58C378.76,-172.5 314.87,-159.51 263.78,-149.12"/>
<polygon fill="#63b8ff" stroke="#63b8ff" points="264.73,-145.74 254.23,-147.18 263.33,-152.6 264.73,-145.74"/>
</a>
</g>
</g>
<!-- Node8 -->
<g id="Node000008" class="node">
<title>Node8</title>
<g id="a_Node000008"><a xlink:title=" ">
<polygon fill="#e0e0e0" stroke="#999999" points="575.12,-147 440.62,-147 440.62,-113.5 575.12,-113.5 575.12,-147"/>
<text xml:space="preserve" text-anchor="start" x="448.62" y="-133.5" font-family="Helvetica,sans-Serif" font-size="10.00">UTactixBTDecorator</text>
<text xml:space="preserve" text-anchor="middle" x="507.88" y="-120.75" font-family="Helvetica,sans-Serif" font-size="10.00">_PlanActive.generated.h</text>
</a>
</g>
</g>
<!-- Node2&#45;&gt;Node8 -->
<g id="edge8_Node000002_Node000008" class="edge">
<title>Node2&#45;&gt;Node8</title>
<g id="a_edge8_Node000002_Node000008"><a xlink:title=" ">
<path fill="none" stroke="#63b8ff" d="M507.88,-182.75C507.88,-175.52 507.88,-166.78 507.88,-158.56"/>
<polygon fill="#63b8ff" stroke="#63b8ff" points="511.38,-158.65 507.88,-148.65 504.38,-158.65 511.38,-158.65"/>
</a>
</g>
</g>
<!-- Node5&#45;&gt;Node3 -->
<g id="edge5_Node000005_Node000003" class="edge">
<title>Node5&#45;&gt;Node3</title>
<g id="a_edge5_Node000005_Node000003"><a xlink:title=" ">
<path fill="none" stroke="#63b8ff" d="M252.74,-114.98C255.82,-114.47 258.88,-113.97 261.88,-113.5 362.39,-97.62 480.17,-82.78 547.7,-74.63"/>
<polygon fill="#63b8ff" stroke="#63b8ff" points="547.89,-78.13 557.4,-73.46 547.06,-71.18 547.89,-78.13"/>
</a>
</g>
</g>
<!-- Node6 -->
<g id="Node000006" class="node">
<title>Node6</title>
<g id="a_Node000006"><a xlink:title=" ">
<polygon fill="#e0e0e0" stroke="#999999" points="151.75,-77.5 0,-77.5 0,-56.75 151.75,-56.75 151.75,-77.5"/>
<text xml:space="preserve" text-anchor="middle" x="75.88" y="-64" font-family="Helvetica,sans-Serif" font-size="10.00">BehaviorTree/BTTaskNode.h</text>
</a>
</g>
</g>
<!-- Node5&#45;&gt;Node6 -->
<g id="edge6_Node000005_Node000006" class="edge">
<title>Node5&#45;&gt;Node6</title>
<g id="a_edge6_Node000005_Node000006"><a xlink:title=" ">
<path fill="none" stroke="#63b8ff" d="M149.34,-113.03C134.48,-103.95 116.05,-92.68 101.37,-83.71"/>
<polygon fill="#63b8ff" stroke="#63b8ff" points="103.54,-80.93 93.18,-78.7 99.89,-86.91 103.54,-80.93"/>
</a>
</g>
</g>
<!-- Node7 -->
<g id="Node000007" class="node">
<title>Node7</title>
<g id="a_Node000007"><a xlink:title=" ">
<polygon fill="#e0e0e0" stroke="#999999" points="382.12,-77.5 169.62,-77.5 169.62,-56.75 382.12,-56.75 382.12,-77.5"/>
<text xml:space="preserve" text-anchor="middle" x="275.88" y="-64" font-family="Helvetica,sans-Serif" font-size="10.00">UTactixBTTask_ExecutePlan.generated.h</text>
</a>
</g>
</g>
<!-- Node5&#45;&gt;Node7 -->
<g id="edge7_Node000005_Node000007" class="edge">
<title>Node5&#45;&gt;Node7</title>
<g id="a_edge7_Node000005_Node000007"><a xlink:title=" ">
<path fill="none" stroke="#63b8ff" d="M202.41,-113.03C217.27,-103.95 235.7,-92.68 250.38,-83.71"/>
<polygon fill="#63b8ff" stroke="#63b8ff" points="251.86,-86.91 258.57,-78.7 248.21,-80.93 251.86,-86.91"/>
</a>
</g>
</g>
<!-- Node10&#45;&gt;Node3 -->
<g id="edge11_Node000010_Node000003" class="edge">
<title>Node10&#45;&gt;Node3</title>
<g id="a_edge11_Node000010_Node000003"><a xlink:title=" ">
<path fill="none" stroke="#63b8ff" d="M822.37,-188.9C806.06,-178.94 780.61,-162.8 759.88,-147 741.97,-133.35 741.15,-125.14 721.88,-113.5 699.27,-99.84 671.85,-89.05 649.03,-81.43"/>
<polygon fill="#63b8ff" stroke="#63b8ff" points="650.27,-78.15 639.68,-78.4 648.12,-84.81 650.27,-78.15"/>
</a>
</g>
</g>
<!-- Node10&#45;&gt;Node9 -->
<g id="edge12_Node000010_Node000009" class="edge">
<title>Node10&#45;&gt;Node9</title>
<g id="a_edge12_Node000010_Node000009"><a xlink:title=" ">
<path fill="none" stroke="#63b8ff" d="M814.59,-188.93C786.15,-177.44 738.81,-158.3 706.51,-145.25"/>
<polygon fill="#63b8ff" stroke="#63b8ff" points="708.17,-142.15 697.59,-141.64 705.55,-148.64 708.17,-142.15"/>
</a>
</g>
</g>
<!-- Node11 -->
<g id="Node000011" class="node">
<title>Node11</title>
<g id="a_Node000011"><a xlink:href="TactixArena_8h.html" target="_top" xlink:title="Bump (linear) allocator for short&#45;lived scratch memory.">
<polygon fill="white" stroke="#666666" points="1181.38,-77.5 1042.38,-77.5 1042.38,-56.75 1181.38,-56.75 1181.38,-77.5"/>
<text xml:space="preserve" text-anchor="middle" x="1111.88" y="-64" font-family="Helvetica,sans-Serif" font-size="10.00">Foundation/TactixArena.h</text>
</a>
</g>
</g>
<!-- Node10&#45;&gt;Node11 -->
<g id="edge13_Node000010_Node000011" class="edge">
<title>Node10&#45;&gt;Node11</title>
<g id="a_edge13_Node000010_Node000011"><a xlink:title=" ">
<path fill="none" stroke="#63b8ff" d="M922.99,-190.81C986.22,-183.16 1065.89,-169.39 1089.88,-147 1105.76,-132.17 1110.52,-106.94 1111.77,-89.01"/>
<polygon fill="#63b8ff" stroke="#63b8ff" points="1115.26,-89.37 1112.12,-79.25 1108.27,-89.12 1115.26,-89.37"/>
</a>
</g>
</g>
<!-- Node17 -->
<g id="Node000017" class="node">
<title>Node17</title>
<g id="a_Node000017"><a xlink:href="FTactixGOAPPlanner_8h.html" target="_top" xlink:title="A* planner over the GOAP world&#45;state graph.">
<polygon fill="white" stroke="#666666" points="1080.5,-140.62 927.25,-140.62 927.25,-119.88 1080.5,-119.88 1080.5,-140.62"/>
<text xml:space="preserve" text-anchor="middle" x="1003.88" y="-127.12" font-family="Helvetica,sans-Serif" font-size="10.00">GOAP/FTactixGOAPPlanner.h</text>
</a>
</g>
</g>
<!-- Node10&#45;&gt;Node17 -->
<g id="edge19_Node000010_Node000017" class="edge">
<title>Node10&#45;&gt;Node17</title>
<g id="a_edge19_Node000010_Node000017"><a xlink:title=" ">
<path fill="none" stroke="#63b8ff" d="M862.87,-188.93C890.85,-177.49 937.34,-158.47 969.23,-145.42"/>
<polygon fill="#63b8ff" stroke="#63b8ff" points="970.52,-148.68 978.45,-141.65 967.87,-142.2 970.52,-148.68"/>
</a>
</g>
</g>
<!-- Node19 -->
<g id="Node000019" class="node">
<title>Node19</title>
<g id="a_Node000019"><a xlink:href="FTactixHTNPlanner_8h.html" target="_top" xlink:title="Depth&#45;first HTN planner with method&#45;order fallback and backtracking.">
<polygon fill="white" stroke="#666666" points="908.75,-140.62 769,-140.62 769,-119.88 908.75,-119.88 908.75,-140.62"/>
<text xml:space="preserve" text-anchor="middle" x="838.88" y="-127.12" font-family="Helvetica,sans-Serif" font-size="10.00">HTN/FTactixHTNPlanner.h</text>
</a>
</g>
</g>
<!-- Node10&#45;&gt;Node19 -->
<g id="edge25_Node000010_Node000019" class="edge">
<title>Node10&#45;&gt;Node19</title>
<g id="a_edge25_Node000010_Node000019"><a xlink:title=" ">
<path fill="none" stroke="#63b8ff" d="M838.88,-189.08C838.88,-179.46 838.88,-164.38 838.88,-152.04"/>
<polygon fill="#63b8ff" stroke="#63b8ff" points="842.38,-152.42 838.88,-142.42 835.38,-152.42 842.38,-152.42"/>
</a>
</g>
</g>
<!-- Node20 -->
<g id="Node000020" class="node">
<title>Node20</title>
<g id="a_Node000020"><a xlink:title=" ">
<polygon fill="#e0e0e0" stroke="#999999" points="1306.38,-140.62 1137.38,-140.62 1137.38,-119.88 1306.38,-119.88 1306.38,-140.62"/>
<text xml:space="preserve" text-anchor="middle" x="1221.88" y="-127.12" font-family="Helvetica,sans-Serif" font-size="10.00">ATactixAIController.generated.h</text>
</a>
</g>
</g>
<!-- Node10&#45;&gt;Node20 -->
<g id="edge29_Node000010_Node000020" class="edge">
<title>Node10&#45;&gt;Node20</title>
<g id="a_edge29_Node000010_Node000020"><a xlink:title=" ">
<path fill="none" stroke="#63b8ff" d="M894.57,-188.93C963.64,-176.76 1081.26,-156.03 1155.1,-143.02"/>
<polygon fill="#63b8ff" stroke="#63b8ff" points="1155.39,-146.52 1164.63,-141.34 1154.17,-139.63 1155.39,-146.52"/>
</a>
</g>
</g>
<!-- Node12 -->
<g id="Node000012" class="node">
<title>Node12</title>
<g id="a_Node000012"><a xlink:href="TactixApi_8h.html" target="_top" xlink:title="Export macros, compiler attributes and version constants shared by every Tactix module.">
<polygon fill="white" stroke="#666666" points="988.5,-20.75 919.25,-20.75 919.25,0 988.5,0 988.5,-20.75"/>
<text xml:space="preserve" text-anchor="middle" x="953.88" y="-7.25" font-family="Helvetica,sans-Serif" font-size="10.00">TactixApi.h</text>
</a>
</g>
</g>
<!-- Node11&#45;&gt;Node12 -->
<g id="edge14_Node000011_Node000012" class="edge">
<title>Node11&#45;&gt;Node12</title>
<g id="a_edge14_Node000011_Node000012"><a xlink:title=" ">
<path fill="none" stroke="#63b8ff" d="M1083.63,-56.34C1058.32,-47.57 1020.95,-34.62 992.81,-24.87"/>
<polygon fill="#63b8ff" stroke="#63b8ff" points="994.17,-21.63 983.57,-21.67 991.88,-28.25 994.17,-21.63"/>
</a>
</g>
</g>
<!-- Node13 -->
<g id="Node000013" class="node">
<title>Node13</title>
<g id="a_Node000013"><a xlink:title=" ">
<polygon fill="#e0e0e0" stroke="#999999" points="1075.88,-20.75 1023.88,-20.75 1023.88,0 1075.88,0 1075.88,-20.75"/>
<text xml:space="preserve" text-anchor="middle" x="1049.88" y="-7.25" font-family="Helvetica,sans-Serif" font-size="10.00">cstddef</text>
</a>
</g>
</g>
<!-- Node11&#45;&gt;Node13 -->
<g id="edge15_Node000011_Node000013" class="edge">
<title>Node11&#45;&gt;Node13</title>
<g id="a_edge15_Node000011_Node000013"><a xlink:title=" ">
<path fill="none" stroke="#63b8ff" d="M1100.79,-56.34C1092.06,-48.63 1079.68,-37.7 1069.31,-28.54"/>
<polygon fill="#63b8ff" stroke="#63b8ff" points="1071.81,-26.08 1062,-22.08 1067.18,-31.32 1071.81,-26.08"/>
</a>
</g>
</g>
<!-- Node14 -->
<g id="Node000014" class="node">
<title>Node14</title>
<g id="a_Node000014"><a xlink:title=" ">
<polygon fill="#e0e0e0" stroke="#999999" points="890.38,-20.75 841.38,-20.75 841.38,0 890.38,0 890.38,-20.75"/>
<text xml:space="preserve" text-anchor="middle" x="865.88" y="-7.25" font-family="Helvetica,sans-Serif" font-size="10.00">cstdint</text>
</a>
</g>
</g>
<!-- Node11&#45;&gt;Node14 -->
<g id="edge16_Node000011_Node000014" class="edge">
<title>Node11&#45;&gt;Node14</title>
<g id="a_edge16_Node000011_Node000014"><a xlink:title=" ">
<path fill="none" stroke="#63b8ff" d="M1067.61,-56.27C1020.12,-45.7 945.61,-29.12 901.67,-19.34"/>
<polygon fill="#63b8ff" stroke="#63b8ff" points="902.67,-15.98 892.14,-17.22 901.14,-22.81 902.67,-15.98"/>
</a>
</g>
</g>
<!-- Node15 -->
<g id="Node000015" class="node">
<title>Node15</title>
<g id="a_Node000015"><a xlink:title=" ">
<polygon fill="#e0e0e0" stroke="#999999" points="1130,-20.75 1093.75,-20.75 1093.75,0 1130,0 1130,-20.75"/>
<text xml:space="preserve" text-anchor="middle" x="1111.88" y="-7.25" font-family="Helvetica,sans-Serif" font-size="10.00">new</text>
</a>
</g>
</g>
<!-- Node11&#45;&gt;Node15 -->
<g id="edge17_Node000011_Node000015" class="edge">
<title>Node11&#45;&gt;Node15</title>
<g id="a_edge17_Node000011_Node000015"><a xlink:title=" ">
<path fill="none" stroke="#63b8ff" d="M1111.88,-56.34C1111.88,-49.72 1111.88,-40.72 1111.88,-32.52"/>
<polygon fill="#63b8ff" stroke="#63b8ff" points="1115.38,-32.59 1111.88,-22.59 1108.38,-32.59 1115.38,-32.59"/>
</a>
</g>
</g>
<!-- Node16 -->
<g id="Node000016" class="node">
<title>Node16</title>
<g id="a_Node000016"><a xlink:title=" ">
<polygon fill="#e0e0e0" stroke="#999999" points="1192.12,-20.75 1147.62,-20.75 1147.62,0 1192.12,0 1192.12,-20.75"/>
<text xml:space="preserve" text-anchor="middle" x="1169.88" y="-7.25" font-family="Helvetica,sans-Serif" font-size="10.00">utility</text>
</a>
</g>
</g>
<!-- Node11&#45;&gt;Node16 -->
<g id="edge18_Node000011_Node000016" class="edge">
<title>Node11&#45;&gt;Node16</title>
<g id="a_edge18_Node000011_Node000016"><a xlink:title=" ">
<path fill="none" stroke="#63b8ff" d="M1122.24,-56.34C1130.33,-48.71 1141.76,-37.92 1151.4,-28.82"/>
<polygon fill="#63b8ff" stroke="#63b8ff" points="1153.63,-31.53 1158.49,-22.12 1148.82,-26.44 1153.63,-31.53"/>
</a>
</g>
</g>
<!-- Node17&#45;&gt;Node12 -->
<g id="edge20_Node000017_Node000012" class="edge">
<title>Node17&#45;&gt;Node12</title>
<g id="a_edge20_Node000017_Node000012"><a xlink:title=" ">
<path fill="none" stroke="#63b8ff" d="M1003.45,-119.42C1002.52,-105.04 999.51,-77.72 989.88,-56.75 985.4,-47.01 978.4,-37.51 971.77,-29.74"/>
<polygon fill="#63b8ff" stroke="#63b8ff" points="974.37,-27.4 965.06,-22.34 969.18,-32.1 974.37,-27.4"/>
</a>
</g>
</g>
<!-- Node17&#45;&gt;Node14 -->
<g id="edge24_Node000017_Node000014" class="edge">
<title>Node17&#45;&gt;Node14</title>
<g id="a_edge24_Node000017_Node000014"><a xlink:title=" ">
<path fill="none" stroke="#63b8ff" d="M992.58,-119.6C969.23,-99.66 915.37,-53.65 885.95,-28.52"/>
<polygon fill="#63b8ff" stroke="#63b8ff" points="888.35,-25.97 878.48,-22.14 883.81,-31.29 888.35,-25.97"/>
</a>
</g>
</g>
<!-- Node18 -->
<g id="Node000018" class="node">
<title>Node18</title>
<g id="a_Node000018"><a xlink:href="FTactixWorldState_8h.html" target="_top" xlink:title="Symbolic world state for the GOAP planner: 64 boolean facts plus a &quot;defined&quot; mask.">
<polygon fill="white" stroke="#666666" points="910.25,-77.5 767.5,-77.5 767.5,-56.75 910.25,-56.75 910.25,-77.5"/>
<text xml:space="preserve" text-anchor="middle" x="838.88" y="-64" font-family="Helvetica,sans-Serif" font-size="10.00">GOAP/FTactixWorldState.h</text>
</a>
</g>
</g>
<!-- Node17&#45;&gt;Node18 -->
<g id="edge21_Node000017_Node000018" class="edge">
<title>Node17&#45;&gt;Node18</title>
<g id="a_edge21_Node000017_Node000018"><a xlink:title=" ">
<path fill="none" stroke="#63b8ff" d="M977.36,-119.43C949.94,-109.27 906.89,-93.32 876.07,-81.9"/>
<polygon fill="#63b8ff" stroke="#63b8ff" points="877.33,-78.64 866.74,-78.45 874.9,-85.2 877.33,-78.64"/>
</a>
</g>
</g>
<!-- Node18&#45;&gt;Node12 -->
<g id="edge22_Node000018_Node000012" class="edge">
<title>Node18&#45;&gt;Node12</title>
<g id="a_edge22_Node000018_Node000012"><a xlink:title=" ">
<path fill="none" stroke="#63b8ff" d="M859.43,-56.34C877.18,-47.89 903.06,-35.57 923.24,-25.96"/>
<polygon fill="#63b8ff" stroke="#63b8ff" points="924.6,-29.19 932.13,-21.73 921.59,-22.87 924.6,-29.19"/>
</a>
</g>
</g>
<!-- Node18&#45;&gt;Node14 -->
<g id="edge23_Node000018_Node000014" class="edge">
<title>Node18&#45;&gt;Node14</title>
<g id="a_edge23_Node000018_Node000014"><a xlink:title=" ">
<path fill="none" stroke="#63b8ff" d="M843.7,-56.34C847.12,-49.41 851.82,-39.87 856.02,-31.36"/>
<polygon fill="#63b8ff" stroke="#63b8ff" points="859.14,-32.95 860.42,-22.44 852.86,-29.86 859.14,-32.95"/>
</a>
</g>
</g>
<!-- Node19&#45;&gt;Node12 -->
<g id="edge26_Node000019_Node000012" class="edge">
<title>Node19&#45;&gt;Node12</title>
<g id="a_edge26_Node000019_Node000012"><a xlink:title=" ">
<path fill="none" stroke="#63b8ff" d="M860.04,-119.39C877.53,-110.42 902.11,-95.79 918.88,-77.5 931.21,-64.03 940.56,-45.41 946.47,-31.36"/>
<polygon fill="#63b8ff" stroke="#63b8ff" points="949.65,-32.83 950.07,-22.25 943.14,-30.26 949.65,-32.83"/>
</a>
</g>
</g>
<!-- Node19&#45;&gt;Node14 -->
<g id="edge28_Node000019_Node000014" class="edge">
<title>Node19&#45;&gt;Node14</title>
<g id="a_edge28_Node000019_Node000014"><a xlink:title=" ">
<path fill="none" stroke="#63b8ff" d="M812.42,-119.42C782.82,-106.84 741.18,-83.47 758.88,-56.75 774.55,-33.08 805.32,-21.72 829.86,-16.29"/>
<polygon fill="#63b8ff" stroke="#63b8ff" points="830.33,-19.76 839.47,-14.42 828.99,-12.89 830.33,-19.76"/>
</a>
</g>
</g>
<!-- Node19&#45;&gt;Node18 -->
<g id="edge27_Node000019_Node000018" class="edge">
<title>Node19&#45;&gt;Node18</title>
<g id="a_edge27_Node000019_Node000018"><a xlink:title=" ">
<path fill="none" stroke="#63b8ff" d="M838.88,-119.43C838.88,-111.27 838.88,-99.38 838.88,-89.1"/>
<polygon fill="#63b8ff" stroke="#63b8ff" points="842.38,-89.23 838.88,-79.23 835.38,-89.23 842.38,-89.23"/>
</a>
</g>
</g>
</g>
</svg>
